<svg xmlns="http://www.w3.org/2000/svg" width="147.792" height="147.792" viewBox="0 0 147.792 147.792">
  <g id="Grupo_26996" data-name="Grupo 26996" transform="translate(2410.461 -1338.592)">
    <path id="Trazado_68792" data-name="Trazado 68792" d="M152.209,481.19a67.983,67.983,0,0,0-42.939,15.2,68.267,68.267,0,0,0,90.573,101.976A68.267,68.267,0,0,0,152.209,481.19Z" transform="translate(-2488.774 863.027)" fill="#a5dad4" fill-rule="evenodd"/>
    <path id="Trazado_68793" data-name="Trazado 68793" d="M103.959,449.262a73.9,73.9,0,1,0,73.9,73.9A73.9,73.9,0,0,0,103.959,449.262Zm0,140.784a66.888,66.888,0,1,1,66.888-66.888A66.886,66.886,0,0,1,103.959,590.046Z" transform="translate(-2440.524 889.33)" fill="#053c48"/>
    <circle id="Elipse_1932" data-name="Elipse 1932" cx="47.297" cy="47.297" r="47.297" transform="translate(-2403.453 1412.488) rotate(-45)" fill="#e1d9a2"/>
    <path id="Trazado_68794" data-name="Trazado 68794" d="M167.183,586.384a52.445,52.445,0,1,0,74.169,0A52.444,52.444,0,0,0,167.183,586.384Zm69.276,69.276a45.526,45.526,0,1,1,0-64.383A45.526,45.526,0,0,1,236.459,655.66Z" transform="translate(-2540.833 789.019)" fill="#053c48" fill-rule="evenodd"/>
    <path id="Trazado_68795" data-name="Trazado 68795" d="M233.255,844.243a4.868,4.868,0,1,0,6.885,0A4.867,4.867,0,0,0,233.255,844.243Z" transform="translate(-2606.745 565.107)" fill="#053c48" fill-rule="evenodd"/>
    <path id="Trazado_68796" data-name="Trazado 68796" d="M429.616,655.574a4.868,4.868,0,1,0-6.884,0A4.868,4.868,0,0,0,429.616,655.574Z" transform="translate(-2762.842 726.21)" fill="#053c48" fill-rule="evenodd"/>
    <path id="Trazado_68797" data-name="Trazado 68797" d="M295.235,978.05a4.869,4.869,0,1,0,4.869,4.87A4.869,4.869,0,0,0,295.235,978.05Z" transform="translate(-2654.97 453.698)" fill="#053c48" fill-rule="evenodd"/>
    <path id="Trazado_68798" data-name="Trazado 68798" d="M290.934,715.532a4.869,4.869,0,1,0-4.868-4.869A4.869,4.869,0,0,0,290.934,715.532Z" transform="translate(-2651.427 677.99)" fill="#053c48" fill-rule="evenodd"/>
    <path id="Trazado_68799" data-name="Trazado 68799" d="M618.284,845.045a4.869,4.869,0,1,0,0-6.885A4.869,4.869,0,0,0,618.284,845.045Z" transform="translate(-2923.944 570.119)" fill="#053c48" fill-rule="evenodd"/>
    <path id="Trazado_68800" data-name="Trazado 68800" d="M567.49,973.753a4.869,4.869,0,1,0,4.869,4.869A4.869,4.869,0,0,0,567.49,973.753Z" transform="translate(-2879.262 457.238)" fill="#053c48" fill-rule="evenodd"/>
    <path id="Trazado_68801" data-name="Trazado 68801" d="M376.548,748.291,402,722.833a3.46,3.46,0,0,0-4.894-4.892L374.1,740.949l-10.156-10.156a3.46,3.46,0,1,0-4.893,4.894l12.6,12.6A3.456,3.456,0,0,0,376.548,748.291Z" transform="translate(-2710.721 668.819)" fill="#053c48" fill-rule="evenodd"/>
    <path id="Trazado_68802" data-name="Trazado 68802" d="M428.812,1033.714a4.869,4.869,0,1,0,6.885,0A4.869,4.869,0,0,0,428.812,1033.714Z" transform="translate(-2767.852 409.015)" fill="#053c48" fill-rule="evenodd"/>
  </g>
</svg>
