<svg xmlns="http://www.w3.org/2000/svg" width="120" height="120" viewBox="0 0 120 120">
  <g id="Grupo_27405" data-name="Grupo 27405" transform="translate(-244 -1835)">
    <g id="Grupo_26993" data-name="Grupo 26993" transform="translate(18.458 11.458)">
      <g id="Elipse_1929" data-name="Elipse 1929" transform="translate(225.542 1823.542)" fill="#fff" stroke="#92934e" stroke-width="6">
        <circle cx="60" cy="60" r="60" stroke="none"/>
        <circle cx="60" cy="60" r="57" fill="none"/>
      </g>
      <g id="Grupo_25512" data-name="Grupo 25512" transform="translate(252.91 1841.832)">
        <path id="Trazado_66713" data-name="Trazado 66713" d="M1833.657,2012.8c.378-.688,2.161-4.254.2-6.776a29.213,29.213,0,0,0-4.416-3.516,5.738,5.738,0,0,0,.567-2.536c-.045-3.789-7.534-9.408-8.2-9.893l-.032-.023-.018-.013c-.023-.015-.049-.024-.072-.037s-.052-.03-.079-.043-.074-.041-.114-.057-.062-.02-.093-.031-.056-.018-.084-.026-.079-.025-.121-.033-.059-.007-.088-.011-.076-.009-.115-.011-.059-.01-.089-.01l-37.005-.331h-.029c-.028,0-.053.007-.08.008l-.02,0c-.035,0-.07,0-.1.008s-.066.006-.1.012-.081.023-.121.034-.052.014-.078.022-.065.018-.1.031-.08.04-.121.061l-.068.037-.006,0c-.025.014-.051.023-.076.039l-.007.005c-.013.009-.025.02-.038.029l-.083.065-.018.014c-1.094.858-8.089,6.535-8.133,10.2a5.733,5.733,0,0,0,.545,2.49,31.7,31.7,0,0,0-4.394,3.562c-1.957,2.522-.174,6.087.2,6.776a11.222,11.222,0,0,0,2.362,2.879c-1.7,2.255-3.815,6.527-2.311,11.258a4,4,0,0,0,1.758,2.156,10.442,10.442,0,0,0,.331,6.152c.336.833,1.394,3.123,3.108,4.03a26.966,26.966,0,0,1,5.51,14.924,26.659,26.659,0,0,1-2.842,13.256c-.008.016-.011.032-.018.048a1.561,1.561,0,0,0-.061.158c-.016.048-.033.1-.045.144s-.017.1-.024.145a1.672,1.672,0,0,0-.018.174c0,.016,0,.032,0,.049s.007.06.009.09a1.648,1.648,0,0,0,.017.172c.008.05.02.1.033.147s.028.1.046.147.039.095.062.141.046.091.073.135a1.4,1.4,0,0,0,.085.123,1.35,1.35,0,0,0,.21.227c.038.034.076.067.117.1a1.6,1.6,0,0,0,.145.092c.026.015.048.035.076.048s.027.009.041.015a1.579,1.579,0,0,0,.243.089c.03.009.059.021.089.028a1.59,1.59,0,0,0,.334.038h44.336a1.588,1.588,0,0,0,.334-.038c.03-.007.059-.02.09-.028a1.585,1.585,0,0,0,.243-.089c.013-.006.027-.009.041-.015s.05-.033.076-.048a1.585,1.585,0,0,0,.145-.092c.041-.031.08-.063.117-.1a1.515,1.515,0,0,0,.109-.106,1.532,1.532,0,0,0,.1-.122c.03-.04.059-.08.085-.123a1.53,1.53,0,0,0,.073-.135c.023-.046.044-.093.062-.141s.032-.1.046-.147.025-.1.033-.147a1.525,1.525,0,0,0,.017-.172c0-.03.009-.059.009-.09s0-.032-.005-.049a1.493,1.493,0,0,0-.017-.174c-.007-.049-.013-.1-.024-.145s-.028-.1-.045-.144a1.622,1.622,0,0,0-.061-.158c-.007-.016-.01-.032-.018-.048a26.66,26.66,0,0,1-2.842-13.256A27,27,0,0,1,1829,2039.1a1.572,1.572,0,0,0,.211-.373,9.636,9.636,0,0,0,2.312-3.483,10.453,10.453,0,0,0,.326-6.171,4.661,4.661,0,0,0,1.579-1.749c2.84-4.346.521-10.2-.909-12.859A10.508,10.508,0,0,0,1833.657,2012.8Zm-2.9,12.785c-.045.069-.094.157-.15.263-.095.183-.384.741-2.223,1.416a19.827,19.827,0,0,1-8.192.763c-.391-.034-.8-.071-1.211-.115h-.007a18.52,18.52,0,0,1-5.395-1.306c-.885-.368-2.513-.887-4.4-1.489-1.663-.53-4.234-1.351-5.477-1.86v-6.07c2.8,1.118,6.818,2.383,8.142,2.764a24.127,24.127,0,0,0,6.55.868c.729,0,1.5-.03,2.307-.1a20.243,20.243,0,0,0,9.421-3.994C1831.164,2018.952,1832.478,2022.957,1830.758,2025.589Zm-2.191,8.47a6.639,6.639,0,0,1-1.528,2.38,11.353,11.353,0,0,1-.79-1.134c-.346-.536-.777-1.2-1.335-1.948a23.642,23.642,0,0,0-1.758-2.055,20.434,20.434,0,0,0,5.709-.857A6.939,6.939,0,0,1,1828.567,2034.058Zm-26.451-37.217a1.591,1.591,0,0,0-1.591,1.591v2.078c-3.143-.328-9.058-1.073-11.292-2.555a7.731,7.731,0,0,1-3.4-3.589,6.763,6.763,0,0,1-.356-1.714l33.775.3a6.636,6.636,0,0,1-.341,1.359,7.739,7.739,0,0,1-3.4,3.588c-1.61,1.068-5.577,1.944-11.8,2.608v-2.076A1.591,1.591,0,0,0,1802.115,1996.841Zm29.232,11.137c.53.683.026,2.372-.481,3.3-1.883,3.44-7.439,6.014-10.437,6.275a21.645,21.645,0,0,1-7.7-.655,86.934,86.934,0,0,1-9.02-3.151v-3.8c2.534.163,6.816.349,8.717.349.2,0,.368,0,.509-.006a22.039,22.039,0,0,0,9.993-2.228,21.016,21.016,0,0,0,4.6-3.019A35.236,35.236,0,0,1,1831.347,2007.978Zm-4.517-7.965c.029,2.409-3.622,4.313-5.376,5.229a18.949,18.949,0,0,1-8.616,1.869c-1.518.043-6.6-.185-9.131-.351v-3.051c5.041-.518,10.852-1.36,13.558-3.157a10.608,10.608,0,0,0,4.622-5.12,9.624,9.624,0,0,0,.3-.967C1824.273,1996.321,1826.817,1998.95,1826.83,2000.013Zm-44.321-5.719a8.392,8.392,0,0,0,.341,1.192,10.6,10.6,0,0,0,4.621,5.12c2.7,1.79,8.245,2.608,13.052,3.1v3.06c-2.437.18-7.187.439-8.625.4a18.94,18.94,0,0,1-8.616-1.869c-1.754-.915-5.4-2.819-5.376-5.229C1777.919,1998.992,1780.44,1996.246,1782.51,1994.295Zm-9.13,13.75a35.166,35.166,0,0,1,3.791-2.985,20.874,20.874,0,0,0,4.639,3.058,22.034,22.034,0,0,0,9.993,2.228c.127,0,.276.005.443.005,1.81,0,5.833-.211,8.277-.389v3.815a55.345,55.345,0,0,1-7.927,3.171,21.61,21.61,0,0,1-7.7.657,18.857,18.857,0,0,1-7.833-3.074c-.021-.028-.037-.059-.06-.086a1.578,1.578,0,0,0-.7-.468,8.98,8.98,0,0,1-2.426-2.648C1773.363,2010.4,1772.86,2008.716,1773.38,2008.045Zm11.237,12.731c.805.07,1.574.1,2.3.1a24.153,24.153,0,0,0,6.554-.868,59.977,59.977,0,0,0,7.05-2.7v5.97c-1.246.543-3.846,1.433-5.526,2.009-1.625.557-3.029,1.038-3.841,1.375a20.539,20.539,0,0,1-6.613,1.421,19.828,19.828,0,0,1-8.192-.763c-1.652-.606-2.142-1.14-2.191-1.293-1.151-3.62.716-6.861,1.846-8.383A21.549,21.549,0,0,0,1784.617,2020.776Zm-8.746,9.723a20.357,20.357,0,0,0,5.709.858,23.676,23.676,0,0,0-1.758,2.055c-.557.744-.987,1.411-1.333,1.947a12.246,12.246,0,0,1-.775,1.118,6.321,6.321,0,0,1-1.545-2.365A6.934,6.934,0,0,1,1775.871,2030.5Zm44.261,23.6a29.674,29.674,0,0,0,2.138,12.536h-39.395a29.674,29.674,0,0,0,2.138-12.536,30.047,30.047,0,0,0-5.147-15.289,10.13,10.13,0,0,0,1.3-1.73c.336-.521.716-1.109,1.207-1.765a27.533,27.533,0,0,1,4.141-4.23,21.233,21.233,0,0,0,5.865-1.485c.719-.3,2.144-.787,3.652-1.3,1.916-.656,3.384-1.168,4.5-1.592V2031a1.591,1.591,0,0,0,3.182,0v-4.34c1.114.4,2.587.879,4.509,1.493,1.74.555,3.383,1.079,4.144,1.4a21.237,21.237,0,0,0,5.867,1.486,27.585,27.585,0,0,1,4.141,4.23c.491.655.872,1.245,1.208,1.765a8.238,8.238,0,0,0,1.576,1.973A30.046,30.046,0,0,0,1820.132,2054.1Z" transform="translate(-1769.974 -1989.456)" fill="#ed8730"/>
        <path id="Trazado_66714" data-name="Trazado 66714" d="M1903.64,2258.057a1.591,1.591,0,0,0-1.591,1.591v3.833a1.591,1.591,0,1,0,3.182,0v-3.833A1.591,1.591,0,0,0,1903.64,2258.057Z" transform="translate(-1871.499 -2195.928)" fill="#ed8730"/>
      </g>
    </g>
  </g>
</svg>
