<svg xmlns="http://www.w3.org/2000/svg" width="261.083" height="266.475" viewBox="0 0 261.083 266.475">
  <g id="Grupo_27232" data-name="Grupo 27232" transform="translate(-210 -22985.256)">
    <g id="Grupo_25945" data-name="Grupo 25945" transform="translate(-803.644 21349.117)">
      <g id="Grupo_25925" data-name="Grupo 25925" transform="translate(1013.644 1641.531)">
        <g id="Grupo_25924" data-name="Grupo 25924" transform="translate(0 0)">
          <g id="Grupo_25923" data-name="Grupo 25923">
            <g id="Grupo_25922" data-name="Grupo 25922">
              <g id="Grupo_25921" data-name="Grupo 25921">
                <g id="Grupo_25920" data-name="Grupo 25920">
                  <g id="Grupo_25919" data-name="Grupo 25919">
                    <g id="Grupo_25918" data-name="Grupo 25918">
                      <g id="Grupo_25917" data-name="Grupo 25917">
                        <g id="Grupo_25916" data-name="Grupo 25916">
                          <path id="Trazado_67386" data-name="Trazado 67386" d="M1188.856,2035.108q-1.5,0-2.987-.036a1.388,1.388,0,0,1-1.353-1.422,1.4,1.4,0,0,1,1.422-1.353,118.287,118.287,0,0,0,13.706-.458,1.388,1.388,0,1,1,.255,2.765C1196.253,2034.939,1192.536,2035.108,1188.856,2035.108Zm-16.774-1.186a1.408,1.408,0,0,1-.2-.014,119.126,119.126,0,0,1-13.754-2.8,1.388,1.388,0,1,1,.714-2.682,116.5,116.5,0,0,0,13.432,2.733,1.388,1.388,0,0,1-.194,2.762Zm41.4-1.394a1.388,1.388,0,0,1-.287-2.746,116.071,116.071,0,0,0,13.212-3.64,1.388,1.388,0,0,1,.895,2.628,118.781,118.781,0,0,1-13.53,3.726A1.372,1.372,0,0,1,1213.482,2032.528Zm-68.165-5.725a1.373,1.373,0,0,1-.512-.1,119.488,119.488,0,0,1-12.714-5.945,1.388,1.388,0,1,1,1.322-2.441,116.685,116.685,0,0,0,12.417,5.806,1.388,1.388,0,0,1-.513,2.678Zm94.381-3.194a1.388,1.388,0,0,1-.6-2.64,117.267,117.267,0,0,0,12-6.631,1.388,1.388,0,0,1,1.483,2.346,119.952,119.952,0,0,1-12.282,6.789A1.366,1.366,0,0,1,1239.7,2023.609Z" transform="translate(-1058.314 -1784.963)" fill="#1c5a88"/>
                          <path id="Trazado_67387" data-name="Trazado 67387" d="M1373.047,1817.659a1.426,1.426,0,0,1-.3-.032,1.389,1.389,0,0,1-1.057-1.654,116.64,116.64,0,0,0,2.156-13.538,1.388,1.388,0,0,1,2.763.274,119.583,119.583,0,0,1-2.207,13.861A1.389,1.389,0,0,1,1373.047,1817.659Zm2.744-27.561a1.387,1.387,0,0,1-1.387-1.363,117.965,117.965,0,0,0-1.037-13.668,1.388,1.388,0,1,1,2.751-.372,120.691,120.691,0,0,1,1.062,13.992,1.388,1.388,0,0,1-1.364,1.412Zm-3.716-27.439a1.389,1.389,0,0,1-1.343-1.042,116.1,116.1,0,0,0-4.2-13.039,1.388,1.388,0,0,1,2.588-1.006,119.2,119.2,0,0,1,4.3,13.352,1.388,1.388,0,0,1-1,1.69A1.408,1.408,0,0,1,1372.076,1762.658Zm-10.029-25.8a1.387,1.387,0,0,1-1.227-.737,117.394,117.394,0,0,0-7.134-11.7,1.388,1.388,0,0,1,2.282-1.581,120.4,120.4,0,0,1,7.3,11.98,1.388,1.388,0,0,1-1.224,2.04Zm-15.769-22.762a1.385,1.385,0,0,1-1.042-.47,118.08,118.08,0,0,0-9.649-9.739,1.388,1.388,0,0,1,1.855-2.066,121.024,121.024,0,0,1,9.876,9.968,1.388,1.388,0,0,1-1.04,2.306Zm-20.605-18.507a1.378,1.378,0,0,1-.8-.256,117.666,117.666,0,0,0-11.638-7.244,1.388,1.388,0,1,1,1.325-2.439,120.107,120.107,0,0,1,11.915,7.417,1.389,1.389,0,0,1-.8,2.522Z" transform="translate(-1127.053 -1660.255)" fill="#1c5a88"/>
                          <path id="Trazado_67388" data-name="Trazado 67388" d="M1032.735,1798.429a1.388,1.388,0,0,1-1.386-1.338c-.052-1.438-.078-2.9-.078-4.345,0-3.224.13-6.482.388-9.683a1.388,1.388,0,0,1,2.767.223c-.251,3.127-.379,6.31-.379,9.46,0,1.412.026,2.839.076,4.246a1.388,1.388,0,0,1-1.338,1.436Zm2.233-27.6a1.433,1.433,0,0,1-.275-.027,1.389,1.389,0,0,1-1.088-1.635,119.053,119.053,0,0,1,3.574-13.577,1.388,1.388,0,0,1,2.638.865,116.194,116.194,0,0,0-3.49,13.259A1.388,1.388,0,0,1,1034.968,1770.828Zm8.62-26.325a1.389,1.389,0,0,1-1.258-1.973,120.037,120.037,0,0,1,6.65-12.36,1.388,1.388,0,0,1,2.364,1.457,117.051,117.051,0,0,0-6.5,12.073A1.387,1.387,0,0,1,1043.587,1744.5Zm14.53-23.581a1.389,1.389,0,0,1-1.088-2.25,121.107,121.107,0,0,1,9.332-10.481,1.388,1.388,0,1,1,1.962,1.964,118.22,118.22,0,0,0-9.116,10.239A1.387,1.387,0,0,1,1058.117,1720.922Zm19.589-19.579a1.388,1.388,0,0,1-.861-2.477,120.553,120.553,0,0,1,11.5-8.042,1.388,1.388,0,0,1,1.456,2.364,117.709,117.709,0,0,0-11.232,7.857A1.383,1.383,0,0,1,1077.706,1701.344Z" transform="translate(-1020.333 -1662.204)" fill="#1c5a88"/>
                          <g id="Grupo_25915" data-name="Grupo 25915">
                            <circle id="Elipse_1835" data-name="Elipse 1835" cx="92.307" cy="92.307" r="92.307" transform="translate(0 130.542) rotate(-45)" fill="#c9f0fb"/>
                          </g>
                        </g>
                      </g>
                    </g>
                  </g>
                </g>
              </g>
            </g>
          </g>
        </g>
      </g>
      <g id="Grupo_25931" data-name="Grupo 25931" transform="translate(1074.929 1636.138)">
        <circle id="Elipse_1836" data-name="Elipse 1836" cx="49.39" cy="49.39" r="49.39" transform="translate(0 69.849) rotate(-45)" fill="#fff"/>
        <path id="Trazado_67405" data-name="Trazado 67405" d="M1193.915,1768.426a50.778,50.778,0,1,1,50.778-50.778A50.836,50.836,0,0,1,1193.915,1768.426Zm0-98.78a48,48,0,1,0,48,48A48.057,48.057,0,0,0,1193.915,1669.646Z" transform="translate(-1124.067 -1647.8)" fill="#1c5a89"/>
      </g>
      <g id="Grupo_25932" data-name="Grupo 25932" transform="translate(1115.131 1676.341)">
        <circle id="Elipse_1837" data-name="Elipse 1837" cx="23.776" cy="23.776" r="23.776" transform="translate(0 45.512) rotate(-73.155)" fill="#ffa197"/>
        <path id="Trazado_67406" data-name="Trazado 67406" d="M1209.579,1758.476a25.164,25.164,0,1,1,25.164-25.164A25.192,25.192,0,0,1,1209.579,1758.476Zm0-47.552a22.388,22.388,0,1,0,22.388,22.388A22.413,22.413,0,0,0,1209.579,1710.924Z" transform="translate(-1179.933 -1703.666)" fill="#1c5a89"/>
      </g>
      <g id="Grupo_25933" data-name="Grupo 25933" transform="translate(1100.053 1701.179)">
        <circle id="Elipse_1838" data-name="Elipse 1838" cx="5.129" cy="5.129" r="5.129" transform="translate(0.633 10.758) rotate(-80.783)" fill="#66c5ff"/>
        <path id="Trazado_67407" data-name="Trazado 67407" d="M1159.411,1753.987a6.517,6.517,0,1,1,6.517-6.517A6.524,6.524,0,0,1,1159.411,1753.987Zm0-10.258a3.741,3.741,0,1,0,3.741,3.741A3.746,3.746,0,0,0,1159.411,1743.729Z" transform="translate(-1152.894 -1740.953)" fill="#1c5a89"/>
      </g>
      <g id="Grupo_25934" data-name="Grupo 25934" transform="translate(1174.84 1700.995)">
        <circle id="Elipse_1839" data-name="Elipse 1839" cx="5.129" cy="5.129" r="5.129" transform="translate(0 3.926) rotate(-22.5)" fill="#66c5ff"/>
        <path id="Trazado_67408" data-name="Trazado 67408" d="M1280.229,1753.987a6.517,6.517,0,1,1,6.517-6.517A6.524,6.524,0,0,1,1280.229,1753.987Zm0-10.258a3.741,3.741,0,1,0,3.741,3.741A3.746,3.746,0,0,0,1280.229,1743.729Z" transform="translate(-1273.527 -1740.768)" fill="#1c5a89"/>
      </g>
      <rect id="Rectángulo_25870" data-name="Rectángulo 25870" width="10.258" height="2.775" transform="translate(1101.441 1691.301)" fill="#1c5a89"/>
      <rect id="Rectángulo_25871" data-name="Rectángulo 25871" width="10.258" height="2.775" transform="translate(1101.441 1696.24)" fill="#1c5a89"/>
      <rect id="Rectángulo_25872" data-name="Rectángulo 25872" width="10.258" height="2.775" transform="translate(1176.413 1714.856)" fill="#1c5a89"/>
      <g id="Grupo_25935" data-name="Grupo 25935" transform="translate(1139.204 1724.832)">
        <rect id="Rectángulo_25873" data-name="Rectángulo 25873" width="8.37" height="29.008" transform="translate(1.388 1.388)" fill="#fff"/>
        <path id="Trazado_67409" data-name="Trazado 67409" d="M1227.132,1810.854h-11.146V1779.07h11.146Zm-8.37-2.776h5.6v-26.232h-5.6Z" transform="translate(-1215.986 -1779.07)" fill="#1c5a89"/>
      </g>
      <g id="Grupo_25936" data-name="Grupo 25936" transform="translate(1127.003 1750.801)">
        <path id="Trazado_67410" data-name="Trazado 67410" d="M1226.509,1832.8h-23.126a4.823,4.823,0,0,1-4.823-4.823h0a4.823,4.823,0,0,1,4.823-4.823h23.126a4.823,4.823,0,0,1,4.823,4.823h0A4.823,4.823,0,0,1,1226.509,1832.8Z" transform="translate(-1197.172 -1821.767)" fill="#66c5ff"/>
        <path id="Trazado_67411" data-name="Trazado 67411" d="M1225.661,1833.342h-23.126a6.211,6.211,0,1,1,0-12.423h23.126a6.211,6.211,0,0,1,0,12.423Zm-23.126-9.647a3.436,3.436,0,0,0,0,6.871h23.126a3.436,3.436,0,1,0,0-6.871Z" transform="translate(-1196.323 -1820.919)" fill="#1c5a89"/>
      </g>
      <g id="Grupo_25937" data-name="Grupo 25937" transform="translate(1117.15 1718.656)">
        <rect id="Rectángulo_25874" data-name="Rectángulo 25874" width="52.05" height="12.158" rx="6.079" transform="translate(1.388 1.388)" fill="#fcdf90"/>
        <path id="Trazado_67412" data-name="Trazado 67412" d="M1227.8,1784.05h-39.892a7.467,7.467,0,1,1,0-14.933H1227.8a7.467,7.467,0,1,1,0,14.933Zm-39.892-12.158a4.691,4.691,0,0,0,0,9.382H1227.8a4.691,4.691,0,1,0,0-9.382Z" transform="translate(-1180.445 -1769.117)" fill="#1c5a89"/>
      </g>
      <g id="Grupo_25943" data-name="Grupo 25943" transform="translate(1161.643 1762.687)">
        <path id="Trazado_67413" data-name="Trazado 67413" d="M1343.24,1937.145c-.066-2.477-.122-5.148-.172-8.033-.418-23.291-1.674-10.6-.976-28.591s-.324-32.032-3.487-36.864-16.267-9.484-22.036-12.089c-5.651-2.555-6.3-5.468-6.321-9.261h-22.872c-.022,3.793-.669,6.706-6.321,9.261-5.768,2.6-18.878,7.252-22.036,12.089s-4.184,18.872-3.486,36.864-.558,5.3-.977,28.591c-.05,2.884-.105,5.556-.172,8.033Z" transform="translate(-1252.995 -1840.922)" fill="#fff"/>
        <path id="Trazado_67414" data-name="Trazado 67414" d="M1275.455,1979.744a1.438,1.438,0,0,1-.206-.015,1.389,1.389,0,0,1-1.169-1.577l1.072-7.193c.463-3.1.856-5.728,1.119-7.532,1.1-7.538,1.462-11.228,1.464-11.264a1.388,1.388,0,0,1,2.764.269c-.016.151-.374,3.781-1.481,11.4-.264,1.807-.658,4.442-1.121,7.542l-1.071,7.191A1.388,1.388,0,0,1,1275.455,1979.744Z" transform="translate(-1260.464 -1882.132)" fill="#1c5a89"/>
        <path id="Trazado_67415" data-name="Trazado 67415" d="M1253.536,1937.685h-.039a1.389,1.389,0,0,1-1.35-1.425c.067-2.473.123-5.141.173-8.02.2-11.379.6-14.205.894-16.269.282-2,.437-3.1.082-12.243-.534-13.786-.323-31.514,3.713-37.678,2.787-4.269,11.973-8.106,18.679-10.908,1.537-.642,2.864-1.2,3.946-1.686,5.09-2.3,5.484-4.663,5.5-8a1.388,1.388,0,0,1,1.388-1.38h.008a1.388,1.388,0,0,1,1.38,1.4c-.022,3.852-.585,7.555-7.136,10.517-1.12.505-2.528,1.094-4.019,1.716-6.016,2.513-15.1,6.31-17.426,9.866-2.8,4.269-3.984,17.409-3.262,36.051.364,9.392.2,10.581-.108,12.738-.266,1.88-.666,4.722-.868,15.93-.05,2.889-.105,5.565-.172,8.046A1.388,1.388,0,0,1,1253.536,1937.685Z" transform="translate(-1252.146 -1840.073)" fill="#1c5a89"/>
        <path id="Trazado_67416" data-name="Trazado 67416" d="M1283.129,1959.664h-.047a1.388,1.388,0,0,1-1.34-1.434,60.617,60.617,0,0,0-.352-9.723c-.682-5.369-1.739-10.279-2.763-15.028l-.208-.968c-1.484-6.936-2.619-12.724-2.619-18.806v-14.321a1.387,1.387,0,0,1,2.775,0V1913.7c0,5.811,1.11,11.453,2.559,18.225l.207.965c1.034,4.806,2.1,9.775,2.8,15.261a63.311,63.311,0,0,1,.373,10.169A1.387,1.387,0,0,1,1283.129,1959.664Z" transform="translate(-1261.122 -1862.052)" fill="#1c5a89"/>
        <path id="Trazado_67417" data-name="Trazado 67417" d="M1372.567,1979.745a1.389,1.389,0,0,1-1.372-1.184l-1.047-7.026c-.473-3.171-.876-5.868-1.145-7.705-1.107-7.616-1.466-11.245-1.482-11.4a1.388,1.388,0,0,1,2.764-.27c0,.036.368,3.726,1.465,11.265.267,1.836.67,4.529,1.144,7.7l1.048,7.029a1.389,1.389,0,0,1-1.169,1.577A1.551,1.551,0,0,1,1372.567,1979.745Z" transform="translate(-1295.924 -1882.132)" fill="#1c5a89"/>
        <path id="Trazado_67418" data-name="Trazado 67418" d="M1376.552,1937.685a1.388,1.388,0,0,1-1.387-1.35c-.067-2.481-.122-5.157-.172-8.047-.2-11.208-.6-14.05-.868-15.93-.3-2.158-.472-3.347-.108-12.738.723-18.641-.466-31.781-3.261-36.049-2.323-3.558-11.412-7.355-17.427-9.868-1.491-.623-2.9-1.211-4.019-1.716-6.552-2.962-7.114-6.665-7.137-10.517a1.388,1.388,0,0,1,1.38-1.4h.008a1.388,1.388,0,0,1,1.388,1.38c.02,3.341.414,5.7,5.5,8,1.082.488,2.408,1.043,3.945,1.686,6.707,2.8,15.892,6.638,18.681,10.909,4.036,6.164,4.246,23.891,3.711,37.676-.354,9.142-.2,10.243.083,12.242.292,2.064.69,4.891.894,16.269.05,2.88.106,5.548.173,8.021a1.389,1.389,0,0,1-1.35,1.425Z" transform="translate(-1286.308 -1840.073)" fill="#1c5a89"/>
        <path id="Trazado_67419" data-name="Trazado 67419" d="M1363.47,1959.664a1.388,1.388,0,0,1-1.387-1.341,63.315,63.315,0,0,1,.373-10.17c.695-5.473,1.763-10.433,2.8-15.23l.214-1c1.449-6.771,2.558-12.413,2.558-18.224v-14.321a1.388,1.388,0,0,1,2.775,0V1913.7c0,6.082-1.135,11.871-2.619,18.805l-.215,1c-1.02,4.74-2.075,9.641-2.756,15a60.625,60.625,0,0,0-.352,9.724,1.388,1.388,0,0,1-1.34,1.434Z" transform="translate(-1293.844 -1862.052)" fill="#1c5a89"/>
        <g id="Grupo_25942" data-name="Grupo 25942" transform="translate(41.713 29.009)">
          <g id="Grupo_25940" data-name="Grupo 25940" transform="translate(0.432)">
            <g id="Grupo_25939" data-name="Grupo 25939">
              <g id="Grupo_25938" data-name="Grupo 25938">
                <path id="Trazado_67420" data-name="Trazado 67420" d="M1323.694,1895.826a10.9,10.9,0,0,1-1.325-6.252l4.738-.516a12.805,12.805,0,0,0,1.668,5.694l12.614.8a12.225,12.225,0,0,1,5.344-2.987l2.047,4.231a16.121,16.121,0,0,0-5.311,3.534" transform="translate(-1320.912 -1887.67)" fill="#ffa197"/>
                <path id="Trazado_67421" data-name="Trazado 67421" d="M1342.62,1900.866a1.388,1.388,0,0,1-.959-2.391,19.221,19.221,0,0,1,4.4-3.21l-.91-1.88a11.3,11.3,0,0,0-3.621,2.29,1.373,1.373,0,0,1-1.077.412l-12.614-.8a1.39,1.39,0,0,1-1.148-.752,16.964,16.964,0,0,1-1.676-4.795l-2.173.236a10.157,10.157,0,0,0,1.213,4.318,1.388,1.388,0,1,1-2.417,1.363,12.315,12.315,0,0,1-1.493-7.116,1.388,1.388,0,0,1,1.226-1.2l4.738-.516a1.388,1.388,0,0,1,1.537,1.431,11.2,11.2,0,0,0,1.176,4.309l11.215.709a13.5,13.5,0,0,1,5.531-2.917,1.389,1.389,0,0,1,1.566.747l2.047,4.232a1.387,1.387,0,0,1-.764,1.9,14.812,14.812,0,0,0-4.837,3.237A1.383,1.383,0,0,1,1342.62,1900.866Z" transform="translate(-1320.063 -1886.821)" fill="#1c5a89"/>
              </g>
            </g>
          </g>
          <g id="Grupo_25941" data-name="Grupo 25941" transform="translate(0 5.263)">
            <path id="Trazado_67422" data-name="Trazado 67422" d="M1342.923,1906.84c-.212-1.72,1.61-5.393-1.792-8.073s-6.282-.011-13.341-.871c-7.894-.962-6.763,9.422-4.491,14.333s9.357,14.818,13.846,14.606,6.809-6.333,6.568-11.558A71.282,71.282,0,0,0,1342.923,1906.84Z" transform="translate(-1320.223 -1896.151)" fill="#ffa197"/>
            <path id="Trazado_67423" data-name="Trazado 67423" d="M1336.154,1927.376c-5.582,0-12.849-10.824-14.972-15.414-1.567-3.389-3.025-10.179-.266-13.969.94-1.289,2.781-2.735,6.186-2.324a25.671,25.671,0,0,0,6.792-.138c2.6-.32,4.836-.6,7.239,1.3,3.153,2.485,2.7,5.745,2.424,7.693a6.83,6.83,0,0,0-.114,1.3h0c.064.518.126.962.187,1.395a64.863,64.863,0,0,1,.612,7.146c.287,6.2-2.586,12.759-7.889,13.008C1336.288,1927.374,1336.22,1927.376,1336.154,1927.376Zm-10.209-29a3.2,3.2,0,0,0-2.784,1.255c-1.845,2.534-.871,8.115.542,11.17,2.49,5.385,9.143,13.8,12.433,13.8l.088,0c3.41-.161,5.467-5.356,5.247-10.107a61.646,61.646,0,0,0-.589-6.89c-.062-.448-.127-.905-.192-1.44h0a7.992,7.992,0,0,1,.12-2.025c.249-1.785.508-3.63-1.392-5.127-1.432-1.128-2.624-1.037-5.182-.722a28.443,28.443,0,0,1-7.468.139A6.784,6.784,0,0,0,1325.945,1898.372Z" transform="translate(-1319.366 -1895.302)" fill="#1c5a89"/>
          </g>
        </g>
      </g>
      <g id="Grupo_25944" data-name="Grupo 25944" transform="translate(1211.063 1800.993)">
        <path id="Trazado_67424" data-name="Trazado 67424" d="M1337.907,1914.762h-3.882l6.01-10.721-.345,7.5h3.882l-6.01,10.721Z" transform="translate(-1332.637 -1902.652)" fill="#fcdf90"/>
        <path id="Trazado_67425" data-name="Trazado 67425" d="M1336.714,1922.8a1.39,1.39,0,0,1-1.387-1.452l.278-6.052h-2.429a1.388,1.388,0,0,1-1.211-2.066l6.01-10.721a1.388,1.388,0,0,1,2.6.743l-.279,6.051h2.429a1.387,1.387,0,0,1,1.211,2.066l-6.009,10.721A1.388,1.388,0,0,1,1336.714,1922.8Zm-1.168-10.279h1.513a1.388,1.388,0,0,1,1.387,1.451l-.076,1.647,1.984-3.541h-1.514a1.387,1.387,0,0,1-1.386-1.451l.076-1.646Z" transform="translate(-1331.788 -1901.804)" fill="#1c5a89"/>
      </g>
    </g>
    <g id="Grupo_25948" data-name="Grupo 25948" transform="translate(-275.064 22029.779)">
      <g id="Grupo_25946" data-name="Grupo 25946" transform="translate(501.064 1104.003)">
        <path id="Trazado_67426" data-name="Trazado 67426" d="M538.694,1156.608h-7.552v-5.773a22.529,22.529,0,1,0-10.31,0v5.773h-7.553a5.155,5.155,0,1,0,0,10.31h7.553v5.536a5.155,5.155,0,0,0,10.31,0v-5.536h7.552a5.155,5.155,0,1,0,0-10.31Zm-24.926-27.684a12.219,12.219,0,1,1,12.219,12.219A12.233,12.233,0,0,1,513.768,1128.924Z" transform="translate(-502.093 -1105.032)" fill="#fcdf90"/>
        <path id="Trazado_67427" data-name="Trazado 67427" d="M524.958,1177.945a6.527,6.527,0,0,1-6.52-6.519v-4.172H512.25a6.519,6.519,0,0,1,0-13.038h6.188v-3.353a23.893,23.893,0,1,1,13.038,0v3.353h6.188a6.519,6.519,0,1,1,0,13.038h-6.188v4.172A6.526,6.526,0,0,1,524.958,1177.945Zm-12.708-21a3.791,3.791,0,0,0,0,7.581H519.8a1.364,1.364,0,0,1,1.364,1.364v5.537a3.791,3.791,0,0,0,7.581,0v-5.537a1.364,1.364,0,0,1,1.365-1.364h7.552a3.791,3.791,0,1,0,0-7.581h-7.552a1.365,1.365,0,0,1-1.365-1.365v-5.773a1.365,1.365,0,0,1,1.052-1.328,21.165,21.165,0,1,0-9.685,0,1.365,1.365,0,0,1,1.052,1.328v5.773a1.364,1.364,0,0,1-1.364,1.365Zm12.708-15.465a13.583,13.583,0,1,1,13.583-13.583A13.6,13.6,0,0,1,524.958,1141.478Zm0-24.438a10.855,10.855,0,1,0,10.854,10.854A10.867,10.867,0,0,0,524.958,1117.041Z" transform="translate(-501.064 -1104.003)" fill="#1c5a88"/>
      </g>
      <g id="Grupo_25947" data-name="Grupo 25947" transform="translate(554.565 1115.023)">
        <path id="Trazado_67428" data-name="Trazado 67428" d="M655.539,1129.948c-.017-.1-.041-.186-.063-.279a5.268,5.268,0,0,0-.193-.623c-.034-.088-.064-.176-.1-.262a5.149,5.149,0,0,0-.421-.775c-.015-.023-.035-.042-.051-.065a5.1,5.1,0,0,0-.516-.626c-.063-.065-.129-.125-.2-.186a5.012,5.012,0,0,0-.5-.409c-.077-.057-.153-.114-.233-.165a5.042,5.042,0,0,0-.657-.356c-.049-.023-.094-.052-.144-.074l-.01-.005a5.248,5.248,0,0,0-.846-.26c-.084-.019-.171-.03-.257-.044a5.136,5.136,0,0,0-.716-.072c-.051,0-.1-.016-.149-.016H637.037a5.142,5.142,0,0,0,0,10.285h1.037l-6.472,6.472a22.5,22.5,0,1,0,7.276,7.269l6.469-6.469v1.162a5.142,5.142,0,1,0,10.285,0v-13.576A5.087,5.087,0,0,0,655.539,1129.948ZM628.4,1170.2h0a12.184,12.184,0,1,1,0-17.241v0l0,0a12.19,12.19,0,0,1,0,17.238Z" transform="translate(-595.956 -1124.366)" fill="#66c5ff"/>
        <path id="Trazado_67429" data-name="Trazado 67429" d="M618.754,1184.377a23.827,23.827,0,1,1,11.6-44.63l3.7-3.7a6.507,6.507,0,0,1,1.957-12.713h13.452a1.873,1.873,0,0,1,.247.018,6.565,6.565,0,0,1,.848.088l.058.01c.09.014.18.029.268.048a6.492,6.492,0,0,1,1.069.331l.07.031c.051.023.1.049.151.076a6.476,6.476,0,0,1,.808.441c.087.056.173.118.258.18a6.714,6.714,0,0,1,.666.547c.1.1.176.164.245.235a6.593,6.593,0,0,1,.628.757c.031.039.059.077.087.117a6.49,6.49,0,0,1,.535.982c.038.085.072.174.1.263l.024.064a6.567,6.567,0,0,1,.246.792l.014.059c.024.1.047.2.065.3a6.456,6.456,0,0,1,.116,1.17v13.576a6.507,6.507,0,0,1-12.743,1.861l-3.664,3.664a23.814,23.814,0,0,1-20.807,35.433Zm-.039-44.945a21.164,21.164,0,1,0,17.975,10.015,1.364,1.364,0,0,1,.194-1.685l6.469-6.469a1.364,1.364,0,0,1,2.329.964v1.162a3.778,3.778,0,1,0,7.556,0v-13.576a3.721,3.721,0,0,0-.071-.679v0c-.008-.047-.02-.092-.031-.137l-.016-.068a3.738,3.738,0,0,0-.141-.454l-.035-.092c-.012-.033-.023-.066-.038-.1a4,4,0,0,0-.283-.534c-.022-.028-.043-.056-.063-.085a3.752,3.752,0,0,0-.38-.458c-.032-.034-.066-.064-.1-.1l-.043-.04a3.7,3.7,0,0,0-.366-.3l-.052-.038c-.039-.029-.076-.057-.117-.083a3.8,3.8,0,0,0-.483-.262c-.057-.026-.1-.05-.147-.075a3.928,3.928,0,0,0-.588-.176c-.029-.006-.059-.01-.089-.015l-.1-.015a3.9,3.9,0,0,0-.531-.054c-.062,0-.12-.007-.178-.014H636.009a3.778,3.778,0,0,0,0,7.556h1.037a1.364,1.364,0,0,1,.965,2.329l-6.473,6.472a1.364,1.364,0,0,1-1.682.2A21.132,21.132,0,0,0,618.716,1139.433Zm.039,34.665h0a13.548,13.548,0,1,1,9.582-23.135l.017.018a13.553,13.553,0,0,1-.015,19.153h0A13.461,13.461,0,0,1,618.755,1174.1Zm0-24.368a10.819,10.819,0,1,0,7.655,18.474h0a10.824,10.824,0,0,0,.014-15.294l-.036-.037A10.755,10.755,0,0,0,618.754,1149.731Z" transform="translate(-594.927 -1123.337)" fill="#1c5a88"/>
      </g>
    </g>
  </g>
</svg>
