<svg xmlns="http://www.w3.org/2000/svg" width="130" height="130" viewBox="0 0 130 130">
  <g id="Grupo_27404" data-name="Grupo 27404" transform="translate(-239 -1625)">
    <g id="Grupo_26994" data-name="Grupo 26994" transform="translate(13 14)">
      <g id="Elipse_1926" data-name="Elipse 1926" transform="translate(226 1611)" fill="#fff" stroke="#92934e" stroke-width="6">
        <circle cx="65" cy="65" r="65" stroke="none"/>
        <circle cx="65" cy="65" r="62" fill="none"/>
      </g>
      <g id="NewGroup2-2" transform="translate(258.224 1630.863)">
        <g id="Grupo_25511" data-name="Grupo 25511" transform="translate(0 0)">
          <path id="Trazado_66705" data-name="Trazado 66705" d="M383.408,640.411h0Z" transform="translate(-370.336 -620.67)" fill="#ed8730" stroke="#ed8730" stroke-width="1"/>
          <path id="Trazado_66706" data-name="Trazado 66706" d="M373.093,626a1.292,1.292,0,0,1,.243-.476,2.6,2.6,0,0,1,.461-.45,5.887,5.887,0,0,1,1.281-.725,12.727,12.727,0,0,1,2.155-.677c.306-.069.564-.117.742-.148.089-.015.158-.026.2-.032l.049-.007.01,0h0c.01,0,.045,0,.109,0a9.1,9.1,0,0,1,2.135.348,34.835,34.835,0,0,1,5.411,1.971,3.888,3.888,0,0,1,1.08.695,3.219,3.219,0,0,1,.532.64,3.963,3.963,0,0,1,.49,1.2,6.579,6.579,0,0,1,.16,1.51,13.242,13.242,0,0,1-.337,2.756,34.527,34.527,0,0,1-1.254,4.178c-.228.639-.446,1.232-.632,1.76-.093.265-.177.515-.25.75s-.135.456-.184.671h0a4.749,4.749,0,0,0-.128,1.045,2.947,2.947,0,0,0,.163,1,2.772,2.772,0,0,0,.377.714,3.856,3.856,0,0,0,.388.451c.224.225.428.4.619.585a4.721,4.721,0,0,1,.829,1.02,7.446,7.446,0,0,1,.8,2.056,5.039,5.039,0,0,1,.112.727c.026.295.04.637.04,1.015,0,1.011-.095,2.284-.241,3.71-.22,2.14-.553,4.63-.834,7.2a72.21,72.21,0,0,0-.508,7.687,26.707,26.707,0,0,0,.324,4.438,14.472,14.472,0,0,0,.472,1.982,9.643,9.643,0,0,0,.757,1.772,14.806,14.806,0,0,1,2.092,7.078,6.859,6.859,0,0,1-.752,3.323,4,4,0,0,1-.821,1.046,3.347,3.347,0,0,1-1.054.644,2.693,2.693,0,0,0-.74.432,3.99,3.99,0,0,0-.943,1.177,7.9,7.9,0,0,0-.545,1.261,17.362,17.362,0,0,0-.639,2.655,43.884,43.884,0,0,0-.49,4.7c-.093,1.633-.125,3.282-.125,4.786,0,1.55.035,2.943.075,4-.075-.007-.15-.015-.227-.021-.441-.035-.92-.049-1.428-.049-1.426,0-3.08.112-4.577.244-1.23.109-2.35.233-3.123.324a5.66,5.66,0,0,1-.035-.631,11.179,11.179,0,0,1,.141-1.636,32.482,32.482,0,0,1,.8-3.552c.527-1.921,1.185-3.986,1.719-5.969.267-.992.5-1.964.675-2.9a14.983,14.983,0,0,0,.281-2.673,7.277,7.277,0,0,0-.139-1.485,4.582,4.582,0,0,0-.508-1.375,22.608,22.608,0,0,1-1.379-2.749,17.364,17.364,0,0,1-1.126-4.265,49.763,49.763,0,0,1-.386-6.1c0-.185-.005-.37-.005-.555a43.3,43.3,0,0,1,1.243-9.8c.312-1.323.624-2.439.863-3.282.119-.423.22-.776.3-1.068.038-.147.069-.278.1-.406.013-.065.024-.128.035-.2a1.843,1.843,0,0,0,.018-.256h0c0-.01,0-.05.008-.1.01-.1.032-.263.06-.454.05-.334.123-.763.2-1.233.122-.706.261-1.5.371-2.237.056-.368.1-.721.139-1.047a8.6,8.6,0,0,0,.06-.9c0-.037,0-.074,0-.111l.022-.05a3.575,3.575,0,0,1,.264-.439c.221-.322.54-.723.891-1.138.262-.312.544-.633.82-.95.206-.238.41-.472.6-.7q.217-.255.409-.5a7.261,7.261,0,0,0,.509-.709,2.873,2.873,0,0,0,.206-.4,1.9,1.9,0,0,0,.087-.266c.011-.047.021-.1.03-.155.016-.028.04-.066.068-.109.1-.151.26-.367.443-.615a11.7,11.7,0,0,0,.884-1.338,4.987,4.987,0,0,0,.368-.841,3.24,3.24,0,0,0,.168-1.006,2.6,2.6,0,0,0-.231-1.084,2.789,2.789,0,0,0-.712-.942,2.742,2.742,0,0,0-.553-.373,3.245,3.245,0,0,0-.882-.3,4.731,4.731,0,0,0-.874-.076,9.2,9.2,0,0,0-1.724.192c-.854.167-1.7.4-2.46.587-.378.093-.731.173-1.039.227a4.466,4.466,0,0,1-.75.081.968.968,0,0,1-.215-.017.763.763,0,0,1-.122-.115.58.58,0,0,1-.108-.212,1.2,1.2,0,0,1-.041-.342,3.893,3.893,0,0,1,.1-.778c.029-.14.061-.28.092-.428.014-.074.028-.151.041-.238a2.091,2.091,0,0,0,.022-.305,1.719,1.719,0,0,0-.125-.647,1.768,1.768,0,0,0-.257-.437.692.692,0,0,1-.449-.591,2.545,2.545,0,0,0-.228-.505c.051-.126.123-.284.2-.462.042-.1.084-.211.125-.344a2.022,2.022,0,0,0,.057-.226,1.654,1.654,0,0,0,.032-.318,1.352,1.352,0,0,0-.134-.593,1.37,1.37,0,0,0-.343-.446,1.471,1.471,0,0,0-.321-.207,1.826,1.826,0,0,0-.4-.133l-.021,0c.158-.181.385-.4.636-.644a10.036,10.036,0,0,0,.856-.906h0a2.231,2.231,0,0,0,.3-.486,1.7,1.7,0,0,0,.111-.325A1.659,1.659,0,0,0,375.2,631a1.626,1.626,0,0,0-.058-.43,1.725,1.725,0,0,0-.123-.323,2.48,2.48,0,0,0-.256-.4c-.141-.184-.264-.319-.392-.478a5.165,5.165,0,0,1-.611-.933,8.264,8.264,0,0,1-.652-1.805,1.446,1.446,0,0,1-.048-.361,1.06,1.06,0,0,1,.033-.268Zm5.144-2.518Zm-6.254,13.678,0,0h0l0,0Zm1.878-1.018Zm-1.55-4.969c-.155.151-.325.314-.5.489a6.321,6.321,0,0,0-.778.9,3.036,3.036,0,0,0-.325.613,2.211,2.211,0,0,0-.154.8,2.045,2.045,0,0,0,.081.576l1.188-.344-1.188.344a2.215,2.215,0,0,0,.321.67,2.025,2.025,0,0,0,.428.439,2.262,2.262,0,0,0,.269.173c-.023.07-.046.144-.066.225a2.168,2.168,0,0,0-.069.526,1.712,1.712,0,0,0,.042.378,1.6,1.6,0,0,0,.178.444h0l.109.179a1.321,1.321,0,0,0-.012.18,1.357,1.357,0,0,0,.1.52,1.42,1.42,0,0,0,.2.333,1.6,1.6,0,0,0,.32.3c.04.029.075.052.108.073-.029.133-.062.29-.093.465a5.562,5.562,0,0,0-.086.935,3.862,3.862,0,0,0,.057.675,3.091,3.091,0,0,0,1.3,2.046h0a2.328,2.328,0,0,0,.82.356,3.431,3.431,0,0,0,.779.082,5.82,5.82,0,0,0,.787-.058,13.992,13.992,0,0,0,1.389-.274c.7-.168,1.417-.363,2.081-.512.332-.074.65-.136.941-.179a5.475,5.475,0,0,1,.775-.065,1.9,1.9,0,0,1,.505.055.675.675,0,0,1,.121.045.251.251,0,0,1,.052.034h0a.335.335,0,0,1,.091.1.138.138,0,0,1,.009.06.746.746,0,0,1-.035.2,2.874,2.874,0,0,1-.311.658c-.116.193-.255.4-.4.6-.111.154-.225.307-.337.46-.169.23-.333.452-.482.7a2.818,2.818,0,0,0-.214.419,1.851,1.851,0,0,0-.09.28c-.01.041-.018.086-.025.133l-.015.024c-.06.095-.169.244-.306.418-.242.305-.572.688-.931,1.1-.267.308-.551.631-.828.959a17.149,17.149,0,0,0-1.139,1.471,5.3,5.3,0,0,0-.427.753,2.892,2.892,0,0,0-.157.428,2.034,2.034,0,0,0-.074.536c0,.036,0,.074,0,.117v0c0,.013,0,.039,0,.074,0,.1-.009.281-.031.492-.036.371-.1.854-.184,1.371-.122.775-.274,1.627-.4,2.354-.061.365-.116.7-.157.984-.02.143-.038.276-.05.4-.011.106-.018.2-.021.309,0,.024-.014.071-.028.132-.04.167-.112.433-.205.765-.164.582-.392,1.374-.64,2.324-.373,1.427-.792,3.213-1.118,5.23a41.618,41.618,0,0,0-.56,6.625c0,.2,0,.4.005.6.028,1.713.088,3.19.2,4.516.083.995.2,1.906.352,2.764a19.252,19.252,0,0,0,.994,3.6,24.164,24.164,0,0,0,1.678,3.429,2.115,2.115,0,0,1,.227.638,4.8,4.8,0,0,1,.087.982,10.949,10.949,0,0,1-.141,1.641,32.262,32.262,0,0,1-.8,3.557c-.526,1.921-1.184,3.987-1.718,5.968-.267.99-.5,1.962-.675,2.892a14.823,14.823,0,0,0-.281,2.666,7.131,7.131,0,0,0,.166,1.6,2,2,0,0,0,1.951,1.55,2.042,2.042,0,0,0,.24-.014h.005c.727-.09,2.033-.241,3.488-.369s3.06-.234,4.359-.234c.461,0,.882.013,1.235.041a5.049,5.049,0,0,1,.8.115,1.24,1.24,0,0,0,1.09-.239l.588-.479a1.24,1.24,0,0,0,.455-1.023c-.054-1.044-.115-2.8-.114-4.821,0-1.363.027-2.846.1-4.31.057-1.1.14-2.185.258-3.2.087-.762.2-1.482.323-2.134.1-.488.2-.938.32-1.333a5.715,5.715,0,0,1,.56-1.357,1.5,1.5,0,0,1,.233-.3.305.305,0,0,1,.09-.066,5.821,5.821,0,0,0,1.826-1.116,6.8,6.8,0,0,0,1.8-2.7,9.949,9.949,0,0,0,.6-3.514,17.223,17.223,0,0,0-2.407-8.288,7.1,7.1,0,0,1-.558-1.315,13.63,13.63,0,0,1-.52-2.568,27.192,27.192,0,0,1-.159-3.1c0-1.551.1-3.209.242-4.89.22-2.522.552-5.094.832-7.456.139-1.182.267-2.311.358-3.36s.152-2.017.152-2.887c0-.435-.015-.847-.05-1.235a7.236,7.236,0,0,0-.175-1.1,9.913,9.913,0,0,0-1.07-2.724,7.008,7.008,0,0,0-.944-1.242c-.227-.239-.437-.431-.605-.585-.125-.116-.227-.211-.3-.285a1.535,1.535,0,0,1-.113-.13.284.284,0,0,1-.05-.092.493.493,0,0,1-.02-.169,2.32,2.32,0,0,1,.068-.505h0c.035-.156.1-.394.2-.679.165-.5.4-1.151.669-1.89.4-1.109.855-2.42,1.217-3.8a17.226,17.226,0,0,0,.632-4.281,9.276,9.276,0,0,0-.176-1.854,6.834,6.834,0,0,0-.415-1.338,5.786,5.786,0,0,0-1.2-1.8,6.291,6.291,0,0,0-1.939-1.317,37.122,37.122,0,0,0-5.8-2.106,11.406,11.406,0,0,0-2.746-.425,3.279,3.279,0,0,0-.434.024H377.9c-.074.01-.48.067-1.066.194a16.719,16.719,0,0,0-1.692.458,12.071,12.071,0,0,0-1.459.582,8.111,8.111,0,0,0-1.078.616,5.13,5.13,0,0,0-1.391,1.355,3.721,3.721,0,0,0-.46.94,3.546,3.546,0,0,0-.171,1.092,3.922,3.922,0,0,0,.122.961,11.136,11.136,0,0,0,.729,2.09,7.99,7.99,0,0,0,.6,1.06c.147.217.289.4.411.55l.047.057c-.059.061-.121.123-.188.188Z" transform="translate(-370.554 -621)" fill="#ed8730" stroke="#ed8730" stroke-width="1"/>
          <path id="Trazado_66707" data-name="Trazado 66707" d="M407.185,676.1h0Z" transform="translate(-369.932 -620.064)" fill="#ed8730" stroke="#ed8730" stroke-width="1"/>
          <path id="Trazado_66708" data-name="Trazado 66708" d="M418.664,659.905c.232-.3.421-.553.576-.782a3.623,3.623,0,0,0,.215-.356,1.9,1.9,0,0,0,.1-.243,1.485,1.485,0,0,0,.051-.184,1.336,1.336,0,0,0,.029-.28h0c0-.01,0-.05.008-.1.011-.1.032-.263.06-.454.05-.334.123-.763.2-1.233.122-.706.261-1.5.372-2.237.055-.368.1-.721.138-1.047a8.639,8.639,0,0,0,.06-.9c0-.037,0-.074,0-.111l.022-.05a3.471,3.471,0,0,1,.265-.439c.22-.322.539-.723.89-1.138.262-.312.544-.633.82-.95.206-.238.41-.472.6-.7.143-.17.281-.335.408-.5a7.249,7.249,0,0,0,.508-.709,2.869,2.869,0,0,0,.206-.4,1.9,1.9,0,0,0,.088-.266c.011-.047.021-.1.029-.155.016-.028.04-.066.068-.109.1-.151.26-.367.443-.615a11.7,11.7,0,0,0,.884-1.338,4.987,4.987,0,0,0,.368-.841,3.272,3.272,0,0,0,.169-1.006,2.6,2.6,0,0,0-.232-1.084,2.787,2.787,0,0,0-.712-.942,2.741,2.741,0,0,0-.553-.373,3.246,3.246,0,0,0-.882-.3,4.732,4.732,0,0,0-.874-.076,9.2,9.2,0,0,0-1.724.192c-.854.167-1.7.4-2.46.587-.378.093-.731.173-1.039.227a4.467,4.467,0,0,1-.75.081.968.968,0,0,1-.215-.017.674.674,0,0,1-.121-.115.566.566,0,0,1-.109-.212,1.2,1.2,0,0,1-.041-.342,3.9,3.9,0,0,1,.1-.778c.03-.14.061-.28.092-.428.014-.074.029-.151.041-.238a2.087,2.087,0,0,0,.022-.305,1.719,1.719,0,0,0-.125-.647,1.737,1.737,0,0,0-.257-.437,2.06,2.06,0,0,0-.395-.375,2.085,2.085,0,0,0-.054-.216,2.549,2.549,0,0,0-.228-.505c.052-.125.123-.284.2-.462.042-.1.084-.211.125-.344a2.036,2.036,0,0,0,.057-.226,1.662,1.662,0,0,0,.032-.318,1.353,1.353,0,0,0-.134-.593,1.371,1.371,0,0,0-.343-.446,1.45,1.45,0,0,0-.321-.207,1.828,1.828,0,0,0-.4-.133l-.021,0c.158-.181.385-.4.636-.644a10.058,10.058,0,0,0,.856-.906h0a2.234,2.234,0,0,0,.3-.486,1.7,1.7,0,0,0,.111-.325,1.635,1.635,0,0,0-.015-.8,1.8,1.8,0,0,0-.122-.323,2.54,2.54,0,0,0-.257-.4c-.141-.184-.264-.319-.392-.478a5.16,5.16,0,0,1-.611-.933,8.262,8.262,0,0,1-.652-1.805,1.447,1.447,0,0,1-.048-.361,1.057,1.057,0,0,1,.033-.268,1.3,1.3,0,0,1,.242-.476,2.643,2.643,0,0,1,.462-.45,5.887,5.887,0,0,1,1.281-.725,12.726,12.726,0,0,1,2.155-.677c.306-.069.564-.117.742-.148.088-.015.158-.026.2-.032l.049-.007.01,0h0c.01,0,.045,0,.109,0a9.1,9.1,0,0,1,2.135.348,34.836,34.836,0,0,1,5.411,1.971,3.89,3.89,0,0,1,1.08.695,3.222,3.222,0,0,1,.532.64,3.911,3.911,0,0,1,.489,1.2,6.525,6.525,0,0,1,.161,1.51,13.305,13.305,0,0,1-.336,2.756,34.7,34.7,0,0,1-1.255,4.178c-.228.639-.446,1.232-.632,1.76-.093.265-.177.515-.25.75s-.135.456-.184.671h0A4.756,4.756,0,0,0,427.05,641a2.947,2.947,0,0,0,.163,1,2.772,2.772,0,0,0,.377.714,3.864,3.864,0,0,0,.388.451c.224.225.428.4.619.585a4.721,4.721,0,0,1,.829,1.02,7.447,7.447,0,0,1,.8,2.056,5.048,5.048,0,0,1,.112.727c.026.295.04.637.04,1.015,0,1.011-.095,2.284-.241,3.71-.22,2.14-.553,4.63-.834,7.2a72.2,72.2,0,0,0-.508,7.687,26.822,26.822,0,0,0,.324,4.438,14.481,14.481,0,0,0,.472,1.982,9.568,9.568,0,0,0,.757,1.772,14.806,14.806,0,0,1,2.092,7.078,6.859,6.859,0,0,1-.752,3.323,4,4,0,0,1-.821,1.046,3.346,3.346,0,0,1-1.054.644,2.694,2.694,0,0,0-.74.432,3.989,3.989,0,0,0-.943,1.177,7.886,7.886,0,0,0-.545,1.261,17.355,17.355,0,0,0-.639,2.655,43.884,43.884,0,0,0-.49,4.7c-.093,1.633-.125,3.282-.125,4.786,0,1.55.035,2.943.075,4-.075-.007-.149-.015-.227-.021-.441-.035-.92-.049-1.428-.049-1.426,0-3.081.112-4.577.244-1.231.109-2.35.233-3.123.324a5.69,5.69,0,0,1-.035-.631,11.175,11.175,0,0,1,.141-1.636,32.488,32.488,0,0,1,.8-3.552c.527-1.921,1.185-3.986,1.719-5.969.267-.992.5-1.964.675-2.9a14.888,14.888,0,0,0,.281-2.673,7.273,7.273,0,0,0-.139-1.485,4.577,4.577,0,0,0-.508-1.375,6.525,6.525,0,0,0-1.378-1.643,10.272,10.272,0,0,0-1.466-1.049c-.893-.538-1.83-.975-2.72-1.415-.667-.327-1.309-.656-1.884-1.009a8.7,8.7,0,0,1-1.171-.844,4.841,4.841,0,0,1-1.213-1.535,4.567,4.567,0,0,1-.348-.994,6,6,0,0,1-.144-1.252h0c0-.044,0-.089,0-.134a10.673,10.673,0,0,1,.387-2.716,22.713,22.713,0,0,1,2.182-5.128,56.127,56.127,0,0,1,4.633-6.816c.715-.922,1.339-1.7,1.8-2.3Zm-5-22.75v0h0v0Zm6.254-13.678Zm-2.122,30.473c-.122.775-.274,1.627-.4,2.354-.061.365-.116.7-.157.984-.02.143-.038.276-.05.4l-.006.061c-.058.086-.145.208-.256.356-.234.312-.568.734-.964,1.236-.695.88-1.584,2.008-2.529,3.3a46.776,46.776,0,0,0-4.159,6.682,23.466,23.466,0,0,0-1.491,3.734,13.555,13.555,0,0,0-.6,3.807c0,.059,0,.118,0,.178a8.017,8.017,0,0,0,.463,2.629,6.84,6.84,0,0,0,1,1.823,7.882,7.882,0,0,0,1.185,1.232,13.379,13.379,0,0,0,2.38,1.559c.611.326,1.224.619,1.807.906a18.723,18.723,0,0,1,2.349,1.3,6.133,6.133,0,0,1,.863.707,3.792,3.792,0,0,1,.609.781,2.117,2.117,0,0,1,.227.638,4.8,4.8,0,0,1,.087.982,10.953,10.953,0,0,1-.141,1.641,32.257,32.257,0,0,1-.8,3.557c-.526,1.921-1.184,3.987-1.718,5.968-.267.99-.5,1.962-.675,2.892a14.821,14.821,0,0,0-.281,2.666,7.129,7.129,0,0,0,.166,1.6,2,2,0,0,0,1.951,1.55,2.044,2.044,0,0,0,.24-.014h.005c.727-.09,2.033-.241,3.488-.369s3.06-.234,4.359-.234c.461,0,.882.013,1.235.041a5.047,5.047,0,0,1,.8.115,1.237,1.237,0,0,0,1.089-.239l.589-.479a1.24,1.24,0,0,0,.455-1.023c-.054-1.044-.115-2.8-.114-4.821,0-1.363.027-2.846.1-4.31.057-1.1.14-2.185.258-3.2.087-.762.2-1.482.323-2.134.1-.488.2-.938.32-1.333a5.673,5.673,0,0,1,.56-1.357,1.5,1.5,0,0,1,.233-.3.306.306,0,0,1,.089-.066,5.832,5.832,0,0,0,1.826-1.116,6.8,6.8,0,0,0,1.8-2.7,9.95,9.95,0,0,0,.6-3.514,17.223,17.223,0,0,0-2.407-8.288,7.106,7.106,0,0,1-.558-1.315,13.63,13.63,0,0,1-.52-2.568,27.179,27.179,0,0,1-.159-3.1c0-1.551.1-3.209.242-4.89.22-2.522.552-5.094.832-7.456.139-1.182.266-2.311.358-3.36s.152-2.017.152-2.887c0-.435-.015-.847-.05-1.235a7.228,7.228,0,0,0-.175-1.1,9.912,9.912,0,0,0-1.07-2.724,7.052,7.052,0,0,0-.944-1.242c-.227-.239-.437-.431-.605-.585-.125-.116-.227-.211-.3-.285a1.234,1.234,0,0,1-.113-.13.276.276,0,0,1-.051-.092.5.5,0,0,1-.02-.169,2.391,2.391,0,0,1,.068-.505h0c.035-.156.1-.394.2-.679.165-.5.4-1.151.669-1.89.4-1.109.855-2.42,1.217-3.8a17.223,17.223,0,0,0,.631-4.281,9.274,9.274,0,0,0-.176-1.854,6.968,6.968,0,0,0-.414-1.338,5.809,5.809,0,0,0-1.2-1.8,6.28,6.28,0,0,0-1.939-1.317,37.121,37.121,0,0,0-5.8-2.106,11.406,11.406,0,0,0-2.746-.425,3.279,3.279,0,0,0-.434.024h-.011c-.074.01-.48.067-1.067.194a16.781,16.781,0,0,0-1.691.458,12,12,0,0,0-1.458.582,8.066,8.066,0,0,0-1.079.616,5.13,5.13,0,0,0-1.391,1.355,3.72,3.72,0,0,0-.46.94,3.55,3.55,0,0,0-.171,1.092,3.927,3.927,0,0,0,.122.961,11.139,11.139,0,0,0,.729,2.09,8,8,0,0,0,.6,1.06c.148.217.289.4.411.55l.047.057c-.059.061-.121.123-.187.188-.156.151-.326.314-.5.489a6.323,6.323,0,0,0-.778.9,3.032,3.032,0,0,0-.325.613,2.253,2.253,0,0,0-.154.8,2.045,2.045,0,0,0,.081.576,2.192,2.192,0,0,0,.321.67,2.028,2.028,0,0,0,.429.439,2.169,2.169,0,0,0,.268.173c-.023.07-.046.144-.066.225a2.168,2.168,0,0,0-.069.526,1.708,1.708,0,0,0,.042.378,1.565,1.565,0,0,0,.178.444h0l.109.18a1.284,1.284,0,0,0-.012.179,1.338,1.338,0,0,0,.1.52,1.385,1.385,0,0,0,.2.333,1.6,1.6,0,0,0,.32.3c.04.028.075.052.108.073-.029.133-.062.29-.091.465a5.448,5.448,0,0,0-.087.935,3.865,3.865,0,0,0,.057.675,3.091,3.091,0,0,0,1.3,2.046h0a2.327,2.327,0,0,0,.82.356,3.431,3.431,0,0,0,.779.082,5.818,5.818,0,0,0,.787-.058,14,14,0,0,0,1.389-.274c.7-.168,1.417-.363,2.081-.512.332-.074.65-.136.941-.179a5.476,5.476,0,0,1,.775-.065,1.9,1.9,0,0,1,.505.055.674.674,0,0,1,.121.045.252.252,0,0,1,.052.034h0a.335.335,0,0,1,.091.1.138.138,0,0,1,.009.06.746.746,0,0,1-.035.2,2.875,2.875,0,0,1-.311.658c-.116.193-.255.4-.4.6-.11.154-.225.307-.337.46-.169.23-.333.452-.482.7a2.818,2.818,0,0,0-.214.419,1.85,1.85,0,0,0-.091.28c-.01.041-.018.086-.025.133l-.015.024c-.06.095-.169.244-.306.418-.242.305-.573.688-.93,1.1-.268.308-.552.631-.829.959a16.942,16.942,0,0,0-1.139,1.471,5.3,5.3,0,0,0-.427.753,2.9,2.9,0,0,0-.157.428,2.036,2.036,0,0,0-.074.536c0,.036,0,.074,0,.117v0c0,.013,0,.039,0,.074,0,.1-.009.281-.03.492-.036.371-.1.854-.184,1.371Z" transform="translate(-369.932 -621)" fill="#ed8730" stroke="#ed8730" stroke-width="1"/>
          <path id="Trazado_66709" data-name="Trazado 66709" d="M425,640.411h0Z" transform="translate(-369.63 -620.67)" fill="#ed8730" stroke="#ed8730" stroke-width="1"/>
          <path id="Trazado_66710" data-name="Trazado 66710" d="M421.122,673.147l-1.173.395.284-.1h0l.891-.3Zm2.554-11.276c-.022-.281-.057-.6-.095-.923s-.08-.653-.117-.943c-.1-.836-.2-1.624-.266-2.352s-.106-1.4-.106-1.986a7.621,7.621,0,0,1,.153-1.671,3.047,3.047,0,0,1,.18-.555,1.606,1.606,0,0,1,.221-.367,1.359,1.359,0,0,1,.482-.406.649.649,0,0,1,.278-.064.767.767,0,0,1,.208.03,1.316,1.316,0,0,1,.277.117,1.924,1.924,0,0,1,.463.366,2.655,2.655,0,0,1,.538.884,3.328,3.328,0,0,1,.207,1.165v.039h0c-.008.782-.079,1.8-.213,2.984s-.328,2.555-.582,4.06c-.011.068-.019.127-.025.19-.013.118-.022.246-.033.395-.016.259-.032.579-.046.946-.043,1.1-.078,2.63-.111,4.042-.05,2.173-.094,3.932-.151,5.233-.028.65-.059,1.187-.095,1.594-.017.2-.037.374-.055.507s-.037.227-.045.26c-.213.841-.355,1.561-.445,2.165a10.178,10.178,0,0,0-.13,1.481,3.908,3.908,0,0,0,.02.43c.008.07.017.139.033.215a1.7,1.7,0,0,0,.07.255,1.181,1.181,0,0,0,.136.27.282.282,0,0,1,.042.1.918.918,0,0,1,.026.24,3,3,0,0,1-.1.693,8.787,8.787,0,0,1-.361,1.093,12.545,12.545,0,0,1-.743,1.563l0,.005c-.02-.577-.065-1.422-.126-2.4-.1-1.591-.24-3.528-.388-5.17-.074-.823-.149-1.569-.224-2.171-.038-.3-.075-.566-.113-.793-.019-.115-.04-.22-.061-.32s-.046-.2-.083-.311h0a1.229,1.229,0,0,1-.048-.241,4.591,4.591,0,0,1-.025-.521c0-.324.023-.745.074-1.256.076-.769.216-1.747.422-2.958s.48-2.654.826-4.363c.055-.272.1-.488.128-.641l.01-.061c.009-.068.013-.123.016-.174s0-.1,0-.143c0-.168-.01-.336-.025-.524Zm-3.728,11.662Zm0,0h0a.512.512,0,0,1,.013.054c.014.063.034.169.054.3.04.247.084.588.129.989.079.7.163,1.588.242,2.534.12,1.422.231,2.984.312,4.294.041.656.073,1.248.1,1.727.012.24.02.45.026.625s.009.314.008.4a2.879,2.879,0,0,0,.156.95,2.37,2.37,0,0,0,.79,1.109,2.083,2.083,0,0,0,1.268.438h0a2.081,2.081,0,0,0,.47-.053,2.16,2.16,0,0,0,.715-.31,3.019,3.019,0,0,0,.715-.684,6.612,6.612,0,0,0,.493-.754,14.881,14.881,0,0,0,.9-1.891,11.1,11.1,0,0,0,.462-1.41,5.408,5.408,0,0,0,.173-1.283,3.386,3.386,0,0,0-.113-.89,2.876,2.876,0,0,0-.215-.548c0-.02,0-.044,0-.069a8.014,8.014,0,0,1,.1-1.114c.076-.513.2-1.157.4-1.927a4.983,4.983,0,0,0,.1-.529c.045-.331.079-.722.11-1.2.046-.709.082-1.6.115-2.667s.064-2.322.1-3.751c.026-1.147.055-2.369.087-3.36.015-.5.033-.933.05-1.268.009-.168.017-.31.026-.417,0-.054.008-.1.011-.129l.005-.037v-.008h0c.259-1.542.461-2.949.6-4.2s.219-2.328.229-3.233h0v-.065a5.708,5.708,0,0,0-.643-2.653,4.939,4.939,0,0,0-.775-1.091,4.351,4.351,0,0,0-1.062-.832,3.71,3.71,0,0,0-.813-.339,3.254,3.254,0,0,0-.876-.122,3.136,3.136,0,0,0-1.308.289,3.836,3.836,0,0,0-1.374,1.1,4.178,4.178,0,0,0-.556.915,6.009,6.009,0,0,0-.434,1.541,11.243,11.243,0,0,0-.115,1.7c0,.7.046,1.436.116,2.212s.169,1.59.276,2.437c.049.386.1.831.147,1.223.021.2.04.379.052.531s.017.255.017.311c-.026.134-.063.319-.109.543-.465,2.3-.8,4.139-1.03,5.613-.113.737-.2,1.383-.254,1.953s-.086,1.064-.086,1.5a6.832,6.832,0,0,0,.044.816,3.7,3.7,0,0,0,.156.726Z" transform="translate(-369.719 -620.505)" fill="#ed8730" stroke="#ed8730" stroke-width="1"/>
          <path id="Trazado_66711" data-name="Trazado 66711" d="M384.39,654a3.328,3.328,0,0,1,.207,1.165v.039h0c-.008.782-.079,1.8-.214,2.984s-.327,2.555-.581,4.06c-.012.068-.019.127-.026.19-.012.118-.022.246-.032.395-.017.259-.032.579-.046.946-.043,1.1-.078,2.63-.111,4.042-.05,2.173-.095,3.932-.151,5.233-.028.65-.06,1.187-.095,1.594-.018.2-.037.374-.055.507s-.037.227-.045.26c-.213.84-.355,1.561-.445,2.165a10.169,10.169,0,0,0-.13,1.481,3.908,3.908,0,0,0,.02.43,2.178,2.178,0,0,0,.033.216,1.69,1.69,0,0,0,.07.254,1.162,1.162,0,0,0,.136.27.327.327,0,0,1,.042.1.918.918,0,0,1,.026.24,3,3,0,0,1-.1.693,8.943,8.943,0,0,1-.361,1.093,12.549,12.549,0,0,1-.743,1.563l0,.005c-.02-.577-.064-1.422-.125-2.4-.1-1.591-.24-3.528-.388-5.17-.074-.823-.15-1.569-.225-2.171-.038-.3-.074-.566-.112-.793-.02-.115-.04-.22-.061-.32s-.046-.2-.083-.311h0a1.234,1.234,0,0,1-.048-.241,4.576,4.576,0,0,1-.025-.521c0-.324.022-.745.074-1.256.076-.769.216-1.747.422-2.958s.48-2.654.825-4.363c.055-.272.1-.487.129-.641l.01-.061c.009-.068.013-.123.016-.174s0-.1,0-.143c0-.168-.011-.335-.025-.524-.023-.28-.057-.6-.1-.923s-.079-.653-.116-.943c-.106-.836-.2-1.624-.265-2.352s-.106-1.4-.106-1.986a7.62,7.62,0,0,1,.153-1.671,3.045,3.045,0,0,1,.18-.555,1.607,1.607,0,0,1,.221-.367,1.367,1.367,0,0,1,.481-.406.653.653,0,0,1,.279-.064.768.768,0,0,1,.209.03,1.268,1.268,0,0,1,.277.118,1.889,1.889,0,0,1,.463.365,2.653,2.653,0,0,1,.538.884Zm-5.942,19.541.285-.1h0l.89-.3-1.173.395Zm0-.009Zm4.459-23.4a3.133,3.133,0,0,0-1.308.289,3.837,3.837,0,0,0-1.374,1.1,4.1,4.1,0,0,0-.556.915,5.977,5.977,0,0,0-.434,1.541,11.247,11.247,0,0,0-.115,1.7c0,.7.046,1.436.116,2.212s.169,1.59.276,2.437c.049.386.1.831.147,1.223.021.2.04.379.052.532s.017.254.017.31c-.026.134-.064.319-.109.543-.465,2.3-.8,4.139-1.03,5.613-.113.737-.2,1.383-.254,1.953s-.086,1.064-.086,1.5a6.838,6.838,0,0,0,.044.816,3.7,3.7,0,0,0,.156.726h0s.006.021.013.054c.014.063.034.169.054.3.04.247.083.588.129.989.079.7.163,1.588.242,2.535.119,1.421.231,2.983.312,4.293.041.656.073,1.248.1,1.727.011.24.02.45.026.625s.008.314.008.4a2.881,2.881,0,0,0,.156.95,2.371,2.371,0,0,0,.79,1.109,2.083,2.083,0,0,0,1.268.438h0a2.08,2.08,0,0,0,.47-.053,2.153,2.153,0,0,0,.714-.31,3.022,3.022,0,0,0,.716-.684,6.621,6.621,0,0,0,.493-.754,14.877,14.877,0,0,0,.9-1.891,11.087,11.087,0,0,0,.462-1.41,5.409,5.409,0,0,0,.173-1.283,3.343,3.343,0,0,0-.114-.89,2.811,2.811,0,0,0-.214-.548c0-.02,0-.044,0-.069a8.128,8.128,0,0,1,.1-1.114c.077-.513.2-1.157.4-1.927a4.755,4.755,0,0,0,.1-.529c.046-.331.079-.722.111-1.2.046-.709.081-1.6.115-2.667s.064-2.322.1-3.751c.026-1.147.055-2.369.086-3.36.016-.5.034-.933.051-1.268.009-.168.017-.31.026-.417,0-.054.008-.1.011-.129l0-.037,0-.008h0c.259-1.542.461-2.949.6-4.2s.218-2.328.228-3.233h0v-.065a5.707,5.707,0,0,0-.644-2.653,4.933,4.933,0,0,0-.774-1.091,4.369,4.369,0,0,0-1.062-.832,3.719,3.719,0,0,0-.814-.339,3.242,3.242,0,0,0-.875-.122Z" transform="translate(-370.423 -620.505)" fill="#ed8730" stroke="#ed8730" stroke-width="1"/>
          <path id="Trazado_66712" data-name="Trazado 66712" d="M401.461,708.24v-86a1.237,1.237,0,1,0-2.474,0v86a1.237,1.237,0,0,0,2.474,0Z" transform="translate(-370.071 -621)" fill="#ed8730" stroke="#ed8730" stroke-width="1"/>
        </g>
      </g>
    </g>
  </g>
</svg>
