<svg xmlns="http://www.w3.org/2000/svg" width="109.836" height="109.836" viewBox="0 0 109.836 109.836">
  <g id="Grupo_25508" data-name="Grupo 25508" transform="translate(-32.287 -312.658)">
    <circle id="Elipse_1775" data-name="Elipse 1775" cx="54.918" cy="54.918" r="54.918" transform="translate(32.287 312.658)" fill="#c0cba2"/>
    <path id="Trazado_66702" data-name="Trazado 66702" d="M106.425,393.466v-7.279l.028,0h0l2.743.394,2.052.295a37.99,37.99,0,0,1,2.963,12.46,3.37,3.37,0,0,1-6.723.475,33.021,33.021,0,0,0-1.063-6.348Zm0-10.138v-1.9l.278-1.943a1.061,1.061,0,0,0-.278-.88V373.06l14.084,2.02a2.562,2.562,0,0,1,2.161,2.886l-.719,5.014a2.567,2.567,0,0,1-2.887,2.162l-2.525-.363.546-3.8a1.063,1.063,0,1,0-2.1-.3l-.545,3.8L111,383.984l.343-2.387a.709.709,0,0,0-1.4-.2l-.342,2.388-3.17-.455Zm0-21.053v-4.857c.458-.729.906-1.462,1.324-2.2a38.751,38.751,0,0,0,2.141-4.361,2.558,2.558,0,0,1,3.175,1.809l1.277,4.9a2.569,2.569,0,0,1-1.825,3.11l-6.092,1.6Zm0-10.688c.323-.62.617-1.231.864-1.831a28.637,28.637,0,0,0,2.2-10.747,3.362,3.362,0,0,0-3.064-3.388Zm0-15.966v15.966c-1.493,2.858-3.648,5.921-5.036,9.024V346.38a22.005,22.005,0,0,0,1.379-7.449,3.361,3.361,0,0,1,3.4-3.323c.087,0,.173.006.258.013Zm0,21.8c-.59.938-1.2,1.871-1.775,2.8a16.376,16.376,0,0,0-1.291,2.857l3.066-.8v-4.857Zm0,15.642v5.549a1.063,1.063,0,0,0-1.826.579l-.546,3.8-2.664-.381V372.337l5.036.723Zm0,8.372-.268,1.858.268.038v-1.9Zm0,4.755v7.279a29.968,29.968,0,0,0-1.989-5.266c-.422-.866-.877-1.7-1.355-2.493l.574.082Zm-5.036-39.807v14.231a13.108,13.108,0,0,0-1.359,5.868,11.1,11.1,0,0,0,.529,2.88L93.45,368.34q-.106-.785-.141-1.571c0-.116-.009-.229-.012-.341v-1.209c.235-7.8,5.021-11.346,7.771-18.02.111-.268.218-.542.321-.819Zm0,25.957v10.269l-.773-.111.343-2.389a.709.709,0,0,0-1.4-.2l-.343,2.389-3.438-.493.546-3.8a1.063,1.063,0,1,0-2.1-.3l-.546,3.8-.374-.054V371.176l8.092,1.161ZM93.3,355.224l.01-.018-.01,0v.016Zm0-2.936,2.041-.535c.532-.812,1.074-1.669,1.6-2.594.4-.7.783-1.419,1.119-2.137l-4.763-.679Zm0-5.945v5.945l-.8.208a1.063,1.063,0,0,0-2.115-.15l-.105.732-1.1.287v-7.609l4.111.587Zm0,8.865v.016a27.491,27.491,0,0,0-1.792,4.283,21.143,21.143,0,0,0-1.034,6.95l-1.285.321V356.285l4.111-1.077Zm0,10.011c-.012.391-.012.8,0,1.209v-1.209Zm0,5.957v10.268l-3.063-.439.343-2.388a.709.709,0,0,0-1.391-.266v-7.765Zm-4.111-25.42v7.609l-2.55.668.11-.768a.708.708,0,1,0-1.4-.2l-.2,1.359-1.4.368c-.541-.946-1.118-1.871-1.705-2.809L82,351.917l.108-.759a1.062,1.062,0,0,0-.9-1.2.879.879,0,0,0-.135-.011V344.6l8.114,1.156Zm0,10.529v10.493l-2.412.6c.011-.164.02-.328.028-.491a20.23,20.23,0,0,0-1.736-9.526l4.12-1.08Zm0,14.3v7.765c0,.021-.009.043-.012.065l-.343,2.388-3.437-.493.546-3.8a1.063,1.063,0,0,0-2.105-.3l-.546,3.8-2.217-.318V369.422l8.114,1.164Zm-8.114-4.022V355.827a18.651,18.651,0,0,1,2.907,10.942l-.011.211Zm0-21.964v5.344a1.024,1.024,0,0,0-.266.03,29.561,29.561,0,0,1-1.974-3.849,20.289,20.289,0,0,1-.687-1.943l2.927.418Zm0,11.227c-1.574-2.71-3.471-5.272-4.853-8.628a22.007,22.007,0,0,1-1.7-8.256,3.361,3.361,0,0,0-4.608-3.1v13.7l.086.213c2.133,5.177,7.238,10.606,7.267,16.262l3.807.546V355.827Zm0,13.6v10.269l-1.22-.175.342-2.388a.708.708,0,1,0-1.4-.2l-.343,2.388-3.437-.494.546-3.8a1.063,1.063,0,0,0-2.1-.3l-.546,3.8-2.995-.43V367.821l11.16,1.6ZM69.912,398.55v-17.6l.554.079h0l1.343.194,2.8.4,2.143.308a39.432,39.432,0,0,0-3.9,6.269,30.615,30.615,0,0,0-2.939,10.35Zm0-33.587v-3.626l2.854-.748a13.488,13.488,0,0,1,1.656,5.02Zm-1.791-12.52q.157.318.323.633l-.323-.046v-.587Zm1.791-16.6v13.7a28.671,28.671,0,0,1-1.791-6.509v-5.5a3.368,3.368,0,0,1,1.791-1.682Zm0,25.489v3.626l-1.791-.257v-2.9l1.791-.469Zm0,6.484V378.09l-.442-.064.343-2.387a.709.709,0,1,0-1.4-.2l-.289,2.015v-9.887l1.791.256Zm0,13.128v17.6q-.068.621-.113,1.264a3.367,3.367,0,0,1-1.678,2.681V382.752q.567-.977,1.165-1.893Zm-12.3-39.7,7.563,1.078a30.762,30.762,0,0,0,.5,3.047,32.032,32.032,0,0,0,1.713,5.45c.224.547.472,1.084.736,1.614v.587l-2.481-.356.342-2.388a.709.709,0,1,0-1.4-.2l-.342,2.389L60.8,351.98l.545-3.8a1.063,1.063,0,0,0-2.1-.3l-.545,3.8-2.525-.363a2.562,2.562,0,0,1-2.162-2.886l.719-5.014a2.558,2.558,0,0,1,2.886-2.161Zm10.508-3.724A3.348,3.348,0,0,0,67.8,339a29.333,29.333,0,0,0,.323,4.038v-5.5Zm0,24.276v2.9l-6.134-.881a2.546,2.546,0,0,1,1.221-.731l4.913-1.288Zm0,5.759v9.887l-.054.373-3.437-.493.546-3.8a1.063,1.063,0,1,0-2.105-.3l-.546,3.8L60,376.668a2.562,2.562,0,0,1-2.162-2.887l.72-5.013a2.557,2.557,0,0,1,2.885-2.162l6.678.959Zm0,15.187v19.743a3.369,3.369,0,0,1-5.045-3.156,37.641,37.641,0,0,1,3.712-14.092Q67.422,383.948,68.121,382.752Z" fill="#415214" fill-rule="evenodd"/>
  </g>
</svg>
