<svg xmlns="http://www.w3.org/2000/svg" width="303.547" height="303.547" viewBox="0 0 303.547 303.547">
  <g id="Grupo_25760" data-name="Grupo 25760" transform="translate(-1048.318 -887.001)">
    <g id="Grupo_25711" data-name="Grupo 25711" transform="translate(1048.318 887.001)">
      <g id="Grupo_25698" data-name="Grupo 25698">
        <g id="Grupo_25697" data-name="Grupo 25697">
          <g id="Grupo_25696" data-name="Grupo 25696">
            <circle id="Elipse_1825" data-name="Elipse 1825" cx="107.32" cy="107.32" r="107.32" transform="translate(0 151.773) rotate(-45)" fill="#fae7b7"/>
          </g>
        </g>
      </g>
      <g id="Grupo_25702" data-name="Grupo 25702" transform="translate(10.882 88.597)">
        <g id="Grupo_25699" data-name="Grupo 25699" transform="translate(10.368)">
          <path id="Trazado_67161" data-name="Trazado 67161" d="M1074.233,1000.5a1.538,1.538,0,0,1-1.423-2.123c1.228-2.995,2.579-5.985,4.014-8.89a1.538,1.538,0,0,1,2.758,1.363c-1.4,2.841-2.723,5.767-3.925,8.7A1.54,1.54,0,0,1,1074.233,1000.5Z" transform="translate(-1072.695 -988.632)" fill="#ed8730"/>
        </g>
        <g id="Grupo_25700" data-name="Grupo 25700" transform="translate(0 26.013)">
          <path id="Trazado_67162" data-name="Trazado 67162" d="M1072.961,1110.632a1.54,1.54,0,0,1-1.421-.948,140.276,140.276,0,0,1-5.921-17.384,1.538,1.538,0,1,1,2.971-.8,137.377,137.377,0,0,0,5.791,17,1.54,1.54,0,0,1-1.42,2.13Zm-9.413-35.005a1.537,1.537,0,0,1-1.523-1.336,142.912,142.912,0,0,1-1.224-18.322,1.538,1.538,0,0,1,1.535-1.542h0a1.538,1.538,0,0,1,1.539,1.535,139.732,139.732,0,0,0,1.2,17.925,1.539,1.539,0,0,1-1.323,1.727A1.61,1.61,0,0,1,1063.548,1075.626Zm-.081-36.251a1.488,1.488,0,0,1-.2-.013,1.538,1.538,0,0,1-1.331-1.721,140.7,140.7,0,0,1,3.507-18.023,1.538,1.538,0,1,1,2.975.784,137.633,137.633,0,0,0-3.43,17.629A1.539,1.539,0,0,1,1063.467,1039.376Z" transform="translate(-1060.801 -1018.471)" fill="#ed8730"/>
        </g>
        <g id="Grupo_25701" data-name="Grupo 25701" transform="translate(18.678 131.375)">
          <path id="Trazado_67163" data-name="Trazado 67163" d="M1088.888,1150.588a1.536,1.536,0,0,1-1.276-.677c-1.813-2.684-3.556-5.465-5.177-8.266a1.538,1.538,0,1,1,2.662-1.542c1.587,2.74,3.291,5.46,5.064,8.086a1.538,1.538,0,0,1-1.273,2.4Z" transform="translate(-1082.227 -1139.335)" fill="#ed8730"/>
        </g>
      </g>
      <g id="Grupo_25706" data-name="Grupo 25706" transform="translate(134.985 10.993)">
        <g id="Grupo_25703" data-name="Grupo 25703" transform="translate(152.389 114.362)">
          <path id="Trazado_67164" data-name="Trazado 67164" d="M1380.887,1043.424a1.539,1.539,0,0,1-1.527-1.371c-.345-3.155-.8-6.333-1.365-9.444a1.539,1.539,0,0,1,3.028-.546c.573,3.181,1.043,6.43,1.4,9.655a1.539,1.539,0,0,1-1.362,1.7A1.41,1.41,0,0,1,1380.887,1043.424Z" transform="translate(-1377.97 -1030.797)" fill="#ed8730"/>
        </g>
        <g id="Grupo_25704" data-name="Grupo 25704" transform="translate(27.784 0.444)">
          <path id="Trazado_67165" data-name="Trazado 67165" d="M1356.8,999.523a1.538,1.538,0,0,1-1.464-1.071,137.493,137.493,0,0,0-6.567-16.683,1.539,1.539,0,1,1,2.783-1.312,140.49,140.49,0,0,1,6.714,17.057,1.539,1.539,0,0,1-1.466,2.008Zm-15.42-32.729a1.538,1.538,0,0,1-1.3-.708,138.914,138.914,0,0,0-10.645-14.423,1.538,1.538,0,1,1,2.352-1.984,141.864,141.864,0,0,1,10.882,14.745,1.539,1.539,0,0,1-1.294,2.37Zm-23.32-27.655a1.533,1.533,0,0,1-1.038-.4,139.026,139.026,0,0,0-13.98-11.216,1.538,1.538,0,1,1,1.766-2.519,142.013,142.013,0,0,1,14.291,11.464,1.538,1.538,0,0,1-1.038,2.674Zm-29.619-20.753a1.523,1.523,0,0,1-.71-.175,137.644,137.644,0,0,0-16.387-7.235,1.538,1.538,0,1,1,1.057-2.89,140.75,140.75,0,0,1,16.755,7.4,1.539,1.539,0,0,1-.714,2.9Zm-33.961-12.409a1.532,1.532,0,0,1-.335-.037,138.033,138.033,0,0,0-17.71-2.748,1.539,1.539,0,0,1,.274-3.065,141.237,141.237,0,0,1,18.105,2.81,1.538,1.538,0,0,1-.334,3.04Z" transform="translate(-1235.033 -900.12)" fill="#ed8730"/>
        </g>
        <g id="Grupo_25705" data-name="Grupo 25705">
          <path id="Trazado_67166" data-name="Trazado 67166" d="M1204.7,903.4a1.538,1.538,0,0,1-.165-3.068c3.214-.35,6.487-.593,9.728-.721a1.538,1.538,0,0,1,.122,3.074c-3.171.126-6.373.364-9.517.706A1.548,1.548,0,0,1,1204.7,903.4Z" transform="translate(-1203.161 -899.611)" fill="#ed8730"/>
        </g>
      </g>
      <g id="Grupo_25710" data-name="Grupo 25710" transform="translate(201.628 202.357)">
        <g id="Grupo_25707" data-name="Grupo 25707" transform="translate(0 73.578)">
          <path id="Trazado_67167" data-name="Trazado 67167" d="M1281.148,1210.479a1.539,1.539,0,0,1-.568-2.969c2.943-1.168,5.884-2.456,8.739-3.827a1.538,1.538,0,1,1,1.331,2.774c-2.92,1.4-5.926,2.719-8.936,3.913A1.55,1.55,0,0,1,1281.148,1210.479Z" transform="translate(-1279.609 -1203.531)" fill="#ed8730"/>
        </g>
        <g id="Grupo_25708" data-name="Grupo 25708" transform="translate(25.115 25.048)">
          <path id="Trazado_67168" data-name="Trazado 67168" d="M1309.958,1190.26a1.538,1.538,0,0,1-.847-2.823,138.754,138.754,0,0,0,14.735-11.178,1.538,1.538,0,0,1,2.019,2.321,141.968,141.968,0,0,1-15.062,11.427A1.537,1.537,0,0,1,1309.958,1190.26Zm28.158-24.487a1.538,1.538,0,0,1-1.155-2.554,138.984,138.984,0,0,0,11.261-14.671,1.538,1.538,0,0,1,2.56,1.706,141.79,141.79,0,0,1-11.511,15A1.536,1.536,0,0,1,1338.116,1165.772Z" transform="translate(-1308.418 -1147.862)" fill="#ed8730"/>
        </g>
        <g id="Grupo_25709" data-name="Grupo 25709" transform="translate(73.966)">
          <path id="Trazado_67169" data-name="Trazado 67169" d="M1365.994,1131.021a1.54,1.54,0,0,1-1.382-2.213c1.386-2.846,2.69-5.78,3.876-8.718a1.538,1.538,0,0,1,2.853,1.152c-1.212,3-2.546,6-3.963,8.914A1.54,1.54,0,0,1,1365.994,1131.021Z" transform="translate(-1364.456 -1119.129)" fill="#ed8730"/>
        </g>
      </g>
    </g>
    <g id="Grupo_25724" data-name="Grupo 25724" transform="translate(1074.619 889.277)">
      <g id="Grupo_25720" data-name="Grupo 25720" transform="translate(0)">
        <g id="Grupo_25712" data-name="Grupo 25712">
          <circle id="Elipse_1826" data-name="Elipse 1826" cx="57.888" cy="57.888" r="57.888" transform="translate(0 112.68) rotate(-76.717)" fill="#64bdfa"/>
          <path id="Trazado_67170" data-name="Trazado 67170" d="M1149.631,1020.181a59.427,59.427,0,1,1,59.426-59.426A59.494,59.494,0,0,1,1149.631,1020.181Zm0-115.777a56.35,56.35,0,1,0,56.35,56.351A56.415,56.415,0,0,0,1149.631,904.4Z" transform="translate(-1079.991 -891.114)" fill="#0c6bc2"/>
        </g>
        <g id="Grupo_25713" data-name="Grupo 25713" transform="translate(20.923 20.923)">
          <circle id="Elipse_1827" data-name="Elipse 1827" cx="47.178" cy="47.178" r="47.178" transform="translate(1.538 1.538)" fill="#eae699"/>
          <path id="Trazado_67171" data-name="Trazado 67171" d="M1151.207,1011.046a48.716,48.716,0,1,1,48.716-48.716A48.771,48.771,0,0,1,1151.207,1011.046Zm0-94.356a45.64,45.64,0,1,0,45.64,45.64A45.69,45.69,0,0,0,1151.207,916.69Z" transform="translate(-1102.49 -913.613)" fill="#0c6bc2"/>
        </g>
        <g id="Grupo_25714" data-name="Grupo 25714" transform="translate(3.685 68.101)">
          <line id="Línea_416" data-name="Línea 416" x2="22.891" transform="translate(1.538 1.538)" fill="#fff"/>
          <path id="Trazado_67172" data-name="Trazado 67172" d="M1107.146,970.807h-22.892a1.538,1.538,0,0,1,0-3.076h22.892a1.538,1.538,0,0,1,0,3.076Z" transform="translate(-1082.716 -967.731)" fill="#0c6bc2"/>
        </g>
        <g id="Grupo_25715" data-name="Grupo 25715" transform="translate(109.624 68.101)">
          <line id="Línea_417" data-name="Línea 417" x2="22.891" transform="translate(1.538 1.538)" fill="#fff"/>
          <path id="Trazado_67173" data-name="Trazado 67173" d="M1228.67,970.807h-22.892a1.538,1.538,0,0,1,0-3.076h22.892a1.538,1.538,0,0,1,0,3.076Z" transform="translate(-1204.24 -967.731)" fill="#0c6bc2"/>
        </g>
        <g id="Grupo_25716" data-name="Grupo 25716" transform="translate(2.656 68.101)">
          <line id="Línea_418" data-name="Línea 418" x2="22.891" transform="translate(1.538 1.538)" fill="#fff"/>
          <path id="Trazado_67174" data-name="Trazado 67174" d="M1105.965,970.807h-22.892a1.538,1.538,0,0,1,0-3.076h22.892a1.538,1.538,0,0,1,0,3.076Z" transform="translate(-1081.535 -967.731)" fill="#0c6bc2"/>
        </g>
        <g id="Grupo_25717" data-name="Grupo 25717" transform="translate(108.594 68.101)">
          <line id="Línea_419" data-name="Línea 419" x2="22.891" transform="translate(1.538 1.538)" fill="#fff"/>
          <path id="Trazado_67175" data-name="Trazado 67175" d="M1227.488,970.807H1204.6a1.538,1.538,0,0,1,0-3.076h22.891a1.538,1.538,0,1,1,0,3.076Z" transform="translate(-1203.059 -967.731)" fill="#0c6bc2"/>
        </g>
        <g id="Grupo_25718" data-name="Grupo 25718" transform="translate(67.07 109.624)">
          <line id="Línea_420" data-name="Línea 420" y1="22.892" transform="translate(1.538 1.539)" fill="#fff"/>
          <path id="Trazado_67176" data-name="Trazado 67176" d="M1156.965,1041.332a1.538,1.538,0,0,1-1.539-1.539V1016.9a1.539,1.539,0,1,1,3.077,0v22.891A1.538,1.538,0,0,1,1156.965,1041.332Z" transform="translate(-1155.426 -1015.363)" fill="#0c6bc2"/>
        </g>
        <g id="Grupo_25719" data-name="Grupo 25719" transform="translate(67.07 3.685)">
          <line id="Línea_421" data-name="Línea 421" y1="22.891" transform="translate(1.538 1.539)" fill="#fff"/>
          <path id="Trazado_67177" data-name="Trazado 67177" d="M1156.965,919.808a1.538,1.538,0,0,1-1.539-1.539V895.378a1.539,1.539,0,1,1,3.077,0v22.891A1.538,1.538,0,0,1,1156.965,919.808Z" transform="translate(-1155.426 -893.839)" fill="#0c6bc2"/>
        </g>
      </g>
      <g id="Grupo_25723" data-name="Grupo 25723" transform="translate(52.118 33.418)">
        <g id="Grupo_25721" data-name="Grupo 25721" transform="translate(7.045)">
          <circle id="Elipse_1828" data-name="Elipse 1828" cx="6.679" cy="6.679" r="6.679" transform="translate(0 9.446) rotate(-45)" fill="#fff"/>
          <path id="Trazado_67178" data-name="Trazado 67178" d="M1155.982,945.789a8.218,8.218,0,1,1,8.217-8.218A8.227,8.227,0,0,1,1155.982,945.789Zm0-13.359a5.141,5.141,0,1,0,5.141,5.141A5.147,5.147,0,0,0,1155.982,932.43Z" transform="translate(-1146.536 -928.126)" fill="#0c6bc2"/>
        </g>
        <g id="Grupo_25722" data-name="Grupo 25722" transform="translate(0 14.489)">
          <path id="Trazado_67179" data-name="Trazado 67179" d="M1163.468,994.433a3.073,3.073,0,0,1-2.958,3.177H1158a3.073,3.073,0,0,1-2.959-3.169L1155,975.394h-.033l.044,19.031a3.075,3.075,0,0,1-2.959,3.185h-2.563a3.073,3.073,0,0,1-2.958-3.177V971.747c0,3.942-6.492,4.5-6.492.282V957.066c0-4.3,3.339-8.176,7.147-9.5a25.251,25.251,0,0,1,15.613,0c3.807,1.326,7.146,5.2,7.146,9.5v14.963c0,4.129-6.277,3.785-6.475-.1v22.5Z" transform="translate(-1138.5 -944.792)" fill="#fff"/>
          <path id="Trazado_67180" data-name="Trazado 67180" d="M1160.284,998.921h-2.509a4.34,4.34,0,0,0-5.951,0h-2.563a4.614,4.614,0,0,1-4.5-4.714V975.9a5.079,5.079,0,0,1-5.038-.717,4.294,4.294,0,0,1-1.453-3.379V956.84a12.134,12.134,0,0,1,8.178-10.955,26.853,26.853,0,0,1,16.625,0c4.739,1.65,8.179,6.258,8.179,10.955V971.8a4.346,4.346,0,0,1-4.435,4.494,5.352,5.352,0,0,1-2.041-.349v18.258A4.614,4.614,0,0,1,1160.284,998.921Zm-5.544-25.291a1.567,1.567,0,0,1,1.572,1.535l.044,19.046a1.543,1.543,0,0,0,1.42,1.634h2.509a1.543,1.543,0,0,0,1.42-1.638V955.941a1.538,1.538,0,1,1,3.076,0V971.7a1.779,1.779,0,0,0,1.963,1.518,1.32,1.32,0,0,0,1.436-1.418V956.84c0-3.845-3.151-7.018-6.115-8.05a23.581,23.581,0,0,0-14.6,0c-2.963,1.032-6.114,4.2-6.114,8.05V971.8a1.306,1.306,0,0,0,.391,1.051,1.647,1.647,0,0,0,1.067.338,1.8,1.8,0,0,0,1.957-1.672V955.914a1.539,1.539,0,0,1,3.077,0v38.293a1.542,1.542,0,0,0,1.419,1.638h2.563a1.307,1.307,0,0,0,.929-.4,1.755,1.755,0,0,0,.491-1.24l-.044-19.032a1.537,1.537,0,0,1,1.539-1.541Z" transform="translate(-1138.274 -944.566)" fill="#0c6bc2"/>
        </g>
      </g>
    </g>
    <g id="Grupo_25749" data-name="Grupo 25749" transform="translate(1197.492 926.77)">
      <g id="Grupo_25730" data-name="Grupo 25730" transform="translate(0 70.756)">
        <g id="Grupo_25725" data-name="Grupo 25725" transform="translate(0 7.02)">
          <path id="Trazado_67181" data-name="Trazado 67181" d="M1252.246,1028.045V1023.6h-19.638v4.442c0,2.99-2.312,5.632-5.7,6.518h0c-3.391.885-5.7,3.527-5.7,6.518v43.65c0,3.876,3.73,7.018,8.331,7.018h25.787c4.6,0,8.33-3.142,8.33-7.018v-43.65c0-2.991-2.311-5.633-5.7-6.518h0C1254.558,1033.678,1252.246,1031.036,1252.246,1028.045Z" transform="translate(-1219.664 -1022.065)" fill="#fff"/>
          <path id="Trazado_67182" data-name="Trazado 67182" d="M1255.094,1093.062h-25.787c-5.442,0-9.869-3.838-9.869-8.556v-43.65c0-3.719,2.754-6.937,6.852-8.007,2.723-.71,4.553-2.732,4.553-5.029v-4.441a1.538,1.538,0,0,1,1.538-1.539h19.639a1.538,1.538,0,0,1,1.539,1.539v4.441c0,2.3,1.83,4.319,4.553,5.029,4.1,1.071,6.852,4.288,6.852,8.007v43.65C1264.963,1089.224,1260.536,1093.062,1255.094,1093.062Zm-21.175-68.146v2.9c0,3.719-2.753,6.937-6.852,8.006-2.723.711-4.553,2.733-4.553,5.03v43.65c0,3.021,3.048,5.48,6.793,5.48h25.787c3.746,0,6.793-2.458,6.793-5.48v-43.65c0-2.3-1.83-4.319-4.553-5.03-4.1-1.07-6.852-4.287-6.852-8.006v-2.9Z" transform="translate(-1219.438 -1021.839)" fill="#0c6bc2"/>
        </g>
        <g id="Grupo_25726" data-name="Grupo 25726" transform="translate(8.682)">
          <path id="Trazado_67183" data-name="Trazado 67183" d="M1254.607,1024.26H1232.8a1.655,1.655,0,0,1-1.629-1.859l.635-5.387a1.649,1.649,0,0,1,1.629-1.465h20.534a1.649,1.649,0,0,1,1.629,1.465l.635,5.387A1.654,1.654,0,0,1,1254.607,1024.26Z" transform="translate(-1229.623 -1014.012)" fill="#64bdfa"/>
          <path id="Trazado_67184" data-name="Trazado 67184" d="M1254.38,1025.573h-21.805a3.173,3.173,0,0,1-2.368-1.066,3.214,3.214,0,0,1-.788-2.511l.635-5.388a3.187,3.187,0,0,1,3.156-2.822h20.535a3.186,3.186,0,0,1,3.157,2.823l.635,5.387a3.211,3.211,0,0,1-.789,2.511A3.17,3.17,0,0,1,1254.38,1025.573Zm-21.171-8.71a.111.111,0,0,0-.1.105l-.635,5.388a.128.128,0,0,0,.031.106l21.874.033a.086.086,0,0,0,.069-.033.127.127,0,0,0,.031-.106l-.635-5.387a.109.109,0,0,0-.1-.106Z" transform="translate(-1229.397 -1013.786)" fill="#0c6bc2"/>
        </g>
        <g id="Grupo_25727" data-name="Grupo 25727" transform="translate(10.311 31.527)">
          <rect id="Rectángulo_25847" data-name="Rectángulo 25847" width="21.904" height="28.042" transform="translate(1.538 1.538)" fill="#64bdfa"/>
          <path id="Trazado_67185" data-name="Trazado 67185" d="M1254.708,1081.07h-21.9a1.538,1.538,0,0,1-1.538-1.539V1051.49a1.538,1.538,0,0,1,1.538-1.538h21.9a1.538,1.538,0,0,1,1.539,1.538v28.042A1.538,1.538,0,0,1,1254.708,1081.07Zm-20.366-3.076h18.828v-24.966h-18.828Z" transform="translate(-1231.266 -1049.951)" fill="#0c6bc2"/>
        </g>
        <g id="Grupo_25728" data-name="Grupo 25728" transform="translate(15.828 41.479)">
          <line id="Línea_422" data-name="Línea 422" x2="10.496" transform="translate(1.538 1.538)" fill="#fff"/>
          <path id="Trazado_67186" data-name="Trazado 67186" d="M1249.629,1064.443h-10.5a1.538,1.538,0,0,1,0-3.076h10.5a1.538,1.538,0,1,1,0,3.076Z" transform="translate(-1237.595 -1061.367)" fill="#0c6bc2"/>
        </g>
        <g id="Grupo_25729" data-name="Grupo 25729" transform="translate(15.828 49.546)">
          <line id="Línea_423" data-name="Línea 423" x2="10.496" transform="translate(1.538 1.538)" fill="#64bdfa"/>
          <path id="Trazado_67187" data-name="Trazado 67187" d="M1249.629,1073.7h-10.5a1.538,1.538,0,0,1,0-3.076h10.5a1.538,1.538,0,1,1,0,3.076Z" transform="translate(-1237.595 -1070.621)" fill="#0c6bc2"/>
        </g>
      </g>
      <g id="Grupo_25734" data-name="Grupo 25734" transform="translate(51.862 70.756)">
        <g id="Grupo_25731" data-name="Grupo 25731" transform="translate(0 7.02)">
          <path id="Trazado_67188" data-name="Trazado 67188" d="M1311.738,1028.045V1023.6H1292.1v4.442c0,2.99-2.311,5.632-5.7,6.518h0c-3.391.885-5.7,3.527-5.7,6.518v43.65c0,3.876,3.73,7.018,8.331,7.018h25.788c4.6,0,8.331-3.142,8.331-7.018v-43.65c0-2.991-2.312-5.633-5.7-6.518h0C1314.05,1033.678,1311.738,1031.036,1311.738,1028.045Z" transform="translate(-1279.156 -1022.065)" fill="#fff"/>
          <path id="Trazado_67189" data-name="Trazado 67189" d="M1314.586,1093.062H1288.8c-5.442,0-9.868-3.838-9.868-8.556v-43.65c0-3.719,2.753-6.937,6.851-8.007,2.724-.71,4.554-2.732,4.554-5.029v-4.441a1.538,1.538,0,0,1,1.538-1.539h19.639a1.538,1.538,0,0,1,1.538,1.539v4.441c0,2.3,1.83,4.319,4.553,5.029,4.1,1.071,6.852,4.288,6.852,8.007v43.65C1324.454,1089.224,1320.028,1093.062,1314.586,1093.062Zm-21.175-68.146v2.9c0,3.719-2.754,6.937-6.853,8.006-2.723.711-4.552,2.733-4.552,5.03v43.65c0,3.021,3.047,5.48,6.792,5.48h25.788c3.745,0,6.792-2.458,6.792-5.48v-43.65c0-2.3-1.83-4.319-4.553-5.03-4.1-1.07-6.852-4.287-6.852-8.006v-2.9Z" transform="translate(-1278.93 -1021.839)" fill="#0c6bc2"/>
        </g>
        <g id="Grupo_25732" data-name="Grupo 25732" transform="translate(8.681)">
          <path id="Trazado_67190" data-name="Trazado 67190" d="M1314.1,1024.26h-21.805a1.654,1.654,0,0,1-1.629-1.859l.636-5.387a1.648,1.648,0,0,1,1.628-1.465h20.535a1.648,1.648,0,0,1,1.628,1.465l.635,5.387A1.654,1.654,0,0,1,1314.1,1024.26Z" transform="translate(-1289.114 -1014.012)" fill="#64bdfa"/>
          <path id="Trazado_67191" data-name="Trazado 67191" d="M1313.872,1025.573h-21.806a3.174,3.174,0,0,1-2.369-1.066,3.215,3.215,0,0,1-.788-2.511l.635-5.388a3.187,3.187,0,0,1,3.157-2.822h20.534a3.187,3.187,0,0,1,3.157,2.822l.636,5.388a3.215,3.215,0,0,1-.788,2.511A3.174,3.174,0,0,1,1313.872,1025.573Zm-21.171-8.71a.113.113,0,0,0-.1.106l-.635,5.387a.13.13,0,0,0,.031.106l21.875.033a.085.085,0,0,0,.069-.033.13.13,0,0,0,.031-.106l-.635-5.387a.112.112,0,0,0-.1-.106Z" transform="translate(-1288.888 -1013.786)" fill="#0c6bc2"/>
        </g>
        <g id="Grupo_25733" data-name="Grupo 25733" transform="translate(22.083 31.527)">
          <rect id="Rectángulo_25848" data-name="Rectángulo 25848" width="19.55" height="28.042" transform="translate(1.538 1.538)" fill="#64bdfa"/>
          <path id="Trazado_67192" data-name="Trazado 67192" d="M1325.35,1081.07H1305.8a1.538,1.538,0,0,1-1.538-1.539V1051.49a1.538,1.538,0,0,1,1.538-1.538h19.55a1.538,1.538,0,0,1,1.539,1.538v28.042A1.538,1.538,0,0,1,1325.35,1081.07Zm-18.011-3.076h16.473v-24.966h-16.473Z" transform="translate(-1304.262 -1049.951)" fill="#0c6bc2"/>
        </g>
      </g>
      <g id="Grupo_25748" data-name="Grupo 25748" transform="translate(30.789)">
        <g id="Grupo_25735" data-name="Grupo 25735" transform="translate(20.27 29.496)">
          <path id="Trazado_67193" data-name="Trazado 67193" d="M1299.693,979.464l-8.364-10.785c-.531-.685-1.809-.6-2.853.2l-7.543,5.733c-1.044.794-1.459,1.993-.928,2.679l8.363,10.784c.325.42-2.6,3.723-2.272,4.143l60.948,78.082c.325.42,1.108.366,1.747-.119l15.91-12.092c.64-.486.894-1.22.568-1.64l-60.948-78.082C1304,977.943,1300.018,979.885,1299.693,979.464Z" transform="translate(-1278.235 -966.682)" fill="#fff"/>
          <path id="Trazado_67194" data-name="Trazado 67194" d="M1347.487,1071.887a2.331,2.331,0,0,1-1.885-.873l-60.946-78.078c-.86-1.108-.085-2.219,1.087-3.9.185-.264.442-.634.643-.941L1278.563,978a2.751,2.751,0,0,1-.527-2.065,4.309,4.309,0,0,1,1.739-2.78l7.545-5.734c1.739-1.322,3.936-1.286,5,.088l7.836,10.105c.357-.113.8-.268,1.111-.379,1.926-.681,3.2-1.133,4.045-.044l60.945,78.078a2.281,2.281,0,0,1,.445,1.712,3.236,3.236,0,0,1-1.3,2.1l-15.909,12.092A3.356,3.356,0,0,1,1347.487,1071.887Zm.541-2.767,0,0Zm-60.4-77.383,60.062,76.947,15.776-11.99-60.054-76.937c-.36.113-.8.27-1.117.381-1.926.681-3.2,1.131-4.042.043l-8.259-10.651a1.578,1.578,0,0,0-.81.343l-7.545,5.734a1.549,1.549,0,0,0-.531.654l8.251,10.641c.857,1.1.083,2.213-1.089,3.892C1288.083,991.06,1287.827,991.429,1287.625,991.738Zm15.257-12.654.005.007Zm-2.2-.788h0Z" transform="translate(-1278.009 -966.456)" fill="#0c6bc2"/>
        </g>
        <g id="Grupo_25736" data-name="Grupo 25736" transform="translate(85.06 115.843)">
          <line id="Línea_424" data-name="Línea 424" y1="18.822" x2="24.767" transform="translate(1.539 1.538)" fill="#fff"/>
          <path id="Trazado_67195" data-name="Trazado 67195" d="M1353.869,1087.405a1.539,1.539,0,0,1-.933-2.763l24.768-18.823a1.538,1.538,0,0,1,1.861,2.45l-24.767,18.823A1.532,1.532,0,0,1,1353.869,1087.405Z" transform="translate(-1352.33 -1065.506)" fill="#0c6bc2"/>
        </g>
        <g id="Grupo_25737" data-name="Grupo 25737" transform="translate(97.484 125.222)">
          <line id="Línea_425" data-name="Línea 425" x2="13.862" y2="17.876" transform="translate(1.539 1.539)" fill="#fff"/>
          <path id="Trazado_67196" data-name="Trazado 67196" d="M1381.984,1097.218a1.539,1.539,0,0,1-1.217-.6l-13.862-17.877a1.538,1.538,0,0,1,2.431-1.885l13.863,17.877a1.539,1.539,0,0,1-1.215,2.481Z" transform="translate(-1366.582 -1076.265)" fill="#0c6bc2"/>
        </g>
        <g id="Grupo_25738" data-name="Grupo 25738" transform="translate(106.138 138.624)">
          <line id="Línea_426" data-name="Línea 426" y1="8.433" x2="11.096" transform="translate(1.539 1.538)" fill="#fff"/>
          <path id="Trazado_67197" data-name="Trazado 67197" d="M1378.049,1103.148a1.538,1.538,0,0,1-.931-2.763l11.1-8.432a1.538,1.538,0,1,1,1.86,2.45l-11.1,8.432A1.531,1.531,0,0,1,1378.049,1103.148Z" transform="translate(-1376.509 -1091.639)" fill="#0c6bc2"/>
        </g>
        <g id="Grupo_25739" data-name="Grupo 25739">
          <line id="Línea_427" data-name="Línea 427" x1="25.424" y1="32.787" transform="translate(1.538 1.539)" fill="#fff"/>
          <path id="Trazado_67198" data-name="Trazado 67198" d="M1281.719,968.485a1.535,1.535,0,0,1-1.217-.6L1255.079,935.1a1.538,1.538,0,0,1,2.431-1.886L1282.934,966a1.539,1.539,0,0,1-1.214,2.482Z" transform="translate(-1254.756 -932.621)" fill="#0c6bc2"/>
        </g>
        <g id="Grupo_25747" data-name="Grupo 25747" transform="translate(42.042 47.368)">
          <g id="Grupo_25740" data-name="Grupo 25740">
            <line id="Línea_428" data-name="Línea 428" y1="5.353" x2="7.033" transform="translate(1.538 1.539)" fill="#fff"/>
            <path id="Trazado_67199" data-name="Trazado 67199" d="M1304.523,995.389a1.539,1.539,0,0,1-.933-2.763l7.032-5.353a1.539,1.539,0,0,1,1.865,2.449l-7.033,5.353A1.532,1.532,0,0,1,1304.523,995.389Z" transform="translate(-1302.983 -986.958)" fill="#0c6bc2"/>
          </g>
          <g id="Grupo_25741" data-name="Grupo 25741" transform="translate(6.362 8.187)">
            <line id="Línea_429" data-name="Línea 429" y1="5.353" x2="7.033" transform="translate(1.538 1.539)" fill="#fff"/>
            <path id="Trazado_67200" data-name="Trazado 67200" d="M1311.82,1004.78a1.539,1.539,0,0,1-.933-2.763l7.032-5.353a1.539,1.539,0,1,1,1.865,2.449l-7.033,5.353A1.532,1.532,0,0,1,1311.82,1004.78Z" transform="translate(-1310.281 -996.349)" fill="#0c6bc2"/>
          </g>
          <g id="Grupo_25742" data-name="Grupo 25742" transform="translate(12.723 16.374)">
            <line id="Línea_430" data-name="Línea 430" y1="5.353" x2="7.033" transform="translate(1.539 1.538)" fill="#fff"/>
            <path id="Trazado_67201" data-name="Trazado 67201" d="M1319.118,1014.171a1.539,1.539,0,0,1-.934-2.763l7.033-5.353a1.539,1.539,0,0,1,1.864,2.449l-7.032,5.353A1.532,1.532,0,0,1,1319.118,1014.171Z" transform="translate(-1317.578 -1005.741)" fill="#0c6bc2"/>
          </g>
          <g id="Grupo_25743" data-name="Grupo 25743" transform="translate(19.085 24.56)">
            <line id="Línea_431" data-name="Línea 431" y1="5.353" x2="7.033" transform="translate(1.539 1.539)" fill="#fff"/>
            <path id="Trazado_67202" data-name="Trazado 67202" d="M1326.416,1023.562a1.539,1.539,0,0,1-.933-2.763l7.033-5.353a1.539,1.539,0,0,1,1.864,2.449l-7.032,5.353A1.526,1.526,0,0,1,1326.416,1023.562Z" transform="translate(-1324.876 -1015.131)" fill="#0c6bc2"/>
          </g>
          <g id="Grupo_25744" data-name="Grupo 25744" transform="translate(25.447 32.747)">
            <line id="Línea_432" data-name="Línea 432" y1="5.353" x2="7.033" transform="translate(1.539 1.539)" fill="#fff"/>
            <path id="Trazado_67203" data-name="Trazado 67203" d="M1333.713,1032.953a1.539,1.539,0,0,1-.933-2.763l7.033-5.353a1.539,1.539,0,0,1,1.864,2.449l-7.032,5.353A1.535,1.535,0,0,1,1333.713,1032.953Z" transform="translate(-1332.174 -1024.523)" fill="#0c6bc2"/>
          </g>
          <g id="Grupo_25745" data-name="Grupo 25745" transform="translate(31.809 40.933)">
            <line id="Línea_433" data-name="Línea 433" y1="5.353" x2="7.033" transform="translate(1.539 1.539)" fill="#fff"/>
            <path id="Trazado_67204" data-name="Trazado 67204" d="M1341.012,1042.344a1.539,1.539,0,0,1-.933-2.763l7.032-5.353a1.539,1.539,0,0,1,1.865,2.449l-7.032,5.353A1.535,1.535,0,0,1,1341.012,1042.344Z" transform="translate(-1339.472 -1033.913)" fill="#0c6bc2"/>
          </g>
          <g id="Grupo_25746" data-name="Grupo 25746" transform="translate(38.171 49.121)">
            <line id="Línea_434" data-name="Línea 434" y1="5.353" x2="7.033" transform="translate(1.538 1.539)" fill="#fff"/>
            <path id="Trazado_67205" data-name="Trazado 67205" d="M1348.309,1051.736a1.539,1.539,0,0,1-.933-2.763l7.032-5.353a1.539,1.539,0,1,1,1.865,2.448l-7.033,5.353A1.532,1.532,0,0,1,1348.309,1051.736Z" transform="translate(-1346.77 -1043.305)" fill="#0c6bc2"/>
          </g>
        </g>
      </g>
    </g>
    <g id="Grupo_25759" data-name="Grupo 25759" transform="translate(1091.029 1038.831)">
      <g id="Grupo_25758" data-name="Grupo 25758">
        <g id="Grupo_25754" data-name="Grupo 25754">
          <g id="Grupo_25753" data-name="Grupo 25753">
            <g id="Grupo_25750" data-name="Grupo 25750">
              <path id="Trazado_67206" data-name="Trazado 67206" d="M1176.724,1083.7l-19.927-20.787-57.42,59.894a1.073,1.073,0,0,0,.774,1.816h9.286a3.14,3.14,0,0,1,3.139,3.14v61.652h88.443v-61.652a3.14,3.14,0,0,1,3.139-3.14h9.285a1.073,1.073,0,0,0,.775-1.816l-37.493-39.108" transform="translate(-1097.538 -1061.391)" fill="#fff"/>
              <path id="Trazado_67207" data-name="Trazado 67207" d="M1200.792,1190.727H1112.35a1.538,1.538,0,0,1-1.539-1.539v-61.653a1.6,1.6,0,0,0-1.6-1.6h-9.284a2.612,2.612,0,0,1-1.886-4.419l57.421-59.895a1.586,1.586,0,0,1,2.221,0l57.421,59.895a2.613,2.613,0,0,1-1.885,4.419h-9.286a1.6,1.6,0,0,0-1.6,1.6v61.653A1.538,1.538,0,0,1,1200.792,1190.727Zm-86.9-3.077h85.366v-60.114a4.682,4.682,0,0,1,4.678-4.677h8.2l-55.556-57.95-55.556,57.95h8.194a4.682,4.682,0,0,1,4.678,4.677Zm98.993-64h0Z" transform="translate(-1097.312 -1061.167)" fill="#0c6bc2"/>
            </g>
            <g id="Grupo_25751" data-name="Grupo 25751" transform="translate(28.874 89.455)">
              <path id="Trazado_67208" data-name="Trazado 67208" d="M1154.5,1202.575h-22.3V1176.7a11.151,11.151,0,0,1,11.151-11.151h0A11.151,11.151,0,0,1,1154.5,1176.7Z" transform="translate(-1130.66 -1164.009)" fill="#64bdfa"/>
              <path id="Trazado_67209" data-name="Trazado 67209" d="M1154.274,1203.887h-22.3a1.538,1.538,0,0,1-1.538-1.539v-25.876a12.689,12.689,0,0,1,25.378,0v25.876A1.538,1.538,0,0,1,1154.274,1203.887Zm-20.763-3.077h19.226v-24.338a9.613,9.613,0,0,0-19.226,0Z" transform="translate(-1130.434 -1163.783)" fill="#0c6bc2"/>
            </g>
            <g id="Grupo_25752" data-name="Grupo 25752" transform="translate(66.846 73.6)">
              <rect id="Rectángulo_25849" data-name="Rectángulo 25849" width="21.79" height="27.174" transform="translate(1.538 1.538)" fill="#caf4ff"/>
              <path id="Trazado_67210" data-name="Trazado 67210" d="M1197.319,1175.846H1175.53a1.538,1.538,0,0,1-1.538-1.538v-27.174a1.538,1.538,0,0,1,1.538-1.539h21.789a1.538,1.538,0,0,1,1.539,1.539v27.174A1.538,1.538,0,0,1,1197.319,1175.846Zm-20.251-3.076h18.713v-24.1h-18.713Z" transform="translate(-1173.992 -1145.595)" fill="#0c6bc2"/>
            </g>
          </g>
        </g>
        <g id="Grupo_25757" data-name="Grupo 25757" transform="translate(79.001 78.87)">
          <g id="Grupo_25755" data-name="Grupo 25755">
            <circle id="Elipse_1829" data-name="Elipse 1829" cx="33.485" cy="33.485" r="33.485" transform="translate(1.538 1.539)" fill="#eae699"/>
            <path id="Trazado_67211" data-name="Trazado 67211" d="M1222.958,1221.688a35.023,35.023,0,1,1,35.023-35.023A35.063,35.063,0,0,1,1222.958,1221.688Zm0-66.97a31.947,31.947,0,1,0,31.947,31.947A31.983,31.983,0,0,0,1222.958,1154.717Z" transform="translate(-1187.935 -1151.641)" fill="#0c6bc2"/>
          </g>
          <g id="Grupo_25756" data-name="Grupo 25756" transform="translate(13.766 13.625)">
            <path id="Trazado_67212" data-name="Trazado 67212" d="M1244.928,1181.172h-12.051v-12.137h-15.337v12.137H1205.49v15.447h12.051v12.137h15.337v-12.137h12.051Z" transform="translate(-1203.952 -1167.496)" fill="#fff"/>
            <path id="Trazado_67213" data-name="Trazado 67213" d="M1232.652,1210.068h-15.338a1.538,1.538,0,0,1-1.538-1.538v-10.6h-10.512a1.538,1.538,0,0,1-1.538-1.538v-15.447a1.538,1.538,0,0,1,1.538-1.539h10.512v-10.6a1.538,1.538,0,0,1,1.538-1.539h15.338a1.538,1.538,0,0,1,1.539,1.539v10.6H1244.7a1.538,1.538,0,0,1,1.539,1.539v15.447a1.538,1.538,0,0,1-1.539,1.538H1234.19v10.6A1.538,1.538,0,0,1,1232.652,1210.068Zm-13.8-3.076h12.261v-10.6a1.538,1.538,0,0,1,1.538-1.539h10.512v-12.37h-10.512a1.538,1.538,0,0,1-1.538-1.538v-10.6h-12.261v10.6a1.538,1.538,0,0,1-1.539,1.538H1206.8v12.37h10.511a1.538,1.538,0,0,1,1.539,1.539Z" transform="translate(-1203.726 -1167.27)" fill="#0c6bc2"/>
          </g>
        </g>
      </g>
    </g>
  </g>
</svg>
