<svg xmlns="http://www.w3.org/2000/svg" width="756.966" height="334.117" viewBox="0 0 756.966 334.117">
  <g id="Grupo_27406" data-name="Grupo 27406" transform="translate(-336.237 -7196)">
    <path id="Trazado_38959" data-name="Trazado 38959" d="M1131.322,134.5V92.4a23.83,23.83,0,0,0-11.916-20.638l-36.459-21.05a23.831,23.831,0,0,0-23.831,0l-36.459,21.05A23.83,23.83,0,0,0,1010.742,92.4v42.1a23.829,23.829,0,0,0,11.916,20.638l36.459,21.05a23.831,23.831,0,0,0,23.831,0l36.459-21.05A23.829,23.829,0,0,0,1131.322,134.5Z" transform="translate(-128.466 7148.478)" fill="#ed8730"/>
    <path id="Trazado_38960" data-name="Trazado 38960" d="M1132.11,179.523l-3.2,2.182a19,19,0,0,0-7.772,11.729,32.562,32.562,0,0,1-15.532,21.258l-49.813,28.76a32.561,32.561,0,0,1-32.56,0l-49.813-28.76a32.56,32.56,0,0,1-15.775-22.484,16.184,16.184,0,0,0-5.744-9.893l-3.663-2.923a9.248,9.248,0,0,0-5.769-2.02H918.315V425.39h242.394V177.372h-21.627A12.375,12.375,0,0,0,1132.11,179.523Z" transform="translate(-96.946 7104.196)" fill="#ed8730"/>
    <path id="Trazado_38963" data-name="Trazado 38963" d="M395.129,134.5V92.4a23.832,23.832,0,0,0-11.916-20.638l-36.459-21.05a23.831,23.831,0,0,0-23.831,0l-36.46,21.05A23.832,23.832,0,0,0,274.548,92.4v42.1a23.83,23.83,0,0,0,11.916,20.638l36.46,21.05a23.831,23.831,0,0,0,23.831,0l36.459-21.05A23.831,23.831,0,0,0,395.129,134.5Z" transform="translate(122.595 7148.478)" fill="#415214"/>
    <path id="Trazado_38964" data-name="Trazado 38964" d="M395.917,179.523l-3.2,2.182a18.678,18.678,0,0,0-7.736,11.56,32.564,32.564,0,0,1-15.569,21.428L319.6,243.452a32.559,32.559,0,0,1-32.559,0l-49.813-28.76a32.562,32.562,0,0,1-15.817-22.719,15.742,15.742,0,0,0-5.7-9.658l-3.663-2.923a9.245,9.245,0,0,0-5.769-2.02H193.369a11.247,11.247,0,0,0-11.247,11.247V403.253a22.668,22.668,0,0,0,22.668,22.668H424.515V177.372H402.889A12.375,12.375,0,0,0,395.917,179.523Z" transform="translate(154.115 7104.196)" fill="#415214"/>
    <path id="Trazado_38965" data-name="Trazado 38965" d="M763.126,134.5V92.4a23.831,23.831,0,0,0-11.915-20.638l-36.46-21.05a23.831,23.831,0,0,0-23.831,0l-36.459,21.05A23.832,23.832,0,0,0,642.546,92.4v42.1a23.83,23.83,0,0,0,11.916,20.638l36.459,21.05a23.831,23.831,0,0,0,23.831,0l36.46-21.05A23.83,23.83,0,0,0,763.126,134.5Z" transform="translate(-2.902 7148.478)" fill="#92934e"/>
    <path id="Trazado_38966" data-name="Trazado 38966" d="M763.915,179.523l-3.2,2.182a18.994,18.994,0,0,0-7.772,11.729,32.563,32.563,0,0,1-15.533,21.258L687.6,243.452a32.561,32.561,0,0,1-32.56,0l-49.813-28.76a32.559,32.559,0,0,1-15.775-22.484,16.185,16.185,0,0,0-5.744-9.893l-3.663-2.923a9.248,9.248,0,0,0-5.769-2.02H550.12V425.816H792.514V177.372H770.887A12.371,12.371,0,0,0,763.915,179.523Z" transform="translate(28.618 7104.196)" fill="#92934e"/>
    <g id="Grupo_16379" data-name="Grupo 16379" transform="translate(429.661 7243.92)">
      <path id="Trazado_38967" data-name="Trazado 38967" d="M348.044,139.239c0,10.754-4.48,15.1-12.1,15.1-7.662,0-12.053-4.346-12.053-15.1v-3.853c0-10.754,4.391-15.145,12.053-15.145,7.617,0,12.1,4.391,12.1,15.145Zm-7.662-3.853c0-7.035-1.927-8.782-4.436-8.782s-4.391,1.748-4.391,8.782v3.853c0,7.035,1.881,8.737,4.391,8.737s4.436-1.7,4.436-8.737Z" transform="translate(-323.894 -120.241)" fill="#fff"/>
      <path id="Trazado_38968" data-name="Trazado 38968" d="M385.907,153.247a.862.862,0,0,1-.851.9h-5.87a.9.9,0,0,1-.9-.9V128.515l-5.018,2.061a1.544,1.544,0,0,1-.538.135c-.313,0-.492-.179-.492-.583V125.02a.617.617,0,0,1,.447-.627l7.3-3.361a2.361,2.361,0,0,1,1.031-.179h4.033a.741.741,0,0,1,.851.851Z" transform="translate(-340.382 -120.45)" fill="#fff"/>
    </g>
    <g id="Grupo_16380" data-name="Grupo 16380" transform="translate(672.699 7243.92)">
      <path id="Trazado_38969" data-name="Trazado 38969" d="M716.857,139.239c0,10.754-4.48,15.1-12.1,15.1-7.661,0-12.053-4.346-12.053-15.1v-3.853c0-10.754,4.391-15.145,12.053-15.145,7.617,0,12.1,4.391,12.1,15.145Zm-7.661-3.853c0-7.035-1.927-8.782-4.436-8.782s-4.391,1.748-4.391,8.782v3.853c0,7.035,1.881,8.737,4.391,8.737s4.436-1.7,4.436-8.737Z" transform="translate(-692.707 -120.241)" fill="#fff"/>
      <path id="Trazado_38970" data-name="Trazado 38970" d="M755.112,137.223l-3.809,2.554c-3.808,2.509-6.5,4.525-6.5,7.617v.179h14.159a.862.862,0,0,1,.9.851v4.615a.9.9,0,0,1-.9.9H739.026a.9.9,0,0,1-.9-.9v-4.57a14.04,14.04,0,0,1,6.094-11.38l4.122-2.913c3.943-2.733,4.57-3.092,4.57-5.2,0-1.927-1.12-2.689-4.749-2.689a83.4,83.4,0,0,0-8.827.583h-.09a.826.826,0,0,1-.807-.9v-3.495c0-.493.358-.717.851-.851a35.426,35.426,0,0,1,9.544-1.389c8.244,0,11.425,2.823,11.425,8.558C760.264,132.428,758.472,134.937,755.112,137.223Z" transform="translate(-708.197 -120.241)" fill="#fff"/>
    </g>
    <g id="Grupo_16381" data-name="Grupo 16381" transform="translate(914.35 7243.92)">
      <path id="Trazado_38971" data-name="Trazado 38971" d="M1083.565,139.239c0,10.754-4.48,15.1-12.1,15.1-7.662,0-12.053-4.346-12.053-15.1v-3.853c0-10.754,4.391-15.145,12.053-15.145,7.617,0,12.1,4.391,12.1,15.145Zm-7.661-3.853c0-7.035-1.927-8.782-4.436-8.782s-4.391,1.748-4.391,8.782v3.853c0,7.035,1.881,8.737,4.391,8.737s4.436-1.7,4.436-8.737Z" transform="translate(-1059.415 -120.241)" fill="#fff"/>
      <path id="Trazado_38972" data-name="Trazado 38972" d="M1126.863,144.437c0,6.855-4.75,9.9-11.695,9.9a33.364,33.364,0,0,1-9.274-1.255c-.493-.134-.851-.358-.851-.851v-3.584a.753.753,0,0,1,.806-.807h.09c3.181.314,6.452.4,8.917.4,3.226,0,4.436-1.3,4.436-3.808v-.807c0-2.016-.717-3.853-3.63-3.853h-7.886a.861.861,0,0,1-.851-.9v-3.808a.741.741,0,0,1,.851-.851h7.707c2.913,0,3.808-1.927,3.808-3.9V129.7c0-2.016-.941-3.361-4.436-3.361a76.956,76.956,0,0,0-8.827.538h-.09a.753.753,0,0,1-.807-.807v-3.584c0-.493.4-.717.9-.851a31.914,31.914,0,0,1,9.14-1.389c7.3,0,11.695,2.509,11.695,9.185v.627a8.316,8.316,0,0,1-3.988,6.855,7.387,7.387,0,0,1,3.988,6.72Z" transform="translate(-1074.975 -120.241)" fill="#fff"/>
    </g>
    <g id="Grupo_16382" data-name="Grupo 16382" transform="translate(1039.523 7243.92)">
      <path id="Trazado_38973" data-name="Trazado 38973" d="M1457.5,139.239c0,10.754-4.48,15.1-12.1,15.1-7.661,0-12.053-4.346-12.053-15.1v-3.853c0-10.754,4.391-15.145,12.053-15.145,7.617,0,12.1,4.391,12.1,15.145Zm-7.662-3.853c0-7.035-1.927-8.782-4.435-8.782s-4.391,1.748-4.391,8.782v3.853c0,7.035,1.881,8.737,4.391,8.737s4.435-1.7,4.435-8.737Z" transform="translate(-1433.346 -120.241)" fill="#fff"/>
      <path id="Trazado_38974" data-name="Trazado 38974" d="M1501.682,145.765a.9.9,0,0,1-.9.9h-2.957v6.586a.862.862,0,0,1-.851.9h-5.959a.861.861,0,0,1-.851-.9v-6.586h-12.948a.9.9,0,0,1-.9-.9v-4.346a2.625,2.625,0,0,1,.493-1.389l14.159-18.549a1.35,1.35,0,0,1,1.164-.627h4.795a.9.9,0,0,1,.9.9v19h2.957a.9.9,0,0,1,.9.9Zm-11.292-14.876c0-.179-.044-.268-.179-.268-.045,0-.089.045-.135.09l-7.034,9.588a.376.376,0,0,0-.09.269c0,.134.09.179.268.179h7.169Z" transform="translate(-1448.002 -120.45)" fill="#fff"/>
    </g>
    <text id="Diagnosticar_la_existencia_y_la_severidad_de_la_desnutrición_aguda._" data-name="Diagnosticar la existencia y la severidad de la desnutrición aguda.
" transform="translate(349.237 7368.346)" fill="#fff" font-size="18" font-family="SegoeUI, Segoe UI"><tspan x="0" y="19">Diagnosticar la existencia y </tspan><tspan x="0" y="44">la severidad de la </tspan><tspan x="0" y="69">desnutrición aguda.</tspan><tspan font-family="CerebriSans-Regular, Cerebri Sans"><tspan x="0" y="94"></tspan></tspan></text>
    <text id="Seleccionar_el_escenario_adecuado_para_continuar_y_consolidar_el_manejo_insaturado._" data-name="Seleccionar el escenario adecuado para continuar y consolidar el manejo insaturado.
" transform="translate(839.237 7368.346)" fill="#fff" font-size="18" font-family="SegoeUI, Segoe UI"><tspan x="0" y="19">Seleccionar el escenario </tspan><tspan x="0" y="44">adecuado para continuar </tspan><tspan x="0" y="69">y consolidar el manejo </tspan><tspan x="0" y="94">insaturado.</tspan></text>
    <text id="Establecer_presencia_concomitante_de_complicaciones_o_comorbilidades._" data-name="Establecer presencia concomitante de complicaciones o comorbilidades.
" transform="translate(593.237 7368.346)" fill="#fff" font-size="18" font-family="SegoeUI, Segoe UI"><tspan x="0" y="19">Establecer presencia </tspan><tspan x="0" y="44">concomitante de </tspan><tspan x="0" y="69">complicaciones o </tspan><tspan x="0" y="94">comorbilidades.</tspan></text>
  </g>
</svg>
