<svg xmlns="http://www.w3.org/2000/svg" xmlns:xlink="http://www.w3.org/1999/xlink" width="414.776" height="359.901" viewBox="0 0 414.776 359.901">
  <defs>
    <linearGradient id="linear-gradient" x1="4.505" y1="-5.39" x2="6.046" y2="-5.197" gradientUnits="objectBoundingBox">
      <stop offset="0.172" stop-color="#ffbe8c"/>
      <stop offset="0.881" stop-color="#f2b791"/>
    </linearGradient>
    <linearGradient id="linear-gradient-2" x1="14.929" y1="-14.172" x2="13.449" y2="-15.631" xlink:href="#linear-gradient"/>
    <linearGradient id="linear-gradient-3" x1="12.123" y1="-11.71" x2="10.734" y2="-13.31" xlink:href="#linear-gradient"/>
    <linearGradient id="linear-gradient-4" x1="11.814" y1="-10.73" x2="10.889" y2="-11.522" xlink:href="#linear-gradient"/>
    <linearGradient id="linear-gradient-5" x1="2.924" y1="-6.627" x2="4.384" y2="-6.71" xlink:href="#linear-gradient"/>
    <linearGradient id="linear-gradient-6" x1="8.286" y1="-9.892" x2="9.254" y2="-9.331" xlink:href="#linear-gradient"/>
    <linearGradient id="linear-gradient-7" x1="7.374" y1="-13.113" x2="9.217" y2="-11.372" xlink:href="#linear-gradient"/>
    <linearGradient id="linear-gradient-8" x1="0.486" y1="0.873" x2="1.531" y2="0.873" gradientUnits="objectBoundingBox">
      <stop offset="0" stop-color="#f19c7c"/>
      <stop offset="0.339" stop-color="#f4a783"/>
      <stop offset="0.936" stop-color="#ffc599"/>
    </linearGradient>
    <linearGradient id="linear-gradient-9" x1="1.728" y1="1.377" x2="2.812" y2="1.377" xlink:href="#linear-gradient-8"/>
    <linearGradient id="linear-gradient-10" x1="0.991" y1="1.424" x2="0.982" y2="0.45" gradientUnits="objectBoundingBox">
      <stop offset="0.194" stop-color="#ffc599"/>
      <stop offset="1" stop-color="#f48655"/>
    </linearGradient>
    <linearGradient id="linear-gradient-11" x1="26.597" y1="1.396" x2="27.571" y2="1.396" gradientUnits="objectBoundingBox">
      <stop offset="0" stop-color="#ffc599"/>
      <stop offset="1" stop-color="#ee7f52"/>
    </linearGradient>
    <linearGradient id="linear-gradient-12" x1="1.815" y1="1.457" x2="1.796" y2="0.444" gradientUnits="objectBoundingBox">
      <stop offset="0" stop-color="#f07a4a"/>
      <stop offset="0.217" stop-color="#f28455"/>
      <stop offset="0.6" stop-color="#f7a173"/>
      <stop offset="1" stop-color="#ffc599"/>
    </linearGradient>
  </defs>
  <g id="Grupo_26531" data-name="Grupo 26531" transform="translate(-597.521 -316.338)">
    <g id="Grupo_26470" data-name="Grupo 26470" transform="translate(733.552 316.338)">
      <ellipse id="Elipse_1903" data-name="Elipse 1903" cx="139.373" cy="15.466" rx="139.373" ry="15.466" transform="translate(0 328.97)" fill="#becfd3"/>
      <g id="Grupo_26469" data-name="Grupo 26469" transform="translate(39.515 0)">
        <g id="Grupo_26468" data-name="Grupo 26468">
          <g id="Grupo_26462" data-name="Grupo 26462">
            <rect id="Rectángulo_25957" data-name="Rectángulo 25957" width="18.997" height="345.665" transform="translate(190.209 0)" fill="#457289"/>
            <path id="Trazado_67954" data-name="Trazado 67954" d="M1837.569,316.338V662h25.262l-.45-319.645h151.364V662h25.9V316.338Z" transform="translate(-1837.569 -316.338)" fill="#558299"/>
            <g id="Grupo_26461" data-name="Grupo 26461">
              <g id="Grupo_26460" data-name="Grupo 26460">
                <g id="Grupo_26456" data-name="Grupo 26456" transform="translate(0 128.55)">
                  <path id="Trazado_67955" data-name="Trazado 67955" d="M1837.569,1350.547l25.1-25.15-.142-100.986-24.957,25.008Z" transform="translate(-1837.569 -1224.411)" fill="#608ba0"/>
                </g>
                <g id="Grupo_26457" data-name="Grupo 26457" transform="translate(127.278)">
                  <path id="Trazado_67956" data-name="Trazado 67956" d="M2811.452,368.54v-52.2h-48.827l-25.968,26.021h48.9v52.131Z" transform="translate(-2736.657 -316.338)" fill="#608ba0"/>
                </g>
                <g id="Grupo_26458" data-name="Grupo 26458" transform="translate(176.176 66.05)">
                  <path id="Trazado_67957" data-name="Trazado 67957" d="M3107.969,782.913l-25.9,25.95v49.07l25.9-25.949Z" transform="translate(-3082.072 -782.913)" fill="#608ba0"/>
                </g>
                <g id="Grupo_26459" data-name="Grupo 26459" transform="translate(0 243.365)">
                  <path id="Trazado_67958" data-name="Trazado 67958" d="M1837.569,2109.7l25.187-25.238-.069-49-25.118,25.17Z" transform="translate(-1837.569 -2035.457)" fill="#608ba0"/>
                </g>
              </g>
            </g>
          </g>
          <g id="Grupo_26467" data-name="Grupo 26467" transform="translate(23.445 23.991)">
            <rect id="Rectángulo_25958" data-name="Rectángulo 25958" width="5.854" height="323.93" transform="translate(152.815 0)" fill="#457289"/>
            <rect id="Rectángulo_25959" data-name="Rectángulo 25959" width="155.48" height="323.93" transform="translate(0 0)" fill="#6294b2"/>
            <g id="Grupo_26463" data-name="Grupo 26463" transform="translate(20.144 144.964)">
              <rect id="Rectángulo_25960" data-name="Rectángulo 25960" width="113.909" height="157.555" transform="translate(0.166 0.033)" fill="#5885a0"/>
              <path id="Trazado_67959" data-name="Trazado 67959" d="M2930.75,1509.823l-3.223,3.223-.166,151.62,3.223,2.746Z" transform="translate(-2816.675 -1509.823)" fill="#457289"/>
              <path id="Trazado_67960" data-name="Trazado 67960" d="M2260.56,1509.823l-3.223,3.223H2149.6l-2.952-3.223Z" transform="translate(-2146.485 -1509.823)" fill="#457289"/>
              <path id="Trazado_67961" data-name="Trazado 67961" d="M2260.56,2605.526H2146.651l3.229-2.865,107.458-.059Z" transform="translate(-2146.485 -2447.904)" fill="#6e9fb7"/>
              <path id="Trazado_67962" data-name="Trazado 67962" d="M2145.644,1509.823l3.127,3.223-.131,151.919-3.162,2.447Z" transform="translate(-2145.478 -1509.823)" fill="#6e9fb7"/>
            </g>
            <g id="Grupo_26464" data-name="Grupo 26464" transform="translate(20.31 18.891)">
              <rect id="Rectángulo_25961" data-name="Rectángulo 25961" width="113.909" height="100.349" fill="#5885a0"/>
              <path id="Trazado_67963" data-name="Trazado 67963" d="M2931.756,619.253l-3.223,3.223v94.38l3.223,2.746Z" transform="translate(-2817.847 -619.253)" fill="#457289"/>
              <path id="Trazado_67964" data-name="Trazado 67964" d="M2260.56,619.253l-3.223,3.223H2149.6l-2.952-3.223Z" transform="translate(-2146.651 -619.253)" fill="#457289"/>
              <path id="Trazado_67965" data-name="Trazado 67965" d="M2260.56,1310.386H2146.651l3.229-2.865,107.458-.059Z" transform="translate(-2146.651 -1210.037)" fill="#6e9fb7"/>
              <path id="Trazado_67966" data-name="Trazado 67966" d="M2146.651,619.253l3.127,3.223.035,94.679-3.162,2.447Z" transform="translate(-2146.651 -619.253)" fill="#6e9fb7"/>
            </g>
            <g id="Grupo_26465" data-name="Grupo 26465" opacity="0.1">
              <path id="Trazado_67967" data-name="Trazado 67967" d="M2003.18,669.054l155.48-155.8V485.806h-73.392l-82.088,82.255Z" transform="translate(-2003.18 -485.806)" fill="#93c0ce"/>
              <path id="Trazado_67968" data-name="Trazado 67968" d="M2003.18,982.939l155.48-155.8V777.934l-155.48,155.8Z" transform="translate(-2003.18 -736.579)" fill="#93c0ce"/>
            </g>
            <g id="Grupo_26466" data-name="Grupo 26466" transform="translate(2.56 150.184)">
              <path id="Trazado_67969" data-name="Trazado 67969" d="M2063.505,1737.411a3.352,3.352,0,0,0-3.174-3.367,3.2,3.2,0,0,0-3.293,3.246,3.392,3.392,0,0,0,1.512,2.827l-.443,9.789a.762.762,0,0,0,.807.812l2.811-.161a.844.844,0,0,0,.774-.881l-.423-9.548A3.255,3.255,0,0,0,2063.505,1737.411Z" transform="translate(-2051.974 -1707.521)" fill="#396677"/>
              <path id="Trazado_67970" data-name="Trazado 67970" d="M2037.419,1554.854a8.077,8.077,0,1,1-7.821-8.151A8.131,8.131,0,0,1,2037.419,1554.854Z" transform="translate(-2021.266 -1546.7)" fill="#396677"/>
              <ellipse id="Elipse_1904" data-name="Elipse 1904" cx="2.057" cy="2.131" rx="2.057" ry="2.131" transform="translate(8.861 2.322)" fill="#84a6b7"/>
            </g>
          </g>
        </g>
      </g>
    </g>
    <g id="Grupo_26481" data-name="Grupo 26481" transform="translate(745.642 411.367)">
      <g id="Grupo_26476" data-name="Grupo 26476" transform="translate(30.948 7.558)">
        <g id="Grupo_26471" data-name="Grupo 26471">
          <rect id="Rectángulo_25962" data-name="Rectángulo 25962" width="16.283" height="40.098" rx="8.141" fill="#c2c5c6"/>
          <path id="Trazado_67971" data-name="Trazado 67971" d="M1925.177,1041.011h-5.77v40.1h5.77a2.45,2.45,0,0,0,2.45-2.45v-35.2A2.45,2.45,0,0,0,1925.177,1041.011Z" transform="translate(-1911.344 -1041.011)" fill="#d1d2d3"/>
        </g>
        <g id="Grupo_26473" data-name="Grupo 26473" transform="translate(0.392 23.484)">
          <circle id="Elipse_1905" data-name="Elipse 1905" cx="6.511" cy="6.511" r="6.511" transform="matrix(0.213, -0.977, 0.977, 0.213, 0, 12.723)" fill="#d1d2d3"/>
          <g id="Grupo_26472" data-name="Grupo 26472" transform="translate(1.239 1.239)">
            <circle id="Elipse_1906" data-name="Elipse 1906" cx="5.399" cy="5.399" r="5.399" transform="translate(0 10.5) rotate(-76.493)" fill="#cc210a"/>
            <path id="Trazado_67972" data-name="Trazado 67972" d="M1908.739,1228.9a5.373,5.373,0,0,1-.81,2.846c-.953,1.533-8.81-6.734-7.084-7.635a5.4,5.4,0,0,1,7.894,4.79Z" transform="translate(-1896.828 -1222.39)" fill="#d62618"/>
          </g>
        </g>
        <g id="Grupo_26474" data-name="Grupo 26474" transform="translate(3.365 1.796)">
          <circle id="Elipse_1907" data-name="Elipse 1907" cx="3.666" cy="3.666" r="3.666" transform="translate(0 2.762) rotate(-22.13)" fill="#c2c5c6"/>
          <circle id="Elipse_1908" data-name="Elipse 1908" cx="2.846" cy="2.846" r="2.846" transform="matrix(0.955, -0.295, 0.295, 0.955, 1.217, 2.898)" fill="#636262"/>
          <path id="Trazado_67973" data-name="Trazado 67973" d="M1912.175,1070.182a2.834,2.834,0,0,1-.736,1.91c-.26.287-1.887-.343-2.841-1.416s-1.239-2.6-.86-2.853a2.846,2.846,0,0,1,4.436,2.359Z" transform="translate(-1904.554 -1065.406)" fill="#878787"/>
        </g>
        <g id="Grupo_26475" data-name="Grupo 26475" transform="translate(1.709 11.631)" opacity="0.75">
          <path id="Trazado_67974" data-name="Trazado 67974" d="M1886.718,1124.523H1875.2a.676.676,0,0,1-.676-.676h0a.676.676,0,0,1,.676-.675h11.513a.675.675,0,0,1,.676.675h0A.675.675,0,0,1,1886.718,1124.523Z" transform="translate(-1874.529 -1123.172)" fill="#aeafaf"/>
          <path id="Trazado_67975" data-name="Trazado 67975" d="M1886.718,1138.837H1875.2a.675.675,0,0,1-.676-.675h0a.676.676,0,0,1,.676-.676h11.513a.675.675,0,0,1,.676.676h0A.675.675,0,0,1,1886.718,1138.837Z" transform="translate(-1874.529 -1135.46)" fill="#aeafaf"/>
          <path id="Trazado_67976" data-name="Trazado 67976" d="M1886.718,1153.151H1875.2a.676.676,0,0,1-.676-.676h0a.675.675,0,0,1,.676-.675h11.513a.675.675,0,0,1,.676.675h0A.675.675,0,0,1,1886.718,1153.151Z" transform="translate(-1874.529 -1147.748)" fill="#aeafaf"/>
          <path id="Trazado_67977" data-name="Trazado 67977" d="M1886.718,1167.465H1875.2a.675.675,0,0,1-.676-.675h0a.676.676,0,0,1,.676-.676h11.513a.675.675,0,0,1,.676.676h0A.675.675,0,0,1,1886.718,1167.465Z" transform="translate(-1874.529 -1160.035)" fill="#aeafaf"/>
        </g>
      </g>
      <g id="Grupo_26480" data-name="Grupo 26480" transform="translate(0 0)">
        <g id="Grupo_26477" data-name="Grupo 26477" transform="translate(59.143)">
          <path id="Trazado_67978" data-name="Trazado 67978" d="M2062.958,1077.113a1.333,1.333,0,0,1-1-2.218,16.431,16.431,0,0,0,0-21.807,1.334,1.334,0,0,1,2-1.769,19.1,19.1,0,0,1,0,25.345A1.339,1.339,0,0,1,2062.958,1077.113Z" transform="translate(-2061.621 -1041.917)" fill="#85d3e0"/>
          <path id="Trazado_67979" data-name="Trazado 67979" d="M2095.333,1053.894a1.335,1.335,0,0,1-.979-2.245,22.9,22.9,0,0,0,0-30.92,1.335,1.335,0,0,1,.979-2.245,1.321,1.321,0,0,1,.971.425,25.569,25.569,0,0,1,.005,34.56A1.321,1.321,0,0,1,2095.333,1053.894Z" transform="translate(-2089.41 -1014.115)" fill="#85d3e0"/>
          <path id="Trazado_67980" data-name="Trazado 67980" d="M2126.182,1031.767a1.334,1.334,0,0,1-.973-2.248,29.077,29.077,0,0,0-.006-39.651,1.334,1.334,0,1,1,1.942-1.829,31.745,31.745,0,0,1,.007,43.308A1.332,1.332,0,0,1,2126.182,1031.767Z" transform="translate(-2115.89 -987.62)" fill="#85d3e0"/>
        </g>
        <g id="Grupo_26479" data-name="Grupo 26479">
          <g id="Grupo_26478" data-name="Grupo 26478">
            <path id="Trazado_67981" data-name="Trazado 67981" d="M1738.979,1077.113a1.339,1.339,0,0,1-1-.449,19.1,19.1,0,0,1,0-25.345,1.334,1.334,0,1,1,2,1.769,16.431,16.431,0,0,0,0,21.807,1.333,1.333,0,0,1-1,2.218Z" transform="translate(-1720.526 -1041.917)" fill="#85d3e0"/>
            <path id="Trazado_67982" data-name="Trazado 67982" d="M1695.151,1053.894a1.323,1.323,0,0,1-.972-.425,25.57,25.57,0,0,1,.005-34.56,1.33,1.33,0,0,1,1.918-.033,1.337,1.337,0,0,1,.032,1.853,22.9,22.9,0,0,0,0,30.92,1.335,1.335,0,0,1-.979,2.245Z" transform="translate(-1681.284 -1014.115)" fill="#85d3e0"/>
            <path id="Trazado_67983" data-name="Trazado 67983" d="M1653.337,1031.767a1.332,1.332,0,0,1-.97-.42,31.746,31.746,0,0,1,.006-43.308,1.334,1.334,0,0,1,1.942,1.829,29.077,29.077,0,0,0-.006,39.651,1.334,1.334,0,0,1-.973,2.248Z" transform="translate(-1643.839 -987.62)" fill="#85d3e0"/>
          </g>
        </g>
      </g>
    </g>
    <g id="Grupo_26530" data-name="Grupo 26530" transform="translate(597.521 359.303)">
      <ellipse id="Elipse_1909" data-name="Elipse 1909" cx="63.454" cy="6.292" rx="63.454" ry="6.292" transform="translate(29.871 301.85)" fill="#becfd3"/>
      <g id="Grupo_26529" data-name="Grupo 26529" transform="translate(0 0)">
        <g id="Grupo_26486" data-name="Grupo 26486" transform="translate(46.17 196.644)">
          <g id="Grupo_26483" data-name="Grupo 26483">
            <g id="Grupo_26482" data-name="Grupo 26482" transform="translate(0 99.261)">
              <path id="Trazado_67984" data-name="Trazado 67984" d="M956.807,2710.624c.328.109,1.968,3.561,2.463,6.253a22.857,22.857,0,0,1,.4,3.523.959.959,0,0,1-.412.956c-3.8,2.23-29.619,3.189-34.238.161-.148-.1-.526-.341-.574-.594a2.893,2.893,0,0,1,.52-2.156c1.6-2.486,13.352-7.9,16.693-8.389C944.6,2709.944,954.955,2710.013,956.807,2710.624Z" transform="translate(-924.295 -2710.1)" fill="#1a2230"/>
              <path id="Trazado_67985" data-name="Trazado 67985" d="M923.957,2775.038a3.835,3.835,0,0,0,.425.305c4.619,3.028,30.439,2.068,34.238-.161a1.094,1.094,0,0,0,.37-.317,4.221,4.221,0,0,1,.093,1.381,1.136,1.136,0,0,1-.5.954c-3.8,2.229-29.619,3.188-34.238.161a1.66,1.66,0,0,1-.574-.594A2.064,2.064,0,0,1,923.957,2775.038Z" transform="translate(-923.661 -2765.697)" fill="#211011"/>
            </g>
            <path id="Trazado_67986" data-name="Trazado 67986" d="M1003.572,2009.389c8.025,2.3,12.064,4.037,14.127,5.375,2.063-1.339,4.67,19.891,0,19.891a28.738,28.738,0,0,1-8.746-1.367s1.865,15.057,3.413,36.655c1.389,19.377,1.772,33.038,1.951,37.407.035.855-.115.858-.4.988a23.716,23.716,0,0,1-9.715,1.778,28.589,28.589,0,0,1-8.969-1.152c-.374-.127-.548-.486-.537-1,.086-3.939.125-21.948-.612-40.671-.732-18.6-4.628-51.76-4.8-53.923C988.941,2008.875,999.854,2008.322,1003.572,2009.389Z" transform="translate(-979.991 -2008.925)" fill="#1a1b1c"/>
          </g>
          <g id="Grupo_26485" data-name="Grupo 26485" transform="translate(34.176 0.262)">
            <g id="Grupo_26484" data-name="Grupo 26484" transform="translate(5.628 98.999)">
              <path id="Trazado_67987" data-name="Trazado 67987" d="M1208.2,2710.624c-.328.109-1.968,3.561-2.463,6.253a22.872,22.872,0,0,0-.4,3.523.959.959,0,0,0,.412.956c3.8,2.23,29.619,3.189,34.238.161.148-.1.526-.341.574-.594a2.893,2.893,0,0,0-.52-2.156c-1.6-2.486-13.352-7.9-16.693-8.389C1220.4,2709.944,1210.052,2710.013,1208.2,2710.624Z" transform="translate(-1205.267 -2710.1)" fill="#1a2230"/>
              <path id="Trazado_67988" data-name="Trazado 67988" d="M1239.986,2775.038a3.818,3.818,0,0,1-.426.305c-4.619,3.028-30.439,2.068-34.238-.161a1.092,1.092,0,0,1-.37-.317,4.224,4.224,0,0,0-.093,1.381,1.136,1.136,0,0,0,.5.954c3.8,2.229,29.619,3.188,34.238.161a1.658,1.658,0,0,0,.574-.594A2.064,2.064,0,0,0,1239.986,2775.038Z" transform="translate(-1204.838 -2765.697)" fill="#211011"/>
            </g>
            <path id="Trazado_67989" data-name="Trazado 67989" d="M1166.677,2016.68c2.063-1.339,8.036-3.4,16.061-5.7,3.718-1.067,14.489,2.17,13.861,7.511-1.382,11.752-3.7,33.238-4.374,50.39-.737,18.723-.7,36.732-.612,40.671.011.518-.162.877-.537,1a28.585,28.585,0,0,1-8.969,1.152,23.714,23.714,0,0,1-9.715-1.778c-.284-.131-.434-.134-.4-.988.179-4.369.562-18.031,1.951-37.408,1.548-21.6,3.413-36.654,3.413-36.654a30.87,30.87,0,0,1-8.746,1.367C1164.852,2036.341,1163.913,2018.224,1166.677,2016.68Z" transform="translate(-1165.08 -2010.774)" fill="#2d2e30"/>
          </g>
        </g>
        <g id="Grupo_26489" data-name="Grupo 26489" transform="translate(84.203 88.51)">
          <g id="Grupo_26487" data-name="Grupo 26487" transform="translate(65.765)">
            <path id="Trazado_67990" data-name="Trazado 67990" d="M1656.974,1337.62c.834-4.539,2.968-8.742,5.95-10.033,2.147-.929,3.113-.085,5.364.806a11.891,11.891,0,0,0,2.69.485s8.235,11.766,7.261,16.064a6.63,6.63,0,0,1-3.423,3.406,17.128,17.128,0,0,1-13.041-1.052C1658.449,1345.5,1656.44,1340.53,1656.974,1337.62Z" transform="translate(-1656.889 -1315.559)" fill="url(#linear-gradient)"/>
            <path id="Trazado_67991" data-name="Trazado 67991" d="M1764.3,1445.116a2.51,2.51,0,0,1-1.681.268c-2.779-.849-2.841-2.578-2.881-2.859a2.431,2.431,0,0,1,.622-2.039c.328-.35,2.269.51,2.755,1.181C1763.875,1442.71,1764.6,1444.936,1764.3,1445.116Z" transform="translate(-1745.158 -1412.753)" fill="#e28a76"/>
            <path id="Trazado_67992" data-name="Trazado 67992" d="M1771.067,1409.483a4.267,4.267,0,0,1,3.429,1.526,3.591,3.591,0,0,1-.067,3.822c-.833,1.184-5.284,4.414-7.735,3.995a4.079,4.079,0,0,1-3.149-1.987c-.886-1.708.322-3.268.717-3.768A13.423,13.423,0,0,1,1771.067,1409.483Z" transform="translate(-1748.174 -1386.2)" fill="url(#linear-gradient-2)"/>
            <path id="Trazado_67993" data-name="Trazado 67993" d="M1763.277,1403.786s.411,1.272.044,1.849a9.281,9.281,0,0,1-2.771,2.2,13.1,13.1,0,0,1-3.8,1.414,8.294,8.294,0,0,1-4.162-.854,4.249,4.249,0,0,1-2.292-3.415c-.049-1.395.6-2.16,1.156-2.335a26.481,26.481,0,0,1,4.447-.046Z" transform="translate(-1737.073 -1380.227)" fill="#e28a76"/>
            <path id="Trazado_67994" data-name="Trazado 67994" d="M1762.434,1367.581a5.547,5.547,0,0,1,4.315,1.863c1.3,1.611.451,3.9-.05,4.588-1.034,1.415-6.59,5.254-9.668,4.729-3.638-.621-4.235-2.782-4.318-3.726a4.449,4.449,0,0,1,1.216-3.205C1755.411,1370.028,1760.035,1367.8,1762.434,1367.581Z" transform="translate(-1739.136 -1350.23)" fill="url(#linear-gradient-3)"/>
            <path id="Trazado_67995" data-name="Trazado 67995" d="M1754.9,1372.572s2.392-.4,2.455.138a2.971,2.971,0,0,1-.45,1.495c-1.178,2.077-6.42,4.671-8.047,5.047a7.015,7.015,0,0,1-5.289-1.352,4.1,4.1,0,0,1-1.415-4.27c.125-.444,3.938.4,3.938.4l4.4-.209Z" transform="translate(-1729.95 -1354.4)" fill="#e28a76"/>
            <path id="Trazado_67996" data-name="Trazado 67996" d="M1755.187,1331.212a5.544,5.544,0,0,1,4.456,1.983c1.331,1.733.438,4.221-.086,4.967-1.082,1.539-6.867,5.736-10.052,5.191a5.153,5.153,0,0,1-4.609-4.342,7.348,7.348,0,0,1,1.448-3.137C1747.894,1333.913,1752.7,1331.462,1755.187,1331.212Z" transform="translate(-1732.438 -1319.007)" fill="url(#linear-gradient-4)"/>
            <path id="Trazado_67997" data-name="Trazado 67997" d="M1763.213,1332.527c.739.317-.3,1.511-3.778,3.051-2.38,1.054-7.627,2.91-7.861,1.879C1751.315,1336.312,1762.988,1332.431,1763.213,1332.527Z" transform="translate(-1738.166 -1320.145)" fill="#e28a76"/>
            <path id="Trazado_67998" data-name="Trazado 67998" d="M1719.008,1257.179a108.524,108.524,0,0,0,25.408-11.554c2-1.212,3.761-.291,4.212,1.406s-.416,4.183-3.689,6.077a88.083,88.083,0,0,1-24.232,9.409C1719.922,1262.688,1717.663,1257.569,1719.008,1257.179Z" transform="translate(-1709.855 -1245.073)" fill="url(#linear-gradient-5)"/>
            <path id="Trazado_67999" data-name="Trazado 67999" d="M1666.745,1364.931c1.065,1.417,3.553,2.156,6.571.213,2.272-1.463,3.619-4.123,3.5-5.657-.263-3.391-2.035-5.888-3.8-5.813C1665.726,1353.983,1664.161,1361.494,1666.745,1364.931Z" transform="translate(-1664.351 -1338.299)" fill="url(#linear-gradient-6)"/>
            <path id="Trazado_68000" data-name="Trazado 68000" d="M1714.257,1320.118c-.141.41,6.153,1.745,11.377.129a4.945,4.945,0,0,0,3.495-5.031c-.128-2.3-2.183-3.825-3.094-3.754-1.231.1-3,1.234-4.19,1.578a28.463,28.463,0,0,1-6.9,1.086C1711.44,1314.439,1714.76,1318.657,1714.257,1320.118Z" transform="translate(-1705.328 -1302.062)" fill="#e28a76"/>
            <path id="Trazado_68001" data-name="Trazado 68001" d="M1710.431,1318.029c7.55,1.1,10.457-1.581,11.683-1.678a2.123,2.123,0,0,1,1.706.807,4.283,4.283,0,0,1,.913,3.261,4.5,4.5,0,0,1-2.781,3.442c-1.618.791-5.829,1.288-12.354.41C1708.616,1324.139,1709.29,1317.862,1710.431,1318.029Z" transform="translate(-1701.729 -1306.256)" fill="url(#linear-gradient-7)"/>
          </g>
          <g id="Grupo_26488" data-name="Grupo 26488" transform="translate(0 23.257)">
            <path id="Trazado_68002" data-name="Trazado 68002" d="M1643.894,1423.313c.818-.689,3.046-2.72,3-3.127-.51-4.094-6.856-10.691-9.541-10.826-.37-.019-3.047,3.35-3.047,3.35Z" transform="translate(-1571.734 -1409.36)" fill="#78deef"/>
            <path id="Trazado_68003" data-name="Trazado 68003" d="M1192.326,1428.339c1.563-.118,3.558.127,7.151,2.783,10.923,8.075,20.91,9.282,29.655,6.975,13.4-3.533,24.418-14.681,26.436-17.857,1.148-1.807,11.707,9.3,10.829,12.252-.7,2.347-17.956,18.012-36.518,20.709-20.879,3.034-33.844-10.646-34.3-12.568S1192.326,1428.339,1192.326,1428.339Z" transform="translate(-1192.326 -1418.53)" fill="#bee9f4"/>
          </g>
        </g>
        <g id="Grupo_26496" data-name="Grupo 26496" transform="translate(49.459 119.36)">
          <g id="Grupo_26490" data-name="Grupo 26490" transform="translate(0 2.811)">
            <path id="Trazado_68004" data-name="Trazado 68004" d="M949.574,1539.938c-.392-15.149-3.473-25.455,3.7-34.257,2.291-2.81,3.1-1.689,3.1-1.689s7.062,2.417,9.349,4.142c4.4,3.321,10.1,8.575,11.187,9.58,3.737,3.463,11.112,8.264,15.877,19.715,2.81,6.753,5.756,36.216,4.67,51.723-.248,3.541-1.7,27.513-3.411,27.912-11.94,2.791-33.495.931-47.141-3.411C946.74,1613.6,950.1,1560.19,949.574,1539.938Z" transform="translate(-946.895 -1500.81)" fill="#a3d8e5"/>
            <path id="Trazado_68005" data-name="Trazado 68005" d="M1192.913,1482.855s5.243,1.8,8.386,5.043c1.645,1.7,6.793,10.32,13.157,32.211,2.2,7.569,4.679,23.122,5.82,30.261,1.448,9.056,4.882,36.645,5.928,44.67.087.668-11.63,3.605-15,3.4-1.109-.068-5.132-61.3-6.464-72.307-.5-4.17-3.007-17.154-7.724-32.931C1196.388,1491.1,1192.913,1482.855,1192.913,1482.855Z" transform="translate(-1158.086 -1482.855)" fill="#b2e2ed"/>
          </g>
          <g id="Grupo_26491" data-name="Grupo 26491" transform="translate(13.719 75.432)">
            <path id="Trazado_68006" data-name="Trazado 68006" d="M1044.542,2015.708a116.758,116.758,0,0,0,21.042.169c1.146-.119.632,8.976.3,11.7-.3,2.5-1.539,8.169-9.931,7.934-5.944-.166-10.789-1.9-11.736-7.229C1043.6,2024.79,1043.65,2015.62,1044.542,2015.708Z" transform="translate(-1043.804 -2012.895)" fill="#c9eef7"/>
            <path id="Trazado_68007" data-name="Trazado 68007" d="M1320.877,1997.63a28.591,28.591,0,0,0,9.951-1.783c.526-.218,1.4,8.393,1.584,10.989.165,2.384.28,7.833-3.709,8.387-2.825.393-5.326-.792-6.429-5.723C1321.551,2006.269,1320.445,1997.63,1320.877,1997.63Z" transform="translate(-1281.57 -1995.843)" fill="#c9eef7"/>
          </g>
          <g id="Grupo_26492" data-name="Grupo 26492" transform="translate(48.967 58.345)">
            <circle id="Elipse_1910" data-name="Elipse 1910" cx="2.182" cy="2.182" r="2.182" transform="matrix(0.45, -0.893, 0.893, 0.45, 0.526, 14.42)" fill="#c9eef7"/>
            <path id="Trazado_68008" data-name="Trazado 68008" d="M1297.16,1877.333a2.182,2.182,0,1,1-2.172-2.193A2.182,2.182,0,0,1,1297.16,1877.333Z" transform="translate(-1292.795 -1875.14)" fill="#c9eef7"/>
          </g>
          <g id="Grupo_26495" data-name="Grupo 26495" transform="translate(4.973)">
            <g id="Grupo_26493" data-name="Grupo 26493" transform="translate(3.929)">
              <path id="Trazado_68009" data-name="Trazado 68009" d="M1009.952,1467.235c3.331-2.726,18.422-5.116,23.1-3.923,2.353.6,2.184,2.169,3.417,4.233,2.1,3.511,11.269,32.337,10.622,34.038s-14.674-19.72-22.407-25.121C1014.914,1469.638,1008.629,1468.317,1009.952,1467.235Z" transform="translate(-1009.777 -1462.997)" fill="#78deef"/>
              <path id="Trazado_68010" data-name="Trazado 68010" d="M1109.751,1488.175a136.374,136.374,0,0,1,7.215,16.606c1.356,4.134,13.83,17.311,13.83,17.311l2.978.582s-5.919-18.491-8.164-22.394c-5.393-9.378-11.115-13.519-11.115-13.519Z" transform="translate(-1095.598 -1483.396)" fill="#31c3db"/>
            </g>
            <g id="Grupo_26494" data-name="Grupo 26494" transform="translate(0 0.032)">
              <path id="Trazado_68011" data-name="Trazado 68011" d="M982.028,1493.9a6.982,6.982,0,0,1,3.208-3.748c.551-.228,11.991,5.019,18.445,10.26,12.125,9.848,19.051,22.432,20.322,27.615.155.631-26.646-18.62-26.866-19.248-.407-1.163,3.942-7.775,3.78-7.967-.212-.249-5,3.722-6.28,3.663C993.828,1504.438,981.738,1495.281,982.028,1493.9Z" transform="translate(-982.023 -1486.333)" fill="#d0eff7"/>
              <path id="Trazado_68012" data-name="Trazado 68012" d="M1181.623,1464.1c1.272,1.07,7.065,7.328,6.978,7.676-.155.62-6.193,1.706-6.125,2.055s8.219.892,8.606,1.9c.416,1.081,1.749,16.531-.11,30.93-.218,1.689-.793,2-.859,1.557-3.276-21.845-13.306-43.374-13.584-44.653-.062-.286.193-.3.48-.317C1178.3,1463.178,1180.607,1463.242,1181.623,1464.1Z" transform="translate(-1148.986 -1463.225)" fill="#d0eff7"/>
            </g>
          </g>
        </g>
        <g id="Grupo_26508" data-name="Grupo 26508" transform="translate(0 131.811)">
          <path id="Trazado_68013" data-name="Trazado 68013" d="M842.142,1561.839c-4.417,4.374-10.355,13.621-14.522,25.324-3.617,10.157-18.365,6.613-13.456-5.047a100.955,100.955,0,0,1,17.953-28.257c3.464-3.842,6.289-3.461,9.431-1.3C844.2,1554.386,844.5,1559.505,842.142,1561.839Z" transform="translate(-782.645 -1550.945)" fill="#bee9f4"/>
          <g id="Grupo_26507" data-name="Grupo 26507" transform="translate(0 23.958)">
            <g id="Grupo_26505" data-name="Grupo 26505" transform="translate(0 42.204)">
              <path id="Trazado_68014" data-name="Trazado 68014" d="M785.9,2021.321c-.393.957-2.217,9.238-.4,10.468.766.519-14.528.788-13.764,0,1.651-1.705.991-5.155,4.193-13.2C776.468,2017.225,785.9,2021.321,785.9,2021.321Z" transform="translate(-747.047 -2018.309)" fill="#fabe8c"/>
              <path id="Trazado_68015" data-name="Trazado 68015" d="M861.1,2114.039c1.073-.108,4.884.445,7.19,5.1,1.22,2.464-1.711,5.464-2.414,5.52-.483.038-2.191-4.042-2.835-5.667S861.1,2114.039,861.1,2114.039Z" transform="translate(-823.788 -2100.477)" fill="#e28a76"/>
              <g id="Grupo_26504" data-name="Grupo 26504" transform="translate(0 21.727)">
                <g id="Grupo_26497" data-name="Grupo 26497" transform="translate(14.691)">
                  <path id="Trazado_68016" data-name="Trazado 68016" d="M718.153,2185.417l.079-6.675a2.615,2.615,0,0,1,2.64-2.58l15.472.171a2.61,2.61,0,0,1,2.578,2.638l-.079,6.675,4.378.048.079-6.675a6.988,6.988,0,0,0-6.9-7.062l-15.472-.171a7,7,0,0,0-7.07,6.907l-.079,6.675Z" transform="translate(-712.009 -2171.786)" fill="#473c38"/>
                  <path id="Trazado_68017" data-name="Trazado 68017" d="M708.41,2260.76l-6.4-.07a.752.752,0,0,0-.7.791l-.009.811a.75.75,0,0,0,.683.806l6.4.071a.752.752,0,0,0,.7-.791l.01-.812A.751.751,0,0,0,708.41,2260.76Z" transform="translate(-701.298 -2248.104)" fill="#473c38"/>
                  <path id="Trazado_68018" data-name="Trazado 68018" d="M886.18,2262.727l-6.419-.071a.753.753,0,0,0-.7.791l-.01.812a.751.751,0,0,0,.685.806l6.419.071a.753.753,0,0,0,.7-.791l.009-.811A.751.751,0,0,0,886.18,2262.727Z" transform="translate(-853.885 -2249.792)" fill="#473c38"/>
                </g>
                <g id="Grupo_26503" data-name="Grupo 26503" transform="translate(0 13.235)">
                  <g id="Grupo_26501" data-name="Grupo 26501" transform="translate(0 0)">
                    <g id="Grupo_26498" data-name="Grupo 26498" transform="translate(49.873 0.404)">
                      <rect id="Rectángulo_25963" data-name="Rectángulo 25963" width="2.32" height="6.004" rx="1.16" transform="translate(2.456 2.342) rotate(-89.477)" fill="#9fa2a3"/>
                      <rect id="Rectángulo_25964" data-name="Rectángulo 25964" width="2.32" height="6.004" rx="1.16" transform="translate(0 2.32) rotate(-89.477)" fill="#b2b6b7"/>
                    </g>
                    <g id="Grupo_26499" data-name="Grupo 26499" transform="translate(5.664)">
                      <rect id="Rectángulo_25965" data-name="Rectángulo 25965" width="2.32" height="6.004" rx="1.16" transform="translate(2.456 2.342) rotate(-89.477)" fill="#9fa2a3"/>
                      <rect id="Rectángulo_25966" data-name="Rectángulo 25966" width="2.32" height="6.004" rx="1.16" transform="translate(0 2.32) rotate(-89.477)" fill="#b2b6b7"/>
                    </g>
                    <g id="Grupo_26500" data-name="Grupo 26500" transform="translate(0 1.444)">
                      <path id="Rectángulo_25967" data-name="Rectángulo 25967" d="M12.209,0H34.677a12.21,12.21,0,0,1,12.21,12.21V46.875a12.21,12.21,0,0,1-12.21,12.21H12.209A12.209,12.209,0,0,1,0,46.875V12.209A12.209,12.209,0,0,1,12.209,0Z" transform="translate(3.259 46.899) rotate(-89.477)" fill="#a82c29"/>
                      <path id="Trazado_68019" data-name="Trazado 68019" d="M654.86,2322.874l-55.626-.508a1.728,1.728,0,0,1-1.713-1.744l.4-43.428a1.728,1.728,0,0,1,1.744-1.712l55.625.508a1.729,1.729,0,0,1,1.712,1.744l-.4,43.428A1.729,1.729,0,0,1,654.86,2322.874Z" transform="translate(-597.521 -2275.481)" fill="#c93228"/>
                      <path id="Trazado_68020" data-name="Trazado 68020" d="M612.646,2275.481l55.626.508a1.728,1.728,0,0,1,1.712,1.744l-.4,43.428s-14.816-11.211-29.331-22.887C626.074,2286.866,612.646,2275.481,612.646,2275.481Z" transform="translate(-610.505 -2275.481)" fill="#d33835" opacity="0.75"/>
                    </g>
                  </g>
                  <g id="Grupo_26502" data-name="Grupo 26502" transform="translate(9.574 4.975)">
                    <circle id="Elipse_1911" data-name="Elipse 1911" cx="14.259" cy="14.259" r="14.259" transform="translate(0 20.166) rotate(-45)" fill="#f4e9e9"/>
                    <circle id="Elipse_1912" data-name="Elipse 1912" cx="13.406" cy="13.406" r="13.406" transform="translate(1.208 20.166) rotate(-45)" fill="#c93228"/>
                    <path id="Trazado_68021" data-name="Trazado 68021" d="M765.72,2389.992l-4.993-.045.046-4.992a.189.189,0,0,0-.187-.191l-5.673-.052a.189.189,0,0,0-.191.187l-.046,4.993-4.992-.046a.189.189,0,0,0-.191.188l-.052,5.673a.189.189,0,0,0,.188.191l4.992.046-.046,4.992a.189.189,0,0,0,.187.191l5.673.052a.189.189,0,0,0,.191-.187l.046-4.992,4.993.046a.189.189,0,0,0,.191-.187l.052-5.673A.189.189,0,0,0,765.72,2389.992Z" transform="translate(-737.508 -2372.778)" fill="#f4e9e9"/>
                  </g>
                </g>
              </g>
              <path id="Trazado_68022" data-name="Trazado 68022" d="M740.418,2104.014a22.548,22.548,0,0,0-.31,5.311c.09.866.411,3.873.11,4.416-.369.667-1.137,1.454-1.216,2.093-.413,3.36,3.982,4.587,5.341,3.228a8.1,8.1,0,0,0,.234,1.392c.383.95,3.927,2.585,5.646-.249.005-.01.014,0,.024-.006.267-.1.4.914,1.794,1.487,1,.408,4.232-.153,5.031-2.516.183.563,3.057,1.54,4.3-.389,1.714-2.67,1.206-8.2.946-8.87a40.962,40.962,0,0,0-1.811-5.224,21.5,21.5,0,0,0-3.417-5.042c-.658-.828-5.346-2.057-8.47-1.663C746.561,2098.24,741.159,2100.608,740.418,2104.014Z" transform="translate(-718.951 -2086.638)" fill="#fabe8c"/>
            </g>
            <g id="Grupo_26506" data-name="Grupo 26506" transform="translate(23.901)">
              <path id="Trazado_68023" data-name="Trazado 68023" d="M771.246,2054.269c-.023.9-.055,3.138.3,3.308,3.559,1.7,12.438.959,14.393-.8.27-.243.22-3.724.22-3.724Z" transform="translate(-770.543 -2005.93)" fill="#78deef"/>
              <path id="Trazado_68024" data-name="Trazado 68024" d="M788.725,1729.028c-4.34,10.825-7.33,24.173-5.991,37.858.2,2.034-4.591,3.01-7.947,3.065-2.143.035-8.337-.092-8.391-2.076a97.158,97.158,0,0,1,10.934-47.631C777.786,1719.36,788.974,1728.405,788.725,1729.028Z" transform="translate(-766.359 -1720.183)" fill="#bee9f4"/>
            </g>
          </g>
        </g>
        <g id="Grupo_26514" data-name="Grupo 26514" transform="translate(55.756 112.473)">
          <g id="Grupo_26511" data-name="Grupo 26511" transform="translate(1.009 32.916)">
            <g id="Grupo_26509" data-name="Grupo 26509" transform="translate(3.123 5.849)">
              <path id="Trazado_68025" data-name="Trazado 68025" d="M1030.638,1714.7l-.98-1.04c.854-.8,1.609-1.492,2.274-2.1,3.125-2.842,4.068-3.7,4.132-6.517l.386-16.874,1.429.033-.386,16.874c-.078,3.428-1.4,4.632-4.6,7.541C1032.234,1713.225,1031.486,1713.906,1030.638,1714.7Z" transform="translate(-1028.371 -1688.177)" fill="#9fa0a0"/>
              <path id="Trazado_68026" data-name="Trazado 68026" d="M1023.566,1864.228l-1.109,1a1.057,1.057,0,0,1-1.493-.076l-.125-.138a1.057,1.057,0,0,1,.076-1.493l1.109-1a.377.377,0,0,1,.532.027l1.036,1.147A.376.376,0,0,1,1023.566,1864.228Z" transform="translate(-1020.567 -1837.757)" fill="#bebfbf"/>
            </g>
            <g id="Grupo_26510" data-name="Grupo 26510" transform="translate(0.159 6.512)">
              <path id="Trazado_68027" data-name="Trazado 68027" d="M1010.437,1718.343l.828-1.165c-.956-.68-1.8-1.257-2.54-1.765-3.485-2.388-4.537-3.108-4.987-5.889l-2.7-16.662-1.411.228,2.7,16.662c.548,3.385,2.023,4.4,5.589,6.839C1008.652,1717.1,1009.487,1717.669,1010.437,1718.343Z" transform="translate(-999.631 -1692.863)" fill="#9fa0a0"/>
              <path id="Trazado_68028" data-name="Trazado 68028" d="M1069.781,1861.239l1.236.841a1.057,1.057,0,0,0,1.469-.28l.1-.154a1.057,1.057,0,0,0-.28-1.468l-1.236-.841a.377.377,0,0,0-.524.1l-.869,1.278A.377.377,0,0,0,1069.781,1861.239Z" transform="translate(-1059.708 -1835.714)" fill="#bebfbf"/>
            </g>
            <path id="Trazado_68029" data-name="Trazado 68029" d="M1011.343,1653.139l-1.822.125a4.606,4.606,0,1,0-9.172.632l-1.822.126a6.43,6.43,0,1,1,12.817-.883Z" transform="translate(-998.509 -1646.86)" fill="#565656"/>
          </g>
          <path id="Trazado_68030" data-name="Trazado 68030" d="M1032.392,1448.426c-10.243-35.1-23.532-32.767-28.532-31.886s-8.282,2.814-9.751,5.747c-2.948,5.884,2.341,13.457,4.08,19.131a31.9,31.9,0,0,1,1.246,6.944l-1.808.305a31.99,31.99,0,0,0-1.1-6.411c-1.9-5.97-7.449-14.083-4.083-20.8,1.748-3.488,5.48-5.758,11.093-6.746,8.558-1.507,21.042.3,30.641,33.2Z" transform="translate(-991.383 -1414.345)" fill="#565656"/>
          <g id="Grupo_26513" data-name="Grupo 26513" transform="translate(34.437 28.166)">
            <circle id="Elipse_1913" data-name="Elipse 1913" cx="5.754" cy="5.754" r="5.754" transform="matrix(0.781, -0.625, 0.625, 0.781, 0, 7.189)" fill="#b2b6b7"/>
            <g id="Grupo_26512" data-name="Grupo 26512" transform="translate(3.553 1.819)">
              <circle id="Elipse_1914" data-name="Elipse 1914" cx="3.651" cy="3.651" r="3.651" transform="translate(0 8.739) rotate(-73.591)" fill="#888989"/>
              <path id="Trazado_68031" data-name="Trazado 68031" d="M1273.858,1632.757l-3.381,1.072-1.923-6.066a.762.762,0,0,1,.5-.957l1.928-.611a.762.762,0,0,1,.957.5Z" transform="translate(-1267.276 -1626.159)" fill="#888989"/>
            </g>
          </g>
        </g>
        <g id="Grupo_26517" data-name="Grupo 26517" transform="translate(57.593 106.208)">
          <path id="Trazado_68032" data-name="Trazado 68032" d="M1009.951,1385.708a71.428,71.428,0,0,0-2.082-8.49c-2.321-5.29,18.328-10.33,19.074-4.578.232,1.793,1.323,6.124,2.082,8.969C1029.261,1382.493,1010.186,1386.82,1009.951,1385.708Z" transform="translate(-1007.215 -1370.088)" fill="#eda87a"/>
          <g id="Grupo_26516" data-name="Grupo 26516" transform="translate(0 6.228)">
            <g id="Grupo_26515" data-name="Grupo 26515">
              <path id="Trazado_68033" data-name="Trazado 68033" d="M1004.542,1439.368l-.188,6.937a.528.528,0,0,0,.338.516c.877.35,8.812,1,12.823.725.51-.035.185-6.332-.247-8.021a.535.535,0,0,0-.508-.417c-3.988.05-9.689.171-11.843-.079A.349.349,0,0,0,1004.542,1439.368Z" transform="translate(-1004.354 -1435.495)" fill="#97e9f7"/>
              <path id="Trazado_68034" data-name="Trazado 68034" d="M1113.514,1416.726c1.47-.58,5.287-1.635,6.594-2.6a.549.549,0,0,1,.64.182l2.132,6.242a.453.453,0,0,1-.127.573c-1,1.015-4.161,2.317-5.946,3.072a.432.432,0,0,1-.586-.174l-2.9-6.757A.4.4,0,0,1,1113.514,1416.726Z" transform="translate(-1097.863 -1414.083)" fill="#97e9f7"/>
            </g>
            <path id="Trazado_68035" data-name="Trazado 68035" d="M1084.065,1435.088c-.184.321-.067,4.483.433,5.325.331.557,2.026,2.309,3.13,2.333a17.293,17.293,0,0,0,4.918-1.565,8,8,0,0,0,.537-3.906,9.776,9.776,0,0,0-3.059-3.856C1089.513,1433.437,1084.344,1434.6,1084.065,1435.088Z" transform="translate(-1072.71 -1430.682)" fill="#49ccea"/>
          </g>
        </g>
        <g id="Grupo_26528" data-name="Grupo 26528" transform="translate(14.823)">
          <g id="Grupo_26518" data-name="Grupo 26518" transform="translate(12.279 19.013)">
            <path id="Trazado_68036" data-name="Trazado 68036" d="M847.522,763.3c1.2,4.476,5.751,17.395,7.3,25.168,2.533,12.737,10.5,40.673-14.085,56.387-2.142,1.369-8.923,4.277-14.912,4.1-4.524-.136-10.381-.865-14.938-6.13-5.6-6.468-9.686-13.384-14.042-23.116-2.462-5.5-6.507-20.884-7.7-25.36s4.091-23.013,5.292-26.751,19.664-10.619,23.125-13.091S847.522,763.3,847.522,763.3Z" transform="translate(-788.963 -754.147)" fill="#ffc599"/>
            <path id="Trazado_68037" data-name="Trazado 68037" d="M896.87,832.907l.451,10.842,1.407,11.869,1.033,3.715s2.347,3.423,3.574,3.67c.417.084,2.408-5.71,2.016-11.239-.227-3.206-1.012-8.261-.127-8.729.774-.409,8.429-.616,14.819-1.436a92.034,92.034,0,0,0,13.984-2.766c1.837-.625,6.037-2.277,7.106-3.9.578-.876.055-3.514.055-3.514Z" transform="translate(-881.594 -820.483)" fill="url(#linear-gradient-8)"/>
            <path id="Trazado_68038" data-name="Trazado 68038" d="M850.467,1180.935l1.441.126a32.328,32.328,0,0,1-.222,3.3c-.962,4.75-3.651,8.462-5.251,6.269a31.8,31.8,0,0,1-2.568-5.449l2.838-3.148Z" transform="translate(-836.095 -1120.517)" fill="url(#linear-gradient-9)"/>
          </g>
          <g id="Grupo_26519" data-name="Grupo 26519">
            <path id="Trazado_68039" data-name="Trazado 68039" d="M731.817,657.57c4.4,1.106,12.48,1.276,21.3.4,4.632-.46,12.81-1.282,20.085-4.6,8.026-3.663,11.223-9.093,12.027-16.521.573-5.294-2.289-11.363-3.962-10.15a21.265,21.265,0,0,1-4.882,3.055c.274-2.839-1.6-9.536-3.768-8.045-10.221,7.037-15.83,5.583-28.084,5.607-9.934.02-26.753,4.4-31.128,14.6-1.181,2.752-1.056,3.553-.907,4.259a6.38,6.38,0,0,0-3.989,1.761c-2.347,1.914-8.683,11.177-5.317,20.852,2.849,8.19,8.064,16.14,11.021,21.775,3.745,7.139,5.556,15.184,7.25,15.594,2.722.659,8.085-3.235,10.162-7.4a43.536,43.536,0,0,0,4.856-19.457c-.052-6.4-1.176-16.588-5.013-21.211C730.472,656.889,730.928,657.346,731.817,657.57Z" transform="translate(-702.229 -621.26)" fill="#493004"/>
            <path id="Trazado_68040" data-name="Trazado 68040" d="M781.857,640.232c3.4-10.2,21.07-14.616,30.917-14.635,12.254-.024,18.06,1.444,28.281-5.593,1.6-1.1,3.988,3.531,3.688,8.3-.076,1.2-1.674,4.26-6.787,5.3-9.538,1.937-28.039-5.687-46.051,2.592C785.683,639.049,781.384,641.651,781.857,640.232Z" transform="translate(-770.554 -619.841)" fill="#6b4917"/>
          </g>
          <g id="Grupo_26527" data-name="Grupo 26527" transform="translate(19.703 38.898)">
            <path id="Trazado_68041" data-name="Trazado 68041" d="M1012.881,913.081c-1.987.085-8.789,4.581-10.331,6.012a25.77,25.77,0,0,0-4.736,7.635c-.757,3.006,2.211,11.867,4.331,14.328,2,2.326,12.507-2.679,17.26-3.846,4.517-1.109,13.632-2.164,14.707-2.887,1.506-1.014.554-6.384-.193-9.913s-2.073-8.862-4.239-10.576c-2.575-2.037-10.074-2.251-11.213-2.147-1.734.159-.05,5.008.419,7.2.168.784-2.9,1.362-3,.892C1015.3,917.1,1014.1,913.028,1012.881,913.081Z" transform="translate(-975.57 -909.251)" fill="url(#linear-gradient-10)"/>
            <g id="Grupo_26526" data-name="Grupo 26526">
              <g id="Grupo_26521" data-name="Grupo 26521" transform="translate(0 21.368)">
                <g id="Grupo_26520" data-name="Grupo 26520">
                  <path id="Trazado_68042" data-name="Trazado 68042" d="M848.7,1045.674c-3.544.489-6.773,2.961-7.222,6.241a10.067,10.067,0,0,0,1.372,6.086,14.457,14.457,0,0,0,6.356,6.635,6.2,6.2,0,0,0,6.116-.174,7.859,7.859,0,0,0,4.1-5.062c.476-3.23-.835-7.456-1.876-10.524C857.188,1047.823,854,1044.943,848.7,1045.674Z" transform="translate(-841.41 -1045.557)" fill="#ffc599"/>
                </g>
                <path id="Trazado_68043" data-name="Trazado 68043" d="M885.126,1069.29c-1.322-1.31-4.218-.819-5.864.586s-2.089,3.983-1.309,6.451c.7,2.2,3.032,3.61,5.328,3.88,1.706.2,3.445-.356,4.025-1.972a9,9,0,0,0,.092-4.375A9.267,9.267,0,0,0,885.126,1069.29Z" transform="translate(-872.459 -1065.274)" fill="url(#linear-gradient-11)"/>
              </g>
              <path id="Trazado_68044" data-name="Trazado 68044" d="M1128.387,957.053c1.51,5.272,2.411,10.75,5.007,15.5,1.881,3.439,6.392,4.3,7,6.546.505,1.859-2.468,4.2-5.18,5.243-.659.253-2.016.777-3.815-1.883-1.156-1.71-4.839-17.339-5.937-24.656C1125.359,957.086,1128.188,956.359,1128.387,957.053Z" transform="translate(-1085.251 -947.973)" fill="url(#linear-gradient-12)"/>
              <g id="Grupo_26525" data-name="Grupo 26525" transform="translate(23.286)">
                <g id="Grupo_26522" data-name="Grupo 26522" transform="translate(23.155 10.414)">
                  <ellipse id="Elipse_1915" data-name="Elipse 1915" cx="3.884" cy="4.957" rx="3.884" ry="4.957" transform="matrix(0.978, -0.208, 0.208, 0.978, 0, 1.618)" fill="#f9e4e1"/>
                  <ellipse id="Elipse_1916" data-name="Elipse 1916" cx="1.545" cy="1.683" rx="1.545" ry="1.683" transform="matrix(0.977, -0.211, 0.211, 0.977, 4.498, 4.175)" fill="#2e1812"/>
                </g>
                <g id="Grupo_26523" data-name="Grupo 26523" transform="translate(7.871 13.72)">
                  <ellipse id="Elipse_1917" data-name="Elipse 1917" cx="3.884" cy="4.957" rx="3.884" ry="4.957" transform="translate(0 1.618) rotate(-12.025)" fill="#f9e4e1"/>
                  <ellipse id="Elipse_1918" data-name="Elipse 1918" cx="1.545" cy="1.683" rx="1.545" ry="1.683" transform="translate(4.568 4.097) rotate(-12.191)" fill="#2e1812"/>
                </g>
                <g id="Grupo_26524" data-name="Grupo 26524">
                  <path id="Trazado_68045" data-name="Trazado 68045" d="M1020.517,916.944a29.335,29.335,0,0,0-7.228,2.644,24,24,0,0,0-5.256,3.4c-.419.375-1.347,1.746-1.732,1.374a.792.792,0,0,1-.2-.3,3.145,3.145,0,0,1-.126-1.785,5.3,5.3,0,0,1,1.057-1.817c2.89-3.3,7.959-6.3,11.313-6.995a1.541,1.541,0,0,1,1.27.185,5.3,5.3,0,0,1,1.833,1.917A1.126,1.126,0,0,1,1020.517,916.944Z" transform="translate(-1005.9 -910.746)" fill="#722916"/>
                  <path id="Trazado_68046" data-name="Trazado 68046" d="M1144.146,899.32a12.171,12.171,0,0,1,4.753-1.213c3.379-.143,5.114,1.4,5.207.894a1.257,1.257,0,0,0,.015-.358,4.256,4.256,0,0,0-.482-1.625,3.523,3.523,0,0,0-1.131-1.086c-2.576-1.5-6.238-1.7-8.263-.7a1.1,1.1,0,0,0-.629.772,7.885,7.885,0,0,0-.4,2.56C1143.281,899.2,1143.751,899.5,1144.146,899.32Z" transform="translate(-1123.769 -894.611)" fill="#722916"/>
                </g>
              </g>
            </g>
          </g>
          <path id="Trazado_68047" data-name="Trazado 68047" d="M1086.734,1212.056a27.663,27.663,0,0,1-14.994-1.032c-.765-.283-1.093,1.609-.4,1.926,2.892,1.327,11.714,1.891,15.124.664C1087.153,1213.365,1086.734,1212.056,1086.734,1212.056Z" transform="translate(-1018.761 -1127.309)" fill="#d15050"/>
        </g>
      </g>
    </g>
  </g>
</svg>
