<svg xmlns="http://www.w3.org/2000/svg" width="388" height="333.739" viewBox="0 0 388 333.739">
  <g id="Grupo_27394" data-name="Grupo 27394" transform="translate(-853 -14820.713)">
    <g id="Grupo_27393" data-name="Grupo 27393" transform="translate(870 14816.165)">
      <g id="Grupo_27385" data-name="Grupo 27385" transform="translate(35.009 4.548)">
        <path id="Trazado_69517" data-name="Trazado 69517" d="M134.454,286.415c-.275-.035-.542-.054-.812-.077.067-.688.091-1.187.1-1.432a45.116,45.116,0,0,0,7.241-6.139,10.124,10.124,0,0,0,2.482-9.106c-1.391-6.361-4.448-17.706-9.728-24.905a25.79,25.79,0,0,0-9.433-8.2,57.186,57.186,0,0,0-15.891-6.38v-3.136c8.126-.719,14.833-2.752,19.465-6.853A38.66,38.66,0,0,0,139.035,203.4c3.146,1.132,6.506-.665,8.933-5.882,2.731-5.871,2.367-12.153-2.595-12.972a4.466,4.466,0,0,0-2.738.437v-.007l0,0a32.376,32.376,0,0,0,1.772-24.692c-7.285-22.087-25.209-27.868-38.045-28.331,0,0,4.943-2.949,3.354-4.857-1.735-2.081-6.938,1.157-8.9,4.973-1.966-3.816-7.169-7.054-8.9-4.973-1.589,1.908,3.353,4.857,3.353,4.857-12.836.463-30.759,6.244-38.044,28.331a32.373,32.373,0,0,0,1.772,24.692l0,0v.007a4.464,4.464,0,0,0-2.737-.437c-4.962.82-5.326,7.1-2.595,12.972,2.426,5.217,5.787,7.014,8.933,5.882a38.66,38.66,0,0,0,11.158,16.788c4.632,4.1,11.339,6.135,19.465,6.853v3.136a57.186,57.186,0,0,0-15.891,6.38,25.79,25.79,0,0,0-9.433,8.2c-5.28,7.2-8.337,18.544-9.728,24.905a10.123,10.123,0,0,0,2.482,9.106,45.157,45.157,0,0,0,7.241,6.139c.007.245.03.744.1,1.432-.269.023-.538.042-.812.077-14.018,1.794-15.748,15.57-11.574,22.443,5.1,8.4,14.6,13.375,32.551,19.187,0,0,.461.626,1.157,1.554-.489,1.788-.232,4.506,1.673,5.578a3.764,3.764,0,0,0,3.111.571c.257.309.5.6.726.857,0,0,1.371,3.6,5.992,2.89,4.622.705,5.992-2.89,5.992-2.89.224-.255.47-.548.726-.857a3.765,3.765,0,0,0,3.111-.571c1.9-1.072,2.162-3.79,1.673-5.578.7-.928,1.157-1.554,1.157-1.554,17.953-5.812,27.449-10.786,32.551-19.187C150.2,301.986,148.471,288.21,134.454,286.415Z" transform="translate(-51.972 -44.336)" fill="#b3c4e5" opacity="0.5" style="mix-blend-mode: multiply;isolation: isolate"/>
        <path id="Trazado_69518" data-name="Trazado 69518" d="M327.071,213.9c-6.929-15.946-18.089-32.483-18.089-32.483-3.4-15.12-12.889-21.843-16.423-23.874v-.013l-.067-.027c-.8-.459-1.283-.665-1.283-.665l-.052.146-4.571-1.776a36.549,36.549,0,0,0,15.435-19.886c8.888-26.184-6.182-43.821-8.808-72.7a79.954,79.954,0,0,0-1.068-14.978C283.031-8.837,226.512,6.427,226.512,6.427s-25.789-8.673-42.284,17.665a54.824,54.824,0,0,0-8.634,30.169h0c0,.04,0,.08.007.121.021,1.384.094,2.715.205,3.987,1.163,35.124-16.154,48.75-1.673,63.231,9.442,9.442,22.157,14.445,30.311,18.97a.413.413,0,0,0,.054.207c1.49,2.492,3.152,5.231,4.995,7.843l-7.4,3.66s-12.006,0-22.979,18.583a111.7,111.7,0,0,0-20.24,22.235,2,2,0,0,0-.234,1.744c.2.593.5,1.444.919,2.47l-.218.263c-11.933-11.838-26.827-16.3-34.786-23.338,0,0,4.17-11.633,3.291-19.809s-1.578-10.175-1.935-14.363.8-7.769-.494-9.033-6.4.178-7.133,6.658.233,11.348-.392,13.692a16.383,16.383,0,0,1-4.267-4.036c-1.772-2.508-7.839-14.55-10.776-18.884s-8.279-10.021-9.954-9.236-1.927,4.29.812,8.456,8.153,14.73,8.153,14.73-6.511-11.066-8.158-13.722-5.829-11.422-8.835-9.561.645,8.655,2.7,12.33,5.621,11.762,5.621,11.762-4.84-7.978-5.815-9.729-3.212-8.114-5.461-8.152-2.393,5.142.171,10.82,6.488,13.548,8.314,16.692c0,0-4.3-5.821-5.491-7.416s-4.734-7.658-6.4-7.072c-1.609.564-1.418,4.025,2.232,10.819s6.382,11.969,6.382,11.969A42.525,42.525,0,0,0,95.2,176.1c5.784,6.566,11.079,7.994,11.079,7.994a130.665,130.665,0,0,0,49.53,42.336,13.6,13.6,0,0,0,15.383-2.535c2.076-2.019,4.141-4.081,6.186-6.155a31.305,31.305,0,0,0,4.6,1.884,1.969,1.969,0,0,0,1.858-.378,53.649,53.649,0,0,0,10.918-13.263,70.6,70.6,0,0,0-1.021,7.9c-.094,1.48-.141,3.077-.154,4.741a14.737,14.737,0,0,0,1.84,28.948c.009.084.019.17.028.251.016.136.03.263.044.391.011.1.021.188.031.28.014.123.028.243.041.358l.018.154c.032.276.061.527.088.748v0h0c.091.767.145,1.2.145,1.2s-5.437,32.1-7.493,61.046c0,0,10.642,7.889,32.991,9.365,48.047,3.174,73.966-9.365,73.966-9.365-1.648-10.736-4.454-27.236-6.894-41.312h0l-.035-.2q-.1-.587-.2-1.169l0-.026-.05-.285c14.885-3.463,26.435-8.443,33.971-12.816a9.815,9.815,0,0,0,4.869-9.248,123.491,123.491,0,0,0-6.095-28.236,41.331,41.331,0,0,0,6.155-4.421A.344.344,0,0,0,327.071,213.9Zm-31.3,19.023a73.856,73.856,0,0,0-11.23,4.578c.483-3.479,1.144-8.174,1.924-13.556,1.151,3.84,2.018,6.025,2.318,6.743a.347.347,0,0,0,.4.2c1.823-.43,3.561-.878,5.236-1.337C295.274,231.7,295.769,232.919,295.769,232.919Z" transform="translate(-60.316 -4.548)" fill="#b3c4e5" opacity="0.5" style="mix-blend-mode: multiply;isolation: isolate"/>
      </g>
      <g id="Grupo_27387" data-name="Grupo 27387" transform="translate(56.968 13.806)">
        <path id="Trazado_69519" data-name="Trazado 69519" d="M112.474,246.389s-5.14-1.387-10.755-7.762a41.288,41.288,0,0,1-7.848-14.505s-2.653-5.025-6.2-11.621-3.73-9.957-2.168-10.5c1.622-.569,5.063,5.317,6.219,6.866s5.33,7.2,5.33,7.2c-1.773-3.053-5.584-10.694-8.072-16.206s-2.35-10.541-.166-10.5,4.356,6.215,5.3,7.914,5.645,9.446,5.645,9.446-3.462-7.852-5.458-11.42-5.538-10.164-2.62-11.971,6.978,6.705,8.577,9.283,7.921,13.322,7.921,13.322-5.256-10.256-7.915-14.3-2.415-7.448-.789-8.21,6.814,4.76,9.664,8.967,8.741,15.9,10.462,18.334a15.9,15.9,0,0,0,4.142,3.918c.608-2.277-.329-7,.381-13.294s5.664-7.692,6.926-6.464.134,4.705.48,8.77,1.024,6.007,1.878,13.944-3.195,19.231-3.195,19.231c7.728,6.836,22.188,11.166,33.774,22.659,0,0,13.723-16.611,29.472-33.632L225.5,220.7c.072,8.047-6.188,16.427-15.72,27.484-8.211,9.525-21.085,24-34.279,36.841a13.2,13.2,0,0,1-14.935,2.461A126.863,126.863,0,0,1,112.474,246.389Z" transform="translate(-84.572 -72.075)" fill="#f1d6b8"/>
        <path id="Trazado_69520" data-name="Trazado 69520" d="M150.342,263.816c-3.621-6.541-10.126-10.922-16.2-14.971a.17.17,0,0,1,0-.291,36.772,36.772,0,0,0,6.869-4.718,61.428,61.428,0,0,1-10.8-7.015s4.049-11.294,3.195-19.231-1.532-9.879-1.879-13.944.782-7.542-.48-8.77-6.215.173-6.926,6.464.227,11.017-.381,13.294a15.9,15.9,0,0,1-4.142-3.918c-1.72-2.434-7.611-14.126-10.462-18.334s-8.038-9.729-9.664-8.967-1.87,4.164.789,8.21,7.915,14.3,7.915,14.3-6.322-10.743-7.921-13.322-5.66-11.09-8.577-9.283.626,8.4,2.62,11.971,5.458,11.42,5.458,11.42-4.7-7.746-5.645-9.446-3.118-7.878-5.3-7.914-2.323,4.993.166,10.5,6.3,13.153,8.072,16.206c0,0-4.175-5.652-5.33-7.2s-4.6-7.435-6.219-6.866c-1.562.548-1.376,3.908,2.168,10.5s6.2,11.621,6.2,11.621a41.288,41.288,0,0,0,7.848,14.505c5.616,6.375,10.755,7.762,10.755,7.762a127.46,127.46,0,0,0,43.52,38.773C155.081,277.889,153.912,270.265,150.342,263.816Z" transform="translate(-84.572 -72.075)" fill="#f1d6b8" opacity="0.5" style="mix-blend-mode: multiply;isolation: isolate"/>
        <path id="Trazado_69521" data-name="Trazado 69521" d="M231.841,244.084c-15.748,17.021-29.472,33.632-29.472,33.632-.073-.073-.149-.139-.222-.211q.158.547.313,1.092c2,7.021,3.663,14.276,7,20.818a30.078,30.078,0,0,0,3.115,4.956,13.292,13.292,0,0,0,1.3-1.105c13.195-12.837,26.067-27.316,34.279-36.841,9.532-11.057,15.792-19.438,15.72-27.484Z" transform="translate(-122.948 -90.31)" fill="#f1d6b8" opacity="0.5" style="mix-blend-mode: multiply;isolation: isolate"/>
        <path id="Trazado_69522" data-name="Trazado 69522" d="M243.607,267.607V231.22s-11.655,0-22.31,18.042a108.46,108.46,0,0,0-19.652,21.588,1.941,1.941,0,0,0-.226,1.693c1.295,3.912,7.243,19.151,22.657,24.058a1.914,1.914,0,0,0,1.8-.367C228.682,293.894,237.915,285.162,243.607,267.607Z" transform="translate(-122.677 -87.79)" fill="#c3afd7"/>
        <path id="Trazado_69523" data-name="Trazado 69523" d="M209.888,289.48a26.794,26.794,0,0,0,17.9,19.661" transform="translate(-125.474 -106.806)" fill="none" stroke="#a491bd" stroke-linecap="round" stroke-linejoin="round" stroke-width="1.5"/>
        <path id="Trazado_69524" data-name="Trazado 69524" d="M222.481,89.944c2.666,37.086-16.012,50.782-1.417,65.377s37.251,18.265,37.251,26.535S280.565,216.4,300.549,216.4c0,0-7.209-7.873,7.959-16.735s30.2-11.79,36.723-31.02c9.43-27.783-8.924-45.652-8.924-78.7Z" transform="translate(-127.282 -41.678)" fill="#3f3543"/>
        <path id="Trazado_69525" data-name="Trazado 69525" d="M345.052,173.376c-4.164,1.578-8.725,1.39-13.067.789-3.906-.54-7.815-1.761-10.69-4.584-3.549-3.485-5.24-8.867-5.551-13.719a28.7,28.7,0,0,1,.942-9.05c.82-3.152,2.279-6.014,3.392-9.058a75.106,75.106,0,0,1,3.245-8.477c1.5-2.938,3.086-5.812,4.3-8.888,2.122-5.392,3.664-12.468.387-17.729a9.838,9.838,0,0,0-5.549-4.422,6.945,6.945,0,0,0-7,2.414.17.17,0,0,1-.282-.074c-.662-2.808-1.149-5.655-1.8-8.467-.164-.711-.331-1.439-.515-2.168H229.038c-.825,1.233-1.65,2.465-2.493,3.687-.664.961-.872,1.274-1.59,2.16a103.106,103.106,0,0,1-2.114,21.732c-.136,2.764-.606,5.268-.612,8.031-.015,7.678,1.146,15.45,5.454,21.966,3.411,5.16,8.147,9.2,12.371,13.657a39.7,39.7,0,0,1,7.179,9.709c7.561,3.811,13.3,6.809,13.3,10.97,0,8.269,22.251,34.539,42.234,34.539,0,0-7.209-7.873,7.959-16.735,13.9-8.121,27.675-11.268,34.906-26.533C345.439,173.21,345.25,173.3,345.052,173.376Z" transform="translate(-129.502 -41.678)" fill="#3f3543" opacity="0.5" style="mix-blend-mode: multiply;isolation: isolate"/>
        <path id="Trazado_69526" data-name="Trazado 69526" d="M249.344,231.585v.051c0,2.932-.224,5.866-.508,8.782-.3,3.106-.692,6.207-1.215,9.283a34.476,34.476,0,0,1-1.54,6.6c-.434,1.128-1.1,2.176-1.64,3.256-.765,1.526-1.494,3.068-2.21,4.618-1.545,3.34-3.029,6.708-4.584,10.043-3.12,6.694-6.5,13.4-11.175,19.17-.138.17-.28.335-.421.5a30.442,30.442,0,0,0,6.1,2.713,1.914,1.914,0,0,0,1.8-.367c2.8-2.34,12.037-11.071,17.727-28.627V231.22A11.044,11.044,0,0,0,249.344,231.585Z" transform="translate(-130.75 -87.79)" fill="#c3afd7" opacity="0.5" style="mix-blend-mode: multiply;isolation: isolate"/>
        <path id="Trazado_69527" data-name="Trazado 69527" d="M331.329,215.056,309.77,206.3V182.382H285.658V206.3L264.1,217.079V266.49h67.233Z" transform="translate(-143.168 -71.85)" fill="#f1d6b8"/>
        <path id="Trazado_69528" data-name="Trazado 69528" d="M315.337,221.243c-1.189,2.154-2.454,4.268-3.774,6.345-1.514,2.383-3.163,4.673-4.675,7.055a48.877,48.877,0,0,1-4.461,6.426,9.509,9.509,0,0,1-5.3,3.069,29.391,29.391,0,0,1-7.182.65c-1.847-.038-3.979-.085-5.46-1.351-1.365-1.167-1.609-3.06-1.764-4.743-.536-5.806-1.468-11.581-1.669-17.411L264.1,229.763v49.411H331.33V227.74Z" transform="translate(-143.168 -84.534)" fill="#f1d6b8" opacity="0.5" style="mix-blend-mode: multiply;isolation: isolate"/>
        <path id="Trazado_69529" data-name="Trazado 69529" d="M298.453,202.061a20.167,20.167,0,0,0,7.03-2.525,53.649,53.649,0,0,0,6.943-4.6c2.713-2.074,5.272-4.328,7.791-6.626v-5.929H296.106v19.657A8.959,8.959,0,0,0,298.453,202.061Z" transform="translate(-153.615 -71.85)" fill="#f1d6b8" opacity="0.5" style="mix-blend-mode: multiply;isolation: isolate"/>
        <path id="Trazado_69530" data-name="Trazado 69530" d="M335.771,71.366c0-25.323-17.7-46.911-49.611-48.181-27.367-1.089-56.805,15.132-55.114,48.181,1.033,20.2-.643,33.886,1.349,41.219a22.588,22.588,0,0,0,6.714,10.907c4.958,4.453,16.46,13.853,21.869,18.251a8.921,8.921,0,0,0,6.889,1.894c26.065-3.714,42.457-19.277,46.334-26.78C314.2,116.857,335.771,113.621,335.771,71.366Z" transform="translate(-132.357 -19.872)" fill="#f1d6b8"/>
        <path id="Trazado_69531" data-name="Trazado 69531" d="M286.16,23.185c-27.367-1.089-56.805,15.132-55.114,48.181.027.53.045,1.037.069,1.557.554-.71,1.065-1.453,1.55-2.193,1.355-2.068,2.544-4.24,3.722-6.411,2.23-4.1,4.323-8.553,7.5-12.033a8.415,8.415,0,0,1,4.027-2.73,5.336,5.336,0,0,1,4.436,1.12c.372.277.283.154.63-.185a7.071,7.071,0,0,1,.789-.664,7.251,7.251,0,0,1,2.01-1.02,10.17,10.17,0,0,1,4.554-.3,18.1,18.1,0,0,1,8.785,3.934c5.693,4.635,8.776,11.573,12.051,17.951a58.355,58.355,0,0,0,5.728,9.476,34.893,34.893,0,0,0,7.476,6.7c4.973,3.521,10.679,6.586,14,11.9,4.049,6.479,3.716,15.259.944,22.147a29.048,29.048,0,0,1-3.125,5.745,36.645,36.645,0,0,0,8.006-9.5s21.571-3.236,21.571-45.491C335.771,46.043,318.071,24.455,286.16,23.185Z" transform="translate(-132.357 -19.872)" fill="#f1d6b8" opacity="0.5" style="mix-blend-mode: multiply;isolation: isolate"/>
        <ellipse id="Elipse_1961" data-name="Elipse 1961" cx="4.5" cy="6.723" rx="4.5" ry="6.723" transform="translate(99.086 75.707)" fill="#e2b8ad"/>
        <path id="Trazado_69532" data-name="Trazado 69532" d="M249.993,163.017a22.8,22.8,0,0,0,26.893,0" transform="translate(-138.564 -65.529)" fill="none" stroke="#d0ae91" stroke-linecap="round" stroke-linejoin="round" stroke-width="1.5"/>
        <path id="Trazado_69533" data-name="Trazado 69533" d="M257.987,105.532s.732,15.027-4.347,25.61l5.715,3.6" transform="translate(-139.755 -46.766)" fill="none" stroke="#d0ae91" stroke-linecap="round" stroke-linejoin="round" stroke-width="1.5"/>
        <circle id="Elipse_1962" data-name="Elipse 1962" cx="6.723" cy="6.723" r="6.723" transform="translate(150.389 82.43) rotate(-45)" fill="#e2b8ad"/>
        <ellipse id="Elipse_1963" data-name="Elipse 1963" cx="4.482" cy="7.052" rx="4.482" ry="7.052" transform="translate(143.608 59.631)" fill="#2c262f"/>
        <line id="Línea_462" data-name="Línea 462" y1="3.558" x2="4.217" transform="translate(150.528 59.73)" fill="none" stroke="#2c262f" stroke-linecap="round" stroke-linejoin="round" stroke-width="1.25"/>
        <path id="Trazado_69534" data-name="Trazado 69534" d="M291.212,96.233s7.414-8.037,17.792,0" transform="translate(-152.018 -42.565)" fill="none" stroke="#2c262f" stroke-linecap="round" stroke-linejoin="round" stroke-width="2"/>
        <ellipse id="Elipse_1964" data-name="Elipse 1964" cx="3.174" cy="7.052" rx="3.174" ry="7.052" transform="translate(105.683 59.631)" fill="#2c262f"/>
        <line id="Línea_463" data-name="Línea 463" x2="2.986" y2="3.558" transform="translate(104.145 59.73)" fill="none" stroke="#2c262f" stroke-linecap="round" stroke-linejoin="round" stroke-width="1.25"/>
        <path id="Trazado_69535" data-name="Trazado 69535" d="M249.422,96.233s-5.249-8.037-12.6,0" transform="translate(-134.266 -42.565)" fill="none" stroke="#2c262f" stroke-linecap="round" stroke-linejoin="round" stroke-width="2"/>
        <path id="Trazado_69536" data-name="Trazado 69536" d="M251.648,45.522s6.681-6.377,17.143.191c10.621,6.667,16.654,32.308,37.815,44.415.953,8.8,7.936,19.068,2.622,29.889,0,0,37.63-11.578,29.833-59.892C330.211,5.3,275.338,20.116,275.338,20.116S250.3,11.7,234.285,37.267c-15.737,25.129-4.5,48.385-4.5,48.385s.626-9.591-.4-15.866a111.733,111.733,0,0,0,6.147-15.955C238.128,44.73,246.789,41,251.648,45.522Z" transform="translate(-130.7 -18.291)" fill="#3f3543"/>
        <path id="Trazado_69537" data-name="Trazado 69537" d="M239.686,60.313c-3.4,2.635-5.963,6.269-8.518,9.682-1.26,1.683-2.589,3.318-3.876,4.981-.426.55-.861,1.11-1.312,1.663a50.354,50.354,0,0,0,3.808,22.654s.625-9.591-.4-15.866a111.736,111.736,0,0,0,6.147-15.955,15.613,15.613,0,0,1,4.449-7.386C239.884,60.161,239.784,60.238,239.686,60.313Z" transform="translate(-130.701 -31.933)" fill="#3f3543" opacity="0.5" style="mix-blend-mode: multiply;isolation: isolate"/>
        <path id="Trazado_69538" data-name="Trazado 69538" d="M369.194,118.225c2.122-5.392,3.664-12.468.387-17.729a9.838,9.838,0,0,0-5.549-4.422,6.945,6.945,0,0,0-7,2.414.17.17,0,0,1-.282-.074c-.662-2.808-1.149-5.655-1.8-8.467a28.451,28.451,0,0,0-2.094-6.638c.084.408.139.822.187,1.238.136,1.19.293,2.376.457,3.563q.5,3.6.961,7.2a67.546,67.546,0,0,1,.843,12.627,41.786,41.786,0,0,1-2.36,11.157,63.637,63.637,0,0,1-2.395,6.1c1.264,5.122,1.764,10.51-.954,16.045a42.521,42.521,0,0,0,12.616-7.257,52.536,52.536,0,0,1,2.677-6.868C366.395,124.175,367.983,121.3,369.194,118.225Z" transform="translate(-171.077 -39.513)" fill="#3f3543" opacity="0.5" style="mix-blend-mode: multiply;isolation: isolate"/>
        <path id="Trazado_69539" data-name="Trazado 69539" d="M350.871,122.545a7.628,7.628,0,0,1,1.081-3.9c1.67-2.8,5.172-7.42,9.789-6.657,7.181,1.186,7.709,10.278,3.755,18.777s-9.619,10.739-14.626,7.709Z" transform="translate(-171.49 -48.845)" fill="#f1d6b8"/>
        <path id="Trazado_69540" data-name="Trazado 69540" d="M366.128,121.976s-1.844-5.534-6.483-3.039c-5.466,2.941-6.034,15.425-6.034,15.425" transform="translate(-172.384 -50.931)" fill="none" stroke="#d0ae91" stroke-linecap="round" stroke-linejoin="round" stroke-width="1.5"/>
        <path id="Trazado_69541" data-name="Trazado 69541" d="M325.73,287.566V255.151s-21.539,2.24-34.451,2.24c-11.676,0-14.819-2.24-14.819-2.24v32.415Z" transform="translate(-147.203 -95.601)" fill="#fff"/>
        <path id="Trazado_69542" data-name="Trazado 69542" d="M276.275,391.469c46.647,3.082,71.811-9.092,71.811-9.092-3.277-21.347-11.268-66.169-11.268-66.169s2.967-22.1,6.368-43.468c2.621-16.467,2.265-40.34,2.265-40.34l-33.779-13.129a.574.574,0,0,0-.728.3c-11.185,24.078-30.293,40.068-30.293,40.068-7.02-15.884-6.65-35.07-6.45-39.578a.577.577,0,0,0-.833-.543l-17.638,8.727,1.887,25.021s-7.276,20.545-8.118,33.849,2.021,36,2.021,36-5.278,31.161-7.275,59.268C244.245,382.377,254.577,390.035,276.275,391.469Z" transform="translate(-136.688 -83.877)" fill="#c3afd7"/>
        <path id="Trazado_69543" data-name="Trazado 69543" d="M327.145,226.392c-13.512,30.386-35.743,45.037-35.743,45.037s-10.167-10.9-10.607-42.547" transform="translate(-148.618 -86.214)" fill="none" stroke="#a491bd" stroke-linecap="round" stroke-linejoin="round" stroke-width="1.5"/>
        <path id="Trazado_69544" data-name="Trazado 69544" d="M308.95,49.392a16.282,16.282,0,0,0,1.5,5.134,5.51,5.51,0,0,0,4.182,3.014,5.738,5.738,0,0,0,2.979-.721,9.8,9.8,0,0,0,5.036-6.519c3.169,1.084,5.642,4.155,8.991,4.246a5.6,5.6,0,0,0,5.432-6.225l2.851,2.8a13.48,13.48,0,0,0,4.493,3.326c1.76.656,4,.422,5.161-1.053,1.875-2.379-.077-5.74-.509-8.737" transform="translate(-157.807 -26.898)" fill="none" stroke="#fff" stroke-miterlimit="10" stroke-width="1" opacity="0.5" style="mix-blend-mode: overlay;isolation: isolate"/>
        <g id="Grupo_27386" data-name="Grupo 27386" transform="translate(112.661 138.781)" opacity="0.5" style="mix-blend-mode: multiply;isolation: isolate">
          <path id="Trazado_69545" data-name="Trazado 69545" d="M283.747,237.788c-.211-1.944-.36-3.794-.46-5.51-2.6-1.742-5.067-4.714-7.305-7.959l-4.261,2.108C275.062,231.343,279.049,235.982,283.747,237.788Z" transform="translate(-258.317 -224.319)" fill="#c3afd7"/>
          <path id="Trazado_69546" data-name="Trazado 69546" d="M343.866,349.336c-2.482-14.322-4.575-26.06-4.575-26.06s2.967-22.1,6.368-43.468c2.242-14.082,2.306-33.567,2.277-38.92l-.453,1.283c-.013-.007-.026-.016-.04-.023l-3.917,11.243-8.1,17.37c3.415,25.808-2.665,51.582-10.277,55.819-3.812-13.069-17.867-28.318-29.713-41.159-1.914-2.075-3.5-3.792-5-5.456a33.508,33.508,0,0,1-7.076-13.459c-.149.128-.229.2-.229.2a76.122,76.122,0,0,1-5.315-19.212,55.923,55.923,0,0,0-.4,12.521c.783,9.222,3.988,17,9.527,23.12,1.543,1.7,3.186,3.486,4.925,5.373l.106.114c11.3,12.249,26,28.192,28.949,40.247a45.866,45.866,0,0,1-12.588,4.8s-9.779-10.716-13.495-10.948c-.677-.042-1.649-.069-2.8-.085-2.167-1.178-4.484-2.269-5.676-2.3-2.613-.058-7.548.755-10.1,0s-5.4-1.858-6.1-.523a1.834,1.834,0,0,0-.18.773c-.491-.362-1.006-.728-1.559-1.1l.109-.189a.314.314,0,0,0-.1-.415c-.24-.162-.467-.308-.7-.459a14.231,14.231,0,0,0-15.907-17.88c.074,11.044,1.561,24.493,2.03,28.468.022,0,.042,0,.064,0a14.284,14.284,0,0,0,11.2-5.41c.129.086.254.166.387.255a.312.312,0,0,0,.442-.1l.1-.179q.343.234.665.466a2.154,2.154,0,0,0-.795,2.5,4.673,4.673,0,0,0,2.9,2.09,3.946,3.946,0,0,0,1.683,1.452s-.581,3.193,0,4.529a3.878,3.878,0,0,0,1.394,1.8,6.577,6.577,0,0,0-1.8,2.5c-.232,1.1-.465,3.367.639,3.948a18.373,18.373,0,0,1,1.916,1.161s-1.277,3.716-1.1,5.922,2.265,5.051,14.921,5.109c0,0,7.936,2.952,22.13-1.161A164.15,164.15,0,0,0,343.866,349.336Zm-66.742-2.122c.174-.7.348-1.684.348-1.684a11.716,11.716,0,0,1,3.193,1.684Z" transform="translate(-251.822 -229.727)" fill="#c3afd7"/>
        </g>
      </g>
      <rect id="Rectángulo_26153" data-name="Rectángulo 26153" width="388" height="85.925" transform="translate(-17 252.363)" fill="#d9e3f2"/>
      <g id="Grupo_27388" data-name="Grupo 27388" transform="translate(33.192 252.363)">
        <path id="Trazado_69547" data-name="Trazado 69547" d="M49.643,389.2c1.448,6.8,6.691,11.948,12.612,15.18,5.85,3.192,12.324,4.742,18.484,7.169a15.469,15.469,0,0,1,5.952,3.694c1.772,1.935,3.047,4.293,4.989,6.079a9.146,9.146,0,0,0,8.436,2.1,72.3,72.3,0,0,0,8.659-2.942,17.847,17.847,0,0,0,4.129-1.652,16.241,16.241,0,0,0,2.469-2.229,26.68,26.68,0,0,1,8.518-5.683c1.674-.725,3.378-1.376,5.05-2.1a22.77,22.77,0,0,0,3.2-1.8,58.282,58.282,0,0,0,6-4.459,52.382,52.382,0,0,0,10.734-11.993c2.477-3.949,4.43-8.663,3.817-13.415a12.559,12.559,0,0,0-1.609-4.706h-96.6C50.563,377.052,48.353,383.144,49.643,389.2Z" transform="translate(-49.275 -372.441)" fill="#d9e3f2" opacity="0.5" style="mix-blend-mode: multiply;isolation: isolate"/>
        <path id="Trazado_69548" data-name="Trazado 69548" d="M61.583,394.02c2.625,4.511,7.75,7.309,12.312,9.47,4.95,2.346,10.186,4.258,14.6,7.575,2.289,1.718,4.147,3.91,6.4,5.678a18.773,18.773,0,0,0,8.347,4.05,12.824,12.824,0,0,0,9.256-2.233,68.269,68.269,0,0,0,7.356-5.876,59.29,59.29,0,0,1,6.878-5.183q2.9-1.852,5.651-3.935a60.181,60.181,0,0,0,10.966-10.4c2.8-3.535,5.279-7.815,5.354-12.445a12.9,12.9,0,0,0-3-8.277H63.055a17.4,17.4,0,0,0-3.674,9.354A20.25,20.25,0,0,0,61.583,394.02Z" transform="translate(-52.525 -372.441)" fill="#d9e3f2" opacity="0.5" style="mix-blend-mode: multiply;isolation: isolate"/>
      </g>
      <g id="Grupo_27389" data-name="Grupo 27389" transform="translate(160.081 252.363)">
        <path id="Trazado_69549" data-name="Trazado 69549" d="M344.024,397.337a82.467,82.467,0,0,0,11.36-1.821c3.629-1.955,7.14-4.125,10.565-6.427a87.487,87.487,0,0,0,11.083-8.13c2.5-2.319,4.919-5.189,5.817-8.518h-145.2a93.353,93.353,0,0,1,12.419,2.429c3.844,1.111,8.378,2.752,10.208,6.613,1.125,2.373.73,5.175.747,7.724a20.151,20.151,0,0,0,1.166,6.209c.69,2.091,1.441,4.523,3.577,5.552,2.708,1.305,6.13.292,8.937-.1a31.422,31.422,0,0,1,9.872.662c3.881.7,7.776,1.5,11.742,1.3a90.181,90.181,0,0,0,12.1-1.768c3.914-.742,7.816-1.557,11.752-2.176a79.739,79.739,0,0,1,11.773-1.065C335.974,397.787,340,397.7,344.024,397.337Z" transform="translate(-237.648 -372.441)" fill="#d9e3f2" opacity="0.5" style="mix-blend-mode: multiply;isolation: isolate"/>
        <path id="Trazado_69550" data-name="Trazado 69550" d="M273.848,383.1a18.973,18.973,0,0,0-.544,6.148c.3,2.329,1.96,4.422,3.666,5.944a16.289,16.289,0,0,0,6.457,3.467,37.355,37.355,0,0,0,7.9.977,179.41,179.41,0,0,0,18.087-.2c11.718-.524,23.4-1.425,34.912-3.8a85.843,85.843,0,0,0,16.1-4.607,41.691,41.691,0,0,0,11.969-8.038c3.586-3.327,6.818-7.015,10.2-10.544H274.626C275.884,375.755,274.516,379.823,273.848,383.1Z" transform="translate(-249.258 -372.441)" fill="#d9e3f2" opacity="0.5" style="mix-blend-mode: multiply;isolation: isolate"/>
      </g>
      <g id="Grupo_27390" data-name="Grupo 27390" transform="translate(37.537 92.87)">
        <path id="Trazado_69551" data-name="Trazado 69551" d="M111.4,361.771c-21,0-31.089-15.569-30.361-29.391S88.6,289.248,88.6,289.248a55.518,55.518,0,0,1,15.428-6.194v-4.365h14.745v4.365a55.518,55.518,0,0,1,15.428,6.194s6.834,29.308,7.561,43.131S132.4,361.771,111.4,361.771Z" transform="translate(-63.974 -182.348)" fill="#b08a6b"/>
        <path id="Trazado_69552" data-name="Trazado 69552" d="M121.353,282.312a54.248,54.248,0,0,0,8.573-.473v-3.15H115.181v3A40.583,40.583,0,0,0,121.353,282.312Z" transform="translate(-75.131 -182.348)" fill="#b08a6b" opacity="0.4" style="mix-blend-mode: multiply;isolation: isolate"/>
        <path id="Trazado_69553" data-name="Trazado 69553" d="M141.758,339.38c-.428-8.133-2.97-21.625-4.989-31.356a71.695,71.695,0,0,1-4.044,6.768c-1.993,3.007-4,6-5.912,9.057-1.118,1.787-2.215,3.588-3.228,5.437a21.566,21.566,0,0,0-1.419,2.83,6.038,6.038,0,0,1-.777,1.734c-.663.836-1.962.806-2.928.813-1.555.01-3.1-.034-4.66-.007-2.09.037-4.182.055-6.271-.036a24.344,24.344,0,0,1-5.749-.622,6.55,6.55,0,0,1-3.119-2.519c-.973-1.268-1.865-2.575-2.877-3.815a18.777,18.777,0,0,1-2.8-4.253,9.573,9.573,0,0,1-.709-2.372c-.135-.874-.082-1.763-.29-2.63-.226-.947-.651-1.863-.964-2.786q-.5-1.485-.936-2.994-.872-3.028-1.467-6.128-.605-3.162-.9-6.367c-1.869,8.431-6.118,28.507-6.683,39.244C80.307,353.2,90.4,368.771,111.4,368.771S142.486,353.2,141.758,339.38Z" transform="translate(-63.974 -189.348)" fill="#b08a6b" opacity="0.4" style="mix-blend-mode: multiply;isolation: isolate"/>
        <path id="Trazado_69554" data-name="Trazado 69554" d="M129.639,383.346c12.518-8,12.518-22.7,12.518-22.7.262-.911.58-1.968.851-2.857a1.626,1.626,0,0,0-1.439-2.1c-5.687-.416-21.933-1.541-31.381-1.541S84.5,355.278,78.81,355.694a1.626,1.626,0,0,0-1.439,2.1c.271.889.589,1.946.851,2.857,0,0,0,14.7,12.518,22.7C100.265,389.436,120.113,389.436,129.639,383.346Z" transform="translate(-62.767 -206.979)" fill="#fff"/>
        <path id="Trazado_69555" data-name="Trazado 69555" d="M141.569,355.8c-4.11-.3-13.735-.971-22.323-1.32-.561.753-1.112,1.514-1.66,2.279a5.626,5.626,0,0,1-2.04,2.007c-1.155.583-2.226,1.366-3.424,1.856-2.256.922-4.845-.525-6.743-1.724a14.535,14.535,0,0,1-4.466-4.409c-8.532.351-18.028,1.013-22.1,1.312a1.626,1.626,0,0,0-1.439,2.1c.271.889.589,1.946.851,2.857,0,0,0,14.7,12.518,22.7,9.525,6.089,29.373,6.089,38.9,0,12.518-8,12.518-22.7,12.518-22.7.262-.911.58-1.968.851-2.857A1.626,1.626,0,0,0,141.569,355.8Z" transform="translate(-62.767 -207.086)" fill="#e3e3e3" opacity="0.5" style="mix-blend-mode: multiply;isolation: isolate"/>
        <path id="Trazado_69556" data-name="Trazado 69556" d="M133.353,358.158c6.005-1.674,6.005-9.152,6.005-9.152,12.039-4.2,18.954-9.838,22.549-13.66a9.832,9.832,0,0,0,2.409-8.842c-1.351-6.176-4.318-17.19-9.445-24.18a25.038,25.038,0,0,0-9.158-7.959s-4.515,8.788-3.788,22.178a40.927,40.927,0,0,0,4.023,7.129s-8.1,4.511-14.791,16.588a16.554,16.554,0,0,0-10.476,6.111s-3.537,2.007-4.292,5.674a5.241,5.241,0,0,0,1.746,5.02s-.073,4.365,3.055,3.419a2.636,2.636,0,0,0,3.565,2.182s.481,2.213,2.4,1.528c2.037-.728,1.819-2.255,3.23-3.747A11.587,11.587,0,0,1,133.353,358.158Z" transform="translate(-75.49 -187.465)" fill="#b08a6b"/>
        <path id="Trazado_69557" data-name="Trazado 69557" d="M164.021,340.129a15.535,15.535,0,0,1-1.054,2.315,29.038,29.038,0,0,1-7.778,8.605c-3.873,2.986-8.656,4.386-12.728,7.043a45.862,45.862,0,0,0-6.213,5.111c-.474.445-.959.884-1.411,1.352-.223.231-.444.61-.748.748-.5.224-1.041-.269-1.376-.589a11.586,11.586,0,0,1-1.506-2.226,4.895,4.895,0,0,0-3.069-2.1,9.649,9.649,0,0,1-2.981-1.049,8.593,8.593,0,0,1-1.229-1.085,18.46,18.46,0,0,0-3.245,3.06s-3.537,2.007-4.292,5.674a5.241,5.241,0,0,0,1.746,5.02s-.073,4.365,3.055,3.419a2.636,2.636,0,0,0,3.565,2.182s.481,2.213,2.4,1.528c2.037-.728,1.819-2.255,3.23-3.747a11.587,11.587,0,0,1,2.966-2.29c6.005-1.674,6.005-9.152,6.005-9.152,12.039-4.2,18.954-9.838,22.549-13.66a9.832,9.832,0,0,0,2.409-8.842C164.225,341.026,164.126,340.586,164.021,340.129Z" transform="translate(-75.49 -202.402)" fill="#b08a6b" opacity="0.4" style="mix-blend-mode: multiply;isolation: isolate"/>
        <path id="Trazado_69558" data-name="Trazado 69558" d="M151.623,373.314a70.5,70.5,0,0,0,8.454-3.656,32.672,32.672,0,0,0-6.595,2.5A18.5,18.5,0,0,0,151.623,373.314Z" transform="translate(-87.026 -212.04)" fill="#b08a6b" opacity="0.4" style="mix-blend-mode: multiply;isolation: isolate"/>
        <path id="Trazado_69559" data-name="Trazado 69559" d="M138.57,373.8a18.329,18.329,0,0,1-2.771,2.184,3.853,3.853,0,0,1-4.808-.251c-1.557-1.444-2-3.658-3.548-5.117-1.206-1.134-3.128-1.654-3.924-3.116a18.347,18.347,0,0,0-2.838,2.742s-3.537,2.007-4.292,5.674a5.241,5.241,0,0,0,1.746,5.02s-.073,4.365,3.055,3.419a2.636,2.636,0,0,0,3.565,2.182s.481,2.213,2.4,1.528c2.037-.728,1.819-2.255,3.23-3.747a11.587,11.587,0,0,1,2.966-2.29c5.315-1.482,5.926-7.507,6-8.872Q138.952,373.466,138.57,373.8Z" transform="translate(-75.49 -211.335)" fill="#b08a6b" opacity="0.4" style="mix-blend-mode: multiply;isolation: isolate"/>
        <path id="Trazado_69560" data-name="Trazado 69560" d="M95.513,358.158c-6.006-1.674-6.006-9.152-6.006-9.152-12.039-4.2-18.954-9.838-22.548-13.66a9.828,9.828,0,0,1-2.409-8.842c1.35-6.176,4.318-17.19,9.444-24.18a25.044,25.044,0,0,1,9.158-7.959s4.516,8.788,3.788,22.178a40.927,40.927,0,0,1-4.023,7.129s8.1,4.511,14.79,16.588a16.554,16.554,0,0,1,10.476,6.111s3.537,2.007,4.293,5.674a5.241,5.241,0,0,1-1.746,5.02s.073,4.365-3.056,3.419a2.636,2.636,0,0,1-3.565,2.182s-.481,2.213-2.4,1.528c-2.037-.728-1.819-2.255-3.23-3.747A11.578,11.578,0,0,0,95.513,358.158Z" transform="translate(-58.53 -187.465)" fill="#b08a6b"/>
        <path id="Trazado_69561" data-name="Trazado 69561" d="M113.382,381.253a5.5,5.5,0,0,1-4.574.628c-2.613-.8-4.488-3.176-6.116-5.229a40.019,40.019,0,0,0-6.409-6.671,29.722,29.722,0,0,0-9.965-5.369,44.179,44.179,0,0,0-5.351-1.209,24.116,24.116,0,0,0-3.5-.207,63.508,63.508,0,0,0,16.33,8.275s0,7.478,6.006,9.152a11.578,11.578,0,0,1,2.965,2.29c1.411,1.492,1.193,3.02,3.23,3.747,1.92.686,2.4-1.528,2.4-1.528a2.636,2.636,0,0,0,3.565-2.182c2.632.8,3-2.159,3.047-3.12A11.144,11.144,0,0,1,113.382,381.253Z" transform="translate(-62.823 -209.931)" fill="#b08a6b" opacity="0.4" style="mix-blend-mode: multiply;isolation: isolate"/>
        <path id="Trazado_69562" data-name="Trazado 69562" d="M179.521,225.207s2.889-6.56,7.291-5.833c4.817.8,5.171,6.894,2.519,12.594s-6.452,7.2-9.81,5.171Z" transform="translate(-96.132 -162.97)" fill="#b08a6b"/>
        <path id="Trazado_69563" data-name="Trazado 69563" d="M67.183,225.207s-2.89-6.56-7.292-5.833c-4.817.8-5.171,6.894-2.519,12.594s6.452,7.2,9.811,5.171Z" transform="translate(-55.726 -162.97)" fill="#b08a6b"/>
        <path id="Trazado_69564" data-name="Trazado 69564" d="M189.754,226.076s-1.237-3.712-4.349-2.038c-3.666,1.972-4.047,10.346-4.047,10.346" transform="translate(-96.731 -164.369)" fill="none" stroke="#926f52" stroke-linecap="round" stroke-linejoin="round" stroke-width="1"/>
        <path id="Trazado_69565" data-name="Trazado 69565" d="M58.432,226.076s1.237-3.712,4.349-2.038c3.666,1.972,4.048,10.346,4.048,10.346" transform="translate(-56.609 -164.369)" fill="none" stroke="#926f52" stroke-linecap="round" stroke-linejoin="round" stroke-width="1"/>
        <path id="Trazado_69566" data-name="Trazado 69566" d="M184.392,229.911c.472-1.594.959-3.185,1.483-4.764a16.51,16.51,0,0,1,1.225-3,8.14,8.14,0,0,1,1.584-2.055,4.848,4.848,0,0,0-1.871-.717c-4.4-.727-7.291,5.833-7.291,5.833v11.932a5.7,5.7,0,0,0,2.469.837C182.83,235.3,183.6,232.6,184.392,229.911Z" transform="translate(-96.132 -162.97)" fill="#b08a6b" opacity="0.4" style="mix-blend-mode: multiply;isolation: isolate"/>
        <path id="Trazado_69567" data-name="Trazado 69567" d="M58.872,223.052c2.958,3.608,3.681,8.231,4.694,12.639q.26,1.131.543,2.256a5.372,5.372,0,0,0,3.53-.808V225.207s-2.89-6.56-7.292-5.833a4.5,4.5,0,0,0-3.224,2.085A7.115,7.115,0,0,1,58.872,223.052Z" transform="translate(-56.182 -162.97)" fill="#b08a6b" opacity="0.4" style="mix-blend-mode: multiply;isolation: isolate"/>
        <path id="Trazado_69568" data-name="Trazado 69568" d="M106.321,237.956c-11.226,0-20.437-1.8-26.271-6.96C74.2,225.811,65.9,215.951,65.456,191.028S80.275,148.9,106.321,148.9s41.314,17.2,40.866,42.125-8.74,34.784-14.6,39.968C126.759,236.159,117.548,237.956,106.321,237.956Z" transform="translate(-58.898 -139.987)" fill="#b08a6b"/>
        <path id="Trazado_69569" data-name="Trazado 69569" d="M69.8,194.106c.562-1.436.882-3.2,2.109-4.253,1.339-1.147,3.245-1.358,4.6-2.5,1.605-1.353,2.574-3.513,3.4-5.394a.164.164,0,0,1,.145-.084c2.141.06,3.9-.951,5.753-1.885a.173.173,0,0,1,.23.06c2.158,3.538,7.23,3.239,10.8,2.665a22.908,22.908,0,0,0,5.716-1.689,23.152,23.152,0,0,0,3.1-2c.843-.55,1.252-.636,2.071.005.5.39.913.86,1.375,1.288a12.183,12.183,0,0,0,1.955,1.376,14.008,14.008,0,0,0,8.357,1.964c2.041-.119,5.554-.524,6.058-3a.167.167,0,0,1,.162-.123,25.819,25.819,0,0,0,6.916-.106.172.172,0,0,1,.19.077c1.233,2.733,2.568,5.592,4.783,7.681a6.482,6.482,0,0,0,3.3,1.81,3.018,3.018,0,0,1,2.113,1.06c1.318,1.654,1.792,3.831,3.337,5.328q.308.3.645.589c.141-1.882.238-3.855.276-5.943.449-24.923-14.819-42.125-40.866-42.125s-41.314,17.2-40.865,42.125c.044,2.437.165,4.725.349,6.884A6.341,6.341,0,0,0,69.8,194.106Z" transform="translate(-58.898 -139.987)" fill="#b08a6b" opacity="0.4" style="mix-blend-mode: multiply;isolation: isolate"/>
        <path id="Trazado_69570" data-name="Trazado 69570" d="M104.846,172.225s-12.574,4.042-15.942,2.583-2.133-3.206-2.133-3.206-6.175,3.226-10.441,2.094c0,0-2.582,7.849-8.2,9.87,0,0,.17,5.607-3.893,8.929a31.43,31.43,0,0,1-1.72-23.973C69.594,147.077,87,141.464,99.457,141.015c0,0-4.8-2.863-3.256-4.715,1.684-2.021,6.736,1.123,8.644,4.828,1.908-3.7,6.96-6.849,8.644-4.828,1.543,1.852-3.256,4.715-3.256,4.715,12.462.449,29.863,6.062,36.936,27.505a31.43,31.43,0,0,1-1.72,23.973c-4.063-3.322-3.893-8.929-3.893-8.929-5.613-2.021-8.2-9.87-8.2-9.87-4.266,1.132-10.441-2.094-10.441-2.094s1.235,1.747-2.133,3.206S104.846,172.225,104.846,172.225Z" transform="translate(-57.423 -135.666)" fill="#4f4b49"/>
        <path id="Trazado_69571" data-name="Trazado 69571" d="M182.509,183.124c-.309-.938-.645-1.835-.993-2.713a7.635,7.635,0,0,1-.783,2.937,14.112,14.112,0,0,1-5.872,5.65,6.249,6.249,0,0,1-5.665.571c.993,2.306,3.5,7.086,7.7,8.6,0,0-.17,5.607,3.893,8.929A31.43,31.43,0,0,0,182.509,183.124Z" transform="translate(-92.762 -150.271)" fill="#4f4b49" opacity="0.5" style="mix-blend-mode: multiply;isolation: isolate"/>
        <path id="Trazado_69572" data-name="Trazado 69572" d="M75.529,191.342c-.191.026-.382.055-.574.073-3.964.381-8.387-.987-10.8-4.31a8.529,8.529,0,0,1-1.479-3.337c-.053.153-.109.3-.16.452a31.43,31.43,0,0,0,1.72,23.973c4.063-3.322,3.893-8.929,3.893-8.929C71.961,197.887,74.377,193.8,75.529,191.342Z" transform="translate(-57.423 -151.366)" fill="#4f4b49" opacity="0.5" style="mix-blend-mode: multiply;isolation: isolate"/>
        <ellipse id="Elipse_1965" data-name="Elipse 1965" cx="5.728" cy="6.683" rx="5.728" ry="6.683" transform="translate(62.132 56.246)" fill="#373634"/>
        <path id="Trazado_69573" data-name="Trazado 69573" d="M147.964,205.951a10.448,10.448,0,0,1,11.456,0" transform="translate(-85.832 -158.053)" fill="none" stroke="#373634" stroke-linecap="round" stroke-linejoin="round" stroke-width="2"/>
        <ellipse id="Elipse_1966" data-name="Elipse 1966" cx="5.728" cy="6.683" rx="5.728" ry="6.683" transform="translate(21.257 56.246)" fill="#373634"/>
        <path id="Trazado_69574" data-name="Trazado 69574" d="M120.326,259.8c-4.6,0-9.205-1.01-9.879-1.852s-3.031-4.547-1.684-5.052,4.209,1.684,11.563,1.684,10.217-2.189,11.564-1.684-1.01,4.21-1.684,5.052S124.929,259.8,120.326,259.8Z" transform="translate(-72.903 -173.905)" fill="#601919"/>
        <path id="Trazado_69575" data-name="Trazado 69575" d="M120.961,244.356a12.986,12.986,0,0,1,3.48-2.919,13,13,0,0,1,3.481,2.919" transform="translate(-77.018 -170.189)" fill="none" stroke="#926f52" stroke-linecap="round" stroke-linejoin="round" stroke-width="1"/>
        <path id="Trazado_69576" data-name="Trazado 69576" d="M98.74,205.951a10.449,10.449,0,0,0-11.457,0" transform="translate(-66.026 -158.053)" fill="none" stroke="#373634" stroke-linecap="round" stroke-linejoin="round" stroke-width="2"/>
        <circle id="Elipse_1967" data-name="Elipse 1967" cx="6.206" cy="6.206" r="6.206" transform="translate(14.161 68.892)" fill="#b08a6b" opacity="0.25" style="mix-blend-mode: multiply;isolation: isolate"/>
        <circle id="Elipse_1968" data-name="Elipse 1968" cx="6.206" cy="6.206" r="6.206" transform="translate(68.274 68.892)" fill="#b08a6b" opacity="0.25" style="mix-blend-mode: multiply;isolation: isolate"/>
        <path id="Trazado_69577" data-name="Trazado 69577" d="M86.219,161.436a8.006,8.006,0,0,0-1.444,3.35,2.743,2.743,0,0,0,1.674,2.951,3.364,3.364,0,0,0,1.661-.045c2.9-.651,5.366-2.478,8.055-3.735a2.421,2.421,0,0,1,1.023-.294c.827.009,1.431.795,1.721,1.568a8.524,8.524,0,0,0,.912,2.291c.907,1.195,2.727,1.266,4.129.732s2.58-1.529,3.933-2.178a2.291,2.291,0,0,1,1.237-.294c.8.1,1.32.876,1.981,1.345a4.325,4.325,0,0,0,4.316-.053c1.357-.666,2.521-1.681,3.886-2.329a2,2,0,0,1,.915-.245c.858.034,1.351.947,1.86,1.639a6.9,6.9,0,0,0,5,2.532,16.726,16.726,0,0,0,5.7-.738,9.783,9.783,0,0,0,3.141-1.276,3.7,3.7,0,0,0,1.693-2.814c.034-1.465-1.056-2.685-2.077-3.736" transform="translate(-65.203 -143.643)" fill="none" stroke="#fff" stroke-miterlimit="10" stroke-width="1" opacity="0.5" style="mix-blend-mode: overlay;isolation: isolate"/>
        <path id="Trazado_69578" data-name="Trazado 69578" d="M120.338,417.651c4.715.879,6.092-2.769,6.092-2.769,2.238-2.557,6.473-8.31,6.473-8.31,17.43-5.643,26.649-10.473,31.6-18.628,4.053-6.673,2.373-20.047-11.236-21.789-12.931-1.654-20.207,11.331-20.207,11.331s-8.47,5.594-11.661,11.275a16.325,16.325,0,0,0-6.4,4.706c-1.805,2.313-2.318,9.749-5.053,13.477-1.005,1.37-1.217,5.239,1.119,6.552,2.557,1.438,3.675.16,3.675.16S115.461,416.742,120.338,417.651Z" transform="translate(-73.19 -210.849)" fill="#b08a6b"/>
        <path id="Trazado_69579" data-name="Trazado 69579" d="M164.8,377.243a14.347,14.347,0,0,1,.184,4.485c-1.045,9.963-9.577,18.55-18.99,21.2a26.1,26.1,0,0,1-8.079.869c-2.252-.082-5.224-.38-6.554-2.475-.752-1.184-.952-2.618-1.572-3.864a7.075,7.075,0,0,0-2.852-2.884c-1.687-.992-3.6-1.585-5.224-2.665-.107.172-.209.346-.306.518a16.325,16.325,0,0,0-6.4,4.706c-1.805,2.313-2.318,9.749-5.053,13.477-1.005,1.37-1.217,5.239,1.119,6.553,2.557,1.438,3.675.16,3.675.16s.716,3.086,5.594,4c4.715.879,6.092-2.769,6.092-2.769,2.238-2.557,6.473-8.31,6.473-8.31,17.43-5.643,26.649-10.473,31.6-18.628A15.335,15.335,0,0,0,164.8,377.243Z" transform="translate(-73.19 -214.516)" fill="#b08a6b" opacity="0.4" style="mix-blend-mode: multiply;isolation: isolate"/>
        <path id="Trazado_69580" data-name="Trazado 69580" d="M132.972,415.467a18.952,18.952,0,0,1-2.7-6.094,14.308,14.308,0,0,0-3.852-6.413,13.218,13.218,0,0,0-5.447-2.91A16.2,16.2,0,0,0,115,404.578c-1.805,2.313-2.318,9.749-5.053,13.477-1.005,1.37-1.217,5.239,1.119,6.553,2.557,1.438,3.675.16,3.675.16s.716,3.086,5.594,4c4.715.879,6.092-2.769,6.092-2.769,2.238-2.557,6.473-8.31,6.473-8.31q.835-.271,1.645-.538A12.264,12.264,0,0,1,132.972,415.467Z" transform="translate(-73.19 -221.96)" fill="#b08a6b" opacity="0.4" style="mix-blend-mode: multiply;isolation: isolate"/>
        <path id="Trazado_69581" data-name="Trazado 69581" d="M104.2,417.651c-4.715.879-6.092-2.769-6.092-2.769-2.237-2.557-6.472-8.31-6.472-8.31-17.43-5.643-26.649-10.473-31.6-18.628-4.053-6.673-2.373-20.047,11.236-21.789,12.931-1.654,20.207,11.331,20.207,11.331s8.471,5.594,11.661,11.275a16.325,16.325,0,0,1,6.4,4.706c1.805,2.313,2.317,9.749,5.053,13.477,1.006,1.37,1.217,5.239-1.118,6.552-2.557,1.438-3.676.16-3.676.16S109.073,416.742,104.2,417.651Z" transform="translate(-56.499 -210.849)" fill="#b08a6b"/>
        <path id="Trazado_69582" data-name="Trazado 69582" d="M104.971,419.94c-2.554-1.311-4.018-4.111-5.053-6.661a30.6,30.6,0,0,1-1.346-3.777c-.152-.587-.288-1.177-.466-1.757-.146-.479-.327-1.318-.838-1.511a7.08,7.08,0,0,0-1.959.022c-.921-.005-1.844-.026-2.76-.121a27.568,27.568,0,0,1-4.662-.9,35.643,35.643,0,0,1-8.708-3.935,64.072,64.072,0,0,1-14.357-11.479,34.831,34.831,0,0,1-6.009-9.222,15.305,15.305,0,0,0,1.217,12.107c4.954,8.155,14.173,12.985,31.6,18.628,0,0,4.235,5.753,6.472,8.31,0,0,1.378,3.648,6.092,2.769a8.391,8.391,0,0,0,4.115-1.84A6.028,6.028,0,0,1,104.971,419.94Z" transform="translate(-56.5 -215.611)" fill="#b08a6b" opacity="0.4" style="mix-blend-mode: multiply;isolation: isolate"/>
        <path id="Trazado_69583" data-name="Trazado 69583" d="M131.23,383.637s-.286-3.037-4.1-7.864a8.723,8.723,0,0,1,3.715,2.317C132.4,379.815,131.23,383.637,131.23,383.637Z" transform="translate(-79.031 -214.036)" fill="#b08a6b" opacity="0.4" style="mix-blend-mode: multiply;isolation: isolate"/>
        <path id="Trazado_69584" data-name="Trazado 69584" d="M105.45,322.133a1.193,1.193,0,1,1-1.193-1.194A1.194,1.194,0,0,1,105.45,322.133Z" transform="translate(-71.176 -196.138)" fill="#b08a6b" opacity="0.25" style="mix-blend-mode: multiply;isolation: isolate"/>
        <path id="Trazado_69585" data-name="Trazado 69585" d="M148.033,322.133a1.193,1.193,0,1,1-1.193-1.194A1.194,1.194,0,0,1,148.033,322.133Z" transform="translate(-85.075 -196.138)" fill="#b08a6b" opacity="0.25" style="mix-blend-mode: multiply;isolation: isolate"/>
      </g>
      <g id="Grupo_27392" data-name="Grupo 27392" transform="translate(152.818 90.443)">
        <path id="Trazado_69586" data-name="Trazado 69586" d="M307.774,360.495s-8.012-5.167-10.624-5.225-7.548.755-10.1,0-5.4-1.858-6.1-.522.581,4.412,3.309,5.747,9,.987,10.683,2.032h12.83Z" transform="translate(-244.458 -204.542)" fill="#f1d6b8"/>
        <path id="Trazado_69587" data-name="Trazado 69587" d="M307.774,360.495s-8.012-5.167-10.624-5.225-7.548.755-10.1,0-5.4-1.858-6.1-.522.581,4.412,3.309,5.747,9,.987,10.683,2.032h12.83Z" transform="translate(-244.458 -204.542)" fill="#f1d6b8" style="mix-blend-mode: multiply;isolation: isolate"/>
        <g id="Grupo_27391" data-name="Grupo 27391">
          <circle id="Elipse_1969" data-name="Elipse 1969" cx="14.321" cy="14.321" r="14.321" transform="translate(0 145.086) rotate(-45)" fill="#c1bfc3"/>
          <path id="Trazado_69588" data-name="Trazado 69588" d="M259.614,342.683c-1.523-.491-3.289-1.1-4.8-.257a13.311,13.311,0,0,0-2.831,2.826,5.6,5.6,0,0,1-3.417,1.869,8.88,8.88,0,0,1-4.221-.509c-5.016-1.818-6.712-7.369-5.639-12.217a14.31,14.31,0,1,0,25.582,9.315A13.15,13.15,0,0,1,259.614,342.683Z" transform="translate(-229.74 -198.104)" fill="#c1bfc3" opacity="0.5" style="mix-blend-mode: multiply;isolation: isolate"/>
          <path id="Trazado_69589" data-name="Trazado 69589" d="M357.017,133.368c1.436-2.22,5.585-1.166,7.269-.071s2.9,4.113,0,7.073c-2.542,2.6-4.628,1.431-6.316-1.155C356.213,136.521,356.091,134.8,357.017,133.368Z" transform="translate(-269.16 -132.063)" fill="#443358"/>
          <path id="Trazado_69590" data-name="Trazado 69590" d="M297.62,194.362c4.083-4.736,8.3-9.634,13.4-12.992,10.384-6.849,19.377-21.126,22.762-26.946a6.4,6.4,0,0,0-.023-6.486c-4.8-8.049-8.182-9.522-8.552-9.664a1.7,1.7,0,0,0-2.2.961,1.661,1.661,0,0,0,.947,2.165c.027.013,2.766,1.314,6.911,8.262a3.025,3.025,0,0,1,0,3.069c-3.264,5.615-11.915,19.372-21.7,25.827-5.484,3.617-9.861,8.694-14.094,13.6-5.664,6.571-10.556,12.246-16.322,12.246-6.849,0-12.9-10.138-17.316-17.54-2.08-3.487-3.877-6.5-5.509-8.1l-.409-.4c-3.66-3.6-8.683-8.542-11.292-15.281-.874-.754-1.662-1.445-2.329-2.044a22.559,22.559,0,0,1-2.391-2.513c1.739,10.526,9.082,17.747,13.651,22.24l.406.4c1.325,1.3,3.1,4.28,4.981,7.431,4.435,7.43,10.374,17.372,18.094,18.958-1.427,6.179-4.554,25.565,8.128,39.575,1.572,1.737,3.265,3.571,5.027,5.482,13.948,15.121,33.051,35.83,29.137,48.356a12.005,12.005,0,0,1-8.988,8.366c-7.907,2.081-19.393-1.241-26.144-7.567-4.29-4.02-7.057-6.882-9.28-9.181a52.248,52.248,0,0,0-9.173-8.116c-6.246-4.214-8.745-4.542-9.183-4.564a1.684,1.684,0,0,0-.244,3.358c.147.025,2.264.438,7.542,4a48.935,48.935,0,0,1,8.636,7.665c2.248,2.326,5.047,5.22,9.4,9.3a35.724,35.724,0,0,0,23.255,9.1,23.812,23.812,0,0,0,6.05-.736,15.37,15.37,0,0,0,11.344-10.617c4.495-14.385-14.562-35.044-29.874-51.645-1.756-1.9-3.441-3.73-5.006-5.459-11.925-13.173-8.336-32.357-7.188-37.164C286.744,206.977,292.037,200.838,297.62,194.362Z" transform="translate(-230.99 -134.053)" fill="#c1bfc3"/>
          <path id="Trazado_69591" data-name="Trazado 69591" d="M241.814,174.272c1.638,1.424,3.377,2.717,5.132,3.992a30.019,30.019,0,0,1-2.727-5.316c-.874-.754-1.662-1.445-2.329-2.044a22.559,22.559,0,0,1-2.391-2.513,28.644,28.644,0,0,0,1.3,4.956C241.132,173.661,241.469,173.971,241.814,174.272Z" transform="translate(-230.99 -143.92)" fill="#c1bfc3" opacity="0.5" style="mix-blend-mode: multiply;isolation: isolate"/>
          <path id="Trazado_69592" data-name="Trazado 69592" d="M294.469,256.874c-11.925-13.173-8.336-32.357-7.188-37.164,6.675-.726,11.968-6.865,17.551-13.341,4.083-4.736,8.3-9.634,13.4-12.992,6.758-4.457,12.925-12.06,17.342-18.431a57.515,57.515,0,0,0-5.045,4.815,82.376,82.376,0,0,1-6.836,7.1c-1.856,1.6-5.174,4.408-7.876,4.1-5.218,3.586-9.447,8.468-13.532,13.207-5.664,6.571-10.556,12.246-16.322,12.246-6.849,0-12.9-10.138-17.316-17.54-1.177-1.974-2.262-3.783-3.28-5.284a14.034,14.034,0,0,1-.02,3.207,12.121,12.121,0,0,1-.5,2.294q.446.743.9,1.51c4.435,7.43,10.374,17.372,18.094,18.958-1.427,6.179-4.554,25.565,8.128,39.575,1.572,1.737,3.265,3.571,5.027,5.482,13.948,15.121,33.051,35.83,29.137,48.356a12.005,12.005,0,0,1-8.988,8.366c-7.907,2.081-19.393-1.241-26.144-7.567-4.29-4.02-7.057-6.882-9.28-9.181a52.247,52.247,0,0,0-9.173-8.116c-6.246-4.214-8.745-4.542-9.183-4.564a1.684,1.684,0,0,0-.244,3.358c.147.025,2.264.438,7.542,4a48.935,48.935,0,0,1,8.636,7.665c2.248,2.326,5.047,5.22,9.4,9.3a35.724,35.724,0,0,0,23.255,9.1,23.812,23.812,0,0,0,6.05-.736,15.37,15.37,0,0,0,11.344-10.617c4.495-14.385-14.562-35.044-29.874-51.645C297.719,260.43,296.034,258.6,294.469,256.874Z" transform="translate(-238.202 -146.06)" fill="#c1bfc3" opacity="0.5" style="mix-blend-mode: multiply;isolation: isolate"/>
          <path id="Trazado_69593" data-name="Trazado 69593" d="M294.642,265.7c-2.905-3.208-11.95-15.245-7.139-36.1,6.711-.981,11.962-7.072,17.512-13.511a99.473,99.473,0,0,1,9.07-9.62.4.4,0,0,0-.021-.62c-1.166-.909-2.234-1.718-3.144-2.395a.441.441,0,0,0-.561.032A109.446,109.446,0,0,0,301.444,213c-5.555,6.446-10.353,12.012-15.812,12.012-6.492,0-12.45-10.028-16.79-17.3a.287.287,0,0,0-.438-.066c-.61.533-2.142,1.885-3.062,2.82a.4.4,0,0,0-.057.487c4.272,7.145,10,16.39,17.428,18.377a56.811,56.811,0,0,0-1.1,16.406c.782,9.221,3.987,17,9.527,23.119,1.543,1.7,3.186,3.486,4.925,5.373l.106.114c13.837,15,32.787,35.543,28.989,47.7a11.366,11.366,0,0,1-8.516,7.916,19.615,19.615,0,0,1-4.98.6,32.048,32.048,0,0,1-20.533-8c-4.273-4-7.032-6.857-9.249-9.15a52.8,52.8,0,0,0-9.287-8.213c-6.238-4.209-8.868-4.645-9.525-4.679-.04,0-.086,0-.131,0a2.358,2.358,0,0,0-.245,4.7c.2.043,2.309.548,7.263,3.889a48.432,48.432,0,0,1,8.529,7.575c2.248,2.325,5.046,5.22,9.422,9.32a36.5,36.5,0,0,0,23.716,9.284,24.49,24.49,0,0,0,6.221-.757,16.017,16.017,0,0,0,11.816-11.069c4.611-14.755-14.592-35.574-30.021-52.3C297.73,269.078,296.147,267.36,294.642,265.7Z" transform="translate(-237.876 -155.335)" fill="#443358"/>
          <path id="Trazado_69594" data-name="Trazado 69594" d="M320.23,339.8c.153.391.306.783.449,1.177,1.63,4.5,3.119,9.323,3.113,14.156,1.753,4.243,2.4,8.151,1.373,11.442a11.366,11.366,0,0,1-8.516,7.916,19.618,19.618,0,0,1-4.98.6,32.047,32.047,0,0,1-20.533-8c-4.273-4-7.032-6.857-9.249-9.15a52.794,52.794,0,0,0-9.287-8.213c-6.238-4.209-8.868-4.645-9.525-4.679-.04,0-.086,0-.131,0a2.358,2.358,0,0,0-.245,4.7c.2.043,2.309.548,7.263,3.889a48.43,48.43,0,0,1,8.529,7.575c2.248,2.325,5.046,5.22,9.422,9.32a36.5,36.5,0,0,0,23.716,9.284,24.49,24.49,0,0,0,6.221-.757,16.017,16.017,0,0,0,11.816-11.069C332.2,359.865,327.522,349.906,320.23,339.8Z" transform="translate(-237.876 -199.869)" fill="#443358" opacity="0.5" style="mix-blend-mode: multiply;isolation: isolate"/>
          <path id="Trazado_69595" data-name="Trazado 69595" d="M272.494,351.852a.315.315,0,0,0-.1-.416c-6-4.015-8.665-4.556-9.538-4.6-.048,0-.1,0-.156,0a2.862,2.862,0,0,0-.35,5.7c.084.018,2.369.709,7.118,3.881a.311.311,0,0,0,.442-.1Z" transform="translate(-237.631 -202.163)" fill="#dad9db"/>
          <path id="Trazado_69596" data-name="Trazado 69596" d="M272.395,351.436c-.248-.166-.482-.317-.718-.471-1.243,1.055-2.757,1.868-4.117,1-1.448-.92-1.522-2.48-1.368-4.108a9.946,9.946,0,0,0-3.335-1.026c-.048,0-.1,0-.156,0a2.862,2.862,0,0,0-.35,5.7c.084.018,2.369.709,7.118,3.881a.311.311,0,0,0,.442-.1l2.583-4.463A.315.315,0,0,0,272.395,351.436Z" transform="translate(-237.631 -202.163)" fill="#dad9db" opacity="0.5" style="mix-blend-mode: multiply;isolation: isolate"/>
          <circle id="Elipse_1970" data-name="Elipse 1970" cx="7.638" cy="7.638" r="7.638" transform="translate(12.615 137.448)" fill="#dad9db"/>
          <path id="Trazado_69597" data-name="Trazado 69597" d="M267.663,337.7a8.819,8.819,0,0,0-6.615-5.723" transform="translate(-238.023 -197.314)" fill="none" stroke="#fff" stroke-miterlimit="10" stroke-width="1" opacity="0.5" style="mix-blend-mode: overlay;isolation: isolate"/>
        </g>
        <path id="Trazado_69598" data-name="Trazado 69598" d="M370.231,266.638c-5.209-13.638-8.941-23.125-16.058-26.88l-11.348,30.636c7.509,21.94,15.617,41.9,15.617,41.9-15.615,4.744-29.181,16.792-41.365,18.975,0,0-9.779-10.716-13.5-10.948s-16.255,0-19.275,0-4.877-.671-6.5-.1-3.948,2.309-3.136,3.935a4.674,4.674,0,0,0,2.9,2.09,3.946,3.946,0,0,0,1.683,1.452s-.581,3.193,0,4.529a3.883,3.883,0,0,0,1.394,1.8,6.573,6.573,0,0,0-1.8,2.5c-.232,1.1-.465,3.367.639,3.948a18.425,18.425,0,0,1,1.916,1.161s-1.277,3.716-1.1,5.922,2.264,5.051,14.92,5.109c0,0,7.937,2.952,22.13-1.161,31.106-.7,54.342-9.483,66.616-16.605a9.531,9.531,0,0,0,4.728-8.979C386.84,302.159,374.379,277.5,370.231,266.638Zm-84.356,78.185c.174-.7.348-1.684.348-1.684a11.7,11.7,0,0,1,3.193,1.684Z" transform="translate(-242.414 -167.214)" fill="#f1d6b8"/>
        <path id="Trazado_69599" data-name="Trazado 69599" d="M324.875,365.832a28.356,28.356,0,0,1,2.922,5.206,58.114,58.114,0,0,0,2.605,5.821,4.824,4.824,0,0,1,2.562-1.839c1.431-.548,2.878-1.042,4.29-1.642a27.887,27.887,0,0,0,7.225-4.3c2.319-1.97,4.3-4.357,6.412-6.54l.093-.1c-6.662,3.757-12.92,7.158-18.851,8.22,0,0-7.1-7.778-11.5-10.222A56.2,56.2,0,0,1,324.875,365.832Z" transform="translate(-257.472 -206.603)" fill="#f1d6b8" opacity="0.5" style="mix-blend-mode: multiply;isolation: isolate"/>
        <path id="Trazado_69600" data-name="Trazado 69600" d="M421.8,325.915c-1.855-23.756-14.316-48.413-18.465-59.277-5.209-13.638-8.941-23.125-16.058-26.88l-11.348,30.636c6.2,18.107,12.8,34.854,14.916,40.158,3.1.088,6.314-1,9.2-1.861a39.81,39.81,0,0,0,11.523-5.371.169.169,0,0,1,.253.145c-.063,5.585-.1,11.183-.692,16.742a49.065,49.065,0,0,1-3.218,13.987,16.169,16.169,0,0,1-7.283,7.852c-3.477,1.9-7.393,2.8-11.174,3.937a117.45,117.45,0,0,0,27.62-11.088A9.531,9.531,0,0,0,421.8,325.915Z" transform="translate(-275.52 -167.214)" fill="#f1d6b8" opacity="0.5" style="mix-blend-mode: multiply;isolation: isolate"/>
        <path id="Trazado_69601" data-name="Trazado 69601" d="M288.484,391.674c-.042.722-.138,1.448-.172,2.16a5.373,5.373,0,0,0,.125,1.845,1.517,1.517,0,0,0,1.277.982c1.194.3,2.438.3,3.642.542a20.939,20.939,0,0,1,3.923,1.218,8.564,8.564,0,0,0-4.907-5,15.425,15.425,0,0,1,1.543.983h-3.541c.174-.7.348-1.684.348-1.684a4.929,4.929,0,0,1,.625.209.163.163,0,0,1,.189-.106c.06.013.119.032.178.047A31.838,31.838,0,0,0,288.484,391.674Z" transform="translate(-246.915 -216.799)" fill="#f1d6b8" opacity="0.5" style="mix-blend-mode: multiply;isolation: isolate"/>
        <path id="Trazado_69602" data-name="Trazado 69602" d="M375.809,269.749l11.272-31.966s13.17,5.678,17.255,23.862c0,0,10.835,16.056,17.562,31.538a.333.333,0,0,1-.079.382c-1.437,1.313-11.919,10.258-36.7,16.11a.335.335,0,0,1-.391-.193C383.945,307.615,379.224,295.557,375.809,269.749Z" transform="translate(-275.48 -166.57)" fill="#c3afd7"/>
        <path id="Trazado_69603" data-name="Trazado 69603" d="M389.867,326.73s17.97-4.764,29.758-13.48" transform="translate(-280.069 -191.202)" fill="none" stroke="#a491bd" stroke-linecap="round" stroke-linejoin="round" stroke-width="1.5"/>
        <path id="Trazado_69604" data-name="Trazado 69604" d="M432.252,297.275c-6.727-15.481-17.562-31.538-17.562-31.538a38.044,38.044,0,0,0-7.159-15.417c.418,1.238.818,2.482,1.165,3.743a32.3,32.3,0,0,1,1.083,5.625c.181,1.992.1,3.994.094,5.99a24.543,24.543,0,0,0,.432,5.454,27.1,27.1,0,0,0,1.759,4.806c1.252,2.876,2.672,5.68,3.8,8.609a23.983,23.983,0,0,1,.523,17.634,31.206,31.206,0,0,1-2.779,5.951c11.977-4.78,17.546-9.544,18.565-10.475A.333.333,0,0,0,432.252,297.275Z" transform="translate(-285.834 -170.662)" fill="#c3afd7" opacity="0.5" style="mix-blend-mode: multiply;isolation: isolate"/>
      </g>
    </g>
  </g>
</svg>
