<svg xmlns="http://www.w3.org/2000/svg" width="274" height="274" viewBox="0 0 274 274">
  <g id="Grupo_27400" data-name="Grupo 27400" transform="translate(-915.578 -9335.229)">
    <circle id="Elipse_1960" data-name="Elipse 1960" cx="137" cy="137" r="137" transform="translate(915.578 9335.229)" fill="#f7eccf"/>
    <g id="Grupo_27380" data-name="Grupo 27380" transform="translate(864.347 9121.222)">
      <path id="Trazado_69460" data-name="Trazado 69460" d="M153.022,252.333H263.875a5.812,5.812,0,0,1,5.748,5.807V406.505a5.812,5.812,0,0,1-5.748,5.807H153.022a5.824,5.824,0,0,1-5.807-5.807V258.14a5.824,5.824,0,0,1,5.807-5.807Z" transform="translate(0 0)" fill="#fff" fill-rule="evenodd"/>
      <path id="Trazado_69461" data-name="Trazado 69461" d="M228.3,268.666a18.169,18.169,0,1,1-25.666,0,18.117,18.117,0,0,1,25.666,0Z" transform="translate(19.718 4.34)" fill="#979797" fill-rule="evenodd"/>
      <path id="Trazado_69462" data-name="Trazado 69462" d="M189.939,304.089a18.169,18.169,0,1,1-25.725,0,18.156,18.156,0,0,1,25.725,0Z" transform="translate(4.602 18.274)" fill="#979797" fill-rule="evenodd"/>
      <path id="Trazado_69463" data-name="Trazado 69463" d="M228.3,304.089a18.149,18.149,0,1,1-25.666,0,18.048,18.048,0,0,1,25.666,0Z" transform="translate(19.718 18.274)" fill="#979797" fill-rule="evenodd"/>
      <path id="Trazado_69464" data-name="Trazado 69464" d="M189.939,339.447a18.19,18.19,0,1,1-25.725,0,18.227,18.227,0,0,1,25.725,0Z" transform="translate(4.602 32.216)" fill="#979797" fill-rule="evenodd"/>
      <path id="Trazado_69465" data-name="Trazado 69465" d="M228.3,339.447a18.169,18.169,0,1,1-25.666,0,18.118,18.118,0,0,1,25.666,0Z" transform="translate(19.718 32.216)" fill="#979797" fill-rule="evenodd"/>
      <path id="Trazado_69466" data-name="Trazado 69466" d="M189.939,268.666a18.19,18.19,0,1,1-25.725,0,18.225,18.225,0,0,1,25.725,0Z" transform="translate(4.602 4.34)" fill="#979797" fill-rule="evenodd"/>
      <path id="Trazado_69467" data-name="Trazado 69467" d="M189.939,266.637a18.169,18.169,0,1,1-25.725,0,18.156,18.156,0,0,1,25.725,0Z" transform="translate(4.602 3.524)" fill="#d7d8d8" fill-rule="evenodd"/>
      <path id="Trazado_69468" data-name="Trazado 69468" d="M187.917,267.506a16.116,16.116,0,1,1-22.82,0,16.12,16.12,0,0,1,22.82,0Z" transform="translate(5.172 4.106)" fill="#eaebeb" fill-rule="evenodd"/>
      <path id="Trazado_69469" data-name="Trazado 69469" d="M186.575,266.165h0v1.626l-21.137,21.137h-1.684V287.3l21.137-21.137Z" transform="translate(6.514 5.447)" fill="#c2c3c3" fill-rule="evenodd"/>
      <path id="Trazado_69470" data-name="Trazado 69470" d="M228.3,266.637a18.149,18.149,0,1,1-25.666,0,18.048,18.048,0,0,1,25.666,0Z" transform="translate(19.718 3.524)" fill="#d7d8d8" fill-rule="evenodd"/>
      <path id="Trazado_69471" data-name="Trazado 69471" d="M226.327,267.506a16.116,16.116,0,1,1-22.82,0,16.12,16.12,0,0,1,22.82,0Z" transform="translate(20.3 4.106)" fill="#eaebeb" fill-rule="evenodd"/>
      <path id="Trazado_69472" data-name="Trazado 69472" d="M224.929,266.165h0v1.626l-21.137,21.137h-1.626V287.3L223.3,266.165Z" transform="translate(21.642 5.447)" fill="#c2c3c3" fill-rule="evenodd"/>
      <path id="Trazado_69473" data-name="Trazado 69473" d="M189.939,301.994a18.19,18.19,0,1,1-25.725,0,18.227,18.227,0,0,1,25.725,0Z" transform="translate(4.602 17.466)" fill="#d7d8d8" fill-rule="evenodd"/>
      <path id="Trazado_69474" data-name="Trazado 69474" d="M187.917,302.876a16.136,16.136,0,1,1-22.82,0,16.189,16.189,0,0,1,22.82,0Z" transform="translate(5.172 18.036)" fill="#eaebeb" fill-rule="evenodd"/>
      <path id="Trazado_69475" data-name="Trazado 69475" d="M186.575,301.535h0v1.684l-21.137,21.137h-1.684v-1.684l21.137-21.137Z" transform="translate(6.514 19.378)" fill="#c2c3c3" fill-rule="evenodd"/>
      <path id="Trazado_69476" data-name="Trazado 69476" d="M228.3,301.994a18.169,18.169,0,1,1-25.666,0,18.119,18.119,0,0,1,25.666,0Z" transform="translate(19.718 17.466)" fill="#d7d8d8" fill-rule="evenodd"/>
      <path id="Trazado_69477" data-name="Trazado 69477" d="M226.327,302.876a16.136,16.136,0,1,1-22.82,0,16.189,16.189,0,0,1,22.82,0Z" transform="translate(20.3 18.036)" fill="#eaebeb" fill-rule="evenodd"/>
      <path id="Trazado_69478" data-name="Trazado 69478" d="M224.929,301.535h0v1.684l-21.137,21.137h-1.626v-1.684L223.3,301.535Z" transform="translate(21.642 19.378)" fill="#c2c3c3" fill-rule="evenodd"/>
      <path id="Trazado_69479" data-name="Trazado 69479" d="M189.939,337.364a18.19,18.19,0,1,1-25.725,0,18.227,18.227,0,0,1,25.725,0Z" transform="translate(4.602 31.396)" fill="#d7d8d8" fill-rule="evenodd"/>
      <path id="Trazado_69480" data-name="Trazado 69480" d="M187.917,338.234a16.137,16.137,0,1,1-22.82,0,16.191,16.191,0,0,1,22.82,0Z" transform="translate(5.172 31.979)" fill="#eaebeb" fill-rule="evenodd"/>
      <path id="Trazado_69481" data-name="Trazado 69481" d="M186.575,336.9h0v1.684l-21.137,21.137h-1.684v-1.684L184.891,336.9Z" transform="translate(6.514 33.308)" fill="#c2c3c3" fill-rule="evenodd"/>
      <path id="Trazado_69482" data-name="Trazado 69482" d="M228.3,337.364a18.169,18.169,0,1,1-25.666,0,18.119,18.119,0,0,1,25.666,0Z" transform="translate(19.718 31.396)" fill="#d7d8d8" fill-rule="evenodd"/>
      <path id="Trazado_69483" data-name="Trazado 69483" d="M226.327,338.234a16.137,16.137,0,1,1-22.82,0,16.191,16.191,0,0,1,22.82,0Z" transform="translate(20.3 31.979)" fill="#eaebeb" fill-rule="evenodd"/>
      <path id="Trazado_69484" data-name="Trazado 69484" d="M224.929,336.9h0v1.684l-21.137,21.137h-1.626v-1.684L223.3,336.9Z" transform="translate(21.642 33.308)" fill="#c2c3c3" fill-rule="evenodd"/>
      <path id="Trazado_69485" data-name="Trazado 69485" d="M191.618,258.124h0a1.76,1.76,0,0,1,1.8,1.742V400.16a1.808,1.808,0,0,1-1.8,1.8h0a1.759,1.759,0,0,1-1.742-1.8V259.866a1.711,1.711,0,0,1,1.742-1.742Z" transform="translate(16.801 2.281)" fill="#d7d8d8" fill-rule="evenodd"/>
    </g>
    <g id="Grupo_27381" data-name="Grupo 27381" transform="translate(828.058 9351.31)">
      <path id="Trazado_69486" data-name="Trazado 69486" d="M145.766,133.847h90.72a2.646,2.646,0,0,1,2.638,2.639v109.5a2.646,2.646,0,0,1-2.638,2.638h-90.72a2.646,2.646,0,0,1-2.639-2.638v-109.5a2.646,2.646,0,0,1,2.639-2.639Z" fill="#eaebeb" fill-rule="evenodd"/>
      <path id="Trazado_69487" data-name="Trazado 69487" d="M159.618,173.293h19.744a7.038,7.038,0,0,1,6.992,6.992h0a7.047,7.047,0,0,1-6.992,7.035H159.618a7.019,7.019,0,0,1-6.992-7.035h0a7.009,7.009,0,0,1,6.992-6.992Zm43.315,25.373h19.7a7.019,7.019,0,0,1,6.992,7.036h0a6.982,6.982,0,0,1-6.992,6.992h-19.7A7.019,7.019,0,0,1,195.9,205.7h0a7.056,7.056,0,0,1,7.036-7.036Zm0,25.242h19.7a7.019,7.019,0,0,1,6.992,7.036h0a7.02,7.02,0,0,1-6.992,7.036h-19.7a7.057,7.057,0,0,1-7.036-7.036h0a7.056,7.056,0,0,1,7.036-7.036Zm0-75.857h19.7a6.982,6.982,0,0,1,6.992,6.992h0a7.019,7.019,0,0,1-6.992,7.036h-19.7a7.056,7.056,0,0,1-7.036-7.036h0a7.019,7.019,0,0,1,7.036-6.992Zm0,25.242h19.7a7.01,7.01,0,0,1,6.992,6.992h0a7.019,7.019,0,0,1-6.992,7.035h-19.7a7.056,7.056,0,0,1-7.036-7.035h0a7.047,7.047,0,0,1,7.036-6.992Zm-43.315,25.373h19.744a7.047,7.047,0,0,1,6.992,7.036h0a7.009,7.009,0,0,1-6.992,6.992H159.618a6.981,6.981,0,0,1-6.992-6.992h0a7.019,7.019,0,0,1,6.992-7.036Zm0,25.242h19.744a7.047,7.047,0,0,1,6.992,7.036h0a7.048,7.048,0,0,1-6.992,7.036H159.618a7.019,7.019,0,0,1-6.992-7.036h0a7.019,7.019,0,0,1,6.992-7.036Zm0-75.857h19.744a7.009,7.009,0,0,1,6.992,6.992h0a7.047,7.047,0,0,1-6.992,7.036H159.618a7.019,7.019,0,0,1-6.992-7.036h0a6.981,6.981,0,0,1,6.992-6.992Z" fill="#c2c3c3" fill-rule="evenodd"/>
      <path id="Trazado_69488" data-name="Trazado 69488" d="M202.933,146.292h19.7a7.01,7.01,0,0,1,6.992,6.992h0a7.019,7.019,0,0,1-6.992,7.036h-19.7a7.056,7.056,0,0,1-7.036-7.036h0a7.047,7.047,0,0,1,7.036-6.992Z" fill="#fbc800" fill-rule="evenodd"/>
      <path id="Trazado_69489" data-name="Trazado 69489" d="M202.933,146.292h9.85V160.32h-9.85a7.056,7.056,0,0,1-7.036-7.036h0a7.047,7.047,0,0,1,7.036-6.992Z" fill="#c02012" fill-rule="evenodd"/>
      <path id="Trazado_69490" data-name="Trazado 69490" d="M203.417,147.655h18.689a6.1,6.1,0,0,1,5.761,4.046,6.358,6.358,0,0,0-5.453-3.122H203.109a6.355,6.355,0,0,0-5.453,3.122,6.1,6.1,0,0,1,5.761-4.046Z" fill="#fdec8b" fill-rule="evenodd"/>
      <path id="Trazado_69491" data-name="Trazado 69491" d="M202.933,171.533h19.7a7.02,7.02,0,0,1,6.992,7.036h0a7.01,7.01,0,0,1-6.992,6.992h-19.7a7.047,7.047,0,0,1-7.036-6.992h0a7.057,7.057,0,0,1,7.036-7.036Z" fill="#fbc800" fill-rule="evenodd"/>
      <path id="Trazado_69492" data-name="Trazado 69492" d="M202.933,171.533h9.85v14.028h-9.85a7.047,7.047,0,0,1-7.036-6.992h0a7.057,7.057,0,0,1,7.036-7.036Z" fill="#c02012" fill-rule="evenodd"/>
      <path id="Trazado_69493" data-name="Trazado 69493" d="M203.417,172.9h18.689a6.164,6.164,0,0,1,5.761,4.045,6.36,6.36,0,0,0-5.453-3.122H203.109a6.357,6.357,0,0,0-5.453,3.122,6.162,6.162,0,0,1,5.761-4.045Z" fill="#fdec8b" fill-rule="evenodd"/>
      <path id="Trazado_69494" data-name="Trazado 69494" d="M202.933,196.907h19.7a7.019,7.019,0,0,1,6.992,7.036h0a7.019,7.019,0,0,1-6.992,7.036h-19.7a7.056,7.056,0,0,1-7.036-7.036h0a7.056,7.056,0,0,1,7.036-7.036Z" fill="#fbc800" fill-rule="evenodd"/>
      <path id="Trazado_69495" data-name="Trazado 69495" d="M202.933,196.907h9.85v14.072h-9.85a7.056,7.056,0,0,1-7.036-7.036h0a7.056,7.056,0,0,1,7.036-7.036Z" fill="#c02012" fill-rule="evenodd"/>
      <path id="Trazado_69496" data-name="Trazado 69496" d="M203.417,198.27h18.689a6.142,6.142,0,0,1,5.761,4.09,6.265,6.265,0,0,0-5.453-3.122H203.109a6.262,6.262,0,0,0-5.453,3.122,6.14,6.14,0,0,1,5.761-4.09Z" fill="#fdec8b" fill-rule="evenodd"/>
      <path id="Trazado_69497" data-name="Trazado 69497" d="M202.933,222.149h19.7a7.019,7.019,0,0,1,6.992,7.036h0a7.02,7.02,0,0,1-6.992,7.036h-19.7a7.057,7.057,0,0,1-7.036-7.036h0a7.056,7.056,0,0,1,7.036-7.036Z" fill="#fbc800" fill-rule="evenodd"/>
      <path id="Trazado_69498" data-name="Trazado 69498" d="M202.933,222.149h9.85v14.072h-9.85a7.057,7.057,0,0,1-7.036-7.036h0a7.056,7.056,0,0,1,7.036-7.036Z" fill="#c02012" fill-rule="evenodd"/>
      <path id="Trazado_69499" data-name="Trazado 69499" d="M203.417,223.512h18.689a6.143,6.143,0,0,1,5.761,4.089,6.267,6.267,0,0,0-5.453-3.122H203.109a6.264,6.264,0,0,0-5.453,3.122,6.141,6.141,0,0,1,5.761-4.089Z" fill="#fdec8b" fill-rule="evenodd"/>
      <path id="Trazado_69500" data-name="Trazado 69500" d="M159.618,146.292h19.744a7.038,7.038,0,0,1,6.992,6.992h0a7.047,7.047,0,0,1-6.992,7.036H159.618a7.019,7.019,0,0,1-6.992-7.036h0a7.009,7.009,0,0,1,6.992-6.992Z" fill="#fbc800" fill-rule="evenodd"/>
      <path id="Trazado_69501" data-name="Trazado 69501" d="M159.618,146.292h9.85V160.32h-9.85a7.019,7.019,0,0,1-6.992-7.036h0a7.009,7.009,0,0,1,6.992-6.992Z" fill="#c02012" fill-rule="evenodd"/>
      <path id="Trazado_69502" data-name="Trazado 69502" d="M160.145,147.655h18.69a6.1,6.1,0,0,1,5.76,4.046,6.355,6.355,0,0,0-5.453-3.122h-19.3a6.355,6.355,0,0,0-5.453,3.122,6.1,6.1,0,0,1,5.76-4.046Z" fill="#fdec8b" fill-rule="evenodd"/>
      <path id="Trazado_69503" data-name="Trazado 69503" d="M159.618,171.533h19.744a7.048,7.048,0,0,1,6.992,7.036h0a7.038,7.038,0,0,1-6.992,6.992H159.618a7.009,7.009,0,0,1-6.992-6.992h0a7.019,7.019,0,0,1,6.992-7.036Z" fill="#fbc800" fill-rule="evenodd"/>
      <path id="Trazado_69504" data-name="Trazado 69504" d="M159.618,171.533h9.85v14.028h-9.85a7.009,7.009,0,0,1-6.992-6.992h0a7.019,7.019,0,0,1,6.992-7.036Z" fill="#c02012" fill-rule="evenodd"/>
      <path id="Trazado_69505" data-name="Trazado 69505" d="M160.145,172.9h18.69a6.162,6.162,0,0,1,5.76,4.045,6.357,6.357,0,0,0-5.453-3.122h-19.3a6.357,6.357,0,0,0-5.453,3.122,6.162,6.162,0,0,1,5.76-4.045Z" fill="#fdec8b" fill-rule="evenodd"/>
      <path id="Trazado_69506" data-name="Trazado 69506" d="M159.618,196.907h19.744a7.047,7.047,0,0,1,6.992,7.036h0a7.047,7.047,0,0,1-6.992,7.036H159.618a7.019,7.019,0,0,1-6.992-7.036h0a7.019,7.019,0,0,1,6.992-7.036Z" fill="#fbc800" fill-rule="evenodd"/>
      <path id="Trazado_69507" data-name="Trazado 69507" d="M159.618,196.907h9.85v14.072h-9.85a7.019,7.019,0,0,1-6.992-7.036h0a7.019,7.019,0,0,1,6.992-7.036Z" fill="#c02012" fill-rule="evenodd"/>
      <path id="Trazado_69508" data-name="Trazado 69508" d="M160.145,198.27h18.69a6.14,6.14,0,0,1,5.76,4.09,6.262,6.262,0,0,0-5.453-3.122h-19.3a6.262,6.262,0,0,0-5.453,3.122,6.14,6.14,0,0,1,5.76-4.09Z" fill="#fdec8b" fill-rule="evenodd"/>
      <path id="Trazado_69509" data-name="Trazado 69509" d="M159.618,222.149h19.744a7.047,7.047,0,0,1,6.992,7.036h0a7.048,7.048,0,0,1-6.992,7.036H159.618a7.019,7.019,0,0,1-6.992-7.036h0a7.019,7.019,0,0,1,6.992-7.036Z" fill="#fbc800" fill-rule="evenodd"/>
      <path id="Trazado_69510" data-name="Trazado 69510" d="M159.618,222.149h9.85v14.072h-9.85a7.019,7.019,0,0,1-6.992-7.036h0a7.019,7.019,0,0,1,6.992-7.036Z" fill="#c02012" fill-rule="evenodd"/>
      <path id="Trazado_69511" data-name="Trazado 69511" d="M160.145,223.512h18.69a6.14,6.14,0,0,1,5.76,4.089,6.264,6.264,0,0,0-5.453-3.122h-19.3a6.264,6.264,0,0,0-5.453,3.122,6.141,6.141,0,0,1,5.76-4.089Z" fill="#fdec8b" fill-rule="evenodd"/>
      <path id="Trazado_69512" data-name="Trazado 69512" d="M191.148,141.147h0a1.529,1.529,0,0,1,1.539,1.539v97.141a1.559,1.559,0,0,1-1.539,1.539h0a1.567,1.567,0,0,1-1.583-1.539V142.686a1.539,1.539,0,0,1,1.583-1.539Z" fill="#d7d8d8" fill-rule="evenodd"/>
    </g>
  </g>
</svg>
