<svg xmlns="http://www.w3.org/2000/svg" width="274" height="274" viewBox="0 0 274 274">
  <g id="Grupo_27397" data-name="Grupo 27397" transform="translate(-883.578 -8067)">
    <circle id="Elipse_1958" data-name="Elipse 1958" cx="137" cy="137" r="137" transform="translate(883.578 8067)" fill="#f7eccf"/>
    <g id="Grupo_27361" data-name="Grupo 27361" transform="translate(507.693 7990.805)">
      <g id="Grupo_27306" data-name="Grupo 27306" transform="translate(382.307 159.75)">
        <g id="Grupo_27305" data-name="Grupo 27305">
          <path id="Trazado_69211" data-name="Trazado 69211" d="M646.008,205.71c0,28.86-59.03,52.264-131.848,52.264s-131.853-23.4-131.853-52.264,59.03-52.267,131.853-52.267S646.008,176.841,646.008,205.71Z" transform="translate(-382.307 -151.084)" fill="#dadada"/>
          <path id="Trazado_69212" data-name="Trazado 69212" d="M646.279,204.123c0,28.871-59.03,52.27-131.852,52.27s-131.85-23.4-131.85-52.27,59.032-52.263,131.85-52.263S646.279,175.263,646.279,204.123Z" transform="translate(-382.175 -151.86)" fill="#f4f4f4"/>
          <path id="Trazado_69213" data-name="Trazado 69213" d="M590.286,194.865c0,19.686-40.253,35.644-89.92,35.644s-89.924-15.958-89.924-35.644,40.259-35.647,89.924-35.647S590.286,175.176,590.286,194.865Z" transform="translate(-368.514 -148.253)" fill="#ebeaea"/>
          <path id="Trazado_69214" data-name="Trazado 69214" d="M586.133,194.7c0,18.677-38.861,33.821-86.795,33.821s-86.8-15.144-86.8-33.821,38.86-33.82,86.8-33.82S586.133,176.027,586.133,194.7Z" transform="translate(-367.485 -147.437)" fill="#f4f4f4"/>
        </g>
        <path id="Trazado_69215" data-name="Trazado 69215" d="M513.087,154.947c34.121,0,66.176,5.12,90.252,14.424,11.6,4.477,20.67,9.664,26.975,15.42s9.5,11.8,9.5,17.96-3.192,12.2-9.5,17.956-15.376,10.944-26.975,15.426c-24.076,9.3-56.132,14.424-90.252,14.424s-66.179-5.126-90.261-14.424c-11.59-4.481-20.67-9.666-26.975-15.426s-9.5-11.8-9.5-17.956,3.2-12.2,9.5-17.96,15.385-10.943,26.975-15.42c24.082-9.3,56.133-14.424,90.261-14.424Zm0-1.858c-71.025,0-128.593,22.237-128.593,49.662s57.568,49.659,128.593,49.659,128.589-22.236,128.589-49.659-57.57-49.662-128.589-49.662Z" transform="translate(-381.235 -151.257)" fill="#006ec3"/>
        <path id="Trazado_69216" data-name="Trazado 69216" d="M511.358,156.043c32.835,0,63.69,4.775,86.878,13.454,11.226,4.2,20.017,9.074,26.145,14.493,6.226,5.5,9.38,11.314,9.38,17.262s-3.153,11.757-9.38,17.263c-6.128,5.42-14.919,10.295-26.145,14.5-23.188,8.676-54.044,13.454-86.878,13.454s-63.695-4.778-86.889-13.454c-11.219-4.2-20.014-9.076-26.139-14.5-6.225-5.506-9.378-11.312-9.378-17.263s3.153-11.758,9.378-17.262c6.125-5.419,14.92-10.3,26.139-14.493,23.194-8.679,54.05-13.454,86.889-13.454Zm0-.933c-68.116,0-123.336,20.656-123.336,46.141s55.22,46.142,123.336,46.142,123.333-20.661,123.333-46.142S579.468,155.11,511.358,155.11Z" transform="translate(-379.505 -150.267)" fill="#006ec3"/>
      </g>
      <g id="Grupo_27360" data-name="Grupo 27360" transform="translate(479.591 183.527)">
        <g id="Grupo_27307" data-name="Grupo 27307" transform="translate(0.265 8.289)" style="mix-blend-mode: multiply;isolation: isolate">
          <path id="Trazado_69217" data-name="Trazado 69217" d="M500.411,205.928l-.734-1.229-3.965.8-.452.866.8.842a11.9,11.9,0,0,0,4.3-.647c.019-.413.036-.564.044-.614l.013,0S500.418,205.912,500.411,205.928Z" transform="translate(-446.63 -172.643)" fill="#ebeaea"/>
          <path id="Trazado_69218" data-name="Trazado 69218" d="M478.643,149.929a1.285,1.285,0,0,0,.156.266c-.052,0-.108,0-.163,0C478.635,150.109,478.637,150.021,478.643,149.929Z" transform="translate(-439.736 -149.929)" fill="#ebeaea"/>
          <path id="Trazado_69219" data-name="Trazado 69219" d="M476.2,176.662a27.089,27.089,0,0,0-3.661-.877c.116-.015.228-.032.327-.047,1.329-.2,1.329-1.533,2.009-1.055.337.234.989.952,1.772.375s.407-1.533.749-2.385,1.021-.783,1.634-.51,1.192.272,1.772-.989a1.616,1.616,0,0,0-.547-2.282c-.579-.441-1.123-.885-.885-1.395.023-.048.045-.1.066-.147,0-.01.009-.018.013-.026.022-.052.043-.105.064-.161l.007-.016a2.523,2.523,0,0,0,.108-.363v0a1.333,1.333,0,0,0,.013-.577h0a1.023,1.023,0,0,0-.056-.189h0a1.081,1.081,0,0,0-.181-.29c-.38-.434-.937-.5-2.031-.02l1.015-1.207a12.06,12.06,0,0,0,.173-2.093,10.016,10.016,0,0,1-4.85-2.331.776.776,0,0,0-.06-.533c-.016-.04-.028-.073-.039-.1a.166.166,0,0,1-.008-.028.4.4,0,0,1-.015-.056.127.127,0,0,1,0-.025.139.139,0,0,1,0-.049.034.034,0,0,1,0-.013.128.128,0,0,1,.013-.048s0-.006.006-.01a.223.223,0,0,1,.022-.029s.006,0,.009-.005a.2.2,0,0,1,.039-.028,4.623,4.623,0,0,0,.531-.18h0a1.128,1.128,0,0,0,.378-.325,1.385,1.385,0,0,0,.259-.548,2.894,2.894,0,0,1-.349.067,5.574,5.574,0,0,1-1.788-.166,12.935,12.935,0,0,0-1.92-.237c-1.373-.079-2.748-.087-4.125-.1-1.453-.009-2.912-.022-4.364-.147-1.393-.122-2.783-.276-4.182-.367-2.732-.183-5.471-.259-8.209-.255-3.11,0-6.22.094-9.328.206a90.284,90.284,0,0,0-9.338.726c-1.526.217-3.048.462-4.569.709-1.366.224-2.737.489-4.116.623-1.08.1-2.266.135-3.413.3a13.593,13.593,0,0,0-.2,2.255c-.241.082-.634.2-1.269.382l-.231.067c-1.672.459-2.754,2.227-1.869,3.342.623.688,0,1.573-1.507,2.36s-2.262,2.228-1.7,3.312,1.7.425,1.606,1.278-.328,1.311.852,2.066,1.083,1.276.3,2.556-.427,1.9.523,2.722a2.331,2.331,0,0,0,1.012.519h0a1.94,1.94,0,0,0,.674.032h.011c.065-.012.127-.025.188-.042l.011,0a1.366,1.366,0,0,0,.327-.141l.037-.024a.81.81,0,0,0,.1-.072l.033-.027a.909.909,0,0,0,.1-.112c.393-.523,1.049-.557,1.835.033l.033.024a2.27,2.27,0,0,0-1.723.814c-.83,1.084.361,2.059,1.553,1.7s1.535-.36,1.247.434a1.868,1.868,0,0,0,.091,1.528h0l.044.068.032.041c.015.021.032.039.049.06l.043.046c.015.016.032.031.049.048.032.027.064.053.1.077a.258.258,0,0,1,.038.023c.028.015.054.032.084.047.015.007.032.012.048.021s.061.023.094.036a.283.283,0,0,1,.045.013.93.93,0,0,0,.152.03c.939.128.956-.9,1.552-.776s.656.8.632,1.355a1.793,1.793,0,0,0,2.1,1.278c1.036-.288,1.205-.024,1.543.361a.983.983,0,0,0,1.254.362c.125-.071.216-.121.283-.17a8.34,8.34,0,0,0,1.766.194,8.439,8.439,0,0,0,3.481-.608,3.4,3.4,0,0,0,1.673,1.193l.008,0c.052.011.106.02.16.027l.021,0a1.181,1.181,0,0,0,.151.009l.028,0a1.533,1.533,0,0,0,.179-.011c1.787-.214,1.528-1.117,1.958-1.761s.71-.433,1.075-.068a.75.75,0,0,0,1.037.071l3.922.755a7.975,7.975,0,0,1,1.757-2.214.035.035,0,0,1,.007.01h0c.445.594,1.032,1.217,1.494,1.161.861-.106.574-1.358,1.384-1.228s.784,1.6,1.62,1.514a12.6,12.6,0,0,1,2.431.026,2.015,2.015,0,0,0,1.028-.135l.019-.01c.034-.014.066-.028.1-.046l.045-.023c.046-.026.095-.054.145-.087.023-.014.045-.03.069-.047s.048-.037.074-.054l.09-.076c.026-.022.052-.047.08-.072s.073-.071.106-.108l.056-.061c.04-.047.08-.1.121-.147a.39.39,0,0,1,.032-.044c.044-.059.085-.121.128-.187.013-.019.028-.042.042-.066.045-.071.087-.148.13-.23,0,0,0-.006.008-.008a4.342,4.342,0,0,0,.779.173,7.848,7.848,0,0,0,8.223-4.867,1.288,1.288,0,0,0,.005.433c.145.87.784.376.987,1.188s-.7,1.511.64,2.063,1.742-.842,2.877-.754.725,1.626,2.234,1.828,3.283-1.626,3.283-1.626.145,1.045,1.017,1.249a2.234,2.234,0,0,0,2.758-1.19,3.262,3.262,0,0,1,.959-1.715c.043-.028.088-.058.132-.089s.071-.047.107-.072c.008-.006.016-.011.026-.018.034-.025.071-.049.1-.075l.024-.017.112-.086a.107.107,0,0,0,.015-.014c.043-.034.084-.071.126-.11h0a2.486,2.486,0,0,0,.747-1.929C480.9,177.822,478.986,176.6,476.2,176.662Zm-11.31,3.248c.037-.108.074-.214.108-.326A.51.51,0,0,1,464.887,179.909Zm.555-3.4a2.6,2.6,0,0,0-.193-.624,2.326,2.326,0,0,0-.161-.286,12.588,12.588,0,0,0,1.63.342A5.208,5.208,0,0,0,465.443,176.512Z" transform="translate(-412.172 -152.815)" fill="#ebeaea"/>
        </g>
        <g id="Grupo_27359" data-name="Grupo 27359">
          <g id="Grupo_27357" data-name="Grupo 27357">
            <g id="Grupo_27356" data-name="Grupo 27356">
              <path id="Trazado_69220" data-name="Trazado 69220" d="M431.147,169.719s-3.591-4.118,1.578-8.587,22.953-9.987,31.1-7.623,13.141,6.045,13.316,10.252S464,174.01,459.094,175.937a17.221,17.221,0,0,1-12.528.264C443.15,174.973,431.147,169.719,431.147,169.719Z" transform="translate(-419.273 -142.889)" fill="#58991f"/>
              <path id="Trazado_69221" data-name="Trazado 69221" d="M463.546,153.6c-8.148-2.366-25.93,3.154-31.1,7.622s-1.577,8.585-1.577,8.585,12,5.256,15.419,6.484a17.215,17.215,0,0,0,12.528-.264c4.906-1.926,18.222-7.973,18.047-12.176S471.693,155.969,463.546,153.6Zm-30.083,12.832a.976.976,0,0,1-1.1-1.093c.037-.387.4-.573.728-.69.524-.186,1.1-.11,1.638-.273.022-.006.032,0,.036.025A1.556,1.556,0,0,1,433.462,166.436Zm16.562-6.137c-.282.418-.8.441-1.237.615a2.852,2.852,0,0,0-1.306,1.05,1.5,1.5,0,0,1-.42.44c-.444.251-.129-.487-.114-.639.05-.475-.155-.971.037-1.434a1.232,1.232,0,0,1,.818-.722,5.209,5.209,0,0,1,1.1-.115,1.714,1.714,0,0,1,1.071.185A.458.458,0,0,1,450.024,160.3Zm7.525,12.541A5.615,5.615,0,0,1,454.427,174a.02.02,0,0,1-.019-.012,3.371,3.371,0,0,1,.146-1.954c.147-.43.445-.792.581-1.228.07-.235-.034-.46-.012-.695s.2-.291.351-.441c.206-.2.432-.381.628-.59a2.856,2.856,0,0,1,.974-.763c1.057-.431,1.472.858,1.546,1.684A3.217,3.217,0,0,1,457.549,172.84Zm14.418-8.355a2.832,2.832,0,0,1-2.492.775.99.99,0,0,1-.743-.924,8.8,8.8,0,0,0-.042-1.567,2.045,2.045,0,0,1,.31-2.019c.233-.241.527.372.613.522.2.354.432.7.876.729a2.815,2.815,0,0,1,1.66.336C473.02,162.935,472.606,163.863,471.967,164.486Z" transform="translate(-419.158 -142.929)" fill="#58991f" opacity="0.5" style="mix-blend-mode: multiply;isolation: isolate"/>
              <path id="Trazado_69222" data-name="Trazado 69222" d="M435.987,172.795a1.8,1.8,0,0,0-.87.225c-.243.389-.369.931.106,1.2a1.27,1.27,0,0,0,1.109.047,1.3,1.3,0,0,0,.665-1.549A5.178,5.178,0,0,0,435.987,172.795Z" transform="translate(-421.334 -151.085)" fill="#58991f"/>
              <g id="Grupo_27308" data-name="Grupo 27308" transform="translate(5.82 29.577)">
                <path id="Trazado_69223" data-name="Trazado 69223" d="M431.61,186.977a15.937,15.937,0,0,0-6.825,4.312c-1.044.76-2.012.171-2.843,1.256s.362,2.056,1.555,1.7,1.533-.362,1.244.434-.07,1.913.869,2.04.956-.9,1.552-.777.656.8.63,1.354a1.8,1.8,0,0,0,2.1,1.281c1.038-.293,1.206-.025,1.543.361a.986.986,0,0,0,1.254.36c.458-.265.482-.217.41-.939s2.283-4.951,3.086-6.621,1-1.993,1.671-1.64,1.8-.9.226-2.7S433.145,186.432,431.61,186.977Z" transform="translate(-421.665 -186.301)" fill="#97c740"/>
                <path id="Trazado_69224" data-name="Trazado 69224" d="M440.322,187.99a3.194,3.194,0,0,0-.257-.255c-.314.695-1,.96-1.669,1.319-1.033.552-2.16.833-3.231,1.28-1.027.429-2.043.95-3.051,1.42a5.106,5.106,0,0,0-1.746,1.174,7.161,7.161,0,0,0-.965,1.758,3.568,3.568,0,0,1-1.642,1.855,4.1,4.1,0,0,1-.684.258,1.036,1.036,0,0,0,.776.512c.937.126.956-.9,1.552-.777s.656.8.63,1.354a1.8,1.8,0,0,0,2.1,1.281c1.038-.293,1.206-.025,1.543.361a.986.986,0,0,0,1.254.36c.458-.265.482-.217.41-.939s2.283-4.951,3.086-6.621,1-1.993,1.671-1.64S441.9,189.79,440.322,187.99Z" transform="translate(-423.91 -186.896)" fill="#97c740" opacity="0.5" style="mix-blend-mode: multiply;isolation: isolate"/>
                <path id="Trazado_69225" data-name="Trazado 69225" d="M434.439,193.454s.358-.283.935-.648c.143-.1.3-.188.471-.288s.345-.21.531-.312l.583-.31c.2-.1.4-.207.609-.3s.414-.189.619-.281.412-.171.611-.248.393-.149.578-.216c.091-.033.181-.066.269-.1s.173-.05.253-.076c.328-.1.6-.172.8-.227l.3-.079-.291.116c-.184.071-.449.18-.768.294-.08.03-.164.062-.249.092l-.259.114-.563.243c-.195.081-.4.164-.6.262s-.406.19-.611.286-.41.19-.61.294l-.585.29c-.375.2-.732.376-1.028.542s-.55.3-.722.4Z" transform="translate(-426.962 -187.987)" fill="#68b42e" style="mix-blend-mode: multiply;isolation: isolate"/>
              </g>
              <path id="Trazado_69226" data-name="Trazado 69226" d="M438.564,172.921s0-4.844,6.548-6.679a5.147,5.147,0,0,1,4.518,3.6l-5.435,6.221Z" transform="translate(-422.853 -148.405)" fill="#d8b523"/>
              <path id="Trazado_69227" data-name="Trazado 69227" d="M445.112,166.242a11.41,11.41,0,0,0-3.306,1.474h0a8.839,8.839,0,0,1,3.5.205c.531.167,2.219.99,1.638,1.768-.345.459-.939.661-1.347,1.058a14.922,14.922,0,0,0-1.778,2.117c-.015.018-.058.077-.09.056a9.686,9.686,0,0,0-4.878-1.457,5.071,5.071,0,0,0-.287,1.457l5.631,3.144,5.435-6.221A5.147,5.147,0,0,0,445.112,166.242Z" transform="translate(-422.853 -148.405)" fill="#d8b523" opacity="0.5" style="mix-blend-mode: multiply;isolation: isolate"/>
              <path id="Trazado_69228" data-name="Trazado 69228" d="M464.253,156.467a13.822,13.822,0,0,0,1.542,3.726c.9,1.221-.9,3.73,2.122,6.559,1.8,1.542,2.571.385,2.957-.706s.9-.131,1.543-.066,1.223.258,1.737-.965,1.863-.516,2.7-1.542,3.151-10.544-.963-13.051S463.224,151.644,464.253,156.467Z" transform="translate(-433.471 -141.511)" fill="#68b42e"/>
              <path id="Trazado_69229" data-name="Trazado 69229" d="M468.371,170.84c-.285-1.278-.177-2.633-.8-3.828a1.74,1.74,0,0,0-1.371-1.1,2.262,2.262,0,0,0-.267,0,6.472,6.472,0,0,0,.592,1.038c.9,1.221-.9,3.73,2.122,6.559.9.773,1.546.867,2.014.632A5.82,5.82,0,0,1,468.371,170.84Z" transform="translate(-434.205 -148.266)" fill="#68b42e" style="mix-blend-mode: multiply;isolation: isolate"/>
              <path id="Trazado_69230" data-name="Trazado 69230" d="M475.888,150.423c-4.114-2.507-12.664,1.221-11.635,6.044a17.762,17.762,0,0,0,.985,2.762,2.83,2.83,0,0,1,.658-1.471c.605-.584,1.038.438,1.133.886.173.8.164,1.641.276,2.455a2.894,2.894,0,0,0,1.33,2.392c1.1.549,2.349.449,3.5.825.685.223,1.492.689,1.541,1.46a2.173,2.173,0,0,0,.482-.759c.514-1.221,1.863-.516,2.7-1.542S480,152.93,475.888,150.423Z" transform="translate(-433.471 -141.511)" fill="#68b42e" style="mix-blend-mode: multiply;isolation: isolate"/>
              <path id="Trazado_69231" data-name="Trazado 69231" d="M446.674,199.1s1.5,3.049,3.289,2.835,1.528-1.12,1.958-1.765.711-.431,1.076-.065.989.43,1.591-.58,1.889-5.633.315-7.08-8.293-2.25-9.836.482S446.674,199.1,446.674,199.1Z" transform="translate(-425.373 -158.723)" fill="#68b42e"/>
              <path id="Trazado_69232" data-name="Trazado 69232" d="M454.9,192.448c-1.574-1.446-8.293-2.25-9.836.482a3.424,3.424,0,0,0-.41,2,2.667,2.667,0,0,1,1.689-1.275,2.071,2.071,0,0,1,1.386.138,5.653,5.653,0,0,1,1.066.993,1.5,1.5,0,0,0,1.85.246c.384-.254.738-.742,1.178-.894,1.051-.368,1.307,1.185,1.12,1.91a2.893,2.893,0,0,1-.646,1.252c-.351.386-.773.706-1.09,1.118-.624.811-.411,1.888-1.028,2.684a2.687,2.687,0,0,1-.931.754,1.635,1.635,0,0,0,.715.082c1.785-.215,1.528-1.12,1.958-1.765s.71-.431,1.076-.065.989.43,1.591-.58S456.477,193.894,454.9,192.448Z" transform="translate(-425.374 -158.723)" fill="#3e9f32"/>
              <path id="Trazado_69233" data-name="Trazado 69233" d="M418.852,164.07a10.617,10.617,0,0,1-1.867.591c-1.673.46-2.754,2.229-1.869,3.344.622.686,0,1.572-1.509,2.36s-2.26,2.228-1.7,3.311,1.7.426,1.606,1.278-.328,1.31.852,2.064,1.082,1.279.294,2.559-.424,1.9.526,2.72a1.784,1.784,0,0,0,2.491.13c.393-.525,1.049-.557,1.835.034s1.346,1.017,2.229.655a1.448,1.448,0,0,0,1.017-1.31c.131-.492.623-.556,1.278-.492s1.049-.327,1.015-1.213a1.324,1.324,0,0,0-.687-1.179s-1.85-3.407-.5-6.011c.82-1.832.675-1.832.192-2.507a4.193,4.193,0,0,1-.481-1.976S421.7,163.379,418.852,164.07Z" transform="translate(-411.72 -147.477)" fill="#68b42e"/>
              <path id="Trazado_69234" data-name="Trazado 69234" d="M428.217,180.1a1.324,1.324,0,0,0-.687-1.179s-1.85-3.407-.5-6.011c.82-1.832.675-1.832.192-2.507a4.193,4.193,0,0,1-.48-1.976s-1.869-5.047-4.72-4.357a9.4,9.4,0,0,1-1.636.526,14.927,14.927,0,0,1,.416,1.865,10.326,10.326,0,0,1-.108,3.667,19.317,19.317,0,0,0-.8,4.543c.05,1.47.814,2.686,1.2,4.072a3.69,3.69,0,0,1,.021,2.236,3.357,3.357,0,0,1-1.741,1.837,1.459,1.459,0,0,0,1.478-.39c.393-.525,1.049-.557,1.835.034s1.346,1.017,2.229.655a1.448,1.448,0,0,0,1.017-1.31c.13-.492.623-.556,1.278-.492S428.251,180.986,428.217,180.1Z" transform="translate(-414.891 -147.477)" fill="#3e9f32"/>
              <path id="Trazado_69235" data-name="Trazado 69235" d="M450.094,153.574a29.585,29.585,0,0,0-.2,3.36,2.676,2.676,0,0,1-.706,2.183,1.494,1.494,0,0,1-2.217-.336c-.637-.873-1.48-1.578-3.561-1.479s-2.588.034-2.823-1.042a6.9,6.9,0,0,1-.134-3.19c.235-1.58-2.621-4.64-2.016-5.948s-1.278-1.545-.2-2.788c.737-.706,1.209-.37,1.846-.1s1.983.238,1.949-.335a1.421,1.421,0,0,1,1.379-1.544c1.042,0,1.612,1.174,1.578,2.048S446.284,151.03,450.094,153.574Z" transform="translate(-422.576 -138.498)" fill="#68b42e"/>
              <path id="Trazado_69236" data-name="Trazado 69236" d="M450.758,168.919a5.145,5.145,0,0,0,.222-.57c.121-.389.244-.969-.143-1.257-.481-.356-1.109-.2-1.657-.186a6.918,6.918,0,0,1-2.5-.472,6.663,6.663,0,0,1-1.113-.447c-.3-.173-.507-.507-.822-.651-.956-.434-1.394.3-1.718,1.113.358.389,1.041.4,2.51.331,2.081-.1,2.923.606,3.561,1.479A1.663,1.663,0,0,0,450.758,168.919Z" transform="translate(-424.704 -147.976)" fill="#68b42e"/>
              <path id="Trazado_69237" data-name="Trazado 69237" d="M451.7,153.574c-3.81-2.544-5.141-8.3-5.107-9.173s-.536-2.048-1.578-2.048a1.421,1.421,0,0,0-1.379,1.544c.021.359-.5.5-1.051.5a2.259,2.259,0,0,0,.591.628,1.76,1.76,0,0,0,1.058.253.951.951,0,0,1,.794.245c.442.5-.129,1.217-.486,1.558a4.49,4.49,0,0,0-1.662,2.364,3.677,3.677,0,0,1-.8,1.949,2.883,2.883,0,0,1-.315.279,2.8,2.8,0,0,1,.3,1.4,6.905,6.905,0,0,0,.134,3.19,1.7,1.7,0,0,0,.239.618c.262-.69.622-1.324,1.384-1.3a1.43,1.43,0,0,1,.983.512,3.7,3.7,0,0,0,1.317.654,7.478,7.478,0,0,0,3.1.483c.438-.029,1.116-.039,1.368.414a1.447,1.447,0,0,1,.011,1.111,5.736,5.736,0,0,1-.257.661.858.858,0,0,0,.453-.294,2.676,2.676,0,0,0,.706-2.183A29.585,29.585,0,0,1,451.7,153.574Z" transform="translate(-424.177 -138.498)" fill="#3e9f32"/>
              <path id="Trazado_69238" data-name="Trazado 69238" d="M425.665,165.284a13.249,13.249,0,0,1-2.075-10.507c1.011-4.194,3.037-6.17,4-5.689s1.139.144,1.646-.532a1.435,1.435,0,0,1,2.233.093c.677.751,1.111.8,1.594.631s2.073.266,1.855,1.689a3.409,3.409,0,0,0,.337,2.387,4.351,4.351,0,0,1-1.011,4.507c-.628.484-.7.989-.723,1.93s-.434,2.242-2.483,2.217c-1.351-.1-2.195.072-2.651,1.084s-.274,1.964-1.278,2.532C426.386,166.037,425.665,165.284,425.665,165.284Z" transform="translate(-416.512 -140.867)" fill="#97c740"/>
              <path id="Trazado_69239" data-name="Trazado 69239" d="M436,153.356a3.409,3.409,0,0,1-.337-2.387c.218-1.423-1.373-1.857-1.855-1.689s-.917.121-1.594-.631a1.524,1.524,0,0,0-1.883-.407,3.378,3.378,0,0,1-.276,2.082c-1.092,2.6-3.115,4.647-4.176,7.263a10.209,10.209,0,0,0-.644,4.261,1.821,1.821,0,0,1-.171,1.013,11.028,11.028,0,0,0,1.345,2.422s.721.753,1.444.341c1-.568.82-1.518,1.278-2.532s1.3-1.179,2.651-1.084c2.05.025,2.458-1.277,2.483-2.217s.1-1.446.723-1.93A4.351,4.351,0,0,0,436,153.356Z" transform="translate(-417.253 -140.868)" fill="#97c740" opacity="0.5" style="mix-blend-mode: multiply;isolation: isolate"/>
              <g id="Grupo_27309" data-name="Grupo 27309" transform="translate(8.262 11.805)" style="mix-blend-mode: multiply;isolation: isolate">
                <path id="Trazado_69240" data-name="Trazado 69240" d="M426.307,168.089a5.128,5.128,0,0,1-.159-.507c-.037-.163-.093-.363-.132-.594-.021-.115-.046-.239-.065-.369s-.034-.27-.051-.413-.026-.295-.037-.451-.026-.318-.025-.484a9.51,9.51,0,0,1,.026-1.047c.017-.181.019-.368.047-.552s.052-.372.078-.56a5.515,5.515,0,0,1,.1-.568c.039-.189.08-.379.119-.569.1-.373.219-.744.334-1.107.138-.357.274-.706.406-1.044.157-.327.311-.642.458-.941.069-.151.16-.286.237-.421s.158-.263.233-.389a6.252,6.252,0,0,1,.425-.665l.355-.493.313-.427s-.1.162-.281.448c-.092.141-.2.314-.328.511s-.251.43-.392.682c-.069.126-.141.258-.218.393s-.156.275-.218.428c-.136.3-.277.617-.43.942-.127.335-.258.682-.39,1.036-.108.361-.218.728-.318,1.1-.042.186-.082.374-.125.559a5.484,5.484,0,0,0-.108.56q-.042.277-.084.551c-.03.183-.034.365-.053.545-.037.355-.041.7-.05,1.031-.009.165.006.325.006.48s.006.3.022.448.022.28.034.41.031.254.044.37c.024.233.068.432.1.6s.061.294.085.381S426.307,168.089,426.307,168.089Z" transform="translate(-425.836 -156.164)" fill="#68b42e"/>
                <path id="Trazado_69241" data-name="Trazado 69241" d="M426.311,164.425a1.415,1.415,0,0,1,.043-.233c.018-.073.046-.161.081-.261a2.771,2.771,0,0,1,.137-.324,4.18,4.18,0,0,1,.2-.369c.074-.13.16-.262.253-.393s.194-.269.309-.4.224-.259.346-.38.242-.243.371-.356.252-.224.38-.323.248-.2.369-.281.239-.162.343-.235a3.152,3.152,0,0,1,.3-.186c.091-.051.169-.1.235-.136.13-.072.2-.115.2-.115l-.184.149c-.119.09-.29.217-.488.376-.1.082-.207.167-.322.259s-.224.2-.345.3-.241.215-.363.328-.244.231-.359.354-.233.245-.345.368-.21.253-.313.374-.19.246-.272.366-.157.234-.22.344-.117.211-.166.3-.084.174-.112.244A2.1,2.1,0,0,0,426.311,164.425Z" transform="translate(-426.033 -157.803)" fill="#68b42e"/>
                <path id="Trazado_69242" data-name="Trazado 69242" d="M428.061,158.926a.89.89,0,0,1-.073-.112,2.329,2.329,0,0,1-.157-.318c-.024-.071-.046-.146-.069-.228-.013-.04-.024-.082-.036-.123s-.015-.088-.02-.136c-.013-.09-.03-.184-.039-.28s0-.194,0-.291,0-.2.011-.293.032-.189.049-.28.033-.176.048-.257.053-.154.076-.225c.049-.136.1-.248.129-.327s.053-.121.053-.121,0,.048-.017.132-.03.2-.056.342c-.013.07-.032.146-.043.227s-.013.166-.022.255-.017.177-.03.269,0,.186-.006.279-.008.188,0,.279.015.181.022.269c0,.045.006.087.008.131s.015.082.021.121c.013.082.024.157.036.228s.031.131.043.188a1.02,1.02,0,0,0,.041.143C428.044,158.879,428.061,158.926,428.061,158.926Z" transform="translate(-426.594 -155.936)" fill="#68b42e"/>
              </g>
              <path id="Trazado_69243" data-name="Trazado 69243" d="M447.369,175.628a10.079,10.079,0,0,1,5.036-6.113c1.145-.574,1.276-.509,1.986-1.457a4.1,4.1,0,0,1,3.832-1.446c1.492.313,1.614,1.564,1.261,2.979s.063,1.672.963,2.927,1.381,3.213.514,4.4-.835,1.158-.9,2.057-.578,1.158-1.511,1.351-1.125.483-1.672,1.576a2.4,2.4,0,0,1-2.666,1.253c-1.191-.1-1.029-1.349-1.994-.547s-2.089,1.737-3.5.8-.836-1.35-.676-1.929-.643-.517-1.253-.449c-.868.1-.676-.45-.386-1.7S447.019,177.39,447.369,175.628Z" transform="translate(-426.003 -148.53)" fill="#97c740"/>
              <path id="Trazado_69244" data-name="Trazado 69244" d="M461.726,172.652c-.9-1.255-1.317-1.512-.963-2.927.317-1.272.248-2.413-.859-2.858a1.919,1.919,0,0,1-.2.518,4.29,4.29,0,0,1-.877,1.021c-.484.44-.958.893-1.422,1.354a22.663,22.663,0,0,0-4.535,6.93,15.641,15.641,0,0,0-.777,2.078c-.158.555-.229,1.138-.432,1.682a4.044,4.044,0,0,1-1.3,1.814,4.585,4.585,0,0,1-1.118.63,2.912,2.912,0,0,0,.757.654c1.414.933,2.538,0,3.5-.8s.8.451,1.994.547a2.4,2.4,0,0,0,2.666-1.253c.546-1.092.74-1.381,1.672-1.576s1.446-.449,1.511-1.351.032-.867.9-2.057S462.625,173.905,461.726,172.652Z" transform="translate(-427.28 -148.664)" fill="#97c740" opacity="0.5" style="mix-blend-mode: multiply;isolation: isolate"/>
              <path id="Trazado_69245" data-name="Trazado 69245" d="M499.672,173.874s-.069-1.635,1.326-1.464c1.09.069,1.329-.51,1.5-1.4a1.786,1.786,0,0,1,2.521-1.4c1.6.51,5.414,2.281,7.151,1.329s2.486-.989,2.962-.444a1.6,1.6,0,0,1-.033,1.772c-.238.51.306.955.885,1.4a1.613,1.613,0,0,1,.544,2.281c-.578,1.261-1.157,1.261-1.77.989s-1.3-.341-1.634.51.033,1.806-.751,2.383-1.435-.139-1.77-.375c-.682-.477-.682.852-2.008,1.056a24.559,24.559,0,0,1-6.124.21c-1.737-.289-3.231-.531-3.471-2.36S499.91,175.557,499.672,173.874Z" transform="translate(-447.902 -149.748)" fill="#68b42e"/>
              <path id="Trazado_69246" data-name="Trazado 69246" d="M515.982,174.6c-.579-.441-1.123-.886-.885-1.4a1.909,1.909,0,0,0,.215-1.481,4.01,4.01,0,0,0-1.34.619,5.242,5.242,0,0,0-1.533,1.664c-.287.529-.449,1.1-.688,1.652a2.029,2.029,0,0,1-.572.832,4.3,4.3,0,0,1-1.5.548,14.218,14.218,0,0,1-1.886.363,3.7,3.7,0,0,0-1.079.2,5.589,5.589,0,0,0-.656.454,4.012,4.012,0,0,1-1.535.53,6.372,6.372,0,0,0-1.8.76c-.561.309-1.81,1.031-2.1.049-.058-.208-.078-.436-.151-.637-.095-.26-.229-.5-.317-.766a1.55,1.55,0,0,1,.253-1.133,2.341,2.341,0,0,0,.358-1.027,2.428,2.428,0,0,0-.3-1.049,5.113,5.113,0,0,0-.461-.838c-.032-.039-.062-.078-.094-.118a2.02,2.02,0,0,0-.231.976c.238,1.683-.917,2.657-.674,4.49s1.734,2.071,3.471,2.36a24.559,24.559,0,0,0,6.124-.21c1.326-.2,1.326-1.533,2.008-1.056.335.235.987.954,1.77.375s.41-1.531.751-2.383,1.021-.784,1.634-.51,1.192.272,1.77-.989A1.613,1.613,0,0,0,515.982,174.6Z" transform="translate(-447.902 -150.678)" fill="#3e9f32"/>
              <path id="Trazado_69247" data-name="Trazado 69247" d="M469.148,190.7s1.3,2.274,2.165,2.17.574-1.359,1.384-1.227.785,1.594,1.621,1.515a12.636,12.636,0,0,1,2.43.026c.706.078,1.83-.077,2.562-2.064a31.473,31.473,0,0,1,7.114-9.786c1.447-1.3,1.222-1.353.939-2.314s.109-.874.458-1.4a2.326,2.326,0,0,0-.591-2.49c-.764-.94-1.594-.263-2.36-.023s-.654.023-1.157-.59-1.422-.263-2.493.35-1.2,1.4-2.141.852a1.763,1.763,0,0,0-2.579.873c-.5,1.115.249,2.718-.876,4.353-1.591,2.316-1.686,2.8-3.663,3.955S468.506,189.125,469.148,190.7Z" transform="translate(-435.474 -151.704)" fill="#97c740"/>
              <path id="Trazado_69248" data-name="Trazado 69248" d="M487.821,178.123a2.326,2.326,0,0,0-.591-2.49,1.636,1.636,0,0,0-.218-.222A35.839,35.839,0,0,0,483,177.747a26.82,26.82,0,0,0-2.545,1.945c-.372.327-.739.648-1.131.952a3.492,3.492,0,0,0-1.1,1.179,3.123,3.123,0,0,1-1.26,1.577,1.926,1.926,0,0,1-1.5.1,4.976,4.976,0,0,1-.943-.43,6.552,6.552,0,0,1-2.563,2.328c-1.977,1.157-3.457,4.226-2.814,5.8a11.213,11.213,0,0,0,.671,1.01,3.8,3.8,0,0,1,1.845-1.477,2.25,2.25,0,0,1,1.993.122c.244.194.462.507.8.52.373.013.637-.256.99-.273,1.073-.055,1.727,1.314,2,2.147.039.125.078.249.111.375.6-.173,1.258-.682,1.746-2.005a31.473,31.473,0,0,1,7.114-9.786c1.447-1.3,1.222-1.353.939-2.314S487.472,178.649,487.821,178.123Z" transform="translate(-435.474 -152.208)" fill="#97c740" opacity="0.5" style="mix-blend-mode: multiply;isolation: isolate"/>
              <path id="Trazado_69249" data-name="Trazado 69249" d="M502.651,147.678a5.724,5.724,0,0,1,2.795-.546c1.382.16,1.254.77,1.157,1.253s.449.482,1.574.064,1.865-.354,2.411.289.354,1.189-.063,1.865-.451,1.221.354,1.479a1.314,1.314,0,0,1,.481,2.057c-.547.707-1.221.225-.932.9a.625.625,0,0,1-.258.9l-7.682-2.764S500.143,151.213,502.651,147.678Z" transform="translate(-448.951 -140.47)" fill="#97c740"/>
              <path id="Trazado_69250" data-name="Trazado 69250" d="M510.982,154.581a2.647,2.647,0,0,1-.939-.664,7.44,7.44,0,0,1-1.086-1.773c-.229-.477-.513-1.459-1.172-1.5a8.449,8.449,0,0,0-2.034.451c-.49.1-1.306.323-1.744-.042-.544-.452-.228-1.351-.147-1.932a4.437,4.437,0,0,0-.075-1.724,6.281,6.281,0,0,0-1.133.4c-2.508,3.535-.162,5.5-.162,5.5l7.682,2.764a.625.625,0,0,0,.258-.9C510.2,154.635,510.557,154.8,510.982,154.581Z" transform="translate(-448.951 -140.589)" fill="#97c740" style="mix-blend-mode: multiply;isolation: isolate"/>
              <g id="Grupo_27311" data-name="Grupo 27311" transform="translate(52.495 10.006)">
                <path id="Trazado_69251" data-name="Trazado 69251" d="M507.773,152.862l-4.851,2.216a.5.5,0,0,1-.026.045,7,7,0,0,0,2.2,5.815,12.045,12.045,0,0,0,7.587,4l3.22-4.653A10.707,10.707,0,0,1,507.773,152.862Z" transform="translate(-502.006 -152.862)" fill="#f2d038"/>
                <g id="Grupo_27310" data-name="Grupo 27310" transform="translate(0 2.261)">
                  <path id="Trazado_69252" data-name="Trazado 69252" d="M504.5,162.54a7,7,0,0,1-2.2-5.815c-.077.135-.338.591-.889,1.5.289,7.956,10.755,9.284,10.755,9.284l-.082-.963A12.045,12.045,0,0,1,504.5,162.54Z" transform="translate(-501.412 -156.725)" fill="#6c8424"/>
                  <path id="Trazado_69253" data-name="Trazado 69253" d="M522.867,165.552l-3.22,4.653.082.963,2.964-3.522A12,12,0,0,0,522.867,165.552Z" transform="translate(-508.974 -160.386)" fill="#e39042"/>
                </g>
              </g>
              <g id="Grupo_27313" data-name="Grupo 27313" transform="translate(38.821)">
                <path id="Trazado_69254" data-name="Trazado 69254" d="M479.532,146.849s3.037.7,3,1.869.235,2.1,2.453,2.765,3.584.586,5.3,1.986,2.921,1.17,3.429-1.44a6.064,6.064,0,0,0-1.13-4.985c-.624-1.012-.2-1.6.622-2.416s.429-2.063-1.284-2.919-.507-1.208-1.285-2.415a2.334,2.334,0,0,0-2.922-.857c-.934.313-1.247.039-1.168-1.09s-1.012-1.713-2.065-1.556-1.379,1.074-1.752,1.4c-.624.545-.544.311-1.324-.117s-2.1.039-1.986,1.869-.194,1.907-.661,2.61-1.168,1.713-.272,2.531S477.384,146.138,479.532,146.849Z" transform="translate(-478.049 -135.766)" fill="#68b42e"/>
                <path id="Trazado_69255" data-name="Trazado 69255" d="M492.1,153.064a22.181,22.181,0,0,1-3.92-4.813c-.723-1.09-1.487-2.523-2.862-2.834a3.958,3.958,0,0,1-2.389-1.148c-1.051-1.237-.863-3.172-.516-4.634a15.017,15.017,0,0,1,.926-2.717c-.253.289-.427.591-.609.752-.624.545-.544.311-1.324-.117s-2.1.039-1.986,1.869-.194,1.907-.661,2.61-1.168,1.713-.272,2.531-1.1,2.052,1.051,2.763c0,0,3.037.7,3,1.869s.235,2.1,2.453,2.765,3.584.586,5.3,1.986c1.334,1.091,2.359,1.191,2.988-.046A9.159,9.159,0,0,1,492.1,153.064Z" transform="translate(-478.049 -136.244)" fill="#3e9f32"/>
                <g id="Grupo_27312" data-name="Grupo 27312" transform="translate(3.769 4.444)" style="mix-blend-mode: multiply;isolation: isolate">
                  <path id="Trazado_69256" data-name="Trazado 69256" d="M484.489,147.311s.123.162.354.435a10.919,10.919,0,0,0,1.01,1.066,3.154,3.154,0,0,0,.788.551c.318.155.658.27,1.015.406s.732.262,1.1.428c.1.037.185.089.276.133a2.042,2.042,0,0,1,.272.148c.088.057.176.1.266.17l.119.092c.041.035.08.074.119.111a5.431,5.431,0,0,1,.745.986c.213.343.4.691.585,1.027s.347.666.519.965c.085.15.188.283.284.418s.184.266.273.389c.174.252.334.481.478.684s.272.375.378.52c.209.288.33.451.33.451l-.362-.429c-.112-.139-.255-.3-.406-.5s-.323-.42-.507-.663c-.091-.121-.188-.248-.287-.38a4.994,4.994,0,0,1-.3-.419c-.185-.3-.364-.623-.548-.958s-.376-.675-.588-1.01a5.362,5.362,0,0,0-.725-.942c-.035-.034-.067-.067-.1-.1l-.119-.095c-.071-.054-.164-.106-.246-.159a2.116,2.116,0,0,0-.259-.145c-.089-.044-.173-.094-.266-.132-.359-.165-.73-.3-1.086-.435a8.874,8.874,0,0,1-1.017-.437,3.257,3.257,0,0,1-.8-.6,7.645,7.645,0,0,1-.568-.617c-.158-.193-.29-.362-.4-.5C484.6,147.482,484.489,147.311,484.489,147.311Z" transform="translate(-484.489 -144.999)" fill="#68b42e"/>
                  <path id="Trazado_69257" data-name="Trazado 69257" d="M495.8,159.228s-.147-.017-.359-.066c-.052-.011-.112-.025-.171-.04l-.19-.04c-.132-.028-.27-.064-.409-.1a7.554,7.554,0,0,1-.749-.246,3.492,3.492,0,0,1-.336-.147,3.369,3.369,0,0,1,.363.039,7.681,7.681,0,0,1,.777.17c.141.04.28.078.409.122a2.663,2.663,0,0,1,.343.136A3.586,3.586,0,0,1,495.8,159.228Z" transform="translate(-488.263 -149.677)" fill="#68b42e"/>
                  <path id="Trazado_69258" data-name="Trazado 69258" d="M488.892,143.36a3.049,3.049,0,0,0,.032.34,6.039,6.039,0,0,0,.2.875,5.84,5.84,0,0,0,.2.562c.037.1.084.2.131.3s.092.2.149.3c.1.205.229.409.355.614.067.1.136.2.2.3s.149.194.224.291c.149.2.316.372.476.564l.47.545c.156.172.277.37.408.542a5.069,5.069,0,0,1,.328.513,2.925,2.925,0,0,1,.227.462.94.94,0,0,0,.043.1c.009.037.019.07.027.1.018.066.036.123.049.177a.928.928,0,0,1,.017.255.256.256,0,0,1-.015.088.258.258,0,0,0,0-.09,1.114,1.114,0,0,0-.041-.244c-.019-.053-.041-.108-.063-.168-.011-.029-.025-.062-.036-.1s-.033-.062-.052-.1a3.827,3.827,0,0,0-.253-.434,4.846,4.846,0,0,0-.346-.483c-.067-.084-.135-.169-.205-.256s-.138-.174-.219-.26c-.154-.174-.317-.352-.481-.535s-.337-.365-.488-.566c-.074-.1-.154-.2-.227-.3s-.139-.211-.207-.314c-.129-.212-.248-.424-.351-.638a3.274,3.274,0,0,1-.139-.318,2.867,2.867,0,0,1-.118-.312,5.426,5.426,0,0,1-.172-.584,4.777,4.777,0,0,1-.128-.9A2.277,2.277,0,0,1,488.892,143.36Z" transform="translate(-486.311 -143.36)" fill="#68b42e"/>
                  <path id="Trazado_69259" data-name="Trazado 69259" d="M494.219,146.339s.013.063.032.172.048.27.071.461.05.416.071.654.031.5.044.753.009.512.005.753-.02.467-.036.657-.046.353-.06.464-.029.176-.029.176,0-.066-.008-.179-.008-.27-.013-.464-.016-.414-.022-.653-.019-.493-.029-.747-.015-.511-.023-.75-.009-.462-.011-.654,0-.353,0-.465S494.219,146.339,494.219,146.339Z" transform="translate(-488.521 -144.595)" fill="#68b42e"/>
                </g>
                <path id="Trazado_69260" data-name="Trazado 69260" d="M499.968,145.423a2.814,2.814,0,0,0-1.071-1.442,3.953,3.953,0,0,0-1.086-.409c-.738-.249-.675-.959-.682-1.558-.022-1.548-1.263-1.827-2.5-1.281-.049.022-.25.107-.159.084.958-.258,1.986-.284,2.359.849.179.544-.074,1.12.132,1.655a1.365,1.365,0,0,0,.956.668,3.209,3.209,0,0,1,2.128,1.753C500.1,145.862,500,145.521,499.968,145.423Z" transform="translate(-484.85 -137.72)" fill="#89bd27" style="mix-blend-mode: screen;isolation: isolate"/>
              </g>
              <g id="Grupo_27314" data-name="Grupo 27314" transform="translate(24.831 20.295)" style="mix-blend-mode: multiply;isolation: isolate">
                <path id="Trazado_69261" data-name="Trazado 69261" d="M460.188,170.442s-.14.155-.373.434-.558.682-.941,1.174c-.186.248-.4.512-.6.805-.1.145-.211.294-.319.445l-.322.475c-.225.317-.432.659-.654,1s-.418.706-.625,1.065c-.191.366-.4.726-.578,1.093-.085.183-.173.365-.257.547-.043.09-.085.177-.129.268s-.073.181-.11.273c-.072.178-.143.355-.214.529-.035.085-.07.17-.106.255s-.058.171-.085.256c-.056.169-.112.333-.166.49a4.52,4.52,0,0,0-.142.464c-.076.3-.149.578-.21.822s-.083.465-.118.643c-.061.359-.1.562-.1.562s.02-.207.06-.568c.025-.18.034-.4.083-.651s.111-.53.177-.835c.028-.155.08-.31.126-.471s.1-.329.153-.5c.026-.086.052-.173.078-.262s.065-.173.1-.262c.069-.176.138-.356.208-.538.036-.091.073-.182.108-.275s.084-.181.127-.273c.084-.183.169-.367.255-.556.174-.37.379-.736.571-1.107.212-.358.419-.719.64-1.066s.438-.688.668-1c.112-.16.221-.318.332-.472l.333-.438c.214-.285.432-.545.628-.79.4-.48.749-.866,1-1.131S460.188,170.442,460.188,170.442Z" transform="translate(-454.147 -170.442)" fill="#97c740"/>
                <path id="Trazado_69262" data-name="Trazado 69262" d="M459.078,176.689s-.03.1-.071.282-.1.437-.151.748c-.03.154-.053.324-.078.5s-.041.367-.063.564-.036.4-.042.6-.019.416-.015.624,0,.417.015.624.028.408.044.6.047.382.071.561c.013.09.025.176.037.26s.033.163.048.239c.036.153.057.3.088.424s.061.232.084.322c.046.178.071.28.071.28l-.107-.269q-.05-.131-.118-.314c-.043-.123-.081-.263-.123-.417-.02-.077-.044-.157-.065-.241s-.037-.17-.054-.26a5.529,5.529,0,0,1-.1-.567c-.022-.2-.057-.4-.063-.613s-.024-.421-.021-.634.008-.427.021-.636.041-.413.06-.612a9.927,9.927,0,0,1,.2-1.069,6.945,6.945,0,0,1,.222-.735C459.034,176.785,459.078,176.689,459.078,176.689Z" transform="translate(-455.938 -173.033)" fill="#97c740"/>
                <path id="Trazado_69263" data-name="Trazado 69263" d="M457.763,175.532l-.184.073c-.118.047-.282.118-.473.211s-.414.208-.643.343c-.113.069-.232.136-.346.215s-.236.154-.348.239-.226.17-.334.258-.211.179-.311.266-.186.182-.276.266-.166.169-.236.248-.142.15-.2.218l-.142.175-.127.153s.032-.064.1-.174l.115-.2c.045-.076.1-.155.168-.244a2.866,2.866,0,0,1,.216-.277,3.886,3.886,0,0,1,.265-.29,4.074,4.074,0,0,1,.31-.288c.11-.091.219-.187.339-.269s.238-.166.362-.242.246-.139.365-.208a5.363,5.363,0,0,1,.682-.293,4.177,4.177,0,0,1,.5-.146C457.691,175.542,457.763,175.532,457.763,175.532Z" transform="translate(-454.147 -172.553)" fill="#97c740"/>
              </g>
              <path id="Trazado_69264" data-name="Trazado 69264" d="M449.879,146.522s-1.824-4.156,1.422-5.944c1.168-.4,2.99.146,4.011-1.057s1.642-1.348,2.7-.876a4.649,4.649,0,0,0,3.791.219,4.111,4.111,0,0,1,4.012.219c1.167.8,2.042,2.444,1.131,3.793a3.835,3.835,0,0,0-.731,2.662,2.606,2.606,0,0,1-2.662,2.19c-1.9.108-2.37.363-2.771,1.531s-1.131,4.084-3.791,3.975S451.338,149.33,449.879,146.522Z" transform="translate(-427.334 -136.856)" fill="#97c740"/>
              <path id="Trazado_69265" data-name="Trazado 69265" d="M468.487,139.244a3.584,3.584,0,0,0-.943-.461,7,7,0,0,1-1.18.762c-1.047.535-2.195.816-3.279,1.26a13.417,13.417,0,0,0-6.422,6.569c-.66,1.586-.3,2.208-.853,3.834a6.358,6.358,0,0,0,3.853,2.186c2.661.109,3.391-2.809,3.791-3.975s.876-1.423,2.771-1.531a2.606,2.606,0,0,0,2.662-2.19,3.835,3.835,0,0,1,.731-2.662C470.529,141.688,469.654,140.047,468.487,139.244Z" transform="translate(-430.005 -137.017)" fill="#97c740" opacity="0.5" style="mix-blend-mode: multiply;isolation: isolate"/>
              <path id="Trazado_69266" data-name="Trazado 69266" d="M495.261,205.309l-.451.864.8.844.27-.675Z" transform="translate(-446.179 -164.607)" fill="#f5aca2"/>
              <g id="Grupo_27315" data-name="Grupo 27315" transform="translate(49.081 39.9)">
                <path id="Trazado_69267" data-name="Trazado 69267" d="M496.182,207.315a11.855,11.855,0,0,0,4.3-.651c.042-.812.06-.615.06-.615l-4.086.59Z" transform="translate(-495.83 -204.805)" fill="#ef7e8a"/>
                <path id="Trazado_69268" data-name="Trazado 69268" d="M495.58,204.74l.622,1.033,4.086-.59-.744-1.245Z" transform="translate(-495.58 -203.939)" fill="#f39b99"/>
              </g>
              <g id="Grupo_27317" data-name="Grupo 27317" transform="translate(52.472 30.569)">
                <path id="Trazado_69269" data-name="Trazado 69269" d="M501.888,189.174s2.761-2.613,11.04-.057c2.787-.06,4.7,1.161,4.676,2.76a2.536,2.536,0,0,1-1.395,2.41,3.282,3.282,0,0,0-.96,1.714,2.236,2.236,0,0,1-2.758,1.192c-.871-.2-1.017-1.251-1.017-1.251s-1.772,1.832-3.283,1.628-1.1-1.741-2.236-1.83-1.539,1.305-2.874.754-.437-1.248-.64-2.063-.842-.318-.987-1.189.523-1.019.173-1.365A2.673,2.673,0,0,1,501.888,189.174Z" transform="translate(-501.374 -187.996)" fill="#97c740"/>
                <path id="Trazado_69270" data-name="Trazado 69270" d="M514.66,195.264a9.374,9.374,0,0,1-3.577-.761,25.037,25.037,0,0,0-3.471-1.776,11.388,11.388,0,0,0-3.265-.541,9.734,9.734,0,0,0-2.973.406,1.664,1.664,0,0,0,.253,1.022c.35.346-.318.493-.173,1.365s.784.376.987,1.189-.7,1.51.64,2.063,1.742-.841,2.874-.754.726,1.626,2.236,1.83,3.283-1.628,3.283-1.628.146,1.048,1.017,1.251a2.236,2.236,0,0,0,2.758-1.192,3.281,3.281,0,0,1,.96-1.714,3.106,3.106,0,0,0,1.011-.919A9.914,9.914,0,0,1,514.66,195.264Z" transform="translate(-501.374 -189.733)" fill="#97c740" opacity="0.5" style="mix-blend-mode: multiply;isolation: isolate"/>
                <g id="Grupo_27316" data-name="Grupo 27316" transform="translate(1.003 2.093)" style="mix-blend-mode: multiply;isolation: isolate">
                  <path id="Trazado_69271" data-name="Trazado 69271" d="M503.087,192.1s.151-.016.417-.023.644-.015,1.1.007c.228.016.475.026.736.053s.535.051.818.095.574.1.869.147c.294.066.592.128.888.205.147.042.293.084.44.128l.218.064.212.075c.282.1.565.194.826.315a6.664,6.664,0,0,1,.745.353l.335.181c.054.03.108.06.16.087l.147.1c.193.125.365.242.52.346s.27.218.375.3l.32.268s-.125-.085-.342-.238c-.11-.075-.239-.173-.393-.274s-.341-.193-.535-.308c-.046-.031-.1-.06-.149-.089l-.161-.08c-.11-.053-.223-.108-.341-.163-.229-.122-.486-.217-.747-.327s-.537-.2-.818-.3l-.211-.071-.216-.06c-.146-.041-.29-.08-.436-.121-.29-.08-.585-.146-.874-.216-.293-.053-.578-.119-.859-.158s-.55-.09-.807-.119-.5-.061-.729-.085c-.451-.037-.829-.07-1.093-.077S503.087,192.1,503.087,192.1Z" transform="translate(-503.087 -191.779)" fill="#97c740"/>
                  <path id="Trazado_69272" data-name="Trazado 69272" d="M510.883,192.346a1.838,1.838,0,0,1,.17-.105,4.265,4.265,0,0,1,.469-.226c.1-.043.211-.084.328-.125s.242-.081.375-.112.269-.068.408-.093.283-.046.427-.069.289-.025.43-.037.283,0,.419-.008.266.012.389.018.241.026.349.036.2.026.29.048.16.034.222.047c.123.027.192.046.192.046s-.073,0-.2-.008l-.226-.014c-.085-.008-.185,0-.293-.008s-.221-.009-.343,0-.249,0-.383.007c-.265.013-.546.032-.825.068-.141.019-.281.033-.418.06s-.272.045-.4.074c-.26.055-.5.117-.7.176A6.822,6.822,0,0,0,510.883,192.346Z" transform="translate(-506.32 -191.571)" fill="#97c740"/>
                  <path id="Trazado_69273" data-name="Trazado 69273" d="M506.327,192.181a3.3,3.3,0,0,1,.423.174,4.368,4.368,0,0,1,.414.224c.147.087.294.2.445.3l.211.177a2.338,2.338,0,0,1,.2.179c.061.063.118.125.169.184a1.791,1.791,0,0,1,.146.169c.08.115.138.215.18.282s.064.11.064.11-.035-.031-.093-.085-.142-.135-.234-.231c-.048-.046-.108-.091-.163-.142s-.122-.1-.183-.16-.136-.1-.2-.161-.138-.111-.207-.169-.145-.1-.216-.159-.138-.108-.209-.154c-.136-.1-.264-.193-.374-.27Z" transform="translate(-504.431 -191.824)" fill="#97c740"/>
                </g>
              </g>
              <g id="Grupo_27318" data-name="Grupo 27318" transform="translate(26.411 4.087)" style="mix-blend-mode: multiply;isolation: isolate">
                <path id="Trazado_69274" data-name="Trazado 69274" d="M456.847,149.449s.005-.006.015-.022.016-.037.03-.068l.1-.272c.093-.233.225-.568.423-.953.1-.193.209-.4.332-.612s.261-.438.417-.658.318-.449.494-.673.36-.445.555-.658a13.154,13.154,0,0,1,1.23-1.164c.208-.171.416-.332.619-.474s.4-.271.576-.39.352-.221.506-.3.286-.16.4-.217l.352-.173-.333.207c-.11.062-.235.151-.38.244s-.3.212-.482.329-.364.262-.554.415-.39.318-.595.49a12.91,12.91,0,0,0-1.2,1.166c-.194.207-.379.423-.558.639s-.342.435-.5.654a13.884,13.884,0,0,0-.79,1.229c-.211.372-.376.689-.485.915-.056.115-.1.2-.129.26a.558.558,0,0,1-.037.068C456.852,149.444,456.845,149.449,456.847,149.449Z" transform="translate(-456.847 -142.776)" fill="#68b42e"/>
                <path id="Trazado_69275" data-name="Trazado 69275" d="M461.43,142.749l-.112.462c-.035.138-.069.3-.114.47-.021.085-.037.176-.06.265s-.047.18-.061.273-.04.184-.058.275-.041.179-.052.266c-.028.173-.069.333-.085.472s-.041.259-.053.34-.026.13-.026.13-.006-.046-.013-.131-.015-.2-.019-.348a3.98,3.98,0,0,1,.029-.49,1.805,1.805,0,0,1,.035-.275c.017-.092.035-.188.054-.282.04-.187.094-.37.146-.542s.114-.33.173-.46A3.434,3.434,0,0,1,461.43,142.749Z" transform="translate(-458.476 -142.749)" fill="#68b42e"/>
              </g>
              <g id="Grupo_27319" data-name="Grupo 27319" transform="translate(41.737 25.279)" style="mix-blend-mode: multiply;isolation: isolate">
                <path id="Trazado_69276" data-name="Trazado 69276" d="M483.031,185.341s.06-.13.178-.348.3-.529.535-.885c.115-.18.248-.37.392-.569s.3-.407.462-.619.343-.424.533-.631.374-.424.576-.628l.3-.3c.1-.1.208-.193.311-.289.2-.193.417-.369.624-.54a7.41,7.41,0,0,1,.612-.472c.1-.073.2-.143.289-.21s.19-.125.281-.181c.179-.118.345-.224.5-.313l.394-.212.347-.183s-.12.081-.327.217c-.107.065-.232.147-.378.241s-.3.215-.471.339l-.27.194-.276.222c-.19.149-.391.311-.591.486s-.41.351-.608.547l-.3.29-.3.3c-.2.2-.391.408-.581.612s-.36.417-.535.619-.332.4-.481.6-.291.375-.416.548c-.252.341-.455.633-.589.842S483.031,185.341,483.031,185.341Z" transform="translate(-483.031 -178.957)" fill="#97c740"/>
                <path id="Trazado_69277" data-name="Trazado 69277" d="M483.588,188.291a1.115,1.115,0,0,1,.095-.095c.065-.059.159-.139.276-.228.059-.044.128-.085.2-.132a2.249,2.249,0,0,1,.228-.135c.084-.042.168-.087.258-.128a2.6,2.6,0,0,1,.272-.112c.094-.035.185-.07.276-.1s.186-.048.276-.071.177-.042.261-.06a1.868,1.868,0,0,1,.235-.033c.147-.016.27-.02.356-.028s.134-.006.134-.006-.046.016-.128.041-.2.063-.337.1c-.069.021-.148.036-.226.066s-.162.056-.246.081l-.265.087c-.088.032-.177.068-.266.1s-.183.061-.268.1-.17.074-.254.111-.162.073-.236.108-.146.069-.211.1c-.127.069-.238.12-.311.164S483.588,188.291,483.588,188.291Z" transform="translate(-483.262 -182.359)" fill="#97c740"/>
                <path id="Trazado_69278" data-name="Trazado 69278" d="M485,184.571a4.091,4.091,0,0,1-.008-.462,6.065,6.065,0,0,1,.123-1.01c.043-.179.077-.361.134-.526a4.378,4.378,0,0,1,.157-.449c.052-.129.106-.232.14-.306s.057-.114.057-.114-.008.046-.022.126-.037.193-.071.325-.058.293-.1.458c-.021.084-.036.171-.054.259s-.035.177-.054.264c-.039.178-.069.358-.108.527s-.065.323-.093.458-.054.248-.073.325S485,184.571,485,184.571Z" transform="translate(-483.842 -180.097)" fill="#97c740"/>
              </g>
              <g id="Grupo_27320" data-name="Grupo 27320" transform="translate(52.964 24.661)" style="mix-blend-mode: multiply;isolation: isolate">
                <path id="Trazado_69279" data-name="Trazado 69279" d="M502.214,183.983s.138-.1.387-.25.609-.373,1.053-.612.965-.512,1.538-.774c.287-.131.586-.256.89-.39s.617-.254.934-.368.634-.23.949-.324.627-.2.934-.277.6-.162.883-.216.55-.123.8-.156.479-.071.68-.1.384-.033.529-.047c.293-.02.46-.035.46-.035s-.166.028-.456.073c-.145.024-.32.044-.521.08s-.425.091-.671.138-.509.119-.788.187-.568.153-.87.241-.609.184-.922.284-.622.222-.938.336-.626.238-.931.354-.605.248-.891.378-.565.246-.823.368-.508.238-.734.348c-.449.222-.825.409-1.083.548Z" transform="translate(-502.214 -178.951)" fill="#68b42e"/>
                <path id="Trazado_69280" data-name="Trazado 69280" d="M510.765,180.193a1.27,1.27,0,0,1,.08-.137c.054-.086.138-.208.246-.348.052-.071.118-.142.183-.216a3.162,3.162,0,0,1,.217-.234c.08-.076.163-.152.247-.232s.177-.152.269-.225.189-.142.28-.212.194-.121.287-.181l.274-.161a1.747,1.747,0,0,1,.253-.126c.162-.072.3-.123.393-.162s.15-.057.15-.057-.047.035-.133.091-.207.135-.356.225a2.635,2.635,0,0,0-.233.151c-.082.058-.167.116-.255.18s-.183.12-.27.192-.179.14-.271.211a3.172,3.172,0,0,0-.266.214c-.084.076-.171.145-.252.215s-.157.145-.229.21-.147.126-.205.188c-.123.123-.231.221-.3.3Z" transform="translate(-505.76 -177.902)" fill="#68b42e"/>
              </g>
              <g id="Grupo_27324" data-name="Grupo 27324" transform="translate(33.647 11.241)">
                <g id="Grupo_27322" data-name="Grupo 27322">
                  <path id="Trazado_69281" data-name="Trazado 69281" d="M483.488,160.082c-.869-.641-1.223-1.68-.356-3.368l-.1-.723S480.915,158.442,483.488,160.082Z" transform="translate(-474.602 -155.395)" fill="#e39042"/>
                  <g id="Grupo_27321" data-name="Grupo 27321">
                    <path id="Trazado_69282" data-name="Trazado 69282" d="M475.119,168.124c-5.668-1.879-5.843-5.333-5.823-5.972a6.206,6.206,0,0,0,.343,3.287c1.734,4.677,11.233,5.4,14.9,2.411-.065-.436-.135-.889-.2-1.331A10.646,10.646,0,0,1,475.119,168.124Z" transform="translate(-469.209 -157.95)" fill="#6c8424"/>
                    <path id="Trazado_69283" data-name="Trazado 69283" d="M475.18,165.147a10.646,10.646,0,0,0,9.215-1.6c-.238-1.555-.473-2.96-.473-2.96s-3.974.393-5.766-.923c-2.573-1.639-.453-4.091-.453-4.091a5.806,5.806,0,0,0-2.944-.356,5.657,5.657,0,0,1-2.736-.24,7.07,7.07,0,0,0-2.666,4.2C469.337,159.814,469.512,163.268,475.18,165.147Z" transform="translate(-469.27 -154.973)" fill="#f2d038"/>
                  </g>
                </g>
                <g id="Grupo_27323" data-name="Grupo 27323" transform="translate(0.668 0.866)" style="mix-blend-mode: screen;isolation: isolate">
                  <path id="Trazado_69284" data-name="Trazado 69284" d="M475.009,163.863a9.153,9.153,0,0,1-3.37-2.274,3.353,3.353,0,0,1-.691-2.543A6.5,6.5,0,0,1,472.2,156.7c.1-.175-.02-.358-.175-.163-.248.31-.611.511-.833.843a5.968,5.968,0,0,0-.593,1.161,4.054,4.054,0,0,0-.049,2.64,5.369,5.369,0,0,0,4.155,3.338C474.929,164.557,475.243,163.986,475.009,163.863Z" transform="translate(-470.35 -156.452)" fill="#f2d038"/>
                  <path id="Trazado_69285" data-name="Trazado 69285" d="M480.112,170.14a1.97,1.97,0,0,1-.807-.383c-.134-.153-.356.221-.277.354a.89.89,0,0,0,.924.45C480.056,170.532,480.278,170.21,480.112,170.14Z" transform="translate(-473.942 -161.955)" fill="#f2d038"/>
                </g>
              </g>
              <g id="Grupo_27325" data-name="Grupo 27325" transform="translate(43.415 29.192)">
                <path id="Trazado_69286" data-name="Trazado 69286" d="M490.067,186.09a11.236,11.236,0,0,0-4.127,1.884c-.037.03-.073.178,0,.126a16.546,16.546,0,0,1,4.089-1.818C490.1,186.258,490.171,186.062,490.067,186.09Z" transform="translate(-485.898 -185.827)" fill="#fff"/>
                <path id="Trazado_69287" data-name="Trazado 69287" d="M495.177,185.643c-.235.006-.466.039-.7.047-.084,0-.166.215-.074.212.235-.011.468-.043.7-.052C495.187,185.846,495.267,185.639,495.177,185.643Z" transform="translate(-489.408 -185.643)" fill="#fff"/>
              </g>
              <g id="Grupo_27326" data-name="Grupo 27326" transform="translate(15.757 34.713)">
                <path id="Trazado_69288" data-name="Trazado 69288" d="M443.255,195.2a11.182,11.182,0,0,0-4.529.228c-.046.015-.134.139-.044.118a16.662,16.662,0,0,1,4.472-.18C443.221,195.367,443.361,195.212,443.255,195.2Z" transform="translate(-438.642 -195.076)" fill="#fff"/>
                <path id="Trazado_69289" data-name="Trazado 69289" d="M448.637,195.722c-.22-.079-.45-.135-.667-.217-.08-.028-.235.14-.149.172.222.078.451.132.672.21C448.569,195.916,448.72,195.755,448.637,195.722Z" transform="translate(-442.438 -195.253)" fill="#fff"/>
              </g>
              <g id="Grupo_27327" data-name="Grupo 27327" transform="translate(3.674 19.405)" style="mix-blend-mode: multiply;isolation: isolate">
                <path id="Trazado_69290" data-name="Trazado 69290" d="M422.209,168.921s-.074.129-.192.356c-.057.116-.13.253-.2.418s-.156.345-.242.55-.17.426-.259.659-.173.489-.25.751c-.04.13-.082.263-.123.4s-.073.275-.108.414c-.078.277-.131.568-.193.854s-.1.575-.155.856-.069.568-.1.842-.037.538-.057.788-.017.49-.022.709-.015.421,0,.6.012.335.016.464c.008.259.012.406.012.406s-.018-.146-.049-.4c-.013-.128-.032-.285-.053-.462s-.024-.383-.033-.6-.025-.462-.012-.716.008-.523.034-.8.05-.562.09-.85.08-.583.143-.873.123-.579.207-.857c.04-.14.078-.279.115-.417s.09-.27.133-.4c.078-.266.188-.512.277-.75s.192-.454.291-.656c.049-.1.095-.193.14-.284s.093-.173.135-.252c.087-.159.17-.292.235-.4C422.121,169.041,422.209,168.921,422.209,168.921Z" transform="translate(-418.902 -168.921)" fill="#68b42e"/>
                <path id="Trazado_69291" data-name="Trazado 69291" d="M421.971,172.33s.006.078.017.211.03.328.049.555.057.5.095.78c.017.142.045.289.063.438s.049.3.081.448.053.3.093.444.061.293.1.43.068.272.109.4.071.246.114.352.077.2.107.294.067.162.093.224c.052.125.078.2.078.2s-.043-.064-.111-.18a4.2,4.2,0,0,1-.267-.5c-.052-.1-.093-.222-.145-.346s-.1-.258-.14-.4-.085-.284-.121-.432-.067-.3-.1-.452c-.054-.306-.1-.613-.123-.9s-.029-.561-.033-.795.013-.424.02-.56S421.971,172.33,421.971,172.33Z" transform="translate(-419.627 -170.335)" fill="#68b42e"/>
                <path id="Trazado_69292" data-name="Trazado 69292" d="M419.53,177.134s-.028.044-.08.122-.122.189-.208.321-.177.292-.285.452c-.046.087-.1.174-.147.264a2.825,2.825,0,0,0-.152.27c-.048.092-.095.186-.141.276-.023.047-.047.091-.071.133s-.04.094-.058.138c-.071.181-.16.342-.208.492s-.1.271-.129.357-.054.137-.054.137,0-.053.016-.143.03-.226.06-.383a1.355,1.355,0,0,1,.065-.25c.03-.087.062-.178.093-.274a1.668,1.668,0,0,1,.118-.287c.044-.094.094-.19.14-.284a2.744,2.744,0,0,1,.16-.277c.054-.09.112-.177.167-.26a4.9,4.9,0,0,1,.338-.428,3.707,3.707,0,0,1,.268-.276A1,1,0,0,1,419.53,177.134Z" transform="translate(-417.997 -172.327)" fill="#68b42e"/>
              </g>
              <path id="Trazado_69293" data-name="Trazado 69293" d="M416.522,166.6c-.438.325-.908.558-1.032,1.167-.265,1.295,1.495,1.912-.315,3.146-.995.68-3.306,2.549-1.929,3.849.2.191.053.008-.077-.173-1.205-1.681,2.369-2.9,3.039-4.1a1.671,1.671,0,0,0,.229-1.351,2.881,2.881,0,0,0-.333-.743c-.341-.608.085-1.1.475-1.569C416.632,166.766,416.673,166.5,416.522,166.6Z" transform="translate(-412.176 -148.545)" fill="#89bd27" style="mix-blend-mode: screen;isolation: isolate"/>
              <g id="Grupo_27328" data-name="Grupo 27328" transform="translate(12.886 6.768)" style="mix-blend-mode: multiply;isolation: isolate">
                <path id="Trazado_69294" data-name="Trazado 69294" d="M491.308,153.409l-.671,1.12-.03.629,4.407,1.745,1.373-1.477-.224-1.181S492.8,153.2,491.308,153.409Z" transform="translate(-457.322 -149.839)" fill="#e1ccbb"/>
                <path id="Trazado_69295" data-name="Trazado 69295" d="M462.236,179.287a20.2,20.2,0,0,0-5.034.364l-.5,1.573.121,1.195,5.709.034-.069-1.349Z" transform="translate(-443.261 -160.569)" fill="#e1ccbb"/>
                <path id="Trazado_69296" data-name="Trazado 69296" d="M437.571,157.915l-2.537-.306a14.333,14.333,0,0,0-1.3,5.536l.41,1.351,1.463.121,2.265-5.689-.29-.967Z" transform="translate(-433.737 -151.593)" fill="#e1ccbb"/>
                <path id="Trazado_69297" data-name="Trazado 69297" d="M461.1,148.836l.071,1.6.615.349a11.05,11.05,0,0,1,6.29-.86l.217-.538.609-1.519A8.464,8.464,0,0,0,461.1,148.836Z" transform="translate(-445.085 -147.329)" fill="#e1ccbb"/>
                <path id="Trazado_69298" data-name="Trazado 69298" d="M510.654,174.446l-1.267-1.129s-5.787.016-6.3,5l.011.064.159.821,2.005.694s.682-3.3,5.489-4.49Z" transform="translate(-462.498 -158.107)" fill="#e1ccbb"/>
                <path id="Trazado_69299" data-name="Trazado 69299" d="M509.063,168.023l.211.275,2.034-.036s.064-.115.16-.328a10.408,10.408,0,0,0,.822-5.579c-1.481-.036-2.446.018-2.446.018l-.031.041-.308.389s.394,3.248-.516,5.122Z" transform="translate(-464.945 -153.556)" fill="#e1ccbb"/>
              </g>
              <g id="Grupo_27330" data-name="Grupo 27330" transform="translate(46.171 9.731)">
                <path id="Trazado_69300" data-name="Trazado 69300" d="M496.185,153.255s-3.362-1.044-4.855-.836l-.671,1.121,4.422,1.24Z" transform="translate(-490.628 -152.392)" fill="#f39b99"/>
                <g id="Grupo_27329" data-name="Grupo 27329" transform="translate(0 0.863)">
                  <path id="Trazado_69301" data-name="Trazado 69301" d="M490.637,154.354l-.03.628,4.407,1.748.045-1.137Z" transform="translate(-490.607 -154.069)" fill="#f5aca2"/>
                  <path id="Trazado_69302" data-name="Trazado 69302" d="M499.286,153.867l-1.1,1.524-.045,1.137,1.373-1.48Z" transform="translate(-493.73 -153.867)" fill="#ef7e8a"/>
                </g>
              </g>
              <g id="Grupo_27331" data-name="Grupo 27331" transform="translate(26.326 24.874)">
                <path id="Trazado_69303" data-name="Trazado 69303" d="M462.236,178.3a20.334,20.334,0,0,0-5.034.363l-.5,1.574,5.761-.12Z" transform="translate(-456.701 -178.266)" fill="#f39b99"/>
                <path id="Trazado_69304" data-name="Trazado 69304" d="M456.7,181.544l.121,1.195,5.709.034-.069-1.349Z" transform="translate(-456.701 -179.575)" fill="#ef7e8a"/>
              </g>
              <g id="Grupo_27333" data-name="Grupo 27333" transform="translate(12.886 12.205)">
                <path id="Trazado_69305" data-name="Trazado 69305" d="M437.586,156.972l-.015-.047-2.537-.306a14.341,14.341,0,0,0-1.3,5.538l1.616.313A26.572,26.572,0,0,1,437.586,156.972Z" transform="translate(-433.737 -156.619)" fill="#f39b99"/>
                <g id="Grupo_27332" data-name="Grupo 27332" transform="translate(0.001 0.353)">
                  <path id="Trazado_69306" data-name="Trazado 69306" d="M433.738,166.081l.41,1.351,1.463.119-.257-1.157Z" transform="translate(-433.738 -160.896)" fill="#f5aca2"/>
                  <path id="Trazado_69307" data-name="Trazado 69307" d="M438.731,157.222a26.574,26.574,0,0,0-2.232,5.5l.258,1.157,2.265-5.69Z" transform="translate(-434.883 -157.222)" fill="#ef7e8a"/>
                </g>
              </g>
              <g id="Grupo_27335" data-name="Grupo 27335" transform="translate(28.901 6.189)">
                <path id="Trazado_69308" data-name="Trazado 69308" d="M461.1,147.845l.808,1.162a7.185,7.185,0,0,1,6.384-.608l.609-1.521A8.473,8.473,0,0,0,461.1,147.845Z" transform="translate(-461.1 -146.34)" fill="#f39b99"/>
                <g id="Grupo_27334" data-name="Grupo 27334" transform="translate(0 1.505)">
                  <path id="Trazado_69309" data-name="Trazado 69309" d="M461.1,148.912l.071,1.6.615.353.123-.792Z" transform="translate(-461.1 -148.912)" fill="#f5aca2"/>
                  <path id="Trazado_69310" data-name="Trazado 69310" d="M462.394,150.115l-.122.792a11.063,11.063,0,0,1,6.29-.862l.217-.538A7.185,7.185,0,0,0,462.394,150.115Z" transform="translate(-461.586 -148.954)" fill="#ef7e8a"/>
                </g>
              </g>
              <g id="Grupo_27337" data-name="Grupo 27337" transform="translate(53.475 21.398)">
                <path id="Trazado_69311" data-name="Trazado 69311" d="M510.654,173.457l-1.267-1.13s-5.787.017-6.3,5l.011.065a6.8,6.8,0,0,1,1.869.753C504.951,176.618,507.036,174.233,510.654,173.457Z" transform="translate(-503.087 -172.327)" fill="#f39b99"/>
                <g id="Grupo_27336" data-name="Grupo 27336" transform="translate(0.011 1.13)">
                  <path id="Trazado_69312" data-name="Trazado 69312" d="M503.1,180.979l.159.82,2.005.691-.294-.758A6.8,6.8,0,0,0,503.1,180.979Z" transform="translate(-503.105 -177.045)" fill="#f5aca2"/>
                  <path id="Trazado_69313" data-name="Trazado 69313" d="M512.082,175.212l-.1-.955c-3.617.776-5.7,3.161-5.687,4.687l.294.758S507.275,176.408,512.082,175.212Z" transform="translate(-504.43 -174.257)" fill="#ef7e8a"/>
                </g>
              </g>
              <g id="Grupo_27339" data-name="Grupo 27339" transform="translate(56.929 14.977)">
                <path id="Trazado_69314" data-name="Trazado 69314" d="M510.166,164.292a9,9,0,0,0-.353-2.815l-.308.388s.394,3.248-.516,5.122C509.791,167.149,510.06,165.738,510.166,164.292Z" transform="translate(-508.988 -161.406)" fill="#f5aca2"/>
                <g id="Grupo_27338" data-name="Grupo 27338">
                  <path id="Trazado_69315" data-name="Trazado 69315" d="M509.327,171.272l2.034-.035s.064-.116.16-.329l-2.406.089Z" transform="translate(-509.041 -165.317)" fill="#ef7e8a"/>
                  <path id="Trazado_69316" data-name="Trazado 69316" d="M512.29,161.367c-1.481-.036-2.446.018-2.446.018l-.031.041a9,9,0,0,1,.353,2.815c-.106,1.446-.375,2.857-1.178,2.695l.075.1,2.406-.089A10.408,10.408,0,0,0,512.29,161.367Z" transform="translate(-508.988 -161.355)" fill="#f39b99"/>
                </g>
              </g>
              <g id="Grupo_27340" data-name="Grupo 27340" transform="translate(7.353 9.032)" style="mix-blend-mode: multiply;isolation: isolate">
                <path id="Trazado_69317" data-name="Trazado 69317" d="M439.461,195.406c-3.5,0-6.34,1.3-6.34,2.907a1.4,1.4,0,0,0,.022.234h-.022s.893,4.5,6.365,4.549,6.243-3.35,6.316-4.652h-.008c0-.043.008-.088.008-.131C445.8,196.707,442.963,195.406,439.461,195.406Z" transform="translate(-427.949 -169.532)" fill="#e1ccbb"/>
                <path id="Trazado_69318" data-name="Trazado 69318" d="M452.563,153.837c-1.826-2.455-4.769-3.358-6.573-2.016s-1.786,4.42.041,6.876,4.77,3.359,6.573,2.017S454.39,156.293,452.563,153.837Z" transform="translate(-432.729 -151.199)" fill="#e1ccbb"/>
                <path id="Trazado_69319" data-name="Trazado 69319" d="M438.133,184.962a.532.532,0,0,0,.056.006,15.37,15.37,0,0,0,1.487-3.471,4.235,4.235,0,0,0-.284-.54c-.729-1.212-2.983-4-8.145-3.573-1.555.128-5.4,1.33-6.654,3.786-.016.033-.035.064-.05.1-.259,1.662-.259,1.806-.259,1.806l2.382,3.573S430.928,183.894,438.133,184.962Z" transform="translate(-424.284 -162.04)" fill="#e1ccbb"/>
                <path id="Trazado_69320" data-name="Trazado 69320" d="M484.378,187.46c-.92-1.979-4.244-2.087-7.644-.5a12.1,12.1,0,0,0-3.082,2.019c-1.435-.586-4.219-1.218-8.259.072a8.926,8.926,0,0,0-6.46,7.552l.448,1.288,4.5.868a7.567,7.567,0,0,1,8.243-3.907c.092-.166.18-.326.266-.485a4.011,4.011,0,0,0,3.234,2.43,7.941,7.941,0,0,0,8.815-7.033l0,0A3.23,3.23,0,0,0,484.378,187.46Z" transform="translate(-438.654 -165.575)" fill="#e1ccbb"/>
              </g>
              <g id="Grupo_27342" data-name="Grupo 27342" transform="translate(12.237 34.424)">
                <path id="Trazado_69321" data-name="Trazado 69321" d="M432.628,199.877s.892,4.5,6.364,4.548,6.242-3.351,6.315-4.651Z" transform="translate(-432.628 -196.735)" fill="#bc2921"/>
                <path id="Trazado_69322" data-name="Trazado 69322" d="M445.307,197.489c0,1.6-2.838,2.907-6.339,2.907s-6.34-1.3-6.34-2.907,2.838-2.907,6.34-2.907S445.307,195.884,445.307,197.489Z" transform="translate(-432.628 -194.582)" fill="#e83426"/>
                <path id="Trazado_69323" data-name="Trazado 69323" d="M445.063,197.521c0,1.255-2.463,2.277-5.5,2.277s-5.5-1.022-5.5-2.277,2.462-2.279,5.5-2.279S445.063,196.262,445.063,197.521Z" transform="translate(-433.224 -194.856)" fill="#ee523b"/>
                <path id="Trazado_69324" data-name="Trazado 69324" d="M442.186,197.718s2.072.218,2.023-.386-2.336-1.447-5.712-.987-4.893,1.953-2.169,2.484,6.484.937,7.377.119S443.489,198.007,442.186,197.718Z" transform="translate(-433.58 -195.258)" fill="#ca2c21"/>
                <g id="Grupo_27341" data-name="Grupo 27341" transform="translate(4.525 1.387)">
                  <path id="Trazado_69325" data-name="Trazado 69325" d="M445.481,199.558s.631.246.569.509S444.928,199.383,445.481,199.558Z" transform="translate(-442.418 -198.023)" fill="#ffbe60"/>
                  <path id="Trazado_69326" data-name="Trazado 69326" d="M445.629,197.794s.654-.457.876-.277S445.1,198.211,445.629,197.794Z" transform="translate(-442.501 -197.168)" fill="#ffbe60"/>
                  <path id="Trazado_69327" data-name="Trazado 69327" d="M443.869,197.348s.393-.512.623-.37S443.56,197.808,443.869,197.348Z" transform="translate(-441.793 -196.952)" fill="#ffbe60"/>
                  <path id="Trazado_69328" data-name="Trazado 69328" d="M442.146,197.316s.155-.408.331-.361S442.04,197.672,442.146,197.316Z" transform="translate(-441.095 -196.952)" fill="#ffbe60"/>
                  <path id="Trazado_69329" data-name="Trazado 69329" d="M440.367,197.554s.091-.242.194-.213S440.3,197.765,440.367,197.554Z" transform="translate(-440.36 -197.112)" fill="#ffbe60"/>
                  <path id="Trazado_69330" data-name="Trazado 69330" d="M443.232,199.389s.294.311.178.445S442.961,199.139,443.232,199.389Z" transform="translate(-441.508 -197.943)" fill="#ffbe60"/>
                  <path id="Trazado_69331" data-name="Trazado 69331" d="M440.788,199.466s.162.17.1.242S440.641,199.331,440.788,199.466Z" transform="translate(-440.514 -197.984)" fill="#ffbe60"/>
                </g>
              </g>
              <g id="Grupo_27346" data-name="Grupo 27346" transform="translate(18.982 8.551)">
                <g id="Grupo_27344" data-name="Grupo 27344">
                  <path id="Trazado_69332" data-name="Trazado 69332" d="M452.069,153.014c1.828,2.455,1.845,5.533.041,6.876s-4.747.438-6.573-2.016-1.847-5.536-.043-6.876S450.241,150.557,452.069,153.014Z" transform="translate(-444.153 -150.376)" fill="#e83426"/>
                  <path id="Trazado_69333" data-name="Trazado 69333" d="M451.973,153.609c1.684,2.263,1.77,5.052.191,6.225s-4.22.29-5.906-1.972-1.77-5.053-.194-6.227S450.289,151.345,451.973,153.609Z" transform="translate(-444.478 -150.683)" fill="#ee523b"/>
                  <path id="Trazado_69334" data-name="Trazado 69334" d="M448.647,154.413s-.851-1.989-.568-2.195,2.711.591,4.014,2.827,1,3.971.7,4.3-1.569-1.1-1.569-1.1.8,1.636.466,1.836-3.4.434-5.2-3.237C445.482,154.71,446,150.341,448.647,154.413Z" transform="translate(-444.923 -151.127)" fill="#ca2c21"/>
                  <g id="Grupo_27343" data-name="Grupo 27343" transform="translate(1.985 2.354)">
                    <path id="Trazado_69335" data-name="Trazado 69335" d="M453.024,162.826s-.008.5-.2.521S453,162.407,453.024,162.826Z" transform="translate(-449.709 -157.85)" fill="#ffbe60"/>
                    <path id="Trazado_69336" data-name="Trazado 69336" d="M455.9,160.475s.386.01.4.165S455.573,160.488,455.9,160.475Z" transform="translate(-450.976 -156.918)" fill="#ffbe60"/>
                    <path id="Trazado_69337" data-name="Trazado 69337" d="M454.48,158.942s.416-.129.492.027S454.131,159.077,454.48,158.942Z" transform="translate(-450.388 -156.262)" fill="#ffbe60"/>
                    <path id="Trazado_69338" data-name="Trazado 69338" d="M453.474,157.018s.417-.129.492.029S453.126,157.152,453.474,157.018Z" transform="translate(-449.971 -155.464)" fill="#ffbe60"/>
                    <path id="Trazado_69339" data-name="Trazado 69339" d="M452.323,154.859s.006-.437.179-.46S452.342,155.229,452.323,154.859Z" transform="translate(-449.526 -154.398)" fill="#ffbe60"/>
                    <path id="Trazado_69340" data-name="Trazado 69340" d="M450.146,160.18s-.458.146-.542-.027S450.53,160.03,450.146,160.18Z" transform="translate(-448.397 -156.739)" fill="#ffbe60"/>
                    <path id="Trazado_69341" data-name="Trazado 69341" d="M449.081,158.466s-.619.09-.691-.149S449.6,158.353,449.081,158.466Z" transform="translate(-447.894 -155.984)" fill="#ffbe60"/>
                    <path id="Trazado_69342" data-name="Trazado 69342" d="M448.461,156.646s-.84-.1-.914-.367S449.175,156.7,448.461,156.646Z" transform="translate(-447.545 -155.152)" fill="#ffbe60"/>
                    <path id="Trazado_69343" data-name="Trazado 69343" d="M451.654,161.717s-.26.42-.442.34S451.851,161.344,451.654,161.717Z" transform="translate(-449.055 -157.385)" fill="#ffbe60"/>
                  </g>
                </g>
                <g id="Grupo_27345" data-name="Grupo 27345" transform="translate(0.406 1.812)">
                  <path id="Trazado_69344" data-name="Trazado 69344" d="M445.666,157.854a5.89,5.89,0,0,1-.347-4.3c.045-.123-.077-.088-.114-.005a5.594,5.594,0,0,0,.282,4.535C445.543,158.188,445.706,157.946,445.666,157.854Z" transform="translate(-444.847 -153.471)" fill="#fff"/>
                  <path id="Trazado_69345" data-name="Trazado 69345" d="M446.759,161.961a1.417,1.417,0,0,1-.173-.214c-.061-.071-.186.113-.132.171a1.7,1.7,0,0,0,.2.225C446.72,162.186,446.822,162.011,446.759,161.961Z" transform="translate(-445.508 -156.897)" fill="#fff"/>
                </g>
              </g>
              <g id="Grupo_27350" data-name="Grupo 27350" transform="translate(27.343 31.267)">
                <g id="Grupo_27348" data-name="Grupo 27348">
                  <path id="Trazado_69346" data-name="Trazado 69346" d="M471.424,195.023c1.206-2.461,1.963-4.108,2.31-4.887-1.161-.6-4.157-1.687-8.835-.193a8.922,8.922,0,0,0-6.46,7.552l4.532,1.416S464.835,193.383,471.424,195.023Z" transform="translate(-458.439 -189.189)" fill="#f2d038"/>
                  <path id="Trazado_69347" data-name="Trazado 69347" d="M458.439,203.381l.449,1.288,4.5.866-.419-.738Z" transform="translate(-458.439 -195.075)" fill="#cc752e"/>
                  <g id="Grupo_27347" data-name="Grupo 27347" transform="translate(4.532 0.947)">
                    <path id="Trazado_69348" data-name="Trazado 69348" d="M466.182,202.83l.418.737a7.563,7.563,0,0,1,8.243-3.905l-.208-.722C468.046,197.3,466.182,202.83,466.182,202.83Z" transform="translate(-466.182 -194.054)" fill="#e39042"/>
                    <path id="Trazado_69349" data-name="Trazado 69349" d="M482.935,190.807c-.347.779-1.1,2.425-2.31,4.887l.208.722c1.808-3.278,2.46-4.708,2.46-4.708A9.184,9.184,0,0,1,482.935,190.807Z" transform="translate(-472.172 -190.807)" fill="#cc752e"/>
                  </g>
                </g>
                <g id="Grupo_27349" data-name="Grupo 27349" transform="translate(0.526 0.394)" style="mix-blend-mode: screen;isolation: isolate">
                  <path id="Trazado_69350" data-name="Trazado 69350" d="M469,189.907a8.839,8.839,0,0,1-1.533.033,8.808,8.808,0,0,0-1.625.341,9.6,9.6,0,0,0-2.808,1.435,12.468,12.468,0,0,0-2.1,1.986,7.721,7.721,0,0,0-1.574,2.555c-.1.314.178.341.318.086a12.4,12.4,0,0,1,3.845-4.349,9.812,9.812,0,0,1,2.8-1.254,9.487,9.487,0,0,1,1.91-.309,1.606,1.606,0,0,0,.727-.142C469.06,190.237,469.208,189.846,469,189.907Z" transform="translate(-459.338 -189.879)" fill="#f2d038"/>
                  <path id="Trazado_69351" data-name="Trazado 69351" d="M478.062,189.882a4.358,4.358,0,0,0-.819.008c-.151.008-.339.4-.153.4a4.453,4.453,0,0,0,.852,0C478.07,190.276,478.252,189.914,478.062,189.882Z" transform="translate(-466.668 -189.863)" fill="#f2d038"/>
                </g>
              </g>
              <g id="Grupo_27353" data-name="Grupo 27353" transform="translate(7.066 23.85)">
                <path id="Trazado_69352" data-name="Trazado 69352" d="M437.441,183.111c.889-1.587,1.4-2.487,1.676-2.98-.727-1.21-2.983-4-8.144-3.572-1.557.128-5.4,1.331-6.655,3.786l2.452,3.989S430.5,181.023,437.441,183.111Z" transform="translate(-424.011 -176.515)" fill="#f2d038"/>
                <g id="Grupo_27351" data-name="Grupo 27351" transform="translate(0 3.616)">
                  <path id="Trazado_69353" data-name="Trazado 69353" d="M424.1,183.059c-.016.033-.035.066-.05.1-.258,1.661-.258,1.8-.258,1.8l2.38,3.574.38-1.488Z" transform="translate(-423.793 -182.845)" fill="#cc752e"/>
                  <path id="Trazado_69354" data-name="Trazado 69354" d="M448.7,183.237a4.433,4.433,0,0,0-.284-.543c-.28.493-.787,1.392-1.676,2.98l.412,1,0,.031.058.008A15.509,15.509,0,0,0,448.7,183.237Z" transform="translate(-433.309 -182.694)" fill="#cc752e"/>
                  <path id="Trazado_69355" data-name="Trazado 69355" d="M438.909,187.3c-6.942-2.088-10.67,1.223-10.67,1.223l-.38,1.488s4.263-2.753,11.466-1.684l0-.031Z" transform="translate(-425.479 -184.316)" fill="#e39042"/>
                </g>
                <g id="Grupo_27352" data-name="Grupo 27352" transform="translate(1.296 0.427)" style="mix-blend-mode: screen;isolation: isolate">
                  <path id="Trazado_69356" data-name="Trazado 69356" d="M438.121,179.214a4.6,4.6,0,0,0-2.51-1.519,8.912,8.912,0,0,0-3.866-.4,8.3,8.3,0,0,0-5.679,2.616c-.1.115-.084.421.1.246a9.36,9.36,0,0,1,6.033-2.274,9.49,9.49,0,0,1,5.6,1.8C438,179.8,438.213,179.358,438.121,179.214Z" transform="translate(-426.008 -177.245)" fill="#f2d038"/>
                  <path id="Trazado_69357" data-name="Trazado 69357" d="M447.625,181.607a1.154,1.154,0,0,0-.224-.266c-.1-.089-.3.231-.218.324a1.054,1.054,0,0,1,.185.271c.043.091.169-.021.2-.06A.26.26,0,0,0,447.625,181.607Z" transform="translate(-434.781 -178.937)" fill="#f2d038"/>
                </g>
              </g>
              <g id="Grupo_27355" data-name="Grupo 27355" transform="translate(40.247 28.839)">
                <path id="Trazado_69358" data-name="Trazado 69358" d="M480.49,194.274s.254,4.009,3.786,4.455a7.939,7.939,0,0,0,8.816-7.033C491.342,193.987,480.49,194.274,480.49,194.274Z" transform="translate(-480.488 -187.801)" fill="#bc2921"/>
                <path id="Trazado_69359" data-name="Trazado 69359" d="M493.028,186.638c.921,1.978-.84,5.221-4.239,6.8s-7.171.9-8.094-1.075,1.289-4.651,4.688-6.231S492.106,184.659,493.028,186.638Z" transform="translate(-480.486 -185.041)" fill="#e83426"/>
                <path id="Trazado_69360" data-name="Trazado 69360" d="M492.948,187.155c.92,1.551-.888,4.239-4.012,5.693s-6.5,1.015-7.264-.62,1.319-3.989,4.451-5.419C488.687,185.639,491.937,185.453,492.948,187.155Z" transform="translate(-480.913 -185.399)" fill="#ee523b"/>
                <path id="Trazado_69361" data-name="Trazado 69361" d="M488.776,188.914l4.125-1.28s1.8.917-1.213,3.568-6.943,3.206-8.415,1.783c-.868-1.109.458-4.34,5.016-5.955,1.084-.313,2.434-.362,2.722,0S488.776,188.914,488.776,188.914Z" transform="translate(-481.539 -185.761)" fill="#ca2c21"/>
                <g id="Grupo_27354" data-name="Grupo 27354" transform="translate(2.383 1.503)">
                  <path id="Trazado_69362" data-name="Trazado 69362" d="M486.763,194.149s-1.716,1.571-2.15,1.28C484.221,195.169,486.046,194.408,486.763,194.149Z" transform="translate(-484.558 -190.321)" fill="#ffbe60"/>
                  <path id="Trazado_69363" data-name="Trazado 69363" d="M492.11,188.982a2.208,2.208,0,0,1,.563-1.346C492.891,187.418,492.717,188.591,492.11,188.982Z" transform="translate(-487.69 -187.609)" fill="#ffbe60"/>
                  <path id="Trazado_69364" data-name="Trazado 69364" d="M490.115,189.865a1.622,1.622,0,0,1,.087-.978C490.419,188.409,490.419,189.191,490.115,189.865Z" transform="translate(-486.847 -188.078)" fill="#ffbe60"/>
                  <path id="Trazado_69365" data-name="Trazado 69365" d="M488.367,190.26s.2.52,0,.627S488.172,189.825,488.367,190.26Z" transform="translate(-486.077 -188.668)" fill="#ffbe60"/>
                  <path id="Trazado_69366" data-name="Trazado 69366" d="M486.316,191.673s.35.338.236.5S486,191.4,486.316,191.673Z" transform="translate(-485.24 -189.274)" fill="#ffbe60"/>
                  <path id="Trazado_69367" data-name="Trazado 69367" d="M485.2,193.1s.335.184.283.331S484.905,192.956,485.2,193.1Z" transform="translate(-484.788 -189.876)" fill="#ffbe60"/>
                  <path id="Trazado_69368" data-name="Trazado 69368" d="M489.393,197.021s-.193-.33-.071-.426S489.573,197.295,489.393,197.021Z" transform="translate(-486.517 -191.333)" fill="#ffbe60"/>
                  <path id="Trazado_69369" data-name="Trazado 69369" d="M490.781,196.342s-.391-.365-.27-.543S491.136,196.631,490.781,196.342Z" transform="translate(-487.017 -190.997)" fill="#ffbe60"/>
                  <path id="Trazado_69370" data-name="Trazado 69370" d="M492.874,195.23s-.451-.291-.361-.487S493.275,195.454,492.874,195.23Z" transform="translate(-487.852 -190.557)" fill="#ffbe60"/>
                  <path id="Trazado_69371" data-name="Trazado 69371" d="M494.9,193.577s-.671-.1-.668-.376S495.472,193.63,494.9,193.577Z" transform="translate(-488.568 -189.902)" fill="#ffbe60"/>
                  <path id="Trazado_69372" data-name="Trazado 69372" d="M496.957,191.5s-.775.2-.9-.1S497.605,191.294,496.957,191.5Z" transform="translate(-489.325 -189.12)" fill="#ffbe60"/>
                </g>
              </g>
            </g>
            <path id="Trazado_69373" data-name="Trazado 69373" d="M486.434,176.659c-.563.286-.841.712-1.487.718-.334,0-.9-.438-1.2-.445a1.663,1.663,0,0,0-1.321.486c-1.142,1.021-.276,3.173-.945,4.426-.078.148.041.209.129.073a3.459,3.459,0,0,0,.5-1.237c.231-1.037-.184-2.633,1.154-3.173.418-.167,1.167.252,1.632.248.555-.005.936-.486,1.364-.8C486.391,176.857,486.72,176.512,486.434,176.659Z" transform="translate(-440.643 -152.71)" fill="#97c740" style="mix-blend-mode: screen;isolation: isolate"/>
            <path id="Trazado_69374" data-name="Trazado 69374" d="M459.115,167.4a2.14,2.14,0,0,0-1.893.678c-.335.315-.611.69-.95,1.006a6.731,6.731,0,0,1-1.91,1.011,6.389,6.389,0,0,0-3.388,3.861c-.117.287-.2.609-.08.373a14.661,14.661,0,0,1,1.57-2.444,6.008,6.008,0,0,1,2.588-1.6,4.817,4.817,0,0,0,1.525-.995c.808-.764,1.206-1.428,2.42-1.577C459.1,167.7,459.272,167.42,459.115,167.4Z" transform="translate(-427.944 -148.878)" fill="#97c740" style="mix-blend-mode: screen;isolation: isolate"/>
          </g>
          <g id="Grupo_27358" data-name="Grupo 27358" transform="translate(4.384 4.083)">
            <path id="Trazado_69375" data-name="Trazado 69375" d="M485.474,166.432a.325.325,0,0,0-.236.147.457.457,0,0,0-.125.29c0,.079.02.191.119.2.205.011.356-.294.358-.464C485.592,166.526,485.562,166.436,485.474,166.432Z" transform="translate(-446.542 -152.567)" fill="#fffbdc"/>
            <path id="Trazado_69376" data-name="Trazado 69376" d="M491.862,168.4c-.2,0-.409.5-.19.5C491.871,168.9,492.082,168.4,491.862,168.4Z" transform="translate(-449.224 -153.386)" fill="#fffbdc"/>
            <path id="Trazado_69377" data-name="Trazado 69377" d="M478.372,164.1c-.252,0-.514.629-.241.629C478.384,164.726,478.646,164.1,478.372,164.1Z" transform="translate(-443.598 -151.599)" fill="#fffbdc"/>
            <path id="Trazado_69378" data-name="Trazado 69378" d="M484.206,170.424h-.011c-.008-.011-.009-.022-.019-.036-.057-.071-.15-.025-.2.028a.453.453,0,0,0-.14.293.444.444,0,0,0,.008.191.1.1,0,0,0,.174.049.273.273,0,0,0,.072-.063.47.47,0,0,0,.153-.3c0-.005,0-.011,0-.016C484.249,170.515,484.254,170.44,484.206,170.424Z" transform="translate(-446.008 -154.192)" fill="#fffbdc"/>
            <path id="Trazado_69379" data-name="Trazado 69379" d="M489.006,158.258a.166.166,0,0,0-.139-.012c-.121-.017-.209.082-.272.18-.131.2-.062.512.212.464.127-.022.229-.173.268-.284S489.124,158.324,489.006,158.258Z" transform="translate(-447.96 -149.168)" fill="#fffbdc"/>
            <path id="Trazado_69380" data-name="Trazado 69380" d="M482.859,150.843c-.032-.165-.233-.138-.323-.039a.324.324,0,0,0-.1.36c.084.152.266,0,.317-.093.006-.011.011-.025.017-.036A.272.272,0,0,0,482.859,150.843Z" transform="translate(-445.423 -146.053)" fill="#fffbdc"/>
            <path id="Trazado_69381" data-name="Trazado 69381" d="M507.012,160.192a.324.324,0,0,1-.1-.023c-.125-.073-.242.16-.26.242-.03.128,0,.277.157.276.128.01.273-.224.259-.36C507.083,160.27,507.077,160.2,507.012,160.192Z" transform="translate(-455.472 -149.964)" fill="#fffbdc"/>
            <path id="Trazado_69382" data-name="Trazado 69382" d="M473.969,159.507c-.1,0-.2.249-.095.249S474.076,159.507,473.969,159.507Z" transform="translate(-441.862 -149.695)" fill="#fffbdc"/>
            <path id="Trazado_69383" data-name="Trazado 69383" d="M466.092,154.335l-.03.036c-.044.057-.05.181.026.15.041.023.1-.069.106-.092a.182.182,0,0,0,.019-.11C466.2,154.244,466.115,154.305,466.092,154.335Z" transform="translate(-438.628 -147.529)" fill="#fffbdc"/>
            <path id="Trazado_69384" data-name="Trazado 69384" d="M461.408,157.871c-.107,0-.218.265-.1.265S461.524,157.871,461.408,157.871Z" transform="translate(-436.648 -149.017)" fill="#fffbdc"/>
            <path id="Trazado_69385" data-name="Trazado 69385" d="M474.7,166.291c-.088,0-.176.212-.082.212S474.8,166.291,474.7,166.291Z" transform="translate(-442.174 -152.509)" fill="#fffbdc"/>
            <path id="Trazado_69386" data-name="Trazado 69386" d="M485.493,142.743c-.078,0-.16.2-.074.2S485.58,142.743,485.493,142.743Z" transform="translate(-446.654 -142.743)" fill="#fffbdc"/>
            <path id="Trazado_69387" data-name="Trazado 69387" d="M454.822,149.181a.13.13,0,0,0-.05-.05.045.045,0,0,0-.037-.047.216.216,0,0,0-.218.062.2.2,0,0,0-.039.211c.082.166.259.077.33-.045A.137.137,0,0,0,454.822,149.181Z" transform="translate(-433.83 -145.37)" fill="#fffbdc"/>
            <path id="Trazado_69388" data-name="Trazado 69388" d="M442.136,151.321a.167.167,0,0,0-.162-.062.232.232,0,0,0-.066.033.132.132,0,0,0-.065.042c-.075.078-.149.261-.039.344h0c.022.041.059.091.1.087a.249.249,0,0,0,.208-.176l0-.006a.372.372,0,0,0,.026-.053A.239.239,0,0,0,442.136,151.321Z" transform="translate(-428.558 -146.273)" fill="#fffbdc"/>
            <path id="Trazado_69389" data-name="Trazado 69389" d="M438.087,155.127a.016.016,0,0,1,0-.008.22.22,0,0,0,.037-.118.1.1,0,0,0-.013-.047.119.119,0,0,0-.157-.123c-.088-.006-.153.09-.169.178a.221.221,0,0,0,0,.191c.069.122.208.057.283-.05A.144.144,0,0,1,438.087,155.127Z" transform="translate(-426.907 -147.754)" fill="#fffbdc"/>
            <path id="Trazado_69390" data-name="Trazado 69390" d="M431,165.8c0-.008-.007-.014-.009-.022a.124.124,0,0,0-.147-.146.208.208,0,0,0-.25.119.266.266,0,0,0-.015.27.093.093,0,0,0,.016.035.108.108,0,0,0,.094.105v0C430.883,166.276,431.038,165.96,431,165.8Z" transform="translate(-423.914 -152.23)" fill="#fffbdc"/>
            <path id="Trazado_69391" data-name="Trazado 69391" d="M426.532,171.677a.218.218,0,0,0-.272.067.388.388,0,0,0-.159.242c-.042.23.237.3.4.218a.379.379,0,0,0,.16-.3A.253.253,0,0,0,426.532,171.677Z" transform="translate(-422.067 -154.733)" fill="#fffbdc"/>
            <path id="Trazado_69392" data-name="Trazado 69392" d="M446.216,173.98c-.033-.1-.125-.176-.235-.114a.273.273,0,0,0-.09.088.254.254,0,0,0-.078.195c0,.1.077.227.188.228s.17-.09.2-.186a.517.517,0,0,0,.024-.053A.188.188,0,0,0,446.216,173.98Z" transform="translate(-430.243 -155.641)" fill="#fffbdc"/>
            <path id="Trazado_69393" data-name="Trazado 69393" d="M441.393,178.938a.085.085,0,0,0-.091-.017l-.032-.008c-.056,0-.118.076-.134.122s-.032.121.021.16h0a.034.034,0,0,0,.031.022h0a.127.127,0,0,0,.107.012C441.4,179.2,441.49,179.02,441.393,178.938Z" transform="translate(-428.298 -157.743)" fill="#fffbdc"/>
            <path id="Trazado_69394" data-name="Trazado 69394" d="M421.98,183.763h0a.129.129,0,0,0-.035.011c-.078.043-.17.172-.133.267.047.119.131.136.209.1a.09.09,0,0,0,.067-.042.37.37,0,0,0,.077-.085C422.26,183.869,422.157,183.68,421.98,183.763Z" transform="translate(-420.286 -159.746)" fill="#fffbdc"/>
            <path id="Trazado_69395" data-name="Trazado 69395" d="M421.415,189.689a.155.155,0,0,0-.2-.136.234.234,0,0,0-.171.249.139.139,0,0,0,.207.1l.01-.007A.214.214,0,0,0,421.415,189.689Z" transform="translate(-419.971 -162.154)" fill="#fffbdc"/>
            <path id="Trazado_69396" data-name="Trazado 69396" d="M419.354,188.507c-.062-.027-.122.071-.129.121,0,.015,0,.033,0,.049a.168.168,0,0,0,.006.128c.03.047.078.041.123.015a.15.15,0,0,0,.078-.068.163.163,0,0,0,.016-.028C419.5,188.619,419.451,188.55,419.354,188.507Z" transform="translate(-419.212 -161.72)" fill="#fffbdc"/>
            <path id="Trazado_69397" data-name="Trazado 69397" d="M430.462,181.986c-.084,0-.17.209-.08.209S430.551,181.986,430.462,181.986Z" transform="translate(-423.828 -159.018)" fill="#fffbdc"/>
            <path id="Trazado_69398" data-name="Trazado 69398" d="M434.886,182.964a.356.356,0,0,0-.039-.03.12.12,0,0,0-.037-.037c-.037-.03-.08-.006-.117.03a.291.291,0,0,0-.124.18.134.134,0,0,0,.1.171c.118.011.188-.1.209-.2a.167.167,0,0,0,0-.051C434.893,183,434.9,182.978,434.886,182.964Z" transform="translate(-425.579 -159.39)" fill="#fffbdc"/>
            <path id="Trazado_69399" data-name="Trazado 69399" d="M426.381,191.752a.057.057,0,0,0-.029-.053.073.073,0,0,0-.026-.009c-.136-.1-.28.1-.263.235a.044.044,0,0,0,.023.03c0,.084.05.157.151.107A.258.258,0,0,0,426.381,191.752Z" transform="translate(-422.052 -163.031)" fill="#fffbdc"/>
            <path id="Trazado_69400" data-name="Trazado 69400" d="M438.833,191.512a.126.126,0,0,0-.054.01.208.208,0,0,0-.158.074.228.228,0,0,0-.047.242c.041.073.1.075.179.058C438.893,191.865,439.053,191.527,438.833,191.512Z" transform="translate(-427.234 -162.968)" fill="#fffbdc"/>
            <path id="Trazado_69401" data-name="Trazado 69401" d="M453.019,193.455c-.106-.13-.27.057-.253.189,0,.006,0,.013,0,.019,0,.03-.006.1.043.095a.248.248,0,0,0,.183-.08A.178.178,0,0,0,453.019,193.455Z" transform="translate(-433.125 -163.756)" fill="#fffbdc"/>
            <path id="Trazado_69402" data-name="Trazado 69402" d="M460.185,189.321a.05.05,0,0,0-.021-.055.105.105,0,0,0-.16-.038.259.259,0,0,0-.108.221.117.117,0,0,0,.011.1c.112.136.257-.027.28-.152A.316.316,0,0,0,460.185,189.321Z" transform="translate(-436.082 -162.012)" fill="#fffbdc"/>
            <path id="Trazado_69403" data-name="Trazado 69403" d="M465.579,186.607c-.243.009-.294.506-.032.461a.056.056,0,0,0,.026-.011.148.148,0,0,0,.059-.022C465.792,186.949,465.808,186.6,465.579,186.607Z" transform="translate(-438.355 -160.934)" fill="#fffbdc"/>
            <path id="Trazado_69404" data-name="Trazado 69404" d="M464.319,172.035a.147.147,0,0,0-.032-.06.056.056,0,0,0-.016-.058.309.309,0,0,0-.4.448.229.229,0,0,0,.24.1.318.318,0,0,0,.2-.322A.219.219,0,0,0,464.319,172.035Z" transform="translate(-437.712 -154.822)" fill="#fffbdc"/>
            <path id="Trazado_69405" data-name="Trazado 69405" d="M455.254,174.8l0,0c.015-.038.015-.073-.021-.08a.183.183,0,0,0-.209.175c-.009.113.1.118.181.079C455.252,174.948,455.308,174.841,455.254,174.8Z" transform="translate(-434.063 -156.003)" fill="#fffbdc"/>
            <path id="Trazado_69406" data-name="Trazado 69406" d="M467.533,198.169a.179.179,0,0,0-.151.061.406.406,0,0,0-.167.381.215.215,0,0,0,.229.166.386.386,0,0,0,.252-.194A.266.266,0,0,0,467.533,198.169Z" transform="translate(-439.116 -165.728)" fill="#fffbdc"/>
            <path id="Trazado_69407" data-name="Trazado 69407" d="M466.62,201.561c-.011-.006-.023-.009-.034-.013-.037-.043-.123-.029-.173.025,0,0,0,.005-.005.007a.265.265,0,0,0-.1.148l0,.007a.15.15,0,0,0,.229.186C466.634,201.852,466.766,201.65,466.62,201.561Z" transform="translate(-438.736 -167.12)" fill="#fffbdc"/>
            <path id="Trazado_69408" data-name="Trazado 69408" d="M462.138,200.18a.439.439,0,0,1-.063,0c-.077,0-.14.182-.067.178.022,0,.043,0,.066,0C462.134,200.345,462.218,200.186,462.138,200.18Z" transform="translate(-436.947 -166.561)" fill="#fffbdc"/>
            <path id="Trazado_69409" data-name="Trazado 69409" d="M479.037,193.445a.042.042,0,0,0-.035-.037l-.037,0a.3.3,0,0,0-.032-.011.163.163,0,0,0-.16.053l0,0,0,0a.3.3,0,0,0-.073.133l0,.006c0,.009,0,.019,0,.028s0,.023,0,.035a.176.176,0,0,0,.021.1c.117.228.406-.012.387-.2A.189.189,0,0,0,479.037,193.445Z" transform="translate(-443.878 -163.746)" fill="#fffbdc"/>
            <path id="Trazado_69410" data-name="Trazado 69410" d="M489.584,183.5a.218.218,0,0,0-.289-.087l-.005,0a.226.226,0,0,0-.134.108.385.385,0,0,0-.05.121.353.353,0,0,0-.015.153.141.141,0,0,0,.121.137.264.264,0,0,0,.279-.044A.333.333,0,0,0,489.584,183.5Z" transform="translate(-448.19 -159.6)" fill="#fffbdc"/>
            <path id="Trazado_69411" data-name="Trazado 69411" d="M496.205,180.541a.034.034,0,0,0-.019-.019s0,0-.008,0l0,0a.04.04,0,0,0-.024,0l-.035-.012c-.043-.009-.09.064-.1.1-.022.064-.036.186.065.191a.177.177,0,0,0,.15-.171A.11.11,0,0,0,496.205,180.541Z" transform="translate(-451.057 -158.401)" fill="#fffbdc"/>
            <path id="Trazado_69412" data-name="Trazado 69412" d="M508.467,189.607c-.015-.076-.095-.114-.153-.143s-.136.029-.184.119a.323.323,0,0,0-.09.209.174.174,0,0,0,.126.178c.09.03.19-.047.239-.116A.313.313,0,0,0,508.467,189.607Z" transform="translate(-456.05 -162.115)" fill="#fffbdc"/>
            <path id="Trazado_69413" data-name="Trazado 69413" d="M508.547,198.487c-.022-.051-.1-.056-.143-.049a.136.136,0,0,0-.065.039.223.223,0,0,0-.108.046c-.127.119-.1.342.1.313A.273.273,0,0,0,508.547,198.487Z" transform="translate(-456.097 -165.84)" fill="#fffbdc"/>
            <path id="Trazado_69414" data-name="Trazado 69414" d="M513.615,184.978a.114.114,0,0,0-.08.033.278.278,0,0,0-.112.084.283.283,0,0,0,.039.416c.145.091.309-.121.333-.241A.248.248,0,0,0,513.615,184.978Z" transform="translate(-458.253 -160.259)" fill="#fffbdc"/>
            <path id="Trazado_69415" data-name="Trazado 69415" d="M519.457,181.576a.243.243,0,0,0-.151-.016.469.469,0,0,0-.312.513.262.262,0,0,0,.3.171.416.416,0,0,0,.359-.327A.281.281,0,0,0,519.457,181.576Z" transform="translate(-460.591 -158.839)" fill="#fffbdc"/>
            <path id="Trazado_69416" data-name="Trazado 69416" d="M514.386,169.028a.17.17,0,0,0-.21-.075.112.112,0,0,0-.02.012.077.077,0,0,0-.028,0,.278.278,0,0,0-.166.239.324.324,0,0,0,.071.315.168.168,0,0,0,.2.035.377.377,0,0,0,.179-.273A.294.294,0,0,0,514.386,169.028Z" transform="translate(-458.5 -153.606)" fill="#fffbdc"/>
            <path id="Trazado_69417" data-name="Trazado 69417" d="M519.272,168.835c-.056-.085-.132-.069-.2-.019-.127.011-.211.219-.158.335a.173.173,0,0,0,.024.075c.046.072.143.018.188-.026a.4.4,0,0,0,.1-.208C519.268,168.944,519.294,168.866,519.272,168.835Z" transform="translate(-460.555 -153.539)" fill="#fffbdc"/>
            <path id="Trazado_69418" data-name="Trazado 69418" d="M498.87,172.686a.131.131,0,0,0-.118.026c-.048-.011-.1.073-.114.108-.029.1-.018.2.1.232a.239.239,0,0,0,.253-.19A.138.138,0,0,0,498.87,172.686Z" transform="translate(-452.146 -155.159)" fill="#fffbdc"/>
          </g>
        </g>
      </g>
    </g>
  </g>
</svg>
