<svg xmlns="http://www.w3.org/2000/svg" width="462" height="429.929" viewBox="0 0 462 429.929">
  <g id="Grupo_27404" data-name="Grupo 27404" transform="translate(-159 -635.671)">
    <g id="Grupo_26240" data-name="Grupo 26240" transform="translate(88.235 500.558)">
      <g id="Grupo_26238" data-name="Grupo 26238" transform="translate(70.765 141.961)">
        <g id="Grupo_26231" data-name="Grupo 26231" transform="translate(25.366 0)">
          <g id="Grupo_26127" data-name="Grupo 26127" transform="translate(66.022 138.653)">
            <g id="Grupo_26126" data-name="Grupo 26126" transform="translate(0 0)">
              <path id="Trazado_67603" data-name="Trazado 67603" d="M261.653,478.4l-59.389-2.079s11.688-26.123,10.3-36.936c-4.169-32.441-24.218-79.524-16.062-89.595,10.381-12.823,25.642-8.557,28.782-17.565,0,0,21.554,40.233,35.571,58.507C247.937,435.939,261.653,478.4,261.653,478.4Z" transform="translate(-194.57 -332.225)" fill="#72acde"/>
            </g>
          </g>
          <g id="Grupo_26129" data-name="Grupo 26129" transform="translate(0 8.963)">
            <g id="Grupo_26128" data-name="Grupo 26128">
              <path id="Trazado_67604" data-name="Trazado 67604" d="M242.742,233.676a53.528,53.528,0,0,1-4.129,14.534c-3.246,7.283-8.1,13.815-11,21.241a44.26,44.26,0,0,0-2.234,24.28c1.109,5.8,3.4,11.5,2.954,17.386-.661,8.812-6.591,12.006-12.528,17.166-6.976,6.06-11.618,12-21.1,14.617-11.923,3.3-24.622,2.382-36.859.5a242.105,242.105,0,0,1-27.629-5.913,49.935,49.935,0,0,1-11.23-4.2c-10.7-5.99-16.3-19.623-12.835-31.257,2.285-7.672,7.929-14.131,9.671-21.938,2.376-10.635-2.9-21.651-1.61-32.467,1.779-14.975,14.672-25.267,19.98-38.831,4.713-12.044,3.361-23.91,12.366-34.589,11.506-13.649,32.214-20.1,49.773-16.851,19.212,3.552,31.758,21.4,38.861,37.857,3.387,7.844,6.5,15.91,7.6,24.365A53.29,53.29,0,0,1,242.742,233.676Z" transform="translate(-105.129 -156.531)" fill="#683936"/>
            </g>
          </g>
          <g id="Grupo_26131" data-name="Grupo 26131" transform="translate(84.743 147.874)">
            <g id="Grupo_26130" data-name="Grupo 26130">
              <path id="Trazado_67605" data-name="Trazado 67605" d="M232.5,370.369c6.959,8.27,13.912,16.626,20.705,25.114,2.523,3.152,5.249,6.408,9.55,7.6,4.227,1.172,14.607-.039,17.846-4.916,1.823-2.744.388-6.622-.506-8.959-2.51-6.558-7.693-12.272-12.2-17.525-8.379-9.776-23.076-28.542-40.594-26.862-14.028,1.347-4.334,14.26-.924,18.294Q229.432,366.733,232.5,370.369Z" transform="translate(-219.931 -344.717)" fill="#72acde"/>
            </g>
          </g>
          <g id="Grupo_26133" data-name="Grupo 26133" transform="translate(18.601 110.579)">
            <g id="Grupo_26132" data-name="Grupo 26132">
              <path id="Trazado_67606" data-name="Trazado 67606" d="M196.272,304.36s-8.748,11.791,1.14,19.78c6.6,5.331,15.8,6.184,17.274,9.688s2.772,14.883,6.755,23.735c6.376,14.169,10.955,14.788,17.475,24.875,8.793,13.6-6.75,18.278-5.913,28.028a59.509,59.509,0,0,1-1.291,19.331l-80.38-6.143s-11.662-73.07-21.006-87.766c16.737-6.847,28.481-12.3,32.285-21.432a163.742,163.742,0,0,0,6.55-20.264Z" transform="translate(-130.328 -294.193)" fill="#f8ac68"/>
            </g>
          </g>
          <g id="Grupo_26135" data-name="Grupo 26135" transform="translate(107.6 209.412)">
            <g id="Grupo_26134" data-name="Grupo 26134">
              <path id="Trazado_67607" data-name="Trazado 67607" d="M260.472,432.873a4.788,4.788,0,1,1-4.788-4.789A4.789,4.789,0,0,1,260.472,432.873Z" transform="translate(-250.897 -428.084)" fill="#f59c5c"/>
            </g>
          </g>
          <g id="Grupo_26137" data-name="Grupo 26137" transform="translate(84.446 222.306)">
            <g id="Grupo_26136" data-name="Grupo 26136">
              <path id="Trazado_67608" data-name="Trazado 67608" d="M330.56,461.443a21.138,21.138,0,0,0-5.9-11.6,16.813,16.813,0,0,0-14.173-4.049c-6.039,1.034-12.412,1.205-18.588,1.627-19.837,1.358-32.325,6.869-52.23,6.846-6.09-.005-19.087-5.741-19.087-5.741s-1.035,16.036-1.053,20.616c-.032,7.908.834,20.253,7.16,26.241a51.353,51.353,0,0,0,16.037,10.339c9.378,3.771,20.951,3.068,30.962,2.437,13.953-.878,32.173-2.6,43.648-10.829C329.088,488.9,333.115,474.751,330.56,461.443Z" transform="translate(-219.529 -445.551)" fill="#e3effa"/>
            </g>
          </g>
          <g id="Grupo_26139" data-name="Grupo 26139" transform="translate(97.81 237.277)">
            <g id="Grupo_26138" data-name="Grupo 26138">
              <path id="Trazado_67609" data-name="Trazado 67609" d="M264.237,468.362s-18.509-9.183-26.6,7.453C237.634,475.815,250.31,465.6,264.237,468.362Z" transform="translate(-237.634 -465.834)" fill="#d1e0e8"/>
            </g>
          </g>
          <g id="Grupo_26141" data-name="Grupo 26141" transform="translate(152.073 241.268)">
            <g id="Grupo_26140" data-name="Grupo 26140">
              <path id="Trazado_67610" data-name="Trazado 67610" d="M311.145,471.282s20.59-1.714,21.983,16.734C333.128,488.016,325.109,473.849,311.145,471.282Z" transform="translate(-311.145 -471.24)" fill="#d1e0e8"/>
            </g>
          </g>
          <g id="Grupo_26143" data-name="Grupo 26143" transform="translate(88.376 225.936)">
            <g id="Grupo_26142" data-name="Grupo 26142">
              <path id="Trazado_67611" data-name="Trazado 67611" d="M331.954,462.731a21.133,21.133,0,0,0-5.9-11.6c-.241-.229-.492-.449-.748-.66a24.444,24.444,0,0,1,2.4,6.938c2.555,13.309-1.473,27.457-13.223,35.887-11.475,8.233-29.7,9.951-43.649,10.829-10.009.63-21.584,1.333-30.962-2.436a51.221,51.221,0,0,1-15.016-9.42,16.654,16.654,0,0,0,3.229,4.4,51.364,51.364,0,0,0,16.037,10.339c9.378,3.771,20.951,3.068,30.962,2.437,13.953-.878,32.173-2.6,43.648-10.829C330.482,490.187,334.509,476.039,331.954,462.731Z" transform="translate(-224.854 -450.47)" fill="#d1e0e8"/>
            </g>
          </g>
          <g id="Grupo_26145" data-name="Grupo 26145" transform="translate(11.966 136.128)">
            <g id="Grupo_26144" data-name="Grupo 26144" transform="translate(0 0)">
              <path id="Trazado_67612" data-name="Trazado 67612" d="M195.4,477.817l-63.489-2.126s12.5-26.7,11.01-37.748c-1.269-9.435-3.06-27.316-5.993-37.959-7.369-26.752-20.166-43.594-13.93-50.957,11.1-13.1,28.342-13.429,33.808-20.222,0,0,22.755,40.741,37.738,59.418C201.7,415.071,195.4,477.817,195.4,477.817Z" transform="translate(-121.339 -328.805)" fill="#8bbee7"/>
            </g>
          </g>
          <g id="Grupo_26148" data-name="Grupo 26148" transform="translate(22.54 207.307)">
            <g id="Grupo_26147" data-name="Grupo 26147">
              <g id="Grupo_26146" data-name="Grupo 26146">
                <path id="Trazado_67613" data-name="Trazado 67613" d="M150.21,495.459s12.5-26.7,11.01-37.747c-1.268-9.437-10.513-22.394-20.539-32.479,2.933,10.643,4.724,28.524,5.992,37.959,1.487,11.051-11.009,37.748-11.009,37.748l63.489,2.126s.221-2.2.534-5.951Z" transform="translate(-135.664 -425.233)" fill="#72acde"/>
              </g>
            </g>
          </g>
          <g id="Grupo_26150" data-name="Grupo 26150" transform="translate(53.106 110.992)">
            <g id="Grupo_26149" data-name="Grupo 26149">
              <path id="Trazado_67614" data-name="Trazado 67614" d="M204.9,317.134c-2.529.147-17.77.6-27.786-8.682-.016-.075-.028-.145-.044-.219a118.252,118.252,0,0,0,3.015-13.482l15.17,5.43,11.838,6.936C205.833,309.4,204.272,313.194,204.9,317.134Z" transform="translate(-177.072 -294.752)" fill="#f59c5c"/>
            </g>
          </g>
          <g id="Grupo_26154" data-name="Grupo 26154" transform="translate(29.948 56.736)">
            <g id="Grupo_26153" data-name="Grupo 26153">
              <g id="Grupo_26152" data-name="Grupo 26152">
                <g id="Grupo_26151" data-name="Grupo 26151">
                  <path id="Trazado_67615" data-name="Trazado 67615" d="M163.495,222.089s-16.253-5.761-17.746,12.93c-1.08,13.523,16.133,13.762,16.133,13.762Z" transform="translate(-145.7 -221.251)" fill="#f59c5c"/>
                </g>
              </g>
            </g>
          </g>
          <g id="Grupo_26156" data-name="Grupo 26156" transform="translate(40.844 14.156)">
            <g id="Grupo_26155" data-name="Grupo 26155">
              <path id="Trazado_67616" data-name="Trazado 67616" d="M164.711,192.678c-7.528,18.671-6.416,62.227,14.511,78,17.7,13.347,41.648,11.542,56.387-5.6,18.063-21,47.207-86.187-15.552-100.1C192,158.759,172.241,174.007,164.711,192.678Z" transform="translate(-160.46 -163.566)" fill="#fbb774"/>
            </g>
          </g>
          <g id="Grupo_26163" data-name="Grupo 26163" transform="translate(52.956 93.61)">
            <g id="Grupo_26159" data-name="Grupo 26159" transform="translate(0 0.489)">
              <g id="Grupo_26158" data-name="Grupo 26158">
                <g id="Grupo_26157" data-name="Grupo 26157">
                  <path id="Trazado_67617" data-name="Trazado 67617" d="M177.926,279.475a.954.954,0,0,1-.954-.953c0-.379-.022-.815-.046-1.273-.094-1.841-.2-3.928.8-5.059a.954.954,0,0,1,1.431,1.264c-.486.548-.391,2.445-.328,3.7.027.495.048.962.048,1.37A.953.953,0,0,1,177.926,279.475Z" transform="translate(-176.869 -271.867)" fill="#f8e5cf"/>
                </g>
              </g>
            </g>
            <g id="Grupo_26162" data-name="Grupo 26162" transform="translate(4.445)">
              <g id="Grupo_26161" data-name="Grupo 26161">
                <g id="Grupo_26160" data-name="Grupo 26160">
                  <path id="Trazado_67618" data-name="Trazado 67618" d="M183.851,279.266a.953.953,0,0,1-.951-.9,9.853,9.853,0,0,1,.486-3.216c.049-.165.108-.343.171-.533.195-.588.523-1.569.286-1.912a.953.953,0,0,1,1.566-1.088c.784,1.126.307,2.558-.042,3.6l-.148.463a8.1,8.1,0,0,0-.413,2.58.953.953,0,0,1-.9,1Z" transform="translate(-182.891 -271.205)" fill="#f8e5cf"/>
                </g>
              </g>
            </g>
          </g>
          <g id="Grupo_26170" data-name="Grupo 26170" transform="translate(100.354 107.413)">
            <g id="Grupo_26166" data-name="Grupo 26166" transform="translate(0 0.489)">
              <g id="Grupo_26165" data-name="Grupo 26165">
                <g id="Grupo_26164" data-name="Grupo 26164">
                  <path id="Trazado_67619" data-name="Trazado 67619" d="M242.135,298.174a.954.954,0,0,1-.953-.954c0-.378-.021-.813-.046-1.273-.092-1.841-.2-3.928.8-5.059a.954.954,0,0,1,1.43,1.264c-.484.548-.39,2.444-.326,3.7.025.493.048.961.048,1.368A.954.954,0,0,1,242.135,298.174Z" transform="translate(-241.08 -290.566)" fill="#f8e5cf"/>
                </g>
              </g>
            </g>
            <g id="Grupo_26169" data-name="Grupo 26169" transform="translate(4.445)">
              <g id="Grupo_26168" data-name="Grupo 26168">
                <g id="Grupo_26167" data-name="Grupo 26167">
                  <path id="Trazado_67620" data-name="Trazado 67620" d="M248.061,297.965a.954.954,0,0,1-.951-.9,9.786,9.786,0,0,1,.486-3.215c.048-.165.106-.344.17-.533.2-.587.525-1.569.287-1.912a.953.953,0,1,1,1.566-1.089c.782,1.126.306,2.559-.042,3.6l-.15.464a8.094,8.094,0,0,0-.412,2.579.954.954,0,0,1-.9,1Z" transform="translate(-247.101 -289.904)" fill="#f8e5cf"/>
                </g>
              </g>
            </g>
          </g>
          <g id="Grupo_26175" data-name="Grupo 26175" transform="translate(69.953 98.581)">
            <g id="Grupo_26172" data-name="Grupo 26172">
              <g id="Grupo_26171" data-name="Grupo 26171">
                <path id="Trazado_67621" data-name="Trazado 67621" d="M201.229,282.828c1.915-3.9,4.007-5.684,5.11-4.556,2.268,2.324,7.768,6.686,10.962,7.9,2.43.92,2.293,1.611.915,3.771-2.112,3.308-7.353,9.756-13.459,7.109C198.687,294.423,199.315,286.716,201.229,282.828Z" transform="translate(-199.896 -277.939)" fill="#fff"/>
              </g>
            </g>
            <g id="Grupo_26174" data-name="Grupo 26174" transform="translate(0.003 7.242)">
              <g id="Grupo_26173" data-name="Grupo 26173">
                <path id="Trazado_67622" data-name="Trazado 67622" d="M214.493,297.046a27.691,27.691,0,0,0-14.116-9.3c-1.076,4.088-.625,9.7,4.381,11.873C208.5,301.243,211.919,299.441,214.493,297.046Z" transform="translate(-199.899 -287.75)" fill="#df4c50"/>
              </g>
            </g>
          </g>
          <g id="Grupo_26177" data-name="Grupo 26177" transform="translate(65.969 72.06)">
            <g id="Grupo_26176" data-name="Grupo 26176">
              <path id="Trazado_67623" data-name="Trazado 67623" d="M202.749,249.367c-.934,3.41-3.464,5.689-5.645,5.093s-3.193-3.852-2.258-7.259,3.463-5.692,5.642-5.1S203.684,245.958,202.749,249.367Z" transform="translate(-194.498 -242.011)" fill="#683936"/>
            </g>
          </g>
          <g id="Grupo_26179" data-name="Grupo 26179" transform="translate(104.39 84.029)">
            <g id="Grupo_26178" data-name="Grupo 26178">
              <path id="Trazado_67624" data-name="Trazado 67624" d="M255.639,267.676a1.088,1.088,0,0,1-.252-.03,1.107,1.107,0,0,1-.828-1.329c.706-3.04-.336-5.516-1.713-5.837-1.55-.358-3.475,1.738-4.113,4.486a1.107,1.107,0,0,1-2.157-.5c.953-4.1,3.928-6.8,6.77-6.141s4.322,4.393,3.369,8.495A1.108,1.108,0,0,1,255.639,267.676Z" transform="translate(-246.548 -258.225)" fill="#683936"/>
            </g>
          </g>
          <g id="Grupo_26181" data-name="Grupo 26181" transform="translate(84.923 86.705)">
            <g id="Grupo_26180" data-name="Grupo 26180">
              <path id="Trazado_67625" data-name="Trazado 67625" d="M220.946,275.318a.772.772,0,0,1-.154-1.528l5.86-1.2c-2.618-4.887.253-10.11.385-10.344a.772.772,0,0,1,1.346.756c-.03.052-2.917,5.341.135,9.679a.771.771,0,0,1-.476,1.2L221.1,275.3A.754.754,0,0,1,220.946,275.318Z" transform="translate(-220.175 -261.851)" fill="#b84a1b"/>
            </g>
          </g>
          <g id="Grupo_26183" data-name="Grupo 26183" transform="translate(28.772)">
            <g id="Grupo_26182" data-name="Grupo 26182">
              <path id="Trazado_67626" data-name="Trazado 67626" d="M216.215,178.373l-3.812,39.04,45.437,17.05s24.119-63.239-36.392-85.7c-56.313-20.906-77.342,39.969-77.342,39.969l28.46,2.574-15.138,11.853S187.741,203.929,216.215,178.373Z" transform="translate(-144.106 -144.389)" fill="#683936"/>
            </g>
          </g>
          <g id="Grupo_26185" data-name="Grupo 26185" transform="translate(69.024 56.971)">
            <g id="Grupo_26184" data-name="Grupo 26184">
              <path id="Trazado_67627" data-name="Trazado 67627" d="M200.971,226.775c1.438.088,3.17-.6,4.419-.548,1.694.069,4.361,1.088,3.988-1.856-.634-4.949-13.02-2.606-10.369,1.351A2.371,2.371,0,0,0,200.971,226.775Z" transform="translate(-198.637 -221.569)" fill="#683936"/>
            </g>
          </g>
          <g id="Grupo_26187" data-name="Grupo 26187" transform="translate(125.498 27.082)">
            <g id="Grupo_26186" data-name="Grupo 26186">
              <path id="Trazado_67628" data-name="Trazado 67628" d="M283.673,231.2a.78.78,0,0,1-.2-.028.772.772,0,0,1-.54-.949c6.771-24.7-7.52-47.732-7.664-47.963a.771.771,0,1,1,1.3-.824c.149.235,14.8,23.849,7.848,49.195A.772.772,0,0,1,283.673,231.2Z" transform="translate(-275.144 -181.078)" fill="#56302d"/>
            </g>
          </g>
          <g id="Grupo_26189" data-name="Grupo 26189" transform="translate(110.395 29.531)">
            <g id="Grupo_26188" data-name="Grupo 26188">
              <path id="Trazado_67629" data-name="Trazado 67629" d="M255.454,223.088a.772.772,0,0,1-.56-1.3c14.211-15,7.249-36.157,7.177-36.369a.772.772,0,0,1,1.461-.5c.075.221,7.327,22.258-7.518,37.928A.768.768,0,0,1,255.454,223.088Z" transform="translate(-254.683 -184.396)" fill="#56302d"/>
            </g>
          </g>
          <g id="Grupo_26191" data-name="Grupo 26191" transform="translate(47.119 16.715)">
            <g id="Grupo_26190" data-name="Grupo 26190">
              <path id="Trazado_67630" data-name="Trazado 67630" d="M169.733,186.7a.771.771,0,0,1-.566-1.295,56.254,56.254,0,0,1,45.164-18.2.772.772,0,0,1-.2,1.531,54.676,54.676,0,0,0-43.83,17.719A.768.768,0,0,1,169.733,186.7Z" transform="translate(-168.962 -167.033)" fill="#56302d"/>
            </g>
          </g>
          <g id="Grupo_26193" data-name="Grupo 26193" transform="translate(58.957 26.266)">
            <g id="Grupo_26192" data-name="Grupo 26192">
              <path id="Trazado_67631" data-name="Trazado 67631" d="M185.771,190.088a.772.772,0,0,1-.5-1.363,37.287,37.287,0,0,1,22.132-8.753.772.772,0,0,1,0,1.543,36.419,36.419,0,0,0-21.14,8.392A.77.77,0,0,1,185.771,190.088Z" transform="translate(-184.999 -179.972)" fill="#56302d"/>
            </g>
          </g>
          <g id="Grupo_26195" data-name="Grupo 26195" transform="translate(1.279 152.343)">
            <g id="Grupo_26194" data-name="Grupo 26194">
              <path id="Trazado_67632" data-name="Trazado 67632" d="M133.323,384.095c-.035,14.142-.009,28.371.224,42.612.086,5.287.083,10.847-2.458,15.483-2.5,4.558-11.267,11.465-16.9,8.908-3.167-1.439-4.559-6.63-5.375-9.783-2.29-8.846-1.975-18.912-1.89-27.961.157-16.84-.607-48.071,13.958-60.108,11.663-9.638,12.511,11.523,12.483,18.432Q133.34,377.874,133.323,384.095Z" transform="translate(-106.861 -350.772)" fill="#8bbee7"/>
            </g>
          </g>
          <g id="Grupo_26197" data-name="Grupo 26197" transform="translate(85.834 199.882)">
            <g id="Grupo_26196" data-name="Grupo 26196">
              <path id="Trazado_67633" data-name="Trazado 67633" d="M222.773,415.173s2.336,24.336,17.85,30.987C240.624,446.16,215.356,444.82,222.773,415.173Z" transform="translate(-221.41 -415.173)" fill="#f59c5c"/>
            </g>
          </g>
          <g id="Grupo_26199" data-name="Grupo 26199" transform="translate(7.059 206.479)">
            <g id="Grupo_26198" data-name="Grupo 26198">
              <path id="Trazado_67634" data-name="Trazado 67634" d="M120.124,473.546c8.106,4.179,25.185-6.7,33.5-10.523,6.827-3.142,14.362-9.87,21.353-12.705A28.356,28.356,0,0,1,182.3,448.1c3.188-.366,6.395.331,9.516,1.022,5.978,1.325,16.988-.385,21.322-.469-4.334-3.666-10.445-2.478-12.177-6.923-2.892-7.427,4.673-9.327,9.553-12.749a5.6,5.6,0,0,0,1.942-1.955,1.932,1.932,0,0,0-.472-2.426,3.782,3.782,0,0,0-2.079-.471,8.477,8.477,0,0,0-3.049.272,7.81,7.81,0,0,0-1.719.936c-3.561,2.347-6.463,4.736-11.034,4.9-3.7.136-5.924-1.907-13.518,1.821s-38.622,14.312-51.693,19.177S109.345,467.988,120.124,473.546Z" transform="translate(-114.691 -424.111)" fill="#ffbb7e"/>
            </g>
          </g>
          <g id="Grupo_26201" data-name="Grupo 26201" transform="translate(102.113 186.831)">
            <g id="Grupo_26200" data-name="Grupo 26200">
              <path id="Trazado_67635" data-name="Trazado 67635" d="M282.555,400.526c-5.16-3.4-16.13-3.362-22.09-2.64-3.272.4-10.28,2.91-10.092,3.08,0,0-2.033-1.834-3.489-1.074s0,3.406,0,3.406-3.132.125-3.4,1.78,3.257,1.825,3.257,1.825-2.575,1.472-1.765,3.318,3.326.026,3.326.026-1.729,2.415.053,3.752,3-2.076,3-2.076.414,1.55,2.412.882.542-3.308.542-3.308c3.581-4.3,10.46-2.4,15.176-1.337,5.3,1.194,10.647,3.76,13.943,1.918C287.387,407.86,286.951,403.7,282.555,400.526Z" transform="translate(-243.463 -397.493)" fill="#ffd5a1"/>
            </g>
          </g>
          <g id="Grupo_26203" data-name="Grupo 26203" transform="translate(116.664 189.656)">
            <g id="Grupo_26202" data-name="Grupo 26202">
              <path id="Trazado_67636" data-name="Trazado 67636" d="M315.85,430.23c-.027-2.423-.193-4.769-.4-6.818-.647-6.471-7.8-13.11-13.559-16.544-6.676-3.977-19.465-7.8-26.716-3.952-6.886,3.652-5.837,12.592-6.939,18.737a87,87,0,0,1-2.815,9.546,49.013,49.013,0,0,0-2.082,18.264,8.549,8.549,0,0,0,1.075,3.754c1.167,1.9,3.292,2.8,6.717,3.762,11,3.1,24.3,2.253,33.484-3.882,3.674-2.454,7.062-5.421,8.939-9.186C315.407,440.2,315.9,435.058,315.85,430.23Z" transform="translate(-263.176 -401.321)" fill="#add8d2"/>
            </g>
          </g>
          <g id="Grupo_26220" data-name="Grupo 26220" transform="translate(108.122 192.972)">
            <g id="Grupo_26205" data-name="Grupo 26205" transform="translate(19.024)">
              <g id="Grupo_26204" data-name="Grupo 26204">
                <path id="Trazado_67637" data-name="Trazado 67637" d="M289.986,416.963s5.928-7.946-3.612-10.828c-6.42-1.94-9,5.516-9,5.516Z" transform="translate(-277.377 -405.813)" fill="#ffd5a1"/>
              </g>
            </g>
            <g id="Grupo_26207" data-name="Grupo 26207" transform="translate(4.438 46.748)">
              <g id="Grupo_26206" data-name="Grupo 26206">
                <path id="Trazado_67638" data-name="Trazado 67638" d="M271.327,473.427s-.756,9.885-9.839,5.786c-6.114-2.758-3.156-10.07-3.156-10.07Z" transform="translate(-257.617 -469.143)" fill="#ffd5a1"/>
              </g>
            </g>
            <g id="Grupo_26209" data-name="Grupo 26209" transform="translate(0 3.521)">
              <g id="Grupo_26208" data-name="Grupo 26208">
                <path id="Trazado_67639" data-name="Trazado 67639" d="M251.7,442.787a21.109,21.109,0,0,0,4.527,11.1c3,3.709,6.973,5.693,11.361,7.3q.837.306,1.682.589a49.576,49.576,0,0,0,14.4,2.525,28.868,28.868,0,0,0,12.279-2c8.741-3.787,14.153-13.9,13.533-23.634S302.74,420,294.488,415.194a35.036,35.036,0,0,0-16.538-4.586c-7.323-.223-16.588.906-19.2,9.092-.388,1.215-.234,3.283-1.138,4.251-.855.918-2.426.655-3.167,1.854-1,1.612.054,3.966-.548,5.76-.522,1.554-1.3,3.021-1.708,4.613A19,19,0,0,0,251.7,442.787Z" transform="translate(-251.604 -410.583)" fill="#ffd5a1"/>
              </g>
            </g>
            <g id="Grupo_26211" data-name="Grupo 26211" transform="translate(10.491 4.167)">
              <g id="Grupo_26210" data-name="Grupo 26210">
                <path id="Trazado_67640" data-name="Trazado 67640" d="M317.123,441.725c.912-6.227.3-12.857-2.88-17.731-3.7-5.675-10.591-8.736-16.656-11.191-.93-.376-12.121-2.518-11.512-.474.735,2.466.593,7.975.357,10.537-1.658-1.877-3.666-.964-7.886-5.905-.712.915-3.928,11.677-3.18,12.115l-5.417-3.173a52.667,52.667,0,0,0,1.059,17.474,13.66,13.66,0,0,1-5.19-3.082c.552,14.7,11.21,28.4,26.955,26.949a26.286,26.286,0,0,0,21.413-15.486A36.807,36.807,0,0,0,317.123,441.725Z" transform="translate(-265.817 -411.458)" fill="#d05931"/>
              </g>
            </g>
            <g id="Grupo_26213" data-name="Grupo 26213" transform="translate(7.221 4.713)">
              <g id="Grupo_26212" data-name="Grupo 26212">
                <path id="Trazado_67641" data-name="Trazado 67641" d="M261.387,419.917a5.768,5.768,0,1,0,8.47-7.72C266.052,413.4,262.818,415.694,261.387,419.917Z" transform="translate(-261.387 -412.197)" fill="#f59c5c"/>
              </g>
            </g>
            <g id="Grupo_26215" data-name="Grupo 26215" transform="translate(0.006 32.609)">
              <g id="Grupo_26214" data-name="Grupo 26214">
                <path id="Trazado_67642" data-name="Trazado 67642" d="M257.733,453.615a5.77,5.77,0,0,0-6.086-3.58,19.847,19.847,0,0,0,.057,3.071,21.251,21.251,0,0,0,2.535,8.1c.092-.031.183-.058.273-.093A5.772,5.772,0,0,0,257.733,453.615Z" transform="translate(-251.613 -449.988)" fill="#f59c5c"/>
              </g>
            </g>
            <g id="Grupo_26217" data-name="Grupo 26217" transform="translate(6.999 31.759)">
              <g id="Grupo_26216" data-name="Grupo 26216">
                <path id="Trazado_67643" data-name="Trazado 67643" d="M262.459,454.919a.641.641,0,0,1-.454-.187,3.792,3.792,0,0,1-.668-3.813,3.168,3.168,0,0,1,3.167-2.057.646.646,0,0,1-.179,1.279c-.835-.125-1.5.635-1.815,1.316a2.545,2.545,0,0,0,.4,2.358.645.645,0,0,1-.454,1.1Z" transform="translate(-261.085 -448.837)" fill="#683936"/>
              </g>
            </g>
            <g id="Grupo_26219" data-name="Grupo 26219" transform="translate(16.394 11.825)">
              <g id="Grupo_26218" data-name="Grupo 26218">
                <path id="Trazado_67644" data-name="Trazado 67644" d="M275.187,427.914a.642.642,0,0,1-.455-.187,3.79,3.79,0,0,1-.667-3.813,3.176,3.176,0,0,1,3.166-2.057.646.646,0,0,1-.178,1.279c-.842-.127-1.5.636-1.815,1.316a2.541,2.541,0,0,0,.4,2.358.645.645,0,0,1-.454,1.1Z" transform="translate(-273.813 -421.832)" fill="#683936"/>
              </g>
            </g>
          </g>
          <g id="Grupo_26222" data-name="Grupo 26222" transform="translate(146.87 206.862)">
            <g id="Grupo_26221" data-name="Grupo 26221">
              <path id="Trazado_67645" data-name="Trazado 67645" d="M308.143,441.548h-.028a.772.772,0,0,1-.743-.8,31.562,31.562,0,0,0-3.2-15.006.772.772,0,1,1,1.386-.681,33.108,33.108,0,0,1,3.353,15.743A.772.772,0,0,1,308.143,441.548Z" transform="translate(-304.097 -424.629)" fill="#b84a1b"/>
            </g>
          </g>
          <g id="Grupo_26224" data-name="Grupo 26224" transform="translate(132.201 229.808)">
            <g id="Grupo_26223" data-name="Grupo 26223">
              <path id="Trazado_67646" data-name="Trazado 67646" d="M285.477,460.527q-.259,0-.523-.015a.772.772,0,1,1,.083-1.541c2.779.148,5.05-1.129,7.606-3.1a.771.771,0,1,1,.941,1.222C291.417,458.766,288.836,460.527,285.477,460.527Z" transform="translate(-284.223 -455.715)" fill="#b84a1b"/>
            </g>
          </g>
          <g id="Grupo_26226" data-name="Grupo 26226" transform="translate(152.264 228.888)">
            <g id="Grupo_26225" data-name="Grupo 26225">
              <path id="Trazado_67647" data-name="Trazado 67647" d="M312.448,466.036a.773.773,0,0,1-.658-1.174,8.7,8.7,0,0,0-.251-9.184.772.772,0,1,1,1.273-.874,10.284,10.284,0,0,1,.3,10.861A.774.774,0,0,1,312.448,466.036Z" transform="translate(-311.403 -454.469)" fill="#b84a1b"/>
            </g>
          </g>
          <g id="Grupo_26228" data-name="Grupo 26228" transform="translate(148.269 225.607)">
            <g id="Grupo_26227" data-name="Grupo 26227">
              <path id="Trazado_67648" data-name="Trazado 67648" d="M305.993,451.477a1.529,1.529,0,0,1,.947-1.338,1.18,1.18,0,0,1,1.121.055.859.859,0,0,1,.39,1.1,2.235,2.235,0,0,1-.313.767A1.2,1.2,0,0,1,305.993,451.477Z" transform="translate(-305.991 -450.023)" fill="#b84a1b"/>
            </g>
          </g>
          <g id="Grupo_26230" data-name="Grupo 26230" transform="translate(156.944 214.14)">
            <g id="Grupo_26229" data-name="Grupo 26229">
              <path id="Trazado_67649" data-name="Trazado 67649" d="M336.075,443.084c.907-3.976.785-7.933-2.918-8.2-2.273-.16-4.559-.279-6.863-.283-1.182,0-4.856-.506-5.84.6a1.553,1.553,0,0,0-.342,1.194,2.1,2.1,0,0,0,1.289,1.369,53.53,53.53,0,0,0,8,3.092q-3.652-.285-7.3-.568a4.241,4.241,0,0,0-2.532.347,2.1,2.1,0,0,0-1.068,1.442c-.122.906.613,1.441,1.267,1.775a51.025,51.025,0,0,0,7.531,3.111,38.15,38.15,0,0,0-7.506-1.214c-.745-.021-1.76.221-1.989,1.107-.436,1.677,1.839,2.5,2.662,2.711,1.775.458,3.515.852,5.31,1.329-1.85.06-3.593-.165-5.32.845a1.141,1.141,0,0,0-.273,1.9,3.2,3.2,0,0,0,2.182.806c7.366.74,9.854,1,13.031-8.888C335.647,444.759,335.883,443.922,336.075,443.084Z" transform="translate(-317.743 -434.489)" fill="#ffbb7e"/>
            </g>
          </g>
        </g>
        <g id="Grupo_26233" data-name="Grupo 26233" transform="translate(176.239 156.211)">
          <g id="Grupo_26232" data-name="Grupo 26232">
            <path id="Trazado_67650" data-name="Trazado 67650" d="M322.528,361.824s9.045-1.343,9.778,5.21c.963,8.608-18.806,11.723-18.806,11.723s-8.433-19-.749-22.151C319.588,353.8,322.528,361.824,322.528,361.824Z" transform="translate(-309.52 -356.012)" fill="#f79f89"/>
          </g>
        </g>
        <g id="Grupo_26237" data-name="Grupo 26237" transform="translate(0 110.266)">
          <g id="Grupo_26234" data-name="Grupo 26234" transform="translate(4.718)">
            <path id="Trazado_67651" data-name="Trazado 67651" d="M91.712,298.909a.334.334,0,0,0-.027-.038,2.746,2.746,0,0,0-1.462-.7c-.654-.188-1.294-.409-1.93-.654-1.244-.481-2.454-1.039-3.643-1.638-.965-.481-1.909-1-2.868-1.487-.39-.2-1.027-.658-1.5-.621-.861.066-.929,1.349-1.031,1.983-.189,1.118-.382,2.235-.568,3.356-.361,2.189-.795,2.784-1.037,4.987a14,14,0,0,1-.253,1.67c-.087.352-.382.633-.151.974a8.742,8.742,0,0,0,1.823,1.32s.5-3.089.571-3.73c.193-1.742.552-1.883.84-3.61.145-.873.293-1.743.438-2.615.068-.4-.018-1.6.541-1.7.244-.043.7.375.9.482.292.145.59.269.878.415.686.347,1.378.684,2.085.993a25.062,25.062,0,0,0,3.009.968,3.514,3.514,0,0,1,1.311.481c.546.5-1,5.429-1.233,7.634a14.564,14.564,0,0,1-.258,1.667c-.084.356-.38.633-.148.977a8.723,8.723,0,0,0,1.822,1.321s.5-3.089.574-3.732c.253-2.313.735-3.011,1.12-5.305.069-.41.264-1.134.339-1.826A2.231,2.231,0,0,0,91.712,298.909Z" transform="translate(-77.157 -293.769)" fill="#d05931"/>
          </g>
          <g id="Grupo_26235" data-name="Grupo 26235" transform="translate(0 10.361)">
            <path id="Trazado_67652" data-name="Trazado 67652" d="M77.275,311.575a3.274,3.274,0,1,0-3.733,2.738A3.275,3.275,0,0,0,77.275,311.575Z" transform="translate(-70.765 -307.805)" fill="#d05931"/>
          </g>
          <g id="Grupo_26236" data-name="Grupo 26236" transform="translate(10.915 13.85)">
            <path id="Trazado_67653" data-name="Trazado 67653" d="M92.057,316.3a3.272,3.272,0,1,0-3.729,2.739A3.271,3.271,0,0,0,92.057,316.3Z" transform="translate(-85.552 -312.532)" fill="#d05931"/>
          </g>
        </g>
      </g>
      <g id="Grupo_26239" data-name="Grupo 26239" transform="translate(88.798 135.114)">
        <path id="Trazado_67654" data-name="Trazado 67654" d="M99.508,193.845a.74.74,0,0,1-.438-.144,8.069,8.069,0,0,1-2.435-3.2.738.738,0,1,1,1.341-.617,6.72,6.72,0,0,0,1.971,2.627.738.738,0,0,1-.439,1.332Zm-3.271-6.436a.739.739,0,0,1-.726-.608,20.817,20.817,0,0,1-.316-3.657v-.152a.72.72,0,0,1,.743-.732.738.738,0,0,1,.733.743v.141a19.274,19.274,0,0,0,.293,3.4.739.739,0,0,1-.6.857A.723.723,0,0,1,96.237,187.409Zm.038-7.345a.738.738,0,0,1-.727-.87,20.224,20.224,0,0,1,1.028-3.685.738.738,0,1,1,1.377.533A18.664,18.664,0,0,0,97,179.458.738.738,0,0,1,96.276,180.064Zm13.582-4.917a.738.738,0,0,1-.006-1.476,3.271,3.271,0,0,0,2.062-.85,4.386,4.386,0,0,0,.551-.546.738.738,0,1,1,1.129.951,5.894,5.894,0,0,1-.737.731,4.7,4.7,0,0,1-2.995,1.191Zm-3.246-1.537a.734.734,0,0,1-.517-.212,11.861,11.861,0,0,1-2.246-3.213.738.738,0,0,1,1.323-.656,10.553,10.553,0,0,0,1.958,2.817.738.738,0,0,1-.517,1.264Zm-7.644-.362a.739.739,0,0,1-.609-1.155,14.077,14.077,0,0,1,2.111-2.443c.154-.14.329-.288.526-.439a.738.738,0,1,1,.9,1.167c-.162.125-.307.246-.433.362a12.546,12.546,0,0,0-1.889,2.186A.738.738,0,0,1,98.968,173.249Zm15.025-3.2a.738.738,0,0,1-.723-.593,2.923,2.923,0,0,0-1.848-2.145.738.738,0,1,1,.548-1.371,4.373,4.373,0,0,1,2.748,3.227.738.738,0,0,1-.579.868A.752.752,0,0,1,113.993,170.053Zm-9.386-1.422a.738.738,0,0,1-.321-1.4,18.667,18.667,0,0,1,3.6-1.332.738.738,0,0,1,.349,1.434,17.186,17.186,0,0,0-3.311,1.228A.734.734,0,0,1,104.607,168.631Zm-1.358-1.5a.737.737,0,0,1-.715-.558,20.229,20.229,0,0,1-.578-3.783.738.738,0,0,1,1.474-.083,18.7,18.7,0,0,0,.535,3.506.738.738,0,0,1-.536.9A.762.762,0,0,1,103.249,167.133Zm-.39-7.325a.709.709,0,0,1-.111-.009.739.739,0,0,1-.62-.84,15.853,15.853,0,0,1,1.025-3.723.738.738,0,0,1,1.363.568,14.356,14.356,0,0,0-.928,3.376A.739.739,0,0,1,102.859,159.808Zm2.651-6.835a.738.738,0,0,1-.632-1.119,32.137,32.137,0,0,1,2.14-3.112.738.738,0,0,1,1.166.9,30.769,30.769,0,0,0-2.041,2.969A.739.739,0,0,1,105.51,152.974Zm4.5-5.837a.738.738,0,0,1-.534-1.247c.856-.9,1.772-1.771,2.722-2.595a.738.738,0,1,1,.967,1.115c-.915.794-1.8,1.634-2.62,2.5A.737.737,0,0,1,110.011,147.136Zm5.572-4.83a.738.738,0,0,1-.429-1.339,37.615,37.615,0,0,1,3.169-2.032.738.738,0,0,1,.733,1.281c-1.03.589-2.054,1.246-3.045,1.952A.733.733,0,0,1,115.583,142.307Zm6.406-3.645a.738.738,0,0,1-.292-1.417,28.618,28.618,0,0,1,3.566-1.273.738.738,0,0,1,.4,1.421,27.067,27.067,0,0,0-3.382,1.208A.746.746,0,0,1,121.989,138.661Zm7.089-1.956a.738.738,0,0,1-.08-1.472,18.766,18.766,0,0,1,3.717-.051.738.738,0,1,1-.132,1.47,17.087,17.087,0,0,0-3.423.048A.781.781,0,0,1,129.078,136.705Z" transform="translate(-95.195 -135.114)" fill="#f79f89"/>
      </g>
    </g>
    <g id="Grupo_26125" data-name="Grupo 26125" transform="translate(-2304.714 -50.312)">
      <g id="Grupo_26056" data-name="Grupo 26056" transform="translate(2738.413 1097.757)">
        <path id="Trazado_67505" data-name="Trazado 67505" d="M2833.48,1961.183c.393-.319,2.855-.663,6.055-1.081,5.25-.685,13.87-2.248,16.224-4.6,2-1.995,1.842-7.778,1.842-7.778s8.227.9,10.422,3c-1.069,3.161.735,8.286,1.2,11.558h0c.519,2-.079,3.083-1.206,3.083H2833.48C2832.435,1965.365,2832.064,1962.334,2833.48,1961.183Z" transform="translate(-2832.039 -1947.723)" fill="#dd605e"/>
        <g id="Grupo_26055" data-name="Grupo 26055" transform="translate(0 17.13)">
          <path id="Trazado_67506" data-name="Trazado 67506" d="M2868.281,2003.873h-36.866a.513.513,0,0,1,0-1.026h36.866a.513.513,0,1,1,0,1.026Z" transform="translate(-2830.902 -2002.847)" fill="#ae353f"/>
        </g>
      </g>
      <g id="Grupo_26058" data-name="Grupo 26058" transform="translate(2900.913 1055.612)">
        <path id="Trazado_67507" data-name="Trazado 67507" d="M3353.832,1846.29c-.031-.505,1.12-2.709,2.639-5.556,2.494-4.671,6.23-12.594,5.683-15.878-.464-2.783-5.259-6.019-5.259-6.019s5.515-6.171,8.5-6.738c1.951,2.707,7.171,4.217,10.106,5.736h0c1.93.74,2.464,1.855,1.809,2.772l-20.074,28.113C3356.628,1849.571,3353.945,1848.11,3353.832,1846.29Z" transform="translate(-3353.831 -1812.099)" fill="#dd605e"/>
        <g id="Grupo_26057" data-name="Grupo 26057" transform="translate(2.352 6.86)">
          <path id="Trazado_67508" data-name="Trazado 67508" d="M3361.913,1865.2a.513.513,0,0,1-.417-.811l21.423-30a.513.513,0,0,1,.835.6l-21.424,30A.511.511,0,0,1,3361.913,1865.2Z" transform="translate(-3361.401 -1834.176)" fill="#ae353f"/>
        </g>
      </g>
      <g id="legs" transform="translate(2761.451 873.221)">
        <path id="Trazado_67509" data-name="Trazado 67509" d="M2905.042,1455.186c-.137,1.829,12.533,3.842,12.921,2.736.891-2.525,22.457-56.672,24.855-78.877,1.172-10.858-1.594-24.339-1.339-28.609.583-9.763,1.427-20.36,2.371-31.118.57-6.534,1.179-13.125,1.785-19.62.017-.164.03-.325.047-.489,2.884-30.813,5.734-59.4,4.649-69.409-20.139-2.861-40.311-4.639-40.311-4.639-2.864,39.008-2.589,106.15-3.131,121.008C2906.157,1366.207,2907.631,1420.893,2905.042,1455.186Z" transform="translate(-2905.04 -1225.161)" fill="#262a6b"/>
        <path id="Trazado_67510" data-name="Trazado 67510" d="M3088.85,1425.592c-11.955-4.417-84.548-60.588-88.537-70.559-3.014-7.536-38.652-118.159-38.743-119.973,0,0,48.03-.09,54.779,3.442.037,1.415,5.03,16.331,6.649,27.856,3.708,26.393,6.974,64.452,9.02,72.681.686,2.757,17.636,9.674,24.25,16.288,17.113,17.113,40.842,56.2,41.71,60.317C3098.39,1417.593,3091.486,1426.565,3088.85,1425.592Z" transform="translate(-2944.003 -1231.983)" fill="#262a6b"/>
        <g id="Grupo_26066" data-name="Grupo 26066" transform="translate(8.815 13.531)">
          <g id="Grupo_26059" data-name="Grupo 26059" transform="translate(52.347 0.035)">
            <path id="Trazado_67511" data-name="Trazado 67511" d="M3190.99,1443.609a.462.462,0,0,1-.287-.1c-4.369-3.414-17-21.343-27.141-35.75-6.479-9.2-12.074-17.145-14.166-19.428-.6-.654-5.042-3.6-9.746-6.718-11.1-7.362-19.684-13.15-20.744-15.119-1.19-2.209-8.71-27.808-9.19-32.84-.137-1.437-.894-7.059-1.851-14.176-2.354-17.5-5.913-43.949-6-50.191a.466.466,0,0,1,.459-.473.456.456,0,0,1,.473.459c.09,6.186,3.644,32.6,6,50.08,1,7.406,1.716,12.757,1.855,14.212.469,4.919,8.034,30.539,9.083,32.487,1.034,1.919,12.249,9.354,20.438,14.784,5.9,3.913,9.272,6.161,9.918,6.865,2.133,2.327,7.744,10.3,14.241,19.521,10.11,14.356,22.692,32.223,26.952,35.552a.466.466,0,0,1-.287.833Z" transform="translate(-3101.862 -1268.816)" fill="#150e2e"/>
          </g>
          <g id="Grupo_26060" data-name="Grupo 26060" transform="translate(53.508)">
            <path id="Trazado_67512" data-name="Trazado 67512" d="M3192.866,1441.257a.464.464,0,0,1-.348-.156q-.4-.446-.822-.954a.466.466,0,1,1,.714-.6q.416.495.8.933a.466.466,0,0,1-.348.776Zm-2.754-3.379a.466.466,0,0,1-.37-.183q-.37-.484-.754-1a.466.466,0,1,1,.747-.558q.381.509.748.989a.466.466,0,0,1-.37.75Zm-2.588-3.507a.465.465,0,0,1-.379-.195q-.357-.5-.723-1.016a.466.466,0,1,1,.76-.539q.364.515.72,1.011a.466.466,0,0,1-.378.738Zm-2.507-3.566a.466.466,0,0,1-.384-.2q-.35-.506-.707-1.026a.466.466,0,0,1,.769-.528q.355.518.7,1.023a.467.467,0,0,1-.383.731Zm-2.459-3.6a.465.465,0,0,1-.386-.2l-.7-1.032a.466.466,0,0,1,.773-.521l.7,1.03a.466.466,0,0,1-.386.727Zm-2.431-3.616a.465.465,0,0,1-.388-.207l-.692-1.035a.466.466,0,1,1,.775-.518l.691,1.034a.466.466,0,0,1-.387.725Zm-2.417-3.625a.465.465,0,0,1-.389-.208l-.689-1.036a.466.466,0,1,1,.776-.516l.689,1.035a.466.466,0,0,1-.388.724Zm-2.412-3.628a.465.465,0,0,1-.389-.208l-.689-1.036a.466.466,0,1,1,.776-.516l.689,1.036a.466.466,0,0,1-.387.724Zm-2.419-3.629a.464.464,0,0,1-.388-.207l-.692-1.034a.466.466,0,1,1,.775-.519l.692,1.035a.466.466,0,0,1-.387.725Zm-2.426-3.613a.465.465,0,0,1-.387-.205l-.7-1.03a.466.466,0,1,1,.772-.523l.7,1.031a.466.466,0,0,1-.386.727Zm-2.449-3.6a.464.464,0,0,1-.385-.2l-.7-1.025a.466.466,0,0,1,.768-.529l.705,1.026a.466.466,0,0,1-.384.73Zm-2.48-3.583a.466.466,0,0,1-.382-.2q-.359-.512-.714-1.016a.466.466,0,1,1,.761-.538l.717,1.019a.466.466,0,0,1-.382.733Zm-2.525-3.551a.467.467,0,0,1-.378-.193q-.367-.508-.73-1a.466.466,0,0,1,.752-.55q.365.5.733,1.009a.466.466,0,0,1-.377.739Zm-2.589-3.505a.465.465,0,0,1-.372-.184q-.379-.5-.753-.986a.466.466,0,1,1,.738-.569q.376.488.758.992a.466.466,0,0,1-.371.748Zm-2.687-3.432a.466.466,0,0,1-.362-.171q-.4-.49-.789-.955a.466.466,0,1,1,.715-.6q.393.47.8.964a.466.466,0,0,1-.361.761Zm-2.849-3.3a.465.465,0,0,1-.342-.149q-.434-.467-.851-.89a.466.466,0,0,1,.664-.655q.427.432.87.91a.466.466,0,0,1-.342.783Zm-3.171-2.981a.464.464,0,0,1-.284-.1c-.277-.213-.61-.46-.99-.733a.466.466,0,1,1,.544-.757c.389.279.73.532,1.016.752a.466.466,0,0,1-.285.835Zm-3.566-2.517a.462.462,0,0,1-.26-.08q-.5-.337-1.033-.693a.466.466,0,0,1,.518-.775q.536.358,1.037.7a.466.466,0,0,1-.261.853Zm-3.631-2.415a.464.464,0,0,1-.256-.077l-1.041-.683a.466.466,0,1,1,.512-.779l1.041.683a.466.466,0,0,1-.256.856Zm-3.646-2.388a.465.465,0,0,1-.255-.076l-1.042-.682a.466.466,0,1,1,.51-.78l1.042.682a.466.466,0,0,1-.256.856Zm-3.645-2.389a.463.463,0,0,1-.256-.077l-1.039-.684a.466.466,0,0,1,.514-.778l1.037.684a.466.466,0,0,1-.257.855Zm-3.63-2.406a.465.465,0,0,1-.259-.079q-.524-.35-1.035-.7a.466.466,0,0,1,.521-.773l1.032.693a.466.466,0,0,1-.259.854Zm-3.6-2.451a.465.465,0,0,1-.266-.083q-.527-.366-1.024-.717a.466.466,0,0,1,.538-.761q.493.348,1.017.712a.466.466,0,0,1-.266.849Zm-3.536-2.552a.465.465,0,0,1-.283-.1c-.36-.276-.692-.537-.991-.781a.466.466,0,0,1,.59-.722c.292.239.616.493.968.763a.466.466,0,0,1-.283.837Zm-2.9-3.13a.466.466,0,0,1-.444-.325c-.1-.306-.227-.705-.384-1.183a.466.466,0,0,1,.886-.292c.158.482.289.884.387,1.192a.466.466,0,0,1-.445.607Zm-1.366-4.147a.466.466,0,0,1-.442-.319l-.393-1.183a.466.466,0,1,1,.885-.294l.393,1.182a.466.466,0,0,1-.442.613Zm-1.373-4.139a.466.466,0,0,1-.442-.32l-.39-1.184a.466.466,0,0,1,.886-.291l.39,1.182a.466.466,0,0,1-.443.612Zm-1.359-4.141a.467.467,0,0,1-.443-.322l-.385-1.185a.466.466,0,0,1,.887-.287l.384,1.184a.466.466,0,0,1-.443.61Zm-1.336-4.148a.466.466,0,0,1-.444-.325l-.376-1.188a.466.466,0,0,1,.889-.281l.376,1.187a.467.467,0,0,1-.445.607Zm-1.3-4.16a.465.465,0,0,1-.446-.33q-.185-.6-.363-1.193a.466.466,0,1,1,.893-.269q.177.587.361,1.19a.466.466,0,0,1-.446.6Zm-1.24-4.18a.467.467,0,0,1-.448-.339q-.176-.622-.336-1.2a.466.466,0,0,1,.9-.246q.158.578.334,1.2a.467.467,0,0,1-.449.593Zm-1.1-4.222a.467.467,0,0,1-.455-.366c-.105-.478-.187-.9-.243-1.252a.466.466,0,1,1,.921-.146c.053.334.131.736.233,1.2a.467.467,0,0,1-.355.556A.482.482,0,0,1,3114.476,1335.755Zm-.621-4.323a.466.466,0,0,1-.461-.406c-.05-.38-.1-.792-.164-1.236a.466.466,0,0,1,.924-.124q.089.667.164,1.238a.465.465,0,0,1-.4.523A.449.449,0,0,1,3113.855,1331.432Zm-.583-4.327a.466.466,0,0,1-.461-.4l-.169-1.234a.466.466,0,1,1,.924-.127l.169,1.235a.466.466,0,0,1-.4.525A.487.487,0,0,1,3113.272,1327.105Zm-.6-4.322a.466.466,0,0,1-.461-.4l-.171-1.233a.466.466,0,0,1,.924-.128l.171,1.233a.466.466,0,0,1-.4.526A.5.5,0,0,1,3112.676,1322.783Zm-.6-4.319a.466.466,0,0,1-.461-.4l-.171-1.233a.466.466,0,0,1,.924-.128l.171,1.233a.466.466,0,0,1-.4.526A.522.522,0,0,1,3112.077,1318.464Zm-.6-4.318a.467.467,0,0,1-.461-.4l-.17-1.233a.466.466,0,1,1,.923-.127l.17,1.233a.466.466,0,0,1-.4.526A.53.53,0,0,1,3111.478,1314.146Zm-.6-4.318a.466.466,0,0,1-.461-.4l-.17-1.233a.466.466,0,1,1,.924-.127l.169,1.233a.467.467,0,0,1-.4.526A.57.57,0,0,1,3110.882,1309.827Zm-.592-4.318a.467.467,0,0,1-.462-.4l-.168-1.233a.466.466,0,0,1,.924-.126l.168,1.233a.466.466,0,0,1-.4.525A.535.535,0,0,1,3110.29,1305.509Zm-.587-4.319a.466.466,0,0,1-.461-.4l-.167-1.236a.466.466,0,0,1,.924-.124l.167,1.236a.466.466,0,0,1-.4.524A.478.478,0,0,1,3109.7,1301.19Zm-.578-4.317a.466.466,0,0,1-.461-.4l-.164-1.234a.466.466,0,1,1,.924-.122l.164,1.233a.466.466,0,0,1-.4.524A.459.459,0,0,1,3109.125,1296.873Zm-.569-4.322a.466.466,0,0,1-.462-.406l-.16-1.234a.466.466,0,0,1,.924-.12l.16,1.234a.467.467,0,0,1-.463.526Zm-.557-4.324a.466.466,0,0,1-.462-.407l-.156-1.235a.466.466,0,0,1,.925-.117l.156,1.235a.467.467,0,0,1-.4.521A.49.49,0,0,1,3108,1288.228Zm-.539-4.326a.466.466,0,0,1-.462-.41l-.15-1.237a.466.466,0,0,1,.926-.111l.149,1.235a.467.467,0,0,1-.406.519A.5.5,0,0,1,3107.46,1283.9Zm-.513-4.331a.466.466,0,0,1-.463-.413q-.072-.632-.139-1.239a.466.466,0,1,1,.926-.1q.068.6.14,1.236a.466.466,0,0,1-.41.516A.415.415,0,0,1,3106.947,1279.571Zm-.469-4.338a.466.466,0,0,1-.463-.42q-.065-.647-.12-1.244a.466.466,0,0,1,.928-.086q.056.593.12,1.237a.465.465,0,0,1-.417.51A.386.386,0,0,1,3106.479,1275.233Zm-.365-4.349a.466.466,0,0,1-.465-.439c-.028-.49-.045-.917-.051-1.269a.466.466,0,1,1,.932-.014c.005.339.021.752.049,1.229a.465.465,0,0,1-.438.492Z" transform="translate(-3105.598 -1268.703)" fill="#150e2e"/>
          </g>
          <g id="Grupo_26061" data-name="Grupo 26061" transform="translate(0 42.12)">
            <path id="Trazado_67513" data-name="Trazado 67513" d="M2933.874,1580.474a.473.473,0,0,1-.113-.014.466.466,0,0,1-.34-.564c.505-2.039,2.03-7.252,4.14-14.467,6.316-21.6,16.887-57.741,16.887-66.048,0-4.166-1.141-11.391-2.147-17.766-.433-2.742-.842-5.332-1.094-7.294-.368-2.871,1.038-12.79,2.819-25.346,2.14-15.085,4.8-33.859,4.745-44.258a.466.466,0,1,1,.932-.005c.058,10.467-2.61,29.279-4.754,44.394-1.7,11.993-3.17,22.351-2.817,25.1.25,1.948.658,4.531,1.09,7.266,1.012,6.409,2.159,13.673,2.159,17.912,0,8.441-10.594,44.666-16.925,66.31-2.027,6.933-3.629,12.409-4.13,14.429A.466.466,0,0,1,2933.874,1580.474Z" transform="translate(-2933.407 -1404.246)" fill="#150e2e"/>
          </g>
          <g id="Grupo_26062" data-name="Grupo 26062" transform="translate(1.355 45.363)">
            <path id="Trazado_67514" data-name="Trazado 67514" d="M2938.234,1587.482a.443.443,0,0,1-.122-.016.466.466,0,0,1-.328-.571q.149-.551.333-1.205a.466.466,0,0,1,.9.252q-.183.649-.331,1.2A.466.466,0,0,1,2938.234,1587.482Zm1.194-4.2a.467.467,0,0,1-.448-.6l.351-1.2a.466.466,0,1,1,.894.263l-.35,1.194A.467.467,0,0,1,2939.428,1583.282Zm1.234-4.184a.456.456,0,0,1-.133-.02.466.466,0,0,1-.314-.58l.356-1.193a.466.466,0,1,1,.893.267l-.355,1.193A.466.466,0,0,1,2940.662,1579.1Zm1.247-4.178a.466.466,0,0,1-.447-.6l.357-1.192a.466.466,0,0,1,.893.268l-.357,1.192A.466.466,0,0,1,2941.91,1574.92Zm1.252-4.176a.467.467,0,0,1-.447-.6l.357-1.191a.466.466,0,0,1,.893.268l-.357,1.192A.466.466,0,0,1,2943.161,1570.744Zm1.251-4.175a.466.466,0,0,1-.447-.6l.357-1.192a.466.466,0,0,1,.893.267l-.357,1.192A.467.467,0,0,1,2944.413,1566.569Zm1.249-4.175a.466.466,0,0,1-.447-.6l.356-1.191a.466.466,0,1,1,.893.266l-.356,1.192A.465.465,0,0,1,2945.661,1562.394Zm1.243-4.176a.465.465,0,0,1-.447-.6l.354-1.193a.466.466,0,1,1,.894.264l-.354,1.193A.466.466,0,0,1,2946.9,1558.218Zm1.236-4.178a.459.459,0,0,1-.132-.019.466.466,0,0,1-.316-.579l.351-1.193a.466.466,0,0,1,.895.263l-.352,1.194A.466.466,0,0,1,2948.14,1554.04Zm1.226-4.181a.467.467,0,0,1-.448-.6l.348-1.194a.466.466,0,0,1,.9.26l-.348,1.195A.466.466,0,0,1,2949.366,1549.859Zm1.216-4.186a.466.466,0,0,1-.448-.6l.344-1.195a.466.466,0,0,1,.9.258l-.344,1.2A.466.466,0,0,1,2950.582,1545.673Zm1.2-4.188a.467.467,0,0,1-.448-.594l.34-1.2a.466.466,0,0,1,.9.254l-.34,1.2A.466.466,0,0,1,2951.783,1541.485Zm1.184-4.193a.472.472,0,0,1-.126-.017.466.466,0,0,1-.323-.574l.334-1.2a.466.466,0,1,1,.9.25l-.335,1.2A.466.466,0,0,1,2952.967,1537.292Zm1.163-4.2a.451.451,0,0,1-.123-.017.466.466,0,0,1-.327-.573l.327-1.2a.466.466,0,1,1,.9.245l-.328,1.2A.466.466,0,0,1,2954.13,1533.092Zm1.136-4.207a.46.46,0,0,1-.12-.016.466.466,0,0,1-.331-.57l.319-1.2a.466.466,0,0,1,.9.237l-.319,1.2A.467.467,0,0,1,2955.267,1528.885Zm1.1-4.217a.472.472,0,0,1-.116-.014.467.467,0,0,1-.336-.567q.156-.608.307-1.2a.466.466,0,0,1,.9.228q-.151.6-.307,1.208A.467.467,0,0,1,2956.369,1524.668Zm1.054-4.229a.483.483,0,0,1-.11-.013.466.466,0,0,1-.344-.562q.149-.613.289-1.208a.466.466,0,0,1,.907.214q-.141.6-.29,1.213A.466.466,0,0,1,2957.423,1520.439Zm.983-4.248a.466.466,0,0,1-.456-.566q.136-.62.261-1.213a.466.466,0,1,1,.912.192q-.126.6-.263,1.221A.466.466,0,0,1,2958.406,1516.191Zm.863-4.276a.452.452,0,0,1-.083-.007.466.466,0,0,1-.376-.541q.114-.635.207-1.22a.466.466,0,1,1,.921.147q-.095.593-.21,1.237A.466.466,0,0,1,2959.269,1511.915Zm.579-4.323h-.028a.467.467,0,0,1-.438-.493c.017-.271.025-.523.025-.749,0-.148,0-.3-.006-.457a.466.466,0,1,1,.932-.022q.006.246.006.479c0,.244-.009.515-.026.8A.466.466,0,0,1,2959.848,1507.592Zm-.218-4.345a.467.467,0,0,1-.463-.413q-.068-.6-.153-1.226a.466.466,0,0,1,.924-.124q.085.637.156,1.244a.466.466,0,0,1-.41.516A.446.446,0,0,1,2959.63,1503.248Zm-.624-4.31a.467.467,0,0,1-.459-.389q-.1-.606-.209-1.223a.466.466,0,0,1,.918-.161q.108.62.211,1.23a.467.467,0,0,1-.46.543Zm-.77-4.285a.466.466,0,0,1-.458-.379q-.115-.611-.233-1.222a.466.466,0,1,1,.915-.176q.117.611.234,1.224a.468.468,0,0,1-.458.553Zm-.826-4.275a.466.466,0,0,1-.457-.377l-.237-1.222a.466.466,0,0,1,.915-.177l.237,1.221a.467.467,0,0,1-.368.547A.492.492,0,0,1,2957.409,1490.377Zm-.814-4.278a.466.466,0,0,1-.458-.383q-.115-.63-.219-1.229a.466.466,0,0,1,.919-.159c.069.4.141.8.217,1.222a.466.466,0,0,1-.459.549Zm-.687-4.3a.466.466,0,0,1-.464-.428c-.011-.142-.018-.314-.018-.511,0-.226.008-.491.022-.792a.466.466,0,1,1,.931.046q-.021.426-.021.747c0,.17,0,.315.014.435a.467.467,0,0,1-.427.5Zm.266-4.349-.049,0a.466.466,0,0,1-.416-.512q.061-.591.134-1.243a.466.466,0,1,1,.926.1q-.072.648-.133,1.235A.467.467,0,0,1,2956.174,1477.449Zm.5-4.334a.438.438,0,0,1-.058,0,.466.466,0,0,1-.406-.52q.075-.6.155-1.236a.466.466,0,1,1,.925.117q-.08.632-.154,1.234A.467.467,0,0,1,2956.673,1473.115Zm.553-4.325a.461.461,0,0,1-.062,0,.466.466,0,0,1-.4-.523l.163-1.235a.466.466,0,1,1,.924.123l-.163,1.233A.466.466,0,0,1,2957.226,1468.791Zm.576-4.32a.432.432,0,0,1-.063,0,.466.466,0,0,1-.4-.524l.167-1.233a.466.466,0,0,1,.924.125l-.167,1.233A.466.466,0,0,1,2957.8,1464.47Zm.586-4.318a.484.484,0,0,1-.063,0,.466.466,0,0,1-.4-.525l.168-1.233a.466.466,0,0,1,.924.126l-.168,1.233A.466.466,0,0,1,2958.388,1460.152Zm.589-4.318a.446.446,0,0,1-.063,0,.466.466,0,0,1-.4-.525l.168-1.233a.466.466,0,0,1,.924.125l-.168,1.233A.466.466,0,0,1,2958.977,1455.834Zm.586-4.318a.445.445,0,0,1-.063,0,.466.466,0,0,1-.4-.524l.166-1.233a.466.466,0,0,1,.924.125l-.167,1.233A.466.466,0,0,1,2959.563,1451.516Zm.579-4.324a.436.436,0,0,1-.062,0,.466.466,0,0,1-.4-.523l.164-1.235a.466.466,0,1,1,.924.122l-.164,1.236A.466.466,0,0,1,2960.142,1447.192Zm.566-4.318a.447.447,0,0,1-.061,0,.466.466,0,0,1-.4-.522l.159-1.233a.466.466,0,0,1,.925.118l-.159,1.235A.466.466,0,0,1,2960.708,1442.874Zm.549-4.323a.442.442,0,0,1-.058,0,.466.466,0,0,1-.405-.52l.153-1.234a.466.466,0,0,1,.926.114l-.153,1.236A.466.466,0,0,1,2961.257,1438.551Zm.524-4.326a.4.4,0,0,1-.055,0,.466.466,0,0,1-.408-.517l.144-1.235a.466.466,0,0,1,.926.107l-.144,1.237A.467.467,0,0,1,2961.781,1434.226Zm.49-4.33-.05,0a.467.467,0,0,1-.414-.513q.068-.625.132-1.236a.466.466,0,1,1,.927.1q-.064.612-.132,1.239A.466.466,0,0,1,2962.272,1429.9Zm.44-4.337-.044,0a.466.466,0,0,1-.42-.507q.059-.629.113-1.237a.466.466,0,0,1,.928.082q-.054.61-.113,1.242A.466.466,0,0,1,2962.712,1425.559Zm.358-4.345h-.032a.466.466,0,0,1-.433-.5q.044-.636.079-1.237a.466.466,0,1,1,.931.054q-.035.606-.08,1.248A.466.466,0,0,1,2963.07,1421.214Zm.2-4.356h-.006a.467.467,0,0,1-.46-.473q0-.3,0-.589,0-.332-.006-.639a.466.466,0,1,1,.932-.017q.006.315.006.657,0,.292,0,.6A.466.466,0,0,1,2963.27,1416.858Z" transform="translate(-2937.768 -1414.682)" fill="#150e2e"/>
          </g>
          <path id="Trazado_67515" data-name="Trazado 67515" d="M3035.64,1462.8c.02.057.037.117.057.174C3035.667,1462.775,3035.646,1462.721,3035.64,1462.8Z" transform="translate(-3003.871 -1402.461)" fill="#150e2e"/>
          <path id="Trazado_67516" data-name="Trazado 67516" d="M3007.531,1377.97c2.673,18.063,5.01,34.527,6.959,46.671.57-6.534,1.179-13.125,1.785-19.62-.014-.352-.02-.579-.01-.663C3014.655,1399.328,3012.615,1393.269,3007.531,1377.97Z" transform="translate(-2984.497 -1344.015)" fill="#150e2e"/>
          <g id="Grupo_26065" data-name="Grupo 26065" transform="translate(43.338 1.261)">
            <g id="Grupo_26063" data-name="Grupo 26063" transform="translate(0 0.521)">
              <path id="Trazado_67517" data-name="Trazado 67517" d="M3083.595,1296.5a.312.312,0,0,1-.155-.041c-.364-.209-.725-.431-1.074-.66a.311.311,0,1,1,.341-.52c.339.222.69.437,1.043.64a.311.311,0,0,1-.155.58Zm-2.81-1.937a.308.308,0,0,1-.2-.07c-.326-.268-.645-.547-.949-.831a.311.311,0,0,1,.424-.455c.3.275.6.546.92.806a.311.311,0,0,1-.2.551Zm-2.438-2.386a.309.309,0,0,1-.236-.108c-.271-.317-.538-.648-.791-.984a.311.311,0,1,1,.5-.374c.245.325.5.646.766.953a.311.311,0,0,1-.236.513Zm-1.99-2.773a.311.311,0,0,1-.268-.152c-.214-.359-.42-.73-.612-1.1a.311.311,0,1,1,.552-.286c.187.362.387.722.594,1.07a.311.311,0,0,1-.267.47Zm-1.5-3.066a.311.311,0,0,1-.289-.2c-.153-.386-.3-.785-.432-1.183a.311.311,0,1,1,.589-.2c.13.388.272.776.421,1.152a.311.311,0,0,1-.289.425Zm-1.024-3.259a.311.311,0,0,1-.3-.239c-.1-.406-.183-.82-.26-1.232a.311.311,0,0,1,.611-.113c.074.4.159.806.253,1.2a.311.311,0,0,1-.231.374A.326.326,0,0,1,3073.829,1283.083Zm-.559-3.371a.31.31,0,0,1-.309-.281c-.041-.418-.071-.841-.09-1.256a.311.311,0,0,1,.3-.325.3.3,0,0,1,.325.3c.019.4.049.817.089,1.225a.311.311,0,0,1-.28.339Zm-.088-3.416h-.016a.311.311,0,0,1-.294-.327c.023-.445.06-.869.11-1.261a.31.31,0,1,1,.616.078c-.048.377-.083.786-.106,1.215A.31.31,0,0,1,3073.182,1276.3Z" transform="translate(-3072.87 -1274.437)" fill="#150e2e"/>
            </g>
            <g id="Grupo_26064" data-name="Grupo 26064" transform="translate(1.23)">
              <path id="Trazado_67518" data-name="Trazado 67518" d="M3087.293,1294.257a.306.306,0,0,1-.133-.03c-8.513-4.023-10.891-15.982-10.226-21.195a.311.311,0,1,1,.616.079c-.646,5.061,1.647,16.665,9.875,20.554a.311.311,0,0,1-.133.592Z" transform="translate(-3076.83 -1272.762)" fill="#150e2e"/>
            </g>
            <path id="Trazado_67519" data-name="Trazado 67519" d="M3081.069,1300.807c1.827,3.6,7.535,7.443,8.629,7.7.072,1.289.505,4.552.505,4.552a15.435,15.435,0,0,1-6.195-5.423A33.8,33.8,0,0,1,3081.069,1300.807Z" transform="translate(-3078.521 -1292.092)" fill="#150e2e"/>
          </g>
        </g>
        <g id="Grupo_26067" data-name="Grupo 26067" transform="translate(27.984 36.079)">
          <path id="Trazado_67520" data-name="Trazado 67520" d="M3009.995,1387.146a.311.311,0,0,1-.3-.227c-2.382-8.488-4.594-14.923-6.937-21.735-2.187-6.357-4.665-13.564-7.65-23.52a.311.311,0,0,1,.6-.178c2.982,9.944,5.458,17.145,7.643,23.5,2.346,6.821,4.562,13.264,6.948,21.769a.311.311,0,0,1-.215.383A.305.305,0,0,1,3009.995,1387.146Z" transform="translate(-2995.095 -1341.265)" fill="#150e2e"/>
        </g>
      </g>
      <g id="Grupo_26071" data-name="Grupo 26071" transform="translate(2751.175 1095.833)">
        <g id="Grupo_26068" data-name="Grupo 26068" transform="translate(6.95 0)">
          <path id="Trazado_67521" data-name="Trazado 67521" d="M2898.344,1951.7a.466.466,0,0,1-.383-.2c-.46-.663-4.463-6.549-3.466-8.931a1.665,1.665,0,0,1,1.339-1.009,1.628,1.628,0,0,1,1.4.407c1.934,1.72,1.615,8.523,1.572,9.293a.465.465,0,0,1-.338.423A.47.47,0,0,1,2898.344,1951.7Zm-2.206-9.235a.818.818,0,0,0-.145.013.736.736,0,0,0-.638.45c-.509,1.215,1.08,4.426,2.564,6.808.012-2.421-.209-6.1-1.3-7.074A.7.7,0,0,0,2896.137,1942.464Z" transform="translate(-2894.335 -1941.532)" fill="#ae353f"/>
        </g>
        <g id="Grupo_26069" data-name="Grupo 26069" transform="translate(0.562 4.305)">
          <path id="Trazado_67522" data-name="Trazado 67522" d="M2884.176,1961.248h-.008c-.839-.014-8.247-.2-9.994-2.513a1.853,1.853,0,0,1-.326-1.646h0a2.086,2.086,0,0,1,1.438-1.615c2.858-.826,8.565,4.371,9.206,4.966a.466.466,0,0,1-.317.808Zm-8.178-4.937a1.629,1.629,0,0,0-.452.059c-.252.073-.609.252-.8.958h0a.917.917,0,0,0,.168.845c1.048,1.385,5.336,1.929,7.964,2.089C2880.985,1958.658,2877.807,1956.311,2876,1956.311Zm-1.7.9h0Z" transform="translate(-2873.78 -1955.385)" fill="#ae353f"/>
        </g>
        <g id="Grupo_26070" data-name="Grupo 26070" transform="translate(0 9.236)">
          <path id="Trazado_67523" data-name="Trazado 67523" d="M2880.576,1978.054h-.02a.466.466,0,0,1-.446-.485,6.137,6.137,0,0,1,1.152-2.8,13.237,13.237,0,0,0,.843-1.531,7.459,7.459,0,0,1-4.293,1.245,19.335,19.335,0,0,0-5.218,1.009.466.466,0,1,1-.309-.879,20.414,20.414,0,0,1,5.448-1.059c2.081-.178,3.455-.3,4.826-2.117a.466.466,0,0,1,.838.28,6.973,6.973,0,0,1-1.338,3.537,5.54,5.54,0,0,0-1.017,2.351A.466.466,0,0,1,2880.576,1978.054Z" transform="translate(-2871.972 -1971.254)" fill="#ae353f"/>
        </g>
      </g>
      <g id="Grupo_26075" data-name="Grupo 26075" transform="translate(2899.639 1063.83)">
        <g id="Grupo_26072" data-name="Grupo 26072" transform="translate(0.061)">
          <path id="Trazado_67524" data-name="Trazado 67524" d="M3359.464,1843.551h-.007c-.807-.011-7.923-.174-9.283-2.369a1.666,1.666,0,0,1-.043-1.676,1.63,1.63,0,0,1,1.147-.906c2.523-.573,7.875,3.639,8.477,4.121a.466.466,0,0,1-.292.83Zm-7.633-4.078a1.581,1.581,0,0,0-.345.035.692.692,0,0,0-.514.4.736.736,0,0,0,0,.781c.693,1.119,4.229,1.692,7.031,1.869C3356.181,1841.249,3353.37,1839.474,3351.831,1839.474Z" transform="translate(-3349.929 -1838.547)" fill="#ae353f"/>
        </g>
        <g id="Grupo_26073" data-name="Grupo 26073" transform="translate(0 4.072)">
          <path id="Trazado_67525" data-name="Trazado 67525" d="M3351.79,1859.068a1.852,1.852,0,0,1-1.469-.692h0a2.088,2.088,0,0,1-.479-2.11c.987-2.805,8.534-4.43,9.392-4.606a.466.466,0,0,1,.469.734c-.5.675-4.957,6.593-7.853,6.673Zm-.751-1.286a.915.915,0,0,0,.786.354c1.736-.048,4.67-3.222,6.328-5.267-2.624.666-6.851,2.058-7.432,3.708a1.155,1.155,0,0,0,.318,1.205Z" transform="translate(-3349.732 -1851.652)" fill="#ae353f"/>
        </g>
        <g id="Grupo_26074" data-name="Grupo 26074" transform="translate(5.748 4.072)">
          <path id="Trazado_67526" data-name="Trazado 67526" d="M3368.7,1863.06a.458.458,0,0,1-.129-.019.466.466,0,0,1-.318-.577,20.409,20.409,0,0,1,2.3-5.049c1.064-1.8,1.768-2.984,1.081-5.157a.466.466,0,0,1,.715-.52,6.975,6.975,0,0,1,2.1,3.145,5.538,5.538,0,0,0,1.323,2.193.466.466,0,0,1-.573.735,6.142,6.142,0,0,1-1.606-2.562,13.181,13.181,0,0,0-.756-1.575,7.456,7.456,0,0,1-1.482,4.217,19.359,19.359,0,0,0-2.211,4.833A.466.466,0,0,1,3368.7,1863.06Z" transform="translate(-3368.23 -1851.652)" fill="#ae353f"/>
        </g>
      </g>
      <g id="body" transform="translate(2696.714 764.261)">
        <path id="Trazado_67527" data-name="Trazado 67527" d="M2845.013,1066.079c4.624-2.55,20-41.248,20.57-45.039,1.027-6.821-2.979-26.322.927-46.551,4.535-23.464-2.607-32.307-8.023-23-6.576,11.3-10.276,46.021-12.238,56.594-1.237,6.664-14.36,44.068-15.113,53.9C2831.026,1063.407,2843.432,1066.95,2845.013,1066.079Z" transform="translate(-2789.364 -925.063)" fill="#e2e7ff"/>
        <g id="Grupo_26081" data-name="Grupo 26081" transform="translate(0 136.2)">
          <path id="Trazado_67528" data-name="Trazado 67528" d="M2830.817,1332.533c-.329,1.465-2.081,8.377-4.063,8.733s-9.286-6.834-9.286-6.834l2.123-4.938Z" transform="translate(-2779.944 -1324.312)" fill="#ffc4b5"/>
          <g id="Grupo_26079" data-name="Grupo 26079" transform="translate(0 9.603)">
            <rect id="Rectngulo_25917" data-name="Rectngulo 25917" width="76.898" height="45.12" rx="16.468" transform="translate(0.498 12.194)" fill="#8abaff"/>
            <rect id="Rectngulo_25918" data-name="Rectngulo 25918" width="76.898" height="45.12" rx="16.468" transform="translate(0.56 12.036)" fill="#dd605e"/>
            <g id="Grupo_26076" data-name="Grupo 26076" transform="translate(0 24.283)">
              <path id="Trazado_67529" data-name="Trazado 67529" d="M2769.744,1427.226H2701.58a4.871,4.871,0,0,1-4.865-4.865.5.5,0,0,1,1,0,3.873,3.873,0,0,0,3.869,3.869h68.165a3.873,3.873,0,0,0,3.869-3.869.5.5,0,0,1,1,0A4.871,4.871,0,0,1,2769.744,1427.226Z" transform="translate(-2696.714 -1421.863)" fill="#fff"/>
            </g>
            <rect id="Rectngulo_25919" data-name="Rectngulo 25919" width="8.691" height="28.677" rx="4.346" transform="translate(34.565 10.077)" fill="#dd605e"/>
            <rect id="Rectngulo_25920" data-name="Rectngulo 25920" width="13.258" height="6.323" rx="3.161" transform="translate(32.186 35.354)" fill="#fff"/>
            <g id="Grupo_26077" data-name="Grupo 26077" transform="translate(43.181 11.441)">
              <path id="Trazado_67530" data-name="Trazado 67530" d="M2836.1,1406a.427.427,0,0,1-.427-.427v-24.609a.427.427,0,0,1,.854,0v24.609A.427.427,0,0,1,2836.1,1406Z" transform="translate(-2835.673 -1380.537)" fill="#fff"/>
            </g>
            <g id="Grupo_26078" data-name="Grupo 26078" transform="translate(33.784 11.441)">
              <path id="Trazado_67531" data-name="Trazado 67531" d="M2805.858,1406a.426.426,0,0,1-.427-.427v-24.609a.427.427,0,1,1,.853,0v24.609A.427.427,0,0,1,2805.858,1406Z" transform="translate(-2805.431 -1380.537)" fill="#fff"/>
            </g>
            <path id="Trazado_67532" data-name="Trazado 67532" d="M2769.071,1355.7s-.012-.156-.036-.447c0-.036-.006-.075-.009-.115s0-.109,0-.168c0-.12.007-.25.012-.391s.017-.287.034-.435.034-.309.062-.475a8.3,8.3,0,0,1,.761-2.328,9.8,9.8,0,0,1,1.814-2.529,13.323,13.323,0,0,1,2.778-2.161,18.342,18.342,0,0,1,3.427-1.582,23.958,23.958,0,0,1,3.821-.977,27.171,27.171,0,0,1,4.015-.367,25.757,25.757,0,0,1,4.036.244c.664.091,1.322.222,1.969.361.646.159,1.282.326,1.9.536a17.313,17.313,0,0,1,3.484,1.589,12.8,12.8,0,0,1,2.782,2.266,9.631,9.631,0,0,1,1.712,2.645,8.554,8.554,0,0,1,.643,2.343,8.369,8.369,0,0,1,.051,1.522c-.028.344-.042.527-.042.527a1.494,1.494,0,0,1-2.953.182l-.037-.182-.074-.362a7.522,7.522,0,0,0-.275-.966,6.658,6.658,0,0,0-.678-1.319,7.064,7.064,0,0,0-1.3-1.4,10.152,10.152,0,0,0-2.032-1.273,15.456,15.456,0,0,0-2.683-.968,21.5,21.5,0,0,0-3.117-.585,26.8,26.8,0,0,0-3.331-.183,27.5,27.5,0,0,0-3.338.232,23.267,23.267,0,0,0-3.143.627,17.036,17.036,0,0,0-2.735.991c-.413.19-.79.4-1.148.608a10.185,10.185,0,0,0-.966.664,6.82,6.82,0,0,0-1.372,1.382,5.834,5.834,0,0,0-.709,1.276c-.037.1-.062.189-.094.276a2.276,2.276,0,0,0-.077.233l-.057.188-.026.085c-.006.04-.012.079-.017.115l-.071.442a1.506,1.506,0,0,1-2.988-.117Z" transform="translate(-2746.555 -1343.721)" fill="#dd605e"/>
          </g>
          <path id="Trazado_67533" data-name="Trazado 67533" d="M2812.813,1315.535c-1.437,1.087-4.4.938-6.091,1.626-1.523.618-3.624,4.006-5.177,6.614-1.091,1.832-2.046,2.573-1.718,2.9.9.9,2.836-.092,3.64-.831,1.413-1.3,1.906-3.4,2.749-3.13.521.168,8.832,3.269,11.375,2.958.67-.948,2.492-7.289,2.854-7.953C2820.625,1317.385,2813.307,1315.161,2812.813,1315.535Z" transform="translate(-2767.739 -1314.662)" fill="#ffc4b5"/>
          <path id="Trazado_67534" data-name="Trazado 67534" d="M2812.477,1343.846c-1.323.881-1.358,5.729-1.092,6.368.3.73,1.336,1.3,2.689.63.3.794,1.9.666,2.885.094.141.708,2.362.881,3.06-.188.5.49,2.435-.208,2.763-.447-.806-1.5-.271-3.641-.61-4.812a1.415,1.415,0,0,0-1.2-.851,12,12,0,0,0-4.232-1.845A6.754,6.754,0,0,0,2812.477,1343.846Z" transform="translate(-2775.66 -1333.459)" fill="#ffc4b5"/>
          <path id="Trazado_67535" data-name="Trazado 67535" d="M2818.675,1351.465l-.107-.446c-.035-.14-.06-.322-.1-.526s-.061-.436-.086-.69-.034-.531-.031-.824a7.291,7.291,0,0,1,.051-.922,7.738,7.738,0,0,1,.172-.978,7.181,7.181,0,0,1,.319-.981,5.814,5.814,0,0,1,.479-.923,4.287,4.287,0,0,1,.646-.79,2.768,2.768,0,0,1,.8-.558,1.877,1.877,0,0,1,.893-.177,1.422,1.422,0,0,1,.737.262,1.821,1.821,0,0,1,.4.42,1.683,1.683,0,0,1,.178.316l.054.115a.141.141,0,0,1-.246.136l-.009-.014-.061-.1-.073-.113-.112-.139a1.449,1.449,0,0,0-.35-.3,1.142,1.142,0,0,0-.543-.146,1.906,1.906,0,0,0-1.3.672,4.839,4.839,0,0,0-.977,1.549,6.473,6.473,0,0,0-.3.9,8.3,8.3,0,0,0-.185.909c-.043.3-.075.591-.09.869s-.017.542-.016.787.013.469.03.666.024.368.046.513c.034.29.053.455.053.455a.141.141,0,0,1-.278.05Z" transform="translate(-2780.553 -1334.068)" fill="#f26979"/>
          <path id="Trazado_67536" data-name="Trazado 67536" d="M2828.13,1352.752l-.1-.418c-.034-.132-.063-.3-.1-.49s-.071-.407-.1-.644-.057-.495-.068-.77a7.6,7.6,0,0,1-.01-.868,7.224,7.224,0,0,1,.092-.93,6.181,6.181,0,0,1,.23-.948,4.449,4.449,0,0,1,.414-.9,2.979,2.979,0,0,1,.632-.756,2.14,2.14,0,0,1,.836-.447,1.924,1.924,0,0,1,.853-.033,1.883,1.883,0,0,1,.659.251,2.445,2.445,0,0,1,.426.314,2.209,2.209,0,0,1,.234.239l.078.088a.141.141,0,0,1-.2.2l-.009-.008-.082-.07a2.737,2.737,0,0,0-.237-.187,2.074,2.074,0,0,0-.394-.232,1.791,1.791,0,0,0-.548-.158,1.455,1.455,0,0,0-.644.065,1.836,1.836,0,0,0-.625.379,2.669,2.669,0,0,0-.506.641,4.011,4.011,0,0,0-.356.8,5.633,5.633,0,0,0-.219.863,7.7,7.7,0,0,0-.11.866c-.02.284-.035.561-.033.823s.011.512.02.743.026.443.048.628.03.348.051.485l.051.428a.141.141,0,0,1-.278.051Z" transform="translate(-2787.019 -1335.354)" fill="#f26979"/>
          <path id="Trazado_67537" data-name="Trazado 67537" d="M2837.708,1354.628s-.12-.411-.273-1.033l-.1-.513c-.031-.183-.078-.375-.1-.577s-.05-.41-.076-.621l-.038-.65c-.008-.218.008-.44.01-.657a5.6,5.6,0,0,1,.084-.642l.071-.308c.033-.1.073-.2.108-.291a1.766,1.766,0,0,1,.309-.5,1.273,1.273,0,0,1,.4-.31,1.63,1.63,0,0,1,.358-.121c.1-.022.174-.03.217-.038l.071-.011.014,0a.141.141,0,0,1,.072.272l-.278.1a1.047,1.047,0,0,0-.513.389,1.557,1.557,0,0,0-.193.4l-.069.243-.047.269c-.032.182-.035.382-.054.58,0,.2-.01.406,0,.614s.018.415.027.62.033.408.049.6.041.384.057.564.035.35.051.507c.08.635.116,1.061.116,1.061a.142.142,0,0,1-.278.052Z" transform="translate(-2793.49 -1337.311)" fill="#f26979"/>
          <path id="Trazado_67538" data-name="Trazado 67538" d="M2810.448,1351.04s-.036-.148-.1-.406c-.033-.128-.061-.291-.1-.478s-.067-.4-.094-.628-.047-.483-.053-.751a7.369,7.369,0,0,1,.013-.845,6.955,6.955,0,0,1,.124-.9,6.168,6.168,0,0,1,.261-.913,4.091,4.091,0,0,1,1.044-1.581,2.2,2.2,0,0,1,1.592-.6,1.485,1.485,0,0,1,.675.208,2,2,0,0,1,.24.166c.064.062.125.116.175.17a1.67,1.67,0,0,1,.2.271l.061.1a.141.141,0,0,1-.228.163l-.011-.013-.065-.078a1.882,1.882,0,0,0-.194-.2c-.045-.04-.1-.077-.155-.122a1.564,1.564,0,0,0-.2-.108,1.256,1.256,0,0,0-.516-.111,1.79,1.79,0,0,0-1.212.555,3.465,3.465,0,0,0-.5.629,4.571,4.571,0,0,0-.375.762,5.606,5.606,0,0,0-.246.827,7.369,7.369,0,0,0-.138.834c-.026.274-.05.541-.054.8s0,.5.006.719c.023.448.049.814.083,1.079l.048.416a.142.142,0,0,1-.278.05Z" transform="translate(-2774.863 -1334.259)" fill="#f26979"/>
          <path id="Trazado_67539" data-name="Trazado 67539" d="M2827.618,1329.252l-.111.362a2.221,2.221,0,0,1-.157.413,4.928,4.928,0,0,1-.283.529,5.7,5.7,0,0,1-.428.554,3.987,3.987,0,0,1-.574.532c-.109.08-.213.173-.333.245l-.364.215a3.275,3.275,0,0,1-.385.186,3.761,3.761,0,0,1-.4.164l-.41.131c-.136.042-.277.065-.414.1a6.588,6.588,0,0,1-.817.12,5.929,5.929,0,0,1-.772,0c-.123-.01-.242-.013-.357-.027l-.332-.053a4.15,4.15,0,0,1-.571-.144c-.166-.062-.307-.126-.423-.175-.224-.132-.344-.213-.344-.213a.14.14,0,0,1,.134-.245l.02.009.324.14c.111.03.241.072.394.11.16.019.332.068.53.08l.306.027c.106.005.217,0,.33,0,.226.009.465-.03.711-.041.243-.043.5-.065.749-.133.125-.032.254-.054.379-.094l.373-.123a3.311,3.311,0,0,0,.363-.145,2.789,2.789,0,0,0,.351-.164l.333-.184c.11-.06.2-.141.305-.209a4.523,4.523,0,0,0,.541-.445,5.208,5.208,0,0,0,.418-.469c.118-.154.2-.306.292-.435a2.04,2.04,0,0,0,.2-.377l.162-.343a.142.142,0,0,1,.263.1Z" transform="translate(-2781.746 -1324.019)" fill="#f26979"/>
          <g id="Grupo_26080" data-name="Grupo 26080" transform="translate(42.293)">
            <path id="Trazado_67540" data-name="Trazado 67540" d="M2845.616,1317.024a.467.467,0,0,1-.2-.047c-3.066-1.49-11.131-3.139-12.172-3.228a.466.466,0,1,1,.079-.928c1.1.094,9.276,1.751,12.5,3.318a.466.466,0,0,1-.2.886Z" transform="translate(-2832.815 -1312.819)" fill="#81b4fc"/>
          </g>
        </g>
        <path id="Trazado_67541" data-name="Trazado 67541" d="M2897.439,1095.26c5.559,6.13,73.583,4.71,91.67-2.317,1.555-.6-13.932-97.464-15.379-101.89-.057-.175-.06-2.133-.03-5.06.03-3.057.1-7.172.187-11.407.1-4.958.22-10.084.332-13.876.091-3.16.178-5.4.235-5.843,1.752-13.22,13.734-37.73,8.211-43.282-6.184-6.214-16.773-11.718-27.1-15.824-6.84-2.716-20.67-2.242-27.3.641-5.218,2.266-19.812,9.936-24.286,17.948-1.1,1.97,1.58,61.669.949,69.1C2903.727,1000.787,2895.427,1093.042,2897.439,1095.26Z" transform="translate(-2834.848 -887.921)" fill="#e2e7ff"/>
        <path id="Trazado_67542" data-name="Trazado 67542" d="M2994.374,880.963c.755-.554,18.378-3.04,20.493-1.964.481.245,3.485,6.265,3.485,6.265l-30.032,43.276s-.644-24.292,1.436-37.342C2990.088,889.106,2993.833,881.359,2994.374,880.963Z" transform="translate(-2897.638 -877.425)" fill="#81b4fc"/>
        <path id="Trazado_67543" data-name="Trazado 67543" d="M3122.569,941.653c11.906,10.792,27.042,47.36,27.042,59.257,0,14.774-34.268,47.258-36.232,47.25-2.959-.011-12.955-7.793-13.261-8.973-.629-2.417,21.782-33.494,20.875-38.781-.922-5.377-7.151-17.279-16.427-32.2C3093.765,950.822,3107.78,928.247,3122.569,941.653Z" transform="translate(-2974.751 -917.99)" fill="#e2e7ff"/>
        <g id="Grupo_26082" data-name="Grupo 26082" transform="translate(67.015 74.418)">
          <path id="Trazado_67544" data-name="Trazado 67544" d="M2912.838,1160.647a.466.466,0,0,1-.457-.56c2.226-10.79,2.688-29.116,2.845-45.62a.466.466,0,1,1,.932.009c-.158,16.548-.622,34.931-2.865,45.8A.466.466,0,0,1,2912.838,1160.647Z" transform="translate(-2912.371 -1114.005)" fill="#81b4fc"/>
        </g>
        <g id="Grupo_26083" data-name="Grupo 26083" transform="translate(70.228 37.741)">
          <path id="Trazado_67545" data-name="Trazado 67545" d="M2923.175,1002.716h-.02a.466.466,0,0,1-.446-.485,52.6,52.6,0,0,1,.477-5.864.466.466,0,1,1,.92.153,51.839,51.839,0,0,0-.466,5.749A.466.466,0,0,1,2923.175,1002.716Z" transform="translate(-2922.709 -995.977)" fill="#81b4fc"/>
        </g>
        <g id="Grupo_26084" data-name="Grupo 26084" transform="translate(147.539 79.462)">
          <path id="Trazado_67546" data-name="Trazado 67546" d="M3177.442,1134.294c-.525,0-1.253-.06-2.265-.153a12.556,12.556,0,0,0-2.975-.094.464.464,0,0,1-.637-.162.469.469,0,0,1,.162-.641c.5-.3,1.667-.205,3.536-.031.469.043,1.056.1,1.568.128-.526-.166-1.152-.337-1.648-.473-2.5-.684-3.383-.982-3.447-1.632a.727.727,0,0,1,.491-.727c1.836-.919,7.892.747,9.705,1.279a.466.466,0,0,1-.263.895c-3.245-.953-7.147-1.757-8.662-1.456.584.24,1.651.531,2.421.742,2.228.61,3.088.889,3.284,1.411a.591.591,0,0,1-.08.577C3178.448,1134.2,3178.107,1134.294,3177.442,1134.294Z" transform="translate(-3171.499 -1130.237)" fill="#81b4fc"/>
        </g>
        <g id="Grupo_26085" data-name="Grupo 26085" transform="translate(58.55 85.569)">
          <path id="Trazado_67547" data-name="Trazado 67547" d="M2889.663,1155.107c-.851,0-4.259-.851-4.517-2-.042-.186-.068-.65.586-.958.887-.418,2.554-.021,4.812.585a20.143,20.143,0,0,0,2.239.521,10.386,10.386,0,0,0-7.173-2.426.466.466,0,0,1-.032-.932c3.664-.129,7.055,1.617,8,2.87a1.031,1.031,0,0,1,.247.946c-.26.8-1.419.486-3.521-.078-1.482-.4-3.51-.944-4.165-.645a8.221,8.221,0,0,0,3.526,1.187.466.466,0,0,1,0,.932Z" transform="translate(-2885.128 -1149.888)" fill="#81b4fc"/>
        </g>
        <path id="Trazado_67548" data-name="Trazado 67548" d="M3131.438,1064.176c0,1.882,3.124,7.293,4.281,13.854a41.44,41.44,0,0,0,.236-5.843C3135.752,1071.753,3133.906,1068.255,3131.438,1064.176Z" transform="translate(-2996.347 -1005.242)" fill="#8abaff"/>
        <path id="Trazado_67549" data-name="Trazado 67549" d="M3100.144,1186.8c1.453-3.1,12-19.622,13.486-21.981a67.444,67.444,0,0,0,.188-11.407S3100.144,1183.792,3100.144,1186.8Z" transform="translate(-2974.778 -1066.749)" fill="#8abaff"/>
        <g id="Grupo_26096" data-name="Grupo 26096" transform="translate(80.672 13.749)">
          <g id="Grupo_26086" data-name="Grupo 26086" transform="translate(3.159 32.444)">
            <path id="Trazado_67550" data-name="Trazado 67550" d="M2966.95,1187.039h-.021a.467.467,0,0,1-.445-.487c.055-1.237,5.543-124.162,6.893-162.927a.466.466,0,0,1,.932.032c-1.35,38.769-6.838,161.7-6.893,162.936A.466.466,0,0,1,2966.95,1187.039Z" transform="translate(-2966.484 -1023.174)" fill="#81b4fc"/>
          </g>
          <g id="Grupo_26087" data-name="Grupo 26087" transform="translate(10.052)">
            <path id="Trazado_67551" data-name="Trazado 67551" d="M2989.13,957.013a.466.466,0,0,1-.183-.9c5.487-2.34,20.02-9,21.527-11.763a13.754,13.754,0,0,0-1.2-3.2c-1.026-2.268-1.326-3.039-.96-3.481.423-.51,1.544-.281,4.928.719.689.2,1.4.414,1.731.481a78.5,78.5,0,0,0,4.772-6.748c3.285-4.893,7.374-10.983,9.7-13.228a.466.466,0,1,1,.647.671c-2.255,2.176-6.313,8.221-9.575,13.077-4.5,6.7-4.957,7.236-5.51,7.177a15.947,15.947,0,0,1-2.031-.535,26.577,26.577,0,0,0-3.853-.952,21.526,21.526,0,0,0,1,2.435c1.057,2.336,1.488,3.419,1.187,3.993-1.893,3.6-21.178,11.858-22,12.208A.459.459,0,0,1,2989.13,957.013Z" transform="translate(-2988.664 -918.77)" fill="#81b4fc"/>
          </g>
          <g id="Grupo_26088" data-name="Grupo 26088" transform="translate(0 14.352)">
            <path id="Trazado_67552" data-name="Trazado 67552" d="M2966.5,993.027a.465.465,0,0,1-.43-.285c-.4-.943-1.869-4.281-3.573-8.146-5.885-13.343-6.184-14.1-6.184-14.317,0-.628.807-1.516,2.52-3.253.332-.337.735-.746,1.035-1.072-.268.046-.569.108-.811.158-.359.074-.729.15-1.066.2a.466.466,0,0,1-.144-.921c.314-.049.674-.123,1.021-.194,1.283-.264,1.864-.366,2.19-.028.451.469-.016.942-1.562,2.51a15.607,15.607,0,0,0-2.24,2.568c.348.945,3.656,8.446,6.093,13.971,1.706,3.869,3.18,7.211,3.58,8.161a.466.466,0,0,1-.429.647Z" transform="translate(-2956.317 -964.956)" fill="#81b4fc"/>
          </g>
          <g id="Grupo_26089" data-name="Grupo 26089" transform="translate(0.252 0.652)">
            <path id="Trazado_67553" data-name="Trazado 67553" d="M2957.594,928.9l-.05,0a.466.466,0,0,1-.414-.513,51.274,51.274,0,0,1,1.21-7.167.466.466,0,1,1,.9.239,50.343,50.343,0,0,0-1.184,7.027A.466.466,0,0,1,2957.594,928.9Z" transform="translate(-2957.127 -920.868)" fill="#81b4fc"/>
          </g>
          <g id="Grupo_26090" data-name="Grupo 26090" transform="translate(30.405 118.06)">
            <path id="Trazado_67554" data-name="Trazado 67554" d="M3064.868,1300.873a101.6,101.6,0,0,1-10.289-.529.466.466,0,0,1,.1-.927c6.829.712,16.515.9,23.219-.715a.466.466,0,1,1,.218.906A59.353,59.353,0,0,1,3064.868,1300.873Z" transform="translate(-3054.161 -1298.688)" fill="#81b4fc"/>
          </g>
          <g id="Grupo_26091" data-name="Grupo 26091" transform="translate(49.642 35.897)">
            <path id="Trazado_67555" data-name="Trazado 67555" d="M3123.1,1048.928a.466.466,0,0,1-.432-.291c-1.109-2.731-2.641-5.743-3.993-8.4-1.018-2-1.979-3.889-2.574-5.3a.466.466,0,0,1,.859-.362c.582,1.384,1.536,3.258,2.546,5.242,1.36,2.673,2.9,5.7,4.026,8.471a.466.466,0,0,1-.257.607A.46.46,0,0,1,3123.1,1048.928Z" transform="translate(-3116.066 -1034.288)" fill="#81b4fc"/>
          </g>
          <g id="Grupo_26092" data-name="Grupo 26092" transform="translate(53.361 112.121)">
            <path id="Trazado_67556" data-name="Trazado 67556" d="M3132.406,1284.369c-.991,0-2.493-.823-3.865-1.656-.124-.075-.21-.129-.25-.149a.471.471,0,0,1-.209-.623.46.46,0,0,1,.612-.217c.043.02.16.089.33.193,2.3,1.394,3.168,1.589,3.494,1.51.681-.168,2.416-1.623,4.421-3.705a.466.466,0,1,1,.672.647c-1.3,1.353-3.667,3.666-4.87,3.963A1.39,1.39,0,0,1,3132.406,1284.369Z" transform="translate(-3128.035 -1279.579)" fill="#81b4fc"/>
          </g>
          <g id="Grupo_26093" data-name="Grupo 26093" transform="translate(45.909 105.533)">
            <path id="Trazado_67557" data-name="Trazado 67557" d="M3115.445,1268.573a.466.466,0,0,1-.393-.216c-1.332-2.088-7.21-8.624-10.592-9.052a.466.466,0,0,1,.117-.925c3.905.495,9.959,7.437,11.261,9.476a.466.466,0,0,1-.393.717Z" transform="translate(-3104.053 -1258.376)" fill="#81b4fc"/>
          </g>
          <g id="Grupo_26094" data-name="Grupo 26094" transform="translate(44.229 100.321)">
            <path id="Trazado_67558" data-name="Trazado 67558" d="M3099.25,1248.6a.465.465,0,0,1-.4-.223,1.539,1.539,0,0,1-.206-.8,33.66,33.66,0,0,1,2.065-5.73.466.466,0,1,1,.817.449,37.221,37.221,0,0,0-1.95,5.31.63.63,0,0,0,.07.281.466.466,0,0,1-.4.709Z" transform="translate(-3098.646 -1241.607)" fill="#81b4fc"/>
          </g>
          <g id="Grupo_26095" data-name="Grupo 26095" transform="translate(29.933 123.166)">
            <path id="Trazado_67559" data-name="Trazado 67559" d="M3061.874,1339.32c-2.928,0-6.722-.127-7.611-.755-1.672-1.18-1.71-18.262-1.572-22.99a.459.459,0,0,1,.479-.452.466.466,0,0,1,.452.479c-.277,9.486.359,21.32,1.194,22.215,1.585,1.116,18.334.387,19.408-.373a.453.453,0,0,1,.648-.015.478.478,0,0,1,.015.668c-.8.867-7.89,1.124-10.044,1.182C3064.2,1339.3,3063.115,1339.32,3061.874,1339.32Z" transform="translate(-3052.641 -1315.122)" fill="#81b4fc"/>
          </g>
        </g>
        <g id="Grupo_26097" data-name="Grupo 26097" transform="translate(92.72 0)">
          <path id="Trazado_67560" data-name="Trazado 67560" d="M2995.553,884.169a.466.466,0,0,1-.384-.73c.294-.429.681-1.164,1.091-1.944,1.055-2,1.86-3.454,2.632-3.847,4.342-2.214,16.443-4.612,20.942-1.95,1.128.668,3.106,5.9,3.686,7.492a.466.466,0,0,1-.876.32c-1.133-3.106-2.711-6.669-3.284-7.009-4.1-2.424-15.8-.187-20.044,1.978-.567.29-1.568,2.192-2.23,3.451a23.376,23.376,0,0,1-1.147,2.037A.466.466,0,0,1,2995.553,884.169Z" transform="translate(-2995.088 -874.526)" fill="#fff"/>
        </g>
        <g id="hand" transform="translate(111.882 120.011)">
          <path id="Trazado_67561" data-name="Trazado 67561" d="M3056.861,1298.54c4.317.34,11.684.854,14.022.609,1.943-.2,6.2-.482,8.688-1.3-.156-.432-5.023-1.16-10.218-.949C3062.832,1297.163,3055.792,1298.455,3056.861,1298.54Z" transform="translate(-3056.752 -1285.63)" fill="#81b4fc"/>
          <path id="hand-2" data-name="hand" d="M3070.592,1274.241c2.594-4.385,9.612-12.2,10.938-13.426,1.017-.942,8.552,5.582,8.029,6.288a19.305,19.305,0,0,0-1.361,2.122c-.421.946-.389,2.893-1.166,4.4C3082.828,1274.417,3071.557,1274.426,3070.592,1274.241Z" transform="translate(-3066.292 -1260.722)" fill="#ffc4b5"/>
        </g>
      </g>
      <g id="head" transform="translate(2779.229 714.548)">
        <g id="Grupo_26115" data-name="Grupo 26115" transform="translate(0)">
          <path id="Trazado_67562" data-name="Trazado 67562" d="M3061.633,824.112c1.4,1.194,1.266,2.264.826,2.87-.454.626-2.28,1.252-1.7,1.883s2.6-.107,2.628.719-2.477,2.579-1.828,3.348.637,3.521-1.673,2.657-4.728-5.2-4.728-5.2l1.019-4.525Z" transform="translate(-3026.285 -790.065)" fill="#0c0040"/>
          <g id="Grupo_26098" data-name="Grupo 26098" transform="translate(13.599 32.654)">
            <path id="Trazado_67563" data-name="Trazado 67563" d="M3008.594,850.463c-.755,0-2.735-5.375-2.577-5.916a68.853,68.853,0,0,0,2.106-14.448l.044-.023,16.979-10.446s-.818,11.464.441,20.147C3025.87,841.72,3009.3,850.463,3008.594,850.463Z" transform="translate(-3006.008 -819.63)" fill="#ffc4b5"/>
            <path id="Trazado_67564" data-name="Trazado 67564" d="M3023.6,828.164c1.7,11.576-8.262,22.476-17.561,22.265a68.852,68.852,0,0,0,2.106-14.448l.044-.023Z" transform="translate(-3006.028 -825.512)" fill="#ffa9a6"/>
          </g>
          <path id="Trazado_67565" data-name="Trazado 67565" d="M3000.346,761.137c.029,1.255.006,2.7-.071,4.255a51.907,51.907,0,0,1-2.162,13.31c-2.649,7.553-10.2,13.292-18.319,13.043-6.328-.193-9.321-4.73-10.026-9.467-.032-.216-.053-.438-.074-.66a30.185,30.185,0,0,1,.822-8.287c.483-2.4,1.036-4.725,1.275-6.666.307-2.487.43-5.177.573-7.461.151-2.435.724-3.619,1.713-4.328,1.456-1.044,3.148-3.015,5.3-3.991a18.727,18.727,0,0,1,7.751-1.972c2.5.068,5.26,1.448,7.67,3.227a27.065,27.065,0,0,1,3.465,3.041,20.636,20.636,0,0,1,1.532,1.782C3000.1,757.375,3000.3,758.949,3000.346,761.137Z" transform="translate(-2967.34 -738.232)" fill="#ffc4b5"/>
          <path id="Trazado_67566" data-name="Trazado 67566" d="M3009.422,763.555a16.63,16.63,0,0,1-.785,1.992c-.724,1.7-1.686,3.876-1.686,3.876s.966-2.233-.356-2.532c-.341-.077-1.813.392-2.172-.366-.192-.406.231-1.614.123-2.489-.045-.364-.643-.341-.682-.7-.092-.866-.17-1.659-.268-2.052-.23-.929-1.89-.128-2.355-.711-.729-.915.911-3.264.171-3.3-11.292,4.4-20.448,4.023-19.21-.821a.9.9,0,0,1,.244-.709,32.637,32.637,0,0,1,5.42-3.293l6.392-.338,8.948,1.453,2.546.414s.378.989.9,2.334c.637,1.654,1.475,3.848,2.064,5.388C3009.121,762.755,3009.4,763.51,3009.422,763.555Z" transform="translate(-2975.924 -740.435)" fill="#ffa9a6"/>
          <ellipse id="Elipse_1902" data-name="Elipse 1902" cx="4.744" cy="4.814" rx="4.744" ry="4.814" transform="translate(16.98 44.1) rotate(-82.937)" fill="#ffa9a6"/>
          <path id="Trazado_67567" data-name="Trazado 67567" d="M2972.623,831.341a4.712,4.712,0,0,1-2.928,4.443,30.185,30.185,0,0,1,.822-8.287A4.754,4.754,0,0,1,2972.623,831.341Z" transform="translate(-2967.34 -792.398)" fill="#ffa9a6"/>
          <g id="Grupo_26101" data-name="Grupo 26101" transform="translate(30.267 27.41)">
            <path id="Trazado_67568" data-name="Trazado 67568" d="M3066.405,803.5c2.5,2.244-3.208,12.3-6.018,7.407C3057.6,806.057,3063.371,800.772,3066.405,803.5Z" transform="translate(-3059.647 -802.755)" fill="#ffc4b5"/>
            <g id="Grupo_26099" data-name="Grupo 26099" transform="translate(2.023 1.651)">
              <path id="Trazado_67569" data-name="Trazado 67569" d="M3066.469,811.757a.29.29,0,0,1-.049,0,.311.311,0,0,1-.259-.355,3.86,3.86,0,0,1,1.811-2.445,4.144,4.144,0,0,1,2.387-.868.311.311,0,0,1-.14.606,3.959,3.959,0,0,0-1.9.777,3.393,3.393,0,0,0-1.544,2.026A.311.311,0,0,1,3066.469,811.757Z" transform="translate(-3066.158 -808.067)" fill="#f26979"/>
            </g>
            <g id="Grupo_26100" data-name="Grupo 26100" transform="translate(2.711 3.552)">
              <path id="Trazado_67570" data-name="Trazado 67570" d="M3070.439,815.937a.311.311,0,0,1-.292-.2,1.523,1.523,0,0,0-1.444-.924.311.311,0,0,1-.042-.62,2.122,2.122,0,0,1,2.07,1.33.311.311,0,0,1-.292.418Z" transform="translate(-3068.372 -814.185)" fill="#f26979"/>
            </g>
          </g>
          <g id="Grupo_26103" data-name="Grupo 26103" transform="translate(0.58)">
            <path id="Trazado_67571" data-name="Trazado 67571" d="M2996.618,736.879c-.29-.246-.867-.433-.989-.6-.373-.5.38-1.767.008-2.059-.889-.7-2.044.1-2.542-.215-.685-.431.4-1.976-.455-2.969-8.128,2.866-16.765,1.153-19.048-.479.174,4.2-1.753,13.1-2.1,14.181.338-3.449-2.5-6.806-1.773-8.864.235-.663,1.36-.6,1.447-1.563.091-1.009-2.235-2.743-.681-3.98a2.891,2.891,0,0,1,2.576-.037c-5.6-7.179-1.058-13.051,3.58-14.892,7.731-3.068,21.581,2.233,24.931,13.706a1,1,0,0,0-.236,1.462,7.022,7.022,0,0,1,.562,5.5C3000.442,739.707,2997.539,737.866,2996.618,736.879Z" transform="translate(-2967.893 -714.548)" fill="#0e004c"/>
            <path id="Trazado_67572" data-name="Trazado 67572" d="M3063.471,772.585c-.8,1.238-2.168,1.12-3.634,1.966-1.338.773-2.269,3.723-2.932,3.363-.581-.317.587-3.786-.052-4.312-.4-.328-1.429-.036-1.826-.364-.849-.7,1.288-3.255.533-4.063.961-.381,1.473.8,2.157.605.722-.2-.563-2.59-.12-3.3.585-.932,2.319-.344,2.908-1.074.611-.757-3.355-3.289-.191-4a2.582,2.582,0,0,0,.883,1.407c1.117.77,1.8.452,2.224,1.552.634,1.631-2.011,2.766-1.612,3.947C3062.145,769.331,3064.284,771.323,3063.471,772.585Z" transform="translate(-3026.635 -746.85)" fill="#0c0040"/>
            <g id="Grupo_26102" data-name="Grupo 26102" transform="translate(0 1.683)">
              <path id="Trazado_67573" data-name="Trazado 67573" d="M2971.844,723.273s0-.066,0-.18a1.29,1.29,0,0,1,.024-.213,2.509,2.509,0,0,1,.06-.285,3.568,3.568,0,0,1,.244-.664,4.231,4.231,0,0,1,.422-.689,3.874,3.874,0,0,1,.543-.594,3.583,3.583,0,0,1,.569-.413,2.7,2.7,0,0,1,.456-.211c.117-.039.186-.054.186-.054a.243.243,0,0,1,.245.387l-.014.017s-.04.051-.113.128-.173.192-.294.323c-.057.071-.127.136-.192.215l-.21.241c-.144.167-.3.345-.442.528s-.289.368-.409.551-.234.354-.328.5l-.121.2a1.788,1.788,0,0,0-.1.17c-.054.1-.087.157-.087.157a.242.242,0,0,1-.449-.123Z" transform="translate(-2969.442 -719.964)" fill="#00123d"/>
              <path id="Trazado_67574" data-name="Trazado 67574" d="M3048.5,723.4l.408.216c.128.069.286.154.463.265s.383.226.591.372.443.3.676.476.475.375.725.578c.237.219.488.438.724.684s.466.5.692.764l.324.4c.1.138.2.28.3.419.2.278.372.563.531.843s.308.555.427.824.236.522.33.76.171.46.239.656.119.369.159.513l.121.451a.234.234,0,0,1-.434.169l0-.007-.211-.405-.238-.464c-.1-.176-.191-.382-.314-.595-.234-.432-.515-.929-.841-1.441-.167-.253-.335-.518-.522-.774s-.382-.513-.581-.767-.413-.5-.632-.726-.437-.456-.65-.672-.431-.417-.646-.6-.409-.363-.6-.518c-.379-.317-.693-.57-.929-.751l-.36-.288a.234.234,0,0,1,.255-.39Z" transform="translate(-3022.043 -722.311)" fill="#00123d"/>
              <path id="Trazado_67575" data-name="Trazado 67575" d="M3079.759,771.641l-.045-.068a.337.337,0,0,1-.055-.109.7.7,0,0,1-.048-.213,1.049,1.049,0,0,1,.079-.477,2.186,2.186,0,0,1,.259-.469,9.012,9.012,0,0,1,.768-.908,11.655,11.655,0,0,0,.818-.94,3.9,3.9,0,0,0,.3-.484,1.723,1.723,0,0,0,.145-.462,1.179,1.179,0,0,0-.025-.43,1.62,1.62,0,0,0-.157-.4,1.218,1.218,0,0,0-.106-.178c-.039-.055-.067-.114-.108-.162-.08-.1-.139-.19-.2-.258-.123-.139-.191-.226-.191-.226l-.013-.017a.235.235,0,0,1,.3-.351s.1.057.28.17a2.965,2.965,0,0,1,.306.231,2.539,2.539,0,0,1,.359.371,2,2,0,0,1,.327.563,1.8,1.8,0,0,1,.122.76,2.157,2.157,0,0,1-.2.777,3.254,3.254,0,0,1-.4.652,7.784,7.784,0,0,1-.952,1l-.447.4c-.135.125-.268.239-.369.348a2.105,2.105,0,0,0-.247.292.637.637,0,0,0-.1.2c-.012.033,0,.028-.016.045s0,.048.01.071l.024.077a.235.235,0,0,1-.42.2Z" transform="translate(-3043.718 -751.322)" fill="#00102e"/>
              <path id="Trazado_67576" data-name="Trazado 67576" d="M2966.439,761.745s-.16.016-.4.055c-.126.018-.276.049-.44.089a1.763,1.763,0,0,0-.479.19.492.492,0,0,0-.152.14.314.314,0,0,0-.042.154,1.26,1.26,0,0,0,.177.559,11.763,11.763,0,0,0,.961,1.406,9.288,9.288,0,0,1,.538.781,2.458,2.458,0,0,1,.237.493,1.184,1.184,0,0,1,.041.17l0,.023.006.048v.027l0,.054a1.56,1.56,0,0,1-.007.194,1.33,1.33,0,0,1-.038.178,1.224,1.224,0,0,1-.35.537,2.985,2.985,0,0,1-.373.277,2.437,2.437,0,0,0-.486.368.562.562,0,0,0-.141.357,1.415,1.415,0,0,0,.044.389,3.222,3.222,0,0,0,.113.369v0a.234.234,0,0,1-.414.213l-.064-.1a2.364,2.364,0,0,1-.166-.3,1.76,1.76,0,0,1-.165-.546,1.2,1.2,0,0,1,.184-.82,2.522,2.522,0,0,1,.611-.608c.206-.158.354-.315.354-.388,0-.01,0-.023,0-.033s0,.009,0-.023l-.006-.054,0-.027v0c.006.054,0,.015,0,.026v-.005a.393.393,0,0,0-.015-.043,1.835,1.835,0,0,0-.16-.3c-.143-.227-.324-.465-.5-.712a9.143,9.143,0,0,1-1-1.585,1.91,1.91,0,0,1-.189-1.025,1.034,1.034,0,0,1,.247-.54,1.248,1.248,0,0,1,.406-.3,2.173,2.173,0,0,1,.707-.178,3.882,3.882,0,0,1,.515-.016c.141,0,.254.014.323.021l.11.011h.005a.234.234,0,0,1,0,.466Z" transform="translate(-2964.114 -748.418)" fill="#00123d"/>
              <path id="Trazado_67577" data-name="Trazado 67577" d="M3021.269,730.207l-.275-.054c-.181-.039-.441-.081-.766-.135s-.732-.1-1.192-.122a10.421,10.421,0,0,0-1.536.021,7.107,7.107,0,0,0-1.742.377,5.5,5.5,0,0,0-1.7.938,3.961,3.961,0,0,0-1.2,1.581,1.938,1.938,0,0,0-.119.456,2.9,2.9,0,0,0-.041.509,2.555,2.555,0,0,0,.188.965,3.642,3.642,0,0,0,1.333,1.534,8.948,8.948,0,0,0,1.908.964,21.2,21.2,0,0,0,3.782,1c1.137.214,2.1.344,2.771.424l1.059.128a.233.233,0,0,1-.033.465s-.391-.01-1.076-.048-1.663-.11-2.834-.271a21.926,21.926,0,0,1-3.961-.9,9.432,9.432,0,0,1-2.121-1.022,4.422,4.422,0,0,1-1.678-1.922,3.491,3.491,0,0,1-.264-1.309,3.908,3.908,0,0,1,.047-.647,2.752,2.752,0,0,1,.174-.657,4.782,4.782,0,0,1,1.5-1.954,6.182,6.182,0,0,1,2-1.037,7.924,7.924,0,0,1,1.955-.327,9,9,0,0,1,1.649.07c.486.063.9.149,1.241.227s.606.156.777.213l.268.082a.233.233,0,0,1-.113.452Z" transform="translate(-2996.959 -726.297)" fill="#303966"/>
              <path id="Trazado_67578" data-name="Trazado 67578" d="M2992.357,733.465l-.272-.079c-.183-.059-.45-.139-.778-.273a9.183,9.183,0,0,1-1.154-.562,7.452,7.452,0,0,1-1.36-.99,6.037,6.037,0,0,1-1.239-1.6,5.376,5.376,0,0,1-.612-2.2,5.006,5.006,0,0,1,0-.6c.008-.1.008-.193.024-.312l.034-.283a6.382,6.382,0,0,1,1.62-3.354,7.354,7.354,0,0,1,1.965-1.533,8.744,8.744,0,0,1,2.235-.846,10.729,10.729,0,0,1,2.192-.283,15.067,15.067,0,0,1,1.959.081c.3.03.587.076.859.113s.527.1.766.147l.666.157.559.152c.339.087.6.185.774.24l.272.089a.233.233,0,0,1-.123.449l-.009,0-.274-.061c-.179-.036-.439-.1-.773-.167l-.553-.108-.654-.1-.745-.093c-.263-.022-.539-.054-.827-.07a14.279,14.279,0,0,0-1.854.007,11.336,11.336,0,0,0-2.019.32,8.478,8.478,0,0,0-2,.787,6.869,6.869,0,0,0-1.728,1.344,5.978,5.978,0,0,0-1.148,1.837,5.9,5.9,0,0,0-.284,1.01l-.04.282c-.012.068-.016.168-.024.25q-.018.259-.011.514a4.55,4.55,0,0,0,.453,1.888,5.291,5.291,0,0,0,1.038,1.441,7.946,7.946,0,0,0,2.242,1.56c.3.146.547.245.712.311l.265.1a.233.233,0,0,1-.147.443Z" transform="translate(-2979.841 -720.363)" fill="#303966"/>
            </g>
          </g>
          <g id="Grupo_26114" data-name="Grupo 26114" transform="translate(0 25.372)">
            <g id="Grupo_26104" data-name="Grupo 26104" transform="translate(12.056 1.414)">
              <path id="Trazado_67579" data-name="Trazado 67579" d="M3007.12,813.34a6.032,6.032,0,0,1-5.219-3.016,6.357,6.357,0,0,1,6.935-9.38,6.021,6.021,0,0,1,3.7,2.82,6.386,6.386,0,0,1-5.413,9.576Zm.192-11.661a5.455,5.455,0,0,0-4.606,8.175,5.1,5.1,0,0,0,3.128,2.388,5.335,5.335,0,0,0,6.436-3.879,5.393,5.393,0,0,0-.542-4.13,5.1,5.1,0,0,0-4.416-2.554Z" transform="translate(-3001.043 -800.747)" fill="#00102e"/>
            </g>
            <g id="Grupo_26105" data-name="Grupo 26105" transform="translate(23.429 1.442)">
              <path id="Trazado_67580" data-name="Trazado 67580" d="M3038.109,806.788a.466.466,0,0,1-.216-.88c4.672-2.437,10.212-5.05,11.752-5.073a.459.459,0,0,1,.473.459.466.466,0,0,1-.459.473c-.93.014-4.8,1.555-11.335,4.968A.467.467,0,0,1,3038.109,806.788Z" transform="translate(-3037.643 -800.836)" fill="#00102e"/>
            </g>
            <g id="Grupo_26106" data-name="Grupo 26106">
              <path id="Trazado_67581" data-name="Trazado 67581" d="M2966.947,808.091a4.333,4.333,0,0,1-1.1-.141,4.614,4.614,0,0,1-2.8-2.2,6.479,6.479,0,0,1-.563-4.9c.85-3.2,3.743-5.228,6.447-4.523a4.614,4.614,0,0,1,2.8,2.2,6.482,6.482,0,0,1,.563,4.9A5.906,5.906,0,0,1,2966.947,808.091Zm.884-10.964a4.978,4.978,0,0,0-4.444,3.971,5.543,5.543,0,0,0,.467,4.188,3.689,3.689,0,0,0,2.233,1.763c2.209.576,4.592-1.153,5.311-3.859a5.546,5.546,0,0,0-.467-4.188,3.692,3.692,0,0,0-2.234-1.763A3.425,3.425,0,0,0,2967.83,797.127Z" transform="translate(-2962.247 -796.196)" fill="#00102e"/>
            </g>
            <g id="Grupo_26107" data-name="Grupo 26107" transform="translate(9.285 3.174)">
              <path id="Trazado_67582" data-name="Trazado 67582" d="M2995.982,808.863a.466.466,0,0,1-.455-.367,1.688,1.688,0,0,0-1.208-1.125,1.3,1.3,0,0,0-1.354.634.466.466,0,0,1-.748-.556,2.19,2.19,0,0,1,2.3-.989,2.6,2.6,0,0,1,1.923,1.838.466.466,0,0,1-.456.566Z" transform="translate(-2992.125 -806.412)" fill="#00102e"/>
            </g>
            <g id="Grupo_26113" data-name="Grupo 26113" transform="translate(4.186 2.246)">
              <g id="Grupo_26108" data-name="Grupo 26108" transform="translate(1.421 0.062)">
                <path id="Trazado_67583" data-name="Trazado 67583" d="M2982.381,805.633a.465.465,0,0,1-.359-.169,2.819,2.819,0,0,0-1.395-.925.466.466,0,0,1,.259-.9,3.752,3.752,0,0,1,1.854,1.227.466.466,0,0,1-.062.656A.461.461,0,0,1,2982.381,805.633Z" transform="translate(-2980.29 -803.625)" fill="#fff"/>
              </g>
              <g id="Grupo_26109" data-name="Grupo 26109">
                <path id="Trazado_67584" data-name="Trazado 67584" d="M2976.184,804.441a.466.466,0,0,1-.2-.888,1.566,1.566,0,0,1,.182-.068c.024-.007.049-.015.073-.025a.466.466,0,1,1,.352.863c-.047.019-.095.035-.142.05a.567.567,0,0,0-.069.024A.464.464,0,0,1,2976.184,804.441Z" transform="translate(-2975.718 -803.425)" fill="#fff"/>
              </g>
              <g id="Grupo_26110" data-name="Grupo 26110" transform="translate(17.317 3.516)">
                <path id="Trazado_67585" data-name="Trazado 67585" d="M3032.312,816.675a.466.466,0,0,1-.45-.347,3.855,3.855,0,0,0-.358-.895.466.466,0,1,1,.814-.455,4.785,4.785,0,0,1,.446,1.112.466.466,0,0,1-.451.585Z" transform="translate(-3031.444 -814.739)" fill="#fff"/>
              </g>
              <g id="Grupo_26111" data-name="Grupo 26111" transform="translate(14.321 1.368)">
                <path id="Trazado_67586" data-name="Trazado 67586" d="M3024.546,809.972a.465.465,0,0,1-.325-.132,4.373,4.373,0,0,0-2.057-1.09.466.466,0,0,1,.209-.909,5.275,5.275,0,0,1,2.5,1.331.466.466,0,0,1-.325.8Z" transform="translate(-3021.802 -807.828)" fill="#fff"/>
              </g>
              <g id="Grupo_26112" data-name="Grupo 26112" transform="translate(12.324 1.304)">
                <path id="Trazado_67587" data-name="Trazado 67587" d="M3015.842,808.65a.466.466,0,0,1-.165-.9,2.157,2.157,0,0,1,.225-.068c.041-.01.082-.021.122-.034a.466.466,0,1,1,.293.885c-.06.02-.121.036-.181.052-.044.012-.088.022-.128.037A.462.462,0,0,1,3015.842,808.65Z" transform="translate(-3015.375 -807.622)" fill="#fff"/>
              </g>
            </g>
          </g>
        </g>
        <g id="Grupo_26116" data-name="Grupo 26116" transform="translate(9.57 63.862)">
          <path id="Trazado_67588" data-name="Trazado 67588" d="M3001.632,932.929a.467.467,0,0,1-.458-.376l-2.124-10.781-4.939,7.914a.466.466,0,0,1-.862-.235l-.208-8.335a.466.466,0,1,1,.932-.023l.169,6.781,4.741-7.6a.466.466,0,0,1,.853.157l2.2,11.176,13.737-11.221a.466.466,0,0,1,.589.723l-14.339,11.712A.465.465,0,0,1,3001.632,932.929Z" transform="translate(-2993.042 -920.058)" fill="#fff"/>
        </g>
        <path id="Trazado_67589" data-name="Trazado 67589" d="M2997.771,811.222c.068,4.674,2.469,22.147-17.44,25.035-18.386,2.667-11.65-18.167-11.65-18.167s-.613,4.346.977,5.212c.764.416,2.5-1.859,5.588-1.763,6.862.213,8.466,4.817,11.879,4.249,6.053-1.007,8.994-9.785,9.415-14.3C2996.56,811.263,2997.771,811.222,2997.771,811.222Z" transform="translate(-2965.852 -781.18)" fill="#0e004c"/>
      </g>
      <g id="Grupo_26120" data-name="Grupo 26120" transform="translate(2803.042 770.273)">
        <path id="Trazado_67590" data-name="Trazado 67590" d="M3042.409,1026.917c3.125,2.507,10.173-7.466,6.146-10.273S3038.935,1024.129,3042.409,1026.917Z" transform="translate(-3040.561 -978.162)" fill="#4997e8"/>
        <g id="Grupo_26117" data-name="Grupo 26117" transform="translate(0 37.395)">
          <path id="Trazado_67591" data-name="Trazado 67591" d="M3041.969,1026.54a2.976,2.976,0,0,1-1.562-.438,3.517,3.517,0,0,1-1.521-3.4c.128-3.073,2.408-6.843,4.88-8.069a3.242,3.242,0,0,1,3.464.152c2.439,1.7,1.669,5.369-.078,8.06C3045.866,1024.826,3043.869,1026.54,3041.969,1026.54Zm3.47-11.087a2.53,2.53,0,0,0-1.121.3c-2.046,1.015-4.083,4.42-4.191,7.007a2.429,2.429,0,0,0,.922,2.281h0c1.507.911,3.686-.754,5.06-2.868,1.477-2.274,2.092-5.19.41-6.363A1.851,1.851,0,0,0,3045.439,1015.454Z" transform="translate(-3038.88 -1014.21)" fill="#2a3f6e"/>
        </g>
        <path id="Trazado_67592" data-name="Trazado 67592" d="M3048.62,1022.335c-1.356-.96-5.352,3.672-3.383,5.649s5.438-4.345,3.383-5.649Z" transform="translate(-3042.893 -982.327)" fill="#2a3f6e"/>
        <g id="Grupo_26118" data-name="Grupo 26118" transform="translate(1.276 39.432)">
          <path id="Trazado_67593" data-name="Trazado 67593" d="M3045.012,1027.821a1.939,1.939,0,0,1-1.254-.47c-1.05-.871-1.026-2.557.062-4.3.907-1.45,2.486-2.739,3.811-2.136l.075.043a2.53,2.53,0,0,1,.91,2.5,5.5,5.5,0,0,1-2.807,4.2A2.146,2.146,0,0,1,3045.012,1027.821Zm1.93-6.114a3.515,3.515,0,0,0-2.331,1.843c-.676,1.081-1.017,2.453-.257,3.084a1.015,1.015,0,0,0,1.109.161,4.627,4.627,0,0,0,2.228-3.442,1.711,1.711,0,0,0-.482-1.6A.746.746,0,0,0,3046.941,1021.707Z" transform="translate(-3042.987 -1020.768)" fill="#fff"/>
        </g>
        <g id="Grupo_26119" data-name="Grupo 26119" transform="translate(3.706 0)">
          <path id="Trazado_67594" data-name="Trazado 67594" d="M3051.738,936.2a.932.932,0,0,1-.823-1.368c7.252-13.711,9.863-23.273,10.777-28.88,1.091-6.7.135-9.947-.468-10.4a.932.932,0,1,1,1.123-1.488c3.051,2.3,3.313,16.88-9.784,41.642A.933.933,0,0,1,3051.738,936.2Z" transform="translate(-3050.806 -893.874)" fill="#2a3f6e"/>
        </g>
      </g>
      <g id="Grupo_26124" data-name="Grupo 26124" transform="translate(2764.49 772.506)">
        <g id="Grupo_26121" data-name="Grupo 26121" transform="translate(1.211 39.215)">
          <path id="Trazado_67595" data-name="Trazado 67595" d="M2937.125,1035.383a.683.683,0,0,1-.651-.475,8.945,8.945,0,0,0-8.226-6.275,8.265,8.265,0,0,0-8.223,4.632.684.684,0,1,1-1.251-.551,9.618,9.618,0,0,1,9.545-5.447,10.263,10.263,0,0,1,9.457,7.223.683.683,0,0,1-.651.892Z" transform="translate(-2918.717 -1027.252)" fill="#4997e8"/>
        </g>
        <g id="Grupo_26122" data-name="Grupo 26122" transform="translate(0 32.025)">
          <path id="Trazado_67596" data-name="Trazado 67596" d="M2931.443,1036.137a.932.932,0,0,1-.786-1.433c3.707-5.825,4.035-17.275.688-24.021-1-2.01-2.766-4.456-5.526-4.686-1.953-.159-3.73.89-5.282,3.129-4.17,6.014-5.142,18.527-1.962,25.261a.932.932,0,1,1-1.686.8c-3.476-7.359-2.447-20.539,2.116-27.119,1.931-2.786,4.341-4.149,6.969-3.924,2.871.238,5.306,2.215,7.042,5.715,3.656,7.369,3.289,19.449-.785,25.851A.932.932,0,0,1,2931.443,1036.137Z" transform="translate(-2914.818 -1004.116)" fill="#2a3f6e"/>
        </g>
        <path id="Trazado_67597" data-name="Trazado 67597" d="M2919.453,1094.428c-1.359.443-.124,5.005,1.787,4.388S2921.349,1093.81,2919.453,1094.428Z" transform="translate(-2917.616 -1034.297)" fill="#4997e8"/>
        <path id="Trazado_67598" data-name="Trazado 67598" d="M2924.593,1106.125c-.43-.23.886-.9.948-.585S2924.918,1106.3,2924.593,1106.125Z" transform="translate(-2921.496 -1041.942)" fill="#2a3f6e"/>
        <path id="Trazado_67599" data-name="Trazado 67599" d="M2965.406,1096.726c-1.15-.847-4.143,2.811-2.53,4.006S2967.013,1097.909,2965.406,1096.726Z" transform="translate(-2947.62 -1035.836)" fill="#4997e8"/>
        <path id="Trazado_67600" data-name="Trazado 67600" d="M2963.8,1107.518c-.063-.483,1.244.2,1.028.431S2963.849,1107.884,2963.8,1107.518Z" transform="translate(-2948.578 -1043.244)" fill="#2a3f6e"/>
        <g id="Grupo_26123" data-name="Grupo 26123" transform="translate(10.414)">
          <path id="Trazado_67601" data-name="Trazado 67601" d="M2949.262,931.124a.954.954,0,0,1-.111-.006.932.932,0,0,1-.816-1.036c1.389-11.7,5.321-21.352,11.686-28.7a.932.932,0,1,1,1.409,1.221c-6.117,7.062-9.9,16.382-11.244,27.7A.932.932,0,0,1,2949.262,931.124Z" transform="translate(-2948.329 -901.059)" fill="#2a3f6e"/>
        </g>
        <path id="Trazado_67602" data-name="Trazado 67602" d="M2941.017,988.523c-1.627-.094-1.568,3.461-2.142,4.33-.754,1.142-3.716.888-2.608,2.9.955,1.731,3.259-.2,4.329.059s3.218,1.406,3.781.32c.947-1.83-2.034-2.506-2.3-3.167S2942.868,988.63,2941.017,988.523Z" transform="translate(-2929.433 -961.342)" fill="#4997e8"/>
      </g>
    </g>
  </g>
</svg>
