<svg xmlns="http://www.w3.org/2000/svg" width="640.5" height="355.533" viewBox="0 0 640.5 355.533">
  <g id="Grupo_26330" data-name="Grupo 26330" transform="translate(-392.031 -181.296)">
    <path id="Trazado_67665" data-name="Trazado 67665" d="M394.663,536.829h635.075c9.419-75.324-4.622-147.254-47.7-216.008-20.675-33-50.31-63.06-82.557-84.887a202.187,202.187,0,0,0-26.857-14.874c-57.7-27.377-121.813-41.454-185.655-39.6-34.543,1-69.733,4.53-102.176,16.725-92.525,34.779-161.785,118.25-183.119,214.253a403.071,403.071,0,0,0-7.691,48.549q-1.942,20.029-1.953,40.181-.011,10.717.518,21.426C392.864,528.932,391.82,533.977,394.663,536.829Z" fill="#d2f3f9"/>
    <g id="Grupo_26254" data-name="Grupo 26254" transform="translate(931.743 408.448)" style="mix-blend-mode: screen;isolation: isolate">
      <g id="Grupo_26242" data-name="Grupo 26242" transform="translate(0 0)">
        <g id="Grupo_26241" data-name="Grupo 26241" transform="translate(40.694 51.778)">
          <path id="Trazado_67666" data-name="Trazado 67666" d="M2435.109,1222.914h1.959c-14.755-23.862-27.439-49.616-35.578-76.332-.092-.3-.483-.36-.872-.127a.98.98,0,0,0-.537.972C2408.125,1173.829,2420.594,1199.288,2435.109,1222.914Z" transform="translate(-2400.063 -1146.311)" fill="#606060"/>
        </g>
        <path id="Trazado_67667" data-name="Trazado 67667" d="M2271.137,1194.957c6.389.793,12.762,1.644,19.453,1.84,3.507.1,7.084-.077,10.736-.337,1.049-.074,4.153-.761,6.206-.979a9.9,9.9,0,0,1,1.02-.063.327.327,0,0,1,.073,0,1.315,1.315,0,0,1,.757.149c-.341-.285-.687-.569-1.042-.849a1.3,1.3,0,0,0-.11-.084c-.215-.176-.434-.344-.655-.514a71.882,71.882,0,0,0-31.718-13.382c-1.526-.242-3.064-.434-4.6-.577a11.9,11.9,0,0,0-7.343,1.823,10.6,10.6,0,0,0-1.106.8,11.891,11.891,0,0,0-1.056.961,7.851,7.851,0,0,0-2.476,4.778C2259.149,1193.109,2267.279,1194.477,2271.137,1194.957Z" transform="translate(-2259.273 -1118.568)" fill="#606060"/>
        <path id="Trazado_67668" data-name="Trazado 67668" d="M2296.445,1297.011c6.927-.385,13.846-.716,20.98-1.7,3.74-.515,7.5-1.3,11.323-2.166,1.135-.261,4.459-1.491,6.6-2.024l.028-.007a4.012,4.012,0,0,1,1.713-.2.115.115,0,0,1,.034.013.164.164,0,0,0-.04-.019c-.364-.177-.735-.351-1.106-.525-.409-.184-.818-.368-1.233-.546a.2.2,0,0,0-.044-.018c-.186-.081-.372-.162-.564-.242a87.8,87.8,0,0,0-35.373-6.351c-1.662.041-3.329.134-4.989.272a14.093,14.093,0,0,0-6.911,2.537c-.181.126-.357.259-.531.4q-.361.287-.7.6c-1.952,1.822-3.3,4.319-2.985,6.164C2283.379,1297.409,2292.262,1297.24,2296.445,1297.011Z" transform="translate(-2275.856 -1191.853)" fill="#606060"/>
        <path id="Trazado_67669" data-name="Trazado 67669" d="M2339.248,1385.674h39.166q2.2-.448,4.432-.955c1.2-.272,4.962-1.687,6.9-2.067.075-.017.132-.024.189-.035a3.081,3.081,0,0,1,.635-.056.592.592,0,0,1,.252.047c-.062-.032-.128-.061-.19-.092-.431-.208-.873-.41-1.32-.611a.047.047,0,0,0-.021-.01q-1.654-.743-3.415-1.415a84.62,84.62,0,0,0-31.6-5.21q-2.383.062-4.757.26a13.35,13.35,0,0,0-7.09,2.8,11.2,11.2,0,0,0-1.114,1.016,10.95,10.95,0,0,0-.976,1.163,6.056,6.056,0,0,0-1.419,4.266A2.806,2.806,0,0,0,2339.248,1385.674Z" transform="translate(-2315.866 -1257.293)" fill="#606060"/>
        <path id="Trazado_67670" data-name="Trazado 67670" d="M2313.618,1003.378q.529.56,1.081,1.107,4.906,4.849,9.808,9.706c1.272,1.256,4.7,3.607,6.992,5.845.094.091.182.183.272.271a6.144,6.144,0,0,1,1.933,2.986q-.178-1.331-.352-2.658c-.025-.223-.056-.44-.082-.657-1.681-13.214-2.874-26.308-6.162-39-1.052-4.06-2.343-8.189-5.279-10.993a10.267,10.267,0,0,0-12.122-1.461,10.441,10.441,0,0,0-1.344.936,10.722,10.722,0,0,0-.929.85c-3.487,3.6-4.319,9.353-3.584,13.917A35.537,35.537,0,0,0,2313.618,1003.378Z" transform="translate(-2290.791 -967.175)" fill="#606060"/>
        <path id="Trazado_67671" data-name="Trazado 67671" d="M2423.259,1068.564a12.5,12.5,0,0,1-.363-2.531l-.014-.261a20.624,20.624,0,0,1,.088-2.447c.713-7.808,5.427-18.132,8.407-25.5,3.693-9.129,5.037-14.87,5.351-23.436.1-2.849.023-5.8-1.694-7.5-1.18-1.167-3.4-1.451-5.521-.66a7.522,7.522,0,0,0-1.12.525,7.806,7.806,0,0,0-1.628,1.25c-1.979,1.988-2.517,4.512-2.871,6.738-2.535,15.907-4.459,32.613-2.158,46.881.113.717.24,1.425.375,2.129.031.166.066.332.1.495Q2422.657,1066.456,2423.259,1068.564Z" transform="translate(-2374.044 -994.625)" fill="#606060"/>
        <path id="Trazado_67672" data-name="Trazado 67672" d="M2457.958,1126.383c.023.422.047.845.078,1.264-.018-.36-.017-.73,0-1.107a.767.767,0,0,1,0-.084,24.418,24.418,0,0,1,1.233-6.28c2.467-7.785,8.06-16.968,11.83-23.721,5.052-9.048,7.333-14.9,9.192-23.92.619-3,1.08-6.135-.177-8.224a4,4,0,0,0-3.3-1.771,5.281,5.281,0,0,0-1.081.045,6.827,6.827,0,0,0-3.388,1.517c-2.173,1.772-3.13,4.354-3.865,6.653-5.458,17.122-10.464,35.282-10.6,51.268q-.022,2.157.083,4.26C2457.953,1126.314,2457.956,1126.349,2457.958,1126.383Z" transform="translate(-2400.464 -1034.968)" fill="#606060"/>
        <path id="Trazado_67673" data-name="Trazado 67673" d="M2458.462,1287.963c0-.053-.006-.1-.01-.149C2458.454,1287.865,2458.457,1287.913,2458.462,1287.963Z" transform="translate(-2400.882 -1195.136)" fill="#606060"/>
        <path id="Trazado_67674" data-name="Trazado 67674" d="M2495.539,1206.149a15.145,15.145,0,0,1,.114-2.58c1.05-8.535,8.354-20.382,12.948-28.611,5.052-9.048,7.333-14.9,9.2-23.923.616-3,1.08-6.135-.18-8.221a4.048,4.048,0,0,0-3.445-1.783,5.489,5.489,0,0,0-.87.041,6.834,6.834,0,0,0-3.455,1.53c-2.176,1.775-3.133,4.357-3.865,6.653-5.1,15.994-9.8,32.893-10.517,48.079-.09,1.952-.118,3.874-.069,5.759,0,.251.012.486.023.718C2495.443,1204.595,2495.484,1205.377,2495.539,1206.149Z" transform="translate(-2427.129 -1090.777)" fill="#606060"/>
        <path id="Trazado_67675" data-name="Trazado 67675" d="M2537.029,1307.287c1.956-5.644,5.884-12.119,8.575-16.937,3.777-6.764,5.483-11.138,6.874-17.885.461-2.239.81-4.584-.134-6.143a3.091,3.091,0,0,0-2.815-1.334,4.467,4.467,0,0,0-1.051.16,5.228,5.228,0,0,0-1.941,1.016,9.953,9.953,0,0,0-2.891,4.972c-3.833,12.03-7.367,24.742-7.868,36.151Z" transform="translate(-2455.856 -1178.906)" fill="#606060"/>
        <path id="Trazado_67676" data-name="Trazado 67676" d="M2584.71,1374.464c.113-1.048.224-2.1.34-3.144q.655-5.927,1.393-11.846c-1.517,4.97-2.921,10.012-4.033,14.99Z" transform="translate(-2489.01 -1246.083)" fill="#606060"/>
      </g>
      <g id="Grupo_26253" data-name="Grupo 26253" transform="translate(2.477 2.288)">
        <g id="Grupo_26243" data-name="Grupo 26243" transform="translate(38.491 49.973)">
          <path id="Trazado_67677" data-name="Trazado 67677" d="M2435.763,1224.1h1.958c-14.627-23.726-27.2-49.312-35.28-75.849-.092-.3-.483-.36-.872-.126a.979.979,0,0,0-.537.972C2409.02,1175.322,2421.374,1200.614,2435.763,1224.1Z" transform="translate(-2401.012 -1147.984)" fill="#606060"/>
        </g>
        <g id="Grupo_26244" data-name="Grupo 26244" transform="translate(14.166)">
          <path id="Trazado_67678" data-name="Trazado 67678" d="M2342.358,1025.274c-.013-.065-.026-.13-.039-.2-.022-.126-.045-.251-.07-.38a104.549,104.549,0,0,0-10.676-30.408,83.545,83.545,0,0,0-13.789-19.2,10.758,10.758,0,0,0-.929.85,82.889,82.889,0,0,1,13.913,19.457,104.708,104.708,0,0,1,10.364,29.615c.048.23.089.464.135.7l.041.215C2341.413,1026.49,2342.462,1025.831,2342.358,1025.274Z" transform="translate(-2316.855 -975.092)" fill="#606060"/>
        </g>
        <g id="Grupo_26245" data-name="Grupo 26245" transform="translate(0 61.925)">
          <path id="Trazado_67679" data-name="Trazado 67679" d="M2267.844,1190.3c1.357.161,2.7.342,4.052.506,5.209.634,10.4,1.308,15.442,2.237a87.058,87.058,0,0,1,26.288,9c.457.25.91.508,1.36.768a1.031,1.031,0,0,1,.094.054c.113.063.221.126.331.192.464.277,1.225-.7.761-.974-.6-.356-1.214-.7-1.832-1.041l-.1-.052c-.19-.1-.381-.209-.573-.31a88.473,88.473,0,0,0-25.8-8.671c-5.233-.963-10.624-1.653-16.028-2.309-.98-.12-1.959-.244-2.945-.358A11.906,11.906,0,0,0,2267.844,1190.3Z" transform="translate(-2267.844 -1189.335)" fill="#606060"/>
        </g>
        <g id="Grupo_26246" data-name="Grupo 26246" transform="translate(7.296 91.88)">
          <path id="Trazado_67680" data-name="Trazado 67680" d="M2293.085,1293.981c5.568-.182,10.941.319,16.321.229a96.752,96.752,0,0,1,16.419.923c5.629.874,11.233,1.789,16.849,2.685a.067.067,0,0,1,.025,0,.764.764,0,0,0,.73-.492c.112-.247.082-.5-.2-.544-.377-.06-.753-.119-1.126-.182a.168.168,0,0,1-.039-.005c-.162-.022-.323-.05-.481-.075-5.263-.845-10.514-1.708-15.8-2.515a104.817,104.817,0,0,0-17.075-.815c-4.781.07-9.52-.3-14.4-.213-.181.126-.357.259-.532.4Q2293.422,1293.666,2293.085,1293.981Z" transform="translate(-2293.085 -1292.968)" fill="#606060"/>
        </g>
        <g id="Grupo_26247" data-name="Grupo 26247" transform="translate(21.995 118.893)">
          <path id="Trazado_67681" data-name="Trazado 67681" d="M2343.941,1388.458a79.979,79.979,0,0,1,16.267-.946c5.8.1,11.6.212,17.258.621,2.775.2,5.516.471,8.2.846a36.992,36.992,0,0,1,7.6,1.48.048.048,0,0,1,.021.011c.089.03.17.063.253.1.039.012.077.029.113.044a.563.563,0,0,0,.522-.1.365.365,0,0,0,.062-.045c.314-.249.506-.7.179-.834a13.94,13.94,0,0,0-2.019-.651c-.947-.234-1.93-.4-2.916-.552-.716-.109-1.436-.21-2.137-.317-2.759-.423-5.586-.725-8.451-.951-5.743-.446-11.638-.577-17.541-.678-5.35-.091-10.684-.214-16.435.809A10.958,10.958,0,0,0,2343.941,1388.458Z" transform="translate(-2343.941 -1386.427)" fill="#606060"/>
        </g>
        <g id="Grupo_26248" data-name="Grupo 26248" transform="translate(92.381 120.799)">
          <path id="Trazado_67682" data-name="Trazado 67682" d="M2588.294,1398.313q.169-1.572.341-3.144c.08-.717.165-1.433.245-2.15-.579,1.78-1.031,3.542-1.427,5.293Z" transform="translate(-2587.453 -1393.02)" fill="#606060"/>
        </g>
        <g id="Grupo_26249" data-name="Grupo 26249" transform="translate(77.523 83.794)">
          <path id="Trazado_67683" data-name="Trazado 67683" d="M2537.056,1307.292q3.46-13.741,7.811-27.623,2.306-7.326,4.855-14.676a4.471,4.471,0,0,0-1.051.16q-1.646,4.753-3.193,9.5-5.339,16.4-9.428,32.641Z" transform="translate(-2536.05 -1264.993)" fill="#606060"/>
        </g>
        <g id="Grupo_26250" data-name="Grupo 26250" transform="translate(64.89 47.962)">
          <path id="Trazado_67684" data-name="Trazado 67684" d="M2493.266,1203.81a.667.667,0,0,0,.163-.373c.308-6.048,2.733-12.614,4.649-18.978,2-6.639,3.224-13.139,5.381-19.808,2.526-7.827,5.487-15.723,8.562-23.62a5.486,5.486,0,0,0-.87.041q-.618,1.608-1.229,3.211c-2.7,7.069-5.485,14.158-7.724,21.189-2.186,6.87-3.409,13.576-5.565,20.434-1.195,3.8-2.468,7.665-3.319,11.427a44.535,44.535,0,0,0-.79,4.456c-.082.7-.144,1.383-.178,2.056C2492.322,1204.323,2492.956,1204.184,2493.266,1203.81Z" transform="translate(-2492.345 -1141.028)" fill="#606060"/>
        </g>
        <g id="Grupo_26251" data-name="Grupo 26251" transform="translate(45.165 9.318)">
          <path id="Trazado_67685" data-name="Trazado 67685" d="M2425.694,1069.736a.531.531,0,0,0,.167-.432c-.04-.359-.081-.713-.116-1.073-.014-.1-.024-.2-.035-.3-.126-1.166-.239-2.336-.326-3.51a44.334,44.334,0,0,1,.356-10.691c.424-2.563,1.142-5.19,1.635-7.771.52-2.722.808-5.385,1.113-8.05q.979-8.621,1.94-17.236c.495-4.443,1.056-8.912,1.5-13.345a7.522,7.522,0,0,0-1.12.525c-1.188,11.089-2.379,22.187-3.736,33.329-.624,5.13-2.246,10.5-2.774,15.6a39.681,39.681,0,0,0-.148,5.943c.017.441.04.882.072,1.32.008.1.012.208.025.31.125,1.813.33,3.591.528,5.372C2424.821,1070.144,2425.4,1070.044,2425.694,1069.736Z" transform="translate(-2424.101 -1007.331)" fill="#606060"/>
        </g>
        <g id="Grupo_26252" data-name="Grupo 26252" transform="translate(54.157 25.273)">
          <path id="Trazado_67686" data-name="Trazado 67686" d="M2456.158,1127.8a.576.576,0,0,0,.156-.407c-.008-.172-.012-.347-.017-.522,0-.032,0-.062,0-.095a27.173,27.173,0,0,1,1.084-6.6c.49-1.841,1.059-3.683,1.524-5.395,3.233-11.876,7.125-23.863,11-35.824,1.268-3.911,2.578-7.826,3.792-11.733.492-1.575.893-3.138,1.223-4.685a5.287,5.287,0,0,0-1.082.045,58.1,58.1,0,0,1-1.565,6c-3.331,10.433-6.8,20.876-10,31.29-1.805,5.87-3.567,11.738-5.086,17.567-.383,1.47-.832,3.029-1.207,4.583-.234.967-.437,1.925-.574,2.855a.716.716,0,0,0-.011.076,14.666,14.666,0,0,0-.171,2.858C2455.252,1128.256,2455.861,1128.132,2456.158,1127.8Z" transform="translate(-2455.212 -1062.53)" fill="#606060"/>
        </g>
      </g>
    </g>
    <g id="Grupo_26271" data-name="Grupo 26271" transform="translate(450.731 358.854)" style="mix-blend-mode: screen;isolation: isolate">
      <g id="Grupo_26256" data-name="Grupo 26256" transform="translate(0 0)">
        <g id="Grupo_26255" data-name="Grupo 26255" transform="translate(28.209 54.842)">
          <path id="Trazado_67687" data-name="Trazado 67687" d="M694.533,1108.464c15.7-37.72,28.28-80.2,30.329-122.274.016-.317-.326-.68-.758-.811s-.8.019-.814.336c-2.057,42.253-14.763,84.916-30.577,122.749Z" transform="translate(-692.712 -985.331)" fill="#606060"/>
        </g>
        <path id="Trazado_67688" data-name="Trazado 67688" d="M829.75,1005.943c-6,2.331-11.973,4.715-18.412,6.541-3.375.956-6.888,1.657-10.493,2.3-1.035.185-4.213.278-6.257.569a9.86,9.86,0,0,0-1,.189.315.315,0,0,0-.071.018,1.317,1.317,0,0,0-.7.329c.261-.36.528-.72.8-1.078a1.365,1.365,0,0,1,.086-.108c.165-.223.337-.44.51-.659a71.884,71.884,0,0,1,27.482-20.732c1.421-.608,2.865-1.17,4.322-1.685a11.909,11.909,0,0,1,7.567-.028,10.6,10.6,0,0,1,1.267.5,11.972,11.972,0,0,1,1.259.674,7.851,7.851,0,0,1,3.569,4.028C840.922,1001.221,833.374,1004.535,829.75,1005.943Z" transform="translate(-735.672 -934.516)" fill="#606060"/>
        <path id="Trazado_67689" data-name="Trazado 67689" d="M815,1112.324c-6.811,1.321-13.6,2.692-20.759,3.482-3.752.416-7.589.575-11.509.668-1.165.024-4.689-.355-6.891-.35h-.029a4.015,4.015,0,0,0-1.709.225.12.12,0,0,0-.03.021.166.166,0,0,1,.034-.028c.309-.261.627-.52.945-.779.352-.278.7-.557,1.062-.831a.229.229,0,0,1,.039-.029c.161-.124.322-.248.487-.373a87.8,87.8,0,0,1,32.746-14.808c1.622-.366,3.261-.684,4.9-.956a14.093,14.093,0,0,1,7.321.77c.206.078.409.164.613.256.281.127.555.265.825.414,2.338,1.289,4.258,3.381,4.4,5.247C827.769,1109.514,819.114,1111.524,815,1112.324Z" transform="translate(-722.348 -1010.867)" fill="#606060"/>
        <path id="Trazado_67690" data-name="Trazado 67690" d="M789.327,1214.21c-6.487,1.258-12.957,2.564-19.774,3.319-3.579.394-7.232.549-10.967.635-1.23.03-5.224-.422-7.2-.316-.077,0-.133.01-.192.012a3.071,3.071,0,0,0-.63.1.589.589,0,0,0-.233.108c.053-.046.109-.09.162-.136.367-.307.746-.611,1.13-.914,0-.007.01-.01.018-.015q1.422-1.125,2.965-2.207a84.612,84.612,0,0,1,29.371-12.781q2.326-.523,4.676-.911a13.352,13.352,0,0,1,7.559.979,11.137,11.137,0,0,1,1.328.713,10.953,10.953,0,0,1,1.231.889,6.058,6.058,0,0,1,2.419,3.789C801.49,1211.534,793.247,1213.45,789.327,1214.21Z" transform="translate(-705.468 -1083.773)" fill="#606060"/>
        <path id="Trazado_67691" data-name="Trazado 67691" d="M756.4,1293.289c-5.6,1.086-11.187,2.215-17.072,2.865-3.09.342-6.245.474-9.47.55-.795.017-2.935-.194-4.674-.264-.14-.006-.267-.009-.393-.014-.015,0-.032,0-.047,0a10.374,10.374,0,0,0-1.453.038,1.913,1.913,0,0,0-.31.055.217.217,0,0,0-.051.016.506.506,0,0,0-.2.09l.229-.19a.613.613,0,0,1,.065-.052c.064-.058.131-.112.2-.167.129-.11.261-.215.4-.321q.868-.7,1.8-1.376a.526.526,0,0,1,.062-.045,72.459,72.459,0,0,1,26.294-11.714c1.339-.3,2.683-.565,4.037-.784a11.527,11.527,0,0,1,6.526.842,9.357,9.357,0,0,1,3.245,2.413,6.026,6.026,0,0,1,.628.912,3.361,3.361,0,0,1,.421,1.331C766.9,1290.979,759.786,1292.633,756.4,1293.289Z" transform="translate(-685.848 -1141.285)" fill="#606060"/>
        <path id="Trazado_67692" data-name="Trazado 67692" d="M726.476,1370.487c-5.6,1.089-11.187,2.215-17.078,2.866-3.085.341-6.24.473-9.465.549-.853.02-3.25-.229-5.042-.28-.025,0-.052,0-.076,0-.042,0-.083,0-.122,0a9.08,9.08,0,0,0-1.458.057,1.5,1.5,0,0,0-.2.045.388.388,0,0,0-.085.026.42.42,0,0,0-.144.075c.057-.046.113-.1.175-.141a.851.851,0,0,1,.109-.09.308.308,0,0,1,.067-.054c.47-.394.958-.778,1.46-1.161.337-.259.68-.513,1.029-.769.034-.028.071-.052.108-.078a72.707,72.707,0,0,1,26.1-11.569c1.335-.3,2.682-.562,4.034-.786a11.536,11.536,0,0,1,6.525.845c.039.017.073.032.111.052a9.487,9.487,0,0,1,1.324.748c1.566,1.057,2.763,2.524,2.865,3.856C736.975,1368.177,729.856,1369.829,726.476,1370.487Z" transform="translate(-664.569 -1196.17)" fill="#606060"/>
        <path id="Trazado_67693" data-name="Trazado 67693" d="M804.171,830.737q-.376.673-.778,1.338-3.571,5.9-7.137,11.81c-.926,1.529-3.671,4.646-5.35,7.377-.069.112-.132.223-.2.329a6.143,6.143,0,0,0-1.144,3.368c-.1-.889-.2-1.779-.309-2.663-.031-.222-.053-.44-.082-.657-1.6-13.224-3.647-26.212-3.562-39.32.027-4.194.269-8.514,2.431-11.95a10.266,10.266,0,0,1,11.4-4.38,10.462,10.462,0,0,1,1.532.578,10.816,10.816,0,0,1,1.109.6c4.261,2.636,6.475,8.013,6.878,12.618A35.536,35.536,0,0,1,804.171,830.737Z" transform="translate(-730.549 -795.595)" fill="#606060"/>
        <path id="Trazado_67694" data-name="Trazado 67694" d="M726.324,921.082a12.5,12.5,0,0,0-.267-2.543l-.05-.257a20.627,20.627,0,0,0-.683-2.351c-2.6-7.4-9.7-16.255-14.387-22.668-5.814-7.949-8.521-13.186-10.92-21.416-.8-2.737-1.441-5.616-.192-7.685.859-1.42,2.938-2.237,5.193-1.99a7.478,7.478,0,0,1,1.214.235,7.8,7.8,0,0,1,1.885.813c2.4,1.444,3.544,3.76,4.432,5.831,6.348,14.8,12.3,30.532,13.557,44.93.066.723.116,1.44.157,2.156.011.169.017.338.024.5Q726.392,918.891,726.324,921.082Z" transform="translate(-669.06 -842.897)" fill="#606060"/>
        <path id="Trazado_67695" data-name="Trazado 67695" d="M689.552,990.154c.081.415.161.832.234,1.245-.07-.354-.162-.712-.266-1.074a.784.784,0,0,0-.024-.08,24.4,24.4,0,0,0-2.731-5.787c-4.3-6.945-11.965-14.482-17.271-20.108-7.112-7.537-10.754-12.654-14.763-20.946-1.334-2.759-2.547-5.685-1.84-8.017a4,4,0,0,1,2.77-2.525,5.255,5.255,0,0,1,1.059-.221,6.825,6.825,0,0,1,3.656.642c2.54,1.187,4.1,3.456,5.375,5.506,9.479,15.268,18.774,31.652,22.82,47.118q.548,2.086.962,4.15C689.54,990.086,689.546,990.12,689.552,990.154Z" transform="translate(-636.043 -892.999)" fill="#606060"/>
        <path id="Trazado_67696" data-name="Trazado 67696" d="M781.075,1136.174c-.011-.052-.019-.1-.027-.147A1.443,1.443,0,0,1,781.075,1136.174Z" transform="translate(-727.306 -1037.628)" fill="#606060"/>
        <path id="Trazado_67697" data-name="Trazado 67697" d="M672.622,1076.689a15.134,15.134,0,0,0-.742-2.474c-3.105-8.019-13.084-17.72-19.551-24.576-7.112-7.537-10.754-12.654-14.766-20.948-1.33-2.757-2.547-5.685-1.836-8.015a4.049,4.049,0,0,1,2.9-2.571,5.533,5.533,0,0,1,.853-.173,6.837,6.837,0,0,1,3.725.638c2.544,1.189,4.1,3.458,5.375,5.506,8.853,14.262,17.549,29.5,21.955,44.047.565,1.871,1.061,3.727,1.476,5.568.056.245.107.474.153.7C672.334,1075.158,672.486,1075.926,672.622,1076.689Z" transform="translate(-623.839 -953.634)" fill="#606060"/>
        <path id="Trazado_67698" data-name="Trazado 67698" d="M673.234,1188.023a11.961,11.961,0,0,0-.738-2.3c0-.011-.011-.024-.015-.036-2.525-5.888-9.709-12.883-14.411-17.867-5.316-5.635-8.04-9.459-11.038-15.661-.995-2.058-1.906-4.246-1.372-5.989a3.091,3.091,0,0,1,2.4-1.982,4.452,4.452,0,0,1,1.058-.1,5.237,5.237,0,0,1,2.13.51,9.956,9.956,0,0,1,4.019,4.114c6.735,10.849,13.349,22.452,16.587,33.5q.438,1.5.786,2.977a.087.087,0,0,1,.01.045c.024.08.041.157.056.235Q673.01,1186.756,673.234,1188.023Z" transform="translate(-630.938 -1043.357)" fill="#606060"/>
        <path id="Trazado_67699" data-name="Trazado 67699" d="M649.913,1252.663c-.038-.171-.081-.344-.122-.516a12.709,12.709,0,0,0-.521-1.531c-.007-.022-.018-.046-.027-.066a26.59,26.59,0,0,0-3.2-5.408c-3.29-4.485-7.926-9.079-11.29-12.648-5.316-5.635-8.04-9.459-11.034-15.659-1-2.06-1.906-4.246-1.376-5.991a3.382,3.382,0,0,1,3.426-2.081,5.036,5.036,0,0,1,1.16.148,5.673,5.673,0,0,1,1.01.361,9.956,9.956,0,0,1,4.017,4.117c7.313,11.775,14.483,24.445,17.334,36.329.038.146.074.294.1.436a.354.354,0,0,1,.018.083c.153.64.285,1.274.4,1.908C649.852,1252.318,649.884,1252.491,649.913,1252.663Z" transform="translate(-614.363 -1089.34)" fill="#606060"/>
        <path id="Trazado_67700" data-name="Trazado 67700" d="M621.424,1333.268c2.411,2.556,5.635,5.771,8.181,8.993h2.069c-.384-1.109-.8-2.221-1.25-3.337a144.366,144.366,0,0,0-11.251-21.022,14.187,14.187,0,0,0-1.088-1.566,6.165,6.165,0,0,0-1.987-1.666c-.052-.027-.1-.053-.154-.078-2.036-.952-4.074-.138-4.5,1.265s.3,3.161,1.1,4.819A44.626,44.626,0,0,0,621.424,1333.268Z" transform="translate(-606.635 -1164.286)" fill="#606060"/>
        <path id="Trazado_67701" data-name="Trazado 67701" d="M597.9,1410.459c-.022-.011-.043-.024-.066-.035a3.388,3.388,0,0,0-1.064-.3,2.661,2.661,0,0,0-1.656.338Z" transform="translate(-595.116 -1232.485)" fill="#606060"/>
      </g>
      <g id="Grupo_26270" data-name="Grupo 26270" transform="translate(9.463 0.972)">
        <g id="Grupo_26257" data-name="Grupo 26257" transform="translate(18.824 54.406)">
          <path id="Trazado_67702" data-name="Trazado 67702" d="M694.8,1109.782c15.6-37.586,28.067-79.858,30.106-121.738.016-.317-.325-.68-.758-.811s-.8.019-.814.336c-2.047,42.053-14.643,84.514-30.352,122.213Z" transform="translate(-692.98 -987.186)" fill="#606060"/>
        </g>
        <g id="Grupo_26258" data-name="Grupo 26258" transform="translate(49.173)">
          <path id="Trazado_67703" data-name="Trazado 67703" d="M798.211,853.626l-.01-.2c-.009-.128-.018-.255-.025-.385a104.563,104.563,0,0,1,2.916-32.1,83.546,83.546,0,0,1,8.676-21.988,10.816,10.816,0,0,1,1.109.6,82.889,82.889,0,0,0-8.733,22.268,104.7,104.7,0,0,0-2.807,31.25c.009.235.027.472.04.709l.013.219C799.425,854.574,798.246,854.191,798.211,853.626Z" transform="translate(-797.981 -798.958)" fill="#606060"/>
        </g>
        <g id="Grupo_26259" data-name="Grupo 26259" transform="translate(46.907 56.612)">
          <path id="Trazado_67704" data-name="Trazado 67704" d="M834.208,995.492c-1.276.488-2.538.992-3.805,1.481-4.9,1.888-9.763,3.811-14.427,5.945a87.066,87.066,0,0,0-23.29,15.151q-.573.532-1.13,1.078a.991.991,0,0,0-.078.075c-.095.088-.184.177-.274.267-.382.382-1.36-.383-.976-.758q.747-.739,1.522-1.458l.082-.074c.158-.147.318-.3.48-.441a88.488,88.488,0,0,1,22.893-14.716c4.839-2.214,9.9-4.2,14.977-6.158.921-.356,1.839-.716,2.768-1.067A11.943,11.943,0,0,1,834.208,995.492Z" transform="translate(-790.14 -994.819)" fill="#606060"/>
        </g>
        <g id="Grupo_26260" data-name="Grupo 26260" transform="translate(43.11 87.497)">
          <path id="Trazado_67705" data-name="Trazado 67705" d="M825.132,1102.339c-5.444,1.185-10.531,2.985-15.77,4.213a96.721,96.721,0,0,0-15.695,4.91c-5.244,2.224-10.454,4.481-15.68,6.724a.067.067,0,0,0-.024.009.764.764,0,0,1-.828-.3c-.169-.212-.2-.466.056-.576.351-.15.7-.3,1.048-.452a.153.153,0,0,0,.036-.015c.151-.061.3-.127.448-.191,4.9-2.106,9.777-4.227,14.705-6.3a104.818,104.818,0,0,1,16.357-4.966c4.652-1.1,9.158-2.619,13.909-3.727.206.078.409.164.612.256C824.588,1102.052,824.862,1102.191,825.132,1102.339Z" transform="translate(-777.003 -1101.67)" fill="#606060"/>
        </g>
        <g id="Grupo_26261" data-name="Grupo 26261" transform="translate(35.072 118.052)">
          <path id="Trazado_67706" data-name="Trazado 67706" d="M797.963,1208.27a80.008,80.008,0,0,0-16,3.061c-5.6,1.515-11.2,3.043-16.582,4.823-2.642.873-5.233,1.806-7.743,2.825a37,37,0,0,0-7.01,3.295c-.008.005-.014.008-.018.015-.079.051-.149.1-.221.157-.035.022-.068.047-.1.071a.564.564,0,0,1-.53.03.346.346,0,0,1-.071-.028c-.365-.165-.661-.552-.378-.764a13.9,13.9,0,0,1,1.8-1.124c.861-.458,1.773-.861,2.692-1.249.667-.281,1.34-.555,1.995-.83,2.572-1.085,5.24-2.07,7.962-2.989,5.46-1.837,11.144-3.4,16.843-4.947,5.165-1.4,10.307-2.82,16.134-3.234A10.953,10.953,0,0,1,797.963,1208.27Z" transform="translate(-749.195 -1207.381)" fill="#606060"/>
        </g>
        <g id="Grupo_26262" data-name="Grupo 26262" transform="translate(27.917 142.974)">
          <path id="Trazado_67707" data-name="Trazado 67707" d="M767.433,1294.518c-14.483,2.362-28.738,5.113-41.035,10.3-.162.065-.317.131-.468.2a.149.149,0,0,0-.055.023c-.161.062-.317.131-.472.2a.79.79,0,0,1-.9-.4.4.4,0,0,1-.06-.247.271.271,0,0,1,.183-.229c.073-.029.143-.063.215-.092.507-.221,1.021-.437,1.537-.648a.561.561,0,0,1,.054-.021c12.151-4.98,26.157-7.673,40.371-10A6.025,6.025,0,0,1,767.433,1294.518Z" transform="translate(-724.442 -1293.606)" fill="#606060"/>
        </g>
        <g id="Grupo_26263" data-name="Grupo 26263" transform="translate(19.081 162.927)">
          <path id="Trazado_67708" data-name="Trazado 67708" d="M734.607,1363.386c-5.962,1.283-11.73,2.883-17.412,4.465a107.808,107.808,0,0,0-21.487,8.2.574.574,0,0,0-.1.05,1.6,1.6,0,0,0-.16.087c-.222.114-.435.228-.649.346a.679.679,0,0,1-.809-.289.533.533,0,0,1-.079-.14.162.162,0,0,1-.023-.055.326.326,0,0,1-.019-.127.25.25,0,0,1,.087-.209.365.365,0,0,1,.071-.054l.028-.016c.435-.237.872-.471,1.317-.7.3-.157.6-.309.9-.46a.53.53,0,0,1,.1-.047,112.755,112.755,0,0,1,20.633-7.618c5.325-1.465,10.715-2.955,16.276-4.18A9.494,9.494,0,0,1,734.607,1363.386Z" transform="translate(-693.87 -1362.638)" fill="#606060"/>
        </g>
        <g id="Grupo_26264" data-name="Grupo 26264" transform="translate(0 149.41)">
          <path id="Trazado_67709" data-name="Trazado 67709" d="M642.611,1343.465h1.072c-.438-1.11-.943-2.223-1.5-3.337-2.076-4.151-4.829-8.326-7.073-12.456-1.828-3.366-3.486-6.757-5.266-10.133a6.165,6.165,0,0,0-1.987-1.666c2.051,3.782,3.88,7.589,5.91,11.366C636.634,1332.576,640.51,1338.075,642.611,1343.465Z" transform="translate(-627.856 -1315.873)" fill="#606060"/>
        </g>
        <g id="Grupo_26265" data-name="Grupo 26265" transform="translate(1.944 118.451)">
          <path id="Trazado_67710" data-name="Trazado 67710" d="M658.628,1252.145a.032.032,0,0,1-.025,0,.748.748,0,0,1-.658-.405l-.159-.339a.6.6,0,0,0-.029-.062q-1.451-3.1-2.9-6.2-2.3-4.923-4.614-9.853a83.056,83.056,0,0,0-3.9-7.553c-1.581-2.643-3.581-5.2-5.441-7.8a74.714,74.714,0,0,1-6.32-11.175,5.037,5.037,0,0,1,1.16.148,74.406,74.406,0,0,0,4.621,8.613c1.85,2.847,4.138,5.612,6,8.459a65.845,65.845,0,0,1,4.273,7.809c2.538,5.3,4.99,10.62,7.465,15.925.049.106.094.209.148.315a.341.341,0,0,0,.028.064l.724,1.552C659.154,1251.968,658.918,1252.145,658.628,1252.145Z" transform="translate(-634.583 -1208.764)" fill="#606060"/>
        </g>
        <g id="Grupo_26266" data-name="Grupo 26266" transform="translate(7.661 99.757)">
          <path id="Trazado_67711" data-name="Trazado 67711" d="M679.007,1185.473a.509.509,0,0,1-.113-.056.04.04,0,0,1-.022-.012.705.705,0,0,1-.274-.283q-7.406-13.995-15.941-27.89-4.027-6.539-8.3-13.043a4.452,4.452,0,0,1,1.058-.1q2.758,4.206,5.418,8.428,9.3,14.777,17.318,29.7.548,1.018,1.093,2.042c0,.009.009.02.014.029l.394.742C679.883,1185.456,679.413,1185.625,679.007,1185.473Z" transform="translate(-654.361 -1144.086)" fill="#606060"/>
        </g>
        <g id="Grupo_26267" data-name="Grupo 26267" transform="translate(5.328 63.325)">
          <path id="Trazado_67712" data-name="Trazado 67712" d="M679.828,1074.5a.663.663,0,0,1-.249-.322c-1.778-5.788-5.735-11.562-9.149-17.265-3.56-5.948-6.339-11.952-10.061-17.891-4.363-6.971-9.165-13.9-14.078-20.809a5.546,5.546,0,0,1,.853-.173q.992,1.408,1.977,2.813c4.35,6.194,8.781,12.387,12.671,18.657,3.8,6.127,6.625,12.33,10.393,18.453,2.087,3.39,4.267,6.829,6.013,10.269a44.453,44.453,0,0,1,1.855,4.128c.251.661.477,1.305.675,1.95C680.868,1074.769,680.219,1074.789,679.828,1074.5Z" transform="translate(-646.291 -1018.042)" fill="#606060"/>
        </g>
        <g id="Grupo_26268" data-name="Grupo 26268" transform="translate(26.494 18.303)">
          <path id="Trazado_67713" data-name="Trazado 67713" d="M740.821,921.266a.53.53,0,0,1-.267-.378c-.049-.358-.1-.711-.151-1.069-.01-.1-.024-.2-.038-.3-.163-1.161-.34-2.324-.542-3.484a44.351,44.351,0,0,0-2.96-10.28c-1.038-2.382-2.377-4.753-3.486-7.135-1.169-2.512-2.1-5.025-3.048-7.533q-3.057-8.119-6.1-16.238c-1.566-4.187-3.2-8.384-4.716-12.573a7.478,7.478,0,0,1,1.214.235c3.864,10.462,7.733,20.932,11.772,31.4,1.86,4.821,4.746,9.63,6.5,14.444a39.725,39.725,0,0,1,1.6,5.727c.091.432.177.865.253,1.3.018.1.039.2.052.307.323,1.789.558,3.563.8,5.338C741.768,921.448,741.182,921.493,740.821,921.266Z" transform="translate(-719.517 -862.28)" fill="#606060"/>
        </g>
        <g id="Grupo_26269" data-name="Grupo 26269" transform="translate(10.155 38.667)">
          <path id="Trazado_67714" data-name="Trazado 67714" d="M697.14,991.642a.577.577,0,0,1-.25-.356c-.035-.169-.073-.34-.112-.51-.007-.031-.016-.061-.023-.092a27.184,27.184,0,0,0-2.664-6.13c-.926-1.665-1.928-3.312-2.8-4.858-6.039-10.725-12.744-21.4-19.428-32.046-2.186-3.482-4.413-6.958-6.547-10.449-.862-1.407-1.633-2.825-2.331-4.244a5.255,5.255,0,0,1,1.059-.221,58.185,58.185,0,0,0,2.985,5.433c5.781,9.3,11.7,18.58,17.347,27.895,3.186,5.25,6.329,10.509,9.228,15.79.73,1.331,1.548,2.734,2.291,4.149.464.88.9,1.759,1.255,2.628a.722.722,0,0,1,.029.071,14.67,14.67,0,0,1,.864,2.729C698.131,991.866,697.511,991.9,697.14,991.642Z" transform="translate(-662.988 -932.735)" fill="#606060"/>
        </g>
      </g>
    </g>
    <g id="Grupo_26280" data-name="Grupo 26280" transform="translate(784.847 253.061)">
      <path id="Trazado_67715" data-name="Trazado 67715" d="M1762.837,871.558a19.251,19.251,0,0,1,4.841,2.4c3.459,2.734,2.547,8.252,2.557,12.1.014,5.914-.841,11.758-1.458,17.624q-1.711,16.258-3.357,32.522h55.226q-.329-17.547-.659-35.095c-.4-21.1-1.328-42.366-1.891-63.634-.743-28.012-.848-56.019,1.75-83.61.227-2.407.422-4.978-.728-7.1-1.4-2.588-4.557-3.859-7.5-3.714a17.625,17.625,0,0,0-8.191,3.018,46.162,46.162,0,0,0-20.078,26.88c-2.142,7.884-2.39,16.074-3.21,24.157-.4,3.933-1.467,7.828-1.829,11.733-.355,3.832.257,7.583-.547,11.42a15.976,15.976,0,0,1-5.654,9.684c-3.661,2.72-8.4,2.3-12.011,4.607-3.912,2.5-6.361,7.828-7.678,12.076a25.886,25.886,0,0,0-1.137,11.487C1752.334,864.978,1756.683,869.056,1762.837,871.558Z" transform="translate(-1751.056 -652.432)" fill="#fff"/>
      <path id="Trazado_67716" data-name="Trazado 67716" d="M1933.737,1286.1c-1.269-13.882-2.792-30.518-10.241-41.167-12.024-17.192-29.739-9.775-37.4,7.755-4.539,10.386-4.741,22.07-4.809,33.412Z" transform="translate(-1843.645 -1002.334)" fill="#dd8b72"/>
      <path id="Trazado_67717" data-name="Trazado 67717" d="M1854.926,543.861c14.069-.838,19.786-9.257,19.951-25.475.066-6.483-.105-13.07-2.037-19.259-2.072-6.638-7.132-10.85-10.248-16.682-3.537-6.621-4-14.894-13.067-16.079-5.2-.68-20.589,2.713-20.514,9.231.018,1.527.723,3,.654,4.522-.183,4.084-5.2,5.8-8,8.777-4.556,4.849.252,10.388-.7,15.82-.5,2.826-2.832,4.256-3.528,6.913-1.1,4.205.16,8.753-1,13.01-3.818,14.017-.13,13.68,12.787,20.053,2.192,1.081,4.611,2.192,7,1.63,2.421-.573,4.224-3.44,6.481-3.831,3.165-.549,3.045,1.06,5.805,1.276A46.931,46.931,0,0,0,1854.926,543.861Z" transform="translate(-1796.526 -455.674)" fill="#272c4d"/>
      <path id="Trazado_67718" data-name="Trazado 67718" d="M1871.6,459.331a11.567,11.567,0,0,0,.759,1.807c4.225,8.078,14.048,8.716,22.161,7.2,1.658-.314,3.3-.7,4.971-.961,1.45-.231,3.086-.6,4.49-.088a14.792,14.792,0,0,1,6.731,5.042c5.794,7.8,2.165,22.675,5.289,31.806,1.51,4.412,4.447,8.548,8.711,10.435s9.906.957,12.59-2.855c4.134-5.87,14.954-7.509,19.5-14.927,4.646-7.587,2.432-13.459-4.843-18.55-2.36-1.651-4.791-3.612-5.533-6.4-.758-2.839.428-5.78,1.034-8.656s.309-6.472-2.258-7.9-6.017.14-8.656-1.173c-4.821-2.4-2-10.885-6.161-14.3-2.793-2.291-6.971-.921-10.517-1.613-3.461-.676-6.152-3.3-9.135-5.177a23.821,23.821,0,0,0-26.583,1.284C1877.443,439.507,1868.706,450.349,1871.6,459.331Z" transform="translate(-1836.354 -429.583)" fill="#272c4d"/>
      <path id="Trazado_67719" data-name="Trazado 67719" d="M1917.317,647.779c-1.9,22.507-22.276,28.276-34.135,45.373-6.638,9.569-15.58,19.5-27.033,19.315-23.05-.362-27.933-31.56-20.665-48.153,2.01-4.588,5.027-8.65,8.017-12.668,7.742-10.4,19.322-21.685,24.133-33.815a17.873,17.873,0,0,0,.9-3.059,28,28,0,0,0,.3-8.105c-.636-7.029-3.075-14.636-4.334-21.557a42.57,42.57,0,0,1-.753-6.707c-.005-.253,0-.506,0-.759a23.721,23.721,0,0,1,2.746-10.065c1.308-2.522,3.309-5.452,6.163-6.215,3.094-.827,5.884,1.867,7.1,4.562.847,1.872,2.444,2.962,3.67,4.571a17.781,17.781,0,0,1,2.175,3.727,10.066,10.066,0,0,1,.921,3.826,92.486,92.486,0,0,0,.871,9.729,53,53,0,0,0,3.1,10.756c2.753,6.923,6.97,13.356,12.768,17.877,4.844,3.776,8.373,4.262,11.111,9.645,2.961,5.821,3.391,14.391,3.007,20.77Q1917.357,647.308,1917.317,647.779Z" transform="translate(-1808.866 -523.167)" fill="#f29c7d"/>
      <path id="Trazado_67720" data-name="Trazado 67720" d="M1918.551,586.122c-3.1,4.274-11.019,12.868-16.871,11.851a12.079,12.079,0,0,1-5.465-2.492c-5.561-4.461-8-12.37-9.544-19.131-.021-.091-.042-.184-.062-.275q-.561-2.488-.937-4.965-.362-2.365-.568-4.726-.2-2.306-.268-4.611c-.032-1.1.73-9.342.175-9.854a15.047,15.047,0,0,0,8.213,3.852c4.2.54,8.377-.746,12.532-1.538s8.759-1.007,12.306,1.38c2.926,1.969,4.641,5.442,5.3,8.969A27.008,27.008,0,0,1,1918.551,586.122Z" transform="translate(-1846.167 -516.558)" fill="#f29c7d"/>
      <path id="Trazado_67721" data-name="Trazado 67721" d="M1983.926,602.317c-2.66-2.069-5.721,2.082-5.957,5.445-.519,7.418,10.513,1.972,7.238-3.86A5.192,5.192,0,0,0,1983.926,602.317Z" transform="translate(-1912.369 -551.996)" fill="#f36d80"/>
      <path id="Trazado_67722" data-name="Trazado 67722" d="M1890.151,608.166c-.519,2.136-1.659,2.868-2.88,2.722q-.56-2.488-.937-4.965-.363-2.365-.568-4.726a3.559,3.559,0,0,1,.372-.156C1889.288,599.951,1890.94,604.9,1890.151,608.166Z" transform="translate(-1846.829 -551.373)" fill="#f36d80"/>
      <path id="Trazado_67723" data-name="Trazado 67723" d="M1957.742,566.99a1.223,1.223,0,0,1,.713-1.343,2.879,2.879,0,0,1,1.739-.083,11.527,11.527,0,0,1,2.5.77,2.792,2.792,0,0,1,1.194.836c1.56,2.155-2.681,1.048-3.409.921-.712-.125-1.928-.052-2.473-.62A1.031,1.031,0,0,1,1957.742,566.99Z" transform="translate(-1897.982 -526.193)" fill="#272c4d"/>
      <path id="Trazado_67724" data-name="Trazado 67724" d="M1958.836,585.606a2.877,2.877,0,0,0,1.208,1.526,1.055,1.055,0,0,0,1.556-.368,2.83,2.83,0,0,0-.992-4.205c-.55-.241-.962.471-.639.917l.066.088a1.278,1.278,0,0,0-.935.137C1958.487,584.071,1958.632,585.015,1958.836,585.606Z" transform="translate(-1898.654 -538.308)" fill="#292954"/>
      <path id="Trazado_67725" data-name="Trazado 67725" d="M1898.141,587.5a.817.817,0,0,1,.086-.06,1.7,1.7,0,0,1,.943-.181.683.683,0,0,1,.371-.8c1.147-.461,1.783,1.791,1.734,2.552a2.713,2.713,0,0,1-.548,1.487,1.055,1.055,0,0,1-1.556.368,2.878,2.878,0,0,1-1.208-1.525C1897.77,588.788,1897.629,587.908,1898.141,587.5Z" transform="translate(-1855.376 -541.078)" fill="#292954"/>
      <g id="Grupo_26272" data-name="Grupo 26272" transform="translate(47.873 56.806)">
        <path id="Trazado_67726" data-name="Trazado 67726" d="M1917.759,626.118a.435.435,0,0,1,.279.058c.409.254-.239,1.109-.284,1.459a5.091,5.091,0,0,0,.28,2.063,2.051,2.051,0,0,0,3.04,1.4c.433-.2.93-.528,1.334-.275a.7.7,0,0,1,.285.684,1.318,1.318,0,0,1-.353.686,2.667,2.667,0,0,1-2.691.781c-3.06-.789-3.414-3.42-2.582-6.051a1.466,1.466,0,0,1,.323-.622A.638.638,0,0,1,1917.759,626.118Z" transform="translate(-1916.68 -626.115)" fill="#f36d80"/>
      </g>
      <g id="Grupo_26273" data-name="Grupo 26273" transform="translate(49.541 67.675)">
        <path id="Trazado_67727" data-name="Trazado 67727" d="M1922.667,665.028a6.7,6.7,0,0,0,5.185.832c.948-.216,3.116-.42,3.523-1.508.115-.308-.16-.712-.5-.621-.418.112-.785.38-1.194.533a16.2,16.2,0,0,1-1.8.517,5.874,5.874,0,0,1-4.667-.532c-.521-.29-1.074.473-.545.779Z" transform="translate(-1922.453 -663.718)" fill="#292954"/>
      </g>
      <path id="Trazado_67728" data-name="Trazado 67728" d="M1928.982,660.579a1.3,1.3,0,0,1,.771.193c.594.445.174,1.607-.144,2.059a6.137,6.137,0,0,1-6.744,2.391,7.557,7.557,0,0,1-4.118-2.8c-.688-1.086-.235-1.979,1.134-1.961l9.018.118Z" transform="translate(-1870.051 -593.727)" fill="#fff"/>
      <path id="Trazado_67729" data-name="Trazado 67729" d="M1800.659,884.5c.088,1.663.159,3.327.221,4.99a360.107,360.107,0,0,1-2.532,58.829q-.319,2.487-.678,4.974h80.895a30.882,30.882,0,0,0,5.324-5.534c7.024-9.459,7.822-22.01,8.351-33.78l-2.762-.741c1.769-4.257,3.86-8.823,3.86-13.284,1.708-9.233,1.99-18.807,2.188-28.1.009-.406.018-.816.026-1.222q.821-39,.953-77.958c.018-6.838,2.647-13.914-1.751-19.835-6.631-8.92-18.057-6.035-25.989-1.063-12.057,7.557-21.5,26.465-36.9,27.008a5.314,5.314,0,0,1-4.023-1.182c-1.257-1.275-1.2-3.317-.927-5.087a37.369,37.369,0,0,1,4.452-12.617c1.2-2.082,2.559-4.063,3.891-6.062.666-1,1.332-2.007,1.968-3.031.242-.384,1.187-2.577,1.548-2.66a6.632,6.632,0,0,0-3.163,2.263c-3.273,3.578-6.083,7.548-9.119,11.272-3.141,3.856-5.179,8.717-7.958,12.838-5.894,8.731-12.71,16.786-19.16,25.1a25.7,25.7,0,0,0-4.363,7.182,17.255,17.255,0,0,0-.714,2.951c-1.156,7.579,2.192,16.336,3.278,23.682Q1799.865,868.879,1800.659,884.5Z" transform="translate(-1781.628 -669.525)" fill="#ed6b4e"/>
      <path id="Trazado_67730" data-name="Trazado 67730" d="M2014.181,1286.1c-1.269-13.882-2.792-30.518-10.241-41.167-12.025-17.192-29.738-9.775-37.4,7.755-4.539,10.386-4.742,22.07-4.809,33.412Z" transform="translate(-1900.838 -1002.334)" fill="#f29c7d"/>
      <path id="Trazado_67731" data-name="Trazado 67731" d="M1930.893,1378.333c-2.153-7.856-6.7-13.937-16.6-13.381l-51.045,2.869q-12.764.717-25.528,1.434c-3.638.2-6.85.735-10.521.541l-12.581-.669a1.513,1.513,0,0,0-2.042,1.641q-.222,3.785-.429,7.565Z" transform="translate(-1794.493 -1094.565)" fill="#2684a5"/>
      <path id="Trazado_67732" data-name="Trazado 67732" d="M1800.659,1010.2c.088,1.663.159,3.327.221,4.99a360.105,360.105,0,0,1-2.532,58.829c.322,1.019.671,2.007,1.068,2.947a4.673,4.673,0,0,0,1.654,2.027h101.758c6.229-3.205,10.225-8.525,9.115-17.6-.044-.362-.093-.728-.141-1.09a123.629,123.629,0,0,0-4.13-17.174c-4.473-15.339-8.682-30.317-12.145-45.581-1.654-7.292-3.146-14.655-4.412-22.146-1.081-7.835-2.435-15.405-3.542-23.315-.366-2.6-.882-5.47-2.969-7.063-2.589-1.985-6.318-1.054-9.331.2-8.3,3.45-15.723,8.656-23.519,13.133-6.472,3.719-13.4,7.01-20.84,8.166-11.007,1.712-21.564-1.857-31.2-6.816a19.972,19.972,0,0,1-5.413-4.257c-1.156,7.579,2.192,16.336,3.278,23.682Q1799.865,994.576,1800.659,1010.2Z" transform="translate(-1781.628 -795.222)" fill="#d6503b"/>
      <path id="Trazado_67733" data-name="Trazado 67733" d="M1908.816,936.8c.067,1.789.146,3.577.218,5.365H2008a81.681,81.681,0,0,0-5.013-21.013,98.017,98.017,0,0,0-4.606-9.675c-3.825-7.169-8.126-14.1-10.945-21.754a83.381,83.381,0,0,1-4.262-18.118c-1.588-12.348-1.094-25.53.282-37.627.362-3.185.781-6.291,1.244-9.291,1.712-11.122,9.454-20.492,7.756-31.711-2.356-15.582-12.225-34.609-27.639-40.508-2.413-.922-5.175-1.557-7.531-.49a10.76,10.76,0,0,0-3.384,2.792c-9.194,10.12-17.386,21.692-24.838,33.144-5.4,8.3-11.329,15.877-14.779,25.331-4.288,11.74-3.627,23.324-4.57,35.536-1.134,14.735-1.628,29.514-1.707,44.293q-.027,5.155.018,10.314C1908.106,914.528,1908.4,925.667,1908.816,936.8Z" transform="translate(-1862.635 -658.396)" fill="#fff"/>
      <path id="Trazado_67734" data-name="Trazado 67734" d="M1895.587,568.607c.362.021.8,0,.983-.309a.868.868,0,0,0-.171-.9,5.059,5.059,0,0,0-5.056-1.428,2.289,2.289,0,0,0-1.471,1.492.959.959,0,0,0,.085.786c.276.395,2.005.145,2.507.175Z" transform="translate(-1849.716 -526.406)" fill="#272c4d"/>
      <g id="Grupo_26275" data-name="Grupo 26275" transform="translate(33.564 95.848)">
        <path id="Trazado_67735" data-name="Trazado 67735" d="M1870.558,862.017a3.646,3.646,0,0,1,3.553-1.017,2.885,2.885,0,0,1,1.792,1.687c1.346,3.257-.9,7.849-3.6,9.775a4.278,4.278,0,0,1-1.936.846c-3.54.419-3.495-4.025-2.865-6.313A10.572,10.572,0,0,1,1870.558,862.017Z" transform="translate(-1867.178 -832.055)" fill="#fac6ba"/>
        <g id="Grupo_26274" data-name="Grupo 26274" transform="translate(3.466)">
          <path id="Trazado_67736" data-name="Trazado 67736" d="M1899.706,761.371c-1.763,1.458-3.329,3.081-4.955,4.683a47.162,47.162,0,0,0-4.934,5.612c-5.108,6.947-9.117,14.824-10.631,23.368a.807.807,0,0,0,1.585.3,56.445,56.445,0,0,1,10.082-22.749,54.252,54.252,0,0,1,3.795-4.694c1.068-1.175,2.405-2.964,3.981-3.471a1.09,1.09,0,0,0,.477-.221.869.869,0,0,0,.171-.328c.292-.8.611-1.6.944-2.383a.3.3,0,0,0,.034-.195c-.054-.186-.335-.1-.484.025Z" transform="translate(-1879.17 -761.187)" fill="#0a2369"/>
        </g>
      </g>
      <g id="Grupo_26278" data-name="Grupo 26278" transform="translate(41.382 87.655)">
        <g id="Grupo_26276" data-name="Grupo 26276" transform="translate(32.609)">
          <path id="Trazado_67737" data-name="Trazado 67737" d="M2022.4,732.844a.351.351,0,0,0-.251.129.662.662,0,0,0-.1.407,39.1,39.1,0,0,1-1.06,8.4c-2.321,9.657-7.349,18.385-13.682,25.964-.9,1.079.688,2.588,1.593,1.5a65.566,65.566,0,0,0,14.692-32.7c.159-1.213.538-2.763-.7-3.561A.835.835,0,0,0,2022.4,732.844Z" transform="translate(-2007.043 -732.842)" fill="#0a2369"/>
        </g>
        <g id="Grupo_26277" data-name="Grupo 26277" transform="translate(0 33.456)">
          <path id="Trazado_67738" data-name="Trazado 67738" d="M1902.364,886.169c5.049,6.224,12.46,4.092,16.909-1.72,2.993-3.91,5.26-8.8,7.2-13.31a53.5,53.5,0,0,0,3.771-12.272c.511-3.132.316-6.787-2.208-9.066-2.2-1.986-5.285-1.173-7.711-.091-8.345,3.722-15.139,10.055-21.013,16.93-2.748,3.216-9.045,14.21-1.534,16.18.8.211,1.315-1.076.517-1.4-3.628-1.475-2.464-5.864-1.14-8.705,1.8-3.862,5.26-6.782,8.209-9.757a50.583,50.583,0,0,1,10.9-8.637c2.472-1.409,6.481-4.527,9.451-3.388,3.988,1.529,2.34,7.848,1.537,10.827a64.218,64.218,0,0,1-4.933,12.713c-2.071,4.042-3.917,8.607-7.657,11.421-3.679,2.768-7.739,2.565-10.829-.925-.713-.8-2.159.357-1.474,1.2Z" transform="translate(-1894.224 -848.59)" fill="#0a2369"/>
        </g>
        <path id="Trazado_67739" data-name="Trazado 67739" d="M1902.932,962.934a2.473,2.473,0,1,1,2.191-3.68,2.605,2.605,0,0,1-2.191,3.68Z" transform="translate(-1898.721 -892.994)" fill="#fac6ba"/>
        <path id="Trazado_67740" data-name="Trazado 67740" d="M1921.044,975.32a2.473,2.473,0,1,1,2.191-3.68,2.605,2.605,0,0,1-2.191,3.68Z" transform="translate(-1911.598 -901.8)" fill="#fac6ba"/>
      </g>
      <path id="Trazado_67741" data-name="Trazado 67741" d="M1984.12,996.4c-.265-2.607-.349-5.519-.6-8.444-.507-5.978-1.689-12.009-6.5-15.639a21.378,21.378,0,0,0-7.989-3.45,24.811,24.811,0,0,0-8.536-.754c-.1.012-.2.029-.3.042-3.584,2.66-7.217,5.258-10.764,7.958l-.184.139c-.094.08-.187.16-.279.233q-1.332,1.061-2.634,2.158c-1.536,1.3-3.037,2.642-4.475,4.049-1.33,1.3-2.551,2.683-3.783,4.071q-.83,1.635-1.515,3.367c-6.339,16.058-8.069,33.859-15.877,49.428a63.8,63.8,0,0,1-6.459,10.345c-1.963,2.55-4.12,4.95-6.132,7.465q.064,8.943.3,17.886,3.808-.379,7.606-.854a169.652,169.652,0,0,0,17.8-3.459c3.131-.8,6.234-1.709,9.294-2.747q2.47-.838,4.9-1.79l.223-.089c.641-.3,1.32-.553,1.96-.845q2.237-1.024,4.419-2.163c.725-.512,1.443-1.033,2.161-1.554.377-.3.756-.6,1.129-.912a108.025,108.025,0,0,0,10.352-9.781q2.555-2.744,4.935-5.645c.651-.792,3.016-4.061.83-.988.641-.9,1.332-1.77,1.979-2.668q.934-1.293,1.794-2.616a90.149,90.149,0,0,0,5.467-13.56,77.316,77.316,0,0,0,2-7.826C1986.617,1010.933,1984.826,1003.345,1984.12,996.4Z" transform="translate(-1862.704 -812.376)" fill="#d2f3f9"/>
      <g id="Grupo_26279" data-name="Grupo 26279" transform="translate(11.271 114.764)">
        <path id="Trazado_67742" data-name="Trazado 67742" d="M1913.324,857.418a93.424,93.424,0,0,0-5.924-19.372c-1.31-3.046-2.837-6.1-5.281-8.338-13.175-12.074-16.948,14.766-19.24,22.432-5.844,19.536-11.415,47.128-26.514,62.048-7.073,6.988-18.877,7.4-28.181,7.352-20.915-.115-48.937,13.831-33.857,38.98,4.58,7.638,16.069,6.043,23.569,5.767a150.465,150.465,0,0,0,27.454-3.434c17.762-3.992,35.572-11.944,47.064-26.577,11.165-14.217,18.914-28.862,21.579-46.745A96.034,96.034,0,0,0,1913.324,857.418Z" transform="translate(-1790.049 -826.632)" fill="#fff"/>
      </g>
    </g>
    <g id="Grupo_26285" data-name="Grupo 26285" transform="translate(519.052 253.634)">
      <path id="Trazado_67743" data-name="Trazado 67743" d="M874.817,777.839h76.672c2.922-4.411,4.164-10.124,5.175-16.182,5.892-35.3,3.5-71.645-3.889-106.659q-.359-1.7-.734-3.406c-3.682-16.764-8.276-33.363-10.386-50.391-1.5-12.125-1.7-24.546.6-36.586,2.192-11.5,8.273-20.029,1.133-31.1-6.4-9.917-18.133-14.126-29.586-13.071a26.075,26.075,0,0,0-7.234.89,31.549,31.549,0,0,0-3.544,1.2l-.02.456c-9.57,3.712-17.606,11.12-20.3,21.465-.425,1.635-.879,3.261-1.346,4.884a38.24,38.24,0,0,1-3.5,10.957,198.361,198.361,0,0,1-18,37.813c-19.87,32.38-30.539,67.4-28,105.846C833.79,733.193,850.016,762.33,874.817,777.839Z" transform="translate(-831.486 -494.644)" fill="#272c4d"/>
      <path id="Trazado_67744" data-name="Trazado 67744" d="M1024.982,622.505a67.533,67.533,0,0,1,4.1-8.827c5.463-10.121,12.246-21.624,8.2-33.473-3.175-9.3-16.585-14.386-22.188-5.287q-7.1,11.529-13.032,23.724a105.027,105.027,0,0,1-11.917,18.534c-4.509,5.791-8.673,12.43-8.875,19.994-.169,6.327,2.533,12.474,6.411,17.477,3.659,4.72,8.288,8.18,12.827,11.969,4.05,3.382,7.133,7.942,11.1,11.555,5.248,4.779,11.91,8.487,19,9.5,12.816,1.824,25.9-6.258,17.086-20.093-5.418-8.51-14.624-13.1-21.012-20.72-3.171-3.783-3.984-10.684-3.686-15.461A31.707,31.707,0,0,1,1024.982,622.505Z" transform="translate(-937.973 -530.086)" fill="#f29c7d"/>
      <path id="Trazado_67745" data-name="Trazado 67745" d="M955.807,858.851c2.484,5.59,5.431,10.875,8.224,16.455,1.31,2.62,2.585,5.3,3.763,8.113,6.644,15.86,3.626,36-2.166,51.938-4.337,11.933-11.034,22.883-15.577,34.737-1.218,3.175-2.268,6.388-3.175,9.63h110.433c-7.284-28.408-14.367-57.242-11.345-86.75,1.5-14.638,8.766-25.808-.141-39.859-6.785-10.7-15.595-19.275-25.8-26.818-4.972-3.671-11.448-5.982-15.608-10.738,4.3,4.95,17.5,16.257,12.754,22.843-4.65,6.459-17.329,1.791-21.86-2.334-4.6-4.186-9.891-7.91-13.83-12.6-3.565-4.244-6.675-8.805-10.6-12.754-6.247-6.278-14.752-10.919-18.061.565a69.991,69.991,0,0,0-2.669,27.776A66.055,66.055,0,0,0,955.807,858.851Z" transform="translate(-913.523 -696.53)" fill="#fac6ba"/>
      <path id="Trazado_67746" data-name="Trazado 67746" d="M1021.827,461.844c-3.915-14.641-16.593-25.611-33.7-29.254-12.851-2.737-27.359-.04-36.792,8.6-4.321,3.956-7.987,8-10.054,13.528-4.556,12.189-1.579,25.354-3.324,38-1.155,8.372-3.773,16.467-6.569,24.442-.8,2.285-1.683,4.935-3.618,6.524-2.143,1.761-4.187,3.08-5.956,5.414-6.275,8.276-10.515,18.679-9.244,28.931,1.326,10.687,4.835,21.541,12.349,29.07a1.919,1.919,0,0,0,1.259.719c1.013-.005,1.342-1.4,1.306-2.433-.164-4.791-1.819-8.857-1.746-13.608a70.227,70.227,0,0,1,2.5-15.37c1.256-5.064,3.049-10.22,6.705-13.86a10.6,10.6,0,0,1,1.924-1.565,42.543,42.543,0,0,1,6.113,2.645,22.333,22.333,0,0,1,6.737,10.163c2.888,7.985,4.283,19.811,4.346,28.328,1.83-.048,2.846-2.09,3.427-3.826,7.336-21.929-4.745-44.74,1.051-66.771,2.428-9.229,5.562-16.47,5.451-26.1a2.573,2.573,0,0,1,.624-2.1,2.932,2.932,0,0,1,1.3-.5c2.084-.444,4.88-2.137,6.789-2.2,2.028-.069,4.118,1.788,6.106,2.2a29.148,29.148,0,0,0,8.913.116c9.724-1.3,19.435-3.722,29.122-3.062,1.488.1,3.121.166,4.317-.672,1.364-.956,1.668-2.731,1.8-4.324A38.4,38.4,0,0,0,1021.827,461.844Z" transform="translate(-888.977 -431.565)" fill="#272c4d"/>
      <path id="Trazado_67747" data-name="Trazado 67747" d="M1081.061,580.5a4.053,4.053,0,0,0-.325-.249c-1.737-1.2-3.891-2.167-5.854-.738-2.631,1.916-2.7,7.081-2.4,9.949a8.869,8.869,0,0,0,1.976,4.983,3.161,3.161,0,0,0,1.408,1c.821.246,3.12.335,3.814-.2a3.354,3.354,0,0,0,.964-1.727c.781-2.455,1.969-4.889,1.953-7.515C1082.58,583.848,1082.595,581.8,1081.061,580.5Z" transform="translate(-1002.736 -536.243)" fill="#f29c7d"/>
      <g id="Grupo_26281" data-name="Grupo 26281" transform="translate(91.277 55.12)">
        <path id="Trazado_67748" data-name="Trazado 67748" d="M1150.986,622.436a5.881,5.881,0,0,1,6.56,3.131c1.99,4.094-1.065,7.34-5.325,6.723a5.788,5.788,0,0,1-4.763-3.731A5.116,5.116,0,0,1,1150.986,622.436Z" transform="translate(-1147.276 -622.264)" fill="#f36d80"/>
      </g>
      <path id="Trazado_67749" data-name="Trazado 67749" d="M1201.28,608.738a2.2,2.2,0,0,0-.63-.7.656.656,0,0,0-.853.108.893.893,0,0,0-.022.75,7.269,7.269,0,0,0,5.739,5.036c.578.089,1.965.072,1.973-.818.006-.655-1.41-.775-1.874-.96A9.657,9.657,0,0,1,1201.28,608.738Z" transform="translate(-1093.273 -556.958)" fill="#272c4d"/>
      <g id="Grupo_26284" data-name="Grupo 26284" transform="translate(77.794 23.242)">
        <path id="Trazado_67750" data-name="Trazado 67750" d="M1103.216,558.157c2.259,5.01,8.542,15.449,14.83,15.7a13.034,13.034,0,0,0,6.218-1.332c6.757-3.305,11.045-10.79,14.158-17.3.042-.088.085-.177.125-.265q1.136-2.4,2.08-4.827.9-2.317,1.644-4.666.724-2.293,1.307-4.614c.278-1.106,1.33-9.627,2.019-10.024a16.231,16.231,0,0,1-9.368,2.11A41.672,41.672,0,0,1,1119.267,527a2.079,2.079,0,0,1-.749-.743,2.192,2.192,0,0,1,.063-1.535,42.775,42.775,0,0,0,1.6-12.749c-4.348,8.748-13.4,14.584-17.147,23.3A27.446,27.446,0,0,0,1103.216,558.157Z" transform="translate(-1100.628 -511.974)" fill="#f29c7d"/>
        <path id="Trazado_67751" data-name="Trazado 67751" d="M1120.255,604.21c3.217-1.516,5.462,3.36,4.955,6.82-1.119,7.631-11.33-.3-6.636-5.493A5.486,5.486,0,0,1,1120.255,604.21Z" transform="translate(-1112.515 -577.347)" fill="#f36d80"/>
        <path id="Trazado_67752" data-name="Trazado 67752" d="M1223.6,632.356c.061,2.279,1.078,3.269,2.375,3.388q1.136-2.4,2.08-4.827.9-2.317,1.644-4.666a3.892,3.892,0,0,0-.351-.24C1226.325,624.218,1223.509,628.868,1223.6,632.356Z" transform="translate(-1188.052 -592.767)" fill="#f36d80"/>
        <path id="Trazado_67753" data-name="Trazado 67753" d="M1159.955,575.544a1.252,1.252,0,0,0-.438-1.517,3.1,3.1,0,0,0-1.783-.464,12.469,12.469,0,0,0-2.764.234,2.994,2.994,0,0,0-1.424.586c-2.1,1.844,2.544,1.648,3.325,1.678.765.029,2.01.369,2.7-.088A1.075,1.075,0,0,0,1159.955,575.544Z" transform="translate(-1137.867 -555.758)" fill="#272c4d"/>
        <path id="Trazado_67754" data-name="Trazado 67754" d="M1162.169,594.325a3.036,3.036,0,0,1-1.592,1.282,1.124,1.124,0,0,1-1.53-.713,2.758,2.758,0,0,1-.236-1.627,2.844,2.844,0,0,1,2.2-2.418.6.6,0,0,1,.458,1.069l-.088.075a1.372,1.372,0,0,1,.938.343C1162.873,592.846,1162.512,593.771,1162.169,594.325Z" transform="translate(-1141.97 -568.042)" fill="#292954"/>
        <path id="Trazado_67755" data-name="Trazado 67755" d="M1224.7,609.32a.9.9,0,0,0-.076-.079,1.817,1.817,0,0,0-.936-.389.7.7,0,0,0-.207-.887c-1.085-.718-2.246,1.425-2.366,2.207a2.762,2.762,0,0,0,.236,1.627,1.124,1.124,0,0,0,1.53.713,3.036,3.036,0,0,0,1.592-1.282C1224.8,610.7,1225.144,609.841,1224.7,609.32Z" transform="translate(-1186.268 -580.116)" fill="#292954"/>
        <g id="Grupo_26282" data-name="Grupo 26282" transform="translate(23.393 38.349)">
          <path id="Trazado_67756" data-name="Trazado 67756" d="M1187.877,644.677a.467.467,0,0,0-.3,0c-.48.168,0,1.176-.032,1.541a5.206,5.206,0,0,1-.751,2.029,2.2,2.2,0,0,1-3.46.75c-.4-.3-.846-.739-1.321-.57a.73.73,0,0,0-.448.632,1.342,1.342,0,0,0,.212.772,2.842,2.842,0,0,0,2.613,1.379c3.346-.131,4.3-2.72,4.026-5.569a1.489,1.489,0,0,0-.2-.7A.673.673,0,0,0,1187.877,644.677Z" transform="translate(-1181.56 -644.651)" fill="#f36d80"/>
        </g>
        <g id="Grupo_26283" data-name="Grupo 26283" transform="translate(17.283 47.389)">
          <path id="Trazado_67757" data-name="Trazado 67757" d="M1169.3,679.075a7.242,7.242,0,0,1-5.557-.289c-.933-.426-3.135-1.106-3.314-2.3a.489.489,0,0,1,.655-.521c.408.205.729.556,1.118.8a17.313,17.313,0,0,0,1.753.917,6.346,6.346,0,0,0,4.953.48c.6-.181,1.006.715.391.909Z" transform="translate(-1160.423 -675.924)" fill="#292954"/>
        </g>
        <path id="Trazado_67758" data-name="Trazado 67758" d="M1156.562,672.289a1.412,1.412,0,0,0-.842.027c-.714.322-.539,1.59-.31,2.118a6.518,6.518,0,0,0,6.453,3.9,8.1,8.1,0,0,0,4.891-1.94c.956-.949.685-1.954-.736-2.235l-9.368-1.851Z" transform="translate(-1139.433 -625.915)" fill="#fff"/>
        <path id="Trazado_67759" data-name="Trazado 67759" d="M1223.339,590.069c-.38-.057-.83-.17-.949-.528a.891.891,0,0,1,.379-.876,5.46,5.46,0,0,1,5.556-.343,2.369,2.369,0,0,1,1.191,1.834.981.981,0,0,1-.264.778c-.374.339-2.11-.291-2.636-.371Z" transform="translate(-1187.176 -565.825)" fill="#272c4d"/>
      </g>
      <path id="Trazado_67760" data-name="Trazado 67760" d="M965.627,1051.878c-4.337,11.933-11.034,22.883-15.577,34.737-1.218,3.175-2.268,6.388-3.175,9.63h21.654c6.138-17.809,14.079-34.985,22.1-52.463,2.338-5.1,4.716-10.473,4.3-16.058-.459-6.11-4.169-11.417-7.751-16.385q-15.578-21.6-31.159-43.194c.587.816.282,3.922-.208,7.226,1.9,4.281,3.174,9.126,4.684,13.593,1.66,4.909,3.224,9.854,4.57,14.859,2.7,10.033,4.523,20.367,4.393,30.786C969.378,1040.764,967.712,1046.143,965.627,1051.878Z" transform="translate(-913.523 -813.051)" fill="#e5b1a8"/>
      <path id="Trazado_67761" data-name="Trazado 67761" d="M884.669,842.458c3.4-10.709,8.578-20.251,15.711-27.28,3.091-3.046,6.847-5.755,11.165-6.193,22.047-2.232,14.773,46.469,11.088,58.132-2.9,9.183-7.039,18.937-4,28.076,2.967,8.925,11.837,14.287,20.045,18.878,10.845,6.066,16.086,10.625,14.76,24.078-.937,9.5-7.53,14.322-16.852,14.678-17.656.675-41.113-16.389-48.454-32.115C878.533,900.15,876.559,867.988,884.669,842.458Z" transform="translate(-865.696 -699.842)" fill="#fac6ba"/>
    </g>
    <g id="Grupo_26324" data-name="Grupo 26324" transform="translate(635.106 388.055)">
      <g id="Grupo_26286" data-name="Grupo 26286" transform="translate(129.757 73.542)">
        <path id="Trazado_67762" data-name="Trazado 67762" d="M1724.025,1161.442a34.052,34.052,0,0,0-5.281.617c-4.706.721-9.385,1.7-14.124.986a10.644,10.644,0,0,1-2.533-.631c-3.72-1.554-5.573-6.048-10.006-6.4-.352-.028-3.01-.113-4.583-.358a3.523,3.523,0,0,1-.624-.524c-1.074-1.189-1.579-2.888-2.9-3.8a1.31,1.31,0,0,0-.728-.277c-.646,0-1.025.728-1.166,1.359a7.128,7.128,0,0,0,1.149,5.638,9.191,9.191,0,0,0,.693.84c.5.55,1.05,1.063,1.525,1.641.322.392.547.882.846,1.3.792,3.409,3.79,9.764,5.583,11.133,2.236,1.708,5.041,2.452,7.766,3.157,6.134,1.588,11.795,4.061,17.874,5.847,2.734.8,5.844,1.483,8.3.036,3.86-2.275,5.461-7,5.519-11.274C1731.408,1165.536,1729.85,1161.469,1724.025,1161.442Z" transform="translate(-1681.92 -1151.054)" fill="#45a3c4"/>
        <path id="Trazado_67763" data-name="Trazado 67763" d="M1695.77,1177.916a.606.606,0,0,0-.087-1.066c-.937-.788-2.267-.816-3.476-1.01-1.076-.172-3.759-1.781-4.71-1.138-.911.616-.467,2.835.1,3.591C1689.113,1180.3,1694.152,1179.309,1695.77,1177.916Z" transform="translate(-1685.513 -1167.759)" fill="#2684a5"/>
      </g>
      <g id="Grupo_26320" data-name="Grupo 26320" transform="translate(0)">
        <path id="Trazado_67764" data-name="Trazado 67764" d="M1409.215,1131.654a84.071,84.071,0,0,1-1.237-14.423c-.016-1.969.395-4.422-.011-6.307-.43-2-1.886-3.7-2.942-5.391a15.262,15.262,0,0,0-5.084-4.935c-2.936-1.772-6.111-1.862-9.167-3.093-2.9-1.17-5.477-2.574-8.7-2.951a25.024,25.024,0,0,0-6.133.171c-4.016.524-7.765,2.117-11.7,2.731a30.428,30.428,0,0,0-8.016,2.228,17.37,17.37,0,0,0-7.067,5.3c-1.956,2.727-1.723,5.818-2.19,9.021a86.069,86.069,0,0,1-6.037,21.026q-.726,1.718-1.513,3.41l13.262,4.287c1.612.521,3.2.544,4.817.928,1.853.44,3.717.833,5.592,1.168a97.292,97.292,0,0,0,33.954.053c4.26-.75,8.208-.676,12.207-2.629.783-.383,1.651-.866,1.859-1.712a3,3,0,0,0-.167-1.53A72.3,72.3,0,0,1,1409.215,1131.654Z" transform="translate(-1308.66 -1037.258)" fill="#93cee2"/>
        <path id="Trazado_67765" data-name="Trazado 67765" d="M1400.882,1249.88c-6.627-2.59-13.044-2.44-20.049-1.9-6.3.487-12.3,2.886-18.761,2.715-6.983-.184-13.58-2.947-20.586-3.059-8.333-.134-14.024,3.173-18.191,10.286-5.534,9.446,3.927,17.219,12.741,18.4a108.51,108.51,0,0,0,15.739.639c4-.045,7.9-.315,10.945-.3l24.133.11c5.712.026,11.128,1.32,16.726-.91,7.213-2.874,10.986-13.353,6.239-19.768a19.288,19.288,0,0,0-8.261-5.946Q1401.219,1250.012,1400.882,1249.88Z" transform="translate(-1296.023 -1146.177)" fill="#d6503b"/>
        <path id="Trazado_67766" data-name="Trazado 67766" d="M1442.136,1107.247a15.716,15.716,0,0,0,11.079-2.486c1.288-.837,2.7-2.473,2.247-4.3a3.365,3.365,0,0,0-2.53-2.264c-3.632-1.177-13.058-3.505-16.233.079C1432.954,1102.5,1439.363,1106.8,1442.136,1107.247Z" transform="translate(-1377.007 -1038.625)" fill="#ea6f5b"/>
        <g id="Grupo_26287" data-name="Grupo 26287" transform="translate(89.056 64.136)">
          <path id="Trazado_67767" data-name="Trazado 67767" d="M1563.813,1129.045c-3.231-.675-5.982-2.555-8.564-4.522a44.67,44.67,0,0,0-8.29-5.211,7.593,7.593,0,0,0-2.039-.738c-6.963-1.094-2.631,12.424-.741,14.915,3.636,4.793,9.455,6.952,15.1,7.941,4.511.79,9.31-.146,13.649-1.419a10.388,10.388,0,0,1,3.617-.571c1.684.118,2.288,1.2,3.612,1.892a3.641,3.641,0,0,0,1.279.517.935.935,0,0,0,1.053-.669,1.163,1.163,0,0,0-.217-.732,2.386,2.386,0,0,1-.346-.694c-.336-1.549,3.743.972,4.314-.818.356-1.116-2.014-1.9-1.375-3.143.494-.961,2.5-.41,2.692-1.474.207-1.149-2.189-1.267-2.225-2.435-.033-1.049,1.887-1.264,1.906-2.313.011-.63-.737-1.027-1.37-1-1.8.077-4.977,1.7-5.946-.857a10.708,10.708,0,0,1-.3-1.647,1.608,1.608,0,0,0-.954-1.287,1.5,1.5,0,0,0-1.652,1.049c-.265.665-.258,1.408-.462,2.094-.6,2-4.482,1.947-6.214,1.705C1568.477,1129.368,1565.944,1129.487,1563.813,1129.045Z" transform="translate(-1541.105 -1118.511)" fill="#f29c7d"/>
        </g>
        <path id="Trazado_67768" data-name="Trazado 67768" d="M1589.282,1273.785c3.6,1.55,7.3,2.534,9.36-.77,1.433-2.3-1.247-4.117-.186-5.828a1.884,1.884,0,0,1,1.422-.74,4.463,4.463,0,0,1,3.841,1.6c.572.654.364,1.583,1.036,2.12a3.492,3.492,0,0,1,2.1-1.014,1.492,1.492,0,0,1,1.6,1.41,5.626,5.626,0,0,1-.374,1.085c-.111.368-.044.856.317,1,.451.178.884-.323,1.366-.379,1.841-.211.415,2.461.391,3.119,1.082-.692,2.641.106,3.179,1.136a1.487,1.487,0,0,1-.152,1.768,1.959,1.959,0,0,1-1.48.309c-2.26-.185-3.027,2.414-3.66,4.053-.984,2.549-2.57,5.5-4.853,7.136-2.152,1.744-7.682.455-10.5.514-6.138.127-13.823,1.043-19.486-1.888-5.946-3.078-7.98-10.9-1.89-15.463,3.109-2.331,7.331-2.739,11.141-1.976C1584.291,1271.343,1586.764,1272.7,1589.282,1273.785Z" transform="translate(-1470.901 -1159.532)" fill="#f29c7d"/>
        <path id="Trazado_67769" data-name="Trazado 67769" d="M1265.9,1270.337c-2.463,1.2-5.665,3.814-8.241,3.137-1.849-.487-4.139-4.417-3.716-6.258a9.887,9.887,0,0,1,.847-1.72,1.567,1.567,0,0,0-1.363-2.521,4.461,4.461,0,0,0-3.8,1.682c-.558.666-.328,1.591-.988,2.143a3.49,3.49,0,0,0-2.121-.967c-.807-.005-1.656.651-1.568,1.446a5.647,5.647,0,0,0,.4,1.077c.119.365.063.855-.294,1.005-.447.188-.891-.3-1.374-.348-1.846-.171-.359,2.47-.321,3.126-1.1-.668-2.637.165-3.152,1.206a1.486,1.486,0,0,0,.192,1.764,1.957,1.957,0,0,0,1.487.276c2.255-.235,3.081,2.347,3.751,3.971,1.042,2.526,2.693,5.441,5.012,7.026,3.013,2.059,10.572.652,14.047.575,6.068-.135,15.408,2.4,20.536-1.967s5.232-10.246-.124-14.425c-5.764-4.5-12.054-2.977-18.494-.539C1266.384,1270.113,1266.146,1270.218,1265.9,1270.337Z" transform="translate(-1237.983 -1157.07)" fill="#f29c7d"/>
        <g id="Grupo_26288" data-name="Grupo 26288" transform="translate(130.285 114.896)">
          <path id="Trazado_67770" data-name="Trazado 67770" d="M1683.868,1295.088a2.722,2.722,0,0,0,2.786,1.062c.717-.1.54-1.361-.187-1.263a1.412,1.412,0,0,1-1.462-.475c-.49-.687-1.636-.01-1.137.675Z" transform="translate(-1683.745 -1294.125)" fill="#ea6f5b"/>
        </g>
        <g id="Grupo_26289" data-name="Grupo 26289" transform="translate(12.724 113.012)">
          <path id="Trazado_67771" data-name="Trazado 67771" d="M1277.165,1288.614a2.341,2.341,0,0,0,2.467.418c.418-.11.457-.82-.01-.887a7.066,7.066,0,0,0-.961-.054.78.78,0,0,1-.691-.291c-.454-.567-1.283.252-.8.814Z" transform="translate(-1277.021 -1287.608)" fill="#ea6f5b"/>
        </g>
        <g id="Grupo_26290" data-name="Grupo 26290" transform="translate(123.6 75.685)">
          <path id="Trazado_67772" data-name="Trazado 67772" d="M1662.751,1158.5c-.282.094-.552.221-.835.312a1.3,1.3,0,0,1-.35.077c-.142.005-.28-.054-.437-.037a.556.556,0,0,0-.351.95c.3.348.9.29,1.3.2.357-.078.689-.234,1.037-.34a.611.611,0,0,0-.367-1.164Z" transform="translate(-1660.616 -1158.469)" fill="#ea6f5b"/>
        </g>
        <g id="Grupo_26291" data-name="Grupo 26291" transform="translate(125.585 123.033)">
          <path id="Trazado_67773" data-name="Trazado 67773" d="M1671.744,1322.282c-2.766.243-5.624,3.34-3.545,6.007a.427.427,0,0,0,.773-.333c-.224-1.182-.7-2.35.253-3.376a4.062,4.062,0,0,1,2.532-1.233c.687-.055.678-1.125-.012-1.065Z" transform="translate(-1667.485 -1322.279)" fill="#ea6f5b"/>
        </g>
        <g id="Grupo_26292" data-name="Grupo 26292" transform="translate(15.419 122.038)">
          <path id="Trazado_67774" data-name="Trazado 67774" d="M1286.539,1319.554a3.718,3.718,0,0,1,1.555,1.221c.325.556.123,1.278.455,1.783a.293.293,0,0,0,.5-.005,2.5,2.5,0,0,0-.287-2.173,4.457,4.457,0,0,0-1.836-1.493c-.439-.236-.823.431-.384.667Z" transform="translate(-1286.345 -1318.837)" fill="#ea6f5b"/>
        </g>
        <g id="Grupo_26293" data-name="Grupo 26293" transform="translate(57.87 65.455)">
          <path id="Trazado_67775" data-name="Trazado 67775" d="M1433.214,1124.934c.2,1.794,1.79,2.836,3.34,3.5a18.742,18.742,0,0,0,7.521,1.232,18.13,18.13,0,0,0,7.862-2.367c1.307-.667,3.381-2.252,3.519-3.821.041-.468-.771-.573-.836-.1-.216,1.562-2.788,3.031-4.04,3.53-2.041.813-4.028,1.777-6.258,1.878a19.121,19.121,0,0,1-6.348-.625c-1.58-.476-3.867-1.372-4.11-3.235-.052-.4-.7-.408-.65.007Z" transform="translate(-1433.212 -1123.074)" fill="#efc7b6"/>
        </g>
        <g id="Grupo_26294" data-name="Grupo 26294" transform="translate(47.924 128.882)">
          <path id="Trazado_67776" data-name="Trazado 67776" d="M1398.815,1342.542a.013.013,0,0,0,0-.027.013.013,0,0,0,0,.027Z" transform="translate(-1398.802 -1342.515)" fill="#efc7b6"/>
        </g>
        <g id="Grupo_26295" data-name="Grupo 26295" transform="translate(0 61.164)">
          <path id="Trazado_67777" data-name="Trazado 67777" d="M1283.178,1125.265l-.036.063c-4.168,7.233-13.434,5.615-20.378,4.961a39.24,39.24,0,0,1-14.9-3.964,11.831,11.831,0,0,0-3.866-1.449c-1.885-.249-2.794.807-4.412,1.267a4.034,4.034,0,0,1-1.524.28c-.52-.053-1.046-.46-1.014-.976a1.3,1.3,0,0,1,.4-.757A2.746,2.746,0,0,0,1238,1124a.668.668,0,0,0,.063-.219.457.457,0,0,0,0-.073.334.334,0,0,0-.022-.108.291.291,0,0,0-.163-.183.64.64,0,0,0-.082-.043c-.036-.017-.074-.03-.116-.044a5.28,5.28,0,0,0-1.287-.091c-.057,0-.107,0-.15,0-.146,0-.292,0-.442,0l-.359-.012c-1-.039-1.928-.23-2.022-1.1a.894.894,0,0,1,0-.1c.012-1.222,2.645-1.573,2.23-3.048-.148-.527-.7-.785-1.262-1.019-.687-.292-1.392-.544-1.38-1.215a.8.8,0,0,1,.076-.329c.438-.925,2.654-.7,2.928-1.854s-1.8-1.82-1.581-2.98c.13-.694,1.045-.963,1.738-.789,1.967.492,5.11,3.005,6.754.4a12.266,12.266,0,0,0,.7-1.745,1.8,1.8,0,0,1,1.342-1.2c.809-.074,1.442.738,1.587,1.531s-.033,1.612.039,2.415c.207,2.337,4.511,3.163,6.476,3.283,2.439.158,4.892-.068,7.336-.088,2.618-.022,4.9.434,7.48-.152,3.374-.767,6.661-2.635,9.957-3.266C1284.962,1110.594,1285.734,1120.722,1283.178,1125.265Z" transform="translate(-1232.999 -1108.229)" fill="#f29c7d"/>
        </g>
        <g id="Grupo_26296" data-name="Grupo 26296" transform="translate(8.86 67.533)">
          <path id="Trazado_67778" data-name="Trazado 67778" d="M1263.758,1131.128c.537.73.909,1.316,1.871,1.47.684.109,1.635.173,1.97-.557a.508.508,0,0,0-.318-.646,6.559,6.559,0,0,0-1.405.055,1.081,1.081,0,0,1-.73-.217,6.03,6.03,0,0,1-.619-.782c-.419-.515-1.151.158-.768.678Z" transform="translate(-1263.651 -1130.266)" fill="#ea6f5b"/>
        </g>
        <path id="Trazado_67779" data-name="Trazado 67779" d="M1375.44,953.59c5.887-13.621,24.24-20.361,37.723-13.852,9.483,4.578,17.193,15.712,16.742,26.209-.756,17.591-22.213,29.944-38.474,24.077C1377.333,984.938,1369.553,967.211,1375.44,953.59Z" transform="translate(-1332.859 -925.497)" fill="#f29c7d"/>
        <path id="Trazado_67780" data-name="Trazado 67780" d="M1551.659,1015.543c-3.722,2.406-3.362,8.914.6,10.9s9.478-1.574,9.235-5.968-6.116-7.339-9.838-4.934Z" transform="translate(-1457.709 -980.557)" fill="#f29c7d"/>
        <path id="Trazado_67781" data-name="Trazado 67781" d="M1347.814,1024.628c.363-3.684,5.111-6.158,8.383-4.369l1.529,1.221c2.459,2.787,1.021,7.906-2.538,9.036S1347.451,1028.311,1347.814,1024.628Z" transform="translate(-1314.612 -984.099)" fill="#f29c7d"/>
        <path id="Trazado_67782" data-name="Trazado 67782" d="M1451.023,1067.214c-1.614,3.027-5.449,5.708-8.626,6.829a14.111,14.111,0,0,1-15.541-3.811c-.8-.908-1.975-3.321-.741-4.393a3,3,0,0,1,1.683-.567c.061-.008.125-.012.186-.02l5.038-.508,8.961-.9,6.11-.615C1451.145,1062.917,1452.338,1064.748,1451.023,1067.214Z" transform="translate(-1369.914 -1015.046)" fill="#ea6f5b"/>
        <path id="Trazado_67783" data-name="Trazado 67783" d="M1460.763,1094.168a3.326,3.326,0,0,1,1.808-.4,3.124,3.124,0,0,1,1.682.376,1.178,1.178,0,0,1-.1,2.17,7.208,7.208,0,0,1-2.2.354c-.7,0-1.6-.155-1.864-.9A1.434,1.434,0,0,1,1460.763,1094.168Z" transform="translate(-1394.408 -1036.782)" fill="#fff"/>
        <path id="Trazado_67784" data-name="Trazado 67784" d="M1417.081,1019.789l.632-.76a1.006,1.006,0,0,1,1.643.367,1.228,1.228,0,0,1,.731,1.038,2.031,2.031,0,0,1-.478,1.79,1.812,1.812,0,0,1-1.885.327,1.174,1.174,0,0,1-.836-1.062,2.921,2.921,0,0,1,0-.638A1.021,1.021,0,0,1,1417.081,1019.789Z" transform="translate(-1363.684 -983.432)" fill="#292954"/>
        <path id="Trazado_67785" data-name="Trazado 67785" d="M1504.56,1021.773l.632-.76a1.006,1.006,0,0,1,1.643.367,1.228,1.228,0,0,1,.731,1.038,2.031,2.031,0,0,1-.478,1.79,1.811,1.811,0,0,1-1.885.328,1.173,1.173,0,0,1-.836-1.062,2.944,2.944,0,0,1,0-.638A1.021,1.021,0,0,1,1504.56,1021.773Z" transform="translate(-1425.878 -984.843)" fill="#292954"/>
        <path id="Trazado_67786" data-name="Trazado 67786" d="M1327.672,928.678a9.773,9.773,0,0,1-1.174,2.167c-7.225,8.562-11.991-8.554-8.284-11.041-3.58,2.4-19.818,7.45-14.251-2.337a9.628,9.628,0,0,1,2.912-2.815,4.3,4.3,0,0,1-5-2.944,4.252,4.252,0,0,1,2.908-4.986,4.306,4.306,0,0,1,5.073,2.814c-1.726-4.019.715-9.831,5.975-8.423,3.331.891,7.364,6.979,6.669,10.391.7-3.439,1.376-6.963,5.383-8.052a6.9,6.9,0,0,1,6.7,1.9,5.653,5.653,0,0,1,4.225-5.1,5.719,5.719,0,0,1,6.118,2.62,4.919,4.919,0,0,1,9.819-.574,5.734,5.734,0,0,1,10.516,2.159,4.088,4.088,0,0,1,4.559-1.33,4.021,4.021,0,0,1,2.548,3.972c.972-1.926,4.061-1.753,5.562-.194s1.838,3.854,2.1,5.992c.88-4.921,7.856-17.285,14.44-11.529a5.62,5.62,0,0,1,.122,8.03,3.659,3.659,0,0,1,3.842-3.534,3.826,3.826,0,0,1,3.345,4.079,4.042,4.042,0,0,1-4.108,3.415c5.271.265,5.395,6.1,1.664,8.325-4.234,2.522-10.666,1.5-14.394-1.4,2.666,2.078-1.915,10.062-3.872,11.432a3.278,3.278,0,0,1-2.175.754c-1.559-.182-2.211-2.046-2.44-3.584-1.059-7.128-3.677-2.4-8.228-4.493a5.944,5.944,0,0,1-3.325-4.584c-.446,2.49-3.678,4.535-6.182,4.4a5.259,5.259,0,0,1-4.491-3.182c-.941,2.159-4.6,2.3-5.711.223-.663,4.469-10.141,4.456-9.582.572a5.809,5.809,0,0,1-3.56,4.478c-1.925.758-4.413-.9-5.925-.089A5.044,5.044,0,0,0,1327.672,928.678Z" transform="translate(-1281.884 -897.45)" fill="#272c4d"/>
        <g id="Grupo_26297" data-name="Grupo 26297" transform="translate(65.057 40.215)">
          <path id="Trazado_67787" data-name="Trazado 67787" d="M1458.919,1037.518a7.623,7.623,0,0,1,1.211-.556,3.194,3.194,0,0,1,1.758.144c.689.146,1.72.018,1.981.815a.481.481,0,0,0,.916-.01c.344-1.311-1.219-1.625-2.175-1.772a7.987,7.987,0,0,0-2.2-.372,6.868,6.868,0,0,0-2.061.817c-.632.314-.065,1.251.566.934Z" transform="translate(-1458.077 -1035.751)" fill="#ea6f5b"/>
        </g>
        <g id="Grupo_26298" data-name="Grupo 26298" transform="translate(80.265 29.096)">
          <path id="Trazado_67788" data-name="Trazado 67788" d="M1511.02,998.42a14,14,0,0,0,2.864,1.216c.787.154,1.109-1.042.319-1.2a12.522,12.522,0,0,1-2.564-1.095c-.73-.323-1.354.751-.619,1.076Z" transform="translate(-1510.69 -997.284)" fill="#ea6f5b"/>
        </g>
        <g id="Grupo_26299" data-name="Grupo 26299" transform="translate(51.138 29.872)">
          <path id="Trazado_67789" data-name="Trazado 67789" d="M1410.655,1002.292a10.126,10.126,0,0,0,2.84-1.184c.6-.464-.007-1.49-.617-1.019a9.055,9.055,0,0,1-2.555,1.061c-.718.265-.394,1.41.332,1.142Z" transform="translate(-1409.921 -999.968)" fill="#ea6f5b"/>
        </g>
        <path id="Trazado_67790" data-name="Trazado 67790" d="M1532.32,1034.365a3.337,3.337,0,0,1,1.334,5.29,3.4,3.4,0,0,1-5.348-1.3,3.365,3.365,0,0,1,3.658-4.075Z" transform="translate(-1442.865 -994.458)" fill="#ea6f5b"/>
        <path id="Trazado_67791" data-name="Trazado 67791" d="M1397.919,1039.833a3.337,3.337,0,0,1,1.334,5.29,3.4,3.4,0,0,1-5.348-1.3,3.365,3.365,0,0,1,3.658-4.076Z" transform="translate(-1347.311 -998.346)" fill="#ea6f5b"/>
        <g id="Grupo_26300" data-name="Grupo 26300" transform="translate(45.499 8.589)">
          <path id="Trazado_67792" data-name="Trazado 67792" d="M1391.488,930.337c-.889-1.373,1.229-2.694,2.4-2.936a3.679,3.679,0,0,1,4.161,1.68.438.438,0,0,0,.789-.111c.187-.945-.891-1.728-1.627-2.147a5.148,5.148,0,0,0-3.7-.272c-1.693.475-4,2.337-2.738,4.211.3.439,1.006.025.715-.425Z" transform="translate(-1390.41 -926.336)" fill="#4c4f60"/>
        </g>
        <g id="Grupo_26301" data-name="Grupo 26301" transform="translate(40.638 18.704)">
          <path id="Trazado_67793" data-name="Trazado 67793" d="M1376.185,961.583a1.475,1.475,0,0,0-2.072.468,4.424,4.424,0,0,0-.44,3.092c.2,1.615,1.682,4.157,3.713,3.322.151-.062.24-.314.048-.4-.419-.181-.862-.19-1.285-.352a2.756,2.756,0,0,1-1.591-1.724c-.278-.76-.651-5.141,1.327-3.89.33.208.623-.31.3-.52Z" transform="translate(-1373.594 -961.332)" fill="#4c4f60"/>
        </g>
        <g id="Grupo_26302" data-name="Grupo 26302" transform="translate(62.893 6.558)">
          <path id="Trazado_67794" data-name="Trazado 67794" d="M1451.172,923.19a2.743,2.743,0,0,0,.69-1.366c.325-1.136,1.4-1.528,2.5-1.715a4.983,4.983,0,0,1,2.786.353,4.189,4.189,0,0,1,1.692,1.717.233.233,0,0,0,.419-.059c.407-1.943-2.428-2.761-3.889-2.806a6.034,6.034,0,0,0-3.193.813c-1.039.64-.71,1.809-1.489,2.594-.306.308.176.774.484.469Z" transform="translate(-1450.59 -919.311)" fill="#4c4f60"/>
        </g>
        <g id="Grupo_26303" data-name="Grupo 26303" transform="translate(57.979 15.001)">
          <path id="Trazado_67795" data-name="Trazado 67795" d="M1433.7,951.636c.718.68,1.123,1.57,2.2,1.724a5.063,5.063,0,0,0,2.771-.786c1.443-.69,3.218-1.994,2.926-3.779-.07-.43-.794-.321-.766.112.09,1.418-1.285,2.377-2.427,2.965a4.263,4.263,0,0,1-2.3.686c-.984-.078-1.254-.791-1.921-1.407-.323-.3-.8.183-.481.487Z" transform="translate(-1433.59 -948.521)" fill="#4c4f60"/>
        </g>
        <g id="Grupo_26304" data-name="Grupo 26304" transform="translate(70.677 18.062)">
          <path id="Trazado_67796" data-name="Trazado 67796" d="M1477.609,959.87c.594.747.807,1.822,1.631,2.38a4.319,4.319,0,0,0,2.7.328c1.584-.133,4.145-1.143,4.091-3.051a.286.286,0,0,0-.483-.192c-1.262,1.093-2.135,2.105-3.942,2.22-.967.061-1.675.114-2.286-.764-.346-.5-.541-1.052-.93-1.531-.352-.433-1.131.167-.779.609Z" transform="translate(-1477.52 -959.111)" fill="#4c4f60"/>
        </g>
        <g id="Grupo_26305" data-name="Grupo 26305" transform="translate(83.156 9.112)">
          <path id="Trazado_67797" data-name="Trazado 67797" d="M1521.413,930.808c.466-.856.9-2.045,2.161-1.813a6.132,6.132,0,0,1,2.279,1.463,8.923,8.923,0,0,1,3,3.8.4.4,0,0,0,.777-.113c.046-2.222-2.663-3.935-4.251-5.088a3.088,3.088,0,0,0-2.873-.775c-.934.352-1.335,1.341-1.763,2.152-.229.435.434.812.67.378Z" transform="translate(-1520.695 -928.146)" fill="#4c4f60"/>
        </g>
        <g id="Grupo_26306" data-name="Grupo 26306" transform="translate(85.576 19.966)">
          <path id="Trazado_67798" data-name="Trazado 67798" d="M1529.162,966.366c.667.851.76,2.037,1.868,2.5a2.386,2.386,0,0,0,2.841-1.048.266.266,0,0,0-.163-.385c-.915-.22-1.494,1.057-2.441.5-.691-.407-.822-1.444-1.3-2.046-.367-.462-1.176,0-.8.478Z" transform="translate(-1529.066 -965.698)" fill="#4c4f60"/>
        </g>
        <g id="Grupo_26307" data-name="Grupo 26307" transform="translate(92.222 20.747)">
          <path id="Trazado_67799" data-name="Trazado 67799" d="M1552.113,969.151c.682,1.394,1.238,3.078,3.137,2.808,1.526-.217,3.959-1.295,3.8-3.132-.033-.383-.6-.614-.8-.2a3.963,3.963,0,0,1-2.955,2.289c-1.459.331-1.827-1.251-2.335-2.264-.284-.566-1.125-.06-.849.5Z" transform="translate(-1552.058 -968.4)" fill="#4c4f60"/>
        </g>
        <g id="Grupo_26308" data-name="Grupo 26308" transform="translate(48.858 17.947)">
          <path id="Trazado_67800" data-name="Trazado 67800" d="M1402.077,959.087a2.006,2.006,0,0,0,1.316,2.441,3.522,3.522,0,0,0,2.98-.317.441.441,0,0,0-.35-.8c-1.009.224-3.231.654-2.948-1.065.106-.643-.886-.91-1-.26Z" transform="translate(-1402.032 -958.712)" fill="#4c4f60"/>
        </g>
        <g id="Grupo_26309" data-name="Grupo 26309" transform="translate(38.191 28.86)">
          <path id="Trazado_67801" data-name="Trazado 67801" d="M1365.2,997.224c.7,1.217,1.686,2.486,3.279,2.12.873-.2,3.082-.868,2.71-2.113a.292.292,0,0,0-.48-.12,6.853,6.853,0,0,1-2.24,1.156c-1.228.391-1.859-.641-2.4-1.559a.5.5,0,0,0-.867.515Z" transform="translate(-1365.126 -996.469)" fill="#4c4f60"/>
        </g>
        <path id="Trazado_67802" data-name="Trazado 67802" d="M1577.042,951.422c-.321-1.557-1.345-2.8-2.022-4.263-.544-1.173-1.135-2.64-2.616-2.756a.637.637,0,0,0-.615.463c-.444,2.332.917,4.275,1.813,6.323.636,1.454,1.471,3.3,3.336,3.283a.674.674,0,0,0,.642-.484A3.613,3.613,0,0,0,1577.042,951.422Zm-.786,1.417q.017.071.03.141a1.675,1.675,0,0,1-.275-.2A1.783,1.783,0,0,0,1576.256,952.839Zm-3.188-6.788a.62.62,0,0,0-.094.008c0-.037,0-.075-.005-.112C1573,945.979,1573.036,946.014,1573.068,946.051Z" transform="translate(-1473.802 -930.592)" fill="#d6503b"/>
        <path id="Trazado_67803" data-name="Trazado 67803" d="M1356.482,941.465a.656.656,0,0,0-.795-.447,3.689,3.689,0,0,0-1.865,1.669c-.2.2-.4.417-.6.638-.544.6-1.141,1.149-1.658,1.769-.068.052-.136.1-.206.154a4.838,4.838,0,0,0-1.463,1.7c-.425.792-1.072,2.144-.377,2.852a3.069,3.069,0,0,0,.045.388.615.615,0,0,0,.592.447c2-.085,3.481-2.509,4.445-4.009C1355.547,945.154,1357.088,943.321,1356.482,941.465Z" transform="translate(-1315.622 -928.166)" fill="#d6503b"/>
        <g id="Grupo_26310" data-name="Grupo 26310" transform="translate(77.568 105.679)">
          <path id="Trazado_67804" data-name="Trazado 67804" d="M1502.121,1267.16c1.336-.661,2.619-1.418,3.936-2.114,1.415-.747,2.892-1.226,4.365-1.826a.423.423,0,0,0,.288-.5l-.055-.276c-.052-.261-.4-.251-.525-.068-.112.158-.579.09-.773.132a8.327,8.327,0,0,0-1.194.4,21.575,21.575,0,0,0-2.063.943c-1.516.78-2.965,1.679-4.487,2.448-.578.292-.07,1.145.508.86Z" transform="translate(-1501.359 -1262.24)" fill="#efc7b6"/>
        </g>
        <g id="Grupo_26311" data-name="Grupo 26311" transform="translate(52.787 105.079)">
          <path id="Trazado_67805" data-name="Trazado 67805" d="M1415.764,1260.721a27.152,27.152,0,0,0,3.672,1.948c.9.391,2.032,1.152,3.056,1.026.149-.019.247-.224.084-.309-2.151-1.128-4.434-1.872-6.51-3.177-.326-.205-.627.307-.3.512Z" transform="translate(-1415.624 -1260.161)" fill="#efc7b6"/>
        </g>
        <g id="Grupo_26312" data-name="Grupo 26312" transform="translate(102.668)">
          <path id="Trazado_67806" data-name="Trazado 67806" d="M1588.678,904.361c1.445-1.643,2.622-3.505,4.051-5.157,1.814-2.1,4.8-2.746,6.724-.464,1.306,1.549.938,3.653.655,5.482-.157,1.017-.3,3.843-1.541,4.162l.427.55a4.377,4.377,0,0,1,1.454-2.113c.59-.4,1.143-.883,1.771-1.225,1.258-.685,3.175-1.086,4.475-.281,2.048,1.268.417,3.446-.915,4.5a8.512,8.512,0,0,1-5.2,1.535.472.472,0,0,0,0,.945,6.324,6.324,0,0,1,4.6,1.714,3.573,3.573,0,0,1,.369,4.443c-1.66,1.963-4.877,1.356-7.125,1.756a.441.441,0,0,0,0,.846c2.625.467,7.482.126,8.586-2.817a4.9,4.9,0,0,0-1.119-4.932,7.379,7.379,0,0,0-5.307-1.955v.945a9.2,9.2,0,0,0,6.361-2.314c1.289-1.249,2.3-3.157.948-4.738-1.17-1.366-3.251-1.346-4.84-.846a10.656,10.656,0,0,0-2.825,1.659,4.9,4.9,0,0,0-1.878,2.5.381.381,0,0,0,.427.55c1.6-.424,1.792-3.048,1.986-4.352.31-2.083.762-4.437-.622-6.259a4.378,4.378,0,0,0-5.833-1.266c-2.674,1.423-4.1,4.514-6.028,6.73-.239.276.163.68.407.4Z" transform="translate(-1588.198 -896.621)" fill="#272c4d"/>
        </g>
        <g id="Grupo_26313" data-name="Grupo 26313" transform="translate(18.009 1.384)">
          <path id="Trazado_67807" data-name="Trazado 67807" d="M1316.018,908.49a17.542,17.542,0,0,1-1.162-2.2,6.838,6.838,0,0,0-.53-1.424,11.468,11.468,0,0,0-2.167-2.2,4.346,4.346,0,0,0-5.557-.456,6.358,6.358,0,0,0-2.745,4.913,8.363,8.363,0,0,0,.489,3.29,3.815,3.815,0,0,0,1.2,2.231c.56.4,1.186-.462.722-.926-.438-.439-1-.7-1.451-1.114a17.2,17.2,0,0,0-1.219-1.276,10.852,10.852,0,0,0-3.569-1.709,3.839,3.839,0,0,0-4.526,2.8,4.8,4.8,0,0,0,1.945,5.239,9.7,9.7,0,0,0,3,1.384,7.35,7.35,0,0,0,1.625.251c.638.055,1.2.312,1.833.37v-1.019a11.767,11.767,0,0,0-6.261,2.357c-1.378.933-1.984,2.378-.943,3.839,1.861,2.613,6.558,1.531,8.676-.14.219-.172-.018-.535-.268-.456-1.973.626-5.025,1.8-6.956.559a1.752,1.752,0,0,1-.855-2.046,3.345,3.345,0,0,1,1.5-1.263,10.5,10.5,0,0,1,5.108-1.83.51.51,0,0,0,0-1.019,10.962,10.962,0,0,1-1.1-.355c-.406-.078-.821-.046-1.228-.1a8.864,8.864,0,0,1-2.44-.821c-1.592-.759-3.034-2.416-2.581-4.283a3.554,3.554,0,0,1,1.588-2.139c.951-.576,2.152-.008,3.068.416a6.9,6.9,0,0,1,2.273,1.549c.6.65,1.311,1.034,1.933,1.646l.722-.926c-.458-.319-.805-1.764-.953-2.31a6.717,6.717,0,0,1-.134-2.762,5.045,5.045,0,0,1,2.92-3.863c1.984-.823,3.371.56,4.73,1.8a5.989,5.989,0,0,1,1.4,2.422c.308.708.776,1.346,1.146,2.022.272.5,1.027.057.765-.443Z" transform="translate(-1295.304 -901.408)" fill="#272c4d"/>
        </g>
        <g id="Grupo_26314" data-name="Grupo 26314" transform="translate(63.38 23.572)">
          <path id="Trazado_67808" data-name="Trazado 67808" d="M1455.547,978.3c-1.583,1.51-3.343,2.8-3.273,5.189.047,1.569,1.857,2.867,3.159,1.593.451-.441-.237-1.119-.694-.687-.381.36-1.219-.065-1.393-.425a1.458,1.458,0,0,1-.1-.633,3.287,3.287,0,0,1,.54-1.955,15.256,15.256,0,0,1,2.387-2.461c.406-.4-.216-1.013-.627-.62Z" transform="translate(-1452.273 -978.172)" fill="#272c4d"/>
        </g>
        <g id="Grupo_26315" data-name="Grupo 26315" transform="translate(67.288 24.247)">
          <path id="Trazado_67809" data-name="Trazado 67809" d="M1466.479,980.886a7.86,7.86,0,0,0-.582,4.215,2.117,2.117,0,0,0,2.9,1.674.442.442,0,0,0-.106-.8c-.541-.174-1.122-.049-1.489-.568a2.292,2.292,0,0,1-.266-1.323,8.753,8.753,0,0,1,.632-2.9c.25-.674-.837-.965-1.085-.3Z" transform="translate(-1465.794 -980.507)" fill="#272c4d"/>
        </g>
        <g id="Grupo_26316" data-name="Grupo 26316" transform="translate(71.404 23.548)">
          <path id="Trazado_67810" data-name="Trazado 67810" d="M1480.542,978.419a6.618,6.618,0,0,0-.048,4.946,1.743,1.743,0,0,0,2.667.755.3.3,0,0,0-.061-.466c-.346-.224-.527-.138-.923-.186-.725-.088-.821-.551-.976-1.171a5.856,5.856,0,0,1,.287-3.619c.217-.589-.731-.842-.947-.258Z" transform="translate(-1480.036 -978.089)" fill="#272c4d"/>
        </g>
        <path id="Trazado_67811" data-name="Trazado 67811" d="M1460,1068.05a12.145,12.145,0,0,1-4.5.39c-1.121-.023-4.365.136-4.738-1.366a.781.781,0,0,1,.143-.736l8.961-.9a2.477,2.477,0,0,1,.242.078,1.358,1.358,0,0,1,.606.43A1.441,1.441,0,0,1,1460,1068.05Z" transform="translate(-1387.791 -1016.641)" fill="#fff"/>
        <g id="Grupo_26317" data-name="Grupo 26317" transform="translate(33.728 106.824)">
          <path id="Trazado_67812" data-name="Trazado 67812" d="M1350.042,1269.73a7.287,7.287,0,0,1,.745-1.165,3.212,3.212,0,0,1,1.3-.806,9.9,9.9,0,0,1,1.683-.622c.7-.156,1.415-.147,2.123-.244.563-.077,1-.351,1.591-.205a7.964,7.964,0,0,0,1.44.239,8.341,8.341,0,0,1,3.392,1.1,11.77,11.77,0,0,1,2.631,2.257c.38.42.716.866,1.059,1.316a5.771,5.771,0,0,1,.969,1.434c.363.954,1.044,1.75,1.357,2.724a13.469,13.469,0,0,1,.834,3.376,10.111,10.111,0,0,1-.828,3.749,13.606,13.606,0,0,1-.867,1.947c-.256.46-.5,1.147-1,1.38-.047.022-.013.092.034.081.827-.187,1.365-1.445,1.745-2.1a11.363,11.363,0,0,0,1.463-3.586c.453-2.391-.569-4.913-1.777-6.931-.293-.49-.4-1.07-.725-1.534-.363-.513-.811-.99-1.206-1.48a14.233,14.233,0,0,0-2.7-2.6,9.4,9.4,0,0,0-3.484-1.492c-.6-.13-1.222-.063-1.814-.2a2.649,2.649,0,0,0-1.558-.078,17.208,17.208,0,0,1-2.28.345,7.868,7.868,0,0,0-1.968.634,4.6,4.6,0,0,0-1.574.895,6.485,6.485,0,0,0-.908,1.374.19.19,0,0,0,.328.192Z" transform="translate(-1349.688 -1266.201)" fill="#efc7b6"/>
        </g>
        <g id="Grupo_26318" data-name="Grupo 26318" transform="translate(48.19 127.429)">
          <path id="Trazado_67813" data-name="Trazado 67813" d="M1400.978,1337.513a3.262,3.262,0,0,0-1.24.848c-.062.1.057.194.147.147.427-.22.856-.446,1.278-.678.207-.114.02-.436-.186-.317Z" transform="translate(-1399.72 -1337.487)" fill="#efc7b6"/>
        </g>
        <g id="Grupo_26319" data-name="Grupo 26319" transform="translate(93.851 107.32)">
          <path id="Trazado_67814" data-name="Trazado 67814" d="M1562.6,1287.748a9.818,9.818,0,0,1-2.484-2.024,9.345,9.345,0,0,1-1.487-3.127,10.047,10.047,0,0,1,.588-6.545,11.471,11.471,0,0,1,3.9-5.027,12.54,12.54,0,0,1,2.676-1.42,11.311,11.311,0,0,1,3.012-.856,8.872,8.872,0,0,0,1.667-.161,2.841,2.841,0,0,1,1.609.142,7.828,7.828,0,0,1,3.3,2.107.33.33,0,0,0,.466-.466,8.366,8.366,0,0,0-2.873-1.98,9.851,9.851,0,0,0-1.547-.422,2.01,2.01,0,0,0-1.195.09c-.642.2-1.349.07-2.01.2a14.557,14.557,0,0,0-1.815.532,15.384,15.384,0,0,0-2.9,1.316,11.835,11.835,0,0,0-4.513,5.005,9.914,9.914,0,0,0,.453,10.61,8.88,8.88,0,0,0,2.905,2.448.247.247,0,0,0,.249-.427Z" transform="translate(-1557.693 -1267.915)" fill="#efc7b6"/>
        </g>
        <path id="Trazado_67815" data-name="Trazado 67815" d="M1415.628,1205.357c-.4-1.157-.77-2.324-1.128-3.495a128.412,128.412,0,0,1-3.471-12.924c-.037-.188-.079-.376-.1-.566q-.339.322-.682.641a25.917,25.917,0,0,1-3.542,4.851c-7.285,7.946-19.152,12.721-29.8,13.031a27.666,27.666,0,0,1-18.956-6.654,23.584,23.584,0,0,1-6.519-9.351,19.816,19.816,0,0,1-3.192-3.295,56.35,56.35,0,0,1-2.209,11.431,89.519,89.519,0,0,0-2.829,9.577,20.186,20.186,0,0,1,2.734.251,35.479,35.479,0,0,1,10.382,2.125c2.476.911,4.89,2.152,7.505,2.628,2.838.516,5.709.985,8.569,1.4,7.41,1.083,14.777,2.236,22.214.6,3.975-.872,7.668-2.529,11.529-3.723,2.978-.921,6.112-1.682,8.707-3.488.493-.343,1.329-.793,1.384-1.418A6.059,6.059,0,0,0,1415.628,1205.357Z" transform="translate(-1311.344 -1103.491)" fill="#5bbcd6"/>
      </g>
      <g id="Grupo_26321" data-name="Grupo 26321" transform="translate(106.299 76.438)">
        <path id="Trazado_67816" data-name="Trazado 67816" d="M1618.932,1182.249a24.761,24.761,0,0,1-10.348-8.186q-1.717-1.435-3.563-2.7c-.834-.574-2.67-2.127-3.743-1.434-.944.609-.435,1.748.275,2.723a15.77,15.77,0,0,0,1.312,1.52q.911.969,1.834,1.928a1.987,1.987,0,0,0-1.938.375c-.71.871.125,1.8,1.1,2.505a15.741,15.741,0,0,0,1.717,1.042c2.22,1.219,4.444,2.44,6.769,3.45,1.163.505,2.349.909,3.547,1.319a7.716,7.716,0,0,0,3.158.714c.6-.044,1.958-.525,1.922-1.323C1620.94,1183.419,1619.476,1182.6,1618.932,1182.249Z" transform="translate(-1600.761 -1167.241)" fill="#2684a5"/>
        <path id="Trazado_67817" data-name="Trazado 67817" d="M1651.621,1174.107a3.988,3.988,0,0,0-.535-1.18,4.479,4.479,0,0,0-.43-.551,5.408,5.408,0,0,0-.986-.827,8.114,8.114,0,0,0-3.579-1.944,18.593,18.593,0,0,0-6.506-.187c-1.519.151-3.039.337-4.568.336-.123,0-.245,0-.367-.009-.526-.06-1.053-.122-1.582-.18l.406.09c-.831-.093-1.656-.224-2.5-.273a15.837,15.837,0,0,1-4.15-.934,16.365,16.365,0,0,1-3.156-1.261c-.911-.567-1.838-1.106-2.742-1.685-1.75-1.121-3.471-2.286-5.252-3.358a5.074,5.074,0,0,0-3.245-1.043c-.621.1-1.422.273-1.416,1.054a2.21,2.21,0,0,0,.459,1.155c1.315,1.993,3.268,3.628,4.784,5.477,2.091,2.552,4.327,5,6.486,7.493,2.546,2.941,5.78,4.989,9.747,4.939a67.019,67.019,0,0,0,14.392-1.752c1.263-.3,2.645-.719,3.309-1.833.209-.352.152-1.026.341-1.291.165-.231.586-.26.708-.464A1.9,1.9,0,0,0,1651.621,1174.107Z" transform="translate(-1608.048 -1161.072)" fill="#45a3c4"/>
      </g>
      <g id="Grupo_26323" data-name="Grupo 26323" transform="translate(101.517 32.058)">
        <path id="Trazado_67818" data-name="Trazado 67818" d="M1665.125,1035.424a10.263,10.263,0,0,1-1.861,3.865,6.779,6.779,0,0,1-2.9,2.722,5.831,5.831,0,0,1-3.2.08,27.107,27.107,0,0,0-3.177-.631c-2.411-.188-4.279,1.081-6.426,1.88a40.5,40.5,0,0,1-6.984,1.907,6.332,6.332,0,0,1-2.98.079,5.024,5.024,0,0,1-2.125-1.651c-.119-.146-1.3-2.259-1.058-2.259-.34-.018-.7-.048-1.068-.1-1.734-.243-3.582-.962-3.737-2.907-.146-1.774,1.862-3.3.088-4.884-1.575-1.407-8.492-.529-10.628-.719a7.43,7.43,0,0,1-2.687-.666c-1.032-.52-1.929-1.875-.737-2.769a6.99,6.99,0,0,1,3.653-1.05,24.525,24.525,0,0,1,4.27-.1c1.289.111,2.569.289,3.865.369,4.323.265,9.723.053,13.332-2.651a5.145,5.145,0,0,0,1.928-2.461c.5-1.637-.265-3.371-1.037-4.9a12.261,12.261,0,0,1-1.2-6.9c.114-1.822.745-3.728,2.74-4.138a1.318,1.318,0,0,1,1.138.529c1.354,1.434,1.368,3.234,1.879,5.073.1.357.207.71.326,1.068a14.371,14.371,0,0,0,2.162,4.336,52.661,52.661,0,0,0,3.591,4c.216.234.432.463.644.7.15.168.3.331.454.494.022.027.049.049.071.071a47.091,47.091,0,0,0,4.434,4.213,15.257,15.257,0,0,0,3.776,2.453,9.137,9.137,0,0,1,2.206,1.028A4.045,4.045,0,0,1,1665.125,1035.424Z" transform="translate(-1606.16 -1007.531)" fill="#45a3c4"/>
        <path id="Trazado_67819" data-name="Trazado 67819" d="M1715.681,1055.743c-.419,5.2-4.27,9.79-9.838,8.444a3.728,3.728,0,0,1-1.337-.556,7.014,7.014,0,0,1-1.218-1.4c-2.157-2.7-6.736-4.125-9.935-2.85-1.01.4-2.025.847-3.053,1.262-.026.013-.058.022-.084.035a15.649,15.649,0,0,1-6.737,1.438,1.961,1.961,0,0,1-.282-.031,6.916,6.916,0,0,1-4.151-2.541,5.917,5.917,0,0,1-1.134-1.782c-.057-.137-.106-.273-.15-.41a6.509,6.509,0,0,0,2.74.26c-.044.053-.1.1-.141.155a1.832,1.832,0,0,0,.8,3.022c2.065.454,3.971-.335,5.779-1.249,1.689-.851,3.922-1.474,5.25-2.85a2.269,2.269,0,0,0,.578-.891,1.054,1.054,0,0,0-.176-1.006,1.607,1.607,0,0,0-1.209-.375,26.089,26.089,0,0,0-4.544.331c1.826-.3,5.594-4.235,1.893-4.6a7.127,7.127,0,0,0-1.977.181l-1.76.331a10.692,10.692,0,0,1,5.806-1.4,1.8,1.8,0,0,1,.794.168c.984.547.344,1.509.472,2.285a3.168,3.168,0,0,0,2.082,2.338,5.519,5.519,0,0,0,4.284,0,4.438,4.438,0,0,0,2.321-3.04,8.54,8.54,0,0,0,.11-1.738V1047.7a10.97,10.97,0,0,0-1.275-2.369c-1.094-1.526-2.554-2.753-3.745-4.2a14.422,14.422,0,0,1-.9-1.218,24.279,24.279,0,0,1-3.834-9.251,14.374,14.374,0,0,0,2.162,4.337,52.671,52.671,0,0,0,3.591,4q.529.609,1.1,1.191c.022.027.049.049.071.071a21.579,21.579,0,0,0,2.638,2.3c1.037.754,2.113,1.5,3.106,2.232a12.264,12.264,0,0,0,6.525,2.66c2.012.11,3.009.04,4.041,1.875A11.473,11.473,0,0,1,1715.681,1055.743Z" transform="translate(-1650.724 -1023.977)" fill="#2684a5"/>
        <path id="Trazado_67822" data-name="Trazado 67822" d="M1618.521,1096.122a2.087,2.087,0,0,0-1.19.315,1.488,1.488,0,0,0-.141,1.976,3.88,3.88,0,0,0,1.786,1.213,24.938,24.938,0,0,0,20.809-.938c.375-.2-3.516-3.147-4.041-3.278-1.907-.474-2.978.609-4.907.806C1626.7,1096.64,1622.655,1095.926,1618.521,1096.122Z" transform="translate(-1607.443 -1069.926)" fill="#45a3c4"/>
      </g>
    </g>
    <g id="Grupo_26325" data-name="Grupo 26325" transform="translate(599.138 472.412)">
      <path id="Trazado_67823" data-name="Trazado 67823" d="M1200.48,1201.143c0,.247.313.578.309.926a2.4,2.4,0,0,1-.472,1.328,5.475,5.475,0,0,1-2.625,1.65,25.46,25.46,0,0,1-5.708,1.174c-1.438.181-4.27-.388-5.259.962-.318.437,1.862.759,2.1.768a18.936,18.936,0,0,0,4.539-.891,1.015,1.015,0,0,1,.627-.013.714.714,0,0,1,.3.922,1.993,1.993,0,0,1-.715.794c-.088.066-.176.132-.269.2-4.407,3.282-8.744,4.037-14.1,3.644l-.988-.079a93.207,93.207,0,0,1-19.442-3.966c-7.05-2.179-15.189,2.444-21.564,5.025-5.62,2.272-20.779,9.838-26.377,4.218a6.267,6.267,0,0,1-1.187-1.685c-1.663-3.41-1.085-7.442-.468-11.188a17.307,17.307,0,0,1,2.1-6.75c3.741-5.74,24.145-2.978,30.82-3.9,11.025-1.517,21.908-3.922,32.959-5.245,6.494-.777,13.345-1.134,19.3,1.57a2.535,2.535,0,0,1,1.429,1.2,1.841,1.841,0,0,1-1.315,2.2c-.477.154-1.924-.3-2.237.071-.662.763,2.625,1.372,3.062,1.4a31.943,31.943,0,0,1,4.116.172,3.7,3.7,0,0,1,3.044,2.44,2.2,2.2,0,0,1-.684,2.06C1201.31,1200.57,1200.485,1200.384,1200.48,1201.143Z" transform="translate(-1108.56 -1188.472)" fill="#f29c7d"/>
      <path id="Trazado_67824" data-name="Trazado 67824" d="M1183.819,1248.189a93.206,93.206,0,0,1-19.442-3.966c-7.05-2.179-15.189,2.444-21.564,5.025-5.62,2.272-20.779,9.838-26.377,4.218,2.1-.177,4.557.141,6.5-.088a50.666,50.666,0,0,0,9.851-2.277,95.923,95.923,0,0,0,18.286-8.726c2.907-1.716,5.933-3.538,9.3-3.724,3.1-.172,6.083,1.068,8.911,2.338Q1176.685,1244.318,1183.819,1248.189Z" transform="translate(-1114.16 -1224.136)" fill="#dd8b72"/>
    </g>
    <g id="Grupo_26326" data-name="Grupo 26326" transform="translate(681.041 252.811)" style="mix-blend-mode: screen;isolation: isolate">
      <rect id="Rectngulo_25941" data-name="Rectngulo 25941" width="27.801" height="76.595" transform="translate(24.397)" fill="#606060"/>
      <rect id="Rectngulo_25942" data-name="Rectngulo 25942" width="27.801" height="76.595" transform="translate(0 52.198) rotate(-90)" fill="#606060"/>
    </g>
    <g id="Grupo_26329" data-name="Grupo 26329" transform="translate(598.305 517.665)">
      <g id="Grupo_26327" data-name="Grupo 26327" transform="translate(187.757 18.775)">
        <path id="Trazado_67825" data-name="Trazado 67825" d="M1759.94,1410.377a3.251,3.251,0,0,0-2.021-.353l-.2.03a3.247,3.247,0,0,0-1,.323Z" transform="translate(-1756.297 -1409.989)" fill="#272c4d"/>
        <path id="Trazado_67826" data-name="Trazado 67826" d="M1758.484,1410.377a3.252,3.252,0,0,0-1-.323l-.2-.03a3.252,3.252,0,0,0-2.021.353Z" transform="translate(-1755.261 -1409.989)" fill="#272c4d"/>
      </g>
      <g id="Grupo_26328" data-name="Grupo 26328" transform="translate(28.444 18.775)">
        <path id="Trazado_67827" data-name="Trazado 67827" d="M1208.764,1410.377a3.252,3.252,0,0,0-2.021-.353l-.2.03a3.251,3.251,0,0,0-1,.323Z" transform="translate(-1205.12 -1409.989)" fill="#272c4d"/>
        <path id="Trazado_67828" data-name="Trazado 67828" d="M1207.307,1410.377a3.249,3.249,0,0,0-1-.323l-.2-.03a3.251,3.251,0,0,0-2.021.353Z" transform="translate(-1204.085 -1409.989)" fill="#272c4d"/>
      </g>
      <path id="Trazado_67829" data-name="Trazado 67829" d="M1328.289,1364.2a4.71,4.71,0,0,0,1.256-3.2v-11.229a4.732,4.732,0,0,0-4.732-4.732h-214.4a4.732,4.732,0,0,0-4.732,4.732v11.229a4.71,4.71,0,0,0,1.256,3.2Z" transform="translate(-1105.677 -1345.033)" fill="#fff"/>
    </g>
  </g>
</svg>
