<svg xmlns="http://www.w3.org/2000/svg" width="259.609" height="414.412" viewBox="0 0 259.609 414.412">
  <g id="Grupo_26054" data-name="Grupo 26054" transform="translate(-417.188 -163.189)">
    <g id="Grupo_26052" data-name="Grupo 26052">
      <g id="Grupo_26047" data-name="Grupo 26047">
        <g id="Grupo_26045" data-name="Grupo 26045">
          <g id="Grupo_25952" data-name="Grupo 25952">
            <g id="Grupo_25951" data-name="Grupo 25951">
              <path id="Trazado_67460" data-name="Trazado 67460" d="M487.11,279.678A72.348,72.348,0,0,0,492.7,299.34c4.392,9.853,10.962,18.691,14.881,28.735a59.86,59.86,0,0,1,3.023,32.849c-1.5,7.843-4.594,15.559-4,23.517.894,11.922,8.918,16.245,16.949,23.224,9.435,8.2,15.715,16.228,28.542,19.775,16.131,4.46,33.309,3.222,49.862.679a327.576,327.576,0,0,0,37.378-8c5.229-1.442,10.472-3.036,15.19-5.679,14.483-8.1,22.055-26.546,17.366-42.287-3.091-10.377-10.725-19.115-13.084-29.676-3.212-14.388,3.919-29.289,2.179-43.923-2.406-20.258-19.849-34.182-27.029-52.531-6.375-16.293-4.549-32.347-16.729-46.793-15.568-18.463-43.58-27.19-67.332-22.8-25.991,4.8-42.965,28.952-52.574,51.213-4.582,10.613-8.791,21.525-10.285,32.962A72.123,72.123,0,0,0,487.11,279.678Z" fill="#683936"/>
            </g>
          </g>
          <g id="Grupo_25954" data-name="Grupo 25954">
            <g id="Grupo_25953" data-name="Grupo 25953">
              <path id="Trazado_67461" data-name="Trazado 67461" d="M558.9,326.537s11.837,15.953-1.543,26.76-31.017,7.814-37.705,41.265c-1.922,9.6-25.111,25.475-28.089,42.266-3.829,21.576,18.78,20.063,17.648,33.252-1.313,15.289-13.27,26.153-13.27,26.153l161.175-3.991s13.638-113.789-9.005-123.051-38.529-16.644-43.676-28.994a222.111,222.111,0,0,1-8.859-27.414Z" fill="#f8ac68"/>
            </g>
          </g>
          <g id="Grupo_25956" data-name="Grupo 25956">
            <g id="Grupo_25955" data-name="Grupo 25955">
              <path id="Trazado_67462" data-name="Trazado 67462" d="M530.682,439.951a6.487,6.487,0,1,1-6.487-6.488A6.488,6.488,0,0,1,530.682,439.951Z" fill="#f59c5c"/>
            </g>
          </g>
          <g id="Grupo_25958" data-name="Grupo 25958">
            <g id="Grupo_25957" data-name="Grupo 25957">
              <path id="Trazado_67463" data-name="Trazado 67463" d="M522.652,443.879a6.716,6.716,0,1,1-6.716-6.717A6.717,6.717,0,0,1,522.652,443.879Z" fill="#f59c5c"/>
            </g>
          </g>
          <g id="Grupo_25960" data-name="Grupo 25960">
            <g id="Grupo_25959" data-name="Grupo 25959">
              <path id="Trazado_67464" data-name="Trazado 67464" d="M561.412,348.275c-3.451,12.924-14.935,26.522-22.49,37.187a205.483,205.483,0,0,1-20.147,24.844c-7.919,8.123-15.494,13.528-25.23,3.534-4.348-4.461-7.566-10.813-5.955-16.83a4.357,4.357,0,0,1,1.826-2.814c1.945-1.079,4.816.482,6.426-1.055,1.254-1.195.706-3.33,1.432-4.9.9-1.932,3.376-2.454,5.505-2.526s4.506-.031,6.055-1.492a11.641,11.641,0,0,0,1.69-2.475c4.55-7.363,14.9-12.756,22.333-16.634,4.633-2.415,9.354-4.653,13.909-7.214C549.644,356.283,560.564,351.46,561.412,348.275Z" fill="#25b1b1"/>
            </g>
          </g>
          <g id="Grupo_25962" data-name="Grupo 25962">
            <g id="Grupo_25961" data-name="Grupo 25961">
              <path id="Trazado_67465" data-name="Trazado 67465" d="M491.289,403.847s9.264.911,16.227,7.2,12.5,10.351,10.838,13.265a7.516,7.516,0,0,1-9.164,3.65c-4.438-1.244-6.325-1.549-6.325-1.549s-2.394,9.832,5.116,27.121c-6.532-2.312-13.262-13.75-17.01-20.264S484.967,405.9,491.289,403.847Z" fill="#f59c5c"/>
            </g>
          </g>
          <g id="Grupo_25964" data-name="Grupo 25964">
            <g id="Grupo_25963" data-name="Grupo 25963">
              <path id="Trazado_67466" data-name="Trazado 67466" d="M488.116,400.146s9.264.909,16.228,7.2,12.5,10.353,10.837,13.264a7.521,7.521,0,0,1-9.165,3.653c-4.438-1.246-6.325-1.55-6.325-1.55s-2.392,9.832,5.118,27.121c-6.534-2.312-13.264-13.75-17.01-20.266S481.8,402.2,488.116,400.146Z" fill="#ffbb7e"/>
            </g>
          </g>
          <g id="Grupo_25966" data-name="Grupo 25966">
            <g id="Grupo_25965" data-name="Grupo 25965">
              <path id="Trazado_67467" data-name="Trazado 67467" d="M566.4,419.764s-3.138,31.592-22.689,39.974C543.715,459.738,575.754,457.127,566.4,419.764Z" fill="#f59c5c"/>
            </g>
          </g>
          <g id="Grupo_25968" data-name="Grupo 25968">
            <g id="Grupo_25967" data-name="Grupo 25967">
              <path id="Trazado_67468" data-name="Trazado 67468" d="M563.787,343.621c3.422.2,24.04.817,37.59-11.746.019-.1.039-.2.059-.3a159.634,159.634,0,0,1-4.079-18.237l-20.521,7.345L560.82,330.07C562.526,333.164,564.639,338.29,563.787,343.621Z" fill="#f59c5c"/>
            </g>
          </g>
          <g id="Grupo_25970" data-name="Grupo 25970">
            <g id="Grupo_25969" data-name="Grupo 25969">
              <path id="Trazado_67469" data-name="Trazado 67469" d="M558.426,507.113l100.431-16.96s11.825-100.176-5.992-118.587c-17.013-17.581-43.516-19.328-48.662-31.679,0,0-12.859,62.33-35.828,87.387C557.412,463.294,558.426,507.113,558.426,507.113Z" fill="#25b1b1"/>
            </g>
          </g>
          <g id="Grupo_25972" data-name="Grupo 25972">
            <g id="Grupo_25971" data-name="Grupo 25971">
              <path id="Trazado_67470" data-name="Trazado 67470" d="M623.508,406.059s5.931,53.447,3.06,73.869-54.129,14.206-54.129,14.206S618.516,462.419,623.508,406.059Z" fill="#009890"/>
            </g>
          </g>
          <g id="Grupo_25981" data-name="Grupo 25981">
            <g id="Grupo_25974" data-name="Grupo 25974">
              <g id="Grupo_25973" data-name="Grupo 25973">
                <path id="Trazado_67471" data-name="Trazado 67471" d="M488.908,464.834s-36.886,4.988-37.318,47.527S553.23,580.7,596.721,577.3c42.659-3.327,81.27-32.725,80.047-48.649s-6.584-49.7-51.856-53.62S488.908,464.834,488.908,464.834Z" fill="#e3effa"/>
              </g>
            </g>
            <g id="Grupo_25976" data-name="Grupo 25976">
              <g id="Grupo_25975" data-name="Grupo 25975">
                <path id="Trazado_67472" data-name="Trazado 67472" d="M676.769,528.654a89.275,89.275,0,0,0-1.8-12.643c-2.256,16.294-39.241,43.188-79.94,46.362-39.9,3.115-129.109-18.348-143.222-54.765-.122,1.532-.2,3.111-.215,4.753C451.158,554.9,553.23,580.7,596.721,577.3,639.38,573.975,677.991,544.578,676.769,528.654Z" fill="#d1e0e8"/>
              </g>
            </g>
            <g id="Grupo_25978" data-name="Grupo 25978">
              <g id="Grupo_25977" data-name="Grupo 25977">
                <path id="Trazado_67473" data-name="Trazado 67473" d="M509.91,503.029s-24.475-12.144-35.178,9.855C474.732,512.884,491.492,499.379,509.91,503.029Z" fill="#d1e0e8"/>
              </g>
            </g>
            <g id="Grupo_25980" data-name="Grupo 25980">
              <g id="Grupo_25979" data-name="Grupo 25979">
                <path id="Trazado_67474" data-name="Trazado 67474" d="M582.194,506.81s33.452,2.529,29.7,32.544C611.9,539.354,603.674,514.522,582.194,506.81Z" fill="#d1e0e8"/>
              </g>
            </g>
          </g>
          <g id="Grupo_25985" data-name="Grupo 25985">
            <g id="Grupo_25984" data-name="Grupo 25984">
              <g id="Grupo_25983" data-name="Grupo 25983">
                <g id="Grupo_25982" data-name="Grupo 25982">
                  <path id="Trazado_67475" data-name="Trazado 67475" d="M608.693,241.076s21.984-7.794,24,17.492c1.462,18.3-21.825,18.619-21.825,18.619Z" fill="#f59c5c"/>
                </g>
              </g>
            </g>
          </g>
          <g id="Grupo_25988" data-name="Grupo 25988">
            <g id="Grupo_25987" data-name="Grupo 25987">
              <g id="Grupo_25986" data-name="Grupo 25986">
                <path id="Trazado_67476" data-name="Trazado 67476" d="M612.273,221.723c10.184,25.259,8.679,84.181-19.63,105.521-23.95,18.057-56.342,15.614-76.281-7.576C491.928,291.258,452.5,203.074,537.4,184.249,575.351,175.836,602.086,196.465,612.273,221.723Z" fill="#fbb774"/>
              </g>
            </g>
          </g>
          <g id="Grupo_25995" data-name="Grupo 25995">
            <g id="Grupo_25991" data-name="Grupo 25991">
              <g id="Grupo_25990" data-name="Grupo 25990">
                <g id="Grupo_25989" data-name="Grupo 25989">
                  <path id="Trazado_67477" data-name="Trazado 67477" d="M532.54,322.815a1.291,1.291,0,0,1-1.791-.359c-.284-.427-.636-.9-1.007-1.4-1.488-2.005-3.175-4.28-2.9-6.306a1.292,1.292,0,1,1,2.56.351c-.134.982,1.4,3.049,2.41,4.416.4.538.778,1.049,1.083,1.508A1.29,1.29,0,0,1,532.54,322.815Z" fill="#f8e5cf"/>
                </g>
              </g>
            </g>
            <g id="Grupo_25994" data-name="Grupo 25994">
              <g id="Grupo_25993" data-name="Grupo 25993">
                <g id="Grupo_25992" data-name="Grupo 25992">
                  <path id="Trazado_67478" data-name="Trazado 67478" d="M537.418,319.508a1.292,1.292,0,0,1-1.752-.3,13.269,13.269,0,0,1-1.867-3.99c-.07-.223-.139-.468-.209-.73-.221-.808-.588-2.163-1.113-2.37a1.292,1.292,0,1,1,.948-2.4c1.729.681,2.266,2.654,2.659,4.094l.18.634a10.969,10.969,0,0,0,1.472,3.218,1.291,1.291,0,0,1-.261,1.809C537.457,319.482,537.438,319.494,537.418,319.508Z" fill="#f8e5cf"/>
                </g>
              </g>
            </g>
          </g>
          <g id="Grupo_26002" data-name="Grupo 26002">
            <g id="Grupo_25998" data-name="Grupo 25998">
              <g id="Grupo_25997" data-name="Grupo 25997">
                <g id="Grupo_25996" data-name="Grupo 25996">
                  <path id="Trazado_67479" data-name="Trazado 67479" d="M593.495,305.771a1.292,1.292,0,0,1-1.791-.359c-.284-.427-.637-.9-1.009-1.4-1.486-2-3.173-4.279-2.9-6.306a1.293,1.293,0,0,1,2.562.351c-.135.981,1.4,3.049,2.41,4.416.4.538.777,1.049,1.082,1.508A1.29,1.29,0,0,1,593.495,305.771Z" fill="#f8e5cf"/>
                </g>
              </g>
            </g>
            <g id="Grupo_26001" data-name="Grupo 26001">
              <g id="Grupo_26000" data-name="Grupo 26000">
                <g id="Grupo_25999" data-name="Grupo 25999">
                  <path id="Trazado_67480" data-name="Trazado 67480" d="M598.371,302.464a1.291,1.291,0,0,1-1.75-.3,13.3,13.3,0,0,1-1.868-3.99c-.069-.223-.138-.469-.208-.73-.221-.809-.588-2.163-1.113-2.37a1.292,1.292,0,1,1,.947-2.4c1.73.682,2.267,2.654,2.66,4.1l.18.634a10.955,10.955,0,0,0,1.472,3.218,1.292,1.292,0,0,1-.261,1.809C598.411,302.438,598.391,302.451,598.371,302.464Z" fill="#f8e5cf"/>
                </g>
              </g>
            </g>
          </g>
          <g id="Grupo_26004" data-name="Grupo 26004">
            <g id="Grupo_26003" data-name="Grupo 26003">
              <path id="Trazado_67481" data-name="Trazado 67481" d="M572.871,270.625c1.264,4.613,4.688,7.7,7.637,6.891s4.319-5.21,3.054-9.821-4.685-7.7-7.632-6.892S571.606,266.014,572.871,270.625Z" fill="#683936"/>
            </g>
          </g>
          <g id="Grupo_26006" data-name="Grupo 26006">
            <g id="Grupo_26005" data-name="Grupo 26005">
              <path id="Trazado_67482" data-name="Trazado 67482" d="M530.559,285.647c1.08,4.66-.465,9-3.444,9.691s-6.279-2.529-7.355-7.186.461-9,3.437-9.693S529.477,280.988,530.559,285.647Z" fill="#683936"/>
            </g>
          </g>
          <g id="Grupo_26008" data-name="Grupo 26008">
            <g id="Grupo_26007" data-name="Grupo 26007">
              <path id="Trazado_67483" data-name="Trazado 67483" d="M555.906,318.105a11.962,11.962,0,0,1-8.576-3.689,1.044,1.044,0,1,1,1.477-1.476,10.068,10.068,0,0,0,11.645,2.086c5.009-2.15,8.7-7.182,8.579-11.7a1.044,1.044,0,0,1,2.088-.054c.139,5.328-4.092,11.208-9.843,13.677A13.593,13.593,0,0,1,555.906,318.105Z" fill="#b84a1b"/>
            </g>
          </g>
          <g id="Grupo_26010" data-name="Grupo 26010">
            <g id="Grupo_26009" data-name="Grupo 26009">
              <path id="Trazado_67484" data-name="Trazado 67484" d="M557.35,298.706a1.1,1.1,0,0,1-.211-.022l-9.388-1.926a1.042,1.042,0,0,1-.643-1.623c4.145-5.9.222-13.023.182-13.094a1.044,1.044,0,0,1,1.821-1.023c.177.317,4.06,7.38.521,13.994l7.927,1.626a1.045,1.045,0,0,1-.209,2.068Z" fill="#b84a1b"/>
            </g>
          </g>
          <g id="Grupo_26012" data-name="Grupo 26012">
            <g id="Grupo_26011" data-name="Grupo 26011">
              <path id="Trazado_67485" data-name="Trazado 67485" d="M536.8,209.163l5.158,52.815-61.469,23.065S447.865,199.492,529.726,169.1c76.182-28.281,104.629,54.072,104.629,54.072l-38.5,3.483,20.479,16.034S575.324,243.736,536.8,209.163Z" fill="#683936"/>
            </g>
          </g>
          <g id="Grupo_26014" data-name="Grupo 26014">
            <g id="Grupo_26013" data-name="Grupo 26013">
              <path id="Trazado_67486" data-name="Trazado 67486" d="M576.743,247.3c-1.944.12-4.29-.808-5.978-.74-2.29.092-5.9,1.471-5.394-2.512.858-6.694,17.613-3.527,14.029,1.829A3.219,3.219,0,0,1,576.743,247.3Z" fill="#683936"/>
            </g>
          </g>
          <g id="Grupo_26016" data-name="Grupo 26016">
            <g id="Grupo_26015" data-name="Grupo 26015">
              <path id="Trazado_67487" data-name="Trazado 67487" d="M491.963,267.636a1.047,1.047,0,0,1-1.008-.77c-9.4-34.287,10.416-66.235,10.618-66.553a1.045,1.045,0,1,1,1.768,1.116c-.2.311-19.522,31.5-10.369,64.885a1.045,1.045,0,0,1-.732,1.284A1.016,1.016,0,0,1,491.963,267.636Z" fill="#56302d"/>
            </g>
          </g>
          <g id="Grupo_26018" data-name="Grupo 26018">
            <g id="Grupo_26017" data-name="Grupo 26017">
              <path id="Trazado_67488" data-name="Trazado 67488" d="M522.89,255.486a1.041,1.041,0,0,1-.759-.326c-20.082-21.2-10.272-51.013-10.171-51.312a1.046,1.046,0,0,1,1.98.673c-.1.286-9.492,28.932,9.708,49.2a1.045,1.045,0,0,1-.758,1.765Z" fill="#56302d"/>
            </g>
          </g>
          <g id="Grupo_26020" data-name="Grupo 26020">
            <g id="Grupo_26019" data-name="Grupo 26019">
              <path id="Trazado_67489" data-name="Trazado 67489" d="M608.49,212.41a1.04,1.04,0,0,1-.768-.337c-25.842-27.994-58.962-24.016-59.293-23.972a1.045,1.045,0,1,1-.272-2.073c.341-.047,34.535-4.155,61.1,24.627a1.047,1.047,0,0,1-.769,1.755Z" fill="#56302d"/>
            </g>
          </g>
          <g id="Grupo_26022" data-name="Grupo 26022">
            <g id="Grupo_26021" data-name="Grupo 26021">
              <path id="Trazado_67490" data-name="Trazado 67490" d="M592.474,212.41a1.04,1.04,0,0,1-.672-.245,49.122,49.122,0,0,0-28.6-11.352,1.046,1.046,0,1,1,0-2.091,50.449,50.449,0,0,1,29.943,11.842,1.046,1.046,0,0,1-.674,1.846Z" fill="#56302d"/>
            </g>
          </g>
          <g id="Grupo_26040" data-name="Grupo 26040">
            <g id="Grupo_26024" data-name="Grupo 26024">
              <g id="Grupo_26023" data-name="Grupo 26023">
                <path id="Trazado_67491" data-name="Trazado 67491" d="M544.375,459.042c-18.48-3.9-22.451-6.587-33.582.214-14.332,8.758-23.628,15.161-5.678,28.6,22.464,16.812,60.264,30.988,73.2,18.3,10.4-10.2,13.1-23.955-3.6-34.8C566.337,465.9,554.109,461.1,544.375,459.042Z" fill="#add8d2"/>
              </g>
            </g>
            <g id="Grupo_26026" data-name="Grupo 26026">
              <g id="Grupo_26025" data-name="Grupo 26025">
                <path id="Trazado_67492" data-name="Trazado 67492" d="M539.586,493.142c7.2-5.733,12.225-21.281,13.959-30.052.951-4.817.639-15.9.308-15.714,0,0,3.54-2.028,3.137-4.442s-4.82-1.58-4.82-1.58,1.273-4.493-.943-5.642-4.092,3.767-4.092,3.767-.893-4.327-3.882-4.037-1.575,4.7-1.575,4.7-2.619-3.566-5.336-1.659,1.549,5.214,1.549,5.214-2.387-.132-2.367,3,4.435,2.3,4.435,2.3c4.43,7.061-1.444,15.92-5.132,22.106-4.141,6.946-10.249,13.332-9.165,18.851C526.969,496.589,533.059,497.895,539.586,493.142Z" fill="#ffd5a1"/>
              </g>
            </g>
            <g id="Grupo_26028" data-name="Grupo 26028">
              <g id="Grupo_26027" data-name="Grupo 26027">
                <path id="Trazado_67493" data-name="Trazado 67493" d="M563.914,477.415a18.773,18.773,0,0,1,3.779-6.7,34.926,34.926,0,0,1,10.092-7.656c10.977-5.631,23.547.09,33.577,5.351,4.374,2.295,5.244-3.447,7.743-6.275,3.038-3.432,6.622,2.537,6.959,4.861.508,3.482-1.078,5.28-2.962,7.9-1.75,2.431-3.4,5.4-6.309,6.672-1.963.855-3.945.224-5.952-.008-2.558-.293-5.1.285-7.652.265-3.216-.027-5.113.1-7.882,1.84-4.719,2.976-8.233,7.572-13.495,9.772-5.984,2.507-14.847.224-17.683-5.983A14.04,14.04,0,0,1,563.914,477.415Z" fill="#ffd5a1"/>
              </g>
            </g>
            <g id="Grupo_26039" data-name="Grupo 26039">
              <g id="Grupo_26030" data-name="Grupo 26030">
                <g id="Grupo_26029" data-name="Grupo 26029">
                  <path id="Trazado_67494" data-name="Trazado 67494" d="M471.106,422.9c11.824-2.836,26.6-4.045,37.527,9.192,10.521,1.435,15.912,6.651,18.4,15.154,3.612,12.345-.277,26.652-13.431,35.546s-20.409,9.383-32.6,8.631c-11.469-.7-31.107-12.09-31.6-33.218C448.957,439.449,459.281,425.738,471.106,422.9Z" fill="#ffd5a1"/>
                </g>
              </g>
              <g id="Grupo_26032" data-name="Grupo 26032">
                <g id="Grupo_26031" data-name="Grupo 26031">
                  <path id="Trazado_67495" data-name="Trazado 67495" d="M502.336,440.169a.864.864,0,0,1-.237-1.694,6.041,6.041,0,0,0,3.2-1.959,2.091,2.091,0,0,0,.162-2.466.864.864,0,0,1,1.437-.959,3.8,3.8,0,0,1-.205,4.444,7.646,7.646,0,0,1-4.114,2.6A.863.863,0,0,1,502.336,440.169Z" fill="#683936"/>
                </g>
              </g>
              <g id="Grupo_26034" data-name="Grupo 26034">
                <g id="Grupo_26033" data-name="Grupo 26033">
                  <path id="Trazado_67496" data-name="Trazado 67496" d="M520.691,450.051a7.639,7.639,0,1,1-7.4-7.7A7.539,7.539,0,0,1,520.691,450.051Z" fill="#f59c5c"/>
                </g>
              </g>
              <g id="Grupo_26036" data-name="Grupo 26036">
                <g id="Grupo_26035" data-name="Grupo 26035">
                  <path id="Trazado_67497" data-name="Trazado 67497" d="M488.761,419.307c6.048,1.779,8.233,8.822,7.306,20.208-3.366-2.156-8.9-8.191-8.9-8.191s5.293,13.928,4.557,19.174c-1.547-1.06-9.719-5.683-9.719-5.683s-4.47,25.105,24.19,42.458c-1.579,1.575-6.286,5.952-23.553,6.839-16.924.871-33.265-10.784-37.719-28.169-2.207-8.612-3.9-23.853,10.286-37.017C461.93,422.686,476.3,415.632,488.761,419.307Z" fill="#d05931"/>
                </g>
              </g>
              <g id="Grupo_26038" data-name="Grupo 26038">
                <g id="Grupo_26037" data-name="Grupo 26037">
                  <path id="Trazado_67498" data-name="Trazado 67498" d="M484.82,462.919s-10.822,7.21-.117,14.755c7.2,5.078,13.623-2.945,13.623-2.945Z" fill="#ffd5a1"/>
                </g>
              </g>
            </g>
          </g>
          <g id="Grupo_26042" data-name="Grupo 26042">
            <g id="Grupo_26041" data-name="Grupo 26041">
              <path id="Trazado_67499" data-name="Trazado 67499" d="M617.728,504.548c-7.384,8.286-42.181,10.8-53.493,10.157-9.284-.525-41.237-5.742-47.957-7.539-3.835-1.025-15.248-2.838-19.11-3.689-7.4-1.631-20.478-8.1-25.3-10.422,6.768-1.78,14.614,1.588,18.862-2.387,7.1-6.641-.414-12.62-4.121-18.881a6.719,6.719,0,0,1-1.168-3.142,2.317,2.317,0,0,1,1.787-2.412,4.785,4.785,0,0,1,2.577.556,10.656,10.656,0,0,1,3.284,1.869,9.713,9.713,0,0,1,1.445,1.911c2.784,4.408,4.8,8.518,9.853,11.058,4.083,2.056,7.64.967,14.237,8.963s69.608-5.307,86.854-5.592S627.551,493.528,617.728,504.548Z" fill="#ffbb7e"/>
            </g>
          </g>
          <g id="Grupo_26044" data-name="Grupo 26044">
            <g id="Grupo_26043" data-name="Grupo 26043">
              <path id="Trazado_67500" data-name="Trazado 67500" d="M620.158,411.139s17.046,63.279-34.94,68.894c9.7,39.3,12.426,37.252,12.426,37.252s38.2-11.777,50.4-35.7c6.758-13.262,10.615-93.614-11.842-112.175S620.158,411.139,620.158,411.139Z" fill="#25b1b1"/>
            </g>
          </g>
        </g>
        <g id="Grupo_26046" data-name="Grupo 26046">
          <path id="Trazado_67501" data-name="Trazado 67501" d="M454.438,360.113c3.121-1.213,8.853,5.907,8.853,5.907s9.141-3.467,10.615-.78-2.886,10.252-2.886,10.252,6.362,6.889,4.021,9.852-10.637.422-10.637.422-4.108,6.417-8.127,6.871-3.691-9.986-3.691-9.986-8.621-1.973-9.043-5.608,8.359-6.59,8.359-6.59S451.318,361.324,454.438,360.113Z" fill="#f79f89"/>
        </g>
      </g>
    </g>
    <g id="Grupo_26053" data-name="Grupo 26053">
      <path id="Trazado_67504" data-name="Trazado 67504" d="M461.146,333.339a14.131,14.131,0,0,1-2.241-.189,1,1,0,1,1,.32-1.975,9.078,9.078,0,0,0,4.444-.23,1,1,0,0,1,.674,1.883A9.484,9.484,0,0,1,461.146,333.339ZM454.3,331.7a1,1,0,0,1-.4-.085,28.3,28.3,0,0,1-4.523-2.525,1,1,0,0,1,1.127-1.652,26.245,26.245,0,0,0,4.2,2.346,1,1,0,0,1-.4,1.916Zm-8.231-5.6a1,1,0,0,1-.7-.283A27.292,27.292,0,0,1,442,321.879a1,1,0,1,1,1.64-1.144,25.35,25.35,0,0,0,3.121,3.653,1,1,0,0,1-.7,1.717Zm-5.627-8.181a1,1,0,0,1-.929-.631,19.071,19.071,0,0,1-1.148-4.213c-.042-.281-.075-.591-.1-.928a1,1,0,0,1,1.995-.133c.018.278.045.534.08.765a17.075,17.075,0,0,0,1.028,3.771,1,1,0,0,1-.929,1.369Zm3.582-8.068h-.008a19.053,19.053,0,0,1-2.5-.172,1,1,0,1,1,.263-1.982,17.135,17.135,0,0,0,2.235.154h.008a12.1,12.1,0,0,0,2.4-.226,1,1,0,0,1,.4,1.959A14.043,14.043,0,0,1,444.019,309.856Zm-7.22-1.363a1,1,0,0,1-.339-.059,27.358,27.358,0,0,1-4.688-2.209,1,1,0,0,1,1.021-1.72,25.326,25.326,0,0,0,4.344,2.047,1,1,0,0,1-.338,1.941Zm2.712-.4a1,1,0,0,1-.991-1.141,25.17,25.17,0,0,1,1.226-5.059,1,1,0,1,1,1.876.692,23.275,23.275,0,0,0-1.123,4.65A1,1,0,0,1,439.511,308.1Zm11.294-.978a1,1,0,0,1-.834-1.551,4.123,4.123,0,0,0,.636-2.314c0-.208-.011-.422-.033-.644a6.052,6.052,0,0,0-.2-1.033,1,1,0,1,1,1.923-.551,7.927,7.927,0,0,1,.263,1.381,8.264,8.264,0,0,1,.044.847,6.087,6.087,0,0,1-.967,3.417A1,1,0,0,1,450.8,307.119ZM428.266,303.4a1,1,0,0,1-.675-.263,21.477,21.477,0,0,1-3.412-3.966,1,1,0,1,1,1.668-1.1,19.5,19.5,0,0,0,3.1,3.594,1,1,0,0,1-.676,1.738Zm15.183-4.226a1,1,0,0,1-.565-1.825,5.993,5.993,0,0,1,5.708-.649,1,1,0,0,1-.772,1.845,3.981,3.981,0,0,0-3.808.455A.993.993,0,0,1,443.449,299.174Zm-20.86-3.922a1,1,0,0,1-.906-.577,43.644,43.644,0,0,1-1.882-4.757,1,1,0,0,1,1.9-.628,41.69,41.69,0,0,0,1.794,4.538,1,1,0,0,1-.9,1.424Zm-3.162-9.468a1,1,0,0,1-.976-.784c-.362-1.64-.652-3.33-.86-5.02a1,1,0,0,1,1.986-.245c.2,1.628.478,3.254.827,4.833a1,1,0,0,1-.977,1.216Zm-1.219-9.911a1,1,0,0,1-1-.972q-.021-.73-.021-1.459c0-1.224.044-2.448.13-3.64a1.013,1.013,0,0,1,1.07-.925,1,1,0,0,1,.925,1.069c-.083,1.144-.125,2.321-.125,3.5q0,.7.02,1.4a1,1,0,0,1-.972,1.027Zm.742-9.958a.963.963,0,0,1-.184-.017,1,1,0,0,1-.8-1.166,38.9,38.9,0,0,1,1.262-4.972,1,1,0,0,1,1.9.624,36.823,36.823,0,0,0-1.2,4.714A1,1,0,0,1,418.95,265.915Zm3.155-9.45A1,1,0,0,1,421.22,255a25.381,25.381,0,0,1,2.755-4.226,1,1,0,0,1,1.554,1.26,23.343,23.343,0,0,0-2.537,3.892A1,1,0,0,1,422.105,256.465Z" fill="#f79f89"/>
    </g>
  </g>
</svg>
