<svg xmlns="http://www.w3.org/2000/svg" width="303.547" height="326.77" viewBox="0 0 303.547 326.77">
  <g id="Grupo_25823" data-name="Grupo 25823" transform="translate(-147.104 -406.025)">
    <g id="Grupo_25763" data-name="Grupo 25763" transform="translate(190.095 470.132)">
      <g id="Grupo_25762" data-name="Grupo 25762">
        <g id="Grupo_25761" data-name="Grupo 25761">
          <circle id="Elipse_1830" data-name="Elipse 1830" cx="112.543" cy="112.543" r="112.543" fill="#fae7b7"/>
        </g>
      </g>
    </g>
    <g id="Grupo_25767" data-name="Grupo 25767" transform="translate(155.181 556.28)">
      <g id="Grupo_25764" data-name="Grupo 25764" transform="translate(0)">
        <path id="Trazado_67214" data-name="Trazado 67214" d="M157.626,582.192c-.054,0-.109,0-.165-.007a1.878,1.878,0,0,1-1.709-2.034c.344-3.947.852-7.923,1.511-11.815a1.877,1.877,0,1,1,3.7.625c-.641,3.793-1.136,7.668-1.471,11.516A1.878,1.878,0,0,1,157.626,582.192Z" transform="translate(-155.745 -566.77)" fill="#ed8730"/>
      </g>
      <g id="Grupo_25765" data-name="Grupo 25765" transform="translate(0.188 39.363)">
        <path id="Trazado_67215" data-name="Trazado 67215" d="M188.765,688.665a1.873,1.873,0,0,1-1.471-.709,148.443,148.443,0,0,1-15.3-23.508,1.878,1.878,0,1,1,3.328-1.741,144.807,144.807,0,0,0,14.915,22.912,1.877,1.877,0,0,1-1.468,3.046Zm-25.556-48.859a1.878,1.878,0,0,1-1.8-1.339,147.74,147.74,0,0,1-5.454-27.518,1.878,1.878,0,1,1,3.736-.378,144.014,144.014,0,0,0,5.316,26.818,1.879,1.879,0,0,1-1.8,2.417Z" transform="translate(-155.947 -608.882)" fill="#ed8730"/>
      </g>
      <g id="Grupo_25766" data-name="Grupo 25766" transform="translate(50.329 135.35)">
        <path id="Trazado_67216" data-name="Trazado 67216" d="M220.681,722.632a1.865,1.865,0,0,1-1.1-.361c-3.195-2.331-6.336-4.82-9.334-7.4a1.878,1.878,0,0,1,2.449-2.847c2.923,2.514,5.984,4.941,9.1,7.213a1.878,1.878,0,0,1-1.109,3.395Z" transform="translate(-209.588 -711.569)" fill="#ed8730"/>
      </g>
    </g>
    <g id="Grupo_25770" data-name="Grupo 25770" transform="translate(279.207 434.98)">
      <g id="Grupo_25768" data-name="Grupo 25768" transform="translate(31.269)">
        <path id="Trazado_67217" data-name="Trazado 67217" d="M335.457,442a1.837,1.837,0,0,1-.276-.021c-3.808-.559-7.692-.971-11.545-1.224a1.878,1.878,0,1,1,.246-3.747c3.953.259,7.938.681,11.845,1.255a1.878,1.878,0,0,1-.27,3.736Z" transform="translate(-321.882 -437.001)" fill="#ed8730"/>
      </g>
      <g id="Grupo_25769" data-name="Grupo 25769" transform="translate(0 0.009)">
        <path id="Trazado_67218" data-name="Trazado 67218" d="M290.305,442.018a1.878,1.878,0,0,1-.272-3.736c3.9-.577,7.889-1,11.844-1.267a1.878,1.878,0,0,1,.25,3.747c-3.855.257-7.74.672-11.544,1.235A1.866,1.866,0,0,1,290.305,442.018Z" transform="translate(-288.43 -437.011)" fill="#ed8730"/>
      </g>
    </g>
    <g id="Grupo_25774" data-name="Grupo 25774" transform="translate(384.424 478.144)">
      <g id="Grupo_25771" data-name="Grupo 25771" transform="translate(0 215.362)">
        <path id="Trazado_67219" data-name="Trazado 67219" d="M402.872,724.455a1.878,1.878,0,0,1-1.078-3.417c3.159-2.21,6.267-4.576,9.24-7.031a1.878,1.878,0,0,1,2.392,2.895c-3.049,2.52-6.238,4.947-9.479,7.213A1.87,1.87,0,0,1,402.872,724.455Z" transform="translate(-400.992 -713.576)" fill="#0c6bc2"/>
      </g>
      <g id="Grupo_25772" data-name="Grupo 25772" transform="translate(27.607 29.68)">
        <path id="Trazado_67220" data-name="Trazado 67220" d="M432.4,686.4a1.878,1.878,0,0,1-1.428-3.1,145.04,145.04,0,0,0,14.656-20.6,1.878,1.878,0,0,1,3.239,1.9,148.781,148.781,0,0,1-15.036,21.133A1.874,1.874,0,0,1,432.4,686.4Zm25.819-44a1.879,1.879,0,0,1-1.761-2.53,143.563,143.563,0,0,0,6.648-24.386,1.878,1.878,0,0,1,3.7.666,147.392,147.392,0,0,1-6.823,25.024A1.878,1.878,0,0,1,458.222,642.392Zm9.045-50.207h-.007a1.878,1.878,0,0,1-1.871-1.884v-.519a145.734,145.734,0,0,0-2.1-24.679,1.878,1.878,0,0,1,3.7-.638,149.392,149.392,0,0,1,2.157,25.317v.533A1.877,1.877,0,0,1,467.268,592.185Zm-8.687-50.28a1.878,1.878,0,0,1-1.766-1.239,143.957,143.957,0,0,0-10.667-22.919,1.878,1.878,0,1,1,3.252-1.878,147.709,147.709,0,0,1,10.947,23.518,1.878,1.878,0,0,1-1.766,2.517Z" transform="translate(-430.527 -514.932)" fill="#ed8730"/>
      </g>
      <g id="Grupo_25773" data-name="Grupo 25773" transform="translate(20.345)">
        <path id="Trazado_67221" data-name="Trazado 67221" d="M432.557,495.629a1.872,1.872,0,0,1-1.439-.669c-2.478-2.949-5.109-5.837-7.819-8.584a1.877,1.877,0,1,1,2.672-2.638c2.781,2.817,5.48,5.779,8.022,8.805a1.877,1.877,0,0,1-1.437,3.086Z" transform="translate(-422.758 -483.179)" fill="#0c6bc2"/>
      </g>
    </g>
    <g id="Grupo_25784" data-name="Grupo 25784" transform="translate(295.615 406.026)">
      <g id="Grupo_25775" data-name="Grupo 25775" transform="translate(49.174)">
        <path id="Trazado_67222" data-name="Trazado 67222" d="M361.146,421.153a7.013,7.013,0,0,1-.547-2.7c0-5.753,7.215-10.418,16.117-10.418s16.116,4.664,16.116,10.418a4.827,4.827,0,0,1-.651,2.939" transform="translate(-358.721 -406.157)" fill="#64bdfa"/>
        <path id="Trazado_67223" data-name="Trazado 67223" d="M392.047,423.138a1.878,1.878,0,0,1-1.635-2.8,3.057,3.057,0,0,0,.41-2.017c0-4.629-6.521-8.539-14.238-8.539s-14.239,3.91-14.239,8.539a5.163,5.163,0,0,0,.4,1.983,1.878,1.878,0,1,1-3.47,1.437,8.9,8.9,0,0,1-.69-3.419c0-6.895,7.9-12.3,17.995-12.3s17.994,5.4,17.994,12.3a6.632,6.632,0,0,1-.893,3.861A1.878,1.878,0,0,1,392.047,423.138Z" transform="translate(-358.59 -406.026)" fill="#0c6bc2"/>
      </g>
      <g id="Grupo_25779" data-name="Grupo 25779" transform="translate(0 8.293)">
        <g id="Grupo_25776" data-name="Grupo 25776" transform="translate(37.748)">
          <path id="Trazado_67224" data-name="Trazado 67224" d="M365.616,444.565l-.024-.022a35.326,35.326,0,0,0,29.151,4.76l2.922,3.571h5.424a24.019,24.019,0,0,0,.353-3.517c.556-19.6-12.372-32.449-27.524-32.449s-28.081,12.85-27.525,32.449c.02.691.066,1.33.128,1.917l6.624,4.846Z" transform="translate(-346.498 -415.029)" fill="#64bdfa"/>
          <path id="Trazado_67225" data-name="Trazado 67225" d="M355.012,457.866a1.874,1.874,0,0,1-1.108-.362l-6.624-4.846a1.878,1.878,0,0,1-.759-1.32c-.071-.68-.118-1.373-.137-2.059-.29-10.232,2.978-19.392,9.2-25.8a28.054,28.054,0,0,1,40.4,0c6.224,6.4,9.492,15.564,9.2,25.8a26.04,26.04,0,0,1-.38,3.791,1.879,1.879,0,0,1-1.849,1.551h-5.425a1.878,1.878,0,0,1-1.454-.689l-2.173-2.656a37.034,37.034,0,0,1-28.09-4.413l-9.412,10.386A1.876,1.876,0,0,1,355.012,457.866Zm-4.826-7.736,4.571,3.345,9.1-10.045a1.649,1.649,0,0,1,.1-.153,1.879,1.879,0,0,1,2.536-.428,33.526,33.526,0,0,0,27.643,4.506,1.878,1.878,0,0,1,1.921.629l2.358,2.882h2.9c.057-.556.093-1.122.11-1.692.261-9.208-2.63-17.4-8.142-23.071a24.3,24.3,0,0,0-35.013,0c-5.511,5.669-8.4,13.863-8.142,23.07Q350.153,449.65,350.186,450.13Z" transform="translate(-346.367 -414.898)" fill="#0c6bc2"/>
        </g>
        <g id="Grupo_25777" data-name="Grupo 25777" transform="translate(35.613 27.64)">
          <path id="Trazado_67226" data-name="Trazado 67226" d="M382.987,494.818l10.019-5.66v-.568l1.124-1.258a22.923,22.923,0,0,0,5.582-11.908s2.99.026,3.428-2.686c1.339-8.3,2.305-8.654,2.305-12.3s-1.353-4.507-2.981-3.565a19.728,19.728,0,0,0,.476-2.07h-5.424l-2.922-3.571a35.326,35.326,0,0,1-29.151-4.76l.024.022L355,458.049l-6.624-4.846a21.2,21.2,0,0,0,.7,3.671c-1.628-.942-2.981-.075-2.981,3.565s.966,4,2.305,12.3c.437,2.713,3.428,2.686,3.428,2.686a22.916,22.916,0,0,0,5.582,11.908l1.124,1.258v.509l11.874,5.976A16.164,16.164,0,0,0,382.987,494.818Z" transform="translate(-344.214 -444.598)" fill="#fff"/>
          <path id="Trazado_67227" data-name="Trazado 67227" d="M376.256,497.963a18.026,18.026,0,0,1-6.678-1.275c-.051-.02-.1-.042-.149-.066l-11.874-5.977a1.878,1.878,0,0,1-1.02-1.455l-.66-.737a24.724,24.724,0,0,1-5.8-11.52,4.886,4.886,0,0,1-3.665-4.027,73.315,73.315,0,0,0-1.571-7.538,17.322,17.322,0,0,1-.758-5.06c0-2.749.717-4.556,2.13-5.372a3.173,3.173,0,0,1,.361-.178q-.121-.729-.2-1.489a1.878,1.878,0,0,1,2.976-1.712l5.259,3.847,9.172-10.12c.016-.022.032-.045.049-.066a1.865,1.865,0,0,1,2.524-.439A33.526,33.526,0,0,0,394,449.284a1.876,1.876,0,0,1,1.921.629l2.358,2.882h4.535a1.878,1.878,0,0,1,1.876,1.957,3.136,3.136,0,0,1,.376.184c1.413.816,2.13,2.623,2.13,5.372a17.32,17.32,0,0,1-.758,5.06,73.446,73.446,0,0,0-1.571,7.538,4.888,4.888,0,0,1-3.665,4.027,24.723,24.723,0,0,1-5.8,11.52l-.652.73a1.878,1.878,0,0,1-.948,1.48l-10.019,5.66a1.751,1.751,0,0,1-.157.08A18.066,18.066,0,0,1,376.256,497.963Zm6.6-3.276h0Zm-11.814-1.458a14.368,14.368,0,0,0,10.97-.222l9.077-5.128a1.875,1.875,0,0,1,.385-.672l1.124-1.257a20.994,20.994,0,0,0,5.125-10.933,1.878,1.878,0,0,1,1.857-1.6h.017c.307-.006,1.395-.1,1.557-1.108a76.52,76.52,0,0,1,1.642-7.881,13.8,13.8,0,0,0,.638-4.118,6.247,6.247,0,0,0-.222-1.908,1.878,1.878,0,0,1-2.75-1.85h-3.08a1.878,1.878,0,0,1-1.453-.689l-2.173-2.656a37.035,37.035,0,0,1-28.09-4.413l-9.412,10.386a1.878,1.878,0,0,1-2.5.255l-3-2.2a1.877,1.877,0,0,1-2.693,1.163,6.251,6.251,0,0,0-.221,1.908,13.8,13.8,0,0,0,.638,4.118,76.481,76.481,0,0,1,1.642,7.881c.163,1,1.252,1.1,1.581,1.108h.017a1.855,1.855,0,0,1,1.834,1.6,20.994,20.994,0,0,0,5.125,10.933l1.124,1.257a1.877,1.877,0,0,1,.335.532Z" transform="translate(-344.083 -444.467)" fill="#0c6bc2"/>
        </g>
        <g id="Grupo_25778" data-name="Grupo 25778" transform="translate(0 70.262)">
          <path id="Trazado_67228" data-name="Trazado 67228" d="M442.02,561.05l-10.835-34.917a15.872,15.872,0,0,0-11.524-11.581c-8.186-2.08-15.208-3.672-22.552-5.788A9.121,9.121,0,0,1,390.52,500v-7.862l-10.02,5.66a16.164,16.164,0,0,1-12.583.257l-11.874-5.976V500a9.122,9.122,0,0,1-6.589,8.767c-7.343,2.116-12.472,4.313-20.659,6.394a15.869,15.869,0,0,0-11.524,11.581l-9.279,33.988" transform="translate(-306.114 -490.197)" fill="#fff"/>
          <path id="Trazado_67229" data-name="Trazado 67229" d="M441.888,562.8a1.879,1.879,0,0,1-1.793-1.322L429.26,526.557c-.011-.036-.022-.072-.03-.108a13.973,13.973,0,0,0-10.163-10.209c-2.549-.648-4.986-1.248-7.354-1.831-5.229-1.289-10.167-2.506-15.256-3.973a11.049,11.049,0,0,1-7.946-10.571V495.22l-7.218,4.077c-.051.029-.1.056-.157.08a18.139,18.139,0,0,1-14.044.287c-.051-.02-.1-.042-.149-.066l-9.152-4.606v4.874a11.048,11.048,0,0,1-7.946,10.571c-3.038.876-5.75,1.784-8.373,2.664-3.7,1.239-7.518,2.519-12.343,3.746a13.971,13.971,0,0,0-10.163,10.209l-.012.047-9.279,33.988a1.878,1.878,0,1,1-3.623-.99l9.273-33.965A17.722,17.722,0,0,1,328.2,513.205c4.689-1.192,8.443-2.45,12.074-3.667,2.661-.892,5.412-1.813,8.527-2.712a7.274,7.274,0,0,0,5.231-6.962v-7.921a1.879,1.879,0,0,1,2.723-1.678l11.8,5.938a14.369,14.369,0,0,0,10.97-.221l9.94-5.615a1.878,1.878,0,0,1,2.8,1.635v7.862a7.274,7.274,0,0,0,5.231,6.962c5.018,1.446,9.922,2.655,15.115,3.934,2.376.586,4.821,1.188,7.38,1.839a17.722,17.722,0,0,1,12.871,12.9l10.819,34.865a1.881,1.881,0,0,1-1.795,2.435Z" transform="translate(-305.983 -490.066)" fill="#0c6bc2"/>
        </g>
      </g>
      <g id="Grupo_25780" data-name="Grupo 25780" transform="translate(66.988 93.791)">
        <path id="Trazado_67230" data-name="Trazado 67230" d="M379.657,540.452l19.169-32.078,3.247,16.009Z" transform="translate(-377.779 -506.496)" fill="#caf4ff"/>
        <path id="Trazado_67231" data-name="Trazado 67231" d="M379.526,542.2a1.879,1.879,0,0,1-1.612-2.842l19.169-32.078a1.879,1.879,0,0,1,3.453.591l3.247,16.008a1.878,1.878,0,0,1-.747,1.9L380.62,541.847A1.866,1.866,0,0,1,379.526,542.2Zm18.292-28.829-12.05,20.165,14.091-10.1Z" transform="translate(-377.648 -506.365)" fill="#0c6bc2"/>
      </g>
      <g id="Grupo_25781" data-name="Grupo 25781" transform="translate(42.722 93.822)">
        <path id="Trazado_67232" data-name="Trazado 67232" d="M377.963,540.454l-22.781-32.047L353.7,524.385Z" transform="translate(-351.819 -506.529)" fill="#caf4ff"/>
        <path id="Trazado_67233" data-name="Trazado 67233" d="M377.831,542.2a1.876,1.876,0,0,1-1.036-.312L352.528,525.82a1.88,1.88,0,0,1-.833-1.74l1.485-15.978a1.878,1.878,0,0,1,3.4-.914l22.781,32.047a1.877,1.877,0,0,1-1.531,2.966Zm-22.292-18.892,14.915,9.875-14-19.7Z" transform="translate(-351.688 -506.398)" fill="#0c6bc2"/>
      </g>
      <g id="Grupo_25782" data-name="Grupo 25782" transform="translate(85.306 125.275)">
        <rect id="Rectángulo_25853" data-name="Rectángulo 25853" width="29.311" height="15.385" transform="translate(1.878 1.877)" fill="#eae699"/>
        <path id="Trazado_67234" data-name="Trazado 67234" d="M428.434,559.188H399.123a1.878,1.878,0,0,1-1.878-1.878V541.925a1.878,1.878,0,0,1,1.878-1.878h29.312a1.878,1.878,0,0,1,1.878,1.878V557.31A1.879,1.879,0,0,1,428.434,559.188ZM401,555.432h25.556V543.8H401Z" transform="translate(-397.245 -540.047)" fill="#0c6bc2"/>
      </g>
      <g id="Grupo_25783" data-name="Grupo 25783" transform="translate(99.614 118.126)">
        <line id="Línea_435" data-name="Línea 435" y2="7.149" transform="translate(1.878 1.878)" fill="#fff"/>
        <path id="Trazado_67235" data-name="Trazado 67235" d="M414.43,543.3a1.879,1.879,0,0,1-1.878-1.878v-7.149a1.878,1.878,0,0,1,3.757,0v7.149A1.879,1.879,0,0,1,414.43,543.3Z" transform="translate(-412.552 -532.399)" fill="#0c6bc2"/>
      </g>
    </g>
    <g id="Grupo_25805" data-name="Grupo 25805" transform="translate(206.055 568.017)">
      <g id="Grupo_25803" data-name="Grupo 25803">
        <g id="Grupo_25801" data-name="Grupo 25801" transform="translate(8.676)">
          <g id="Grupo_25785" data-name="Grupo 25785" transform="translate(8.725 63.832)">
            <path id="Trazado_67236" data-name="Trazado 67236" d="M230.8,649.624v87.813H378.841v-87.2" transform="translate(-228.918 -647.746)" fill="#fff"/>
            <path id="Trazado_67237" data-name="Trazado 67237" d="M378.71,739.183H230.665a1.879,1.879,0,0,1-1.878-1.878V649.493a1.878,1.878,0,1,1,3.756,0v85.935H376.832V650.1a1.878,1.878,0,1,1,3.756,0v87.2A1.878,1.878,0,0,1,378.71,739.183Z" transform="translate(-228.787 -647.615)" fill="#0c6bc2"/>
          </g>
          <g id="Grupo_25786" data-name="Grupo 25786" transform="translate(108.927 92.055)">
            <rect id="Rectángulo_25854" data-name="Rectángulo 25854" width="27.766" height="59.59" transform="translate(1.878 1.878)" fill="#eae699"/>
            <path id="Trazado_67238" data-name="Trazado 67238" d="M365.629,741.154H337.863a1.879,1.879,0,0,1-1.878-1.878v-59.59a1.879,1.879,0,0,1,1.878-1.878h27.766a1.879,1.879,0,0,1,1.878,1.878v59.59A1.878,1.878,0,0,1,365.629,741.154ZM339.741,737.4h24.011V681.564H339.741Z" transform="translate(-335.985 -677.808)" fill="#0c6bc2"/>
          </g>
          <g id="Grupo_25787" data-name="Grupo 25787" transform="translate(27.125 88.514)">
            <rect id="Rectángulo_25855" data-name="Rectángulo 25855" width="63.648" height="63.131" transform="translate(1.878 1.878)" fill="#fff"/>
            <path id="Trazado_67239" data-name="Trazado 67239" d="M314,740.906H250.35a1.879,1.879,0,0,1-1.878-1.878V675.9a1.878,1.878,0,0,1,1.878-1.878H314a1.878,1.878,0,0,1,1.878,1.878v63.131A1.879,1.879,0,0,1,314,740.906Zm-61.771-3.756H312.12V677.776H252.228Z" transform="translate(-248.472 -674.02)" fill="#0c6bc2"/>
          </g>
          <g id="Grupo_25788" data-name="Grupo 25788" transform="translate(27.125 134.344)">
            <rect id="Rectángulo_25856" data-name="Rectángulo 25856" width="63.648" height="17.3" transform="translate(1.878 1.878)" fill="#eae699"/>
            <path id="Trazado_67240" data-name="Trazado 67240" d="M314,744.106H250.35a1.878,1.878,0,0,1-1.878-1.878v-17.3a1.879,1.879,0,0,1,1.878-1.878H314a1.879,1.879,0,0,1,1.878,1.878v17.3A1.879,1.879,0,0,1,314,744.106Zm-61.771-3.756H312.12V726.806H252.228Z" transform="translate(-248.472 -723.05)" fill="#0c6bc2"/>
          </g>
          <g id="Grupo_25789" data-name="Grupo 25789" transform="translate(38.179 102.681)">
            <rect id="Rectángulo_25857" data-name="Rectángulo 25857" width="52.595" height="31.664" transform="translate(1.878 1.878)" fill="#fff"/>
            <path id="Trazado_67241" data-name="Trazado 67241" d="M314.77,724.6h-52.6a1.878,1.878,0,0,1-1.878-1.878V691.054a1.877,1.877,0,0,1,1.878-1.878h52.6a1.878,1.878,0,0,1,1.878,1.878v31.664A1.878,1.878,0,0,1,314.77,724.6Zm-50.717-3.756h48.839V692.932H264.053Z" transform="translate(-260.297 -689.176)" fill="#0c6bc2"/>
          </g>
          <g id="Grupo_25790" data-name="Grupo 25790" transform="translate(38.179 118.512)">
            <line id="Línea_436" data-name="Línea 436" x2="52.595" transform="translate(1.878 1.878)" fill="#fff"/>
            <path id="Trazado_67242" data-name="Trazado 67242" d="M314.77,709.869h-52.6a1.878,1.878,0,1,1,0-3.756h52.6a1.878,1.878,0,1,1,0,3.756Z" transform="translate(-260.297 -706.113)" fill="#0c6bc2"/>
          </g>
          <g id="Grupo_25791" data-name="Grupo 25791" transform="translate(47.949 111.277)">
            <rect id="Rectángulo_25858" data-name="Rectángulo 25858" width="9.718" height="7.235" transform="translate(1.878 1.878)" fill="#64bdfa"/>
            <path id="Trazado_67243" data-name="Trazado 67243" d="M282.346,709.364h-9.718a1.879,1.879,0,0,1-1.878-1.878v-7.235a1.878,1.878,0,0,1,1.878-1.878h9.718a1.878,1.878,0,0,1,1.878,1.878v7.235A1.878,1.878,0,0,1,282.346,709.364Zm-7.84-3.756h5.962v-3.479h-5.962Z" transform="translate(-270.75 -698.373)" fill="#0c6bc2"/>
          </g>
          <g id="Grupo_25792" data-name="Grupo 25792" transform="translate(66.639 111.277)">
            <rect id="Rectángulo_25859" data-name="Rectángulo 25859" width="16.873" height="7.235" transform="translate(1.878 1.878)" fill="#64bdfa"/>
            <path id="Trazado_67244" data-name="Trazado 67244" d="M309.495,709.364H292.622a1.878,1.878,0,0,1-1.878-1.878v-7.235a1.877,1.877,0,0,1,1.878-1.878h16.873a1.878,1.878,0,0,1,1.878,1.878v7.235A1.878,1.878,0,0,1,309.495,709.364Zm-15-3.756h13.117v-3.479H294.5Z" transform="translate(-290.744 -698.373)" fill="#0c6bc2"/>
          </g>
          <g id="Grupo_25793" data-name="Grupo 25793" transform="translate(66.639 126.216)">
            <rect id="Rectángulo_25860" data-name="Rectángulo 25860" width="6.407" height="8.129" transform="translate(1.878 1.878)" fill="#64bdfa"/>
            <path id="Trazado_67245" data-name="Trazado 67245" d="M299.03,726.238h-6.408a1.878,1.878,0,0,1-1.878-1.878v-8.128a1.877,1.877,0,0,1,1.878-1.878h6.408a1.878,1.878,0,0,1,1.878,1.878v8.128A1.878,1.878,0,0,1,299.03,726.238Zm-4.53-3.756h2.652V718.11H294.5Z" transform="translate(-290.744 -714.354)" fill="#0c6bc2"/>
          </g>
          <g id="Grupo_25794" data-name="Grupo 25794" transform="translate(127.314 120.31)">
            <path id="Trazado_67246" data-name="Trazado 67246" d="M360.781,710.6a2.563,2.563,0,1,1-2.563-2.563A2.563,2.563,0,0,1,360.781,710.6Z" transform="translate(-355.655 -708.036)" fill="#0c6bc2"/>
          </g>
          <g id="Grupo_25795" data-name="Grupo 25795" transform="translate(0 0)">
            <path id="Trazado_67247" data-name="Trazado 67247" d="M250.3,645.237a14.417,14.417,0,0,1-28.834,0l18.369-63.9H372.679l21.786,63.9a14.417,14.417,0,0,1-28.834,0" transform="translate(-219.584 -579.458)" fill="#caf4ff"/>
            <path id="Trazado_67248" data-name="Trazado 67248" d="M379.916,661.4a16.313,16.313,0,0,1-16.294-16.294,1.878,1.878,0,1,1,3.756,0,12.539,12.539,0,0,0,25.074.3L371.2,583.083H241.114l-17.9,62.278a12.539,12.539,0,0,0,25.075-.255,1.878,1.878,0,1,1,3.756,0,16.295,16.295,0,0,1-32.59,0,1.87,1.87,0,0,1,.074-.519l18.368-63.9a1.877,1.877,0,0,1,1.805-1.359H372.548a1.879,1.879,0,0,1,1.778,1.272l21.785,63.9a1.874,1.874,0,0,1,.1.606A16.313,16.313,0,0,1,379.916,661.4Z" transform="translate(-219.453 -579.327)" fill="#0c6bc2"/>
          </g>
          <g id="Grupo_25796" data-name="Grupo 25796" transform="translate(28.834)">
            <path id="Trazado_67249" data-name="Trazado 67249" d="M281.143,645.237a14.417,14.417,0,0,1-28.834,0l10.038-63.9" transform="translate(-250.431 -579.458)" fill="#caf4ff"/>
            <path id="Trazado_67250" data-name="Trazado 67250" d="M266.594,661.4A16.313,16.313,0,0,1,250.3,645.106a1.906,1.906,0,0,1,.022-.292l10.039-63.9a1.878,1.878,0,1,1,3.71.583l-10.015,63.75a12.539,12.539,0,0,0,25.077-.141,1.878,1.878,0,1,1,3.756,0A16.313,16.313,0,0,1,266.594,661.4Z" transform="translate(-250.3 -579.327)" fill="#0c6bc2"/>
          </g>
          <g id="Grupo_25797" data-name="Grupo 25797" transform="translate(57.668 0.001)">
            <path id="Trazado_67251" data-name="Trazado 67251" d="M311.99,645.237a14.417,14.417,0,0,1-28.834,0l4.272-63.9" transform="translate(-281.278 -579.459)" fill="#caf4ff"/>
            <path id="Trazado_67252" data-name="Trazado 67252" d="M297.441,661.4a16.313,16.313,0,0,1-16.294-16.294c0-.042,0-.084,0-.125l4.272-63.9a1.878,1.878,0,0,1,3.747.25L284.9,645.166a12.539,12.539,0,0,0,25.077-.06,1.878,1.878,0,0,1,3.757,0A16.314,16.314,0,0,1,297.441,661.4Z" transform="translate(-281.147 -579.327)" fill="#0c6bc2"/>
          </g>
          <g id="Grupo_25798" data-name="Grupo 25798" transform="translate(83.511 0)">
            <path id="Trazado_67253" data-name="Trazado 67253" d="M342.627,645.237a14.417,14.417,0,0,1-28.833,0l-2.99-63.9" transform="translate(-308.926 -579.458)" fill="#caf4ff"/>
            <path id="Trazado_67254" data-name="Trazado 67254" d="M328.08,661.4a16.313,16.313,0,0,1-16.294-16.249L308.8,581.293a1.878,1.878,0,1,1,3.751-.176l2.99,63.9c0,.029,0,.059,0,.088a12.539,12.539,0,0,0,25.077,0,1.878,1.878,0,1,1,3.756,0A16.313,16.313,0,0,1,328.08,661.4Z" transform="translate(-308.795 -579.327)" fill="#0c6bc2"/>
          </g>
          <g id="Grupo_25799" data-name="Grupo 25799" transform="translate(107.433 0)">
            <path id="Trazado_67255" data-name="Trazado 67255" d="M357.753,581.336l15.378,63.9a14.417,14.417,0,0,1-28.834,0l-7.9-63.9Z" transform="translate(-334.517 -579.458)" fill="#caf4ff"/>
            <path id="Trazado_67256" data-name="Trazado 67256" d="M358.584,661.4a16.313,16.313,0,0,1-16.294-16.176L334.4,581.436a1.879,1.879,0,0,1,1.864-2.109h21.358a1.879,1.879,0,0,1,1.826,1.439l15.377,63.9a1.877,1.877,0,0,1,.052.439A16.313,16.313,0,0,1,358.584,661.4Zm-20.2-78.317,7.642,61.792a1.91,1.91,0,0,1,.014.231,12.539,12.539,0,0,0,25.076.215l-14.977-62.238Z" transform="translate(-334.386 -579.327)" fill="#0c6bc2"/>
          </g>
          <g id="Grupo_25800" data-name="Grupo 25800" transform="translate(0 63.901)">
            <line id="Línea_437" data-name="Línea 437" x2="173.002" transform="translate(1.878 1.878)" fill="#fff"/>
            <path id="Trazado_67257" data-name="Trazado 67257" d="M394.334,651.445h-173a1.878,1.878,0,1,1,0-3.756h173a1.878,1.878,0,1,1,0,3.756Z" transform="translate(-219.453 -647.689)" fill="#0c6bc2"/>
          </g>
        </g>
        <g id="Grupo_25802" data-name="Grupo 25802" transform="translate(0 151.644)">
          <rect id="Rectángulo_25861" data-name="Rectángulo 25861" width="184.376" height="9.377" transform="translate(1.877 1.878)" fill="#caf4ff"/>
          <path id="Trazado_67258" data-name="Trazado 67258" d="M396.425,754.691H212.049a1.877,1.877,0,0,1-1.878-1.878v-9.377a1.878,1.878,0,0,1,1.878-1.878H396.425a1.879,1.879,0,0,1,1.878,1.878v9.377A1.878,1.878,0,0,1,396.425,754.691Zm-182.5-3.756h180.62v-5.622H213.927Z" transform="translate(-210.171 -741.558)" fill="#0c6bc2"/>
        </g>
      </g>
      <g id="Grupo_25804" data-name="Grupo 25804" transform="translate(76.583 13.924)">
        <path id="Trazado_67259" data-name="Trazado 67259" d="M328.776,606.856H318.184V596.232H304.7v10.624H294.11v13.521H304.7V631h13.482V620.377h10.593Z" transform="translate(-292.232 -594.354)" fill="#fff"/>
        <path id="Trazado_67260" data-name="Trazado 67260" d="M318.052,632.747H304.571a1.878,1.878,0,0,1-1.878-1.878v-8.745h-8.715a1.878,1.878,0,0,1-1.878-1.878V606.725a1.877,1.877,0,0,1,1.878-1.878h8.715V596.1a1.878,1.878,0,0,1,1.878-1.878h13.481a1.878,1.878,0,0,1,1.878,1.878v8.746h8.716a1.878,1.878,0,0,1,1.878,1.878v13.521a1.879,1.879,0,0,1-1.878,1.878H319.93v8.745A1.878,1.878,0,0,1,318.052,632.747Zm-11.6-3.756h9.725v-8.746a1.878,1.878,0,0,1,1.878-1.878h8.715V608.6h-8.715a1.879,1.879,0,0,1-1.878-1.878v-8.746h-9.725v8.746a1.879,1.879,0,0,1-1.878,1.878h-8.715v9.765h8.715a1.878,1.878,0,0,1,1.878,1.878Z" transform="translate(-292.101 -594.223)" fill="#0c6bc2"/>
      </g>
    </g>
    <g id="Grupo_25822" data-name="Grupo 25822" transform="translate(147.104 432.664)">
      <g id="Grupo_25820" data-name="Grupo 25820">
        <g id="Grupo_25819" data-name="Grupo 25819">
          <g id="Grupo_25818" data-name="Grupo 25818">
            <g id="Grupo_25817" data-name="Grupo 25817">
              <g id="Grupo_25806" data-name="Grupo 25806" transform="translate(24.167)">
                <path id="Trazado_67261" data-name="Trazado 67261" d="M174.967,444.265a7.743,7.743,0,0,1,7.753-7.732h80.346a7.742,7.742,0,0,1,7.752,7.732v83.779h-95.85Z" transform="translate(-173.089 -434.655)" fill="#eae699"/>
                <path id="Trazado_67262" data-name="Trazado 67262" d="M270.686,529.791h-95.85a1.879,1.879,0,0,1-1.878-1.878V444.134a9.631,9.631,0,0,1,9.631-9.61h80.346a9.631,9.631,0,0,1,9.63,9.61v83.779A1.878,1.878,0,0,1,270.686,529.791Zm-93.972-3.757h92.094v-81.9a5.87,5.87,0,0,0-5.874-5.854H182.589a5.871,5.871,0,0,0-5.875,5.854Z" transform="translate(-172.958 -434.524)" fill="#0c6bc2"/>
              </g>
              <g id="Grupo_25807" data-name="Grupo 25807" transform="translate(81.327 65.46)">
                <line id="Línea_438" data-name="Línea 438" x2="3.692" transform="translate(1.878 1.878)" fill="#fff"/>
                <path id="Trazado_67263" data-name="Trazado 67263" d="M239.678,508.31h-3.691a1.878,1.878,0,1,1,0-3.756h3.691a1.878,1.878,0,1,1,0,3.756Z" transform="translate(-234.109 -504.554)" fill="#0c6bc2"/>
              </g>
              <g id="Grupo_25808" data-name="Grupo 25808" transform="translate(93.747 65.46)">
                <line id="Línea_439" data-name="Línea 439" x2="3.692" transform="translate(1.878 1.878)" fill="#fff"/>
                <path id="Trazado_67264" data-name="Trazado 67264" d="M252.965,508.31h-3.691a1.878,1.878,0,0,1,0-3.756h3.691a1.878,1.878,0,1,1,0,3.756Z" transform="translate(-247.396 -504.554)" fill="#0c6bc2"/>
              </g>
              <g id="Grupo_25809" data-name="Grupo 25809" transform="translate(106.168 65.46)">
                <line id="Línea_440" data-name="Línea 440" x2="3.692" transform="translate(1.878 1.878)" fill="#fff"/>
                <path id="Trazado_67265" data-name="Trazado 67265" d="M266.253,508.31h-3.691a1.878,1.878,0,0,1,0-3.756h3.691a1.878,1.878,0,1,1,0,3.756Z" transform="translate(-260.684 -504.554)" fill="#0c6bc2"/>
              </g>
              <g id="Grupo_25814" data-name="Grupo 25814" transform="translate(0 63.748)">
                <g id="Grupo_25813" data-name="Grupo 25813">
                  <g id="Grupo_25811" data-name="Grupo 25811" transform="translate(0 1.712)">
                    <g id="Grupo_25810" data-name="Grupo 25810">
                      <path id="Trazado_67266" data-name="Trazado 67266" d="M293.3,521.573l-32.426,25.472a22.368,22.368,0,0,1-5.348,2.886l-31.749,9.921a33.622,33.622,0,0,1-19.156,1.33l-45.638-10.211a11.165,11.165,0,0,1-8.678-9.761l-1.067-10.5c-.772-7.595,2.123-13.552,7.359-17.281a24.861,24.861,0,0,1,11.995-4.214l25.128-2.542a22.428,22.428,0,0,1,10.475,1.447L238.5,519.738s6.208,1.835,6.2,9.444l2.508-.18c2.739-.382,4.1-.614,6.327-2.248l27.774-20.19" transform="translate(-147.235 -504.685)" fill="#fff"/>
                      <path id="Trazado_67267" data-name="Trazado 67267" d="M211.845,563.745a35.543,35.543,0,0,1-7.768-.861l-45.637-10.212a13.028,13.028,0,0,1-10.137-11.4l-1.067-10.5c-.808-7.941,2.083-14.689,8.138-19a26.872,26.872,0,0,1,12.895-4.552l25.128-2.541a24.386,24.386,0,0,1,11.309,1.55l34.233,11.59a11.207,11.207,0,0,1,7.373,9.226l.57-.041c2.656-.371,3.6-.562,5.415-1.894l27.779-20.2a1.878,1.878,0,1,1,2.209,3.038l-27.773,20.19c-2.557,1.874-4.218,2.177-7.172,2.589-.041.006-.083.01-.125.013l-2.507.18a1.877,1.877,0,0,1-2.013-1.873c0-6.135-4.809-7.628-4.858-7.643l-.07-.021-34.307-11.615-.086-.032a20.633,20.633,0,0,0-9.6-1.325l-25.128,2.542a23.129,23.129,0,0,0-11.093,3.874c-4.979,3.546-7.255,8.927-6.581,15.562l1.067,10.5a9.275,9.275,0,0,0,7.22,8.117L204.9,559.22a31.676,31.676,0,0,0,18.085-1.256l.1-.034,31.7-9.9a20.511,20.511,0,0,0,4.825-2.608l32.4-25.451a1.878,1.878,0,0,1,2.321,2.954L261.9,548.391c-.017.014-.035.027-.052.04a24.239,24.239,0,0,1-5.8,3.128c-.033.013-.065.024-.1.035l-31.7,9.905A35.456,35.456,0,0,1,211.845,563.745Z" transform="translate(-147.104 -504.554)" fill="#0c6bc2"/>
                    </g>
                  </g>
                  <g id="Grupo_25812" data-name="Grupo 25812" transform="translate(132.199)">
                    <path id="Trazado_67268" data-name="Trazado 67268" d="M302.527,521.454a9.362,9.362,0,0,0,.013-13.655c-3.422-3.418-8.21-4.125-12-1.355" transform="translate(-288.663 -502.854)" fill="#fff"/>
                    <path id="Trazado_67269" data-name="Trazado 67269" d="M302.4,523.2a1.877,1.877,0,0,1-1.291-3.242,7.272,7.272,0,0,0,2.375-5.264,8,8,0,0,0-2.4-5.7c-2.864-2.861-6.618-3.32-9.564-1.167A1.878,1.878,0,0,1,289.3,504.8c4.454-3.253,10.254-2.633,14.435,1.544a11.774,11.774,0,0,1,3.5,8.406,11.092,11.092,0,0,1-3.549,7.941A1.873,1.873,0,0,1,302.4,523.2Z" transform="translate(-288.532 -502.722)" fill="#0c6bc2"/>
                  </g>
                </g>
              </g>
              <g id="Grupo_25815" data-name="Grupo 25815" transform="translate(52.357 87.954)">
                <line id="Línea_441" data-name="Línea 441" x1="30.582" y1="9.798" transform="translate(1.878 1.878)" fill="#fff"/>
                <path id="Trazado_67270" data-name="Trazado 67270" d="M235.578,542.174a1.878,1.878,0,0,1-.573-.09l-30.583-9.8a1.878,1.878,0,0,1,1.146-3.577l30.583,9.8a1.878,1.878,0,0,1-.573,3.666Z" transform="translate(-203.117 -528.619)" fill="#0c6bc2"/>
              </g>
              <g id="Grupo_25816" data-name="Grupo 25816" transform="translate(82.94 78.634)">
                <path id="Trazado_67271" data-name="Trazado 67271" d="M244.289,520.658a10.114,10.114,0,0,1-6.446,19.118" transform="translate(-235.965 -518.779)" fill="#fff"/>
                <path id="Trazado_67272" data-name="Trazado 67272" d="M240.186,541.835a11.825,11.825,0,0,1-2.94-.371,1.878,1.878,0,1,1,.932-3.638,8.309,8.309,0,0,0,9.66-4.786,8.224,8.224,0,0,0-4.406-10.782,1.878,1.878,0,0,1,1.454-3.463A11.979,11.979,0,0,1,251.3,534.5,12.1,12.1,0,0,1,240.186,541.835Z" transform="translate(-235.834 -518.648)" fill="#0c6bc2"/>
              </g>
            </g>
          </g>
        </g>
      </g>
      <g id="Grupo_25821" data-name="Grupo 25821" transform="translate(54.928 15.864)">
        <path id="Trazado_67273" data-name="Trazado 67273" d="M246.381,465.3H234.615V453.5H219.641v11.8H207.875v15.018h11.766v11.8h14.975v-11.8h11.766Z" transform="translate(-205.997 -451.627)" fill="#fff"/>
        <path id="Trazado_67274" data-name="Trazado 67274" d="M234.484,493.871H219.509a1.878,1.878,0,0,1-1.878-1.878V482.07h-9.888a1.878,1.878,0,0,1-1.878-1.878V465.174a1.877,1.877,0,0,1,1.878-1.878h9.888v-9.922a1.877,1.877,0,0,1,1.878-1.878h14.975a1.877,1.877,0,0,1,1.878,1.878V463.3h9.888a1.878,1.878,0,0,1,1.879,1.878v15.018a1.879,1.879,0,0,1-1.879,1.878h-9.888v9.922A1.878,1.878,0,0,1,234.484,493.871Zm-13.1-3.756h11.219v-9.922a1.878,1.878,0,0,1,1.878-1.878h9.888V467.052h-9.888a1.879,1.879,0,0,1-1.878-1.878v-9.922H221.387v9.922a1.879,1.879,0,0,1-1.878,1.878h-9.888v11.263h9.888a1.878,1.878,0,0,1,1.878,1.878Z" transform="translate(-205.866 -451.496)" fill="#0c6bc2"/>
      </g>
    </g>
  </g>
</svg>
