<svg xmlns="http://www.w3.org/2000/svg" width="109.836" height="109.836" viewBox="0 0 109.836 109.836">
  <g id="Grupo_25509" data-name="Grupo 25509" transform="translate(-955.748 -906.748)">
    <path id="Trazado_66704" data-name="Trazado 66704" d="M54.918,0A54.918,54.918,0,1,1,0,54.918,54.918,54.918,0,0,1,54.918,0Z" transform="translate(955.748 906.748)" fill="#dadba1"/>
    <path id="Trazado_66703" data-name="Trazado 66703" d="M83.069,491.013c3.124-6.079,2.476-13.769,6.046-16.757,2.561-2.143,7.243-1.691,9.206.718a1.563,1.563,0,0,1,.256,1.381,11.413,11.413,0,0,1-1.029,3.21c-.344.488-.85.617-1.068-.106-.591-2.159-3.273-4.013-5.237-2.607-2.356,1.687-2.5,9.984-.823,14.52-.337.079-.669.163-.993.249-2.812.74-2.97.68-5.93-.449-.062-.024.146.056-.428-.159Zm-1.846,1.468a5.379,5.379,0,0,0-2.263-.369c-5.1-3.485-17.45-.488-13.47,13.627,2.315,8.207,2.42,20.729,6.208,27.462,3.36,5.974,5.975,8.8,9.533,8.408-2.372-2.153-4.594-6.7-5.617-13.7-1.8-12.343-4.071-17.8-3.678-26.831.169-3.848,1.959-8.049,5.385-8.515-2.339,1.2-3.644,4.514-3.788,7.817-.394,9.029,2.941,14.686,4.744,27.03,1.454,9.957,4,14.94,8.417,15.151s8.207-2.946,9.26-9.68,6.944-27.147,5.05-34.2a10.339,10.339,0,0,0-1.481-3.343c1.263.718,2.341,2.2,3.08,5.112,1.6,6.294-3.731,29.59-4.487,34.428s-2.1,5.2-3.431,6.794A9,9,0,0,0,99.8,539.83c6.1-4,5.261-18.1,8.1-28.409s2.451-15.438-2.131-17.887c-2.917-1.56-6.48-.889-8.682-.2-2.171-.925-4.765-.4-7.024.2C86.064,494.586,86.273,494.375,81.223,492.481Z" transform="translate(923.461 453.938)" fill="#92934e" fill-rule="evenodd"/>
  </g>
</svg>
