<svg xmlns="http://www.w3.org/2000/svg" width="229.265" height="289.856" viewBox="0 0 229.265 289.856">
  <g id="Grupo_27159" data-name="Grupo 27159" transform="translate(-241.707 -9355)">
    <g id="Grupo_27152" data-name="Grupo 27152" transform="translate(195.005 9292.251)">
      <g id="Grupo_27151" data-name="Grupo 27151" transform="translate(46.702 62.749)">
        <path id="Trazado_69026" data-name="Trazado 69026" d="M253.4,121.794c0-32.351-22.778-59.045-55.137-59.045-23.807,0-43.811,14.291-47.942,38.422-5.4-24.131-25.72-38.1-45.039-37.954C72.929,63.465,46.7,89.443,46.7,121.794a58.36,58.36,0,0,0,12.336,35.965c5.5,7.507,39.13,52.425,88.111,95.61,0,0,66.466-58.847,95.017-96.95h-.092A58.3,58.3,0,0,0,253.4,121.794Z" transform="translate(-46.702 -62.749)" fill="#e0304e"/>
        <path id="Trazado_69027" data-name="Trazado 69027" d="M213.911,121.794c0-32.351-22.778-59.045-55.137-59.045-23.807,0-43.811,14.291-47.942,38.422-.154-.684-.323-1.36-.5-2.027V250.979c12.672-11.379,67.2-61.007,92.343-94.56h-.092A58.3,58.3,0,0,0,213.911,121.794Z" transform="translate(-7.211 -62.749)" fill="#c6b0be" style="mix-blend-mode: multiply;isolation: isolate"/>
      </g>
      <path id="Trazado_69028" data-name="Trazado 69028" d="M70.269,146.353H91.915l10.609-47.536L114.2,177.759l14.428-66,8.7,46.9,9.339-57.154,12.522,89.62L169.3,110.7l5.021,35.014h20.371" transform="translate(14.627 22.386)" fill="none" stroke="#fff" stroke-linecap="round" stroke-linejoin="round" stroke-width="1.309"/>
    </g>
    <g id="Grupo_27158" data-name="Grupo 27158" transform="translate(186.655 9482.145)">
      <g id="Grupo_27155" data-name="Grupo 27155">
        <g id="Grupo_27153" data-name="Grupo 27153">
          <path id="Trazado_69029" data-name="Trazado 69029" d="M265.051,109.608a9.906,9.906,0,1,1-9.907-9.907A9.907,9.907,0,0,1,265.051,109.608Z" fill="#262355"/>
          <path id="Trazado_69030" data-name="Trazado 69030" d="M263.25,109.608a8.105,8.105,0,1,1-8.106-8.107A8.106,8.106,0,0,1,263.25,109.608Z" fill="#5ebed3"/>
        </g>
        <g id="Grupo_27154" data-name="Grupo 27154">
          <path id="Trazado_69031" data-name="Trazado 69031" d="M261.11,109.608a5.965,5.965,0,1,1-5.966-5.966A5.966,5.966,0,0,1,261.11,109.608Z" fill="#262355"/>
          <path id="Trazado_69032" data-name="Trazado 69032" d="M260.329,109.608a5.185,5.185,0,1,1-5.185-5.187A5.184,5.184,0,0,1,260.329,109.608Z" fill="#2eabaf"/>
        </g>
      </g>
      <path id="Trazado_69033" data-name="Trazado 69033" d="M255.254,99.7V119.51a9.9,9.9,0,0,0,0-19.806Z" fill="#85a0ae" style="mix-blend-mode: multiply;isolation: isolate"/>
      <g id="Grupo_27156" data-name="Grupo 27156">
        <path id="Trazado_69034" data-name="Trazado 69034" d="M220.453,87.6a23.807,23.807,0,0,1-15.67-5.445,19.148,19.148,0,0,1-6.577-14.728V47.2a19.945,19.945,0,0,1,11.643-18.336,1.151,1.151,0,0,1,.992,2.077A17.691,17.691,0,0,0,200.507,47.2V67.424c0,10.357,8.389,17.873,19.946,17.873S240.4,77.781,240.4,67.424V47.2a17.532,17.532,0,0,0-8.867-15.481,1.151,1.151,0,0,1,1.163-1.986,19.784,19.784,0,0,1,10,17.467V67.424a19.151,19.151,0,0,1-6.577,14.728A23.814,23.814,0,0,1,220.453,87.6Z" fill="#262355"/>
      </g>
      <g id="Grupo_27157" data-name="Grupo 27157">
        <path id="Trazado_69035" data-name="Trazado 69035" d="M249.735,162.712c-9.719,0-16.472-1.636-21.25-5.148-6.048-4.445-8.99-11.88-8.99-22.728V86.122a1.151,1.151,0,0,1,2.3,0v48.714c0,22.477,13.428,25.576,27.939,25.576,17.662,0,32.282-1.915,32.282-25.444V108.626l-.053-40.066c0-7.024-4.84-11.216-12.947-11.216-8.045,0-12.659,4.087-12.659,11.215v40.627a1.15,1.15,0,0,1-2.3,0V68.559a12.972,12.972,0,0,1,3.918-9.856c2.6-2.394,6.421-3.661,11.042-3.661,9.406,0,15.248,5.179,15.248,13.517l.052,40.066v26.343c0,11.949-3.692,19.765-11.292,23.9C266.495,162.417,257.939,162.712,249.735,162.712Z" fill="#262355"/>
      </g>
      <path id="Trazado_69036" data-name="Trazado 69036" d="M240.5,57.833v.015h-2.05v8.84c0,9.822-7.566,16.953-17.993,16.953s-17.992-7.131-17.992-16.953v-8.84h-2.05v-.015H196.4v9.321a20.8,20.8,0,0,0,7.149,16,27.207,27.207,0,0,0,33.8,0,20.8,20.8,0,0,0,7.15-16V57.833Z" fill="#2eabaf"/>
      <path id="Trazado_69037" data-name="Trazado 69037" d="M242.052,57.8V66.23a19.972,19.972,0,0,1-6.419,15.041,23.56,23.56,0,0,1-30.345,0,19.976,19.976,0,0,1-6.419-15.041V57.8h-2.461v9.322a20.8,20.8,0,0,0,7.151,16,27.207,27.207,0,0,0,33.8,0,20.8,20.8,0,0,0,7.149-16V57.8Z" fill="#a1c8d8" style="mix-blend-mode: multiply;isolation: isolate"/>
      <path id="Trazado_69038" data-name="Trazado 69038" d="M213.856,28.392c.58,1.384-.323,3.079-2.011,3.786a3.064,3.064,0,0,1-4.109-1.228c-.579-1.386.323-3.08,2.013-3.787S213.278,27.006,213.856,28.392Z" fill="#2eabaf"/>
      <path id="Trazado_69039" data-name="Trazado 69039" d="M234.233,31.808a3.383,3.383,0,0,1-6.041-2.74,3.382,3.382,0,0,1,6.041,2.74Z" fill="#2eabaf"/>
    </g>
  </g>
</svg>
