<svg xmlns="http://www.w3.org/2000/svg" width="124.5" height="125.922" viewBox="0 0 124.5 125.922">
  <g id="Grupo_27396" data-name="Grupo 27396" transform="translate(-187 -3087.023)">
    <g id="Grupo_25949" data-name="Grupo 25949" transform="translate(-258.999 -3640)">
      <g id="Grupo_16356" data-name="Grupo 16356" transform="translate(0 5311)">
        <g id="Grupo_16004" data-name="Grupo 16004" transform="translate(299.574 1272.495)">
          <g id="Grupo_16001" data-name="Grupo 16001" transform="translate(146.425 143.53)">
            <g id="Grupo_15998" data-name="Grupo 15998" transform="translate(0 0)">
              <g id="Grupo_15997" data-name="Grupo 15997">
                <path id="Trazado_31535" data-name="Trazado 31535" d="M203.368,155.338a56.943,56.943,0,0,0-43.915,93.192L153.9,271.889a2.839,2.839,0,0,0,4.109,3.154l20.954-11.3a56.322,56.322,0,0,0,24.4,5.481,56.943,56.943,0,1,0,0-113.886Z" transform="translate(-146.425 -152.439)" fill="#ed8730"/>
                <path id="Trazado_31536" data-name="Trazado 31536" d="M177.695,269.451a2.977,2.977,0,0,1-2.9-3.665l5.821-24.5a59.73,59.73,0,1,1,46.065,21.707,59.08,59.08,0,0,1-25.6-5.749l-21.98,11.853A2.972,2.972,0,0,1,177.695,269.451Zm48.989-119.966a53.774,53.774,0,0,0-40.574,89.066,2.978,2.978,0,0,1,.651,2.643L182.126,260.7l17.485-9.429a2.977,2.977,0,0,1,2.761-.034,53.2,53.2,0,0,0,24.311,5.8,53.775,53.775,0,1,0,0-107.551Z" transform="translate(-161.914 -143.53)" fill="#fff"/>
              </g>
            </g>
            <g id="Grupo_16000" data-name="Grupo 16000" transform="translate(51.887 60.178)">
              <g id="Grupo_15999" data-name="Grupo 15999">
                <path id="Trazado_31537" data-name="Trazado 31537" d="M357.786,409.6a10.853,10.853,0,0,1,.929-2.812A7.725,7.725,0,0,0,357.786,409.6Z" transform="translate(-357.786 -402.343)" fill="none"/>
                <path id="Trazado_31538" data-name="Trazado 31538" d="M395.734,388.674h1.156C396.489,388.661,396.105,388.662,395.734,388.674Z" transform="translate(-386.418 -388.665)" fill="none"/>
              </g>
            </g>
          </g>
        </g>
      </g>
    </g>
    <path id="Trazado_67430" data-name="Trazado 67430" d="M49.587,69.109v2.246a3.465,3.465,0,0,1-2.968,3.45l-.562,2.006a2.577,2.577,0,0,1-2.407,1.845H38.275a2.5,2.5,0,0,1-2.407-1.845l-.562-2.006a3.465,3.465,0,0,1-2.968-3.45V69.109A2.156,2.156,0,0,1,34.5,66.943h13A2.193,2.193,0,0,1,49.587,69.109ZM39,4.686v7.381a2.086,2.086,0,1,0,4.172,0V4.686A2.071,2.071,0,0,0,41.083,2.6,2.124,2.124,0,0,0,39,4.686ZM16.373,38.863a2.071,2.071,0,0,0-2.086-2.086h-7.3a2.086,2.086,0,0,0,0,4.172h7.381A2.169,2.169,0,0,0,16.373,38.863ZM75.18,36.777H67.8a2.086,2.086,0,1,0,0,4.172H75.18a2.071,2.071,0,0,0,2.086-2.086A1.937,1.937,0,0,0,75.18,36.777Zm-54.555,19.5L15.41,61.488A2.072,2.072,0,1,0,18.3,64.456l5.215-5.215a2,2,0,0,0,0-2.968A2.032,2.032,0,0,0,20.625,56.273ZM63.788,13.19l-5.215,5.215a2,2,0,0,0,0,2.968,2.347,2.347,0,0,0,1.524.642,2.009,2.009,0,0,0,1.444-.642l5.215-5.215a2,2,0,0,0,0-2.968A2,2,0,0,0,63.788,13.19Zm-45.49,0a2,2,0,0,0-2.968,0,2,2,0,0,0,0,2.968l5.3,5.215a2.071,2.071,0,1,0,2.888-2.968ZM61.541,56.273a2.1,2.1,0,0,0-2.968,2.968l5.215,5.215a2.071,2.071,0,0,0,2.888-2.968ZM60.5,39.024A19.547,19.547,0,0,1,55.043,52.5a13.465,13.465,0,0,0-3.691,7.461,5.079,5.079,0,0,1-4.974,4.252H35.627a5.006,5.006,0,0,1-4.974-4.252A13.735,13.735,0,0,0,26.963,52.5a19.4,19.4,0,0,1,13.8-32.894h.16A19.621,19.621,0,0,1,60.5,39.024Zm-5.375.08A14.12,14.12,0,1,0,41,53.224,14.141,14.141,0,0,0,55.123,39.1Zm-3.209,0A10.911,10.911,0,1,1,41,28.193,10.922,10.922,0,0,1,51.914,39.1Zm-5.375-2.487-2.086-2.086-4.894,4.814-2.006-2.086-2.086,2.166,2.006,2.086L39.559,43.6l2.086-2.086Z" transform="translate(208.1 3102.144)" fill="#fff"/>
  </g>
</svg>
