<svg xmlns="http://www.w3.org/2000/svg" width="120" height="120" viewBox="0 0 120 120">
  <g id="Grupo_27406" data-name="Grupo 27406" transform="translate(-244 -2016)">
    <g id="Grupo_26992" data-name="Grupo 26992" transform="translate(18 17)">
      <g id="Elipse_1930" data-name="Elipse 1930" transform="translate(226 1999)" fill="#fff" stroke="#92934e" stroke-width="6">
        <circle cx="60" cy="60" r="60" stroke="none"/>
        <circle cx="60" cy="60" r="57" fill="none"/>
      </g>
      <g id="NewGroup1-6" transform="translate(257.94 2022.846)">
        <g id="Grupo_25513" data-name="Grupo 25513" transform="translate(0)">
          <path id="Trazado_66715" data-name="Trazado 66715" d="M316.11,478.175v0a12.283,12.283,0,0,0-.566-1.444v0c-.107-.225-.22-.451-.342-.673h0l-.007-.012,0,0h0c-.061-.114-.122-.222-.18-.325s-.125-.215-.2-.332h0l-.008-.011,0-.005h0a17.01,17.01,0,0,0-1.784-2.392,21.773,21.773,0,0,0-2.1-2.063h0a26.816,26.816,0,0,0-4.749-3.266h0a26.93,26.93,0,0,0-2.591-1.233h0c-.44-.178-.89-.35-1.356-.5a1.008,1.008,0,1,0-.636,1.912h0c.41.136.82.292,1.234.459a25.32,25.32,0,0,1,6.786,4.159,19.805,19.805,0,0,1,1.9,1.872v0a14.964,14.964,0,0,1,1.584,2.124l.01.017c.049.077.1.165.155.262l0,.006c.056.1.107.188.153.276l.009.017c.1.186.2.379.293.577a10.171,10.171,0,0,1,.472,1.2A7.508,7.508,0,0,1,314.47,480a1.008,1.008,0,0,0,2-.283,9.573,9.573,0,0,0-.356-1.543Z" transform="translate(-284.838 -424.2)" fill="#ed8730" stroke="#ed8730" stroke-width="1"/>
          <path id="Trazado_66716" data-name="Trazado 66716" d="M323.3,431.535h0Zm-26.184,3.685h0Zm31.505,19.611a1,1,0,0,0-.366.62.368.368,0,0,1-.133.225,1.012,1.012,0,0,0-.377.811v.022a.376.376,0,0,1-.022.12.375.375,0,0,1-.286.234,1.007,1.007,0,0,0-.827,1.2.36.36,0,0,1-.041.261,1.009,1.009,0,0,0,0,1.01.363.363,0,0,1,.05.184.356.356,0,0,1-.045.176.374.374,0,0,1-.122.132,1.006,1.006,0,0,0-.448.9v.027a.352.352,0,0,1-.028.137.375.375,0,0,1-.135.164.36.36,0,0,1-.206.062.388.388,0,0,1-.047,0,1.005,1.005,0,0,0-1.129,1.012h0a.354.354,0,0,1-.033.15,1.009,1.009,0,0,0,0,.827.354.354,0,0,1,.033.15.374.374,0,0,1-.021.123.382.382,0,0,1-.1.149.368.368,0,0,1-.159.085,1.01,1.01,0,0,0-.75.8.369.369,0,0,1-.1.2,1.007,1.007,0,0,0-.26,1.007.35.35,0,0,1,.017.107.358.358,0,0,1-.074.221.374.374,0,0,1-.189.132,1,1,0,0,0-.655.613.378.378,0,0,1-.135.174.36.36,0,0,1-.21.067.37.37,0,0,1-.1-.015,1.008,1.008,0,0,0-1.256,1.2.351.351,0,0,1-.009.207.373.373,0,0,1-.25.234,1,1,0,0,0-.654.572.369.369,0,0,1-.11.143,1.007,1.007,0,0,0-.353,1.007.374.374,0,0,1,.01.082.365.365,0,0,1-.069.215.38.38,0,0,1-.181.134,1.008,1.008,0,0,0-.531,1.481.365.365,0,0,1,.027.336.377.377,0,0,1-.135.163.357.357,0,0,1-.206.063.37.37,0,0,1-.047,0,1.005,1.005,0,0,0-1.13,1.011h0a.359.359,0,0,1-.055.194.382.382,0,0,1-.15.135,1.006,1.006,0,0,0-.551.8v.005a1,1,0,0,0,.551,1,.382.382,0,0,1,.15.135.361.361,0,0,1,.055.194.358.358,0,0,1-.029.144.372.372,0,0,1-.135.163.37.37,0,0,1-.324.043.378.378,0,0,1-.1-.057,1.007,1.007,0,0,0-1.392.165.381.381,0,0,1-.127.1.362.362,0,0,1-.161.036.347.347,0,0,1-.115-.019.382.382,0,0,1-.1-.054,1.008,1.008,0,0,0-1.492.346.368.368,0,0,1-.135.146.358.358,0,0,1-.192.055.365.365,0,0,1-.161-.037.372.372,0,0,1-.127-.1,1,1,0,0,0-1.007-.346.4.4,0,0,1-.083.01.384.384,0,0,1-.1-.014,1.008,1.008,0,0,0-.809.117.356.356,0,0,1-.184.055,1.006,1.006,0,0,0-.86.536.377.377,0,0,1-.135.145.365.365,0,0,1-.192.054.379.379,0,0,1-.143-.029.366.366,0,0,1-.118-.079,1.011,1.011,0,0,0-1.156-.187.349.349,0,0,1-.162.039.358.358,0,0,1-.13-.024.386.386,0,0,1-.112-.067,1.007,1.007,0,0,0-1.322,0,.385.385,0,0,1-.112.067.355.355,0,0,1-.13.024.361.361,0,0,1-.153-.034,1.009,1.009,0,0,0-1.274.376.389.389,0,0,1-.133.127.366.366,0,0,1-.362,0,1.01,1.01,0,0,0-1.01,0,.353.353,0,0,1-.184.05.369.369,0,0,1-.126-.022.379.379,0,0,1-.107-.061,1.007,1.007,0,0,0-1.274,0,.38.38,0,0,1-.107.061.369.369,0,0,1-.126.022.359.359,0,0,1-.177-.045.392.392,0,0,1-.133-.125,1.007,1.007,0,0,0-1.533-.19.386.386,0,0,1-.116.075.37.37,0,0,1-.135.026.366.366,0,0,1-.2-.061.382.382,0,0,1-.135-.161,1.008,1.008,0,0,0-1.285-.536.366.366,0,0,1-.132.026.383.383,0,0,1-.144-.029.378.378,0,0,1-.163-.135.363.363,0,0,1-.062-.2V476.6a1.011,1.011,0,0,0-.307-.78.366.366,0,0,1-.05-.474,1.007,1.007,0,0,0-.423-1.492.376.376,0,0,1-.161-.135.355.355,0,0,1-.061-.2c0-.005,0-.019,0-.045a1.006,1.006,0,0,0-1.012-1.123h0a.383.383,0,0,1-.132-.025.37.37,0,0,1-.155-.115.365.365,0,0,1-.077-.179,1.011,1.011,0,0,0-.448-.708.385.385,0,0,1-.114-.119,1.009,1.009,0,0,0-1.008-.472.453.453,0,0,1-.055.006.351.351,0,0,1-.143-.029.378.378,0,0,1-.164-.135.362.362,0,0,1-.062-.206.377.377,0,0,1,0-.048,1.009,1.009,0,0,0-.513-1.006.376.376,0,0,1-.14-.135.359.359,0,0,1-.053-.189s0-.017.005-.05a1.011,1.011,0,0,0-.495-1.007.383.383,0,0,1-.137-.135.362.362,0,0,1-.05-.186.373.373,0,0,1,.037-.158,1.008,1.008,0,0,0-.23-1.18.392.392,0,0,1-.09-.123.358.358,0,0,1-.031-.141V466a1.008,1.008,0,0,0-.779-1.014.368.368,0,0,1-.2-.129.373.373,0,0,1-.06-.105.379.379,0,0,1-.022-.125.369.369,0,0,1,.031-.146.383.383,0,0,1,.086-.122,1.007,1.007,0,0,0-.229-1.627.374.374,0,0,1-.147-.135.358.358,0,0,1-.055-.193.365.365,0,0,1,.05-.184,1.011,1.011,0,0,0,0-1.009.37.37,0,0,1-.05-.184.394.394,0,0,1,.013-.092,1.007,1.007,0,0,0-.78-1.237.363.363,0,0,1-.192-.107.371.371,0,0,1-.1-.2,1.007,1.007,0,0,0-.6-.778.374.374,0,0,1-.2-.208,1.007,1.007,0,0,0-.9-.643.364.364,0,0,1-.294-.168.35.35,0,0,1-.059-.2.374.374,0,0,1,.012-.087,1.006,1.006,0,0,0-.518-1.131.371.371,0,0,1-.2-.284,1.01,1.01,0,0,0-.348-.649.386.386,0,0,1-.1-.125.377.377,0,0,1-.035-.156.366.366,0,0,1,.03-.145,1.008,1.008,0,0,0-.66-1.369.373.373,0,0,1-.2-.131.361.361,0,0,1-.056-.1.383.383,0,0,1-.019-.112v-.027a1,1,0,0,0-1.009-1.053h0a.363.363,0,0,1-.138-.026.371.371,0,0,1-.159-.124.366.366,0,0,1-.071-.192,1,1,0,0,0-.465-.778.382.382,0,0,1-.127-.134.364.364,0,0,1-.047-.178.36.36,0,0,1,.05-.183,1.014,1.014,0,0,0,0-1.011.355.355,0,0,1-.048-.171,1.011,1.011,0,0,0-.542-.861.367.367,0,0,1-.146-.135.358.358,0,0,1-.055-.192.381.381,0,0,1,.01-.082,1.006,1.006,0,0,0-.222-.879.386.386,0,0,1-.067-.112.353.353,0,0,1-.023-.129.364.364,0,0,1,.06-.2,1,1,0,0,0,0-1.1.364.364,0,0,1-.023-.359,1,1,0,0,0-.08-1.009.369.369,0,0,1-.035-.358.382.382,0,0,1,.09-.123,1.011,1.011,0,0,0,.3-.973.373.373,0,0,1-.011-.084.364.364,0,0,1,.06-.2,1,1,0,0,0,0-1.1.365.365,0,0,1-.06-.2.37.37,0,0,1,.041-.168,1.007,1.007,0,0,0,0-.918.368.368,0,0,1,.222-.521,1.008,1.008,0,0,0,.708-1.1.24.24,0,0,1,0-.03,1.011,1.011,0,0,0-.361-.734.384.384,0,0,1-.1-.125.375.375,0,0,1-.035-.158.352.352,0,0,1,.024-.132.372.372,0,0,1,.115-.156.368.368,0,0,1,.18-.077,1.006,1.006,0,0,0,.819-.671h0l.014-.037a1,1,0,0,0,0-.7.389.389,0,0,1-.024-.128.363.363,0,0,1,.055-.194.382.382,0,0,1,.148-.135,1.011,1.011,0,0,0,.542-.775.369.369,0,0,1,.046-.138,1.008,1.008,0,0,0,0-1.009.361.361,0,0,1-.05-.184.356.356,0,0,1,.029-.143.37.37,0,0,1,.334-.226l.031,0a1.009,1.009,0,0,0,1.006-.66.376.376,0,0,1,.135-.176.355.355,0,0,1,.212-.068.384.384,0,0,1,.1.014,1.008,1.008,0,0,0,.844-.14.353.353,0,0,1,.208-.065.358.358,0,0,1,.214.069,1.008,1.008,0,0,0,1.175,0,.379.379,0,0,1,.1-.052.353.353,0,0,1,.112-.017.37.37,0,0,1,.144.028.378.378,0,0,1,.163.135.363.363,0,0,1,.063.206.4.4,0,0,1-.007.066,1.008,1.008,0,0,0,.726,1.146.378.378,0,0,1,.2.131.365.365,0,0,1,.056.1.356.356,0,0,1,.02.121.365.365,0,0,1-.023.128.384.384,0,0,1-.065.11,1.007,1.007,0,0,0,0,1.307.367.367,0,0,1,.065.11.368.368,0,0,1-.041.336,1,1,0,0,0,0,1.139.367.367,0,0,1,.064.208.358.358,0,0,1-.055.19,1.011,1.011,0,0,0,.117,1.205.353.353,0,0,1,.073.114.367.367,0,0,1,.026.134.362.362,0,0,1-.066.209.376.376,0,0,1-.17.135,1.01,1.01,0,0,0-.637,1.007l0,.038h0a1.005,1.005,0,0,0,1.007.995.37.37,0,0,1,.307.164.364.364,0,0,1,.062.2v.017a1.006,1.006,0,0,0,.8,1.007.373.373,0,0,1,.209.128.369.369,0,0,1,.084.234.361.361,0,0,1-.035.155,1.008,1.008,0,0,0,.637,1.392.371.371,0,0,1,.193.132.359.359,0,0,1,.075.223.35.35,0,0,1-.027.138,1.006,1.006,0,0,0,.577,1.321.367.367,0,0,1,.15.106,1.008,1.008,0,0,0,1.438.094.362.362,0,0,1,.115-.071.351.351,0,0,1,.132-.025.382.382,0,0,1,.087.012,1.008,1.008,0,0,0,1.244-1.009v-.022a.366.366,0,0,1,.05-.177.384.384,0,0,1,.139-.135,1,1,0,0,0,.513-.825.368.368,0,0,1,.272-.336,1.007,1.007,0,0,0,.613-1.479.357.357,0,0,1-.05-.184.383.383,0,0,1,.014-.1,1,1,0,0,0-.118-.815.361.361,0,0,1-.007-.381,1.006,1.006,0,0,0-.142-1.2.383.383,0,0,1-.076-.117.37.37,0,0,1-.027-.138.34.34,0,0,1,.021-.12.38.38,0,0,1,.058-.106,1.006,1.006,0,0,0,0-1.239.374.374,0,0,1-.058-.106.342.342,0,0,1-.021-.12s0-.018,0-.046a1.009,1.009,0,0,0-.354-.894.386.386,0,0,1-.1-.126.369.369,0,0,1,.03-.366.373.373,0,0,1,.171-.135,1.007,1.007,0,0,0,.608-.7h0l.007-.025a1.011,1.011,0,0,0-.613-1.186.373.373,0,0,1-.172-.135.362.362,0,0,1-.065-.209.375.375,0,0,1,.016-.107,1,1,0,0,0-.394-1.125.377.377,0,0,1-.118-.132.364.364,0,0,1-.044-.174.369.369,0,0,1,.01-.081,1.009,1.009,0,0,0-.354-1,.379.379,0,0,1-.1-.127.366.366,0,0,1-.037-.161.341.341,0,0,1,.008-.073,1.006,1.006,0,0,0-.394-1.007.383.383,0,0,1-.113-.13.357.357,0,0,1-.04-.168.37.37,0,0,1,.008-.078,1.006,1.006,0,0,0-.258-.907.369.369,0,0,1-.077-.117.373.373,0,0,1-.027-.139.367.367,0,0,1,.035-.156.372.372,0,0,1,.1-.126,1.009,1.009,0,0,0,0-1.539.367.367,0,0,1-.132-.282.384.384,0,0,1,.021-.119,1.01,1.01,0,0,0-.259-1.055.388.388,0,0,1-.086-.121.357.357,0,0,1-.007-.27,1.01,1.01,0,0,0,0-.68.359.359,0,0,1-.023-.124.349.349,0,0,1,.008-.071,1.009,1.009,0,0,0-.236-.86.389.389,0,0,1-.07-.113.365.365,0,0,1-.024-.131.357.357,0,0,1,.06-.2.38.38,0,0,1,.159-.136,1.007,1.007,0,0,0,.588-.827.376.376,0,0,1,.017-.079,1.013,1.013,0,0,0-.094-.824.361.361,0,0,1-.053-.187.37.37,0,0,1,.026-.135.4.4,0,0,1,.074-.116,1.008,1.008,0,0,0,.26-.834.368.368,0,0,1-.005-.053.364.364,0,0,1,.028-.143.37.37,0,0,1,.135-.163.357.357,0,0,1,.206-.063.35.35,0,0,1,.153.035,1.012,1.012,0,0,0,1.262-.359.382.382,0,0,1,.132-.122.375.375,0,0,1,.176-.045.391.391,0,0,1,.065.007,1,1,0,0,0,.755-.171.366.366,0,0,1,.407-.012.38.38,0,0,1,.136.151,1.006,1.006,0,0,0,1.155.529.36.36,0,0,1,.093-.013.355.355,0,0,1,.135.025.368.368,0,0,1,.159.12.363.363,0,0,1,.073.186,1.011,1.011,0,0,0,.624.834.377.377,0,0,1,.168.135.354.354,0,0,1,.063.207.345.345,0,0,1-.025.133.376.376,0,0,1-.072.115,1.008,1.008,0,0,0,.485,1.652.373.373,0,0,1,.2.131.365.365,0,0,1,.057.1.359.359,0,0,1,.02.121.366.366,0,0,1-.041.168,1.008,1.008,0,0,0,.523,1.4.377.377,0,0,1,.17.135.369.369,0,0,1,0,.42,1.007,1.007,0,0,0,.382,1.486.381.381,0,0,1,.153.136.356.356,0,0,1,.057.2.363.363,0,0,1-.051.186.38.38,0,0,1-.138.135,1.008,1.008,0,0,0,.1,1.8.373.373,0,0,1,.162.135.365.365,0,0,1,.062.2.358.358,0,0,1-.012.086,1,1,0,0,0,.171.834.378.378,0,0,1,.055.1.352.352,0,0,1,.019.115.374.374,0,0,1-.009.082,1,1,0,0,0,.353,1.007.373.373,0,0,1,.1.127.367.367,0,0,1,.037.161.448.448,0,0,1-.006.051,1.009,1.009,0,0,0,.483,1.009.375.375,0,0,1,.108.1,1.02,1.02,0,0,0,.166.172,1,1,0,0,0-.126.2c-.007.016-.012.025-.014.028a1.007,1.007,0,0,0-.1.747.374.374,0,0,1,.013.091.361.361,0,0,1-.05.186.383.383,0,0,1-.137.135,1.007,1.007,0,0,0,.1,1.8.424.424,0,0,1,.062.035,1.007,1.007,0,0,0,.909.118.349.349,0,0,1,.242,0,1.006,1.006,0,0,0,1.108-.318h0l.02-.022a1.006,1.006,0,0,0,0-1.39.388.388,0,0,1-.076-.116.355.355,0,0,1-.027-.137.361.361,0,0,1,.025-.132,1.009,1.009,0,0,0-.3-1.138.416.416,0,0,1-.06-.064.984.984,0,0,0-.166-.172,1.008,1.008,0,0,0,.126-.2.367.367,0,0,1,.2-.189,1.008,1.008,0,0,0,.094-1.834.375.375,0,0,1-.147-.135.364.364,0,0,1-.055-.193.356.356,0,0,1,.032-.149.388.388,0,0,1,.091-.124,1.008,1.008,0,0,0-.188-1.627.377.377,0,0,1-.139-.135.358.358,0,0,1-.053-.189.368.368,0,0,1,.079-.226,1,1,0,0,0-.094-1.344.371.371,0,0,1-.084-.121.346.346,0,0,1-.03-.145.356.356,0,0,1,.044-.175,1.015,1.015,0,0,0,0-.963.358.358,0,0,1-.044-.175.352.352,0,0,1,.031-.148.382.382,0,0,1,.089-.122,1.007,1.007,0,0,0-.526-1.734.37.37,0,0,1-.222-.125.376.376,0,0,1-.065-.109.37.37,0,0,1-.023-.13.361.361,0,0,1,.061-.2.382.382,0,0,1,.163-.135,1.007,1.007,0,0,0,.523-1.327.36.36,0,0,1-.03-.147.355.355,0,0,1,.019-.116.374.374,0,0,1,.055-.1,1,1,0,0,0-.153-1.369.373.373,0,0,1-.1-.125.366.366,0,0,1,.015-.339,1.009,1.009,0,0,0,0-1.01.361.361,0,0,1-.05-.184.357.357,0,0,1,.05-.184,1.009,1.009,0,0,0,0-1.01.361.361,0,0,1-.05-.184.354.354,0,0,1,.024-.129,1,1,0,0,0,0-.708.349.349,0,0,1-.018-.068,1,1,0,0,0-.26-.526.384.384,0,0,1-.075-.117.358.358,0,0,1-.027-.136.371.371,0,0,1,.026-.136.381.381,0,0,1,.123-.159.368.368,0,0,1,.19-.072,1.008,1.008,0,0,0,.9-1.243.342.342,0,0,1-.012-.079c0-.021,0-.037,0-.057a.358.358,0,0,1,.026-.129,1,1,0,0,0,0-.743.362.362,0,0,1-.027-.135.356.356,0,0,1,.029-.144.373.373,0,0,1,.135-.163.357.357,0,0,1,.206-.063.384.384,0,0,1,.083.01,1,1,0,0,0,1.006-.354.376.376,0,0,1,.173-.121,1.01,1.01,0,0,0,.524-.4.377.377,0,0,1,.132-.122.369.369,0,0,1,.351,0,.368.368,0,0,1,.132.12,1.008,1.008,0,0,0,1.125.4.394.394,0,0,1,.107-.017.371.371,0,0,1,.116.019.364.364,0,0,1,.1.055,1.009,1.009,0,0,0,1.009.118.364.364,0,0,1,.276-.009.4.4,0,0,1,.11.065,1,1,0,0,0,.59.237.379.379,0,0,1,.135.035.375.375,0,0,1,.153.135.368.368,0,0,1-.009.408,1.008,1.008,0,0,0,.513,1.533.37.37,0,0,1,.184.133.363.363,0,0,1,.032.381,1.008,1.008,0,0,0,.259,1.227.372.372,0,0,1,.1.126.367.367,0,0,1,.018.272.373.373,0,0,1-.052.1,1,1,0,0,0-.142.9.373.373,0,0,1-.01.256.379.379,0,0,1-.079.118,1.008,1.008,0,0,0-.117,1.28.367.367,0,0,1,.064.208.374.374,0,0,1-.027.139.38.38,0,0,1-.078.117,1.011,1.011,0,0,0-.235,1.007.361.361,0,0,1,.018.114.357.357,0,0,1-.018.113,1.011,1.011,0,0,0,.236,1.008.387.387,0,0,1,.077.117.367.367,0,0,1,0,.278.381.381,0,0,1-.076.117,1.008,1.008,0,0,0-.094,1.281.356.356,0,0,1,.069.212.363.363,0,0,1-.026.135.384.384,0,0,1-.074.116,1.007,1.007,0,0,0,.094,1.462.379.379,0,0,1,.1.126.366.366,0,0,1,.036.159.378.378,0,0,1-.023.127.358.358,0,0,1-.064.109,1.009,1.009,0,0,0,0,1.3.363.363,0,0,1,.064.109.382.382,0,0,1,.023.128.367.367,0,0,1-.042.168,1.01,1.01,0,0,0,.269,1.251.375.375,0,0,1,.1.127.348.348,0,0,1,.037.161.365.365,0,0,1-.035.159.383.383,0,0,1-.1.126,1.007,1.007,0,0,0-.27,1.2.367.367,0,0,1,.022.061,1,1,0,0,0,.4.57.383.383,0,0,1,.118.132.37.37,0,0,1-.023.382,1.009,1.009,0,0,0,0,1.148.366.366,0,0,1,.031.364,1.007,1.007,0,0,0,.094,1.009.367.367,0,0,1,.012.41.379.379,0,0,1-.154.135,1.008,1.008,0,0,0,0,1.816.375.375,0,0,1,.193.219,1.008,1.008,0,0,0,1.323.627.383.383,0,0,1,.133-.026.362.362,0,0,1,.15.033,1,1,0,0,0,1.126-.21.367.367,0,0,1,.243-.107,1.007,1.007,0,0,0,.337-1.937.378.378,0,0,1-.166-.135.368.368,0,0,1-.013-.39,1.009,1.009,0,0,0,0-1.01.364.364,0,0,1,0-.367,1.014,1.014,0,0,0,.083-.827.369.369,0,0,1-.02-.117.365.365,0,0,1,.038-.163.388.388,0,0,1,.107-.129,1.007,1.007,0,0,0,.117-1.486.452.452,0,0,1-.033-.04,1,1,0,0,0-.448-.356.368.368,0,0,1-.168-.135.369.369,0,0,1-.014-.394.381.381,0,0,1,.138-.135,1.009,1.009,0,0,0,.329-1.454.364.364,0,0,1-.006-.413,1.006,1.006,0,0,0-.082-1.215.4.4,0,0,1-.068-.112.372.372,0,0,1,.023-.308,1.009,1.009,0,0,0-.246-1.274.373.373,0,0,1-.1-.127.371.371,0,0,1,.026-.367.378.378,0,0,1,.165-.135,1,1,0,0,0,.5-.456,1.454,1.454,0,0,1,.142-.209,3.389,3.389,0,0,1,.41-.422,5.031,5.031,0,0,1,.562-.426,1.01,1.01,0,0,0,.455-.884v-.024a.364.364,0,0,1,.163-.3.359.359,0,0,1,.206-.063.362.362,0,0,1,.229.081,1,1,0,0,0,1.257,0,.39.39,0,0,1,.107-.06.373.373,0,0,1,.123-.021.357.357,0,0,1,.163.038.384.384,0,0,1,.128.106,1,1,0,0,0,.778.389.363.363,0,0,1,.142.03.374.374,0,0,1,.161.135.368.368,0,0,1,0,.412,1.006,1.006,0,0,0-.1.97.424.424,0,0,1,.027.082,1.012,1.012,0,0,0,.477.643.382.382,0,0,1,.137.135.366.366,0,0,1,0,.371,1.007,1.007,0,0,0,.212,1.274.394.394,0,0,1,.1.125.362.362,0,0,1,.034.155.351.351,0,0,1-.036.156,1.009,1.009,0,0,0,.283,1.215.381.381,0,0,1,.1.127.372.372,0,0,1-.025.366,1,1,0,0,0-.143.8.357.357,0,0,1,.012.088.368.368,0,0,1-.053.191.379.379,0,0,1-.142.135,1.009,1.009,0,0,0-.528.861v.024a1,1,0,0,0,.528.959.373.373,0,0,1,.143.135.358.358,0,0,1,.054.191.377.377,0,0,1-.019.117.37.37,0,0,1-.055.1,1,1,0,0,0-.179.816h0l.005.03a1.008,1.008,0,0,0,.179.432.361.361,0,0,1,.053.1.354.354,0,0,1,.019.113.358.358,0,0,1-.064.207.373.373,0,0,1-.168.135,1.008,1.008,0,0,0-.527,1.376.366.366,0,0,1-.009.339.387.387,0,0,1-.128.134,1.008,1.008,0,0,0,0,1.706.392.392,0,0,1,.128.134.359.359,0,0,1,.046.179.355.355,0,0,1-.031.148.383.383,0,0,1-.09.123,1.011,1.011,0,0,0-.292,1.008.358.358,0,0,1-.019.253.38.38,0,0,1-.1.126,1,1,0,0,0-.187,1.318.371.371,0,0,1,.053.13,1.008,1.008,0,0,0,1.6.609.365.365,0,0,1,.105-.057.33.33,0,0,1,.109-.019H324a1,1,0,0,0,.9-.5.381.381,0,0,1,.135-.135.355.355,0,0,1,.184-.05.378.378,0,0,1,.14.028,1.008,1.008,0,0,0,1.363-.7l.006-.024a1.008,1.008,0,0,0-.682-1.2.372.372,0,0,1-.187-.133.36.36,0,0,1-.073-.221.355.355,0,0,1,.071-.218.374.374,0,0,1,.184-.133,1.008,1.008,0,0,0,.661-1.217.368.368,0,0,1-.014-.1.356.356,0,0,1,.064-.208,1.007,1.007,0,0,0,0-1.139.354.354,0,0,1-.064-.207.365.365,0,0,1,.022-.128.382.382,0,0,1,.064-.109,1,1,0,0,0,.237-.67v-.014a.354.354,0,0,1,.022-.12.372.372,0,0,1,.278-.235,1,1,0,0,0,.585-.339.379.379,0,0,1,.125-.1.37.37,0,0,1,.274-.015.391.391,0,0,1,.1.057,1.011,1.011,0,0,0,.826.183.379.379,0,0,1,.08-.009.353.353,0,0,1,.148.032.38.38,0,0,1,.123.089,1.01,1.01,0,0,0,.76.326h0a.385.385,0,0,1,.136.026.381.381,0,0,1,.159.123.357.357,0,0,1,.072.189,1,1,0,0,0,.595.838.371.371,0,0,1,.161.135.362.362,0,0,1,.06.2.349.349,0,0,1-.033.15,1.008,1.008,0,0,0,.265,1.18.386.386,0,0,1,.1.125.378.378,0,0,1,.035.156.363.363,0,0,1-.109.261,1.007,1.007,0,0,0,0,1.426.363.363,0,0,1,.109.261.373.373,0,0,1-.024.13.406.406,0,0,1-.068.112,1.006,1.006,0,0,0,0,1.325.406.406,0,0,1,.068.112.365.365,0,0,1-.009.282.382.382,0,0,1-.094.125,1.007,1.007,0,0,0,0,1.509.382.382,0,0,1,.094.125.373.373,0,0,1,.033.152.36.36,0,0,1-.055.193.375.375,0,0,1-.147.135,1,1,0,0,0-.513,1.155.384.384,0,0,1,.014.1.351.351,0,0,1-.05.185.38.38,0,0,1-.137.135,1.008,1.008,0,0,0-.495.731.357.357,0,0,1-.041.125,1.008,1.008,0,0,0,.743,1.487.373.373,0,0,1,.294.233.361.361,0,0,1,.024.131.354.354,0,0,1-.02.121.373.373,0,0,1-.253.235,1.008,1.008,0,0,0-.744,1v.027a.357.357,0,0,1-.037.154.373.373,0,0,1-.1.128,1.007,1.007,0,0,0-.059,1.533.389.389,0,0,1,.089.123.372.372,0,0,1,0,.287.376.376,0,0,1-.076.116,1.009,1.009,0,0,0,0,1.392.371.371,0,0,1,.076.117.369.369,0,0,1,.006.258.363.363,0,0,1-.058.106,1.008,1.008,0,0,0,0,1.24.361.361,0,0,1,.078.226.368.368,0,0,1-.028.143.374.374,0,0,1-.135.163.357.357,0,0,1-.206.063.376.376,0,0,1-.084-.011,1.009,1.009,0,0,0-1.213.78.368.368,0,0,1-.132.214Zm-46.861-1.854Zm13.809-7.944Zm-5.677-3.842Zm34.787-5.932c-.032.025-.064.05-.1.078-.014-.027-.027-.054-.042-.081a2.365,2.365,0,0,0,.24-.618c.005.018.012.035.019.053a2.373,2.373,0,0,0-.122.569Zm9.214.729a2.365,2.365,0,0,0-.228-1.017,2.44,2.44,0,0,0-.156-.279,2.373,2.373,0,0,0-.916-2.207,2.5,2.5,0,0,0-.123-.308,2.375,2.375,0,0,0-1.735-1.292,2.351,2.351,0,0,0-.455-.273,2.381,2.381,0,0,0-.978-.21l-.068,0a2.291,2.291,0,0,0-1.06-.252,6.191,6.191,0,0,0-2.624,1.315c-.026.031-.05.064-.074.1-.009-.033-.017-.066-.028-.1s-.027-.073-.041-.109c.012-.03.024-.058.034-.087a2.38,2.38,0,0,0-.221-2.012l0-.006.007-.009a2.385,2.385,0,0,0,.347-1.239c0-.05,0-.1-.005-.147a2.38,2.38,0,0,0-.046-2,2.5,2.5,0,0,0-.166-.283,2.429,2.429,0,0,0,.023-.325,2.382,2.382,0,0,0-.226-1.013,2.514,2.514,0,0,0-.119-.222,2.377,2.377,0,0,0-.276-1.716,2.438,2.438,0,0,0-.286-.387,2.379,2.379,0,0,0-.947-2.588,4.068,4.068,0,0,1-1.35-.7,2.383,2.383,0,0,0-1.868-.113l-.056.022-.055-.022a2.384,2.384,0,0,0-3.134,1.748,6.721,6.721,0,0,0-.619.528,4.99,4.99,0,0,0-.422.464c-.058.073-.113.148-.166.225a2.394,2.394,0,0,0-.7.661c-.014-.063-.031-.125-.05-.186.021-.042.042-.085.06-.129a2.351,2.351,0,0,0-.15-2.109c0-.058.006-.116.006-.174s0-.117-.006-.174a2.408,2.408,0,0,0,.148-.292,2.369,2.369,0,0,0,.084-1.583c.024-.05.05-.1.072-.15a2.386,2.386,0,0,0,.187-.926,2.271,2.271,0,0,0-.015-.254c.033-.073.063-.148.089-.225a5.8,5.8,0,0,1-.235-2.42,2.383,2.383,0,0,0-.464-1.413,2.322,2.322,0,0,0-.267-.3,2.261,2.261,0,0,0,.03-.378,2.381,2.381,0,0,0-1.918-2.337,2.36,2.36,0,0,0-1.7-.332c-.06-.026-.121-.05-.184-.072a2.377,2.377,0,0,0-.77-.127h-.019a2.324,2.324,0,0,0-.383-.26,2.377,2.377,0,0,0-2.913.508,2.412,2.412,0,0,0-.377.235,2.382,2.382,0,0,0-2.325,2.384,2.4,2.4,0,0,0,.055.507q-.016.074-.028.151a2.375,2.375,0,0,0-1.251,2.1,2.362,2.362,0,0,0,.174.895,2.39,2.39,0,0,0,.213.405,2.311,2.311,0,0,0,.07,1.072,7,7,0,0,1-.1,2.066,2.362,2.362,0,0,0,.227,1.016c.026.056.055.11.086.163a2.355,2.355,0,0,0-.1.689c0,.036,0,.072,0,.107a2.422,2.422,0,0,0-.316.379,2.366,2.366,0,0,0-.143.245.7.7,0,0,1-.284-.971,2.375,2.375,0,0,0-.993-1.934,2.342,2.342,0,0,0-.121-.287,13.435,13.435,0,0,1-2.427-1.653,2.374,2.374,0,0,0-2.3-.139h-.01a2.371,2.371,0,0,0-1.466.505,2.331,2.331,0,0,0-.258-.014,2.379,2.379,0,0,0-2.38,2.269,2.434,2.434,0,0,0-.187.364,2.372,2.372,0,0,0-.172.891,2.32,2.32,0,0,0,.061.532,2.382,2.382,0,0,0-.577,2.585,2.453,2.453,0,0,0,.161.33,2.377,2.377,0,0,0,.048.446,2.327,2.327,0,0,0-.048.464,2.384,2.384,0,0,0,.2.958,2.308,2.308,0,0,0,.162.3c-.005.06-.009.122-.008.184a2.368,2.368,0,0,0,.23,1.022l.015.029-.015.03a9.482,9.482,0,0,0,1.688,6.524v.027a2.372,2.372,0,0,1,0,2.594,2.37,2.37,0,0,0,.5,1.454,2.343,2.343,0,0,0,.123.56c.006.019.015.037.022.055s-.015.037-.022.056a2.377,2.377,0,0,0,.042,1.693c.025.062.054.121.084.18a2.35,2.35,0,0,0,.1,1.447c-.006.074-.011.148-.011.225s0,.133.009.2a2.409,2.409,0,0,0-.3.307,2.366,2.366,0,0,0-.45.865,2.409,2.409,0,0,0-.455.55c-.029.048-.055.1-.081.148a2.364,2.364,0,0,0-.432-.929,2.391,2.391,0,0,0-.38-.392c0-.02,0-.04,0-.06a2.385,2.385,0,0,0-1.2-2.068c-.025-.081-.053-.161-.086-.238a1.255,1.255,0,0,1-.32-1.826,2.378,2.378,0,0,0-.169-.881c-.022-.055-.047-.107-.072-.158a2.365,2.365,0,0,0,.08-.6,2.359,2.359,0,0,1,0-1.554,2.392,2.392,0,0,0-.152-.839c-.007-.018-.016-.035-.023-.053s.016-.035.023-.053a2.379,2.379,0,0,0-.871-2.793,2.327,2.327,0,0,0-.155-.541,2.385,2.385,0,0,0-2.2-1.456,2.363,2.363,0,0,0-.744.119l-.058.022a2.365,2.365,0,0,0-1.753.059c-.066-.006-.132-.009-.2-.009a2.375,2.375,0,0,0-1.383.443,2.4,2.4,0,0,0-.528.521,2.356,2.356,0,0,0-.395.127,2.383,2.383,0,0,0-1.456,2.2,2.363,2.363,0,0,0,.086.634,3.116,3.116,0,0,1-1.358,2.123,2.38,2.38,0,0,0-.43,2.452c-.056.061-.111.123-.161.189a35.533,35.533,0,0,1-.481,4.189,2.416,2.416,0,0,0-.2.352,14.126,14.126,0,0,1-.1,2.356,2.36,2.36,0,0,1,0,1.5,2.375,2.375,0,0,0,.156.847,2.472,2.472,0,0,0,.148.311c0,.014,0,.029,0,.043a2.368,2.368,0,0,0,.827,1.8c.005.021.011.041.017.061a2.372,2.372,0,0,0,.626,2.4,2.326,2.326,0,0,0,.147.389,2.371,2.371,0,0,0,1.267,1.177l0,.009a2.391,2.391,0,0,0,.77,1.081v0a13.181,13.181,0,0,0,.909,2.256,1.28,1.28,0,0,1,.454,1.082,2.376,2.376,0,0,0,1.5,1.37,2.342,2.342,0,0,0,.529.531,2.374,2.374,0,0,0,.918,1.132,2.321,2.321,0,0,0,.084.383,2.368,2.368,0,0,0,.256,1.947c.032.05.065.1.1.147a2.379,2.379,0,0,0,1.014,2.862,2.269,2.269,0,0,0,.116.314,2.389,2.389,0,0,0,.134.251,2.354,2.354,0,0,0-.032.379,24.081,24.081,0,0,1,1.019,2.608,2.4,2.4,0,0,0,.383.48,2.356,2.356,0,0,0,.163.595,5.33,5.33,0,0,1,2.612,2.472,1.31,1.31,0,0,1,.965,1.067,2.32,2.32,0,0,0,.223.285,2.343,2.343,0,0,0-.042.434,2.371,2.371,0,0,0,.2.95,2.4,2.4,0,0,0,.243.428,2.347,2.347,0,0,0,.166.614,2.383,2.383,0,0,0,2.2,1.456h.035a2.381,2.381,0,0,0,2.505.6c.049.032.1.063.15.092a2.385,2.385,0,0,0,1.973.157c.019-.007.037-.015.055-.023.019.008.037.017.056.023a2.38,2.38,0,0,0,.814.143,2.338,2.338,0,0,1,1.377,0,2.38,2.38,0,0,0,1.17-.307,2.455,2.455,0,0,0,.324-.222c.081.008.163.013.245.013a2.374,2.374,0,0,0,.85-.157c.018-.007.035-.015.052-.022l.052.022a2.375,2.375,0,0,0,1.281.117,2.47,2.47,0,0,0,.224.109,2.378,2.378,0,0,0,2.719-.631,2.283,2.283,0,0,0,.263-.086c.057.005.114.009.172.01a2.45,2.45,0,0,0,.384.235,2.384,2.384,0,0,0,2.3-.118,2.359,2.359,0,0,0,.248-.178,2.37,2.37,0,0,0,1.575-.177c.058-.028.113-.059.168-.091A2.383,2.383,0,0,0,318.5,475a2.335,2.335,0,0,0,.161-.317,2.473,2.473,0,0,0,.274-.1,2.382,2.382,0,0,0,1.456-2.2,2.328,2.328,0,0,0-.019-.294,2.354,2.354,0,0,0,.742-1.663c.024-.032.047-.064.07-.1a3.142,3.142,0,0,1,2.017-1.821,8.853,8.853,0,0,1,1.421-1.347,2.385,2.385,0,0,0,.482-1.438c0-.041,0-.081-.005-.122a2.5,2.5,0,0,0,.139-.259,2.4,2.4,0,0,0,.727-.611,2.382,2.382,0,0,0,.516-1.481,2.333,2.333,0,0,0-.015-.266c.035-.013.071-.027.105-.042a3.578,3.578,0,0,0,1.965-4.117,2.525,2.525,0,0,0,.068-.287,2.4,2.4,0,0,0,.586-.49,2.372,2.372,0,0,0,.423-.711,2.3,2.3,0,0,0,.118-.433,4.221,4.221,0,0,1,.665-1.07,2.385,2.385,0,0,0,1.91-3.15c-.006-.019-.015-.037-.022-.055s.016-.037.022-.056a2.384,2.384,0,0,0-.043-1.693c-.006-.016-.015-.031-.022-.047s.015-.03.022-.047a2.383,2.383,0,0,0-.027-1.869c.012-.023.025-.045.037-.068a1.366,1.366,0,0,1,.762-.976,2.377,2.377,0,0,0-.231-3.179c.022-.032.042-.065.063-.1a2.376,2.376,0,0,0,.328-1.1,2.414,2.414,0,0,0,.344-.428,2.386,2.386,0,0,0,.141-2.258c-.005-.012-.012-.022-.017-.033s.012-.022.017-.033a2.386,2.386,0,0,0,.061-1.851c-.007-.017-.015-.034-.022-.051s.016-.034.022-.051a2.39,2.39,0,0,0-.03-1.783c-.006-.015-.015-.03-.022-.045s.015-.03.022-.045a2.363,2.363,0,0,0,.188-.929Z" transform="translate(-278.592 -408)" fill="#ed8730" stroke="#ed8730" stroke-width="1"/>
          <path id="Trazado_66717" data-name="Trazado 66717" d="M317.732,475.737h0v0Z" transform="translate(-289.553 -426.969)" fill="#ed8730" stroke="#ed8730" stroke-width="1"/>
          <path id="Trazado_66718" data-name="Trazado 66718" d="M320.5,479.538l0,.006h0l0-.006Z" transform="translate(-290.327 -428.034)" fill="#ed8730" stroke="#ed8730" stroke-width="1"/>
        </g>
      </g>
    </g>
  </g>
</svg>
