<svg xmlns="http://www.w3.org/2000/svg" width="334" height="327" viewBox="0 0 334 327">
  <g id="Grupo_27010" data-name="Grupo 27010" transform="translate(-159 -3839)">
    <rect id="Rectángulo_26075" data-name="Rectángulo 26075" width="334" height="327" transform="translate(159 3839)" fill="#fbf9f4"/>
    <g id="Grupo_27012" data-name="Grupo 27012" transform="translate(-42.888 3637.398)">
      <g id="Grupo_27011" data-name="Grupo 27011" transform="translate(249.215 268.2)">
        <path id="Trazado_68917" data-name="Trazado 68917" d="M484.7,392.2c-4.738,2.171-10.069,3.248-15.225,4.29-1.857.376-3.775.763-5.6,1.192a209.789,209.789,0,0,0-22.073,6.233c-8.158,2.89-13.719,6.305-18.594,11.415-4.172,4.374-6.832,10.81-7.906,19.129-1.123,8.684-4.947,15.257-11.693,20.1a56.794,56.794,0,0,1-32.319,10.059,47.988,47.988,0,0,1-12.813-1.668c-5.972-1.661-10.352-4.332-13.018-7.941-3.673-4.972-4.239-12.231-1.442-18.5,2.4-5.365,7.15-10.054,13.381-13.2,6.053-3.054,12.839-4.392,18.073-5.217,2-.316,4.08-.555,6.088-.786a74.779,74.779,0,0,0,11.8-2c4.9-1.393,8.23-5.17,11.226-8.92,5.547-6.943,13.312-11.5,20.82-15.916l1.467-.864a171.182,171.182,0,0,1,26.774-12.8,67.975,67.975,0,0,1,16.523-4.355c4.068-.43,10.05-.46,15.44,1.857a10.609,10.609,0,0,1,5.653,5.134C493.661,384.749,489.777,389.878,484.7,392.2ZM342.624,428.107a31.6,31.6,0,0,0-8.241,1.211c-.728.173-1.453.346-2.179.5a27.8,27.8,0,0,1-5.889.742,13.719,13.719,0,0,1-5.161-.917,6.089,6.089,0,0,1-3.4-2.888c-.076-.162-.141-.33-.206-.5a2.652,2.652,0,0,0-.37-.739c-.432-.511-1.37-.488-2.315-.381-5.339.584-12.9.215-16.674-2.747a3.74,3.74,0,0,1-1.58-2.507c-3.228.162-6.508.458-9.7.758-4.7.437-9.474.883-14.222.883a49.029,49.029,0,0,1-14.47-1.918c-2.731-.836-4.293-2.151-4.653-3.914a37.818,37.818,0,0,1-8.118-1.892,14.1,14.1,0,0,1-7.118-5.628c-.259-.439-.487-.9-.716-1.359a6.193,6.193,0,0,0-2.428-3.073,3.1,3.1,0,0,1-1.661-3.355c.957-4.448,3.611-8.763,7.883-12.825a84.828,84.828,0,0,1,8.463-6.765c1.141-.837,2.285-1.673,3.412-2.532a105.326,105.326,0,0,0,13.249-12.025,9.391,9.391,0,0,1,10.2-2.486c1.885.709,3.849,1.469,5.861,2.294q-8.021-16.86-7.783-37.914c0-7.583,5.337-14.629,14.451-20.479.527-.492,1.054-.98,1.575-1.458,6.321-5.819,13.718-10.417,20.871-14.864l23.329-14.506c6.124-3.808,13.062-8.123,20.964-8.587,8.684-.508,16.743,3.731,24.258,8.116,6.122,3.574,11.485,6.883,16.4,10.119,4.771,3.145,9.348,6.689,13.776,10.117,2.031,1.573,4.1,3.163,6.192,4.731,16.539,6.7,26.918,16.23,26.918,26.8.391,31.64-13.36,56.356-40.871,73.459-.843,2.125-7.67,15.784-43.5,15.784a97.853,97.853,0,0,1-21.407-2.086c.078.09.153.178.229.268a14.732,14.732,0,0,0,3.237,3.123,14.556,14.556,0,0,0,4.5,1.56c.672.157,1.344.314,2,.5.533.153,1.111.257,1.724.368,1.92.346,4.1.739,4.7,2.885l.1.365-.234.3c-1.3,1.649-4.669,3.056-6.589,3.121-.739.025-1.372.1-1.987.168A17.606,17.606,0,0,1,342.624,428.107Z" transform="translate(-233.457 -268.201)" fill="#fff"/>
        <path id="Trazado_68918" data-name="Trazado 68918" d="M268,374.888q1.722-4.081,3.477-8.246-1.481,4.292-2.93,8.493c-.97,2.788-2.045,5.573-1.932,8.37a7.984,7.984,0,0,0,1.1,3.877,6.93,6.93,0,0,0,3.027,2.527c1.241.61,2.615,1.065,3.969,1.7a8.66,8.66,0,0,1,3.6,2.89c.876,1.285,1.4,2.655,2.095,3.821a5.355,5.355,0,0,0,2.858,2.495,39.861,39.861,0,0,0,4.114,1.063,6.481,6.481,0,0,1,3.96,2.4c.906,1.37,1.054,2.89,1.719,4.05a3.552,3.552,0,0,0,3.355,1.733c2.842.058,5.454-2.139,8.548-1.92-3.114.009-5.445,2.4-8.6,2.527a5,5,0,0,1-2.308-.383,3.945,3.945,0,0,1-1.767-1.608c-.8-1.359-1.047-2.863-1.851-3.879a5.734,5.734,0,0,0-3.456-1.8,30.187,30.187,0,0,1-4.3-1.028,6.351,6.351,0,0,1-2.049-1.224,7.745,7.745,0,0,1-1.455-1.841c-.772-1.3-1.294-2.641-2.065-3.717-1.479-2.2-4.4-2.821-7.047-4.184a7.883,7.883,0,0,1-3.412-3.1,8.938,8.938,0,0,1-1.074-4.456C265.621,380.364,266.892,377.594,268,374.888Zm6.908-7.534a13.2,13.2,0,0,0-5.7,8.923A49.45,49.45,0,0,1,274.913,367.354ZM268.8,384.335a37.562,37.562,0,0,1,7.67-16.385A22.118,22.118,0,0,0,268.8,384.335Zm4.731-8.246a33.473,33.473,0,0,1,5.612-7.968,22,22,0,0,0-8.731,17.2A33.311,33.311,0,0,1,273.532,376.089Zm2.079.933a48.846,48.846,0,0,1,5.66-8.913,29.139,29.139,0,0,0-9.3,18.822A48.591,48.591,0,0,1,275.611,377.021Zm-2.063,11.417a42.438,42.438,0,0,1,8.825-17.722A25.506,25.506,0,0,0,273.548,388.438Zm5.589-8.768a31.906,31.906,0,0,1,5.387-7.261,20.221,20.221,0,0,0-8.558,15.724A31.765,31.765,0,0,1,279.137,379.669Zm-1.514,8.67a69.754,69.754,0,0,1,8.2-14.068A26.124,26.124,0,0,0,277.623,388.339Zm-34.058,20.344a30.057,30.057,0,0,1-3.576-4.313c-1.16-1.53-2.361-3.061-3.613-4.609,1.024,1.7,2.051,3.343,3.094,4.946a22.645,22.645,0,0,0,3.518,4.57,10.3,10.3,0,0,0,5.32,2.343,27.211,27.211,0,0,0,5.863.139,40.047,40.047,0,0,1-5.707-.742A11.036,11.036,0,0,1,243.565,408.683Zm-2.287-4.2a10.829,10.829,0,0,0,2.227,2.532,5.2,5.2,0,0,0,3.17,1.247c-2.234-.621-3.505-2.474-4.694-4.216a27.019,27.019,0,0,0-1.936-2.7,7.461,7.461,0,0,0-2.7-2.109C239.2,400.655,240.055,402.658,241.278,404.484Zm1.887-2.863A13.976,13.976,0,0,0,238.5,397,12.62,12.62,0,0,0,243.165,401.621Zm-.123-2.9a4.427,4.427,0,0,0-3.313-3.406A21.549,21.549,0,0,0,243.041,398.717Zm24.2,18.584a20.365,20.365,0,0,1-6.094-.321,5.6,5.6,0,0,1-4.232-4.108,4.644,4.644,0,0,0,1.3,2.927,6.748,6.748,0,0,0,2.722,1.763,17.155,17.155,0,0,0,6.289.566c4.135-.139,8.264-.423,12.591-.862C275.509,417.148,271.377,417.158,267.237,417.3Zm26.663-.125a13.754,13.754,0,0,0,6.257-5.863A65.327,65.327,0,0,0,293.9,417.176Zm3.181-5.059c-2.267,1.543-4.1,2.885-6.24,4.6A10.433,10.433,0,0,0,297.081,412.117Zm-10.249,5.649a11.4,11.4,0,0,0,6.2-5.827Zm4.711-6.855a35.011,35.011,0,0,1-8.151,6.6A11.9,11.9,0,0,0,291.543,410.911Zm-2.077-1.673c-2.551,2.62-4.824,4.757-7.583,7.16A14.982,14.982,0,0,0,289.466,409.238Zm-1.663-1.215c-3.4,3.117-6.125,5.614-9.53,8.736A25.2,25.2,0,0,0,287.8,408.023Zm-3.456-.325c-2.881,2.925-5.4,5.439-8.328,8.326A20.905,20.905,0,0,0,284.347,407.7Zm-4.456,1.925c-2.92,1.959-5.046,3.384-7.971,5.348A14.585,14.585,0,0,0,279.892,409.624Zm-4.741,1.746a39.964,39.964,0,0,0-5.942,2.945A8.352,8.352,0,0,0,275.151,411.37Zm-9.377,2.987a9.565,9.565,0,0,0,4.967-2.174A8.665,8.665,0,0,0,265.774,414.356Zm-4.784.176a3.851,3.851,0,0,1-2.28-1.77,3.614,3.614,0,0,0,2.017,2.329,10.835,10.835,0,0,0,2.909.973,12.154,12.154,0,0,0,6.1-.4,24.942,24.942,0,0,1-5.921-.406A20.13,20.13,0,0,1,260.991,414.533Zm-20.421-21.241a14.587,14.587,0,0,0,3.75,2.754A4.559,4.559,0,0,0,240.569,393.292Zm3.9-.1a1.251,1.251,0,0,0-1.631-1.423A3.109,3.109,0,0,0,244.468,393.2Zm24.136-.88c-.843-.473-1.765-.869-2.588-1.356a3.127,3.127,0,0,1-1.739-2.174,3.061,3.061,0,0,0,1.377,2.676,18.344,18.344,0,0,0,2.523,1.564,41.692,41.692,0,0,0,5.448,2.454A45.449,45.449,0,0,0,268.6,392.317Zm-3.729,1.321a21.191,21.191,0,0,0,6.1,2.833A10.421,10.421,0,0,0,264.875,393.637Zm.889,2.116a3.423,3.423,0,0,0,2.918,1.62A3.747,3.747,0,0,0,265.763,395.753Zm2.8-27.564a172.416,172.416,0,0,1-12.353,12.055A36.236,36.236,0,0,0,268.56,368.189ZM484.7,392.2c-4.738,2.171-10.069,3.248-15.225,4.29-1.857.376-3.775.763-5.6,1.192a209.789,209.789,0,0,0-22.073,6.233c-8.158,2.89-13.719,6.305-18.594,11.415-4.172,4.374-6.832,10.81-7.906,19.129-1.123,8.684-4.947,15.257-11.693,20.1a56.794,56.794,0,0,1-32.319,10.059,47.988,47.988,0,0,1-12.813-1.668c-5.972-1.661-10.352-4.332-13.018-7.941-3.673-4.972-4.239-12.231-1.442-18.5,2.4-5.365,7.15-10.054,13.381-13.2,6.053-3.054,12.839-4.392,18.073-5.217,2-.316,4.08-.555,6.088-.786a74.779,74.779,0,0,0,11.8-2c4.9-1.393,8.23-5.17,11.226-8.92,5.547-6.943,13.312-11.5,20.82-15.916l1.467-.864a171.182,171.182,0,0,1,26.774-12.8,67.975,67.975,0,0,1,16.523-4.355c4.068-.43,10.05-.46,15.44,1.857a10.609,10.609,0,0,1,5.653,5.134C493.661,384.749,489.777,389.878,484.7,392.2Zm5.2-12.143a9.132,9.132,0,0,0-4.882-4.378c-5.1-2.192-10.807-2.158-14.694-1.742a66.569,66.569,0,0,0-16.156,4.267,169.765,169.765,0,0,0-26.539,12.69l-1.47.864c-7.391,4.343-15.033,8.834-20.411,15.562-3.008,3.766-6.663,7.91-11.983,9.422a75.676,75.676,0,0,1-12.037,2.045c-1.994.231-4.055.467-6.027.778-5.127.809-11.764,2.116-17.634,5.076-5.926,2.99-10.433,7.421-12.69,12.474-2.583,5.783-2.081,12.457,1.28,17,2.463,3.334,6.573,5.822,12.217,7.391,14,3.9,31.626.612,43.863-8.167,6.48-4.648,10-10.71,11.083-19.076,1.116-8.64,3.911-15.357,8.306-19.966,5.048-5.291,10.782-8.818,19.175-11.792a211.389,211.389,0,0,1,22.23-6.277c1.844-.434,3.777-.825,5.642-1.2,5.074-1.026,10.32-2.086,14.9-4.184C487.643,389.215,492.138,385,489.9,380.059ZM353.563,453.011a24.26,24.26,0,0,0,6.384,2.192,62.734,62.734,0,0,0,13.231.989,55.711,55.711,0,0,0,25.533-6.559,21.7,21.7,0,0,0,5.29-4.214,14.647,14.647,0,0,0,3.311-5.991,14.907,14.907,0,0,0-.273-6.769,22.9,22.9,0,0,0-2.583-6.083,25.42,25.42,0,0,1,1.82,6.235,13.764,13.764,0,0,1-.405,6.235c-1.053,4.041-4.255,7.192-7.915,9.3A47.442,47.442,0,0,1,385.959,453a60.144,60.144,0,0,1-12.822,1.7,61.343,61.343,0,0,1-12.889-.961,22.818,22.818,0,0,1-5.984-2.045,11.23,11.23,0,0,1-4.514-4.082,11.066,11.066,0,0,1-1.585-5.84,11.849,11.849,0,0,1,1.745-5.854,21.243,21.243,0,0,1,9.188-8.733,21.494,21.494,0,0,0-5.827,3.11,19.4,19.4,0,0,0-4.658,4.866,13.371,13.371,0,0,0-1.94,6.582,12.538,12.538,0,0,0,1.807,6.649A12.712,12.712,0,0,0,353.563,453.011Zm134.116-70.718a6.108,6.108,0,0,1-1.329,2.617,13.019,13.019,0,0,1-4.8,3.382A50.436,50.436,0,0,1,470.1,391.4a150.87,150.87,0,0,0-23.193,5.484A77,77,0,0,0,425.514,407.7a27.337,27.337,0,0,0-7.934,9.3,39.575,39.575,0,0,0-3.643,11.8,41.263,41.263,0,0,1,4.251-11.415,27.278,27.278,0,0,1,7.989-8.638,84.553,84.553,0,0,1,21.1-10.244,188.253,188.253,0,0,1,22.914-5.852,48.733,48.733,0,0,0,11.579-3.666,13.435,13.435,0,0,0,4.854-3.8,6.421,6.421,0,0,0,1.248-2.837,5.254,5.254,0,0,0-.471-3.022A5.176,5.176,0,0,1,487.679,382.293Zm-48.563-40.9a83,83,0,0,1-25.441,16.17,101.712,101.712,0,0,1-29.158,7.139,87.22,87.22,0,0,0,29.556-6.443A73.436,73.436,0,0,0,439.116,341.4Zm-52.7,25.136a83.97,83.97,0,0,0,28.35-6.233A70.881,70.881,0,0,0,438.8,344.115,80.671,80.671,0,0,1,414.375,359.6,98.646,98.646,0,0,1,386.419,366.534Zm1.767,1.985a80.7,80.7,0,0,0,27.142-6.023,68.4,68.4,0,0,0,23.018-15.5,78.364,78.364,0,0,1-23.41,14.805A95.613,95.613,0,0,1,388.186,368.519Zm1.619,2.125a77.434,77.434,0,0,0,25.938-5.813,65.9,65.9,0,0,0,22.006-14.823,76.185,76.185,0,0,1-22.4,14.125A92.656,92.656,0,0,1,389.8,370.644Zm1.463,2.245a74.193,74.193,0,0,0,24.73-5.6,63.423,63.423,0,0,0,20.994-14.144,73.972,73.972,0,0,1-21.382,13.444A89.732,89.732,0,0,1,391.268,372.888Zm1.292,2.345a70.972,70.972,0,0,0,23.524-5.392,60.916,60.916,0,0,0,19.984-13.465A71.8,71.8,0,0,1,415.7,369.14,86.808,86.808,0,0,1,392.561,375.233Zm1.116,2.424a67.643,67.643,0,0,0,22.317-5.182,58.423,58.423,0,0,0,18.972-12.783,69.684,69.684,0,0,1-19.353,12.081A83.881,83.881,0,0,1,393.677,377.658Zm.926,2.486a64.421,64.421,0,0,0,21.111-4.97,56,56,0,0,0,17.96-12.1,67.7,67.7,0,0,1-18.339,11.4A81.159,81.159,0,0,1,394.6,380.144Zm.726,2.527a61.141,61.141,0,0,0,19.9-4.761,53.551,53.551,0,0,0,16.949-11.422,65.774,65.774,0,0,1-17.327,10.72A78.44,78.44,0,0,1,395.329,382.67Zm.515,2.55a57.924,57.924,0,0,0,18.7-4.549,51.144,51.144,0,0,0,15.937-10.743,64.082,64.082,0,0,1-16.313,10.039A75.872,75.872,0,0,1,395.844,385.22Zm.293,2.553a54.682,54.682,0,0,0,17.489-4.341,48.715,48.715,0,0,0,14.927-10.062,62.412,62.412,0,0,1-15.3,9.359A73.425,73.425,0,0,1,396.136,387.773Zm.062,2.534a51.411,51.411,0,0,0,16.283-4.129A46.367,46.367,0,0,0,426.4,376.8a61.149,61.149,0,0,1-14.287,8.678A71.1,71.1,0,0,1,396.2,390.307Zm-.182,2.5a48.2,48.2,0,0,0,15.075-3.92,44.052,44.052,0,0,0,12.9-8.7,60.109,60.109,0,0,1-13.275,8A69.152,69.152,0,0,1,396.016,392.805Zm-.436,2.442a45.083,45.083,0,0,0,13.869-3.708,41.8,41.8,0,0,0,11.893-8.022,59.649,59.649,0,0,1-12.263,7.317A67.663,67.663,0,0,1,395.581,395.247Zm-.7,2.366a41.928,41.928,0,0,0,12.661-3.5,39.649,39.649,0,0,0,10.882-7.342,60.123,60.123,0,0,1-11.253,6.638A66.695,66.695,0,0,1,394.883,397.613Zm-.973,2.271a38.021,38.021,0,0,0,21.326-9.95,62.293,62.293,0,0,1-10.244,5.96A66.771,66.771,0,0,1,393.909,399.884Zm-1.261,2.155a35.487,35.487,0,0,0,19.109-9.057,67.564,67.564,0,0,1-9.236,5.281A68.7,68.7,0,0,1,392.649,402.039ZM289.736,350.2c5.464,3.428,11.54,5.63,17.919,7.6-6.238-2.47-12.182-4.919-17.552-8.3-5.325-3.376-10.193-7.712-13.331-13.584a28.483,28.483,0,0,0,5.466,8.188A37.989,37.989,0,0,0,289.736,350.2Zm-.257,2.631c5.2,3.257,10.967,5.36,17.032,7.227a102.232,102.232,0,0,1-16.664-7.933c-5.06-3.209-9.7-7.3-12.744-12.846a27.465,27.465,0,0,0,5.237,7.76A36.512,36.512,0,0,0,289.478,352.832Zm.06,2.881a67.107,67.107,0,0,0,16.145,6.861,99.33,99.33,0,0,1-15.773-7.564A35.075,35.075,0,0,1,277.751,342.9,30.273,30.273,0,0,0,289.538,355.713Zm.365,3.091a63.342,63.342,0,0,0,15.259,6.492,96.491,96.491,0,0,1-14.885-7.194A34.153,34.153,0,0,1,278.7,346.735,29.1,29.1,0,0,0,289.9,358.8Zm.654,3.26a59.625,59.625,0,0,0,14.373,6.124,93.921,93.921,0,0,1-14-6.823,33.319,33.319,0,0,1-10.986-10.628A27.925,27.925,0,0,0,290.557,362.064Zm.933,3.385a55.8,55.8,0,0,0,13.487,5.757,91.192,91.192,0,0,1-13.106-6.455,32.528,32.528,0,0,1-10.4-9.888A26.766,26.766,0,0,0,291.49,365.449Zm1.2,3.474a52.18,52.18,0,0,0,12.6,5.388,89.556,89.556,0,0,1-12.219-6.085,31.94,31.94,0,0,1-9.812-9.149A25.652,25.652,0,0,0,292.687,368.923Zm1.446,3.516a48.469,48.469,0,0,0,11.715,5.022,87.689,87.689,0,0,1-11.33-5.716,31.507,31.507,0,0,1-9.225-8.409A24.6,24.6,0,0,0,294.133,372.439Zm1.682,3.519a44.81,44.81,0,0,0,10.831,4.655,86.8,86.8,0,0,1-10.443-5.348,31.384,31.384,0,0,1-8.638-7.668A23.581,23.581,0,0,0,295.815,375.958Zm1.906,3.48a40.911,40.911,0,0,0,9.948,4.288,86.66,86.66,0,0,1-9.558-4.979,31.64,31.64,0,0,1-8.047-6.928A22.6,22.6,0,0,0,297.721,379.439Zm2.114,3.4a37.228,37.228,0,0,0,9.064,3.923,88,88,0,0,1-8.673-4.614,32.724,32.724,0,0,1-7.457-6.185A21.8,21.8,0,0,0,299.835,382.84Zm2.31,3.28a33.545,33.545,0,0,0,8.185,3.558c-5.485-2.763-10.412-5.327-14.656-9.69A21.134,21.134,0,0,0,302.145,386.119Zm2.491,3.116a29.8,29.8,0,0,0,7.3,3.2c-4.863-2.567-9.17-4.921-13.181-8.583A20.774,20.774,0,0,0,304.636,389.235Zm-2.62-1.728a20.989,20.989,0,0,0,4.288,3.971l-.876-.557a22.171,22.171,0,0,0,10.232,6.367c-2.717-1.634-5.17-3.156-7.71-4.766a26.666,26.666,0,0,0,5.773,2.46A85.966,85.966,0,0,1,302.016,387.507Zm62.561,21.521a98.02,98.02,0,0,0,35.1-7.486,111.129,111.129,0,0,1-70.566,1.88A97.946,97.946,0,0,0,364.577,409.028Zm-32.924-3.346a93.923,93.923,0,0,0,65.562-2.061,107.669,107.669,0,0,1-65.562,2.061Zm2.537,2.259a89.62,89.62,0,0,0,60.558-2.243,104.633,104.633,0,0,1-60.558,2.243Zm2.539,2.259a85.571,85.571,0,0,0,55.553-2.424A102.371,102.371,0,0,1,336.73,410.2Zm2.537,2.26a81.941,81.941,0,0,0,50.549-2.606,101.293,101.293,0,0,1-50.549,2.606Zm12.57-107.03c3.324,4.195,7.628,7.319,11.665,10.523a78.48,78.48,0,0,1,11.2,10.539c3.324,3.865,6.358,8.1,8.04,12.878a16.123,16.123,0,0,1,.906,7.382,12.231,12.231,0,0,1-3.16,6.656,15.483,15.483,0,0,1-6.487,3.9,39.2,39.2,0,0,1-7.71,1.455,57.659,57.659,0,0,1-16-.57,55.9,55.9,0,0,0,15.932,1.185,39.882,39.882,0,0,0,7.874-1.215,16.534,16.534,0,0,0,7-3.89,12.688,12.688,0,0,0,2.4-3.281,12.414,12.414,0,0,0,1.294-3.853,16.773,16.773,0,0,0-.744-7.97c-1.68-5.083-4.773-9.456-8.157-13.421a75.634,75.634,0,0,0-11.445-10.7c-4.115-3.186-8.4-6.192-11.723-10.168a22.833,22.833,0,0,1-5.531-14.252,23.739,23.739,0,0,1,4.6-15.04,23.729,23.729,0,0,0-5.2,14.985A23.354,23.354,0,0,0,351.836,305.429Zm10.23-32.308a9.76,9.76,0,0,0-11.052,9.5A11.144,11.144,0,0,1,362.066,273.121Zm-9.272,10.606a12.665,12.665,0,0,1,4.246-6.8,13.552,13.552,0,0,1,7.467-3.123,11.523,11.523,0,0,0-7.8,2.676A10.872,10.872,0,0,0,352.794,283.726Zm1.661,1.2a14.571,14.571,0,0,1,4.78-6.808,16.98,16.98,0,0,1,7.624-3.569,13.894,13.894,0,0,0-7.957,3.11A12.269,12.269,0,0,0,354.455,284.93Zm1.576,1.285a16.97,16.97,0,0,1,5.316-6.811,22.134,22.134,0,0,1,7.781-4.018,17.215,17.215,0,0,0-8.112,3.549A13.984,13.984,0,0,0,356.031,286.216Zm1.5,1.361a20.1,20.1,0,0,1,5.848-6.815,30.449,30.449,0,0,1,7.94-4.466,22.033,22.033,0,0,0-8.269,3.988A16.12,16.12,0,0,0,357.53,287.577Zm1.428,1.43a24.152,24.152,0,0,1,6.381-6.816,46,46,0,0,1,8.1-4.917,29.566,29.566,0,0,0-8.428,4.429A18.789,18.789,0,0,0,358.958,289.007Zm1.361,1.493a29.553,29.553,0,0,1,6.912-6.82,83.788,83.788,0,0,1,8.259-5.365,42.4,42.4,0,0,0-8.587,4.87A22.088,22.088,0,0,0,360.319,290.5Zm8.417-5.776a26.307,26.307,0,0,0-7.118,7.326,36.983,36.983,0,0,1,7.444-6.82c2.7-1.964,5.49-3.838,8.414-5.815.631.388,1.255.786,1.878,1.185-3.1,1.881-6,3.756-8.841,5.714a31.643,31.643,0,0,0-7.649,7.337,47.3,47.3,0,0,1,7.973-6.82c2.846-1.964,5.646-4.013,8.523-6.228q.934.6,1.853,1.215c-3.029,2.192-6.067,4.057-8.975,6.132a38.727,38.727,0,0,0-8.178,7.345,62.949,62.949,0,0,1,8.5-6.822,95.846,95.846,0,0,0,8.657-6.649q.918.614,1.823,1.243c-2.982,2.465-6.111,4.422-9.121,6.556a48.24,48.24,0,0,0-8.708,7.354c5.727-5.156,12.277-8.317,17.84-13.9.421.291.845.582,1.261.878.182.127.356.259.536.386-5.956,5.418-12.788,8.553-18.519,14.356,3.1-2.571,6.377-4.607,9.562-6.822a48.391,48.391,0,0,0,8.973-7.524c.594.423,1.18.853,1.77,1.28-5.9,5.931-13.046,9.07-19.219,14.805,3.324-2.516,6.771-4.544,10.091-6.818,1.664-1.134,3.294-2.331,4.865-3.644a27.179,27.179,0,0,0,4.279-4.33c.589.427,1.185.848,1.77,1.28a28.969,28.969,0,0,1-4.59,4.269c-1.652,1.284-3.343,2.474-5.06,3.629a111.678,111.678,0,0,0-10.3,7.377c3.546-2.461,7.164-4.479,10.62-6.818a53.154,53.154,0,0,0,5.023-3.8,24.192,24.192,0,0,0,4.309-4.653c.584.432,1.162.867,1.742,1.3a25.72,25.72,0,0,1-4.618,4.579c-1.687,1.354-3.431,2.594-5.212,3.779-3.558,2.38-7.27,4.591-10.822,7.384,3.763-2.4,7.553-4.413,11.147-6.817a47.456,47.456,0,0,0,5.184-3.957,22.214,22.214,0,0,0,4.327-4.963q.87.651,1.733,1.3a23.528,23.528,0,0,1-4.648,4.895,61.542,61.542,0,0,1-5.365,3.93c-3.69,2.442-7.573,4.642-11.351,7.393,3.976-2.35,7.941-4.348,11.676-6.816a43.065,43.065,0,0,0,5.346-4.117,20.713,20.713,0,0,0,4.346-5.281c.575.435,1.153.869,1.726,1.307a22.073,22.073,0,0,1-4.674,5.208,54,54,0,0,1-5.522,4.083c-3.824,2.505-7.878,4.7-11.879,7.4,4.184-2.294,8.327-4.281,12.2-6.815a40.108,40.108,0,0,0,5.51-4.279,19.744,19.744,0,0,0,4.364-5.6l1.717,1.312a21.009,21.009,0,0,1-4.692,5.513,49.053,49.053,0,0,1-5.679,4.24c-3.96,2.569-8.188,4.748-12.406,7.405a140.2,140.2,0,0,0,12.728-6.811,37.827,37.827,0,0,0,5.676-4.443,19.023,19.023,0,0,0,4.373-5.9q2.573,1.968,5.159,3.914a19.36,19.36,0,0,1-4.7,6.353,40.285,40.285,0,0,1-6.159,4.72c-4.376,2.761-9.135,4.9-13.984,7.423,4.988-2.072,9.853-4,14.308-6.8a33.525,33.525,0,0,0,6.178-4.947,17.931,17.931,0,0,0,4.355-6.742c.368.275.732.555,1.1.83.208.155.423.307.635.462a19.168,19.168,0,0,1-4.679,6.591,38.541,38.541,0,0,1-6.321,4.882c-4.517,2.828-9.456,4.953-14.509,7.43,5.182-2.021,10.23-3.93,14.834-6.8a32.593,32.593,0,0,0,6.347-5.117,17.841,17.841,0,0,0,4.336-6.977c.58.432,1.167.853,1.753,1.28a19.077,19.077,0,0,1-4.657,6.8,37.03,37.03,0,0,1-6.485,5.046c-4.66,2.9-9.779,5-15.035,7.435,5.376-1.969,10.607-3.858,15.359-6.8a31.936,31.936,0,0,0,6.518-5.288,17.874,17.874,0,0,0,4.309-7.187c.587.43,1.169.866,1.763,1.289a19.066,19.066,0,0,1-4.616,6.957,35.993,35.993,0,0,1-6.649,5.212c-4.8,2.96-10.1,5.05-15.56,7.439,5.566-1.917,10.983-3.786,15.886-6.8a31.311,31.311,0,0,0,6.688-5.461,17.94,17.94,0,0,0,4.27-7.337c.621.441,1.259.866,1.887,1.3a19.141,19.141,0,0,1-4.586,7.125,34.98,34.98,0,0,1-6.813,5.379c-4.947,3.029-10.429,5.1-16.085,7.446,5.757-1.867,11.357-3.713,16.412-6.8a30.841,30.841,0,0,0,6.859-5.633,18.052,18.052,0,0,0,4.24-7.5c.661.457,1.321.915,1.989,1.363a19.207,19.207,0,0,1-4.56,7.294,34.183,34.183,0,0,1-6.979,5.547c-5.092,3.1-10.757,5.147-16.609,7.451,5.944-1.82,11.73-3.641,16.935-6.792a30.506,30.506,0,0,0,7.032-5.81,18.212,18.212,0,0,0,4.214-7.668c.644.428,1.3.843,1.947,1.261a19.306,19.306,0,0,1-4.553,7.513A33.6,33.6,0,0,1,400,317.156c-5.237,3.163-11.085,5.193-17.135,7.456,6.132-1.772,12.1-3.567,17.462-6.79a30.145,30.145,0,0,0,7.2-5.984,18.341,18.341,0,0,0,4.205-7.885c.628.4,1.262.8,1.9,1.192a19.39,19.39,0,0,1-4.558,7.765,33.122,33.122,0,0,1-7.308,5.884c-5.385,3.232-11.418,5.238-17.66,7.462,6.317-1.724,12.474-3.495,17.986-6.786a29.9,29.9,0,0,0,7.375-6.161,18.477,18.477,0,0,0,4.2-8.139c.617.379,1.231.765,1.857,1.132a19.53,19.53,0,0,1-4.574,8.06,32.585,32.585,0,0,1-7.476,6.053c-5.531,3.3-11.748,5.284-18.184,7.467,6.5-1.679,12.847-3.421,18.512-6.785a29.635,29.635,0,0,0,7.548-6.337,18.631,18.631,0,0,0,4.21-8.435c.6.353,1.218.682,1.828,1.024a19.576,19.576,0,0,1-4.612,8.46,32.327,32.327,0,0,1-7.643,6.224c-5.681,3.368-12.081,5.328-18.707,7.471,6.686-1.633,13.215-3.345,19.035-6.779a29.58,29.58,0,0,0,7.721-6.515,18.735,18.735,0,0,0,4.235-8.844c.6.335,1.183.681,1.788,1a19.641,19.641,0,0,1-4.658,8.9,32.021,32.021,0,0,1-7.809,6.4c-5.829,3.435-12.415,5.369-19.231,7.474,6.868-1.589,13.585-3.271,19.559-6.776a29.422,29.422,0,0,0,7.894-6.695,18.836,18.836,0,0,0,4.263-9.292c.2.108.39.226.591.331,3.23,1.677,6.591,3.161,9.341,5.584a13.825,13.825,0,0,1,3.324,4.332,9.254,9.254,0,0,1,.9,5.438,9.26,9.26,0,0,0-.64-5.5,13.861,13.861,0,0,0-3.19-4.567c-2.706-2.592-6.072-4.221-9.223-5.954A159.629,159.629,0,0,1,402.4,296.113c-5.762-4.286-11.452-8.731-17.544-12.788a88.163,88.163,0,0,0-19.735-10.242,86.934,86.934,0,0,1,12.355,6.333A69.554,69.554,0,0,0,368.737,284.724Zm28.34,8.751a20.227,20.227,0,0,1-4.7,5.8,45.129,45.129,0,0,1-5.838,4.4c-4.1,2.632-8.5,4.8-12.931,7.411a117.856,117.856,0,0,0,13.256-6.809,35.993,35.993,0,0,0,5.841-4.609A18.493,18.493,0,0,0,397.076,293.475Zm-2.648,7.783a18.165,18.165,0,0,0,4.369-6.481,19.708,19.708,0,0,1-4.7,6.09,42.411,42.411,0,0,1-6,4.558c-4.237,2.7-8.816,4.852-13.458,7.418a103.978,103.978,0,0,0,13.783-6.806A34.653,34.653,0,0,0,394.428,301.257Zm22.26,17.9a18.933,18.933,0,0,0,4.3-9.84,19.706,19.706,0,0,1-4.718,9.437,31.786,31.786,0,0,1-7.977,6.571c-5.979,3.5-12.75,5.411-19.755,7.479,7.049-1.546,13.952-3.2,20.083-6.774A29.341,29.341,0,0,0,416.688,319.157Zm1.67,1.529a19.155,19.155,0,0,0,4.293-10.115,19.935,19.935,0,0,1-4.718,9.712,31.647,31.647,0,0,1-8.144,6.744c-6.129,3.572-13.085,5.454-20.278,7.483,7.231-1.5,14.321-3.123,20.608-6.771A29.286,29.286,0,0,0,418.358,320.686Zm1.619,1.587a19.422,19.422,0,0,0,4.286-10.389,20.2,20.2,0,0,1-4.717,9.985,31.455,31.455,0,0,1-8.313,6.915c-6.279,3.641-13.421,5.5-20.8,7.488,7.412-1.46,14.689-3.049,21.132-6.767A29.263,29.263,0,0,0,419.976,322.273Zm1.566,1.659a19.682,19.682,0,0,0,4.277-10.664,20.437,20.437,0,0,1-4.715,10.258,31.38,31.38,0,0,1-8.481,7.09c-6.43,3.71-13.758,5.536-21.324,7.493,7.592-1.421,15.054-2.974,21.654-6.765A29.29,29.29,0,0,0,421.542,323.932Zm1.513,1.746a19.966,19.966,0,0,0,4.27-10.937,20.7,20.7,0,0,1-4.715,10.53,31.306,31.306,0,0,1-8.648,7.264c-6.582,3.778-14.095,5.577-21.848,7.5,7.772-1.381,15.419-2.9,22.179-6.762A29.343,29.343,0,0,0,423.055,325.677Zm-7.807,8.879c-6.734,3.847-14.432,5.614-22.371,7.5,7.952-1.338,15.786-2.825,22.7-6.757a29.383,29.383,0,0,0,8.936-7.776,20.263,20.263,0,0,0,4.263-11.212,20.982,20.982,0,0,1-4.715,10.8A31.255,31.255,0,0,1,415.247,334.557Zm1.233,2.139c-6.885,3.916-14.77,5.653-22.893,7.506,8.13-1.3,16.151-2.752,23.225-6.755a29.446,29.446,0,0,0,9.11-7.957,20.561,20.561,0,0,0,4.258-11.484,21.288,21.288,0,0,1-4.715,11.073A31.24,31.24,0,0,1,416.48,336.7Zm1.181,2.269c-7.039,3.987-15.109,5.693-23.417,7.511,8.31-1.261,16.514-2.68,23.748-6.751a29.523,29.523,0,0,0,9.283-8.139,20.86,20.86,0,0,0,4.251-11.757,21.578,21.578,0,0,1-4.713,11.346A31.206,31.206,0,0,1,417.661,338.965Zm.065,3.315a29.837,29.837,0,0,0,10.017-8,21.943,21.943,0,0,0,4.828-12.039,22.721,22.721,0,0,1-5.261,11.586,31.249,31.249,0,0,1-9.883,7.68c-7.511,3.87-16.034,5.279-24.8,6.742a129.286,129.286,0,0,0,12.956-1.851A48.405,48.405,0,0,0,417.726,342.28Zm.751.9c-7.772,4.209-16.651,5.93-25.852,7.271,9.211-.8,18.219-2.232,26.164-6.5a33.23,33.23,0,0,0,10.4-8.465,19.8,19.8,0,0,0,4.616-12.69,20.282,20.282,0,0,1-5.046,12.233A35.114,35.114,0,0,1,418.478,343.182Zm11.764-6.94a38.71,38.71,0,0,1-10.669,8.648c-8.052,4.531-17.3,6.54-26.945,7.77,9.643-.684,19.048-2.409,27.264-7A36.525,36.525,0,0,0,430.67,336.7a21.852,21.852,0,0,0,3.514-6.2,15.646,15.646,0,0,0,.859-7.132C435.355,328.222,433.188,332.737,430.241,336.242Zm1.513,1.2A41.14,41.14,0,0,1,420.7,346.61c-8.336,4.861-17.981,7.13-28.073,8.259,10.087-.578,19.9-2.571,28.4-7.492a39,39,0,0,0,11.154-9.47,21.547,21.547,0,0,0,3.613-6.51,14.165,14.165,0,0,0,.483-7.469,14.319,14.319,0,0,1-.808,7.294A21.825,21.825,0,0,1,431.754,337.447ZM348.4,290.708a16.188,16.188,0,0,0,2.7,8.692,29.507,29.507,0,0,0,6.048,6.667c4.537,3.863,9.7,6.811,13.7,11.609a32.482,32.482,0,0,0-6.083-6.758c-2.259-1.978-4.621-3.759-6.861-5.653a35.769,35.769,0,0,1-6.1-6.3A17.448,17.448,0,0,1,348.4,290.708Zm19.861,65.326a14.55,14.55,0,0,0,7.5-24.009,15.962,15.962,0,0,1-7.5,24.009Zm-6.712.268a13.367,13.367,0,0,0,13.439-12.557A17.762,17.762,0,0,1,361.552,356.3Zm-74.642-16.1a53.177,53.177,0,0,0,18.192,9.712,72.271,72.271,0,0,1-17.424-10.505,20.929,20.929,0,0,1-6.072-7.774,11.8,11.8,0,0,1,.162-9.944,11.6,11.6,0,0,0-.947,10.193A19.663,19.663,0,0,0,286.909,340.2Zm48-59.246c4.112-3.138,8.37-6.295,13.457-8.164-5.164,1.5-9.657,4.445-13.871,7.439s-8.275,6.178-12.78,8.523a130.735,130.735,0,0,0-13.511,7.693A60.6,60.6,0,0,0,296.12,306.8c7.694-7.624,16.893-12.385,26.009-17.02C326.771,287.38,330.8,284.1,334.91,280.953Zm-49.975,37.3c3.332-3.392,6.139-6.362,9.32-9.9A23.147,23.147,0,0,0,284.935,318.253Zm5.423,20.841a18.528,18.528,0,0,1-6.675-17.861,14.027,14.027,0,0,0,6.675,17.861Zm-4.962-18.3a11.814,11.814,0,0,0,3.955,11.6,30.439,30.439,0,0,1-2.551-5.586A29.248,29.248,0,0,1,285.4,320.793Zm4.775,4.63a52.413,52.413,0,0,1-2.336-6.471A5.506,5.506,0,0,0,290.171,325.424Zm19.926,25.31a59.633,59.633,0,0,0,33.342,7.252,105.558,105.558,0,0,1-16.911-2.26A103.758,103.758,0,0,1,310.1,350.734Zm32.9,5.178a167.291,167.291,0,0,1-28.7-6.4A62.66,62.66,0,0,0,342.992,355.912Zm-.718-2.865a64.026,64.026,0,0,1-14.082-2.735A17.883,17.883,0,0,0,342.275,353.047ZM290.266,315.71a4.273,4.273,0,0,0,.672,5.714C290.675,319.316,290.478,317.847,290.266,315.71Zm72.072,2.687c-3.886-3.077-8.017-5.87-11.127-10.1,2.491,4.639,6.557,7.9,10.406,10.933,3.861,3.063,7.9,5.979,10.653,10.459a21.626,21.626,0,0,0-4.3-6.321A51.069,51.069,0,0,0,362.338,318.4Zm-13.85-42.357a21.4,21.4,0,0,0-5.238,14.072A108.5,108.5,0,0,1,348.488,276.04Zm-8.927,12.34a46.783,46.783,0,0,1,3.994-8.423A8.837,8.837,0,0,0,339.561,288.381Zm-1.091-5.512a9.879,9.879,0,0,0-3.022,5.945A10.9,10.9,0,0,0,338.47,282.869Zm-6.224,6.4a6.992,6.992,0,0,0,2.941-4.415A6.362,6.362,0,0,0,332.246,289.273Zm-4.006,1.941a4.967,4.967,0,0,0,2.486-3.674A4.533,4.533,0,0,0,328.24,291.214ZM356.186,355.2a18.457,18.457,0,0,0,11.831-5.018C363.937,351.977,360.374,353.516,356.186,355.2Zm-2.892-1.493a6.749,6.749,0,0,0,5.619-2.269A43.077,43.077,0,0,0,353.295,353.707Zm-10.671,74.4a31.6,31.6,0,0,0-8.241,1.211c-.728.173-1.453.346-2.179.5a27.8,27.8,0,0,1-5.889.742,13.719,13.719,0,0,1-5.161-.917,6.089,6.089,0,0,1-3.4-2.888c-.076-.162-.141-.33-.206-.5a2.652,2.652,0,0,0-.37-.739c-.432-.511-1.37-.488-2.315-.381-5.339.584-12.9.215-16.674-2.747a3.74,3.74,0,0,1-1.58-2.507c-3.228.162-6.508.458-9.7.758-4.7.437-9.474.883-14.222.883a49.029,49.029,0,0,1-14.47-1.918c-2.731-.836-4.293-2.151-4.653-3.914a37.818,37.818,0,0,1-8.118-1.892,14.1,14.1,0,0,1-7.118-5.628c-.259-.439-.487-.9-.716-1.359a6.193,6.193,0,0,0-2.428-3.073,3.1,3.1,0,0,1-1.661-3.355c.957-4.448,3.611-8.763,7.883-12.825a84.828,84.828,0,0,1,8.463-6.765c1.141-.837,2.285-1.673,3.412-2.532a105.326,105.326,0,0,0,13.249-12.025,9.391,9.391,0,0,1,10.2-2.486c1.885.709,3.849,1.469,5.861,2.294q-8.021-16.86-7.783-37.914c0-7.583,5.337-14.629,14.451-20.479.527-.492,1.054-.98,1.575-1.458,6.321-5.819,13.718-10.417,20.871-14.864l23.329-14.506c6.124-3.808,13.062-8.123,20.964-8.587,8.684-.508,16.743,3.731,24.258,8.116,6.122,3.574,11.485,6.883,16.4,10.119,4.771,3.145,9.348,6.689,13.776,10.117,2.031,1.573,4.1,3.163,6.192,4.731,16.539,6.7,26.918,16.23,26.918,26.8.391,31.64-13.36,56.356-40.871,73.459-.843,2.125-7.67,15.784-43.5,15.784a97.853,97.853,0,0,1-21.407-2.086c.078.09.153.178.229.268a14.732,14.732,0,0,0,3.237,3.123,14.556,14.556,0,0,0,4.5,1.56c.672.157,1.344.314,2,.5.533.153,1.111.257,1.724.368,1.92.346,4.1.739,4.7,2.885l.1.365-.234.3c-1.3,1.649-4.669,3.056-6.589,3.121-.739.025-1.372.1-1.987.168A17.606,17.606,0,0,1,342.624,428.107ZM284.674,314.5a25.36,25.36,0,0,0-5.059,8.938,16.032,16.032,0,0,0-.585,7.1,17.5,17.5,0,0,0,3.569,7.936c.464.607.957,1.19,1.474,1.756l1.3,1.329a38.237,38.237,0,0,0,3.646,3.114,67.631,67.631,0,0,0,15.92,8.5,120.447,120.447,0,0,0,17.42,5.164,172.181,172.181,0,0,0,36.166,3.826,174.18,174.18,0,0,0,36.2-3.549,122.545,122.545,0,0,0,17.473-4.992,71.323,71.323,0,0,0,16.1-8.188,39.421,39.421,0,0,0,4.45-3.655l1.312-1.335c.3-.325.61-.644.9-.982a19.709,19.709,0,0,0,4.14-7.7,14.812,14.812,0,0,0-2.022-11.321c-2.55-4.14-6.63-7.929-12.841-11.93-.081-.053-.157-.109-.238-.16-.309-.185-.61-.381-.927-.552-.018-.041-.044-.078-.065-.116-4.667-3.1-9.147-6.541-13.483-9.9-4.406-3.41-8.962-6.938-13.686-10.05-4.888-3.221-10.228-6.517-16.327-10.075-7.319-4.272-15.16-8.419-23.42-7.917-7.522.441-14.291,4.65-20.262,8.363L312.488,292.6c-7.093,4.41-14.428,8.969-20.647,14.694A78.069,78.069,0,0,0,284.674,314.5Zm31.944,86.027.219.136.079.245c.03.093,2.054,5.88,12.441,10.253a8.829,8.829,0,0,1,2.789.048,8.134,8.134,0,0,1,3.844,2.174,91.1,91.1,0,0,0,23.18,2.59c36.859,0,42.207-14.916,42.256-15.065l.078-.245.22-.136c27.587-17.069,40.805-40.745,40.412-72.389,0-8.842-7.719-16.923-20.414-23.119,1.1.76,2.2,1.511,3.313,2.23,5.96,3.837,12.111,8.606,14.738,15.444a16.138,16.138,0,0,1,.679,9.391,21.076,21.076,0,0,1-4.431,8.275,36.473,36.473,0,0,1-6.919,6.212,72.7,72.7,0,0,1-16.419,8.359,123.678,123.678,0,0,1-17.674,5.048,175.594,175.594,0,0,1-36.493,3.581,173.537,173.537,0,0,1-36.462-3.86,121.683,121.683,0,0,1-17.625-5.226,69.019,69.019,0,0,1-16.255-8.684,34.4,34.4,0,0,1-6.691-6.473,18.886,18.886,0,0,1-3.838-8.573,16.516,16.516,0,0,1,.111-6.046,21.736,21.736,0,0,1,1.79-5.178,28.736,28.736,0,0,1,3.385-5.252c-4.316,4.262-6.728,8.952-6.728,13.88C275.812,359.779,289.03,383.455,316.617,400.524Zm1.44,4.731A8.417,8.417,0,0,1,316.1,407c.6.376,1.188.785,1.747,1.183q.4.286.793.561a13.87,13.87,0,0,0,7.887,2.712A26.644,26.644,0,0,1,318.058,405.255Zm-17.8,9.174.437-.386c.926-.823,1.793-1.7,2.632-2.557a40.486,40.486,0,0,1,3.821-3.556h0a9.14,9.14,0,0,1,4.321-2.243,5.843,5.843,0,0,1,2.987.466,6.174,6.174,0,0,0,2.65-2.086,11.682,11.682,0,0,1-1.428-2.481c-.7-.436-1.388-.878-2.07-1.324a31.807,31.807,0,0,1-1.851,2.655c.39-1.06.823-2.052,1.284-3.022-.254-.167-.5-.34-.749-.51a51.658,51.658,0,0,1-3.934,5.226,58.009,58.009,0,0,1,3.251-5.69c-.4-.273-.8-.543-1.19-.82-1.453,2.029-2.908,4.034-4.479,6.171a30.467,30.467,0,0,1,3.83-6.638l-.829-.6a63.878,63.878,0,0,0-4.674,7.382,29.492,29.492,0,0,1,4.018-7.857c-.451-.337-.889-.679-1.331-1.021-.295.423-.594.843-.875,1.275a43.674,43.674,0,0,0-4.4,8.8,26.132,26.132,0,0,1,4.646-10.558c-.458-.36-.908-.725-1.358-1.09-.617.908-1.217,1.825-1.781,2.759a56.453,56.453,0,0,0-4.916,10.415,34.262,34.262,0,0,1,6.111-13.651c-.536-.443-1.061-.89-1.583-1.34-.578,1.007-1.137,2.021-1.664,3.05a70.03,70.03,0,0,0-4.7,11.616,41.535,41.535,0,0,1,5.787-15.169q-.672-.59-1.326-1.19c-.633,1.074-1.24,2.158-1.8,3.265a53.7,53.7,0,0,0-4.367,12.034,35.98,35.98,0,0,1,5.607-15.812q-.659-.614-1.3-1.234c-.763,1.363-1.483,2.738-2.137,4.14a60.359,60.359,0,0,0-3.851,10.826,35.4,35.4,0,0,1,5.492-15.451c-.4-.395-.8-.79-1.194-1.19-.439.7-.866,1.4-1.273,2.118a53.622,53.622,0,0,0-4.484,10.211,32.484,32.484,0,0,1,5.2-12.912c-.243-.254-.49-.508-.73-.763a60.436,60.436,0,0,0-6.831,12.709,33.072,33.072,0,0,1,6.34-13.234q-.727-.791-1.428-1.6a84.365,84.365,0,0,0-7.206,13.85,37.54,37.54,0,0,1,6.8-14.319c-.351-.407-.693-.822-1.033-1.234a73.56,73.56,0,0,0-8.245,15.772,38.969,38.969,0,0,1,7.88-16.207c-.5-.617-.989-1.24-1.469-1.867A46.539,46.539,0,0,0,287,385.777,45.073,45.073,0,0,0,283,397.09a30.671,30.671,0,0,1,7.527-17.958c-.432-.573-.85-1.153-1.264-1.735a30.154,30.154,0,0,0-4.575,6.806,29.362,29.362,0,0,0-2.99,11.376,22.774,22.774,0,0,1,7.321-18.519c-.347-.5-.681-1-1.016-1.5a33.757,33.757,0,0,0-4.507,6.254,33.042,33.042,0,0,0-3.629,9.764,22.973,22.973,0,0,1,7.927-16.325,75.574,75.574,0,0,1-4.2-7.16c-2.546-1.077-5.034-2.056-7.389-2.941a7.916,7.916,0,0,0-8.583,2.1,106.523,106.523,0,0,1-13.437,12.2c-1.132.866-2.283,1.708-3.435,2.551a83.252,83.252,0,0,0-8.315,6.644c-4.052,3.849-6.559,7.906-7.451,12.057a1.611,1.611,0,0,0,.906,1.726,7.457,7.457,0,0,1,3.059,3.727c.212.427.423.853.663,1.261a12.623,12.623,0,0,0,6.377,5,39.031,39.031,0,0,0,8.354,1.89l.6.092.028.612c.067,1.4,1.268,2.438,3.676,3.176,9.008,2.761,18.723,1.853,28.119.975,3.3-.309,6.7-.617,10.052-.776C297.386,416.969,298.834,415.682,300.253,414.429Zm42.418,12.189a16.362,16.362,0,0,0,2.6-.157c.654-.074,1.324-.152,2.107-.178a9.867,9.867,0,0,0,5.193-2.25c-.467-.871-1.629-1.143-3.384-1.46-.624-.113-1.268-.229-1.872-.4-.631-.182-1.278-.331-1.927-.481a12.184,12.184,0,0,1-8.536-5.173c-.233-.275-.467-.552-.705-.822a8.5,8.5,0,0,0-4.3-3.027,9.826,9.826,0,0,0-3.23.086c-.631.085-1.264.169-1.9.2a14.85,14.85,0,0,1-8.932-2.978c-.27-.187-.54-.379-.813-.573-1.7-1.215-3.479-2.465-5.323-2.234a7.89,7.89,0,0,0-3.588,1.936,38.8,38.8,0,0,0-3.68,3.429c-.857.869-1.742,1.769-2.706,2.625l-.441.391c-1.506,1.329-3.214,2.837-3.179,4.08a2.222,2.222,0,0,0,1.044,1.592c3.419,2.687,10.537,2.994,15.592,2.438a9.641,9.641,0,0,1,1.07-.072,3.216,3.216,0,0,1,2.546.971,3.911,3.911,0,0,1,.622,1.164c.053.136.1.273.168.406a4.788,4.788,0,0,0,2.609,2.137c3.311,1.335,7.176.755,10.174.1.718-.157,1.435-.326,2.153-.5A33.145,33.145,0,0,1,342.671,426.618Zm-22.565-8.768a13.158,13.158,0,0,0,2.209-1.467,2.227,2.227,0,0,0,.755-2.472,2.019,2.019,0,0,1-1.107,1.978A18.767,18.767,0,0,1,319.7,416.9a7.2,7.2,0,0,1-2.245.552,3.083,3.083,0,0,1-1.918-.545,2.051,2.051,0,0,1-.767-1.689,13.8,13.8,0,0,0-.175-2.613,5.862,5.862,0,0,0-3.391-4.066,6.089,6.089,0,0,1,2.373,4.221,20.305,20.305,0,0,1-.1,2.458,3.943,3.943,0,0,0,.229,1.476,2.988,2.988,0,0,0,.959,1.282,4.04,4.04,0,0,0,2.848.771A6.921,6.921,0,0,0,320.106,417.849Zm17.871,3.4c-.674-.215-1.326-.6-2.125-.843a4.57,4.57,0,0,0-2.509.021,7.107,7.107,0,0,1-1.992.337,1.347,1.347,0,0,1-1.243-.73,4.177,4.177,0,0,1-.319-1.906,9.57,9.57,0,0,1,.219-2.165,2.12,2.12,0,0,1,1.388-1.548,2.283,2.283,0,0,0-1.938,1.31,7.815,7.815,0,0,0-.691,2.3,4.687,4.687,0,0,0,.16,2.528,2.518,2.518,0,0,0,.933,1.15,2.777,2.777,0,0,0,1.384.439,6.411,6.411,0,0,0,2.41-.453,4.079,4.079,0,0,1,1.947-.272c.679.083,1.419.349,2.243.428a2.488,2.488,0,0,0,2.223-.742A2.359,2.359,0,0,1,337.978,421.245Zm-34.16-.138a5.484,5.484,0,0,1-4.076-2.592,3.873,3.873,0,0,0,1.43,2.3,5.376,5.376,0,0,0,2.5,1.106,10.308,10.308,0,0,0,5.265-.823A24.81,24.81,0,0,1,303.818,421.108Zm21.216,6.078a6.576,6.576,0,0,1-4.683-2.606A5.449,5.449,0,0,0,324.9,428a12.273,12.273,0,0,0,5.748-.892A29.634,29.634,0,0,1,325.034,427.185Zm23.293-2.844a26.014,26.014,0,0,0-6.806.628A10.03,10.03,0,0,0,348.328,424.341Zm-13.943-9.1a3.432,3.432,0,0,0-3.821,2.37C331.983,416.7,332.935,416.116,334.385,415.245Zm-2.807,3.047a14.557,14.557,0,0,1,2.026-1.22,15.263,15.263,0,0,1,2.163-.954A3.349,3.349,0,0,0,331.578,418.292Zm.1,1.234a48.563,48.563,0,0,0,4.972-2.123A5.257,5.257,0,0,0,331.678,419.526Zm6.109-1.144a2.75,2.75,0,0,0-3.133.834A4.575,4.575,0,0,0,337.787,418.382Zm-22.726-9.361a1.69,1.69,0,0,0-.584,2.368A2.589,2.589,0,0,0,315.062,409.021Zm.071,5.762a10.455,10.455,0,0,1,.6-2.438,9.873,9.873,0,0,1,1.128-2.262A3.4,3.4,0,0,0,315.132,414.783Zm.938,1.546c.744-2.024,1.153-3.138,1.9-5.164A5.017,5.017,0,0,0,316.07,416.329Zm1.211.485a44.756,44.756,0,0,0,2.215-4.6A4.719,4.719,0,0,0,317.282,416.814Zm3.417-4.21a14.949,14.949,0,0,0-2.816,3.838A4.788,4.788,0,0,0,320.7,412.6Zm-1.049,2.939a2.262,2.262,0,0,0,2.19-2.287A7.215,7.215,0,0,0,319.65,415.543Zm1.827,4.484a22.248,22.248,0,0,0-4.263,2.167A4.459,4.459,0,0,0,321.476,420.027Zm-.226-1.118a3.758,3.758,0,0,0-3.057,1.352A3.432,3.432,0,0,0,321.251,418.909Zm10.743,5.309c1.58-.49,2.624-.836,4.179-1.405A3.473,3.473,0,0,0,331.994,424.218Zm3.928-.206a2.585,2.585,0,0,0-2.428.473A1.753,1.753,0,0,0,335.922,424.012Zm-2.211,2a9.519,9.519,0,0,0,3.193-.7A2.306,2.306,0,0,0,333.711,426.009Zm-27.987-13.127a7.509,7.509,0,0,1-2.874,2.858,3.6,3.6,0,0,0,2.059-.788,7.208,7.208,0,0,0,1.481-1.58,14.267,14.267,0,0,1,2.558-3.28A6.513,6.513,0,0,0,305.724,412.882Zm16.533,4.722a.517.517,0,0,0,.538.245,1.218,1.218,0,0,0,.575-.261,3.785,3.785,0,0,0,.751-.741,3.879,3.879,0,0,0,.758-1.992,9.713,9.713,0,0,0-1.412,1.488,8.369,8.369,0,0,0-.55.825C322.767,417.419,322.629,417.7,322.257,417.6Zm82.57,32.271a42.157,42.157,0,0,1-7.589,5.036,56.5,56.5,0,0,1-16.978,5.831,54.39,54.39,0,0,1-18,.159,29.357,29.357,0,0,1-8.685-2.821,19.994,19.994,0,0,1-7.067-6.03,19.692,19.692,0,0,0,6.8,6.432,28.625,28.625,0,0,0,8.726,3.213,50.75,50.75,0,0,0,18.284.157,52.623,52.623,0,0,0,17.217-6.157,40.5,40.5,0,0,0,7.555-5.411,17.926,17.926,0,0,0,5.138-7.807A18.141,18.141,0,0,1,404.827,449.876Zm-52.178-16.346a14.121,14.121,0,0,0-3.033,4.563,14.588,14.588,0,0,0-.912,5.468,18.724,18.724,0,0,1,1.654-5.112,17.777,17.777,0,0,1,3.059-4.128,21.458,21.458,0,0,1,8.9-5.533A15.9,15.9,0,0,0,352.649,433.529Zm-.272,4.191a11.308,11.308,0,0,0-2.105,3.985,12.363,12.363,0,0,0-.31,4.546,16.459,16.459,0,0,1,.987-4.3,14.388,14.388,0,0,1,2.163-3.606,17.811,17.811,0,0,1,6.806-5.251A12.934,12.934,0,0,0,352.378,437.72Zm5.545-.82a10.131,10.131,0,0,0-5.411,4.517,8.767,8.767,0,0,0-1.174,3.4,10.152,10.152,0,0,0,.284,3.62,11.623,11.623,0,0,1,1.594-6.586A14.252,14.252,0,0,1,357.923,436.9Zm-1,3.555a7.691,7.691,0,0,0-3.274,4.424,7.2,7.2,0,0,0,.628,5.5,9.714,9.714,0,0,1,.03-5.29A10.966,10.966,0,0,1,356.92,440.455Zm-.4,7.836a8.378,8.378,0,0,1,.559-4.281,6.2,6.2,0,0,0,1.012,8.3A8.353,8.353,0,0,1,356.516,448.291Zm50.175-38.659c2.371-3.05,4.385-6.381,7.906-8.536a14.248,14.248,0,0,0-4.969,3.347,42.476,42.476,0,0,0-3.789,4.487,43.2,43.2,0,0,1-3.708,4.406,13.513,13.513,0,0,1-4.856,3.276,11.711,11.711,0,0,0,5.394-2.65A26.112,26.112,0,0,0,406.691,409.631Zm.573.926c-2.1,2.691-4.145,5.524-7.448,7.146a11.751,11.751,0,0,0,4.727-2.565,25.068,25.068,0,0,0,3.574-3.883c2.121-2.733,3.893-5.679,6.864-7.844a14.414,14.414,0,0,0-4.344,3.135A40.635,40.635,0,0,0,407.264,410.557Zm1.421,1.629c-1.851,2.384-3.615,4.856-6.328,6.61,3.072-1.1,5.339-3.519,7.185-5.916,1.872-2.417,3.421-4.992,5.824-7.153C412.525,407.276,410.519,409.8,408.685,412.186Zm1.419,1.633a41.085,41.085,0,0,1-5.208,6.069,18,18,0,0,0,6.067-5.376c1.624-2.107,2.971-4.33,4.785-6.467A25.408,25.408,0,0,0,410.1,413.819Zm-2.692,8.5a44.162,44.162,0,0,0,5.42-6.827,74.577,74.577,0,0,1,5.05-7.017,24.011,24.011,0,0,0-5.947,6.377C410.326,417.234,408.983,419.747,407.412,422.321Zm2.52,2.433c1.608-2.855,3.117-5.543,4.694-8.174a54.558,54.558,0,0,1,5.388-7.673,23.869,23.869,0,0,0-6.318,7.077A38.112,38.112,0,0,0,409.931,424.754Zm12.215-15.415a24.931,24.931,0,0,0-9.7,17.847,51.137,51.137,0,0,1,3.921-9.433A45.536,45.536,0,0,1,422.147,409.338ZM402.235,432.8a16.469,16.469,0,0,1,1.61,8.3,11.78,11.78,0,0,0-7.15-14.678A16.4,16.4,0,0,1,402.235,432.8Zm-3.6-1.742a14.884,14.884,0,0,1,2.923,11.307A9.457,9.457,0,0,0,398.631,431.059Zm0,4.949a16.35,16.35,0,0,1-.141,7.79A7.971,7.971,0,0,0,398.633,436.008Zm-1.7,4.962a9.1,9.1,0,0,1-1.6,4.449A3.7,3.7,0,0,0,396.93,440.97ZM483.6,384.386a5.917,5.917,0,0,0,2.17-2.784,3.635,3.635,0,0,0-.555-3.544,6.145,6.145,0,0,0-3-1.8,21.581,21.581,0,0,0-3.329-.689,22.792,22.792,0,0,0-6.816.145,24.087,24.087,0,0,1,6.714.324,22.673,22.673,0,0,1,3.181.841,5.653,5.653,0,0,1,2.576,1.652,2.747,2.747,0,0,1,.36,2.7,4.912,4.912,0,0,1-1.851,2.28,24.665,24.665,0,0,1-5.727,2.742c-8.1,2.819-17.168,2.493-25.79,5.7,8.71-2.472,17.6-1.738,26.065-4.625A24.018,24.018,0,0,0,483.6,384.386Z" transform="translate(-233.457 -268.201)" fill="#534741"/>
      </g>
      <path id="Trazado_68919" data-name="Trazado 68919" d="M496.484,372.139c-20.409.584-38.931.577-59.329,0C457.632,371.623,476.266,371.61,496.484,372.139Zm-53.169-5.187a183.95,183.95,0,0,0,25.288,0A204.058,204.058,0,0,0,443.315,366.952Zm1.62-3.567a61.288,61.288,0,0,0,14.59,0A68.175,68.175,0,0,0,444.936,363.385Zm8.754-5.51c13.375.577,25.522.582,38.9,0C479.335,357.346,467.117,357.358,453.69,357.875Zm16.211,3.89a85.041,85.041,0,0,0,17.182,0A94.313,94.313,0,0,0,469.9,361.765Zm-4.216-10.05a161.162,161.162,0,0,0,23.667,0A178.763,178.763,0,0,0,465.685,351.714Zm19.776-4.538a37.268,37.268,0,0,0,11.348,0A41.25,41.25,0,0,0,485.461,347.176ZM438.777,377a213.285,213.285,0,0,0,27.232,0A236.626,236.626,0,0,0,438.777,377Zm-.973,4.863a43.821,43.821,0,0,0,12.319,0A48.582,48.582,0,0,0,437.8,381.865Zm-126.437,1.3c14.825.578,28.287.584,43.118,0C339.791,382.634,326.249,382.646,311.366,383.161Zm5.836-5.51a69.907,69.907,0,0,0,15.562,0A77.394,77.394,0,0,0,317.2,377.651Zm-24.316-4.538a302.69,302.69,0,0,0,32.421,0C314.258,372.583,304.077,372.6,292.887,373.112Zm7.456,4.538a23.936,23.936,0,0,0,9.079,0A26.47,26.47,0,0,0,300.343,377.651Zm-64.19-15.237a213.617,213.617,0,0,0,27.232,0A236.607,236.607,0,0,0,236.153,362.413Zm-1.947-4.863a64.225,64.225,0,0,0,14.915,0A71.116,71.116,0,0,0,234.206,357.551Zm-21.4-8.754a255.8,255.8,0,0,0,29.826,0A283.808,283.808,0,0,0,212.81,348.8Zm10.05,3.891a152.683,152.683,0,0,0,23.018,0A169.107,169.107,0,0,0,222.86,352.688Zm11.67-9.079a43.825,43.825,0,0,0,12.319,0A48.577,48.577,0,0,0,234.531,343.609Zm8.43-4.538a19.093,19.093,0,0,0,8.105,0A21.14,21.14,0,0,0,242.96,339.071Zm-2.269,33.068c12.261.577,23.394.584,35.662,0C264.2,371.61,253,371.623,240.691,372.139Zm12.968-4.538a56.133,56.133,0,0,0,13.94,0A62.146,62.146,0,0,0,253.659,367.6Zm6.159,9.726a272.764,272.764,0,0,0,30.8,0A302.61,302.61,0,0,0,259.818,377.326Zm22.371,4.214a31.132,31.132,0,0,0,10.373,0A34.553,34.553,0,0,0,282.189,381.54Zm-3.891,8.105c22.627.577,43.173.584,65.812,0C321.683,389.117,301.013,389.129,278.3,389.646Zm46.361,5.187a193.489,193.489,0,0,0,25.936,0A214.647,214.647,0,0,0,324.659,394.833Zm17.182,4.863a39.349,39.349,0,0,0,11.67,0A43.617,43.617,0,0,0,341.841,399.7Zm87.857-1.945c12.372.577,23.607.584,35.986,0C453.422,397.222,442.12,397.234,429.7,397.751Zm2.594-3.891a81.885,81.885,0,0,0,16.859,0A91.115,91.115,0,0,0,432.292,393.86Zm1.622-3.89c13.04.577,24.884.584,37.931,0C458.918,389.441,447.006,389.454,433.914,389.97Zm3.241-4.538a198.65,198.65,0,0,0,26.261,0A220.044,220.044,0,0,0,437.155,385.432Zm26.585-3.567a50.983,50.983,0,0,0,13.293,0A56.529,56.529,0,0,0,463.74,381.865ZM331.791,404.559a250.281,250.281,0,0,0,29.5,0A278.126,278.126,0,0,0,331.791,404.559Zm-20.749-5.187a91.573,91.573,0,0,0,17.831,0A101.549,101.549,0,0,0,311.042,399.371Zm-1.62-4.538a20.634,20.634,0,0,0,8.43,0A22.85,22.85,0,0,0,309.422,394.833Zm42.794,15.562a43.886,43.886,0,0,0,12.319,0A48.581,48.581,0,0,0,352.216,410.395Zm56.411-.649a250.262,250.262,0,0,0,29.5,0A277.665,277.665,0,0,0,408.627,409.746Zm12.968-4.538a31.141,31.141,0,0,0,10.375,0A34.508,34.508,0,0,0,421.595,405.208Zm-51.224,8.752c12.261.578,23.394.584,35.662,0C393.88,413.433,382.68,413.445,370.371,413.96Zm25.612,4.216a112.748,112.748,0,0,0,19.776,0A124.879,124.879,0,0,0,395.983,418.176Zm17.831-4.538a67.02,67.02,0,0,0,15.237,0A74.217,74.217,0,0,0,413.814,413.637Zm21.4-12.321a148.185,148.185,0,0,0,22.694,0A164.935,164.935,0,0,0,435.21,401.316Zm-113.794,9.727a184.224,184.224,0,0,0,25.287,0A204.051,204.051,0,0,0,321.417,411.044Zm-8.43-6.809a35.13,35.13,0,0,0,11.023,0A39,39,0,0,0,312.987,404.234Zm-27.881-19.127a174.919,174.919,0,0,0,24.64,0A193.758,193.758,0,0,0,285.106,385.107Zm-29.826-.649a123.914,123.914,0,0,0,20.749,0A137.444,137.444,0,0,0,255.28,384.458Zm27.232,11.995a72.727,72.727,0,0,0,15.886,0A80.924,80.924,0,0,0,282.512,396.453ZM348,418.823a94.759,94.759,0,0,0,18.154,0A105.623,105.623,0,0,0,348,418.823Zm28.2.973a39.361,39.361,0,0,0,11.672,0A43.7,43.7,0,0,0,376.205,419.8Z" transform="translate(0 53.787)" fill="#534741"/>
    </g>
  </g>
</svg>
