<svg xmlns="http://www.w3.org/2000/svg" width="261.083" height="261.082" viewBox="0 0 261.083 261.082">
  <g id="Grupo_25914" data-name="Grupo 25914" transform="translate(-1018.415 -1062.625)">
    <g id="Grupo_25880" data-name="Grupo 25880" transform="translate(1024.098 1068.34)">
      <g id="Grupo_25879" data-name="Grupo 25879" transform="translate(0 0)">
        <g id="Grupo_25878" data-name="Grupo 25878">
          <g id="Grupo_25877" data-name="Grupo 25877">
            <g id="Grupo_25876" data-name="Grupo 25876">
              <g id="Grupo_25875" data-name="Grupo 25875">
                <g id="Grupo_25874" data-name="Grupo 25874">
                  <g id="Grupo_25873" data-name="Grupo 25873">
                    <g id="Grupo_25872" data-name="Grupo 25872">
                      <g id="Grupo_25871" data-name="Grupo 25871">
                        <path id="Trazado_67340" data-name="Trazado 67340" d="M1262.727,1106.023a1.588,1.588,0,0,1-1.063-.408c-2.666-2.393-5.471-4.7-8.337-6.845a1.592,1.592,0,1,1,1.91-2.548c2.94,2.2,5.818,4.568,8.554,7.024a1.592,1.592,0,0,1-1.064,2.778Zm-151.652-10.181a1.593,1.593,0,0,1-.9-2.909,125.5,125.5,0,0,1,11.018-6.7,1.592,1.592,0,0,1,1.512,2.8,122.281,122.281,0,0,0-10.737,6.533A1.582,1.582,0,0,1,1111.075,1095.842Zm132.637-3.857a1.587,1.587,0,0,1-.818-.227,121.8,121.8,0,0,0-11.1-5.9,1.592,1.592,0,1,1,1.347-2.886,124.923,124.923,0,0,1,11.39,6.053,1.592,1.592,0,0,1-.82,2.958Zm-110.257-8.218a1.593,1.593,0,0,1-.608-3.065,124.577,124.577,0,0,1,12.162-4.289,1.592,1.592,0,1,1,.9,3.054,121.394,121.394,0,0,0-11.85,4.179A1.584,1.584,0,0,1,1133.454,1083.766Zm87.21-2.535a1.607,1.607,0,0,1-.52-.087,121.025,121.025,0,0,0-12.078-3.479,1.593,1.593,0,0,1,.721-3.1,124.309,124.309,0,0,1,12.4,3.571,1.593,1.593,0,0,1-.52,3.1Zm-62.826-4.662a1.593,1.593,0,0,1-.287-3.159,125.287,125.287,0,0,1,12.782-1.687,1.593,1.593,0,0,1,.253,3.175,121.887,121.887,0,0,0-12.457,1.644A1.634,1.634,0,0,1,1157.838,1076.569Zm38.052-1.1a1.733,1.733,0,0,1-.2-.012,123.062,123.062,0,0,0-12.539-.92,1.593,1.593,0,0,1-1.557-1.627,1.62,1.62,0,0,1,1.627-1.557,126.469,126.469,0,0,1,12.865.944,1.593,1.593,0,0,1-.2,3.173Z" transform="translate(-1055.549 -1071.354)" fill="#1c5a88"/>
                        <path id="Trazado_67341" data-name="Trazado 67341" d="M1077.378,1334.3a1.586,1.586,0,0,1-.963-.325,125.982,125.982,0,0,1-9.848-8.327,1.593,1.593,0,0,1,2.179-2.323,122.765,122.765,0,0,0,9.6,8.116,1.592,1.592,0,0,1-.966,2.859Zm-18.55-17.4a1.589,1.589,0,0,1-1.2-.549,126.111,126.111,0,0,1-7.941-10.161,1.592,1.592,0,0,1,2.607-1.829,122.772,122.772,0,0,0,7.739,9.9,1.593,1.593,0,0,1-1.2,2.637Zm-14.605-20.816a1.59,1.59,0,0,1-1.392-.817,124.6,124.6,0,0,1-5.688-11.573,1.592,1.592,0,0,1,2.927-1.254,121.552,121.552,0,0,0,5.542,11.276,1.592,1.592,0,0,1-1.389,2.368Zm-10.017-23.368a1.593,1.593,0,0,1-1.52-1.121,124.341,124.341,0,0,1-3.175-12.5,1.592,1.592,0,0,1,3.123-.623,121.121,121.121,0,0,0,3.093,12.174,1.6,1.6,0,0,1-1.521,2.065Zm-4.976-24.933a1.593,1.593,0,0,1-1.583-1.444c-.365-3.9-.55-7.863-.55-11.793,0-.365,0-.727,0-1.091a1.592,1.592,0,0,1,3.185.026q0,.532,0,1.066c0,3.832.18,7.7.536,11.5a1.592,1.592,0,0,1-1.437,1.734C1029.33,1247.785,1029.279,1247.788,1029.229,1247.788Zm.224-25.436c-.059,0-.118,0-.178-.009a1.593,1.593,0,0,1-1.406-1.76,124.852,124.852,0,0,1,2.088-12.729,1.592,1.592,0,1,1,3.112.678,121.619,121.619,0,0,0-2.035,12.4A1.593,1.593,0,0,1,1029.453,1222.351Zm5.413-24.85a1.593,1.593,0,0,1-1.512-2.092,124.729,124.729,0,0,1,4.672-12.023,1.592,1.592,0,0,1,2.9,1.306,121.451,121.451,0,0,0-4.552,11.715A1.594,1.594,0,0,1,1034.866,1197.5Z" transform="translate(-1027.096 -1109.722)" fill="#1c5a88"/>
                        <path id="Trazado_67342" data-name="Trazado 67342" d="M1215.339,1362.734q-1.588,0-3.166-.04a1.592,1.592,0,0,1-1.552-1.632,1.565,1.565,0,0,1,1.632-1.552,124.339,124.339,0,0,0,12.565-.325,1.593,1.593,0,1,1,.244,3.176C1221.852,1362.609,1218.581,1362.734,1215.339,1362.734Zm22.223-2a1.593,1.593,0,0,1-.283-3.159,121.291,121.291,0,0,0,12.227-2.89,1.592,1.592,0,1,1,.893,3.057,124.525,124.525,0,0,1-12.549,2.967A1.661,1.661,0,0,1,1237.562,1360.736Zm24.409-7.126a1.593,1.593,0,0,1-.6-3.067,121.949,121.949,0,0,0,11.364-5.352,1.592,1.592,0,1,1,1.505,2.806,124.691,124.691,0,0,1-11.664,5.493A1.577,1.577,0,0,1,1261.971,1353.609Zm22.408-12.009a1.592,1.592,0,0,1-.894-2.911,122.492,122.492,0,0,0,10.028-7.573,1.592,1.592,0,1,1,2.047,2.439,125.662,125.662,0,0,1-10.289,7.77A1.585,1.585,0,0,1,1284.379,1341.6Zm19.475-16.345a1.593,1.593,0,0,1-1.143-2.7,122.951,122.951,0,0,0,8.273-9.461,1.592,1.592,0,0,1,2.5,1.97,125.725,125.725,0,0,1-8.489,9.708A1.587,1.587,0,0,1,1303.854,1325.256Zm15.731-19.979a1.592,1.592,0,0,1-1.344-2.444,122.2,122.2,0,0,0,6.161-10.954,1.592,1.592,0,0,1,2.852,1.415,125,125,0,0,1-6.322,11.241A1.591,1.591,0,0,1,1319.586,1305.277Zm11.3-22.781a1.593,1.593,0,0,1-1.492-2.149,121.037,121.037,0,0,0,3.767-11.988,1.592,1.592,0,0,1,3.084.8,124.207,124.207,0,0,1-3.868,12.305A1.592,1.592,0,0,1,1330.887,1282.5Zm6.354-24.621a1.633,1.633,0,0,1-.238-.018,1.593,1.593,0,0,1-1.339-1.811,122.951,122.951,0,0,0,1.218-12.505,1.592,1.592,0,1,1,3.181.146,125.611,125.611,0,0,1-1.25,12.831A1.592,1.592,0,0,1,1337.242,1257.874Zm1.167-25.4a1.593,1.593,0,0,1-1.589-1.5,122.432,122.432,0,0,0-1.345-12.5,1.592,1.592,0,1,1,3.145-.5,125.843,125.843,0,0,1,1.381,12.822,1.592,1.592,0,0,1-1.5,1.678C1338.469,1232.474,1338.439,1232.475,1338.409,1232.475Zm-4.027-25.109a1.593,1.593,0,0,1-1.536-1.179,121.258,121.258,0,0,0-3.891-11.949,1.592,1.592,0,1,1,2.973-1.142,124.347,124.347,0,0,1,3.993,12.264,1.593,1.593,0,0,1-1.538,2.006Z" transform="translate(-1090.48 -1113.047)" fill="#1c5a88"/>
                      </g>
                    </g>
                  </g>
                </g>
              </g>
            </g>
          </g>
        </g>
      </g>
    </g>
    <g id="Grupo_25890" data-name="Grupo 25890" transform="translate(1018.415 1062.626)">
      <g id="Grupo_25889" data-name="Grupo 25889">
        <g id="Grupo_25888" data-name="Grupo 25888">
          <g id="Grupo_25887" data-name="Grupo 25887">
            <g id="Grupo_25886" data-name="Grupo 25886">
              <g id="Grupo_25885" data-name="Grupo 25885">
                <g id="Grupo_25884" data-name="Grupo 25884">
                  <g id="Grupo_25883" data-name="Grupo 25883">
                    <g id="Grupo_25882" data-name="Grupo 25882">
                      <g id="Grupo_25881" data-name="Grupo 25881">
                        <circle id="Elipse_1833" data-name="Elipse 1833" cx="92.307" cy="92.307" r="92.307" transform="translate(0 130.542) rotate(-45)" fill="#c9f0fb"/>
                      </g>
                    </g>
                  </g>
                </g>
              </g>
            </g>
          </g>
        </g>
      </g>
    </g>
    <g id="Grupo_25898" data-name="Grupo 25898" transform="translate(1086.827 1191.638)">
      <g id="Grupo_25897" data-name="Grupo 25897" transform="translate(0 0)">
        <g id="Grupo_25891" data-name="Grupo 25891" transform="translate(18.284 13.065)">
          <path id="Trazado_67343" data-name="Trazado 67343" d="M1152.973,1314.016l22.589,7.113,4.889-8.241v-.009l6.485-10.95.018-.045,1.174-2a12.064,12.064,0,0,0-10.456-18.1h-.009a12.084,12.084,0,0,0-10.589,6.3Z" transform="translate(-1151.583 -1280.393)" fill="#66c5ff"/>
          <path id="Trazado_67344" data-name="Trazado 67344" d="M1174.829,1321.785a1.37,1.37,0,0,1-.417-.064l-22.589-7.112a1.391,1.391,0,0,1-.8-1.99l14.1-25.932a13.475,13.475,0,0,1,11.807-7.027,13.454,13.454,0,0,1,11.671,20.182l-1.14,1.945c-.02.043-.041.085-.059.116l-6.432,10.86c-.016.033-.035.067-.054.1l-4.888,8.241A1.392,1.392,0,0,1,1174.829,1321.785Zm-20.561-9.321,19.928,6.274,4.273-7.2c.016-.034.034-.067.053-.1l6.445-10.881c.019-.039.038-.078.055-.107l1.174-2a10.674,10.674,0,0,0-9.257-16,10.7,10.7,0,0,0-9.377,5.576Z" transform="translate(-1150.85 -1279.66)" fill="#1c5a88"/>
        </g>
        <g id="Grupo_25892" data-name="Grupo 25892" transform="translate(14.485 45.298)">
          <path id="Trazado_67345" data-name="Trazado 67345" d="M1159.9,1353.972l15.159-.027,12.583-.009-.115,30.054a6.4,6.4,0,0,0,.141,1.376,7.488,7.488,0,0,0,7.368,6.168h.017a7.513,7.513,0,0,0,7.518-7.6l-.38-36.31a8.835,8.835,0,0,0-8.841-8.736l-20.25.018.458-.776-22.589-7.113-2.232,4.112A12.752,12.752,0,0,0,1159.9,1353.972Z" transform="translate(-1145.78 -1329.631)" fill="#fff"/>
          <path id="Trazado_67346" data-name="Trazado 67346" d="M1194.319,1392.192a8.855,8.855,0,0,1-8.754-7.317,7.632,7.632,0,0,1-.162-1.617l.109-28.664-26.344.035h-.008a14.142,14.142,0,0,1-12.378-20.893l2.232-4.11a1.39,1.39,0,0,1,1.639-.663l22.589,7.112a1.393,1.393,0,0,1,.829.711l18.544-.016h.02a10.25,10.25,0,0,1,10.214,10.11l.379,36.31a8.9,8.9,0,0,1-8.908,9Zm-7.412-40.378a1.389,1.389,0,0,1,1.39,1.4l-.115,30.053a5.059,5.059,0,0,0,.109,1.074,6.124,6.124,0,0,0,12.156-1.119l-.379-36.307a7.462,7.462,0,0,0-7.436-7.361h-.014l-20.252.017h0a1.39,1.39,0,0,1-1.387-1.289l-20.069-6.319-1.686,3.1a11.362,11.362,0,0,0,9.942,16.787l27.74-.035Z" transform="translate(-1145.047 -1328.898)" fill="#1c5a88"/>
        </g>
        <g id="Grupo_25893" data-name="Grupo 25893" transform="translate(0 11.414)">
          <path id="Trazado_67347" data-name="Trazado 67347" d="M1131.167,1370.64a3.006,3.006,0,0,1-5.135,2.136,2.974,2.974,0,0,1-.884-2.125l-.1-88.38a3.015,3.015,0,0,1,2.936-3.009h.073a3,3,0,0,1,3.01,3.009l.084,66.524Z" transform="translate(-1123.653 -1277.871)" fill="#fcdf90"/>
          <path id="Trazado_67348" data-name="Trazado 67348" d="M1127.435,1374.316a4.408,4.408,0,0,1-4.41-4.4l-.1-88.378a4.43,4.43,0,0,1,4.29-4.4h.109a4.4,4.4,0,0,1,4.4,4.4l.084,66.523.02,21.845h0A4.4,4.4,0,0,1,1127.435,1374.316Zm-.189-94.4a1.626,1.626,0,0,0-1.546,1.62l.1,88.378a1.574,1.574,0,0,0,.467,1.135,1.616,1.616,0,0,0,2.772-1.143l-.02-21.844-.084-66.524a1.622,1.622,0,0,0-1.62-1.621Z" transform="translate(-1122.92 -1277.138)" fill="#1c5a88"/>
        </g>
        <g id="Grupo_25894" data-name="Grupo 25894" transform="translate(6.545 68.215)">
          <path id="Trazado_67349" data-name="Trazado 67349" d="M1183.367,1397.461v3.094a2.879,2.879,0,0,1-.946,2.125,3.278,3.278,0,0,1-2.264.894,3.13,3.13,0,0,1-3.233-3.009l-.021-21.856-41.861.052.1-12.68,18.5-.022,16.228-.021,13.47-.01-.124,30.052A6.168,6.168,0,0,0,1183.367,1397.461Z" transform="translate(-1133.651 -1364.64)" fill="#fcdf90"/>
          <path id="Trazado_67350" data-name="Trazado 67350" d="M1179.423,1404.231a4.52,4.52,0,0,1-4.622-4.4l-.02-20.464-40.471.052h0a1.391,1.391,0,0,1-1.39-1.4l.1-12.68a1.39,1.39,0,0,1,1.388-1.379l48.2-.052h0a1.389,1.389,0,0,1,1.39,1.4l-.124,30.053a4.757,4.757,0,0,0,.112,1.063,1.415,1.415,0,0,1,.035.31v3.094a4.288,4.288,0,0,1-1.4,3.149A4.633,4.633,0,0,1,1179.423,1404.231Zm-3.254-27.645a1.391,1.391,0,0,1,1.39,1.389l.022,21.855a1.745,1.745,0,0,0,1.843,1.622,1.887,1.887,0,0,0,1.307-.511,1.5,1.5,0,0,0,.514-1.119v-2.946a7.689,7.689,0,0,1-.147-1.526l.118-28.662-45.427.049-.079,9.9,40.458-.052Z" transform="translate(-1132.918 -1363.906)" fill="#1c5a88"/>
        </g>
        <path id="Trazado_67351" data-name="Trazado 67351" d="M1208.286,1404.746a1.39,1.39,0,0,1-1.39-1.388l-.022-18.867a1.39,1.39,0,0,1,1.388-1.391h0a1.39,1.39,0,0,1,1.39,1.389l.021,18.867a1.39,1.39,0,0,1-1.389,1.391Z" transform="translate(-1151.916 -1302.32)" fill="#1c5a88"/>
        <path id="Trazado_67352" data-name="Trazado 67352" d="M1185.918,1338.883a1.39,1.39,0,0,1-1.2-2.088l5.394-9.3a1.39,1.39,0,0,1,2.4,1.4l-5.394,9.3A1.39,1.39,0,0,1,1185.918,1338.883Z" transform="translate(-1144.198 -1282.878)" fill="#1c5a88"/>
        <g id="Grupo_25895" data-name="Grupo 25895" transform="translate(56.987)">
          <path id="Trazado_67353" data-name="Trazado 67353" d="M1233.932,1272.731a10.918,10.918,0,1,1-10.931-10.9A10.918,10.918,0,0,1,1233.932,1272.731Z" transform="translate(-1210.705 -1260.436)" fill="#fff"/>
          <path id="Trazado_67354" data-name="Trazado 67354" d="M1222.278,1284.319a12.308,12.308,0,0,1-.013-24.617h.014A12.307,12.307,0,0,1,1234.588,1272h0a12.308,12.308,0,0,1-12.293,12.323Zm0-21.837h-.01a9.529,9.529,0,0,0,.01,19.058h.012a9.529,9.529,0,0,0,9.517-9.54h0a9.528,9.528,0,0,0-9.529-9.518Z" transform="translate(-1209.972 -1259.702)" fill="#1c5a88"/>
        </g>
        <g id="Grupo_25896" data-name="Grupo 25896" transform="translate(39.847 21.767)">
          <path id="Trazado_67355" data-name="Trazado 67355" d="M1197.264,1303.807l-8.881,5.308-2.471-4.681,7.934,17.511a7.567,7.567,0,0,0,13.479.6l11.1-19.6a5.27,5.27,0,0,0-1.975-7.173h0a5.271,5.271,0,0,0-7.219,2.019l-8.32,14.989-5.975-14.375Z" transform="translate(-1184.523 -1293.687)" fill="#fff"/>
          <path id="Trazado_67356" data-name="Trazado 67356" d="M1200.016,1327.047c-.136,0-.273,0-.41-.009a8.917,8.917,0,0,1-7.758-5.252l-7.934-17.511a1.39,1.39,0,0,1,2.5-1.222l1.786,3.385,6.521-3.9-1.8-4.332a1.39,1.39,0,0,1,2.56-1.085l2.332,5.4a1.411,1.411,0,0,1,.112.48l2.435,5.858,6.925-12.476a6.66,6.66,0,1,1,11.619,6.514l-11.1,19.6A8.915,8.915,0,0,1,1200.016,1327.047Zm-10.863-17.945,5.226,11.537a6.178,6.178,0,0,0,11,.493l11.1-19.6a3.879,3.879,0,0,0-4.423-5.647,3.848,3.848,0,0,0-2.346,1.853l-8.321,14.989a1.365,1.365,0,0,1-1.293.713,1.39,1.39,0,0,1-1.205-.854l-3.1-7.449Z" transform="translate(-1183.79 -1292.952)" fill="#1c5a88"/>
        </g>
      </g>
    </g>
    <g id="Grupo_25899" data-name="Grupo 25899" transform="translate(1082.307 1106.754)">
      <path id="Trazado_67357" data-name="Trazado 67357" d="M1132.138,1207.44a100.823,100.823,0,0,1-14-7.708l15.834-27.5-14,.685,12.165-20.7s12.2-26.545,33.975-18.576C1189.629,1142.242,1176.37,1186.557,1132.138,1207.44Z" transform="translate(-1116.749 -1130.766)" fill="#fff"/>
      <path id="Trazado_67358" data-name="Trazado 67358" d="M1131.4,1208.1a1.4,1.4,0,0,1-.574-.124,102.649,102.649,0,0,1-14.192-7.816,1.39,1.39,0,0,1-.437-1.853l14.564-25.293-11.457.562a1.39,1.39,0,0,1-1.266-2.092l12.134-20.646c.748-1.559,13.535-27.334,35.682-19.23,7.571,2.768,11.959,9.131,12.357,17.918.416,9.18-3.693,20.313-11.276,30.546-8.5,11.469-20.581,21.115-34.941,27.9A1.386,1.386,0,0,1,1131.4,1208.1Zm-12.139-9.545a100.147,100.147,0,0,0,12.127,6.621c22.2-10.691,45.038-33.629,44.046-55.524-.344-7.594-4.086-13.075-10.536-15.433-8.462-3.1-16.42-1.1-23.651,5.937a45.448,45.448,0,0,0-8.584,11.915c-.02.042-.041.083-.065.123l-10.861,18.48,11.43-.56a1.39,1.39,0,0,1,1.273,2.082Z" transform="translate(-1116.015 -1130.035)" fill="#1c5a88"/>
    </g>
    <g id="Grupo_25900" data-name="Grupo 25900" transform="translate(1050.454 1106.754)">
      <path id="Trazado_67359" data-name="Trazado 67359" d="M1117.167,1172.233l-15.834,27.5c-34.142-22.542-40.9-58.445-19.985-66.088,21.773-7.968,33.984,18.576,33.984,18.576l-12.165,20.7Z" transform="translate(-1068.09 -1130.766)" fill="#ffa197"/>
      <path id="Trazado_67360" data-name="Trazado 67360" d="M1100.6,1200.391a1.386,1.386,0,0,1-.766-.23c-24.607-16.246-33.949-37.8-32.292-51.955.946-8.08,5.419-13.975,12.6-16.6,22.716-8.312,35.6,19.024,35.725,19.3a1.387,1.387,0,0,1-.065,1.285l-10.861,18.48,11.43-.56a1.39,1.39,0,0,1,1.273,2.082l-15.834,27.5a1.39,1.39,0,0,1-1.2.7Zm-11.925-67.587a21.989,21.989,0,0,0-7.583,1.413c-6.229,2.277-9.959,7.225-10.789,14.311-2.1,17.915,13.774,37.445,29.837,48.487l13.819-24-11.457.562a1.39,1.39,0,0,1-1.266-2.092l11.785-20.051a45.826,45.826,0,0,0-8.273-11.277C1099.717,1135.261,1094.334,1132.8,1088.676,1132.8Z" transform="translate(-1067.358 -1130.035)" fill="#1c5a88"/>
    </g>
    <g id="Grupo_25913" data-name="Grupo 25913" transform="translate(1154.571 1113.228)">
      <g id="Grupo_25901" data-name="Grupo 25901" transform="translate(33.03 70.335)">
        <path id="Trazado_67361" data-name="Trazado 67361" d="M1315.7,1249.489l14.507,21.531a12.012,12.012,0,0,1,2.05,6.711v21.828l-13.084.935v-21.676l-14.02-13.839L1293,1278.818v21.676h-14.019v-22.676a12.012,12.012,0,0,1,1.043-4.895l9.031-20.237" transform="translate(-1277.594 -1248.099)" fill="#fff"/>
        <path id="Trazado_67362" data-name="Trazado 67362" d="M1318.439,1301.15a1.39,1.39,0,0,1-1.39-1.39v-21.094l-12.558-12.4-10.832,12.339v21.152a1.389,1.389,0,0,1-1.39,1.39h-14.019a1.39,1.39,0,0,1-1.39-1.39v-22.675a13.306,13.306,0,0,1,1.164-5.462l9.031-20.237a1.39,1.39,0,0,1,2.538,1.133l-9.031,20.237a10.555,10.555,0,0,0-.922,4.329v21.285h11.239v-20.286a1.387,1.387,0,0,1,.346-.917l12.149-13.839a1.4,1.4,0,0,1,1-.473,1.446,1.446,0,0,1,1.026.4l14.02,13.839a1.388,1.388,0,0,1,.414.989v20.183l10.3-.736V1277a10.6,10.6,0,0,0-1.813-5.936l-14.507-21.53a1.39,1.39,0,1,1,2.3-1.553l14.507,21.53a13.36,13.36,0,0,1,2.287,7.488v21.828a1.389,1.389,0,0,1-1.29,1.386l-13.085.935C1318.505,1301.149,1318.472,1301.15,1318.439,1301.15Zm13.084-2.324h0Z" transform="translate(-1276.861 -1247.366)" fill="#1c5a88"/>
      </g>
      <g id="Grupo_25902" data-name="Grupo 25902" transform="translate(70.545 119.47)">
        <path id="Trazado_67363" data-name="Trazado 67363" d="M1336.29,1332.958a7.568,7.568,0,0,1,2.543-5.76,11,11,0,0,1,13.866-.373,7.676,7.676,0,0,1,2.927,6.1v.036Z" transform="translate(-1334.9 -1323.157)" fill="#fcdf90"/>
        <path id="Trazado_67364" data-name="Trazado 67364" d="M1354.893,1333.616h-19.336a1.391,1.391,0,0,1-1.39-1.391,8.933,8.933,0,0,1,3.028-6.815,12.39,12.39,0,0,1,15.62-.418,9.1,9.1,0,0,1,3.468,7.2A1.421,1.421,0,0,1,1354.893,1333.616Zm-17.8-2.78h16.269a6.184,6.184,0,0,0-2.24-3.641,9.612,9.612,0,0,0-12.114.325A5.956,5.956,0,0,0,1337.09,1330.835Z" transform="translate(-1334.167 -1322.424)" fill="#1c5a88"/>
      </g>
      <g id="Grupo_25903" data-name="Grupo 25903" transform="translate(30.356 119.47)">
        <path id="Trazado_67365" data-name="Trazado 67365" d="M1274.9,1332.958a7.564,7.564,0,0,1,2.543-5.76,11,11,0,0,1,13.866-.373,7.676,7.676,0,0,1,2.927,6.1v.036Z" transform="translate(-1273.51 -1323.157)" fill="#fcdf90"/>
        <path id="Trazado_67366" data-name="Trazado 67366" d="M1293.5,1333.616h-19.337a1.391,1.391,0,0,1-1.39-1.391,8.931,8.931,0,0,1,3.028-6.815,12.39,12.39,0,0,1,15.62-.418,9.107,9.107,0,0,1,3.469,7.2A1.422,1.422,0,0,1,1293.5,1333.616Zm-17.8-2.78h16.27a6.188,6.188,0,0,0-2.241-3.641,9.611,9.611,0,0,0-12.113.325A5.956,5.956,0,0,0,1275.7,1330.835Z" transform="translate(-1272.776 -1322.424)" fill="#1c5a88"/>
      </g>
      <path id="Trazado_67367" data-name="Trazado 67367" d="M1293.638,1253.342a1.39,1.39,0,0,1-.171-2.768l25.576-3.2a1.39,1.39,0,1,1,.345,2.758l-25.576,3.2A1.439,1.439,0,0,1,1293.638,1253.342Z" transform="translate(-1249.146 -1177.031)" fill="#1c5a88"/>
      <g id="Grupo_25909" data-name="Grupo 25909" transform="translate(20.012 12.713)">
        <g id="Grupo_25904" data-name="Grupo 25904" transform="translate(20.751 5.253)">
          <circle id="Elipse_1834" data-name="Elipse 1834" cx="9.813" cy="9.813" r="9.813" transform="translate(1.392 1.392)" fill="#fff"/>
          <path id="Trazado_67368" data-name="Trazado 67368" d="M1299.854,1189.779a11.243,11.243,0,1,1,1.766-.139A11.355,11.355,0,0,1,1299.854,1189.779Zm.041-19.63a8.514,8.514,0,0,0-1.328.1,8.423,8.423,0,1,0,9.631,7.01h0a8.428,8.428,0,0,0-8.3-7.115Z" transform="translate(-1288.673 -1167.369)" fill="#1c5a88"/>
        </g>
        <g id="Grupo_25905" data-name="Grupo 25905" transform="translate(0 7.344)">
          <path id="Trazado_67369" data-name="Trazado 67369" d="M1274.636,1192.433l-5.472,6.963-5.537-3.75a5.067,5.067,0,0,1-2.149-3.388l-2.325-14.793a4.447,4.447,0,0,1-.055-.658,4.132,4.132,0,0,1,8.213-.636l2.029,12.884Z" transform="translate(-1257.708 -1171.296)" fill="#fff"/>
          <path id="Trazado_67370" data-name="Trazado 67370" d="M1268.431,1200.052a1.38,1.38,0,0,1-.779-.239l-5.538-3.75a6.5,6.5,0,0,1-2.742-4.322l-2.326-14.795a5.85,5.85,0,0,1-.071-.873,5.552,5.552,0,0,1,4.661-5.441,5.513,5.513,0,0,1,6.315,4.59l1.931,12.265,4.769,3.04a1.39,1.39,0,0,1,.345,2.031l-5.471,6.963A1.387,1.387,0,0,1,1268.431,1200.052Zm-5.92-26.709a2.831,2.831,0,0,0-.439.035,2.753,2.753,0,0,0-2.317,2.7,3.108,3.108,0,0,0,.039.453l2.324,14.782a3.7,3.7,0,0,0,1.562,2.458l4.459,3.02,3.724-4.74-4-2.552a1.389,1.389,0,0,1-.626-.956l-2.028-12.885a2.736,2.736,0,0,0-2.7-2.311Z" transform="translate(-1256.975 -1170.562)" fill="#1c5a88"/>
        </g>
        <g id="Grupo_25906" data-name="Grupo 25906" transform="translate(48.062)">
          <path id="Trazado_67371" data-name="Trazado 67371" d="M1343.329,1183.635l-3.575,4.573-7.238-5.011,3.355-4.08-2.029-12.873a4.454,4.454,0,0,1-.054-.658,4.132,4.132,0,0,1,8.213-.636l2.336,14.8A5.078,5.078,0,0,1,1343.329,1183.635Z" transform="translate(-1331.127 -1160.078)" fill="#fff"/>
          <path id="Trazado_67372" data-name="Trazado 67372" d="M1339.02,1188.864a1.39,1.39,0,0,1-.791-.247l-7.237-5.012a1.39,1.39,0,0,1-.282-2.025l2.958-3.6-1.931-12.256a5.889,5.889,0,0,1-.071-.875,5.522,5.522,0,0,1,10.976-.85l2.335,14.8a6.5,6.5,0,0,1-1.286,4.953h0l-3.574,4.573A1.389,1.389,0,0,1,1339.02,1188.864Zm-5.2-6.684,4.918,3.405,2.766-3.54a3.7,3.7,0,0,0,.73-2.82l-2.334-14.793a2.742,2.742,0,0,0-5.451.419,3.161,3.161,0,0,0,.039.454l2.026,12.861a1.387,1.387,0,0,1-.3,1.1Zm8.779.722h0Z" transform="translate(-1330.394 -1159.344)" fill="#1c5a88"/>
        </g>
        <g id="Grupo_25907" data-name="Grupo 25907" transform="translate(10.067 21.729)">
          <path id="Trazado_67373" data-name="Trazado 67373" d="M1311.659,1210.056l2.906,21.075-27.063,2.621-2.478-19.5-.34-.373-10.209-6.9,5.472-6.963,4.715,3,24.026-3.761,3.783-4.605,7.237,5.011-8.136,10.4Z" transform="translate(-1273.086 -1193.27)" fill="#66c5ff"/>
          <path id="Trazado_67374" data-name="Trazado 67374" d="M1286.768,1234.408a1.389,1.389,0,0,1-1.377-1.214l-2.419-19.03-10.007-6.761a1.39,1.39,0,0,1-.314-2.011l5.471-6.962a1.389,1.389,0,0,1,1.839-.314l4.271,2.722,22.984-3.6,3.447-4.2a1.391,1.391,0,0,1,1.866-.261l7.237,5.011a1.391,1.391,0,0,1,.3,2l-7.7,9.834,2.837,20.579a1.389,1.389,0,0,1-1.242,1.573L1286.9,1234.4A1.342,1.342,0,0,1,1286.768,1234.408Zm-11.01-28.473,8.971,6.061a1.4,1.4,0,0,1,.249.216l.34.373a1.391,1.391,0,0,1,.352.761l2.308,18.158,24.28-2.351L1309.616,1210a1.39,1.39,0,0,1,.128-1.519l7.229-9.235L1312,1195.8l-2.971,3.615a1.388,1.388,0,0,1-.86.491l-24.026,3.761a1.383,1.383,0,0,1-.961-.2l-3.654-2.328Z" transform="translate(-1272.353 -1192.537)" fill="#1c5a88"/>
        </g>
        <g id="Grupo_25908" data-name="Grupo 25908" transform="translate(27.447 16.126)">
          <path id="Trazado_67375" data-name="Trazado 67375" d="M1306.878,1189.817l-3.693.582a1.869,1.869,0,0,1-2.137-1.556h0a1.87,1.87,0,0,1,1.555-2.137l3.693-.581a1.869,1.869,0,0,1,2.137,1.556h0A1.868,1.868,0,0,1,1306.878,1189.817Z" transform="translate(-1299.635 -1184.711)" fill="#66c5ff"/>
          <path id="Trazado_67376" data-name="Trazado 67376" d="M1302.159,1191.078a3.259,3.259,0,0,1-.5-6.479l3.693-.581a3.259,3.259,0,0,1,1.013,6.439l-3.693.581A3.264,3.264,0,0,1,1302.159,1191.078Zm3.7-4.32a.591.591,0,0,0-.075.005l-3.693.582a.479.479,0,1,0,.148.947l3.694-.581h0a.479.479,0,0,0-.075-.953Z" transform="translate(-1298.902 -1183.978)" fill="#1c5a88"/>
        </g>
      </g>
      <g id="Grupo_25910" data-name="Grupo 25910" transform="translate(37.776)">
        <path id="Trazado_67377" data-name="Trazado 67377" d="M1299.025,1155.492a1.39,1.39,0,0,1-1.369-1.162l-2.132-12.788a1.39,1.39,0,1,1,2.742-.458l2.132,12.788a1.394,1.394,0,0,1-1.373,1.619Z" transform="translate(-1288.046 -1139.924)" fill="#1c5a88"/>
        <path id="Trazado_67378" data-name="Trazado 67378" d="M1290.83,1159.368a1.387,1.387,0,0,1-1.18-.653l-5.328-8.525a1.389,1.389,0,1,1,2.356-1.473l5.329,8.525a1.39,1.39,0,0,1-1.177,2.126Z" transform="translate(-1284.11 -1142.735)" fill="#1c5a88"/>
        <path id="Trazado_67379" data-name="Trazado 67379" d="M1306.587,1156.456a1.388,1.388,0,0,1-1.382-1.551l1.167-9.986a1.39,1.39,0,1,1,2.76.323l-1.167,9.986A1.389,1.389,0,0,1,1306.587,1156.456Z" transform="translate(-1291.392 -1141.225)" fill="#1c5a88"/>
      </g>
      <g id="Grupo_25911" data-name="Grupo 25911" transform="translate(0 7.811)">
        <path id="Trazado_67380" data-name="Trazado 67380" d="M1239.689,1167.377a1.392,1.392,0,0,1-.552-.115l-11.895-5.157a1.39,1.39,0,1,1,1.106-2.55l11.9,5.157a1.39,1.39,0,0,1-.554,2.665Z" transform="translate(-1226.405 -1154.474)" fill="#1c5a88"/>
        <path id="Trazado_67381" data-name="Trazado 67381" d="M1238.493,1176.366h-.022l-10.052-.157a1.39,1.39,0,0,1-1.368-1.411,1.367,1.367,0,0,1,1.411-1.368l10.053.157a1.39,1.39,0,0,1-.022,2.78Z" transform="translate(-1226.628 -1159.306)" fill="#1c5a88"/>
        <path id="Trazado_67382" data-name="Trazado 67382" d="M1244.941,1161.038a1.386,1.386,0,0,1-.885-.318l-7.75-6.4a1.39,1.39,0,0,1,1.771-2.143l7.75,6.4a1.39,1.39,0,0,1-.886,2.461Z" transform="translate(-1229.65 -1151.855)" fill="#1c5a88"/>
      </g>
      <g id="Grupo_25912" data-name="Grupo 25912" transform="translate(80.993 2.483)">
        <path id="Trazado_67383" data-name="Trazado 67383" d="M1354.582,1159.238a1.39,1.39,0,0,1-.553-2.665l11.895-5.157a1.39,1.39,0,1,1,1.106,2.55l-11.895,5.157A1.387,1.387,0,0,1,1354.582,1159.238Z" transform="translate(-1351.186 -1146.336)" fill="#1c5a88"/>
        <path id="Trazado_67384" data-name="Trazado 67384" d="M1356.751,1168.227a1.39,1.39,0,0,1-.021-2.779l10.052-.157a1.39,1.39,0,1,1,.043,2.779l-10.052.157Z" transform="translate(-1351.935 -1151.167)" fill="#1c5a88"/>
        <path id="Trazado_67385" data-name="Trazado 67385" d="M1351.518,1152.9a1.39,1.39,0,0,1-.886-2.461l7.75-6.4a1.39,1.39,0,1,1,1.771,2.143l-7.75,6.4A1.387,1.387,0,0,1,1351.518,1152.9Z" transform="translate(-1350.128 -1143.716)" fill="#1c5a88"/>
      </g>
    </g>
  </g>
</svg>
