<svg xmlns="http://www.w3.org/2000/svg" width="109.836" height="109.836" viewBox="0 0 109.836 109.836">
  <g id="Grupo_27404" data-name="Grupo 27404" transform="translate(-368.54 -838.289)">
    <g id="Grupo_25507" data-name="Grupo 25507" transform="translate(340.922 828.412)">
      <circle id="Elipse_1774" data-name="Elipse 1774" cx="54.918" cy="54.918" r="54.918" transform="translate(27.618 9.878)" fill="#ffe3cb"/>
      <path id="Trazado_66701" data-name="Trazado 66701" d="M82.536,90.915C73.91,88.924,66.128,82.9,61.4,75.347l6.4.024h.033v.007c.042,0,.084,0,.125,0a3.871,3.871,0,0,1,1.213.2,3.223,3.223,0,0,1,.969.626l0,0c.044.038.088.074.134.107l4.074,3.556,1.4-1.6-1.4,1.6A2.128,2.128,0,0,0,77.8,78.788l2.807-8.4,2.81,12.228,2.068-.473-2.072.476a2.125,2.125,0,0,0,3.877.646l5.007-7.086,0,0c.022-.032.045-.065.066-.1a2.215,2.215,0,0,1,.725-.658,2.433,2.433,0,0,1,1.177-.213v.007h9.491c-4.723,7.619-12.544,13.7-21.22,15.7ZM59.141,71.1l8.692.032.008-.008a2.38,2.38,0,0,1,.24.014,8.032,8.032,0,0,1,2.561.469A7.247,7.247,0,0,1,72.908,73l.006,0c.046.039.09.081.131.123l1.684,1.469,4.243-12.7-.007,0a2.127,2.127,0,0,1,4.116.337l3.4,14.814,2.338-3.31,1.737,1.221-1.737-1.227a1.787,1.787,0,0,1,.119-.153,6.387,6.387,0,0,1,2.2-1.921,6.492,6.492,0,0,1,3.167-.68v-.007h11.68A28.213,28.213,0,0,0,108.419,60.6c.511-16.189-17.514-18.282-25.883-6.516C74.167,42.321,56.143,44.414,56.653,60.6A28.266,28.266,0,0,0,59.141,71.1Z" fill="#ed8730" fill-rule="evenodd"/>
    </g>
  </g>
</svg>
