<svg xmlns="http://www.w3.org/2000/svg" width="261.078" height="273.477" viewBox="0 0 261.078 273.477">
  <g id="Grupo_25870" data-name="Grupo 25870" transform="translate(-328.958 -1652.426)">
    <g id="Grupo_25835" data-name="Grupo 25835" transform="translate(328.958 1664.824)">
      <g id="Grupo_25834" data-name="Grupo 25834" transform="translate(0 0)">
        <g id="Grupo_25833" data-name="Grupo 25833">
          <g id="Grupo_25832" data-name="Grupo 25832">
            <g id="Grupo_25831" data-name="Grupo 25831">
              <g id="Grupo_25830" data-name="Grupo 25830">
                <g id="Grupo_25829" data-name="Grupo 25829">
                  <g id="Grupo_25828" data-name="Grupo 25828">
                    <g id="Grupo_25827" data-name="Grupo 25827">
                      <g id="Grupo_25826" data-name="Grupo 25826">
                        <g id="Grupo_25825" data-name="Grupo 25825">
                          <path id="Trazado_67275" data-name="Trazado 67275" d="M380.593,1735.723a1.538,1.538,0,0,1-1.229-2.462,123.88,123.88,0,0,1,10.118-11.83,1.538,1.538,0,1,1,2.207,2.143,121.06,121.06,0,0,0-9.866,11.536A1.536,1.536,0,0,1,380.593,1735.723Zm21.374-22.018a1.538,1.538,0,0,1-.962-2.74,123.611,123.611,0,0,1,12.749-8.931,1.538,1.538,0,0,1,1.6,2.626,120.607,120.607,0,0,0-12.431,8.709A1.529,1.529,0,0,1,401.967,1713.705Zm26.193-15.973a1.539,1.539,0,0,1-.629-2.944,122,122,0,0,1,14.586-5.431A1.538,1.538,0,1,1,443,1692.3a118.762,118.762,0,0,0-14.217,5.294A1.537,1.537,0,0,1,428.16,1697.733Zm29.365-8.843a1.538,1.538,0,0,1-.249-3.056,123.017,123.017,0,0,1,15.238-1.555,1.539,1.539,0,0,1,.12,3.075,119.689,119.689,0,0,0-14.855,1.516A1.547,1.547,0,0,1,457.526,1688.889Z" transform="translate(-346.858 -1676.204)" fill="#1c5a88"/>
                          <path id="Trazado_67276" data-name="Trazado 67276" d="M450.069,2026.634a1.537,1.537,0,0,1-.282-.026,122,122,0,0,1-15.1-3.8,1.539,1.539,0,0,1,.94-2.93,119.029,119.029,0,0,0,14.715,3.707,1.539,1.539,0,0,1-.277,3.052Zm-29.214-9.384a1.537,1.537,0,0,1-.653-.146,123.275,123.275,0,0,1-13.644-7.5,1.539,1.539,0,0,1,1.65-2.6,119.994,119.994,0,0,0,13.3,7.31,1.539,1.539,0,0,1-.654,2.931Zm-25.9-16.453a1.535,1.535,0,0,1-.981-.354,124.2,124.2,0,0,1-11.332-10.673,1.538,1.538,0,1,1,2.246-2.1,121.054,121.054,0,0,0,11.051,10.407,1.539,1.539,0,0,1-.983,2.723Zm-20.966-22.4a1.539,1.539,0,0,1-1.248-.636,123.2,123.2,0,0,1-8.306-13.166,1.539,1.539,0,1,1,2.7-1.474,120.1,120.1,0,0,0,8.1,12.836,1.538,1.538,0,0,1-1.245,2.44Z" transform="translate(-341.566 -1775.544)" fill="#1c5a88"/>
                          <path id="Trazado_67277" data-name="Trazado 67277" d="M702.136,1889.846a1.54,1.54,0,0,1-1.42-2.131,118.887,118.887,0,0,0,4.926-14.356,1.539,1.539,0,0,1,2.969.81,122.011,122.011,0,0,1-5.055,14.729A1.539,1.539,0,0,1,702.136,1889.846Zm8.083-29.6a1.627,1.627,0,0,1-.215-.014,1.539,1.539,0,0,1-1.311-1.736,120.273,120.273,0,0,0,1.136-15.138,1.538,1.538,0,0,1,1.538-1.52h.019a1.537,1.537,0,0,1,1.52,1.557,123.4,123.4,0,0,1-1.165,15.525A1.539,1.539,0,0,1,710.219,1860.242Zm.361-30.687a1.538,1.538,0,0,1-1.526-1.363,119.177,119.177,0,0,0-2.692-14.935,1.538,1.538,0,0,1,2.987-.739,122.258,122.258,0,0,1,2.761,15.322,1.539,1.539,0,0,1-1.352,1.7A1.678,1.678,0,0,1,710.58,1829.555Zm-7.362-29.785a1.54,1.54,0,0,1-1.435-.982,119.2,119.2,0,0,0-6.387-13.767,1.538,1.538,0,0,1,2.7-1.47,122.3,122.3,0,0,1,6.552,14.124,1.539,1.539,0,0,1-1.434,2.1Z" transform="translate(-459.815 -1711.387)" fill="#1c5a88"/>
                          <g id="Grupo_25824" data-name="Grupo 25824">
                            <circle id="Elipse_1831" data-name="Elipse 1831" cx="92.305" cy="92.305" r="92.305" transform="translate(0 130.539) rotate(-45)" fill="#c9f0fb"/>
                          </g>
                        </g>
                      </g>
                    </g>
                  </g>
                </g>
              </g>
            </g>
          </g>
        </g>
      </g>
    </g>
    <path id="Trazado_67278" data-name="Trazado 67278" d="M655.414,1915.774a1.567,1.567,0,0,1-.179-.01,1.539,1.539,0,0,1-1.351-1.7c.014-.12.259-2.186.892-4.989a13.513,13.513,0,0,1-3.251-2.395,14.96,14.96,0,0,1-2.545-4.175c-.528-1.111-1.327-2.792-1.83-3.041a1.539,1.539,0,0,1,1.365-2.758c1.46.723,2.327,2.547,3.244,4.478a13.228,13.228,0,0,0,1.933,3.311,10.474,10.474,0,0,0,1.878,1.489c.054-.188.11-.377.168-.567,1.9-6.268,4.538-10.271,7.837-11.9,2.712-1.337,5.716-1.041,8.932.881a5.852,5.852,0,0,1,3.166,5.71c-.359,3.726-4.155,7.608-9.231,9.443a15.057,15.057,0,0,1-8.764.62c-.372,1.7-.613,3.2-.735,4.245A1.539,1.539,0,0,1,655.414,1915.774Zm3.014-8.6a12.506,12.506,0,0,0,6.966-.515c3.808-1.376,6.977-4.382,7.214-6.844a2.833,2.833,0,0,0-1.683-2.774c-2.291-1.371-4.251-1.62-5.99-.763C661.814,1897.812,659.708,1902.667,658.428,1907.17Z" transform="translate(-113.38 -85.845)" fill="#1c5a89"/>
    <g id="Grupo_25836" data-name="Grupo 25836" transform="translate(474.165 1801.89)">
      <rect id="Rectángulo_25865" data-name="Rectángulo 25865" width="59.678" height="45.209" rx="6.808" transform="translate(61.216 46.748) rotate(180)" fill="#fcdf90"/>
      <path id="Trazado_67279" data-name="Trazado 67279" d="M611.727,1933.265H560.8a5.921,5.921,0,0,1-5.914-5.914v-36.457a5.921,5.921,0,0,1,5.914-5.915h50.927a5.921,5.921,0,0,1,5.914,5.915v36.457A5.921,5.921,0,0,1,611.727,1933.265ZM560.8,1888.056a2.84,2.84,0,0,0-2.837,2.838v36.457a2.84,2.84,0,0,0,2.837,2.838h50.927a2.84,2.84,0,0,0,2.837-2.838v-36.457a2.84,2.84,0,0,0-2.837-2.838Z" transform="translate(-554.886 -1884.979)" fill="#1c5a89"/>
    </g>
    <g id="Grupo_25837" data-name="Grupo 25837" transform="translate(480.369 1807.707)">
      <rect id="Rectángulo_25866" data-name="Rectángulo 25866" width="47.416" height="32.849" transform="translate(48.955 34.388) rotate(180)" fill="#fff"/>
      <path id="Trazado_67280" data-name="Trazado 67280" d="M613.494,1929.955H566.078a1.539,1.539,0,0,1-1.539-1.539v-32.849a1.539,1.539,0,0,1,1.539-1.539h47.416a1.539,1.539,0,0,1,1.539,1.539v32.849A1.539,1.539,0,0,1,613.494,1929.955Zm-45.878-3.077h44.339v-29.773H567.616Z" transform="translate(-564.539 -1894.029)" fill="#1c5a89"/>
    </g>
    <g id="Grupo_25839" data-name="Grupo 25839" transform="translate(488.166 1814.852)">
      <g id="Grupo_25838" data-name="Grupo 25838" transform="translate(0)">
        <path id="Trazado_67281" data-name="Trazado 67281" d="M602.365,1907.54a30.742,30.742,0,0,1-14.946.1l-.161.215-8.194,14.759a30.632,30.632,0,0,0,31.519-.157l.134-.083-8.056-14.519" transform="translate(-577.526 -1906.002)" fill="#66c5ff"/>
        <path id="Trazado_67282" data-name="Trazado 67282" d="M593.838,1927.585a32.232,32.232,0,0,1-16.413-4.5,1.539,1.539,0,0,1-.561-2.071l8.195-14.759a1.533,1.533,0,0,1,.112-.174l.16-.215a1.539,1.539,0,0,1,1.6-.574,29.331,29.331,0,0,0,14.195-.1,2.3,2.3,0,0,1,2.026,1.058l8.056,14.519a1.539,1.539,0,0,1-.529,2.05l-.134.083A32.231,32.231,0,0,1,593.838,1927.585Zm-13.539-6.421a29.081,29.081,0,0,0,27.486-.218l-6.946-12.517a32.383,32.383,0,0,1-13.526.1Z" transform="translate(-576.671 -1905.147)" fill="#1c5a89"/>
      </g>
    </g>
    <path id="Trazado_67283" data-name="Trazado 67283" d="M550.3,1962.163a1.532,1.532,0,0,1-.53-.094c-3.369-1.235-5.412-3.5-5.908-6.558-.929-5.729,2.076-9.759,8.245-11.057a1.538,1.538,0,1,1,.633,3.011c-4.534.954-6.5,3.495-5.84,7.552.315,1.948,1.6,3.31,3.929,4.163a1.538,1.538,0,0,1-.53,2.983Z" transform="translate(-76.725 -104.327)" fill="#1c5a89"/>
    <path id="Trazado_67284" data-name="Trazado 67284" d="M595.117,1931.848a1.532,1.532,0,0,1-.222-.015,32.374,32.374,0,0,1-7.6-2.066,1.538,1.538,0,1,1,1.163-2.848,29.286,29.286,0,0,0,6.879,1.869,1.538,1.538,0,0,1-.218,3.061Z" transform="translate(-91.958 -98.032)" fill="#1c5a89"/>
    <path id="Trazado_67285" data-name="Trazado 67285" d="M602.527,1914.887a1.539,1.539,0,0,1,0-3.078,29.535,29.535,0,0,0,3.6-.22,1.538,1.538,0,1,1,.379,3.053A32.387,32.387,0,0,1,602.527,1914.887Z" transform="translate(-97.193 -92.592)" fill="#1c5a89"/>
    <g id="Grupo_25840" data-name="Grupo 25840" transform="translate(472.398 1847.194)">
      <path id="Trazado_67286" data-name="Trazado 67286" d="M554.532,1975.7v-12.615a5.147,5.147,0,0,1,5.062-5.228H619.4v29.668H554.532Z" transform="translate(-552.993 -1956.322)" fill="#fff"/>
      <path id="Trazado_67287" data-name="Trazado 67287" d="M618.548,1988.211H553.677a1.538,1.538,0,0,1-1.539-1.538v-24.44a6.692,6.692,0,0,1,6.6-6.766h59.809a1.538,1.538,0,0,1,1.538,1.538v29.668A1.538,1.538,0,0,1,618.548,1988.211Zm-63.333-3.077h61.795v-26.591H558.739a3.614,3.614,0,0,0-3.524,3.69Z" transform="translate(-552.138 -1955.467)" fill="#1c5a89"/>
    </g>
    <path id="Trazado_67288" data-name="Trazado 67288" d="M567.771,1969.733H561.83a1.538,1.538,0,0,1,0-3.077h5.941a1.538,1.538,0,1,1,0,3.077Z" transform="translate(-82.653 -112.271)" fill="#1c5a89"/>
    <g id="Grupo_25841" data-name="Grupo 25841" transform="translate(522.531 1843.529)">
      <path id="Trazado_67289" data-name="Trazado 67289" d="M668.665,1952.782c-.384.16-5.536,1.186-14.383-.623l-13.741,3.1c-4.747,4.26-7.881,10.64-8,12.279a2.267,2.267,0,0,0,.776,2.089l33.9-2.508,4.294-1.355" transform="translate(-630.995 -1950.62)" fill="#fff"/>
      <path id="Trazado_67290" data-name="Trazado 67290" d="M632.464,1970.306a1.536,1.536,0,0,1-.952-.33,3.749,3.749,0,0,1-1.359-3.406c.152-2.14,3.5-8.82,8.5-13.316a1.536,1.536,0,0,1,.69-.355l13.741-3.1a1.523,1.523,0,0,1,.647-.006c8.569,1.752,13.294.743,13.562.68a1.538,1.538,0,0,1,1.1,2.87c-.677.282-5.971,1.317-14.957-.47l-13.023,2.934c-4.358,4.054-7.115,9.835-7.2,10.977a1.84,1.84,0,0,0,.006.381l32.84-2.429,4.124-1.3a1.538,1.538,0,1,1,.926,2.934l-4.294,1.355a1.466,1.466,0,0,1-.35.067l-33.9,2.509C632.54,1970.3,632.5,1970.306,632.464,1970.306Zm34.811-19.822a.573.573,0,0,0-.058.023Z" transform="translate(-630.139 -1949.765)" fill="#1c5a89"/>
    </g>
    <g id="Grupo_25845" data-name="Grupo 25845" transform="translate(522.229 1827.856)">
      <g id="Grupo_25842" data-name="Grupo 25842" transform="translate(12.793)">
        <path id="Trazado_67291" data-name="Trazado 67291" d="M651.968,1934.49l.861-4.076a3.25,3.25,0,0,1,3.809-2.57h0a3.25,3.25,0,0,1,2.446,3.89l-.71,3.365" transform="translate(-650.429 -1926.235)" fill="#fcdf90"/>
        <path id="Trazado_67292" data-name="Trazado 67292" d="M657.52,1935.781a1.559,1.559,0,0,1-.32-.034,1.538,1.538,0,0,1-1.187-1.823l.711-3.365a1.716,1.716,0,0,0-1.258-2.068,1.6,1.6,0,0,0-1.233.249,1.806,1.806,0,0,0-.753,1.134l-.861,4.076a1.538,1.538,0,0,1-3.01-.635l.861-4.076a4.863,4.863,0,0,1,2.043-3.048,4.636,4.636,0,0,1,3.59-.709,4.794,4.794,0,0,1,3.633,5.714l-.711,3.365A1.539,1.539,0,0,1,657.52,1935.781Z" transform="translate(-649.574 -1925.379)" fill="#1c5a89"/>
      </g>
      <g id="Grupo_25844" data-name="Grupo 25844" transform="translate(0 5.972)">
        <g id="Grupo_25843" data-name="Grupo 25843">
          <path id="Trazado_67293" data-name="Trazado 67293" d="M651.074,1965.894l.8,2.359a4.106,4.106,0,0,1-4.606,5.407l-12.062-2.546a4.1,4.1,0,0,1-2.1-6.729l5.766-6.615,3.465-16.412a5.289,5.289,0,0,1,6.2-4.182h0a5.289,5.289,0,0,1,3.98,6.331l-3.465,16.412" transform="translate(-630.527 -1935.526)" fill="#ffa197"/>
          <path id="Trazado_67294" data-name="Trazado 67294" d="M647.229,1974.429a5.508,5.508,0,0,1-1.138-.12l-12.062-2.546a5.439,5.439,0,0,1-4.055-3.65,5.689,5.689,0,0,1,1.116-5.595l5.5-6.314,3.382-16.02a6.832,6.832,0,0,1,8.022-5.369,6.611,6.611,0,0,1,4.259,2.985,6.959,6.959,0,0,1,.909,5.168L649.7,1959.38a1.538,1.538,0,0,1-3.01-.635l3.465-16.412a3.9,3.9,0,0,0-.5-2.895,3.56,3.56,0,0,0-2.289-1.613,3.758,3.758,0,0,0-4.376,2.994l-3.465,16.412a1.538,1.538,0,0,1-.345.693l-5.766,6.616a2.64,2.64,0,0,0-.518,2.6,2.361,2.361,0,0,0,1.773,1.615l12.062,2.547a2.368,2.368,0,0,0,2.3-.786,2.637,2.637,0,0,0,.533-2.623l-.8-2.359a1.538,1.538,0,1,1,2.915-.986l.8,2.359a5.75,5.75,0,0,1-1.147,5.652A5.455,5.455,0,0,1,647.229,1974.429Z" transform="translate(-629.67 -1934.671)" fill="#1c5a89"/>
        </g>
      </g>
    </g>
    <path id="Trazado_67295" data-name="Trazado 67295" d="M585.407,1969.733h-5.941a1.538,1.538,0,1,1,0-3.077h5.941a1.538,1.538,0,0,1,0,3.077Z" transform="translate(-88.954 -112.271)" fill="#1c5a89"/>
    <path id="Trazado_67296" data-name="Trazado 67296" d="M613.621,1913.359a1.539,1.539,0,0,1-.357-3.036c.715-.171,1.439-.374,2.151-.6a1.538,1.538,0,1,1,.944,2.928c-.787.254-1.587.479-2.379.668A1.532,1.532,0,0,1,613.621,1913.359Z" transform="translate(-101.157 -91.902)" fill="#1c5a89"/>
    <g id="Grupo_25846" data-name="Grupo 25846" transform="translate(462.29 1864.02)">
      <path id="Trazado_67297" data-name="Trazado 67297" d="M644.2,1990.906c-17.148-2.954-49.5-10.236-65.249,4.39-.605,1.6-3.272-1.046-3.364-2.8v-.071c-.113-3.262-.226-4.441-1.231-4.913s-9.815-1.343-9.815-1.343l-1.149-1.805a.656.656,0,0,0-1.025-.133,14.1,14.1,0,0,1-6.144,3.2,13.81,13.81,0,0,0-12.851,3.806c-2.984,2.851-8.707,14.492,0,25.188s21.159,1.631,24.256,0a22.06,22.06,0,0,1,10.779-2.553,11.534,11.534,0,0,1,6.892,3,23.637,23.637,0,0,0,13.764,6.031,20.716,20.716,0,0,0,2.113.082H644.2" transform="translate(-537.245 -1982.503)" fill="#fff"/>
      <path id="Trazado_67298" data-name="Trazado 67298" d="M600.048,2023.673c-.616,0-1.264-.03-1.957-.089a25.016,25.016,0,0,1-14.652-6.415,9.936,9.936,0,0,0-5.962-2.618,20.751,20.751,0,0,0-9.972,2.38c-.289.152-.667.376-1.121.643-4.473,2.634-16.355,9.626-25.043-1.033-9.371-11.513-3.089-24.2.13-27.274a15.365,15.365,0,0,1,13.881-4.27,12.415,12.415,0,0,0,5.108-2.731,2.2,2.2,0,0,1,3.405.438l.733,1.152c4,.4,8.616.953,9.577,1.409,1.924.9,1.994,2.916,2.109,6.25v.068a3.2,3.2,0,0,0,.963,1.56c15.144-13.8,44.528-8.522,62.114-5.365,1.5.27,2.927.526,4.26.755a1.539,1.539,0,0,1-.522,3.033c-1.34-.231-2.772-.489-4.282-.76-17.009-3.052-45.422-8.153-59.457,4.575a2.162,2.162,0,0,1-2.26,1.062c-1.784-.278-3.784-2.705-3.89-4.723,0-.027,0-.054,0-.081v-.071a15.138,15.138,0,0,0-.35-3.517c-.875-.264-5.457-.827-9.309-1.208a1.537,1.537,0,0,1-1.146-.7l-.608-.956a16.072,16.072,0,0,1-6.1,2.9,1.554,1.554,0,0,1-.635,0,12.175,12.175,0,0,0-11.469,3.415c-2.69,2.571-7.885,13.254.132,23.1,7.018,8.611,16.884,2.8,21.1.324.5-.3.926-.544,1.249-.714a23.525,23.525,0,0,1,11.609-2.728,12.97,12.97,0,0,1,7.8,3.387,21.981,21.981,0,0,0,12.869,5.65,19.292,19.292,0,0,0,1.965.076h43.047a1.538,1.538,0,0,1,0,3.077H600.338Zm-37.45-39.192,0,0Zm-1.342-.147.013.021Z" transform="translate(-536.409 -1981.647)" fill="#1c5a89"/>
    </g>
    <path id="Trazado_67299" data-name="Trazado 67299" d="M643.882,2044.51H544.418a6.66,6.66,0,0,0-6.553,6.769v2.42H643.882Z" transform="translate(-74.64 -140.087)" fill="#fcdf90"/>
    <path id="Trazado_67300" data-name="Trazado 67300" d="M536.7,2054.382a1.538,1.538,0,0,1-1.539-1.538v-2.422c0-4.578,3.235-8.3,7.212-8.3h99.213a1.538,1.538,0,0,1,0,3.077H542.37c-2.28,0-4.135,2.344-4.135,5.225v2.422A1.538,1.538,0,0,1,536.7,2054.382Z" transform="translate(-73.673 -139.233)" fill="#1c5a89"/>
    <g id="Grupo_25848" data-name="Grupo 25848" transform="translate(528.864 1850.941)">
      <g id="Grupo_25847" data-name="Grupo 25847" transform="translate(0)">
        <path id="Trazado_67301" data-name="Trazado 67301" d="M673.109,1970.51a32.913,32.913,0,0,0-7.346,2.917,14.824,14.824,0,0,1-7.864,1.894l-2.111-.1a10.614,10.614,0,0,0-2.392.163l-7.81,1.429a2.717,2.717,0,0,1-3.149-2.21h0a2.874,2.874,0,0,1,2.2-3.361l10.2-2.084a5.826,5.826,0,0,0-1.6-2.062l.72-3.407" transform="translate(-640.849 -1962.152)" fill="#fff"/>
        <path id="Trazado_67302" data-name="Trazado 67302" d="M644.259,1977.543a4.3,4.3,0,0,1-4.187-3.5,4.415,4.415,0,0,1,3.4-5.155l7.776-1.59a1.535,1.535,0,0,1-.38-1.368l.719-3.408a1.538,1.538,0,1,1,3.01.636l-.541,2.561a7.36,7.36,0,0,1,1.313,1.94,1.537,1.537,0,0,1-1.086,2.158l-10.195,2.084a1.344,1.344,0,0,0-1,1.566,1.183,1.183,0,0,0,1.361.985l7.808-1.43a12.237,12.237,0,0,1,2.739-.186l2.111.1a13.276,13.276,0,0,0,7.048-1.7,34.009,34.009,0,0,1,7.693-3.059,1.539,1.539,0,0,1,.8,2.972,31.609,31.609,0,0,0-7,2.777,16.417,16.417,0,0,1-8.68,2.085l-2.111-.1a9.14,9.14,0,0,0-2.045.139l-7.809,1.43A4.2,4.2,0,0,1,644.259,1977.543Z" transform="translate(-639.993 -1961.297)" fill="#1c5a89"/>
      </g>
    </g>
    <path id="Trazado_67303" data-name="Trazado 67303" d="M679.449,2007.489a1.68,1.68,0,0,1-.178-.01c-9.544-1.1-25.227-2.6-40.47-4.038a1.538,1.538,0,1,1,.289-3.062c15.261,1.441,30.96,2.942,40.533,4.044a1.538,1.538,0,0,1-.174,3.066Z" transform="translate(-110.205 -124.317)" fill="#1c5a89"/>
    <path id="Trazado_67304" data-name="Trazado 67304" d="M676.18,2030.8l-.084,0c-4.706-.254-9.157-.31-13.462-.365-9.464-.117-18.4-.229-29.521-2.295a1.539,1.539,0,1,1,.562-3.025c10.859,2.018,19.67,2.128,29,2.244,4.336.054,8.819.11,13.589.367a1.539,1.539,0,0,1-.082,3.075Z" transform="translate(-108.222 -133.147)" fill="#1c5a89"/>
    <g id="Grupo_25865" data-name="Grupo 25865" transform="translate(340.012 1737.953)">
      <g id="Grupo_25849" data-name="Grupo 25849" transform="translate(0)">
        <rect id="Rectángulo_25867" data-name="Rectángulo 25867" width="97.219" height="84.276" rx="7.402" transform="translate(1.538 1.538)" fill="#66c5ff"/>
        <path id="Trazado_67305" data-name="Trazado 67305" d="M440.157,1872.85H352.452a6.3,6.3,0,0,1-6.3-6.3v-74.761a6.3,6.3,0,0,1,6.3-6.3h87.705a6.3,6.3,0,0,1,6.3,6.3v74.761A6.3,6.3,0,0,1,440.157,1872.85Zm-87.705-84.276a3.222,3.222,0,0,0-3.219,3.219v74.761a3.222,3.222,0,0,0,3.219,3.219h87.705a3.222,3.222,0,0,0,3.219-3.219v-74.761a3.222,3.222,0,0,0-3.219-3.219Z" transform="translate(-346.157 -1785.498)" fill="#1c5a89"/>
      </g>
      <g id="Grupo_25850" data-name="Grupo 25850" transform="translate(5.969 5.525)">
        <rect id="Rectángulo_25868" data-name="Rectángulo 25868" width="73.225" height="85.281" rx="3.885" transform="translate(86.82 1.538) rotate(90)" fill="#fff"/>
        <path id="Trazado_67306" data-name="Trazado 67306" d="M439.767,1870.4H359.479a4.039,4.039,0,0,1-4.035-4.035V1798.13a4.039,4.039,0,0,1,4.035-4.035h80.288a4.04,4.04,0,0,1,4.035,4.035v68.232A4.04,4.04,0,0,1,439.767,1870.4Zm-80.288-73.225a.96.96,0,0,0-.958.958v68.232a.959.959,0,0,0,.958.958h80.288a.959.959,0,0,0,.958-.958V1798.13a.96.96,0,0,0-.958-.958Z" transform="translate(-355.444 -1794.095)" fill="#1c5a89"/>
      </g>
      <g id="Grupo_25853" data-name="Grupo 25853" transform="translate(16.554 63.612)">
        <g id="Grupo_25851" data-name="Grupo 25851" transform="translate(10.347)">
          <line id="Línea_442" data-name="Línea 442" x2="43.417" transform="translate(1.538 1.538)" fill="#fff"/>
          <path id="Trazado_67307" data-name="Trazado 67307" d="M432.968,1887.549H389.551a1.538,1.538,0,1,1,0-3.077h43.417a1.538,1.538,0,1,1,0,3.077Z" transform="translate(-388.012 -1884.472)" fill="#1c5a89"/>
        </g>
        <g id="Grupo_25852" data-name="Grupo 25852" transform="translate(0 7.338)">
          <line id="Línea_443" data-name="Línea 443" x2="64.111" transform="translate(1.538 1.538)" fill="#fff"/>
          <path id="Trazado_67308" data-name="Trazado 67308" d="M437.563,1898.967H373.452a1.538,1.538,0,1,1,0-3.077h64.111a1.538,1.538,0,1,1,0,3.077Z" transform="translate(-371.913 -1895.89)" fill="#1c5a89"/>
        </g>
      </g>
      <g id="Grupo_25862" data-name="Grupo 25862" transform="translate(23.632 12.018)">
        <g id="Grupo_25854" data-name="Grupo 25854" transform="translate(20.148)">
          <circle id="Elipse_1832" data-name="Elipse 1832" cx="4.829" cy="4.829" r="4.829" transform="translate(1.539 1.539)" fill="#ffa197"/>
          <path id="Trazado_67309" data-name="Trazado 67309" d="M420.642,1816.932a6.367,6.367,0,1,1,6.367-6.367A6.375,6.375,0,0,1,420.642,1816.932Zm0-9.658a3.291,3.291,0,1,0,3.291,3.291A3.294,3.294,0,0,0,420.642,1807.274Z" transform="translate(-414.275 -1804.197)" fill="#1c5a89"/>
        </g>
        <g id="Grupo_25860" data-name="Grupo 25860" transform="translate(0 15.22)">
          <g id="Grupo_25855" data-name="Grupo 25855" transform="translate(0 12.034)">
            <path id="Trazado_67310" data-name="Trazado 67310" d="M408.013,1859.489A32.86,32.86,0,0,1,385.321,1849" transform="translate(-383.782 -1847.457)" fill="#fff"/>
            <path id="Trazado_67311" data-name="Trazado 67311" d="M407.158,1860.172h-.067a34.266,34.266,0,0,1-23.752-10.983,1.539,1.539,0,0,1,2.254-2.1,31.2,31.2,0,0,0,21.631,10,1.538,1.538,0,0,1-.066,3.075Z" transform="translate(-382.927 -1846.602)" fill="#1c5a89"/>
          </g>
          <g id="Grupo_25856" data-name="Grupo 25856" transform="translate(39.586 10.092)">
            <path id="Trazado_67312" data-name="Trazado 67312" d="M457.281,1845.974a33.1,33.1,0,0,1-10.368,8.631" transform="translate(-445.375 -1844.436)" fill="#fff"/>
            <path id="Trazado_67313" data-name="Trazado 67313" d="M446.06,1855.289a1.539,1.539,0,0,1-.724-2.9,31.351,31.351,0,0,0,9.885-8.229,1.539,1.539,0,0,1,2.409,1.915,34.411,34.411,0,0,1-10.85,9.031A1.536,1.536,0,0,1,446.06,1855.289Z" transform="translate(-444.52 -1843.581)" fill="#1c5a89"/>
          </g>
          <g id="Grupo_25857" data-name="Grupo 25857" transform="translate(7.952 6.37)">
            <path id="Trazado_67314" data-name="Trazado 67314" d="M412.433,1847.292a22.4,22.4,0,0,1-14.741-7.11" transform="translate(-396.154 -1838.644)" fill="#fff"/>
            <path id="Trazado_67315" data-name="Trazado 67315" d="M411.579,1847.976c-.039,0-.078,0-.118,0a23.909,23.909,0,0,1-15.751-7.6,1.539,1.539,0,0,1,2.254-2.1,20.841,20.841,0,0,0,13.729,6.623,1.539,1.539,0,0,1-.114,3.073Z" transform="translate(-395.299 -1837.789)" fill="#1c5a89"/>
          </g>
          <g id="Grupo_25858" data-name="Grupo 25858" transform="translate(36.375 5.046)">
            <path id="Trazado_67316" data-name="Trazado 67316" d="M447.544,1838.123a22.591,22.591,0,0,1-5.627,5.048" transform="translate(-440.378 -1836.585)" fill="#fff"/>
            <path id="Trazado_67317" data-name="Trazado 67317" d="M441.063,1843.854a1.538,1.538,0,0,1-.822-2.84,20.983,20.983,0,0,0,5.243-4.7,1.538,1.538,0,0,1,2.409,1.914,24.046,24.046,0,0,1-6.011,5.392A1.53,1.53,0,0,1,441.063,1843.854Z" transform="translate(-439.523 -1835.73)" fill="#1c5a89"/>
          </g>
          <g id="Grupo_25859" data-name="Grupo 25859" transform="translate(15.903)">
            <path id="Trazado_67318" data-name="Trazado 67318" d="M428.212,1830.272a11.971,11.971,0,0,1-18.148.706" transform="translate(-408.526 -1828.734)" fill="#fff"/>
            <path id="Trazado_67319" data-name="Trazado 67319" d="M417.979,1835.485a13.557,13.557,0,0,1-9.9-4.314,1.538,1.538,0,0,1,2.253-2.1,10.432,10.432,0,0,0,15.817-.615,1.538,1.538,0,1,1,2.409,1.914A13.447,13.447,0,0,1,417.979,1835.485Z" transform="translate(-407.67 -1827.879)" fill="#1c5a89"/>
          </g>
        </g>
        <g id="Grupo_25861" data-name="Grupo 25861" transform="translate(16.037 23.899)">
          <path id="Trazado_67320" data-name="Trazado 67320" d="M410.273,1852.714a8.936,8.936,0,1,1,1.351,4.728A8.94,8.94,0,0,1,410.273,1852.714Z" transform="translate(-408.734 -1842.236)" fill="#fcdf90"/>
          <path id="Trazado_67321" data-name="Trazado 67321" d="M418.357,1862.337a10.478,10.478,0,1,1,10.478-10.478A10.426,10.426,0,0,1,418.357,1862.337Zm0-17.88a7.4,7.4,0,1,0,7.4,7.4A7.41,7.41,0,0,0,418.357,1844.458Z" transform="translate(-407.879 -1841.381)" fill="#1c5a89"/>
        </g>
      </g>
      <g id="Grupo_25863" data-name="Grupo 25863" transform="translate(37.778 84.276)">
        <path id="Trazado_67322" data-name="Trazado 67322" d="M428.947,1926.8s-.2-7.785,0-7.785H407.439c-.2,0,0,7.785,0,7.785Z" transform="translate(-405.799 -1917.478)" fill="#fff"/>
        <path id="Trazado_67323" data-name="Trazado 67323" d="M429.662,1927.485H405.077l-.039-1.5c-.21-8.239-.112-8.339.429-8.894l.453-.465.656,0h21.508v3.077a1.516,1.516,0,0,0,1.487-1.213c-.073.561-.031,4.213.051,7.421Zm-21.582-3.077h18.428c-.051-2.2-.073-3.683-.061-4.708H408.027C408.021,1920.844,408.043,1922.611,408.079,1924.408Z" transform="translate(-404.936 -1916.623)" fill="#1c5a89"/>
      </g>
      <g id="Grupo_25864" data-name="Grupo 25864" transform="translate(18.979 92.061)">
        <rect id="Rectángulo_25869" data-name="Rectángulo 25869" width="59.262" height="4.807" rx="1.232" transform="translate(1.538 1.539)" fill="#fff"/>
        <path id="Trazado_67324" data-name="Trazado 67324" d="M435.694,1936.62H378.016a2.333,2.333,0,0,1-2.33-2.33v-3.223a2.333,2.333,0,0,1,2.33-2.331h57.678a2.334,2.334,0,0,1,2.33,2.331v3.223A2.333,2.333,0,0,1,435.694,1936.62Zm-56.931-3.077h56.185v-1.731H378.763Zm56.931-1.731h0Z" transform="translate(-375.686 -1928.736)" fill="#1c5a89"/>
      </g>
    </g>
    <g id="Grupo_25866" data-name="Grupo 25866" transform="translate(454.515 1674.809)">
      <path id="Trazado_67325" data-name="Trazado 67325" d="M537.507,1738.669c6.971,9.333,18.173,20.292,36.157,31h-.047c30.086-17.908,41.211-36.528,45.294-47.058,4.678-12.064-.611-26.01-12.528-31.05a24.354,24.354,0,0,0-32.72,15.227,24.345,24.345,0,0,0-35.146-14.037c-10.373,5.825-14.415,18.667-10.148,29.772" transform="translate(-525.162 -1688.107)" fill="#fcdf90"/>
      <path id="Trazado_67326" data-name="Trazado 67326" d="M572.814,1770.349a1.583,1.583,0,0,1-.908-.289c-15.655-9.335-27.927-19.874-36.482-31.327a1.539,1.539,0,0,1,2.465-1.842c8.186,10.961,19.925,21.088,34.9,30.111,13.091-7.9,35.366-23.961,43.837-45.807,4.433-11.431-.812-24.475-11.693-29.077a22.814,22.814,0,0,0-30.65,14.266,1.539,1.539,0,0,1-2.94,0,22.8,22.8,0,0,0-32.923-13.151c-9.462,5.313-13.531,17.3-9.465,27.878a1.538,1.538,0,0,1-2.872,1.1c-4.61-11.995.046-25.607,10.83-31.664a25.893,25.893,0,0,1,35.9,11.2,25.9,25.9,0,0,1,33.319-12.463c12.4,5.242,18.39,20.056,13.363,33.023-8.921,23.008-32.323,39.681-45.673,47.663A1.537,1.537,0,0,1,572.814,1770.349Z" transform="translate(-524.312 -1687.252)" fill="#1c5a89"/>
    </g>
    <path id="Trazado_67327" data-name="Trazado 67327" d="M658.392,1720.775a1.573,1.573,0,0,1-.239-.018,1.539,1.539,0,0,1-1.284-1.758,17.962,17.962,0,0,0-10.463-19.494,1.538,1.538,0,1,1,1.2-2.833,21.033,21.033,0,0,1,12.3,22.8A1.539,1.539,0,0,1,658.392,1720.775Z" transform="translate(-113.085 -15.766)" fill="#1c5a89"/>
    <path id="Trazado_67328" data-name="Trazado 67328" d="M621.8,1699.078a1.539,1.539,0,0,1-.656-2.931,21.248,21.248,0,0,1,9.113-2.029,21.5,21.5,0,0,1,2.19.111,1.538,1.538,0,1,1-.313,3.061,18.522,18.522,0,0,0-1.877-.1,18.194,18.194,0,0,0-7.8,1.736A1.521,1.521,0,0,1,621.8,1699.078Z" transform="translate(-104.078 -14.896)" fill="#1c5a89"/>
    <path id="Trazado_67329" data-name="Trazado 67329" d="M572.57,1755.906a1.537,1.537,0,0,1-1.473-1.1l-2.915-9.716h-4.262a1.54,1.54,0,0,1-1.469-1.08l-4.071-13.026-4.915,13.107a1.539,1.539,0,0,1-1.44,1h-4.3l-2.893,8.68a1.539,1.539,0,0,1-2.866.139l-3.919-8.818H532.56a1.538,1.538,0,0,1-1.46-1.052l-1.99-5.969-2.714,6.107a1.539,1.539,0,0,1-1.406.914H513.1a1.539,1.539,0,0,1-1.406-.914l-2.919-6.569-2.92,6.569a1.538,1.538,0,0,1-1.406.914h-7.523a1.538,1.538,0,1,1,0-3.077h6.523l3.919-8.819a1.538,1.538,0,0,1,2.812,0l3.92,8.819h9.9l3.919-8.819a1.538,1.538,0,0,1,2.865.138l2.893,8.68h5.38a1.537,1.537,0,0,1,1.406.913l2.714,6.108,1.99-5.969a1.538,1.538,0,0,1,1.46-1.052h4.341l6.113-16.3a1.538,1.538,0,0,1,2.909.082l5.07,16.222h4.276a1.538,1.538,0,0,1,1.473,1.1l1.771,5.9,1.771-5.9a1.538,1.538,0,1,1,2.947.884l-3.244,10.813A1.537,1.537,0,0,1,572.57,1755.906Z" transform="translate(-59.462 -25.828)" fill="#1c5a89"/>
    <path id="Trazado_67330" data-name="Trazado 67330" d="M685.178,1748.7h-5.361a1.538,1.538,0,0,1-1.473-1.1l-1.978-6.594-2.689,6.724a1.539,1.539,0,0,1-1.429.967h-8.324a1.538,1.538,0,1,1,0-3.077h7.283l3.939-9.847a1.553,1.553,0,0,1,1.5-.965,1.537,1.537,0,0,1,1.4,1.095l2.915,9.717h4.216a1.538,1.538,0,0,1,0,3.077Z" transform="translate(-119.129 -29.435)" fill="#1c5a89"/>
    <g id="Grupo_25867" data-name="Grupo 25867" transform="translate(462.368 1652.425)">
      <path id="Trazado_67331" data-name="Trazado 67331" d="M547.262,1673.946a1.533,1.533,0,0,1-1.088-.451l-9.191-9.192a1.538,1.538,0,0,1,2.176-2.176l9.191,9.192a1.538,1.538,0,0,1-1.088,2.626Z" transform="translate(-536.532 -1655.731)" fill="#1c5a89"/>
      <path id="Trazado_67332" data-name="Trazado 67332" d="M568.355,1673.946a1.539,1.539,0,0,1-1.087-2.626l9.191-9.192a1.538,1.538,0,0,1,2.176,2.176l-9.191,9.191A1.532,1.532,0,0,1,568.355,1673.946Z" transform="translate(-547.352 -1655.731)" fill="#1c5a89"/>
      <path id="Trazado_67333" data-name="Trazado 67333" d="M561.408,1668.254a1.539,1.539,0,0,1-1.539-1.539v-12.753a1.538,1.538,0,0,1,3.077,0v12.753A1.539,1.539,0,0,1,561.408,1668.254Z" transform="translate(-544.87 -1652.425)" fill="#1c5a89"/>
    </g>
    <g id="Grupo_25868" data-name="Grupo 25868" transform="translate(507.785 1652.425)">
      <path id="Trazado_67334" data-name="Trazado 67334" d="M617.926,1673.946a1.531,1.531,0,0,1-1.087-.451l-9.191-9.192a1.538,1.538,0,0,1,2.176-2.176l9.191,9.192a1.538,1.538,0,0,1-1.087,2.626Z" transform="translate(-607.197 -1655.731)" fill="#1c5a89"/>
      <path id="Trazado_67335" data-name="Trazado 67335" d="M639.02,1673.946a1.539,1.539,0,0,1-1.087-2.626l9.191-9.192a1.538,1.538,0,0,1,2.176,2.176l-9.192,9.191A1.531,1.531,0,0,1,639.02,1673.946Z" transform="translate(-618.017 -1655.731)" fill="#1c5a89"/>
      <path id="Trazado_67336" data-name="Trazado 67336" d="M630.854,1668.254a1.539,1.539,0,0,1-1.539-1.539v-12.753a1.539,1.539,0,0,1,3.077,0v12.753A1.539,1.539,0,0,1,630.854,1668.254Z" transform="translate(-615.099 -1652.425)" fill="#1c5a89"/>
    </g>
    <g id="Grupo_25869" data-name="Grupo 25869" transform="translate(487.239 1760.56)">
      <path id="Trazado_67337" data-name="Trazado 67337" d="M576.768,1832.942a1.538,1.538,0,0,1-1.088-2.626l9.191-9.192a1.538,1.538,0,0,1,2.176,2.176l-9.191,9.192A1.535,1.535,0,0,1,576.768,1832.942Z" transform="translate(-575.229 -1820.673)" fill="#1c5a89"/>
      <path id="Trazado_67338" data-name="Trazado 67338" d="M616.244,1832.942a1.534,1.534,0,0,1-1.087-.451l-9.192-9.192a1.538,1.538,0,1,1,2.176-2.176l9.191,9.192a1.538,1.538,0,0,1-1.087,2.626Z" transform="translate(-586.049 -1820.673)" fill="#1c5a89"/>
      <path id="Trazado_67339" data-name="Trazado 67339" d="M599.438,1840.216a1.539,1.539,0,0,1-1.539-1.539v-12.752a1.539,1.539,0,0,1,3.077,0v12.752A1.539,1.539,0,0,1,599.438,1840.216Z" transform="translate(-583.329 -1822)" fill="#1c5a89"/>
    </g>
  </g>
</svg>
