<svg xmlns="http://www.w3.org/2000/svg" xmlns:xlink="http://www.w3.org/1999/xlink" width="242.393" height="368.548" viewBox="0 0 242.393 368.548">
  <defs>
    <clipPath id="clip-path">
      <path id="Trazado_66670" data-name="Trazado 66670" d="M418.723,364.518a6.5,6.5,0,0,0,3.493.995c1.093-1.509,1.331-2.724,2.407-4.245a4.174,4.174,0,0,0-6.085-1.78C415.788,362.451,418.723,364.518,418.723,364.518Z" transform="translate(-417.362 -358.772)" fill="none"/>
    </clipPath>
  </defs>
  <g id="Grupo_25506" data-name="Grupo 25506" transform="translate(-847 -562)">
    <g id="Grupo_25376" data-name="Grupo 25376" transform="translate(847 562)">
      <path id="Trazado_66476" data-name="Trazado 66476" d="M293.585,251.268c-.418-4.182,1.546-11.922.693-15.311a98.046,98.046,0,0,1-1.553-9.743H205.506a97.988,97.988,0,0,1-1.553,9.743c-.852,3.389,1.112,11.129.693,15.311s-1.076,13.833,2.991,23.05,4.473,7.184,3.66,14.5,0,10.031,4.338,12.877,25.755,5.829,25.755,5.829h15.453s21.417-2.982,25.755-5.829,5.151-5.558,4.338-12.877-.407-5.287,3.66-14.5S294,255.45,293.585,251.268Z" transform="translate(-148.502 -164.887)" fill="#974837"/>
      <path id="Trazado_66477" data-name="Trazado 66477" d="M252.836,5.663c-49.612,0-44.534,49.209-43.183,65.024l.015.046H296l.015-.046C297.371,54.871,302.448,5.663,252.836,5.663Z" transform="translate(-152.223 -4.128)" fill="#974837"/>
      <path id="Trazado_66478" data-name="Trazado 66478" d="M416.388,325.527l-5.541,4.844-7.471,4.808-8.5,18.951s.892,12.755,1.982,21.167c2.887.149,4.477-1.11,7.539-1.073-.407-4.473,3.7-5.779,5.094-6.486,3.446-1.749,2.967-7.645,4.386-12.407s4.671-5.855,6.184-11.585S416.388,325.527,416.388,325.527Z" transform="translate(-287.826 -237.276)" fill="#7f3c2d"/>
      <path id="Trazado_66479" data-name="Trazado 66479" d="M257.4,325.527l5.541,4.844,7.471,4.808,8.5,18.951s-.892,12.755-1.982,21.167c-2.887.149-4.478-1.11-7.539-1.073.407-4.473-3.7-5.779-5.094-6.486-3.446-1.749-2.967-7.645-4.386-12.407s-4.671-5.855-6.184-11.585S257.4,325.527,257.4,325.527Z" transform="translate(-184.739 -237.276)" fill="#7f3c2d"/>
      <path id="Trazado_66480" data-name="Trazado 66480" d="M208.158,325.026c-1.061,10.374,5.252,16.671,7.79,21.545,1.01,1.938-1.813,7.111-3.222,13.782a27.959,27.959,0,0,1,.172-6.157c.813-7.32.407-5.287-3.66-14.5s-3.409-18.868-2.991-23.05c.015-.151.021-.316.03-.475.04-.086.082-.182.121-.264C206.483,318.686,208.46,322.08,208.158,325.026Z" transform="translate(-150.104 -230.261)" fill="#ac5c45"/>
      <path id="Trazado_66481" data-name="Trazado 66481" d="M506.591,325.026c1.061,10.374-5.252,16.671-7.79,21.545-1.01,1.938,1.813,7.111,3.222,13.782a27.961,27.961,0,0,0-.172-6.157c-.813-7.32-.407-5.287,3.66-14.5s3.409-18.868,2.991-23.05c-.015-.151-.021-.316-.03-.475-.04-.086-.082-.182-.122-.264C508.266,318.686,506.29,322.08,506.591,325.026Z" transform="translate(-363.419 -230.261)" fill="#ac5c45"/>
      <g id="Grupo_25369" data-name="Grupo 25369" transform="translate(56.617 0)">
        <path id="Trazado_66482" data-name="Trazado 66482" d="M234.4,2.423c-5.638,2.31-12.33,9.5-12.33,9.5a38.431,38.431,0,0,0-10.307,14.2c-3.253,7.32-2.914,24.092-2.914,24.092L274.019,5.548C255.48-2.331,241.043-.3,234.4,2.423Z" transform="translate(-208.841 0)" fill="#974837"/>
        <path id="Trazado_66483" data-name="Trazado 66483" d="M464.951,41.027c-7.263-13-16.4-16.7-16.4-16.7l-3.18,22.184L466.42,67.3S472.214,54.031,464.951,41.027Z" transform="translate(-381.25 -17.73)" fill="#974837"/>
      </g>
      <path id="Trazado_66484" data-name="Trazado 66484" d="M513.6,85.934c6.7,11.772,5.637,34.083,6.179,44.181-.009.027-.136,1.965-.136,1.965l-7.523-2.839C518.555,103.25,514.013,87.1,513.6,85.934Z" transform="translate(-373.286 -62.637)" fill="#7f3c2d"/>
      <path id="Trazado_66485" data-name="Trazado 66485" d="M208.054,85.934c-6.7,11.772-5.637,34.083-6.179,44.181.009.027.136,1.965.136,1.965l7.523-2.839C203.1,103.25,207.645,87.1,208.054,85.934Z" transform="translate(-147.146 -62.637)" fill="#7f3c2d"/>
      <path id="Trazado_66486" data-name="Trazado 66486" d="M273.492,457.6c-4.855-3.255-19.1-3.255-23.955,0s-17.326,9.082-28.791,13.284l3.686,31.177H298.6l3.686-31.177C290.818,466.678,278.347,460.85,273.492,457.6Z" transform="translate(-160.901 -331.761)" fill="#edf8fe"/>
      <path id="Trazado_66487" data-name="Trazado 66487" d="M350.487,419.956l.14-21.117H326.349l.14,21.117Z" transform="translate(-237.875 -290.712)" fill="#f9bb97"/>
      <path id="Trazado_66488" data-name="Trazado 66488" d="M176.9,518.849c.813-5.083,11.888-9.421,11.888-9.421l3.674-1.388.012,32.565Z" transform="translate(-128.938 -370.309)" fill="#edf8fe"/>
      <path id="Trazado_66489" data-name="Trazado 66489" d="M523.481,518.849c-.813-5.083-11.888-9.421-11.888-9.421l-3.674-1.388-.012,32.565Z" transform="translate(-370.211 -370.309)" fill="#edf8fe"/>
      <path id="Trazado_66490" data-name="Trazado 66490" d="M335.733,462.49a81.717,81.717,0,0,1-8.982-4.894c-4.855-3.255-19.1-3.255-23.955,0a81.713,81.713,0,0,1-8.982,4.894l5.04,21.977h31.838Z" transform="translate(-214.161 -331.761)" fill="#f9bb97"/>
      <path id="Trazado_66491" data-name="Trazado 66491" d="M527.781,571.788a96.8,96.8,0,0,0-2.754-9.349l0-.008h0C522.77,555.594,520,547.909,520,547.909l-16.871,19.065,1.963,11.993c2.175,6.249,8.7,24.992,10.338,29.736,1.44,4.162,11.944,27.966,13.74,29.53l14.625-10.119S528.91,576.029,527.781,571.788Z" transform="translate(-366.726 -399.369)" fill="#edf8fe"/>
      <path id="Trazado_66492" data-name="Trazado 66492" d="M588.611,587.626c.068-4.033-1.084-8.4,10.37-35.04,8.04-18.7,18.774-58.355,18.774-58.355l12.945,2.643s-11.209,46.98-12.78,55.65-5.112,28.935-12.1,40.657c-2.234,3.75-9.994,8.729-13.077,7.322S588.543,591.659,588.611,587.626Z" transform="translate(-429.032 -360.243)" fill="#fccfb0"/>
      <path id="Trazado_66493" data-name="Trazado 66493" d="M611.115,531.747l16.262,3.973s-7.93,39.446-9.048,45.139-11.691,40.055-15.25,43.105-10.132,4.821-12.233,3.885S586,620.508,586,614s7.421-30.7,7.421-30.7Z" transform="translate(-427.133 -387.589)" fill="#d4eefc"/>
      <path id="Trazado_66494" data-name="Trazado 66494" d="M3,813.844c1.152,3.421,4.574,8.913,17.933,26.129,10.9,14.045,30.642,34.678,30.642,34.678l4.668-14.8S41.53,839.56,37.972,832.654c-3.914-7.595-8.342-18.594-17.793-25.895-3.023-2.336-17.357-5.333-19.332-2.579C.218,805.059,1.849,810.424,3,813.844Z" transform="translate(-0.516 -585.361)" fill="#fccfb0"/>
      <path id="Trazado_66495" data-name="Trazado 66495" d="M37.8,557.733c3.594-5.583,11.837-16.922,11.837-16.922l17.585,24.516-7.191,7.588L24.038,616.541l-6.1,5.287L1.225,613.015S34.2,563.316,37.8,557.733Z" transform="translate(-0.893 -394.195)" fill="#edf8fe"/>
      <path id="Trazado_66496" data-name="Trazado 66496" d="M23.145,806.23s-8.743-4.27-13.42-4.88S1.715,801.006.332,802.7s1.871,14.71,3.9,18.166S38.8,862.958,38.8,862.958l14.436-11.59S30.872,816.6,29.449,814.363,23.145,806.23,23.145,806.23Z" transform="translate(0 -583.884)" fill="#d4eefc"/>
      <path id="Trazado_66497" data-name="Trazado 66497" d="M304.208,586.423l-.013-4.764H230.007l-.013,4.764s-1.593,17.825-1.583,28.175,4.119,50.851,4.119,50.851h69.142s4.109-40.5,4.119-50.851S304.208,586.423,304.208,586.423Z" transform="translate(-166.488 -423.969)" fill="#edf8fe"/>
      <path id="Trazado_66498" data-name="Trazado 66498" d="M280.521,979.593l-.383-22.683s-.548-19.712-1.627-34.159c-1.017-13.623-7.314-40.881-13.013-59.982-3.094-10.37-2.688-24.162-2.688-24.162H190.922s.406,13.792-2.688,24.162c-5.7,19.1-12,46.359-13.013,59.982-1.078,14.447-1.627,34.159-1.627,34.159l-.383,22.683Z" transform="translate(-126.253 -611.258)" fill="#edf8fe"/>
      <path id="Trazado_66499" data-name="Trazado 66499" d="M175.866,885.987c6.554-33.94,23.758-111.334,51-111.334s44.446,77.394,51,111.334h2.655l-.383-22.683s-.548-19.712-1.627-34.159c-1.017-13.623-7.314-40.881-13.013-59.982C262.4,758.792,262.81,745,262.81,745c1.092-11.621,2.473-27.342,2.71-34.815h0c-1.481,6.14-21.981,7.739-38.654,7.739s-37.173-1.6-38.654-7.739h0c.237,7.473,1.618,23.195,2.71,34.815,0,0,.406,13.792-2.688,24.162-5.7,19.1-12,46.359-13.013,59.982-1.078,14.447-1.627,34.159-1.627,34.159l-.383,22.683Z" transform="translate(-126.253 -517.651)" fill="#d4eefc"/>
      <path id="Trazado_66500" data-name="Trazado 66500" d="M332.448,558.291c-9.3,0-14.386-1.576-14.386-1.576l3.609,19.011,10.776,29.432,10.776-29.432,3.609-19.011S341.75,558.291,332.448,558.291Z" transform="translate(-231.834 -405.788)" fill="#e56786"/>
      <path id="Trazado_66501" data-name="Trazado 66501" d="M288.03,464.2c-.521-.392-10.949,5.871-10.949,5.871l-3.457,20.57,7.32.61-6.507,3.253s24.2,43.512,25.619,43.207c-3.2-17.573-6.913-39.141-11.691-49.307S286.987,465.566,288.03,464.2Z" transform="translate(-199.444 -338.34)" fill="#d4eefc"/>
      <path id="Trazado_66502" data-name="Trazado 66502" d="M383.152,464.2c.521-.392,10.949,5.871,10.949,5.871l3.457,20.57-7.32.61,6.506,3.253s-24.2,43.512-25.619,43.207c3.2-17.573,6.913-39.141,11.691-49.307S384.2,465.566,383.152,464.2Z" transform="translate(-270.512 -338.34)" fill="#d4eefc"/>
      <g id="Grupo_25370" data-name="Grupo 25370" transform="translate(73.461 124.357)">
        <path id="Trazado_66503" data-name="Trazado 66503" d="M271.012,521.181c-.249-11.884.587-52.744,3.451-55.239,6.631-5.776,8.664-6.081,11.628-7.236l.01,1.49-.006.012a15.379,15.379,0,0,0-6.95,4.854c-2,2.469-4.067,47.985-3.66,55.17s3.253,29.821,3.8,40.395-.415,26.112-.415,26.112l-5.964-.412s2.095-16.9,1.824-26.793S271.284,534.126,271.012,521.181Z" transform="translate(-270.971 -458.706)" fill="#ffe025"/>
        <rect id="Rectángulo_25634" data-name="Rectángulo 25634" width="5.978" height="3.174" transform="translate(7.677 131.198) rotate(-176.048)" fill="#a6bacf"/>
        <line id="Línea_361" data-name="Línea 361" x1="4.157" y1="0.475" transform="translate(3.566 122.999)" fill="none" stroke="#9b8316" stroke-miterlimit="10" stroke-width="3"/>
        <line id="Línea_362" data-name="Línea 362" x1="4.157" y1="0.475" transform="translate(3.876 114.158)" fill="none" stroke="#9b8316" stroke-miterlimit="10" stroke-width="3"/>
        <line id="Línea_363" data-name="Línea 363" x1="4.157" y1="0.475" transform="translate(4.153 105.317)" fill="none" stroke="#9b8316" stroke-miterlimit="10" stroke-width="3"/>
        <line id="Línea_364" data-name="Línea 364" x1="3.818" y1="0.398" transform="translate(3.611 96.477)" fill="none" stroke="#9b8316" stroke-miterlimit="10" stroke-width="3"/>
        <line id="Línea_365" data-name="Línea 365" x1="3.803" y1="0.396" transform="translate(3.069 87.636)" fill="none" stroke="#9b8316" stroke-miterlimit="10" stroke-width="3"/>
        <line id="Línea_366" data-name="Línea 366" x1="3.924" y1="0.409" transform="translate(2.12 78.796)" fill="none" stroke="#9b8316" stroke-miterlimit="10" stroke-width="3"/>
        <line id="Línea_367" data-name="Línea 367" x1="3.818" y1="0.348" transform="translate(1.171 69.955)" fill="none" stroke="#9b8316" stroke-miterlimit="10" stroke-width="3"/>
        <line id="Línea_368" data-name="Línea 368" x1="3.321" y1="0.346" transform="translate(0.889 61.115)" fill="none" stroke="#9b8316" stroke-miterlimit="10" stroke-width="3"/>
        <line id="Línea_369" data-name="Línea 369" x1="3.759" y1="0.392" transform="translate(0.211 52.274)" fill="none" stroke="#9b8316" stroke-miterlimit="10" stroke-width="3"/>
        <line id="Línea_370" data-name="Línea 370" x1="4.162" y1="0.434" transform="translate(0.478 43.475)" fill="none" stroke="#9b8316" stroke-miterlimit="10" stroke-width="3"/>
        <line id="Línea_371" data-name="Línea 371" x1="4.226" y1="0.44" transform="translate(0.627 34.593)" fill="none" stroke="#9b8316" stroke-miterlimit="10" stroke-width="3"/>
        <line id="Línea_372" data-name="Línea 372" x1="4.564" y1="0.475" transform="translate(1.022 25.752)" fill="none" stroke="#9b8316" stroke-miterlimit="10" stroke-width="3"/>
        <line id="Línea_373" data-name="Línea 373" x1="4.564" y1="0.475" transform="translate(1.824 16.912)" fill="none" stroke="#9b8316" stroke-miterlimit="10" stroke-width="3"/>
      </g>
      <g id="Grupo_25371" data-name="Grupo 25371" transform="translate(112.635 124.357)">
        <path id="Trazado_66504" data-name="Trazado 66504" d="M430.558,521.181c.249-11.884-.587-52.744-3.451-55.239-6.631-5.776-8.664-6.081-11.628-7.236l-.01,1.49.006.012a15.378,15.378,0,0,1,6.95,4.854c2,2.469,4.067,47.985,3.66,55.17s-3.253,29.821-3.8,40.395.415,26.112.415,26.112l5.964-.412s-2.095-16.9-1.824-26.793S430.286,534.126,430.558,521.181Z" transform="translate(-415.469 -458.706)" fill="#ffe025"/>
        <rect id="Rectángulo_25635" data-name="Rectángulo 25635" width="5.978" height="3.174" transform="translate(7.235 128.032) rotate(-3.952)" fill="#a6bacf"/>
        <line id="Línea_374" data-name="Línea 374" y1="0.475" x2="4.157" transform="translate(7.407 122.999)" fill="none" stroke="#9b8316" stroke-miterlimit="10" stroke-width="3"/>
        <line id="Línea_375" data-name="Línea 375" y1="0.475" x2="4.157" transform="translate(7.098 114.158)" fill="none" stroke="#9b8316" stroke-miterlimit="10" stroke-width="3"/>
        <line id="Línea_376" data-name="Línea 376" y1="0.475" x2="4.157" transform="translate(6.82 105.317)" fill="none" stroke="#9b8316" stroke-miterlimit="10" stroke-width="3"/>
        <line id="Línea_377" data-name="Línea 377" y1="0.398" x2="3.818" transform="translate(7.701 96.477)" fill="none" stroke="#9b8316" stroke-miterlimit="10" stroke-width="3"/>
        <line id="Línea_378" data-name="Línea 378" y1="0.396" x2="3.803" transform="translate(8.258 87.636)" fill="none" stroke="#9b8316" stroke-miterlimit="10" stroke-width="3"/>
        <line id="Línea_379" data-name="Línea 379" y1="0.409" x2="3.924" transform="translate(9.086 78.796)" fill="none" stroke="#9b8316" stroke-miterlimit="10" stroke-width="3"/>
        <line id="Línea_380" data-name="Línea 380" y1="0.348" x2="3.818" transform="translate(10.141 69.955)" fill="none" stroke="#9b8316" stroke-miterlimit="10" stroke-width="3"/>
        <line id="Línea_381" data-name="Línea 381" y1="0.346" x2="3.32" transform="translate(10.921 61.115)" fill="none" stroke="#9b8316" stroke-miterlimit="10" stroke-width="3"/>
        <line id="Línea_382" data-name="Línea 382" y1="0.392" x2="3.759" transform="translate(11.159 52.274)" fill="none" stroke="#9b8316" stroke-miterlimit="10" stroke-width="3"/>
        <line id="Línea_383" data-name="Línea 383" y1="0.434" x2="4.162" transform="translate(10.491 43.475)" fill="none" stroke="#9b8316" stroke-miterlimit="10" stroke-width="3"/>
        <line id="Línea_384" data-name="Línea 384" y1="0.44" x2="4.226" transform="translate(10.277 34.593)" fill="none" stroke="#9b8316" stroke-miterlimit="10" stroke-width="3"/>
        <line id="Línea_385" data-name="Línea 385" y1="0.475" x2="4.564" transform="translate(9.544 25.752)" fill="none" stroke="#9b8316" stroke-miterlimit="10" stroke-width="3"/>
        <line id="Línea_386" data-name="Línea 386" y1="0.475" x2="4.564" transform="translate(8.743 16.912)" fill="none" stroke="#9b8316" stroke-miterlimit="10" stroke-width="3"/>
      </g>
      <path id="Trazado_66505" data-name="Trazado 66505" d="M205.729,238.788s-2.921-1.6-5.083.39c-2.44,2.249-1.118,12.517,3.362,18.254,3.307,4.236,5.178,3.274,5.178,3.274Z" transform="translate(-145.369 -173.607)" fill="#f9bb97"/>
      <path id="Trazado_66506" data-name="Trazado 66506" d="M510.312,238.788s2.921-1.6,5.083.39c2.44,2.249,1.118,12.517-3.362,18.254-3.307,4.236-5.178,3.274-5.178,3.274Z" transform="translate(-369.445 -173.607)" fill="#f9bb97"/>
      <path id="Trazado_66507" data-name="Trazado 66507" d="M298.173,115.146l-.015.046s-4.665-35.385-14.425-41.485-21.016-7.048-28.742-7.048-18.983.949-28.742,7.048-14.425,41.485-14.425,41.485l-.015-.046c0-.046-.008-.1-.012-.143.067.786.13,1.494.183,2.115.951,11.128,3.165,21.978,7.477,28.495,7.49,11.321,23.556,21.836,35.535,21.836s28.045-10.515,35.535-21.836c4.311-6.517,6.526-17.367,7.477-28.495.053-.62.116-1.327.183-2.113C298.181,115.052,298.176,115.1,298.173,115.146Z" transform="translate(-154.377 -48.588)" fill="#fccfb0"/>
      <g id="Grupo_25372" data-name="Grupo 25372" transform="translate(57.431 18.072)">
        <path id="Trazado_66508" data-name="Trazado 66508" d="M217.928,145.3v0c-4.088,12.162-6.074,27.214-6.074,27.214l-.015-.046c.062.728.121,1.39.171,1.972.951,11.128,3.165,21.978,7.477,28.495a49.484,49.484,0,0,0,9.375,10.27C217.035,193.875,213.52,171.755,217.928,145.3Z" transform="translate(-211.84 -123.979)" fill="#f9bb97"/>
        <path id="Trazado_66509" data-name="Trazado 66509" d="M313.463,80.681c-1.586-3.195-3.386-5.712-5.405-6.973-9.76-6.1-21.016-7.048-28.742-7.048s-18.983.949-28.742,7.048c-2.019,1.262-3.818,3.778-5.4,6.973,7.355-10.726,25.441-13.346,34.147-13.865C288.022,67.335,306.108,69.954,313.463,80.681Z" transform="translate(-236.133 -66.659)" fill="#f9bb97"/>
        <path id="Trazado_66510" data-name="Trazado 66510" d="M484.626,172.513s-1.985-15.051-6.074-27.214v0c4.409,26.454.894,48.573-10.934,67.9a49.477,49.477,0,0,0,9.375-10.27c4.312-6.517,6.526-17.367,7.477-28.495.05-.582.108-1.244.17-1.972Z" transform="translate(-398.276 -123.979)" fill="#f9bb97"/>
      </g>
      <path id="Trazado_66511" data-name="Trazado 66511" d="M351.037,110.44c-1.659-9.86-6.157-32.022-13.692-36.732-9.76-6.1-21.016-7.049-28.742-7.049-6.31,0-14.974.636-23.254,4.19.419-.139,11.711-3.042,25.084,11.8,13.555,15.046,24.6,25.077,30.025,26.839C343.7,110.546,348.057,110.581,351.037,110.44Z" transform="translate(-207.989 -48.588)" fill="#f9bb97"/>
      <g id="Grupo_25373" data-name="Grupo 25373" transform="translate(75.23 51.406)">
        <path id="Trazado_66512" data-name="Trazado 66512" d="M277.5,193.332s5.572-6.483,11.312-2.322" transform="translate(-277.496 -189.617)" fill="none" stroke="#974837" stroke-linecap="round" stroke-linejoin="round" stroke-width="3"/>
        <path id="Trazado_66513" data-name="Trazado 66513" d="M434.34,193.332s-5.572-6.483-11.312-2.322" transform="translate(-383.574 -189.617)" fill="none" stroke="#974837" stroke-linecap="round" stroke-linejoin="round" stroke-width="3"/>
      </g>
      <path id="Trazado_66514" data-name="Trazado 66514" d="M353.619,361.3c-2.722,2.559-6.026,3.414-10.367,3.414s-7.645-.855-10.367-3.414" transform="translate(-242.639 -263.347)" fill="none" stroke="#ea6d51" stroke-linecap="round" stroke-linejoin="round" stroke-width="3"/>
      <g id="Grupo_25374" data-name="Grupo 25374" transform="translate(79.257 62.616)">
        <ellipse id="Elipse_1772" data-name="Elipse 1772" cx="3.395" cy="5.915" rx="3.395" ry="5.915" fill="#463129"/>
        <ellipse id="Elipse_1773" data-name="Elipse 1773" cx="3.395" cy="5.915" rx="3.395" ry="5.915" transform="translate(35.921)" fill="#463129"/>
      </g>
      <path id="Trazado_66515" data-name="Trazado 66515" d="M370.128,275.26c.2,5.133.056,9.206-1.012,11.221" transform="translate(-269.047 -200.636)" fill="none" stroke="#ef8661" stroke-linecap="round" stroke-linejoin="round" stroke-width="3"/>
      <path id="Trazado_66516" data-name="Trazado 66516" d="M716.163,438l-1.266-2.016s8.017-4.715,8.939-6.741.264-4.374-.947-4.215-9.625,4.825-13.457,6.778-13.479,5.173-14.589,13.558c0,0-.213,4.507,2.313,6.532S716.163,438,716.163,438Z" transform="translate(-506.465 -309.794)" fill="#f9bb97"/>
      <path id="Trazado_66517" data-name="Trazado 66517" d="M777.087,431.806s8.1-3.551,10.077-4.933,8.549-6.421,9.63-5.3a8.059,8.059,0,0,1,1.589,3.038s-12,11.738-12.228,11.829-10.3,4.224-10.573,4.2-7.075-1.837-7.075-1.837l-.709-4.565Z" transform="translate(-559.646 -307.163)" fill="#f9bb97"/>
      <path id="Trazado_66518" data-name="Trazado 66518" d="M721.1,431l6.157.067,8.773-4.135,5.2-6.126s2.442-4.057,3.341-5.064,3.965-1.9,4.557-.836-1.059,6.27-3.473,9.991-14.833,15.8-21.949,17.981-24.643,4.429-24.643,4.429-4.477-5.75-3.569-7.992,2.628-4.2,6.568-5.459C706.587,432.4,717.643,430.96,721.1,431Z" transform="translate(-506.847 -302.072)" fill="#fccfb0"/>
      <path id="Trazado_66519" data-name="Trazado 66519" d="M721.1,431l6.157.067,8.773-4.135,5.2-6.126s2.442-4.057,3.341-5.064,3.965-1.9,4.557-.836-1.059,6.27-3.473,9.991-14.833,15.8-21.949,17.981-24.643,4.429-24.643,4.429-4.477-5.75-3.569-7.992,2.628-4.2,6.568-5.459c4.534-1.451,15.591-2.894,19.043-2.856Z" transform="translate(-506.847 -302.072)" fill="#fccfb0"/>
      <path id="Trazado_66520" data-name="Trazado 66520" d="M168.323,1094.359s-1.059,8.264-.956,10.521.756,9.974-.5,10.332a5.837,5.837,0,0,1-2.825-.129s-2.971-15.275-2.934-15.505,1.549-10.368,1.686-10.582,4.384-4.9,4.384-4.9l3.509,1.562Z" transform="translate(-117.432 -790.192)" fill="#f9bb97"/>
      <path id="Trazado_66521" data-name="Trazado 66521" d="M153.388,1007.814c-.723,1.847-6.1,15.335-7.686,22.153s1.438,22.6,2.988,26.307,4.474,7.5,5.479,7.511,1.722-2.9,1.41-4.1-2.085-5.095-2.085-5.095l-2.017-7.1.944-9.085,2.743-4.985,1.894.513s-2.249,8.459-1.681,10.426,2.276,3.1,2.925,2.2,3.166-9.6,4.409-13.44,1.594-13.167,1.7-14.594-1.85-7.584-2.5-9.633S154.111,1005.967,153.388,1007.814Z" transform="translate(-105.875 -733.853)" fill="#fccfb0"/>
      <g id="Grupo_25375" data-name="Grupo 25375" transform="translate(185.875 73.561)">
        <path id="Trazado_66522" data-name="Trazado 66522" d="M722.518,296.765a96.322,96.322,0,0,0-9.806-.041,96.335,96.335,0,0,0-9.806.041c-13.812.949-17.9,11.047-17.205,25.077s8.392,22.569,14.686,23.993c5.955,1.347,7.845-.755,12.326-1.084,4.48.329,6.37,2.431,12.325,1.084,6.294-1.423,13.987-9.963,14.686-23.993S736.329,297.714,722.518,296.765Z" transform="translate(-685.625 -289.768)" fill="#b5ce5a"/>
        <path id="Trazado_66523" data-name="Trazado 66523" d="M725.037,351.408c6.294-1.423,13.987-9.963,14.686-23.993.544-10.915-1.815-19.449-9.393-23.148,5.831,5.223,9.05,20.1,4.763,30.061-5.385,12.514-14.795,12.565-22.382,13.009-7.587-.444-17-.5-22.382-13.009-4.286-9.96-1.066-24.839,4.765-30.061-7.579,3.7-9.938,12.232-9.394,23.148.7,14.03,8.391,22.569,14.686,23.993,5.955,1.347,7.845-.755,12.326-1.084C717.192,350.653,719.082,352.755,725.037,351.408Z" transform="translate(-685.626 -295.341)" fill="#7ab43e"/>
        <path id="Trazado_66524" data-name="Trazado 66524" d="M784.125,286.308c0-.261,1.141-8.8,2.271-11.229s.945-3.544,1.64-3.718,3.911.782,4.084,1.651-1.477,1.043-3.042,3.476-3.389,10.254-3.389,10.254Z" transform="translate(-757.422 -271.341)" fill="#a15d33"/>
        <path id="Trazado_66525" data-name="Trazado 66525" d="M761.142,329.277c-.881-1.322-3.176-1.356-4.473.69-.983,1.55-5.863,3.14-9.353,3.14h-.407c-3.491,0-8.37-1.59-9.353-3.14-1.3-2.045-3.592-2.011-4.473-.69-1.305,1.958,2.1,12.03,14.03,12.03S762.447,331.235,761.142,329.277Z" transform="translate(-720.026 -312.893)" fill="#d8df7c"/>
        <path id="Trazado_66526" data-name="Trazado 66526" d="M759.843,318.407c-7.049,0-9.556-2.711-9.556-2.711,2.914,4.677,9.556,4.541,9.556,4.541s6.642.136,9.557-4.541C769.4,315.7,766.892,318.407,759.843,318.407Z" transform="translate(-732.757 -303.671)" fill="#7ab43e"/>
      </g>
      <path id="Trazado_66527" data-name="Trazado 66527" d="M293.125,52.264s11.386-4.677,20.536,3.457,36.192,39.649,43.512,37.006A190.121,190.121,0,0,0,352.8,71.58c-3.05-11.386-4.168-26.839-22.264-28.059S293.735,39.048,293.125,52.264Z" transform="translate(-213.658 -30.806)" fill="#974837"/>
      <path id="Trazado_66528" data-name="Trazado 66528" d="M234.267,64.939s-4.609,15.182-9.827,21.824-9.489,9.9-10.776,14.5-1.288,4.27-1.288,4.27,2.067-13.962,4.507-25.145a40.856,40.856,0,0,1,9.861-18.706c.2-.136,8.133-2.033,8.133-2.033Z" transform="translate(-154.799 -43.48)" fill="#974837"/>
      <path id="Trazado_66529" data-name="Trazado 66529" d="M516.4,199.185a5.037,5.037,0,0,0,3.517.466s-.594-4.381-1.9-10.694C517.674,192.1,517.15,195.513,516.4,199.185Z" transform="translate(-376.404 -137.73)" fill="#7f3c2d"/>
      <path id="Trazado_66530" data-name="Trazado 66530" d="M214.306,185.275c-1.158,6.609-1.931,11.827-1.931,11.827s0,.339,1.288-4.27a12.012,12.012,0,0,1,1.229-2.826C214.653,188.372,214.461,186.8,214.306,185.275Z" transform="translate(-154.799 -135.046)" fill="#7f3c2d"/>
      <path id="Trazado_66531" data-name="Trazado 66531" d="M294.492,66.235c2.012-.708,11.98-3.682,20.165,3.594,3.233,2.873,8.7,8.666,14.74,14.839a160.6,160.6,0,0,0-10.2-14.907c-7.32-9.082-13.42-8.54-18.435-7.726A9.437,9.437,0,0,0,294.492,66.235Z" transform="translate(-214.654 -44.914)" fill="#7f3c2d"/>
      <path id="Trazado_66532" data-name="Trazado 66532" d="M366.5,42.45s13.243,7.323,17.432,15.323,15.135,15.773,15.135,15.773S388.793,64.082,386.9,57.66,374.739,45.041,366.5,42.45Z" transform="translate(-267.138 -30.942)" fill="#ac5c45"/>
    </g>
    <g id="Grupo_25505" data-name="Grupo 25505" transform="translate(923.422 789.523)">
      <g id="Grupo_25503" data-name="Grupo 25503" transform="translate(0 0)">
        <g id="Grupo_25378" data-name="Grupo 25378" transform="translate(147.019 72.543)">
          <g id="Grupo_25377" data-name="Grupo 25377">
            <path id="Trazado_66533" data-name="Trazado 66533" d="M614.471,396.669s1.286-12.213-10.525-14.061c0,0-4.745,2.143,1.088,6.912Z" transform="translate(-602.127 -382.608)" fill="#f1be97"/>
          </g>
        </g>
        <g id="Grupo_25383" data-name="Grupo 25383" transform="translate(115.102 75.653)">
          <g id="Grupo_25380" data-name="Grupo 25380">
            <g id="Grupo_25379" data-name="Grupo 25379">
              <path id="Trazado_66534" data-name="Trazado 66534" d="M557.12,431.747c-.792.326-7.879,4.595-19.132.246-7.241-3.352-13.111-8.661-13.929-9.873l14.621-9.072c12.52,8.66,15.805-6.345,15.805-6.345l-.344.573a8,8,0,0,1-3.367-5.493c-.536-4.261.93-6.007.93-6.007a6.34,6.34,0,0,1,4.312-5.065c7.8-1.807,10.06,1.762,10.972,3.868,3.462,7.993,2.386,16.993-.621,24.738A27.6,27.6,0,0,1,557.12,431.747Z" transform="translate(-524.059 -390.215)" fill="#fcddbf"/>
            </g>
          </g>
          <g id="Grupo_25382" data-name="Grupo 25382" transform="translate(28.775 13.61)">
            <g id="Grupo_25381" data-name="Grupo 25381">
              <path id="Trazado_66535" data-name="Trazado 66535" d="M595.751,426.955l.63-3.45s-3.9.446-.63,3.45" transform="translate(-594.444 -423.505)" fill="#f1be97"/>
            </g>
          </g>
        </g>
        <g id="Grupo_25386" data-name="Grupo 25386" transform="translate(116.039 107.454)">
          <g id="Grupo_25385" data-name="Grupo 25385">
            <g id="Grupo_25384" data-name="Grupo 25384">
              <path id="Trazado_66536" data-name="Trazado 66536" d="M530.5,475.51c-5.3-2.245-3.137-2.726-4.145-4.22l2.11-3.289c1.458,2.446,6.791,5.568,10.652,7.7,0,0,7.6,4.451,15.66,3.59C552.709,479.854,542.558,482.055,530.5,475.51Z" transform="translate(-526.351 -468.001)" fill="#f1be97"/>
            </g>
          </g>
        </g>
        <g id="Grupo_25399" data-name="Grupo 25399" transform="translate(135.199 49.724)">
          <g id="Grupo_25396" data-name="Grupo 25396">
            <g id="Grupo_25388" data-name="Grupo 25388" transform="translate(5.1 2.706)">
              <g id="Grupo_25387" data-name="Grupo 25387">
                <path id="Trazado_66537" data-name="Trazado 66537" d="M588.1,385.634l8.791-32.983c3.057-1.336,6.03-5.094,6.964-7.774.4-1.147,1.862-6.732,2.684-10.808-.323-.1-.646-.2-.969-.294q-.637-.185-1.276-.363c-1.152,4.063-3.016,9.829-3.606,10.632a15.419,15.419,0,0,1-6.786,4.968l-8.205,38.649A2.852,2.852,0,0,0,588.1,385.634Z" transform="translate(-585.692 -333.412)" fill="#8f999d"/>
              </g>
            </g>
            <g id="Grupo_25395" data-name="Grupo 25395">
              <g id="Grupo_25390" data-name="Grupo 25390">
                <g id="Grupo_25389" data-name="Grupo 25389">
                  <path id="Trazado_66538" data-name="Trazado 66538" d="M582.9,344.507l2.435,3.591-12.12,31.662c.25,3.281,3.167,3.428,5.1,3.987l9.955-35.391c2.659-5.979.615-5.681.615-5.681l-2.849-.616a3.812,3.812,0,0,1-.344-4.52l3.345-10.092q-1.2-.32-2.394-.655c-1.237,3.028-3.461,7.733-4.123,9.408C580.841,340.456,580.73,340.522,582.9,344.507Z" transform="translate(-573.217 -326.792)" fill="#c6c5c5"/>
                </g>
              </g>
              <g id="Grupo_25392" data-name="Grupo 25392" transform="translate(13.335 1.587)">
                <g id="Grupo_25391" data-name="Grupo 25391">
                  <path id="Trazado_66539" data-name="Trazado 66539" d="M611.177,330.675l-2.867,7.7-2.474,6.794,1.208,6.46,6.179-20.418Z" transform="translate(-605.836 -330.675)" fill="#c6c5c5"/>
                </g>
              </g>
              <g id="Grupo_25394" data-name="Grupo 25394" transform="translate(11.838 2.419)">
                <g id="Grupo_25393" data-name="Grupo 25393">
                  <path id="Trazado_66540" data-name="Trazado 66540" d="M612.875,332.708c-1.042,3.9-2.734,9.537-3.169,10.367-1.292,2.462-2.707,4.367-4.078,4.755l-3.455,5.683c.02,0,6.809-3.066,9.063-6.807a16.107,16.107,0,0,0,1.36-3.113c.3-.9,1.774-6.315,2.653-10.234Q614.064,333.025,612.875,332.708Z" transform="translate(-602.173 -332.708)" fill="#c6c5c5"/>
                </g>
              </g>
            </g>
          </g>
          <g id="Grupo_25397" data-name="Grupo 25397" transform="translate(11.683 0.512)">
            <path id="Trazado_66541" data-name="Trazado 66541" d="M603.508,337.921c.3-.846,2.054-6.161,3.123-9.549q-.616-.163-1.231-.328c-1.145,3.605-2.9,9.652-3.161,10.282-1.48,3.635,1.207,5.284,1.207,5.284l.493-.97S602.352,341.227,603.508,337.921Z" transform="translate(-601.795 -328.044)" fill="#8f999d"/>
          </g>
          <g id="Grupo_25398" data-name="Grupo 25398" transform="translate(15.818 1.741)">
            <path id="Trazado_66542" data-name="Trazado 66542" d="M612.967,345.984c.449-1.119,3.052-10.862,4.1-14.67l-1.012-.264c-1.168,3.782-2.565,9.314-2.8,10.056-1.338,4.215-1.013,5.662-1.349,5.2l1.058-.319Z" transform="translate(-611.909 -331.05)" fill="#8f999d"/>
          </g>
        </g>
        <g id="Grupo_25400" data-name="Grupo 25400" transform="translate(139.581 75.492)">
          <path id="Trazado_66543" data-name="Trazado 66543" d="M596.9,390.148c-3.874-.689-9.234-.294-10.755,1.215-2.3,2.28-1.012,4.718.124,4.8a2.833,2.833,0,0,0-2.327,2.793c-.087,1.02.539,2.7,1.961,2.953-.851,1.171-2.475,4.05,1.207,5.551,2.88,1.174,7.158,1.044,10.233.584" transform="translate(-583.935 -389.821)" fill="#fcddbf"/>
        </g>
        <g id="Grupo_25401" data-name="Grupo 25401" transform="translate(140.519 79.917)">
          <path id="Trazado_66544" data-name="Trazado 66544" d="M587.626,402.567a46.262,46.262,0,0,1,9.607-.248l-2.369-1.424-8.632-.25A1.97,1.97,0,0,0,587.626,402.567Z" transform="translate(-586.229 -400.646)" fill="#f1be97"/>
        </g>
        <g id="Grupo_25402" data-name="Grupo 25402" transform="translate(139.963 86.214)">
          <path id="Trazado_66545" data-name="Trazado 66545" d="M586.455,417.418s8.434.062,9.833.468l-1.851-1.837s-7.235.286-9.55.048C584.888,416.1,584.572,416.439,586.455,417.418Z" transform="translate(-584.868 -416.049)" fill="#f1be97"/>
        </g>
        <g id="Grupo_25403" data-name="Grupo 25403" transform="translate(140.506 91.182)">
          <path id="Trazado_66546" data-name="Trazado 66546" d="M586.2,428.2s.614,3.862,10.4,3.015l-.994-1.805S590.164,430.217,586.2,428.2Z" transform="translate(-586.198 -428.2)" fill="#f1be97"/>
        </g>
        <g id="Grupo_25405" data-name="Grupo 25405" transform="translate(2.195 70.498)">
          <g id="Grupo_25404" data-name="Grupo 25404">
            <path id="Trazado_66547" data-name="Trazado 66547" d="M247.888,391s-.543-12.268,11.358-13.4c0,0,4.606,2.428-1.505,6.833Z" transform="translate(-247.884 -377.607)" fill="#f1be97"/>
          </g>
        </g>
        <g id="Grupo_25410" data-name="Grupo 25410" transform="translate(0 73.119)">
          <g id="Grupo_25407" data-name="Grupo 25407">
            <g id="Grupo_25406" data-name="Grupo 25406">
              <path id="Trazado_66548" data-name="Trazado 66548" d="M251.1,425.644c.739.433,7.1,5.989,18.848,3.236,7.635-2.32,14.248-7.116,15.225-8.2l-9.271-14.047c-18.261,13.485-18.734-5.425-18.734-5.425l.262.615a8,8,0,0,0,4.094-4.975c1.12-4.146-.092-6.078-.092-6.078a6.339,6.339,0,0,0-3.571-5.612c-7.471-2.866-10.207.356-11.4,2.315-4.533,7.439-4.71,16.5-2.8,24.587A27.588,27.588,0,0,0,251.1,425.644Z" transform="translate(-242.515 -384.016)" fill="#fcddbf"/>
            </g>
          </g>
          <g id="Grupo_25409" data-name="Grupo 25409" transform="translate(14.773 14.299)">
            <g id="Grupo_25408" data-name="Grupo 25408">
              <path id="Trazado_66549" data-name="Trazado 66549" d="M278.8,422.5l-.147-3.5s3.8.981.147,3.5" transform="translate(-278.65 -418.991)" fill="#f1be97"/>
            </g>
          </g>
        </g>
        <g id="Grupo_25413" data-name="Grupo 25413" transform="translate(12.04 109.256)">
          <g id="Grupo_25412" data-name="Grupo 25412">
            <g id="Grupo_25411" data-name="Grupo 25411">
              <path id="Trazado_66550" data-name="Trazado 66550" d="M289.729,481.152c5.555-1.492,10.286-3.854,11.492-5.194l-1.635-3.549c-1.782,2.22-7.976,5.21-12.095,6.787a30.063,30.063,0,0,1-15.525.759C273.932,480.8,280.113,483.888,289.729,481.152Z" transform="translate(-271.966 -472.409)" fill="#f1be97"/>
            </g>
          </g>
        </g>
        <g id="Grupo_25426" data-name="Grupo 25426" transform="translate(4.067 47.047)">
          <g id="Grupo_25424" data-name="Grupo 25424">
            <g id="Grupo_25423" data-name="Grupo 25423">
              <g id="Grupo_25415" data-name="Grupo 25415" transform="translate(4.832)">
                <g id="Grupo_25414" data-name="Grupo 25414">
                  <path id="Trazado_66551" data-name="Trazado 66551" d="M279.082,374.425l-7.49-31.82c4.341-5.457,4.029-8.043,3.582-10.871-.186-1.172-3.625-13.341-10.891-11.249.913,4.161,6.3,9.978,6.158,10.973a15.549,15.549,0,0,1-3.663,7.651l11.134,38.264A2.875,2.875,0,0,0,279.082,374.425Z" transform="translate(-264.282 -320.244)" fill="#8f999d"/>
                </g>
              </g>
              <g id="Grupo_25422" data-name="Grupo 25422" transform="translate(0 0.075)">
                <g id="Grupo_25417" data-name="Grupo 25417" transform="translate(0 0.167)">
                  <g id="Grupo_25416" data-name="Grupo 25416">
                    <path id="Trazado_66552" data-name="Trazado 66552" d="M260.167,342.689h0l4.323,33.921c1.786,2.8,4.449,1.537,6.434,1.112l-8.025-36.2c-.487-6.582-2.162-5.343-2.162-5.343l.688-2.4c-2.815-1.3-2.029-2.365-2.029-2.365l-2.1-10.577c-.812.192-5.768,2.746-4.676,11.4C253.072,336.831,255.233,342.691,260.167,342.689Z" transform="translate(-252.462 -320.834)" fill="#c6c5c5"/>
                  </g>
                </g>
                <g id="Grupo_25419" data-name="Grupo 25419" transform="translate(4.131 0.867)">
                  <g id="Grupo_25418" data-name="Grupo 25418">
                    <path id="Trazado_66553" data-name="Trazado 66553" d="M262.567,323.05l1.121,8.207,1.04,7.218,4.153,5.166-4.242-21.093Z" transform="translate(-262.567 -322.548)" fill="#c6c5c5"/>
                  </g>
                </g>
                <g id="Grupo_25421" data-name="Grupo 25421" transform="translate(4.596)">
                  <g id="Grupo_25420" data-name="Grupo 25420">
                    <path id="Trazado_66554" data-name="Trazado 66554" d="M263.941,320.593l-.236,10.295,3.771,13.4s5.9-3.56,5.927-9.455C272.669,322.926,264.974,319.595,263.941,320.593Z" transform="translate(-263.705 -320.426)" fill="#c6c5c5"/>
                  </g>
                </g>
              </g>
            </g>
          </g>
          <g id="Grupo_25425" data-name="Grupo 25425" transform="translate(1.879 3.916)">
            <path id="Trazado_66555" data-name="Trazado 66555" d="M262.876,345.471s-4.165.691-5.323-6.391c-.866-5.3-.8-8.135,1.884-9.257,0,0-1.85,3.588-.079,9.28C259.359,339.1,260.375,345.157,262.876,345.471Z" transform="translate(-257.058 -329.823)" fill="#e3e5e4"/>
          </g>
        </g>
        <g id="Grupo_25427" data-name="Grupo 25427" transform="translate(7.174 73.206)">
          <path id="Trazado_66556" data-name="Trazado 66556" d="M262.715,384.256c3.93-.205,9.2.85,10.522,2.535,2,2.547.422,4.807-.716,4.752a2.833,2.833,0,0,1,1.964,3.059c-.04,1.023-.87,2.616-2.311,2.688.7,1.267,1.955,4.325-1.884,5.36-3,.809-7.232.151-10.227-.685" transform="translate(-260.063 -384.231)" fill="#fcddbf"/>
        </g>
        <g id="Grupo_25428" data-name="Grupo 25428" transform="translate(10.178 77.948)">
          <path id="Trazado_66557" data-name="Trazado 66557" d="M276.893,398.483a46.256,46.256,0,0,0-9.481-1.573l2.543-1.083,8.584.945A1.97,1.97,0,0,1,276.893,398.483Z" transform="translate(-267.411 -395.828)" fill="#f1be97"/>
        </g>
        <g id="Grupo_25429" data-name="Grupo 25429" transform="translate(9.424 83.885)">
          <path id="Trazado_66558" data-name="Trazado 66558" d="M275.371,412.81s-8.362-1.1-9.8-.895l2.087-1.564s7.126,1.282,9.451,1.366C277.106,411.717,277.371,412.1,275.371,412.81Z" transform="translate(-265.567 -410.351)" fill="#f1be97"/>
        </g>
        <g id="Grupo_25430" data-name="Grupo 25430" transform="translate(9.053 89.951)">
          <path id="Trazado_66559" data-name="Trazado 66559" d="M275.371,425.29s-1.141,3.74-10.712,1.55l1.233-1.65S271.164,426.739,275.371,425.29Z" transform="translate(-264.659 -425.189)" fill="#f1be97"/>
        </g>
        <g id="Grupo_25434" data-name="Grupo 25434" transform="translate(89.978 76.464)">
          <g id="Grupo_25433" data-name="Grupo 25433">
            <g id="Grupo_25432" data-name="Grupo 25432">
              <g id="Grupo_25431" data-name="Grupo 25431">
                <path id="Trazado_66560" data-name="Trazado 66560" d="M492.3,434.86s-19.318-10.343-29.7-13.4c0,0,10.2-23.593,11.173-29.266l-2.451,9.791s8.106-1.648,32.651,11.062C503.978,413.05,492.911,434,492.3,434.86Z" transform="translate(-462.605 -392.198)" fill="#e74524"/>
              </g>
            </g>
          </g>
        </g>
        <g id="Grupo_25438" data-name="Grupo 25438" transform="translate(92.788 93.911)">
          <g id="Grupo_25437" data-name="Grupo 25437">
            <g id="Grupo_25436" data-name="Grupo 25436">
              <g id="Grupo_25435" data-name="Grupo 25435">
                <path id="Trazado_66561" data-name="Trazado 66561" d="M471.608,445.566c4.984-1.7,5.879-9.046,11.086-10.2h0c1.439-3.341,4.411,11.491,4.411,11.49l13.083,6.389c-.088-.605-4.238,7.889-4.238,7.889-5.643-2.278-20.725-9.5-26.473-12.754,0,0,.428-.993,1.111-2.6A4.4,4.4,0,0,0,471.608,445.566Z" transform="translate(-469.477 -434.875)" fill="#b13625"/>
              </g>
            </g>
          </g>
        </g>
        <g id="Grupo_25442" data-name="Grupo 25442" transform="translate(27.018 76.464)">
          <g id="Grupo_25441" data-name="Grupo 25441">
            <g id="Grupo_25440" data-name="Grupo 25440">
              <g id="Grupo_25439" data-name="Grupo 25439">
                <path id="Trazado_66562" data-name="Trazado 66562" d="M320.28,434.86s19.318-10.343,29.7-13.4c0,0-10.2-23.593-11.172-29.266l2.451,8.973s-14.047,1.942-32.651,11.879C308.6,413.05,319.669,434,320.28,434.86Z" transform="translate(-308.602 -392.198)" fill="#e74524"/>
              </g>
            </g>
          </g>
        </g>
        <g id="Grupo_25446" data-name="Grupo 25446" transform="translate(34.87 94.294)">
          <g id="Grupo_25445" data-name="Grupo 25445">
            <g id="Grupo_25444" data-name="Grupo 25444">
              <g id="Grupo_25443" data-name="Grupo 25443">
                <path id="Trazado_66563" data-name="Trazado 66563" d="M356.389,446.119c-4.984-1.7-5.879-9.046-11.086-10.2h0c-2.263-1.41-4.6,11.544-4.6,11.543l-12.9,6.336c.088-.605,4.239,7.889,4.239,7.889,5.642-2.278,20.725-9.5,26.473-12.754,0,0-.428-.993-1.112-2.6A4.4,4.4,0,0,1,356.389,446.119Z" transform="translate(-327.809 -435.811)" fill="#b13625"/>
              </g>
            </g>
          </g>
        </g>
        <g id="Grupo_25450" data-name="Grupo 25450" transform="translate(45.173 84.568)">
          <g id="Grupo_25449" data-name="Grupo 25449">
            <g id="Grupo_25448" data-name="Grupo 25448">
              <g id="Grupo_25447" data-name="Grupo 25447">
                <path id="Trazado_66564" data-name="Trazado 66564" d="M414.219,420.834s-9.643-1.818-12.99-8.811l-41.508,4.5s-4.932,26.839-6.711,51.378c0,0,46.327,2.266,67.733-2.134C420.743,465.763,416.156,426.7,414.219,420.834Z" transform="translate(-353.01 -412.023)" fill="#e74524"/>
              </g>
            </g>
          </g>
        </g>
        <g id="Grupo_25452" data-name="Grupo 25452" transform="translate(59.481 82.512)">
          <g id="Grupo_25451" data-name="Grupo 25451">
            <path id="Trazado_66565" data-name="Trazado 66565" d="M388.007,412.139s2.359,16.881,20.084,16.123c17.69-.755,19.55-19.626,17.582-21.27Z" transform="translate(-388.007 -406.992)" fill="#b13625"/>
          </g>
        </g>
        <g id="Grupo_25456" data-name="Grupo 25456" transform="translate(68.386 88.266)">
          <g id="Grupo_25455" data-name="Grupo 25455">
            <g id="Grupo_25454" data-name="Grupo 25454">
              <g id="Grupo_25453" data-name="Grupo 25453">
                <path id="Trazado_66566" data-name="Trazado 66566" d="M409.79,423.808s.8,6.565,10.414,6.578c0,0,10.66-.425,10.141-9.318Z" transform="translate(-409.79 -421.067)" fill="#eab28c"/>
              </g>
            </g>
          </g>
        </g>
        <g id="Grupo_25458" data-name="Grupo 25458" transform="translate(100.238 94.825)">
          <g id="Grupo_25457" data-name="Grupo 25457">
            <path id="Trazado_66567" data-name="Trazado 66567" d="M487.7,437.11" transform="translate(-487.699 -437.11)" fill="#e74524"/>
          </g>
        </g>
        <g id="Grupo_25499" data-name="Grupo 25499" transform="translate(33.406)">
          <g id="Grupo_25459" data-name="Grupo 25459" transform="translate(8.284 27.763)">
            <path id="Trazado_66568" data-name="Trazado 66568" d="M346.174,273.074s-4.942,15.771,2.113,25.991l8-19.167Z" transform="translate(-344.492 -273.074)" fill="#321c13"/>
          </g>
          <g id="Grupo_25460" data-name="Grupo 25460" transform="translate(5.166 49.819)">
            <path id="Trazado_66569" data-name="Trazado 66569" d="M344.817,328.959s-3.224-4.688-6.97.527,4.2,12.453,7.383,10.125Z" transform="translate(-336.863 -327.024)" fill="#eab28c"/>
          </g>
          <g id="Grupo_25461" data-name="Grupo 25461" transform="translate(5.319 54.597)">
            <path id="Trazado_66570" data-name="Trazado 66570" d="M337.257,338.713s-.7,6.395,6.672,8.363l1.8-1.119A8.908,8.908,0,0,1,337.257,338.713Z" transform="translate(-337.239 -338.713)" fill="#ce9167"/>
          </g>
          <g id="Grupo_25462" data-name="Grupo 25462" transform="translate(11.991 18.788)">
            <path id="Trazado_66571" data-name="Trazado 66571" d="M432.794,269.743v0l-26.15-16.189-21.365-2.428L358,261.495s-3.434,17.757-4.348,31c-1.16,16.794,8.527,30.615,28.655,32.545,0,0,27.486,4.22,40.34-23.956l12.118-10.879A176.92,176.92,0,0,1,432.794,269.743Z" transform="translate(-353.558 -251.122)" fill="#fdd8ba"/>
          </g>
          <g id="Grupo_25463" data-name="Grupo 25463" transform="translate(61.604 64.02)" opacity="0.4">
            <path id="Trazado_66572" data-name="Trazado 66572" d="M487.546,369.628a6.4,6.4,0,1,1-4.828-7.708A6.4,6.4,0,0,1,487.546,369.628Z" transform="translate(-474.912 -361.761)" fill="#f19557"/>
          </g>
          <g id="Grupo_25464" data-name="Grupo 25464" transform="translate(13.063 64.655)" opacity="0.4">
            <path id="Trazado_66573" data-name="Trazado 66573" d="M367.329,370.255a5.645,5.645,0,1,1-4.26-6.8A5.648,5.648,0,0,1,367.329,370.255Z" transform="translate(-356.18 -363.315)" fill="#f19557"/>
          </g>
          <g id="Grupo_25467" data-name="Grupo 25467" transform="translate(38.076 62.798)">
            <g id="Grupo_25466" data-name="Grupo 25466">
              <g id="Grupo_25465" data-name="Grupo 25465" clip-path="url(#clip-path)">
                <path id="Trazado_66574" data-name="Trazado 66574" d="M416.668,356.674l-2.554,7.147-.6-.215v-6.932Z" transform="translate(-415.086 -357.532)" fill="#e19a63"/>
                <path id="Trazado_66575" data-name="Trazado 66575" d="M417.615,356.674l-2.562,7.171-.068-.024,2.554-7.147Z" transform="translate(-415.956 -357.532)" fill="#e19a63"/>
                <path id="Trazado_66576" data-name="Trazado 66576" d="M417.79,356.674l-2.571,7.2-.068-.024,2.563-7.171Z" transform="translate(-416.055 -357.532)" fill="#e19b64"/>
                <path id="Trazado_66577" data-name="Trazado 66577" d="M417.965,356.674l-2.58,7.22-.068-.024,2.571-7.2Z" transform="translate(-416.153 -357.532)" fill="#e29b65"/>
                <path id="Trazado_66578" data-name="Trazado 66578" d="M418.14,356.674l-2.589,7.244-.068-.024,2.58-7.22Z" transform="translate(-416.251 -357.532)" fill="#e29c66"/>
                <path id="Trazado_66579" data-name="Trazado 66579" d="M418.314,356.674l-2.6,7.268-.068-.024,2.589-7.244Z" transform="translate(-416.349 -357.532)" fill="#e29d67"/>
                <path id="Trazado_66580" data-name="Trazado 66580" d="M418.489,356.674l-2.606,7.292-.068-.024,2.6-7.268Z" transform="translate(-416.447 -357.532)" fill="#e39e68"/>
                <path id="Trazado_66581" data-name="Trazado 66581" d="M418.664,356.674l-2.615,7.317-.068-.024,2.606-7.292Z" transform="translate(-416.546 -357.532)" fill="#e39e69"/>
                <path id="Trazado_66582" data-name="Trazado 66582" d="M418.839,356.674l-2.623,7.341-.068-.024,2.615-7.317Z" transform="translate(-416.644 -357.532)" fill="#e39f6a"/>
                <path id="Trazado_66583" data-name="Trazado 66583" d="M419.013,356.674l-2.632,7.365-.068-.024,2.623-7.341Z" transform="translate(-416.742 -357.532)" fill="#e3a06b"/>
                <path id="Trazado_66584" data-name="Trazado 66584" d="M419.188,356.674l-2.641,7.389-.068-.024,2.632-7.365Z" transform="translate(-416.84 -357.532)" fill="#e4a16c"/>
                <path id="Trazado_66585" data-name="Trazado 66585" d="M419.363,356.674l-2.649,7.414-.068-.024,2.641-7.389Z" transform="translate(-416.938 -357.532)" fill="#e4a16d"/>
                <path id="Trazado_66586" data-name="Trazado 66586" d="M419.538,356.674l-2.658,7.438-.068-.024,2.649-7.414Z" transform="translate(-417.037 -357.532)" fill="#e4a26e"/>
                <path id="Trazado_66587" data-name="Trazado 66587" d="M419.712,356.674l-2.667,7.462-.068-.024,2.658-7.438Z" transform="translate(-417.135 -357.532)" fill="#e5a36f"/>
                <path id="Trazado_66588" data-name="Trazado 66588" d="M419.887,356.674l-2.675,7.487-.068-.024,2.667-7.462Z" transform="translate(-417.233 -357.532)" fill="#e5a470"/>
                <path id="Trazado_66589" data-name="Trazado 66589" d="M420.062,356.674l-2.684,7.511-.068-.024,2.675-7.487Z" transform="translate(-417.331 -357.532)" fill="#e5a471"/>
                <path id="Trazado_66590" data-name="Trazado 66590" d="M420.237,356.674l-2.693,7.535-.068-.024,2.684-7.511Z" transform="translate(-417.429 -357.532)" fill="#e6a572"/>
                <path id="Trazado_66591" data-name="Trazado 66591" d="M420.411,356.674l-2.7,7.559-.068-.024,2.693-7.535Z" transform="translate(-417.527 -357.532)" fill="#e6a673"/>
                <path id="Trazado_66592" data-name="Trazado 66592" d="M420.586,356.674l-2.71,7.584-.068-.024,2.7-7.559Z" transform="translate(-417.626 -357.532)" fill="#e6a774"/>
                <path id="Trazado_66593" data-name="Trazado 66593" d="M420.761,356.674l-2.719,7.608-.068-.024,2.71-7.584Z" transform="translate(-417.724 -357.532)" fill="#e6a775"/>
                <path id="Trazado_66594" data-name="Trazado 66594" d="M420.936,356.674l-2.727,7.632-.068-.024,2.719-7.608Z" transform="translate(-417.822 -357.532)" fill="#e7a876"/>
                <path id="Trazado_66595" data-name="Trazado 66595" d="M421.11,356.674l-2.736,7.656-.068-.024,2.727-7.632Z" transform="translate(-417.92 -357.532)" fill="#e7a977"/>
                <path id="Trazado_66596" data-name="Trazado 66596" d="M421.285,356.674l-2.745,7.681-.068-.024,2.736-7.656Z" transform="translate(-418.018 -357.532)" fill="#e7aa78"/>
                <path id="Trazado_66597" data-name="Trazado 66597" d="M421.46,356.674l-2.753,7.7-.068-.024,2.745-7.681Z" transform="translate(-418.117 -357.532)" fill="#e8aa79"/>
                <path id="Trazado_66598" data-name="Trazado 66598" d="M421.635,356.674l-2.76,7.723h-.02l-.05-.018,2.753-7.7Z" transform="translate(-418.215 -357.532)" fill="#e8ab7a"/>
                <path id="Trazado_66599" data-name="Trazado 66599" d="M421.813,356.674l-2.76,7.723h-.077l2.76-7.723Z" transform="translate(-418.316 -357.532)" fill="#e8ac7b"/>
                <path id="Trazado_66600" data-name="Trazado 66600" d="M422,356.674l-2.76,7.723h-.076l2.76-7.723Z" transform="translate(-418.427 -357.532)" fill="#e9ad7c"/>
                <path id="Trazado_66601" data-name="Trazado 66601" d="M422.187,356.674l-2.76,7.723h-.077l2.76-7.723Z" transform="translate(-418.538 -357.532)" fill="#e9ad7d"/>
                <path id="Trazado_66602" data-name="Trazado 66602" d="M422.374,356.674l-2.76,7.723h-.077l2.76-7.723Z" transform="translate(-418.648 -357.532)" fill="#e9ae7e"/>
                <path id="Trazado_66603" data-name="Trazado 66603" d="M422.562,356.674,419.8,364.4h-.077l2.76-7.723Z" transform="translate(-418.759 -357.532)" fill="#e9af7f"/>
                <path id="Trazado_66604" data-name="Trazado 66604" d="M422.749,356.674l-2.76,7.723h-.077l2.76-7.723Z" transform="translate(-418.87 -357.532)" fill="#eab080"/>
                <path id="Trazado_66605" data-name="Trazado 66605" d="M422.936,356.674l-2.76,7.723H420.1l2.76-7.723Z" transform="translate(-418.981 -357.532)" fill="#eab081"/>
                <path id="Trazado_66606" data-name="Trazado 66606" d="M423.124,356.674l-2.76,7.723h-.077l2.76-7.723Z" transform="translate(-419.091 -357.532)" fill="#eab182"/>
                <path id="Trazado_66607" data-name="Trazado 66607" d="M423.311,356.674l-2.76,7.723h-.077l2.76-7.723Z" transform="translate(-419.202 -357.532)" fill="#ebb283"/>
                <path id="Trazado_66608" data-name="Trazado 66608" d="M423.5,356.674l-2.76,7.723h-.077l2.76-7.723Z" transform="translate(-419.313 -357.532)" fill="#ebb284"/>
                <path id="Trazado_66609" data-name="Trazado 66609" d="M423.686,356.674l-2.76,7.723h-.077l2.76-7.723Z" transform="translate(-419.423 -357.532)" fill="#ebb385"/>
                <path id="Trazado_66610" data-name="Trazado 66610" d="M423.873,356.674l-2.76,7.723h-.077l2.76-7.723Z" transform="translate(-419.534 -357.532)" fill="#ecb486"/>
                <path id="Trazado_66611" data-name="Trazado 66611" d="M424.06,356.674,421.3,364.4h-.077l2.76-7.723Z" transform="translate(-419.645 -357.532)" fill="#ecb587"/>
                <path id="Trazado_66612" data-name="Trazado 66612" d="M424.247,356.674l-2.76,7.723h-.077l2.76-7.723Z" transform="translate(-419.756 -357.532)" fill="#ecb588"/>
                <path id="Trazado_66613" data-name="Trazado 66613" d="M424.435,356.674l-2.76,7.723H421.6l2.76-7.723Z" transform="translate(-419.866 -357.532)" fill="#ecb689"/>
                <path id="Trazado_66614" data-name="Trazado 66614" d="M424.622,356.674l-2.76,7.723h-.077l2.76-7.723Z" transform="translate(-419.977 -357.532)" fill="#edb78a"/>
                <path id="Trazado_66615" data-name="Trazado 66615" d="M424.809,356.674l-2.76,7.723h-.077l2.76-7.723Z" transform="translate(-420.088 -357.532)" fill="#edb88b"/>
                <path id="Trazado_66616" data-name="Trazado 66616" d="M425,356.674l-2.76,7.723h-.077l2.76-7.723Z" transform="translate(-420.199 -357.532)" fill="#edb88c"/>
                <path id="Trazado_66617" data-name="Trazado 66617" d="M425.184,356.674l-2.76,7.723h-.077l2.76-7.723Z" transform="translate(-420.309 -357.532)" fill="#eeb98d"/>
                <path id="Trazado_66618" data-name="Trazado 66618" d="M425.371,356.674l-2.76,7.723h-.077l2.76-7.723Z" transform="translate(-420.42 -357.532)" fill="#eeba8e"/>
                <path id="Trazado_66619" data-name="Trazado 66619" d="M425.558,356.674,422.8,364.4h-.077l2.76-7.723Z" transform="translate(-420.531 -357.532)" fill="#eebb8f"/>
                <path id="Trazado_66620" data-name="Trazado 66620" d="M425.746,356.674l-2.76,7.723h-.077l2.76-7.723Z" transform="translate(-420.641 -357.532)" fill="#efbb90"/>
                <path id="Trazado_66621" data-name="Trazado 66621" d="M425.933,356.674l-2.76,7.723H423.1l2.76-7.723Z" transform="translate(-420.752 -357.532)" fill="#efbc91"/>
                <path id="Trazado_66622" data-name="Trazado 66622" d="M426.12,356.674l-2.76,7.723h-.077l2.76-7.723Z" transform="translate(-420.863 -357.532)" fill="#efbd93"/>
                <path id="Trazado_66623" data-name="Trazado 66623" d="M426.308,356.674l-2.76,7.723h-.077l2.76-7.723Z" transform="translate(-420.974 -357.532)" fill="#efbe94"/>
                <path id="Trazado_66624" data-name="Trazado 66624" d="M426.495,356.674l-2.76,7.723h-.077l2.76-7.723Z" transform="translate(-421.084 -357.532)" fill="#f0be95"/>
                <path id="Trazado_66625" data-name="Trazado 66625" d="M426.682,356.674l-2.76,7.723h-.077l2.76-7.723Z" transform="translate(-421.195 -357.532)" fill="#f0bf96"/>
                <path id="Trazado_66626" data-name="Trazado 66626" d="M426.87,356.674l-2.76,7.723h-.077l2.76-7.723Z" transform="translate(-421.306 -357.532)" fill="#f0c097"/>
                <path id="Trazado_66627" data-name="Trazado 66627" d="M427.057,356.674,424.3,364.4h-.077l2.76-7.723Z" transform="translate(-421.417 -357.532)" fill="#f1c198"/>
                <path id="Trazado_66628" data-name="Trazado 66628" d="M427.244,356.674l-2.76,7.723h-.077l2.76-7.723Z" transform="translate(-421.527 -357.532)" fill="#f1c199"/>
                <path id="Trazado_66629" data-name="Trazado 66629" d="M427.42,356.674l.01,0-2.758,7.719H424.6l2.76-7.723Z" transform="translate(-421.638 -357.532)" fill="#f1c29a"/>
                <path id="Trazado_66630" data-name="Trazado 66630" d="M427.541,356.683l.068.024-2.75,7.695h-.077Z" transform="translate(-421.749 -357.537)" fill="#f2c39b"/>
                <path id="Trazado_66631" data-name="Trazado 66631" d="M427.72,356.742l.068.024-2.741,7.671h-.076Z" transform="translate(-421.859 -357.572)" fill="#f2c49c"/>
                <path id="Trazado_66632" data-name="Trazado 66632" d="M427.9,356.8l.068.024-2.732,7.646h-.077Z" transform="translate(-421.97 -357.607)" fill="#f2c49d"/>
                <path id="Trazado_66633" data-name="Trazado 66633" d="M428.077,356.861l.068.024-2.724,7.622h-.077Z" transform="translate(-422.081 -357.642)" fill="#f2c59e"/>
                <path id="Trazado_66634" data-name="Trazado 66634" d="M428.255,356.92l.068.024-2.715,7.6h-.077Z" transform="translate(-422.192 -357.677)" fill="#f3c69f"/>
                <path id="Trazado_66635" data-name="Trazado 66635" d="M428.434,356.98l.068.024-2.706,7.574h-.076Z" transform="translate(-422.302 -357.712)" fill="#f3c7a0"/>
                <path id="Trazado_66636" data-name="Trazado 66636" d="M428.613,357.039l.068.024-2.7,7.549h-.077Z" transform="translate(-422.413 -357.747)" fill="#f3c7a1"/>
                <path id="Trazado_66637" data-name="Trazado 66637" d="M428.791,357.1l.068.024-2.689,7.525h-.077Z" transform="translate(-422.524 -357.783)" fill="#f4c8a2"/>
                <path id="Trazado_66638" data-name="Trazado 66638" d="M428.97,357.158l.068.024-2.68,7.5h-.077Z" transform="translate(-422.634 -357.818)" fill="#f4c9a3"/>
                <path id="Trazado_66639" data-name="Trazado 66639" d="M429.149,357.217l.068.024-2.672,7.477h-.077Z" transform="translate(-422.745 -357.853)" fill="#f4c9a4"/>
                <path id="Trazado_66640" data-name="Trazado 66640" d="M429.327,357.276l.068.024-2.663,7.452h-.077Z" transform="translate(-422.856 -357.888)" fill="#f5caa5"/>
                <path id="Trazado_66641" data-name="Trazado 66641" d="M429.506,357.336l.068.024-2.654,7.428h-.077Z" transform="translate(-422.967 -357.923)" fill="#f5cba6"/>
                <path id="Trazado_66642" data-name="Trazado 66642" d="M429.684,357.4l.068.024-2.646,7.4h-.077Z" transform="translate(-423.077 -357.958)" fill="#f5cca7"/>
                <path id="Trazado_66643" data-name="Trazado 66643" d="M429.863,357.455l.068.024-2.637,7.38h-.077Z" transform="translate(-423.188 -357.993)" fill="#f5cca8"/>
                <path id="Trazado_66644" data-name="Trazado 66644" d="M430.042,357.514l.068.024-2.628,7.355H427.4Z" transform="translate(-423.299 -358.028)" fill="#f6cda9"/>
                <path id="Trazado_66645" data-name="Trazado 66645" d="M430.22,357.573l.068.024-2.62,7.331h-.077Z" transform="translate(-423.41 -358.063)" fill="#f6ceaa"/>
                <path id="Trazado_66646" data-name="Trazado 66646" d="M430.4,357.633l.068.024-2.611,7.307h-.077Z" transform="translate(-423.52 -358.098)" fill="#f6cfab"/>
                <path id="Trazado_66647" data-name="Trazado 66647" d="M430.577,357.692l.068.024-2.6,7.283h-.077Z" transform="translate(-423.631 -358.133)" fill="#f7cfac"/>
                <path id="Trazado_66648" data-name="Trazado 66648" d="M430.756,357.751l.068.024-2.594,7.258h-.077Z" transform="translate(-423.742 -358.168)" fill="#f7d0ad"/>
                <path id="Trazado_66649" data-name="Trazado 66649" d="M430.935,357.811l.068.024-2.585,7.234h-.077Z" transform="translate(-423.852 -358.203)" fill="#f7d1ae"/>
                <path id="Trazado_66650" data-name="Trazado 66650" d="M431.113,357.87l.068.024L428.6,365.1h-.077Z" transform="translate(-423.963 -358.239)" fill="#f8d2af"/>
                <path id="Trazado_66651" data-name="Trazado 66651" d="M431.292,357.929l.043.015v.08l-2.542,7.114h-.077Z" transform="translate(-424.074 -358.274)" fill="#f8d2b0"/>
                <path id="Trazado_66652" data-name="Trazado 66652" d="M431.445,358.377l-2.466,6.9H428.9l2.542-7.114Z" transform="translate(-424.185 -358.412)" fill="#f8d3b1"/>
                <path id="Trazado_66653" data-name="Trazado 66653" d="M431.556,358.9l-2.389,6.686h-.077l2.466-6.9Z" transform="translate(-424.295 -358.721)" fill="#f8d4b2"/>
                <path id="Trazado_66654" data-name="Trazado 66654" d="M431.667,359.425l-2.313,6.472h-.077l2.389-6.686Z" transform="translate(-424.406 -359.031)" fill="#f9d5b3"/>
                <path id="Trazado_66655" data-name="Trazado 66655" d="M431.777,359.949l-2.236,6.257h-.077l2.313-6.472Z" transform="translate(-424.517 -359.341)" fill="#f9d5b4"/>
                <path id="Trazado_66656" data-name="Trazado 66656" d="M431.888,360.473l-2.159,6.043h-.077l2.236-6.257Z" transform="translate(-424.627 -359.651)" fill="#f9d6b5"/>
                <path id="Trazado_66657" data-name="Trazado 66657" d="M432,361l-2.083,5.829h-.077L432,360.783Z" transform="translate(-424.738 -359.961)" fill="#fad7b6"/>
                <path id="Trazado_66658" data-name="Trazado 66658" d="M432.11,361.522l-2.006,5.614h-.076l2.083-5.829Z" transform="translate(-424.849 -360.271)" fill="#fad8b7"/>
                <path id="Trazado_66659" data-name="Trazado 66659" d="M432.22,362.046l-1.93,5.4h-.077l2.006-5.614Z" transform="translate(-424.96 -360.581)" fill="#fad8b8"/>
                <path id="Trazado_66660" data-name="Trazado 66660" d="M432.331,362.57l-1.853,5.186H430.4l1.93-5.4Z" transform="translate(-425.07 -360.89)" fill="#fbd9b9"/>
                <path id="Trazado_66661" data-name="Trazado 66661" d="M432.442,363.094l-1.777,4.972h-.077l1.853-5.186Z" transform="translate(-425.181 -361.2)" fill="#fbdaba"/>
                <path id="Trazado_66662" data-name="Trazado 66662" d="M432.552,363.618l-1.7,4.757h-.077l1.777-4.972Z" transform="translate(-425.292 -361.51)" fill="#fbdbbb"/>
                <path id="Trazado_66663" data-name="Trazado 66663" d="M432.663,364.142l-1.623,4.543h-.077l1.7-4.757Z" transform="translate(-425.402 -361.82)" fill="#fbdbbc"/>
                <path id="Trazado_66664" data-name="Trazado 66664" d="M432.774,364.666,431.227,369h-.077l1.623-4.543Z" transform="translate(-425.513 -362.13)" fill="#fcdcbd"/>
                <path id="Trazado_66665" data-name="Trazado 66665" d="M432.885,365.19l-1.47,4.114h-.077l1.547-4.329Z" transform="translate(-425.624 -362.44)" fill="#fcddbe"/>
                <path id="Trazado_66666" data-name="Trazado 66666" d="M433,365.715l-1.394,3.9h-.077L433,365.5Z" transform="translate(-425.735 -362.75)" fill="#fcdebf"/>
                <path id="Trazado_66667" data-name="Trazado 66667" d="M433.106,366.239l-1.317,3.686h-.077l1.394-3.9Z" transform="translate(-425.845 -363.059)" fill="#fddec0"/>
                <path id="Trazado_66668" data-name="Trazado 66668" d="M433.217,366.763l-1.24,3.472H431.9l1.317-3.686Z" transform="translate(-425.956 -363.369)" fill="#fddfc1"/>
                <path id="Trazado_66669" data-name="Trazado 66669" d="M432.087,370.544l1.241-3.472v3.472Z" transform="translate(-426.067 -363.679)" fill="#fddfc1"/>
              </g>
            </g>
          </g>
          <g id="Grupo_25468" data-name="Grupo 25468" transform="translate(80.604 53.385)">
            <path id="Trazado_66671" data-name="Trazado 66671" d="M521.388,338.377s.809-3.121,3.432-2.562c0,0,2.637.074,2.3,3.451a4.1,4.1,0,0,1-4.433,3.985s4.138-2.059,2.317-5.5C525,337.754,523.136,336.009,521.388,338.377Z" transform="translate(-521.388 -335.747)" fill="#ce9167"/>
          </g>
          <g id="Grupo_25469" data-name="Grupo 25469" transform="translate(14.827 27.127)">
            <path id="Trazado_66672" data-name="Trazado 66672" d="M360.918,277.945l-.424,8.291s18.445,5.455,28.026-1.53c0,0-2.772,5.439,9.693,4.74,13.822-.775,19.85-7.527,19.85-7.527l-1.828-4.987-36.819-5.413Z" transform="translate(-360.494 -271.519)" fill="#eab28c"/>
          </g>
          <g id="Grupo_25470" data-name="Grupo 25470" transform="translate(0 0.287)">
            <path id="Trazado_66673" data-name="Trazado 66673" d="M394.861,238.361c1.282-3.386,2.522-3.666,2.91-4.5,1.58-3.609,5.3-7.951,6.213-11.738.024-.124.051-.246.074-.37a2.4,2.4,0,0,1,.107-.4c.186-.862.339-1.733.447-2.616-1.629-1.061-5.361-1.581-6.716-3.4-5.341-7.16-17.2-8.968-27.794-9.47,0,0-13.334-.067-20.788,3.663-5.435,2.719-6.207,6-4.3,7.317,0,0-21.463,5.579-20.768,21.336,0,0-.13,8.065,8.513,2.68-1.53,1.018-6.155,4.683.624,8.08,0,0,16.649,3.5,37.189-9.332,0,0-10.1,7.134-1.227,8.407,8.758,1.255,20.057-3.558,25.517-9.656Z" transform="translate(-324.228 -205.868)" fill="#593729"/>
          </g>
          <g id="Grupo_25471" data-name="Grupo 25471" transform="translate(70.447 12.305)">
            <path id="Trazado_66674" data-name="Trazado 66674" d="M516.948,246.519a20.471,20.471,0,0,0-5.847-6.267c-.219.8-4.046-4.621-4.978-4.989-.884,3.506-8.983,13.274-9.393,16.845-.514,4.473.11,12.158.918,14.378,2.361,9.776,6.115,12.065,6.115,12.065s1.117-5.273,5.928-5.8,5.607,5.125,5.607,5.125a8.117,8.117,0,0,1-.086,3.553c1.63-.481,3.258-.987,4.872-1.549C521.671,270.861,523.91,259.395,516.948,246.519Z" transform="translate(-496.543 -235.263)" fill="#593729"/>
          </g>
          <g id="Grupo_25472" data-name="Grupo 25472" transform="translate(82.803 15.098)">
            <path id="Trazado_66675" data-name="Trazado 66675" d="M527.376,242.1Z" transform="translate(-526.767 -242.095)" fill="#44291d"/>
          </g>
          <g id="Grupo_25473" data-name="Grupo 25473" transform="translate(41.466 23.071)">
            <path id="Trazado_66676" data-name="Trazado 66676" d="M454.823,271.308s.7-5.4,1.706-9.565c.088-.12.177-.247,0-.012-2.641,3.49-9.053,8.148-12.649,10.545a44.387,44.387,0,0,1-11.338,5.245c-2.1.607-4.686.88-6.576-.2-.747,1.6-.31,3.121,3.342,3.645C438.064,282.22,449.363,277.406,454.823,271.308Z" transform="translate(-425.656 -261.599)" fill="#44291d"/>
          </g>
          <g id="Grupo_25474" data-name="Grupo 25474" transform="translate(70.703 30.413)">
            <path id="Trazado_66677" data-name="Trazado 66677" d="M502.753,325.909s1.277-1.18,3.121-6.3a44.323,44.323,0,0,0,1.851-6.491c3.233,1.157,6.148-1.447,7.488-4.435a7.91,7.91,0,0,0,.455-4.626s-.793-5.656-5.607-5.125-5.928,5.8-5.928,5.8c-5.247-3.588-6.964-16.722-6.964-16.722,2.118,3.591,5.972,4.448,9.253,3.85,4.039-.734,13.568-4.223,13.793-12.307.4,1.584.024.631,0,0,5.942,15.3.239,26.509.239,26.509S515.807,319.619,502.753,325.909Z" transform="translate(-497.169 -279.557)" fill="#44291d"/>
          </g>
          <g id="Grupo_25480" data-name="Grupo 25480" transform="translate(18.228 50.109)">
            <g id="Grupo_25478" data-name="Grupo 25478">
              <g id="Grupo_25475" data-name="Grupo 25475">
                <path id="Trazado_66678" data-name="Trazado 66678" d="M384.311,336.512c-.98,6.268-5.852,7.068-9.807,5.92-4.465-1.3-6.382-4.937-5.466-8.993s5.727-6.188,8.842-5.612A7.828,7.828,0,0,1,384.311,336.512Z" transform="translate(-368.814 -327.735)" fill="#eab28c"/>
              </g>
              <g id="Grupo_25476" data-name="Grupo 25476" transform="translate(0.994 1.117)">
                <path id="Trazado_66679" data-name="Trazado 66679" d="M385,338.966a6.963,6.963,0,1,1-5.26-8.326A6.963,6.963,0,0,1,385,338.966Z" transform="translate(-371.246 -330.468)" fill="#fff"/>
              </g>
              <g id="Grupo_25477" data-name="Grupo 25477" transform="translate(2.806 1.255)">
                <path id="Trazado_66680" data-name="Trazado 66680" d="M387.248,337.949a5.856,5.856,0,1,1-4.421-7A5.854,5.854,0,0,1,387.248,337.949Z" transform="translate(-375.678 -330.805)" fill="#44291d"/>
              </g>
            </g>
            <g id="Grupo_25479" data-name="Grupo 25479" transform="translate(9.664 3.553)">
              <path id="Trazado_66681" data-name="Trazado 66681" d="M395.317,338.193a1.45,1.45,0,1,1-1.1-1.733A1.453,1.453,0,0,1,395.317,338.193Z" transform="translate(-392.452 -336.424)" fill="#fffff9"/>
            </g>
          </g>
          <g id="Grupo_25486" data-name="Grupo 25486" transform="translate(51.228 49.35)">
            <g id="Grupo_25484" data-name="Grupo 25484">
              <g id="Grupo_25481" data-name="Grupo 25481">
                <path id="Trazado_66682" data-name="Trazado 66682" d="M465.724,335.258c-1.191,4.119-4.2,6.893-8.414,6.365-5.857-.735-8.679-6.114-7.52-10.238,1.337-4.754,6.082-6.171,10.222-5.237A7.463,7.463,0,0,1,465.724,335.258Z" transform="translate(-449.534 -325.877)" fill="#eab28c"/>
              </g>
              <g id="Grupo_25482" data-name="Grupo 25482" transform="translate(0.941 1.114)">
                <path id="Trazado_66683" data-name="Trazado 66683" d="M466.2,337.478a7.273,7.273,0,1,1-5.492-8.7A7.272,7.272,0,0,1,466.2,337.478Z" transform="translate(-451.837 -328.602)" fill="#fff"/>
              </g>
              <g id="Grupo_25483" data-name="Grupo 25483" transform="translate(2.877 1.431)">
                <path id="Trazado_66684" data-name="Trazado 66684" d="M468.588,336.8a6.083,6.083,0,1,1-4.594-7.272A6.083,6.083,0,0,1,468.588,336.8Z" transform="translate(-456.572 -329.377)" fill="#44291d"/>
              </g>
            </g>
            <g id="Grupo_25485" data-name="Grupo 25485" transform="translate(9.831 3.274)">
              <path id="Trazado_66685" data-name="Trazado 66685" d="M476.466,335.666a1.46,1.46,0,1,1-1.1-1.745A1.461,1.461,0,0,1,476.466,335.666Z" transform="translate(-473.581 -333.884)" fill="#fffff9"/>
            </g>
          </g>
          <g id="Grupo_25487" data-name="Grupo 25487" transform="translate(20.136 44.359)">
            <path id="Trazado_66686" data-name="Trazado 66686" d="M374.727,316.961a6.3,6.3,0,0,1,6.193-1.093s1.608-1.26-.635-1.892h0a5.863,5.863,0,0,0-6.724,2.237S373.028,317.358,374.727,316.961Z" transform="translate(-373.482 -313.67)" fill="#593729"/>
          </g>
          <g id="Grupo_25488" data-name="Grupo 25488" transform="translate(58.611 44.541)">
            <path id="Trazado_66687" data-name="Trazado 66687" d="M474.434,317.232a6.3,6.3,0,0,0-6.24-.79s-1.666-1.179.545-1.919h0a5.861,5.861,0,0,1,6.825,1.906S476.15,317.546,474.434,317.232Z" transform="translate(-467.592 -314.115)" fill="#593729"/>
          </g>
          <g id="Grupo_25489" data-name="Grupo 25489" transform="translate(66.038)">
            <path id="Trazado_66688" data-name="Trazado 66688" d="M493.982,220.227s-11.791-10.8-7.136-14.677C494.019,202.132,502,222.674,502,222.674" transform="translate(-485.759 -205.166)" fill="#593729"/>
          </g>
          <g id="Grupo_25490" data-name="Grupo 25490" transform="translate(79.923 5.22)">
            <path id="Trazado_66689" data-name="Trazado 66689" d="M522.17,228.838a2.262,2.262,0,0,1,.73.261c.82-2.316,4.051-7.9-.179-10.589-4.91-3.126-2.314,7.493-2.314,7.493Z" transform="translate(-519.721 -217.934)" fill="#593729"/>
          </g>
          <g id="Grupo_25491" data-name="Grupo 25491" transform="translate(82.521 14.006)">
            <path id="Trazado_66690" data-name="Trazado 66690" d="M539.595,244.671c-3.306-7.236-10.921-5.189-13.519-4.235a2.582,2.582,0,0,1,.542,2.251l.661.968S543.613,253.466,539.595,244.671Z" transform="translate(-526.076 -239.424)" fill="#593729"/>
          </g>
          <g id="Grupo_25492" data-name="Grupo 25492" transform="translate(0.017 26.593)">
            <path id="Trazado_66691" data-name="Trazado 66691" d="M324.268,276.223s.122,6.8,7.318,4.3a97.23,97.23,0,0,1,17.206-10.311A131.212,131.212,0,0,0,324.268,276.223Z" transform="translate(-324.268 -270.214)" fill="#44291d"/>
          </g>
          <g id="Grupo_25493" data-name="Grupo 25493" transform="translate(5.922 23.895)">
            <path id="Trazado_66692" data-name="Trazado 66692" d="M338.713,280.438s2.02,4.5,12.7,3.147c6.054-.768,15.039-1.631,27.723-9.837l8.448-10.135S349.955,284.7,338.713,280.438Z" transform="translate(-338.713 -263.613)" fill="#44291d"/>
          </g>
          <g id="Grupo_25494" data-name="Grupo 25494" transform="translate(19.814 6.103)">
            <path id="Trazado_66693" data-name="Trazado 66693" d="M373.664,225.257s15.669-5.035,25.6-3.26c0,0-9.414-3.855-25.536-.595C373.73,221.4,371.444,223.613,373.664,225.257Z" transform="translate(-372.694 -220.093)" fill="#44291d"/>
          </g>
          <g id="Grupo_25495" data-name="Grupo 25495" transform="translate(83.508 17.922)">
            <path id="Trazado_66694" data-name="Trazado 66694" d="M539.071,251.135c-3.66.131-7.1-1.142-10.581-2.132l.216.315s15.96,9.585,12.444,1.308A5.171,5.171,0,0,1,539.071,251.135Z" transform="translate(-528.49 -249.003)" fill="#44291d"/>
          </g>
          <g id="Grupo_25496" data-name="Grupo 25496" transform="translate(80.421 5.222)">
            <path id="Trazado_66695" data-name="Trazado 66695" d="M521.268,218.645c3.1,1.85,3.408,5.648,2.935,9.013,1.123-2.7,2.744-6.912-.761-9.145-1.3-.826-2.066-.687-2.5-.044C521.05,218.523,521.16,218.581,521.268,218.645Z" transform="translate(-520.94 -217.94)" fill="#44291d"/>
          </g>
          <g id="Grupo_25497" data-name="Grupo 25497" transform="translate(59.728 2.162)">
            <path id="Trazado_66696" data-name="Trazado 66696" d="M476.885,212.36s3.462,6.381,6.307,8.8l-12.869-10.705S474.083,211.373,476.885,212.36Z" transform="translate(-470.323 -210.453)" fill="#44291d"/>
          </g>
          <g id="Grupo_25498" data-name="Grupo 25498" transform="translate(47.234 63.564)">
            <path id="Trazado_66697" data-name="Trazado 66697" d="M472.836,360.645s-3.722,26.747-33.073,29.315c0,0,27.953,1.383,34.024-28.9Z" transform="translate(-439.763 -360.645)" fill="#eab28c"/>
          </g>
        </g>
        <g id="Grupo_25502" data-name="Grupo 25502" transform="translate(63.052 70.305)">
          <g id="Grupo_25500" data-name="Grupo 25500">
            <path id="Trazado_66698" data-name="Trazado 66698" d="M425.3,382.589c-.909,3.339-4.038,10-14.528,9.879-13.4-1.007-14.025-11.213-14.025-11.213s-.371-4.456,3.6-3.349c2.652.74,9.457,4.634,20.451-.242,2.465-1.094,3.475-.3,4.247.632C425.868,379.285,425.606,381.475,425.3,382.589Z" transform="translate(-396.742 -377.134)" fill="#f26e4c"/>
          </g>
          <g id="Grupo_25501" data-name="Grupo 25501" transform="translate(5.066 7.087)">
            <path id="Trazado_66699" data-name="Trazado 66699" d="M409.134,399.837a15.611,15.611,0,0,0,8.619,2.942c7.578-.016,12.026-3.113,13.83-7.139C424.712,392.668,414.143,395.817,409.134,399.837Z" transform="translate(-409.134 -394.468)" fill="#cb3927"/>
          </g>
        </g>
      </g>
      <g id="Grupo_25504" data-name="Grupo 25504" transform="translate(63.052 70.305)">
        <path id="Trazado_66700" data-name="Trazado 66700" d="M397.3,383.643c9.367-.351,18.73-.875,28.09-1.426.255-1.175.392-3.032-.347-3.922-.773-.932-1.782-1.726-4.247-.632-10.993,4.876-17.8.982-20.451.242-3.968-1.107-3.6,3.349-3.6,3.349A9.863,9.863,0,0,0,397.3,383.643Z" transform="translate(-396.742 -377.134)" fill="#fffefd"/>
      </g>
    </g>
  </g>
</svg>
