<svg xmlns="http://www.w3.org/2000/svg" width="197.688" height="193.171" viewBox="0 0 197.688 193.171">
  <g id="Grupo_26585" data-name="Grupo 26585" transform="translate(-1190.05 -436.874)">
    <g id="Grupo_26545" data-name="Grupo 26545" transform="translate(1216.129 460.18)">
      <g id="Grupo_26544" data-name="Grupo 26544" transform="translate(9.704 17.584)">
        <g id="Grupo_26543" data-name="Grupo 26543">
          <g id="Grupo_26542" data-name="Grupo 26542">
            <g id="Grupo_26541" data-name="Grupo 26541">
              <g id="Grupo_26540" data-name="Grupo 26540">
                <g id="Grupo_26539" data-name="Grupo 26539">
                  <g id="Grupo_26538" data-name="Grupo 26538">
                    <g id="Grupo_26537" data-name="Grupo 26537">
                      <g id="Grupo_26536" data-name="Grupo 26536">
                        <g id="Grupo_26535" data-name="Grupo 26535">
                          <g id="Grupo_26534" data-name="Grupo 26534">
                            <circle id="Elipse_1919" data-name="Elipse 1919" cx="63.801" cy="63.801" r="63.801" fill="#a9ebff"/>
                          </g>
                        </g>
                      </g>
                    </g>
                  </g>
                </g>
              </g>
            </g>
          </g>
        </g>
      </g>
      <path id="Trazado_68065" data-name="Trazado 68065" d="M1553.863,835.64a1.064,1.064,0,0,1-.88-1.659c1.6-2.366,3.339-4.682,5.164-6.885a1.063,1.063,0,0,1,1.637,1.357c-1.781,2.149-3.477,4.41-5.041,6.72A1.062,1.062,0,0,1,1553.863,835.64Zm10.84-13.079a1.063,1.063,0,0,1-.75-1.818c2.029-2.015,4.179-3.954,6.392-5.763a1.063,1.063,0,0,1,1.346,1.647c-2.16,1.766-4.259,3.658-6.239,5.625A1.06,1.06,0,0,1,1564.7,822.56Zm13.153-10.75a1.063,1.063,0,0,1-.591-1.948c2.38-1.588,4.864-3.076,7.384-4.423a1.063,1.063,0,1,1,1,1.875c-2.459,1.315-4.883,2.767-7.206,4.317A1.058,1.058,0,0,1,1577.855,811.81Z" transform="translate(-1552.8 -802.132)" fill="#226b80"/>
      <path id="Trazado_68066" data-name="Trazado 68066" d="M3075.595,788.673a1.062,1.062,0,0,1-.828-.4c-1.751-2.171-3.63-4.283-5.584-6.276a1.063,1.063,0,0,1,1.519-1.489c2,2.042,3.926,4.205,5.72,6.43a1.063,1.063,0,0,1-.827,1.731ZM3063.7,776.542a1.06,1.06,0,0,1-.684-.249c-2.137-1.8-4.387-3.506-6.686-5.085a1.063,1.063,0,0,1,1.2-1.753c2.356,1.617,4.661,3.37,6.851,5.21a1.064,1.064,0,0,1-.684,1.878Zm-14-9.614a1.059,1.059,0,0,1-.513-.133c-2.444-1.349-4.982-2.593-7.542-3.7a1.063,1.063,0,1,1,.842-1.953c2.624,1.13,5.225,2.4,7.729,3.787a1.063,1.063,0,0,1-.515,1.994Z" transform="translate(-2934.009 -761.06)" fill="#226b80"/>
      <path id="Trazado_68067" data-name="Trazado 68067" d="M1902.411,2872.26c-1.177,0-2.368-.023-3.54-.07a1.063,1.063,0,1,1,.083-2.125c1.145.045,2.307.068,3.456.068,1.646,0,3.311-.047,4.948-.139a1.063,1.063,0,1,1,.12,2.123C1905.8,2872.212,1904.1,2872.26,1902.411,2872.26Zm-11.964-.812a1.09,1.09,0,0,1-.145-.01c-2.835-.388-5.68-.92-8.457-1.581a1.063,1.063,0,1,1,.493-2.069c2.71.645,5.487,1.164,8.253,1.543a1.063,1.063,0,0,1-.143,2.117Zm25.429-.219a1.063,1.063,0,0,1-.161-2.114c2.76-.427,5.529-.995,8.23-1.688a1.063,1.063,0,0,1,.529,2.06c-2.768.71-5.6,1.292-8.433,1.73A1.069,1.069,0,0,1,1915.877,2871.229Zm-41.949-3.714a1.061,1.061,0,0,1-.346-.058c-2.7-.931-5.39-2.007-7.989-3.2a1.063,1.063,0,1,1,.886-1.933c2.537,1.162,5.16,2.212,7.8,3.12a1.064,1.064,0,0,1-.346,2.069Zm58.406-.51a1.064,1.064,0,0,1-.364-2.063c2.621-.955,5.225-2.051,7.742-3.258a1.063,1.063,0,1,1,.92,1.917c-2.579,1.237-5.249,2.361-7.934,3.339A1.063,1.063,0,0,1,1932.334,2867.005Zm-73.847-6.564a1.057,1.057,0,0,1-.534-.145c-2.469-1.437-4.9-3.014-7.218-4.687a1.063,1.063,0,0,1,1.243-1.726c2.265,1.632,4.635,3.171,7.044,4.574a1.064,1.064,0,0,1-.536,1.982Zm89.165-.783a1.063,1.063,0,0,1-.552-1.973c2.385-1.446,4.728-3.026,6.964-4.7a1.063,1.063,0,0,1,1.273,1.7c-2.291,1.713-4.692,3.332-7.135,4.813A1.06,1.06,0,0,1,1947.652,2859.658Z" transform="translate(-1828.906 -2702.396)" fill="#226b80"/>
    </g>
    <g id="Grupo_26571" data-name="Grupo 26571" transform="translate(1190.05 505.278)">
      <g id="Grupo_26570" data-name="Grupo 26570" transform="translate(0 0)">
        <g id="Grupo_26551" data-name="Grupo 26551" transform="translate(0 1.9)">
          <g id="Grupo_26548" data-name="Grupo 26548">
            <g id="Grupo_26546" data-name="Grupo 26546" transform="translate(15.088)">
              <ellipse id="Elipse_1920" data-name="Elipse 1920" cx="12.169" cy="12.2" rx="12.169" ry="12.2" transform="translate(1.185 1.188)" fill="#fff"/>
              <path id="Trazado_68068" data-name="Trazado 68068" d="M1413.294,1441.55a13.381,13.381,0,0,1-13.083-16.184,13.348,13.348,0,1,1,13.083,16.184Zm-.048-24.408a11,11,0,0,0-10.721,8.717,11.029,11.029,0,0,0,8.447,13.077,10.986,10.986,0,0,0,13.039-8.47,11.011,11.011,0,0,0-10.765-13.324Z" transform="translate(-1399.914 -1414.775)" fill="#226b80"/>
            </g>
            <g id="Grupo_26547" data-name="Grupo 26547" transform="translate(0 27.207)">
              <path id="Trazado_68069" data-name="Trazado 68069" d="M1259.315,1835.3l-15.226-22.981a5.873,5.873,0,0,0-4.881-2.631l-12.311-.03h-.009a5.875,5.875,0,0,0-5,2.792l-14.537,23.556a5.9,5.9,0,0,0,1.905,8.109,5.864,5.864,0,0,0,8.088-1.911l6.826-14.793-1.552,12.732a10.937,10.937,0,0,0,.373,2.879c-.016.1-.038.19-.05.288l-3.645,30.042a5.888,5.888,0,0,0,5.123,6.559,6.036,6.036,0,0,0,.717.043,5.883,5.883,0,0,0,5.825-5.181l2.743-22.611,1.939,22.409a5.882,5.882,0,0,0,5.847,5.382q.255,0,.514-.022a5.886,5.886,0,0,0,5.346-6.377l-2.773-32.053a5.924,5.924,0,0,0-.154-.894c0-.1.017-.2.018-.3l-1.7-13.1,6.786,14.618a5.881,5.881,0,1,0,9.789-6.519Z" transform="translate(-1205.288 -1808.479)" fill="#fff"/>
              <path id="Trazado_68070" data-name="Trazado 68070" d="M1209.9,1865.869a7.268,7.268,0,0,1-.857-.052,7.079,7.079,0,0,1-6.157-7.876l3.645-30.042q.007-.055.015-.1a12.1,12.1,0,0,1-.346-2.929,1.181,1.181,0,0,1,.009-.135l.639-5.242-3.665,7.941a1.167,1.167,0,0,1-.067.125,7.048,7.048,0,0,1-9.719,2.295,7.091,7.091,0,0,1-2.288-9.736l14.537-23.556a7.015,7.015,0,0,1,6.008-3.354h.009l12.314.03a7.044,7.044,0,0,1,5.864,3.161l15.227,22.982a7.093,7.093,0,0,1-1.974,9.8,7.051,7.051,0,0,1-9.788-1.979,1.2,1.2,0,0,1-.087-.155l-3.551-7.65.712,5.485a1.171,1.171,0,0,1,.01.161c0,.073,0,.139-.008.2a6.77,6.77,0,0,1,.141.89l2.773,32.052a7.077,7.077,0,0,1-6.422,7.658c-.206.018-.413.027-.617.027a7.064,7.064,0,0,1-7.026-6.463l-.957-11.063-1.371,11.306A7.067,7.067,0,0,1,1209.9,1865.869Zm-1.336-40.921a9.827,9.827,0,0,0,.334,2.5,1.183,1.183,0,0,1,.022.5c-.007.04-.014.079-.022.119s-.017.087-.02.112l-3.644,30.042a4.71,4.71,0,0,0,4.092,5.242,4.887,4.887,0,0,0,.574.035,4.7,4.7,0,0,0,4.651-4.14l2.743-22.611a1.183,1.183,0,0,1,2.353.041l1.939,22.409a4.7,4.7,0,0,0,4.668,4.3c.136,0,.275-.006.413-.018a4.707,4.707,0,0,0,4.268-5.1l-2.773-32.053a4.687,4.687,0,0,0-.125-.716,1.19,1.19,0,0,1-.033-.321c0-.062.006-.122.011-.183,0-.01,0-.02,0-.029l-1.686-13a1.183,1.183,0,0,1,2.246-.65l6.746,14.533a4.686,4.686,0,0,0,6.457,1.247,4.723,4.723,0,0,0,1.313-6.528l-15.226-22.981a4.681,4.681,0,0,0-3.9-2.1l-12.318-.03a4.664,4.664,0,0,0-3.994,2.23l-14.537,23.556a4.721,4.721,0,0,0,1.522,6.482,4.681,4.681,0,0,0,6.422-1.469l6.795-14.725a1.183,1.183,0,0,1,2.249.639Z" transform="translate(-1190.05 -1793.206)" fill="#226b80"/>
            </g>
          </g>
          <g id="Grupo_26549" data-name="Grupo 26549" transform="translate(15.207 0.125)">
            <path id="Trazado_68071" data-name="Trazado 68071" d="M1439.863,1439.078a12.155,12.155,0,0,0-23.506,4.39h24.334c0-.017,0-.035,0-.052,3.9.14,6.483.229,6.471-1.165C1447.146,1440.8,1444.14,1439.576,1439.863,1439.078Z" transform="translate(-1415.294 -1430.205)" fill="#a2f4c3"/>
            <path id="Trazado_68072" data-name="Trazado 68072" d="M1429.914,1430.86c-.779,0-1.663-.029-2.657-.064a1.059,1.059,0,0,1-.292.041H1402.63a1.063,1.063,0,0,1-1.063-1.062,13.257,13.257,0,0,1,10.464-12.971,13.217,13.217,0,0,1,14.853,7.6,19.713,19.713,0,0,1,4.917,1.228c1.778.758,2.685,1.739,2.695,2.913a1.893,1.893,0,0,1-.579,1.406C1433.173,1430.677,1431.873,1430.86,1429.914,1430.86Zm-2.952-2.2H1427c1.523.055,2.839.1,3.856.053a4.651,4.651,0,0,0,1.475-.227,3.251,3.251,0,0,0-1.439-.926,18.991,18.991,0,0,0-4.878-1.119,1.063,1.063,0,0,1-.869-.675,11.094,11.094,0,0,0-21.4,2.945h22.889A1.061,1.061,0,0,1,1426.961,1428.658Z" transform="translate(-1401.567 -1416.51)" fill="#226b80"/>
          </g>
          <g id="Grupo_26550" data-name="Grupo 26550" transform="translate(13.202 57.615)">
            <path id="Trazado_68073" data-name="Trazado 68073" d="M1416.537,2253.627l-3.016-21.6a1.193,1.193,0,0,0-1.185-1.066h-19.571a1.193,1.193,0,0,0-1.19,1.117l-3.106,22.057a1.194,1.194,0,0,0,1.19,1.274h11.03a.792.792,0,0,0,.782-.669l.853-6.98a.188.188,0,0,1,.372,0l.853,6.98a.792.792,0,0,0,.782.669h10.7A1.448,1.448,0,0,0,1416.537,2253.627Z" transform="translate(-1387.403 -2229.894)" fill="#a2f4c3"/>
            <path id="Trazado_68074" data-name="Trazado 68074" d="M1401.308,2242.741h-10.7a1.855,1.855,0,0,0-3.641,0h-11.03a2.258,2.258,0,0,1-2.251-2.407c0-.026,0-.052.008-.079l3.1-22.024a2.262,2.262,0,0,1,2.247-2.065h19.57a2.253,2.253,0,0,1,2.24,2l3.015,21.59c0,.011,0,.022,0,.032a2.5,2.5,0,0,1-2.56,2.956Zm-10.463-2.127h10.463a.542.542,0,0,0,.377-.121.661.661,0,0,0,.07-.465l-3.014-21.586c0-.011,0-.021,0-.032a.13.13,0,0,0-.128-.117h-19.57a.131.131,0,0,0-.129.123c0,.026,0,.052-.008.079l-3.1,22a.127.127,0,0,0,.035.08.123.123,0,0,0,.093.041h10.789l.82-6.715c0-.012,0-.025.005-.038a1.251,1.251,0,0,1,2.472,0c0,.012,0,.025.005.038Z" transform="translate(-1373.677 -2216.166)" fill="#226b80"/>
          </g>
        </g>
        <g id="Grupo_26569" data-name="Grupo 26569" transform="translate(45.861)">
          <g id="Grupo_26552" data-name="Grupo 26552" transform="translate(34.088 13.072)">
            <ellipse id="Elipse_1921" data-name="Elipse 1921" cx="6.094" cy="6.11" rx="6.094" ry="6.11" transform="translate(1.183 1.183)" fill="#fff"/>
            <path id="Trazado_68075" data-name="Trazado 68075" d="M2309.381,1584.768a7.293,7.293,0,1,1,7.277-7.293A7.293,7.293,0,0,1,2309.381,1584.768Zm0-12.219a4.926,4.926,0,1,0,4.911,4.927A4.924,4.924,0,0,0,2309.381,1572.549Z" transform="translate(-2302.104 -1570.183)" fill="#226b80"/>
          </g>
          <g id="Grupo_26553" data-name="Grupo 26553" transform="translate(11.385 14.124)">
            <ellipse id="Elipse_1922" data-name="Elipse 1922" cx="6.094" cy="6.11" rx="6.094" ry="6.11" transform="translate(1.183 1.183)" fill="#fff"/>
            <path id="Trazado_68076" data-name="Trazado 68076" d="M1993.6,1599.4a7.293,7.293,0,1,1,7.277-7.293A7.293,7.293,0,0,1,1993.6,1599.4Zm0-12.219a4.926,4.926,0,1,0,4.911,4.926A4.924,4.924,0,0,0,1993.6,1587.181Z" transform="translate(-1986.32 -1584.815)" fill="#226b80"/>
          </g>
          <g id="Grupo_26555" data-name="Grupo 26555" transform="translate(16.53 57.581)">
            <g id="Grupo_26554" data-name="Grupo 26554">
              <path id="Trazado_68077" data-name="Trazado 68077" d="M2080.222,2247.553c-.1,0-.192,0-.289-.007a5.886,5.886,0,0,1-5.585-6.169l1.448-30.042a5.876,5.876,0,1,1,11.738.569l-1.447,30.042A5.882,5.882,0,0,1,2080.222,2247.553Z" transform="translate(-2073.158 -2204.548)" fill="#fff"/>
              <path id="Trazado_68078" data-name="Trazado 68078" d="M2064.948,2233.462c-.108,0-.219,0-.339-.008a7.078,7.078,0,0,1-6.716-7.408l1.447-30.042a7.059,7.059,0,1,1,14.1.683l-1.448,30.042A7.055,7.055,0,0,1,2064.948,2233.462Zm1.462-41.823a4.706,4.706,0,0,0-4.707,4.479l-1.447,30.042a4.707,4.707,0,0,0,4.461,4.93c.08,0,.158.005.231.005a4.691,4.691,0,0,0,4.682-4.48l1.447-30.042a4.707,4.707,0,0,0-4.461-4.93C2066.548,2191.641,2066.479,2191.64,2066.41,2191.64Z" transform="translate(-2057.884 -2189.274)" fill="#226b80"/>
            </g>
          </g>
          <g id="Grupo_26557" data-name="Grupo 26557" transform="translate(17.697 30.129)">
            <g id="Grupo_26556" data-name="Grupo 26556">
              <path id="Trazado_68079" data-name="Trazado 68079" d="M2101.487,1864.367h-.082a10.927,10.927,0,0,1-10.832-11.021l.137-18.6a10.926,10.926,0,0,1,10.91-10.86h.082a10.927,10.927,0,0,1,10.832,11.021l-.136,18.6A10.926,10.926,0,0,1,2101.487,1864.367Z" transform="translate(-2089.389 -1822.699)" fill="#fff"/>
              <path id="Trazado_68080" data-name="Trazado 68080" d="M2086.213,1850.277h-.091a12.123,12.123,0,0,1-12.006-12.212l.137-18.6a12.109,12.109,0,0,1,12.093-12.034h.091a12.123,12.123,0,0,1,12.006,12.212l-.136,18.6a12.109,12.109,0,0,1-12.093,12.034Zm-.077-2.366h.077a9.743,9.743,0,0,0,9.727-9.685l.137-18.6a9.755,9.755,0,0,0-9.653-9.829h-.077a9.743,9.743,0,0,0-9.727,9.685l-.137,18.6A9.755,9.755,0,0,0,2086.136,1847.911Z" transform="translate(-2074.116 -1807.426)" fill="#226b80"/>
            </g>
          </g>
          <g id="Grupo_26558" data-name="Grupo 26558" transform="translate(16.641 1.901)">
            <ellipse id="Elipse_1923" data-name="Elipse 1923" cx="12.188" cy="12.219" rx="12.188" ry="12.219" transform="translate(1.185 1.188)" fill="#fff"/>
            <path id="Trazado_68081" data-name="Trazado 68081" d="M2072.822,1441.6a13.465,13.465,0,0,1-2.822-.3h0a13.413,13.413,0,0,1-4.462-24.363,13.259,13.259,0,0,1,10.053-1.85,13.413,13.413,0,0,1,4.462,24.363A13.26,13.26,0,0,1,2072.822,1441.6Zm-2.326-2.614a11.005,11.005,0,0,0,13.062-8.485,11.048,11.048,0,0,0-8.462-13.1,11,11,0,0,0-13.062,8.485A11.048,11.048,0,0,0,2070.5,1438.987Z" transform="translate(-2059.423 -1414.788)" fill="#226b80"/>
          </g>
          <g id="Grupo_26560" data-name="Grupo 26560" transform="translate(0 29.107)">
            <g id="Grupo_26559" data-name="Grupo 26559">
              <path id="Trazado_68082" data-name="Trazado 68082" d="M1895.7,1844.028a5.862,5.862,0,0,1-4.748-2.414l-14.687-20.139-6.907-.014-14.328,20.066a5.881,5.881,0,1,1-9.556-6.857l16.091-22.534a5.87,5.87,0,0,1,4.778-2.462h.012l12.91.027a5.87,5.87,0,0,1,4.73,2.414l16.443,22.546a5.9,5.9,0,0,1-1.275,8.232A5.839,5.839,0,0,1,1895.7,1844.028Z" transform="translate(-1843.197 -1808.49)" fill="#fff"/>
              <path id="Trazado_68083" data-name="Trazado 68083" d="M1880.466,1829.938a7.081,7.081,0,0,1-5.7-2.9l-14.334-19.654-5.7-.012-13.974,19.569a7.049,7.049,0,0,1-9.851,1.635,7.09,7.09,0,0,1-1.63-9.867l16.091-22.534a7.067,7.067,0,0,1,5.74-2.958h.012l12.912.027a7.079,7.079,0,0,1,5.684,2.9l16.443,22.546a7.092,7.092,0,0,1-1.531,9.884A7,7,0,0,1,1880.466,1829.938Zm-26.342-24.933h0l6.907.014a1.184,1.184,0,0,1,.954.486l14.688,20.139a4.707,4.707,0,0,0,3.792,1.928,4.645,4.645,0,0,0,2.764-.907,4.722,4.722,0,0,0,1.018-6.581l-16.443-22.546a4.7,4.7,0,0,0-3.777-1.928l-12.919-.027a4.7,4.7,0,0,0-3.815,1.966l-16.091,22.535a4.721,4.721,0,0,0,1.084,6.569,4.684,4.684,0,0,0,6.546-1.087l14.328-20.066A1.183,1.183,0,0,1,1854.124,1805.005Z" transform="translate(-1827.961 -1793.217)" fill="#226b80"/>
            </g>
          </g>
          <g id="Grupo_26562" data-name="Grupo 26562" transform="translate(27.928 55.569)">
            <g id="Grupo_26561" data-name="Grupo 26561">
              <path id="Trazado_68084" data-name="Trazado 68084" d="M2240.817,2221.58a5.882,5.882,0,0,1-5.858-5.51l-2.069-32.053a5.876,5.876,0,1,1,11.727-.761l2.069,32.053a5.885,5.885,0,0,1-5.484,6.259C2241.073,2221.576,2240.944,2221.58,2240.817,2221.58Z" transform="translate(-2231.695 -2176.563)" fill="#fff"/>
              <path id="Trazado_68085" data-name="Trazado 68085" d="M2225.544,2207.493a7.078,7.078,0,0,1-7.039-6.617l-2.069-32.052a7.059,7.059,0,1,1,14.088-.913l2.069,32.052a7.078,7.078,0,0,1-6.588,7.516C2225.851,2207.488,2225.7,2207.493,2225.544,2207.493Zm-2.065-43.834c-.1,0-.2,0-.3.01a4.708,4.708,0,0,0-4.379,5l2.069,32.052a4.707,4.707,0,0,0,4.677,4.4c.1,0,.206,0,.31-.01a4.707,4.707,0,0,0,4.378-5l-2.069-32.053A4.708,4.708,0,0,0,2223.479,2163.659Z" transform="translate(-2216.422 -2161.292)" fill="#226b80"/>
            </g>
          </g>
          <g id="Grupo_26563" data-name="Grupo 26563" transform="translate(10.293 34.182)">
            <path id="Trazado_68086" data-name="Trazado 68086" d="M2019.995,1920.688h-30.527a3.61,3.61,0,0,1-3.529-4.063l8.349-34.808a3.585,3.585,0,0,1,3.529-3.223h13.07a3.585,3.585,0,0,1,3.529,3.223l9.109,34.808A3.61,3.61,0,0,1,2019.995,1920.688Z" transform="translate(-1984.851 -1877.532)" fill="#fcaf75"/>
            <path id="Trazado_68087" data-name="Trazado 68087" d="M2006.272,1908.024h-30.527a4.585,4.585,0,0,1-3.413-1.537,4.764,4.764,0,0,1-1.173-3.708,1.022,1.022,0,0,1,.022-.129l8.334-34.748a4.646,4.646,0,0,1,4.577-4.1h13.07a4.645,4.645,0,0,1,4.576,4.086l9.091,34.739a1.077,1.077,0,0,1,.028.15,4.765,4.765,0,0,1-1.173,3.708A4.585,4.585,0,0,1,2006.272,1908.024Zm-33.005-4.947a2.635,2.635,0,0,0,.652,1.993,2.425,2.425,0,0,0,1.827.827h30.527a2.424,2.424,0,0,0,1.826-.827,2.633,2.633,0,0,0,.653-1.983l-9.088-34.728a1.039,1.039,0,0,1-.028-.15,2.523,2.523,0,0,0-2.472-2.279h-13.07a2.523,2.523,0,0,0-2.472,2.279,1.089,1.089,0,0,1-.023.129Z" transform="translate(-1971.129 -1863.804)" fill="#226b80"/>
          </g>
          <g id="Grupo_26568" data-name="Grupo 26568" transform="translate(11.804)">
            <g id="Grupo_26566" data-name="Grupo 26566">
              <g id="Grupo_26564" data-name="Grupo 26564" transform="translate(0 7.946)">
                <path id="Trazado_68088" data-name="Trazado 68088" d="M2013.628,1513.717l-5.9,1.585a1.044,1.044,0,0,0-.468,1.745l4.32,4.331a1.044,1.044,0,0,0,1.747-.468l1.581-5.916A1.044,1.044,0,0,0,2013.628,1513.717Z" transform="translate(-2005.889 -1512.616)" fill="#fcaf75"/>
                <path id="Trazado_68089" data-name="Trazado 68089" d="M1998.564,1509.013a2.084,2.084,0,0,1-1.482-.621l-4.32-4.331a2.107,2.107,0,0,1,.945-3.523l5.9-1.585a2.107,2.107,0,0,1,2.582,2.579l-1.581,5.916a2.086,2.086,0,0,1-1.491,1.491A2.14,2.14,0,0,1,1998.564,1509.013Zm-4.272-6.43,4.271,4.283,1.564-5.85Zm5.592-2.6h0Z" transform="translate(-1992.145 -1498.879)" fill="#226b80"/>
              </g>
              <g id="Grupo_26565" data-name="Grupo 26565" transform="translate(7.93)">
                <path id="Trazado_68090" data-name="Trazado 68090" d="M2118.56,1411.129l5.9-1.585a1.044,1.044,0,0,0,.468-1.745l-4.32-4.331a1.044,1.044,0,0,0-1.747.468l-1.581,5.916A1.044,1.044,0,0,0,2118.56,1411.129Z" transform="translate(-2116.18 -1402.096)" fill="#fcaf75"/>
                <path id="Trazado_68091" data-name="Trazado 68091" d="M2104.542,1398.485a2.11,2.11,0,0,1-2.026-2.653l1.581-5.916a2.107,2.107,0,0,1,3.528-.944l4.32,4.331a2.107,2.107,0,0,1-.945,3.523l-5.9,1.585A2.151,2.151,0,0,1,2104.542,1398.485Zm1.6-7.987-1.564,5.85,5.835-1.568Z" transform="translate(-2102.442 -1388.351)" fill="#226b80"/>
              </g>
            </g>
            <g id="Grupo_26567" data-name="Grupo 26567" transform="translate(4.756 4.761)">
              <ellipse id="Elipse_1924" data-name="Elipse 1924" cx="3.208" cy="3.216" rx="3.208" ry="3.216" transform="translate(1.061 1.063)" fill="#fcaf75"/>
              <path id="Trazado_68092" data-name="Trazado 68092" d="M2062.561,1463.132a4.238,4.238,0,0,1-3.021-1.255,4.29,4.29,0,0,1,0-6.05,4.266,4.266,0,0,1,6.042,0,4.291,4.291,0,0,1,0,6.05A4.239,4.239,0,0,1,2062.561,1463.132Zm0-6.432a2.126,2.126,0,0,0-1.515.629,2.16,2.16,0,0,0,0,3.046,2.138,2.138,0,0,0,3.03,0,2.16,2.16,0,0,0,0-3.046A2.127,2.127,0,0,0,2062.561,1456.7Z" transform="translate(-2058.292 -1454.574)" fill="#226b80"/>
            </g>
          </g>
        </g>
      </g>
    </g>
    <g id="Grupo_26576" data-name="Grupo 26576" transform="translate(1247.752 436.873)">
      <g id="Grupo_26574" data-name="Grupo 26574" transform="translate(0 0)">
        <g id="Grupo_26573" data-name="Grupo 26573">
          <g id="Grupo_26572" data-name="Grupo 26572">
            <circle id="Elipse_1925" data-name="Elipse 1925" cx="25.265" cy="25.265" r="25.265" transform="translate(0 35.73) rotate(-45)" fill="#fff"/>
            <path id="Trazado_68093" data-name="Trazado 68093" d="M2148.237,618.876c-.158,0-.316,0-.475,0a26.462,26.462,0,1,1,26.905-25.983l-1.183-.021,1.183.021a26.426,26.426,0,0,1-26.43,25.987Zm-.025-50.53a24.082,24.082,0,0,0-.409,48.16c.144,0,.288,0,.431,0a24.082,24.082,0,0,0,24.067-23.662h0a24.082,24.082,0,0,0-23.658-24.5C2148.5,568.347,2148.355,568.346,2148.211,568.346Z" transform="translate(-2112.493 -556.698)" fill="#226b80"/>
          </g>
        </g>
      </g>
      <g id="Grupo_26575" data-name="Grupo 26575" transform="translate(20.842 21.005)">
        <path id="Trazado_68094" data-name="Trazado 68094" d="M2325.152,752.327h-8.493v-8.493h-10.806v8.493h-8.493v10.806h8.493v8.493h10.806v-8.493h8.493Z" transform="translate(-2296.297 -742.771)" fill="#a2f4c3"/>
        <path id="Trazado_68095" data-name="Trazado 68095" d="M2302.933,758.962h-10.806a1.063,1.063,0,0,1-1.063-1.063v-7.429h-7.429a1.063,1.063,0,0,1-1.063-1.063V738.6a1.063,1.063,0,0,1,1.063-1.063h7.429v-7.429a1.063,1.063,0,0,1,1.063-1.063h10.806a1.064,1.064,0,0,1,1.063,1.063v7.429h7.429a1.063,1.063,0,0,1,1.063,1.063v10.806a1.063,1.063,0,0,1-1.063,1.063H2304V757.9A1.064,1.064,0,0,1,2302.933,758.962Zm-9.743-2.127h8.68v-7.429a1.063,1.063,0,0,1,1.063-1.063h7.429v-8.68h-7.429a1.063,1.063,0,0,1-1.063-1.063V731.17h-8.68V738.6a1.063,1.063,0,0,1-1.063,1.063H2284.7v8.68h7.429a1.063,1.063,0,0,1,1.063,1.063Z" transform="translate(-2282.57 -729.043)" fill="#226b80"/>
      </g>
    </g>
    <g id="Grupo_26584" data-name="Grupo 26584" transform="translate(1293.396 484.582)">
      <g id="Grupo_26577" data-name="Grupo 26577" transform="translate(0 0)">
        <path id="Trazado_68096" data-name="Trazado 68096" d="M2720.946,1134.989c-7.247-2.081-14.47,1.088-21.527,8.349-2.438,2.509-7.856,7.315-7.932,7.365-8.47,5.6-13.259-8.482-14.159-17.195l-1.9-16.58-4.816.335-2.577.179c.163,1.355.82,14.353,1.357,19.435,2.2,20.84,8.1,20.035,14.767,30.3,2.847,4.384,2.931,10.036,2.315,15.227-.523,4.41-1.328,10.027-2.261,12.524-3.031,8.112-10.851,8.225-15.182,8.592a48.645,48.645,0,0,0-10.653,2.1,20.368,20.368,0,0,0-11.7,9.009,19.043,19.043,0,0,0-2.658,9.206,30.615,30.615,0,0,0,2.02,11.851,17.375,17.375,0,0,0,2.023,3.794,19.739,19.739,0,0,0,9.188,6.787l3.328-4.551,1.553-2.124c-3.095-1.06-7.8-2.235-9.46-9.183-3.035-12.715,10.224-16.923,15.23-16.766.289.009.608.053.961.079a22.69,22.69,0,0,1,17.182,9.342l.105.139c1.893,2.507,3.973,5.954,7.368,7.305,13.49,5.369,31.409-14.125,38.982-40.5a92.8,92.8,0,0,0,2.373-10.54C2738.51,1157.354,2733.017,1138.456,2720.946,1134.989Z" transform="translate(-2642.824 -1115.745)" fill="#fff"/>
        <path id="Trazado_68097" data-name="Trazado 68097" d="M2641.975,1232.17a1.186,1.186,0,0,1-.3-.039,20.819,20.819,0,0,1-9.83-7.217,18.345,18.345,0,0,1-2.185-4.086,31.6,31.6,0,0,1-2.1-12.31,20.226,20.226,0,0,1,2.822-9.771,21.453,21.453,0,0,1,12.374-9.54,50.014,50.014,0,0,1,10.9-2.142c.258-.022.528-.043.809-.065a23.494,23.494,0,0,0,7.415-1.441,10.462,10.462,0,0,0,5.95-6.322c.71-1.9,1.469-6.137,2.194-12.249.764-6.438.086-11.027-2.132-14.443a49.527,49.527,0,0,0-5.317-6.672,31.424,31.424,0,0,1-5.878-8.212c-1.824-3.89-3.018-8.953-3.756-15.934-.341-3.218-.726-9.536-1.007-14.149-.157-2.575-.292-4.8-.349-5.269a1.183,1.183,0,0,1,1.093-1.321l7.393-.514a1.183,1.183,0,0,1,1.258,1.045l1.9,16.58s0,.009,0,.013a39.436,39.436,0,0,0,2.478,10.217c1.433,3.564,3.18,5.916,5.053,6.8,1.459.69,3.011.477,4.744-.653.588-.505,5.535-4.917,7.792-7.238,7.654-7.875,15.292-10.789,22.7-8.661h0a16.861,16.861,0,0,1,8.365,5.685,29.82,29.82,0,0,1,5.294,10.351,54.3,54.3,0,0,1,2.18,13.739,79.967,79.967,0,0,1-1.069,16.026,94.377,94.377,0,0,1-2.4,10.675,88.273,88.273,0,0,1-11.611,25.222c-4.886,7.141-10.349,12.329-15.8,15a19.074,19.074,0,0,1-6.649,1.964,13.993,13.993,0,0,1-6.5-.915c-3.209-1.277-5.326-4.194-7.027-6.539-.294-.406-.573-.789-.847-1.153l-.1-.131a22.636,22.636,0,0,0-6.929-6.172,22.153,22.153,0,0,0-9.4-2.711c-.153-.011-.293-.025-.429-.038-.177-.017-.345-.034-.481-.038a16.418,16.418,0,0,0-5.942,1.2,15.08,15.08,0,0,0-6.232,4.278c-2.164,2.654-2.792,5.963-1.868,9.835,1.409,5.9,5.132,7.146,8.123,8.146.195.065.385.129.57.192a1.183,1.183,0,0,1,.572,1.818l-4.882,6.675A1.183,1.183,0,0,1,2641.975,1232.17Zm12.054-128.9c.063.923.148,2.309.261,4.169.28,4.591.663,10.878,1,14.044,1.537,14.531,4.846,18.182,9.035,22.806a52.189,52.189,0,0,1,5.548,6.972,17.98,17.98,0,0,1,2.639,7.82,35.344,35.344,0,0,1-.142,8.19c-.758,6.387-1.541,10.693-2.328,12.8a12.88,12.88,0,0,1-7.245,7.673,25.791,25.791,0,0,1-8.154,1.62c-.275.021-.539.042-.792.063a47.779,47.779,0,0,0-10.41,2.049,19.094,19.094,0,0,0-11.021,8.478,17.887,17.887,0,0,0-2.495,8.641,29.243,29.243,0,0,0,1.943,11.392,16.273,16.273,0,0,0,1.86,3.5,19.769,19.769,0,0,0,5.146,4.71,17.048,17.048,0,0,0,2.66,1.389l3.415-4.67c-3.106-1.1-7.158-3.032-8.7-9.51a14.96,14.96,0,0,1-.167-6.762,12.278,12.278,0,0,1,2.5-5.118,17.437,17.437,0,0,1,7.214-4.991,18.82,18.82,0,0,1,6.868-1.353c.214.007.429.028.637.048.121.012.245.024.375.034a23.835,23.835,0,0,1,18.033,9.8l.112.148c.286.379.571.771.872,1.186,1.6,2.206,3.416,4.707,5.987,5.73,3.387,1.348,7.166,1.02,11.23-.974,5.084-2.495,10.232-7.41,14.887-14.215a85.887,85.887,0,0,0,11.29-24.539A91.966,91.966,0,0,0,2718.43,1164c1.746-10.618,1.377-20.807-1.038-28.688a27.488,27.488,0,0,0-4.855-9.536,14.543,14.543,0,0,0-7.2-4.919,15.224,15.224,0,0,0-10.068.632,30.9,30.9,0,0,0-10.284,7.4c-2.27,2.335-7.847,7.341-8.13,7.528a7.114,7.114,0,0,1-7.114.853c-2.456-1.161-4.554-3.872-6.237-8.058a41.9,41.9,0,0,1-2.635-10.849l-1.772-15.45Zm21.527,31.176h0Z" transform="translate(-2627.546 -1100.471)" fill="#226b80"/>
      </g>
      <g id="Grupo_26583" data-name="Grupo 26583" transform="translate(51.47 54.307)">
        <g id="Grupo_26578" data-name="Grupo 26578">
          <path id="Trazado_68098" data-name="Trazado 68098" d="M3359.921,1877.78c.093-3.095,2.208-5.542,4.722-5.466s4.477,2.646,4.384,5.741" transform="translate(-3358.738 -1871.129)" fill="#fff"/>
          <path id="Trazado_68099" data-name="Trazado 68099" d="M3353.754,1863.964h-.036a1.183,1.183,0,0,1-1.147-1.218c.074-2.438-1.379-4.467-3.237-4.523a2.981,2.981,0,0,0-2.338,1.135,5.1,5.1,0,0,0-1.166,3.185,1.183,1.183,0,1,1-2.365-.071,7.466,7.466,0,0,1,1.74-4.66,5.325,5.325,0,0,1,4.048-1.956l.153,0a5.3,5.3,0,0,1,4.074,2.2,7.465,7.465,0,0,1,1.457,4.756A1.183,1.183,0,0,1,3353.754,1863.964Z" transform="translate(-3343.464 -1855.855)" fill="#226b80"/>
        </g>
        <g id="Grupo_26579" data-name="Grupo 26579" transform="translate(20.013 0.604)">
          <path id="Trazado_68100" data-name="Trazado 68100" d="M3638.3,1886.183c.094-3.095,2.208-5.542,4.722-5.466s4.478,2.646,4.384,5.741" transform="translate(-3637.115 -1879.532)" fill="#fff"/>
          <path id="Trazado_68101" data-name="Trazado 68101" d="M3632.131,1872.368h-.036a1.183,1.183,0,0,1-1.147-1.218c.074-2.438-1.378-4.467-3.237-4.523s-3.43,1.882-3.5,4.319a1.183,1.183,0,1,1-2.365-.071,7.462,7.462,0,0,1,1.74-4.66,5.16,5.16,0,0,1,8.274.25,7.464,7.464,0,0,1,1.456,4.756A1.183,1.183,0,0,1,3632.131,1872.368Z" transform="translate(-3621.842 -1864.258)" fill="#226b80"/>
        </g>
        <g id="Grupo_26582" data-name="Grupo 26582" transform="translate(3.55 14.029)">
          <g id="Grupo_26580" data-name="Grupo 26580">
            <path id="Trazado_68102" data-name="Trazado 68102" d="M3407.629,2065.778c.551,5.83,4.4,10.447,10.4,10.628s10.125-4.2,11.026-9.981Z" transform="translate(-3406.566 -2064.715)" fill="#fcaf75"/>
            <path id="Trazado_68103" data-name="Trazado 68103" d="M3404.665,2063.748c-.13,0-.261,0-.392-.006a11.145,11.145,0,0,1-7.992-3.533,13.671,13.671,0,0,1-3.438-8.059,1.063,1.063,0,0,1,1.091-1.163l21.429.647a1.063,1.063,0,0,1,1.018,1.226,13.669,13.669,0,0,1-3.918,7.837A11.1,11.1,0,0,1,3404.665,2063.748Zm-9.537-10.6a11.184,11.184,0,0,0,2.707,5.605,9.478,9.478,0,0,0,13.165.4,11.185,11.185,0,0,0,3.04-5.432Z" transform="translate(-3392.838 -2050.988)" fill="#226b80"/>
          </g>
          <g id="Grupo_26581" data-name="Grupo 26581" transform="translate(4.775 6.173)">
            <path id="Trazado_68104" data-name="Trazado 68104" d="M3486.353,2156.258c-1.392-4.726-5.754-2.284-5.754-2.284a3.84,3.84,0,0,0-4.884,1.753,10.688,10.688,0,0,0,5.318,1.714A16.251,16.251,0,0,0,3486.353,2156.258Z" transform="translate(-3474.532 -2152.157)" fill="#fff"/>
            <path id="Trazado_68105" data-name="Trazado 68105" d="M3465.852,2143.313h-.111a11.862,11.862,0,0,1-5.977-1.926,1.183,1.183,0,0,1-.375-1.517,5.646,5.646,0,0,1,1.55-1.768,4.69,4.69,0,0,1,4.312-.716,5.579,5.579,0,0,1,4.188-.217,4.934,4.934,0,0,1,2.774,3.444,1.183,1.183,0,0,1-.681,1.427A17.512,17.512,0,0,1,3465.852,2143.313Zm-3.592-3.242a8.831,8.831,0,0,0,3.514.875,12.711,12.711,0,0,0,3.737-.694,2.043,2.043,0,0,0-.965-.893,3.7,3.7,0,0,0-2.644.335,1.184,1.184,0,0,1-1.012.068,2.466,2.466,0,0,0-2.483.2C3462.356,2140,3462.307,2140.034,3462.26,2140.072Z" transform="translate(-3459.257 -2136.846)" fill="#226b80"/>
          </g>
        </g>
      </g>
    </g>
  </g>
</svg>
